<svg xmlns="http://www.w3.org/2000/svg" width="655.444" height="271.313" viewBox="0 0 655.444 271.313">
  <g id="Grupo_28872" data-name="Grupo 28872" transform="translate(-229.109 -406.96)">
    <g id="Grupo_28819" data-name="Grupo 28819" transform="translate(246.281 406.96)">
      <path id="Trazado_5356" data-name="Trazado 5356" d="M921.866,672.932H301.28s-.535-5.124-.694-13.4c-.089-4.821-.057-10.715.29-17.286.03-.536.06-1.08.092-1.627.181-3.013.425-6.16.754-9.4.03-.287.06-.577.092-.866.358-3.391.8-6.914,1.36-10.535.453-2.941.974-5.951,1.586-9.007.041-.214.085-.43.129-.646q.472-2.334,1.013-4.7.21-.927.432-1.861.434-1.82.91-3.653,1.158-4.491,2.59-9.032c.1-.306.2-.618.292-.931q.652-2.02,1.36-4.051,1.082-3.085,2.3-6.169c.508-1.289,1.041-2.574,1.59-3.86A130.718,130.718,0,0,1,336.86,541.15c21.321-24.437,54.9-42.334,107.6-41.81,10.593.1,20.438-.172,29.627-.781h.014q4.191-.275,8.2-.646l.028,0c60.872-5.6,91.372-26.47,119.1-46.828q1.493-1.1,2.978-2.19c9.7-7.144,19.177-14.152,29.636-20.34q4.015-2.378,8.247-4.582c17.339-8.986,37.855-15.514,66.209-16.921a70.72,70.72,0,0,1,8.088.053q1.506.1,2.98.26A57.638,57.638,0,0,1,748.517,418.7c21.259,16.148,31.822,47.742,26.293,87.183-3.743,26.711,4.713,41.194,19.2,50.661C834.092,582.759,920.347,570.556,921.866,672.932Z" transform="translate(-300.543 -406.96)" fill="#f8fbff"/>
      <path id="Trazado_5357" data-name="Trazado 5357" d="M1173.848,928.1v-12.2h-2.859V894.939h-15.33v20.969h-14.332V881.739h-15.816v22.181H1121.9V877.439h-15.816V927.09h-20v28.953h-7.474v-12.89h-17.167v7.624h-9.856V916.648h-12.175V941.91H1027.24v92.562h158.823V928.1Z" transform="translate(-852.557 -764.345)" fill="#e7f1fb"/>
      <path id="Trazado_5358" data-name="Trazado 5358" d="M1866.241,1165.576v64.449H1712.764V1173.94h11.764v-15.305h11.765v20.679h9.527v-4.621h16.587v7.81h7.224V1164.96h19.329v-30.084h15.282v16.045h3.486v-13.439h15.284v20.7h13.849V1145.48h14.816v12.707h2.762v7.389Z" transform="translate(-1373.294 -959.899)" fill="#e7f1fb"/>
      <path id="Trazado_5359" data-name="Trazado 5359" d="M591.548,1022.943v89.389H451.625v-77.785h10.726v-21.229h10.726V1042h8.683v-6.408h15.126v10.834h6.583v-24.331H521.09V980.368h13.933v22.254H538.2V983.98h13.934v28.715h12.628V995.073H578.27v17.621h2.518v10.248Z" transform="translate(-415.308 -842.532)" fill="#e7f1fb"/>
      <path id="Trazado_5360" data-name="Trazado 5360" d="M1696.2,477.73V730.259h-8.245V482.311Q1691.966,479.932,1696.2,477.73Z" transform="translate(-1354.446 -460.718)" fill="#deedff"/>
      <path id="Trazado_5361" data-name="Trazado 5361" d="M1030.755,785.317V963.908h-8.243V785.966Z" transform="translate(-848.965 -694.367)" fill="#deedff"/>
    </g>
    <g id="Grupo_28820" data-name="Grupo 28820" transform="translate(528.238 448.893)">
      <path id="Trazado_5362" data-name="Trazado 5362" d="M1555.249,581.4v19.632c0,2.47-.625,4.485-1.39,4.485h-.2c-.765,0-1.39-2.015-1.39-4.485V583.593Q1553.764,582.5,1555.249,581.4Z" transform="translate(-1533.337 -581.403)" fill="#f99746"/>
      <path id="Trazado_5363" data-name="Trazado 5363" d="M1493.153,648.781c-10.851,0-19.647,9.3-19.647,20.775H1512.8C1512.8,658.083,1504,648.781,1493.153,648.781Z" transform="translate(-1473.506 -632.585)" fill="#f99746"/>
      <path id="Trazado_5364" data-name="Trazado 5364" d="M1515.847,649.241a8.082,8.082,0,0,0-1.726-.188c-7.07,0-12.8,9.272-12.8,20.71h3.451C1504.772,659.272,1509.594,650.6,1515.847,649.241Z" transform="translate(-1494.635 -632.791)" fill="#ffb278"/>
    </g>
    <g id="Grupo_28821" data-name="Grupo 28821" transform="translate(643.397 407.104)">
      <path id="Trazado_5365" data-name="Trazado 5365" d="M2034.319,407.817v56.414c0,.494-.007.979-.018,1.45-.106,4.4-.682,7.783-1.374,7.783h-.2c-.641,0-1.183-2.911-1.342-6.843q-.021-.486-.032-.993c0-.023,0-.046,0-.071-.01-.432-.014-.875-.014-1.326V407.557Q2032.845,407.654,2034.319,407.817Z" transform="translate(-2012.406 -407.557)" fill="#f99746"/>
      <path id="Trazado_5366" data-name="Trazado 5366" d="M1972.225,648.781c-10.851,0-19.648,9.3-19.648,20.775h39.3C1991.872,658.083,1983.075,648.781,1972.225,648.781Z" transform="translate(-1952.577 -590.796)" fill="#f99746"/>
      <path id="Trazado_5367" data-name="Trazado 5367" d="M1994.918,649.241a8.081,8.081,0,0,0-1.725-.188c-7.07,0-12.8,9.272-12.8,20.71h3.451C1983.843,659.272,1988.665,650.6,1994.918,649.241Z" transform="translate(-1973.706 -591.002)" fill="#ffb278"/>
    </g>
    <path id="Trazado_5368" data-name="Trazado 5368" d="M2337.5,713.919H2209.122v.037h-44.974V455.81c21.259,16.4,31.822,48.471,26.293,88.514-3.743,27.119,4.713,41.823,19.2,51.434C2249.723,622.371,2335.978,609.981,2337.5,713.919Z" transform="translate(-1469.894 -37.107)" fill="#deedff"/>
    <g id="Grupo_28828" data-name="Grupo 28828" transform="translate(742.098 606.063)">
      <g id="Grupo_28823" data-name="Grupo 28823" transform="translate(37.853 28.271)">
        <path id="Trazado_5369" data-name="Trazado 5369" d="M2548.233,1364.835s-4.954-5.78-.305-9.45c0,0,3.4-2.056,6.164-1.889,0,0-3.923,6.578-2.654,7.233s3.843-7.646,3.843-7.646,7.727-.749,10.212.446c0,0-6.605,5.405-5.214,5.727s8.526-4.984,8.526-4.984,7.192,1.224,6.809,5.611-2.862,5.742-3.951,5.625-7.46-2.549-7.6-1.656,3.7,3.809,6.382,3.945c0,0-5.071,5.592-8.44,3.978s-3.658-4.172-5.758-5.131-3.894-.957-3.026.021,4.669,1.929,5.87,4.054,2.279,3.558-1.207,3.033-9.153-3.075-9.4-6Z" transform="translate(-2539.86 -1352.851)" fill="#82b378"/>
        <g id="Grupo_28822" data-name="Grupo 28822" transform="translate(0 7.117)">
          <path id="Trazado_5370" data-name="Trazado 5370" d="M2565.6,1382.491s-19.532-.753-23.846,4.833a14.122,14.122,0,0,1-3.889,5.459l-.458,1.247s3.385-3.569,4.6-3.785C2542,1390.245,2540.1,1383.325,2565.6,1382.491Z" transform="translate(-2533.376 -1382.457)" fill="#82b378"/>
          <path id="Trazado_5371" data-name="Trazado 5371" d="M2525.137,1423.861a12.265,12.265,0,0,0-4.484,8.641l.761.068s1.339-5.728,3.759-7.969S2525.137,1423.861,2525.137,1423.861Z" transform="translate(-2520.653 -1413.535)" fill="#82b378"/>
        </g>
      </g>
      <g id="Grupo_28825" data-name="Grupo 28825" transform="translate(0 12.579)">
        <path id="Trazado_5372" data-name="Trazado 5372" d="M2392.088,1307.98s7.881-4.413,4.2-10.4c0,0-2.942-3.677-6.094-4.623,0,0,1.681,8.931,0,9.141s-1.156-10.087-1.156-10.087-8.3-3.993-11.558-3.678c0,0,5.148,8.721,3.468,8.511s-7.46-9.036-7.46-9.036-8.511-1.576-9.877,3.467.84,7.565,2.1,7.88,9.351.21,9.141,1.261-5.674,2.732-8.721,1.786c0,0,3.362,8.3,7.775,7.88s5.779-3.152,8.511-3.363,4.728.526,3.362,1.261-5.989.241-8.2,2.117-3.992,3.032.105,3.872,11.453.315,12.924-2.837Z" transform="translate(-2363.182 -1287.573)" fill="#a8d29f"/>
        <g id="Grupo_28824" data-name="Grupo 28824" transform="translate(4.318 5.277)">
          <path id="Trazado_5373" data-name="Trazado 5373" d="M2381.147,1309.524s22.065,7.145,24.587,15.131a16.756,16.756,0,0,0,2.1,7.67v1.576s-2.312-5.359-3.573-6.094C2404.263,1327.807,2409.2,1320.872,2381.147,1309.524Z" transform="translate(-2381.147 -1309.524)" fill="#82b378"/>
          <path id="Trazado_5374" data-name="Trazado 5374" d="M2488.842,1401.278a14.553,14.553,0,0,1,1.463,11.458l-.875-.235s.85-6.929-.93-10.413S2488.842,1401.278,2488.842,1401.278Z" transform="translate(-2462.154 -1378.477)" fill="#82b378"/>
        </g>
      </g>
      <g id="Grupo_28827" data-name="Grupo 28827" transform="translate(34.614)">
        <path id="Trazado_5375" data-name="Trazado 5375" d="M2514.006,1262.143s-10.388-5.817-5.54-13.712c0,0,3.878-4.848,8.033-6.094,0,0-2.216,11.773,0,12.05s1.523-13.3,1.523-13.3,10.942-5.263,15.236-4.848c0,0-6.787,11.5-4.571,11.219s9.834-11.911,9.834-11.911,11.219-2.078,13.02,4.571-1.108,9.972-2.77,10.388-12.327.277-12.05,1.662,7.479,3.6,11.5,2.354c0,0-4.432,10.942-10.249,10.388s-7.618-4.155-11.219-4.432-6.233.693-4.432,1.662,7.9.318,10.8,2.791,5.263,4-.139,5.1-15.1.416-17.036-3.74Z" transform="translate(-2507.177 -1235.242)" fill="#a8d29f"/>
        <g id="Grupo_28826" data-name="Grupo 28826" transform="translate(1.343 6.956)">
          <path id="Trazado_5376" data-name="Trazado 5376" d="M2559.243,1264.178s-29.086,9.418-32.41,19.945a22.1,22.1,0,0,1-2.77,10.111v2.077s3.047-7.063,4.709-8.033C2528.772,1288.278,2522.262,1279.136,2559.243,1264.178Z" transform="translate(-2521.347 -1264.178)" fill="#82b378"/>
          <path id="Trazado_5377" data-name="Trazado 5377" d="M2515.479,1385.126a19.182,19.182,0,0,0-1.928,15.1l1.154-.31s-1.12-9.133,1.227-13.726S2515.479,1385.126,2515.479,1385.126Z" transform="translate(-2512.763 -1355.07)" fill="#82b378"/>
        </g>
      </g>
      <path id="Trazado_5378" data-name="Trazado 5378" d="M2469.829,1462.54a20.348,20.348,0,0,0,20.348-20.349h-40.7A20.348,20.348,0,0,0,2469.829,1462.54Z" transform="translate(-2428.736 -1392.445)" fill="#f1a34f"/>
      <path id="Trazado_5379" data-name="Trazado 5379" d="M2482.673,1462.384a20.361,20.361,0,0,1-22.876-20.193h5.055A20.351,20.351,0,0,0,2482.673,1462.384Z" transform="translate(-2436.573 -1392.445)" fill="#ffb973"/>
      <path id="Trazado_5380" data-name="Trazado 5380" d="M2489.57,1523.216h-41.258a2.51,2.51,0,0,1,2.51-2.51h36.238a2.51,2.51,0,0,1,2.51,2.51Z" transform="translate(-2427.848 -1452.086)" fill="#f1a34f"/>
      <rect id="Rectángulo_5033" data-name="Rectángulo 5033" width="41.828" height="0.624" transform="translate(20.075 49.746)" fill="#d86713"/>
    </g>
    <g id="Grupo_28834" data-name="Grupo 28834" transform="translate(659.369 573.755)">
      <path id="Trazado_5381" data-name="Trazado 5381" d="M2176.532,1140.515a178.57,178.57,0,0,1,2.12-22.206c1.521-8.671,2.889-13.66,2.9-13.713.2-.762,3.093-3.848,9.526-3.753s5.822,4.141,5.822,4.141h0a1.273,1.273,0,0,1-.046.36,191.762,191.762,0,0,0-5.71,48.591c0,.383.047,1.044.02,1.485,0,0-14.906.38-14.91,0C2175.738,1153.037,2175.992,1146.434,2176.532,1140.515Z" transform="translate(-2138.246 -1100.841)" fill="#d1a586"/>
      <path id="Trazado_5382" data-name="Trazado 5382" d="M2169.533,1153.8c0,.38.208.684.456.684h.005c.248-.006.445-.31.448-.684h12.775c0,.38.208.684.455.684h.006c.252-.006.453-.32.45-.7a187.769,187.769,0,0,1,1.06-21.525,167.06,167.06,0,0,1,4.882-26.911,1.316,1.316,0,0,0,.046-.36s.61-4.046-5.822-4.141-9.326,2.99-9.526,3.753c-.012.04-.787,2.865-1.817,7.943-.341,1.682-.709,3.612-1.088,5.768a178.84,178.84,0,0,0-2.119,22.206C2169.2,1146.434,2169.013,1151.418,2169.533,1153.8Z" transform="translate(-2133.12 -1100.841)" fill="#e5bd9e"/>
      <path id="Trazado_5383" data-name="Trazado 5383" d="M2169.533,1190.769c0,.38.208.684.456.684h.005c.248-.006.445-.31.448-.684h12.775c0,.38.208.684.455.684h.006c.252-.006.453-.32.45-.7a187.772,187.772,0,0,1,1.06-21.525c-2.112-10.18-10.274-17.966-12.237-19.716-.341,1.682-.709,3.612-1.088,5.768a178.838,178.838,0,0,0-2.119,22.206C2169.2,1183.4,2169.013,1188.387,2169.533,1190.769Z" transform="translate(-2133.12 -1137.809)" fill="#dfb697"/>
      <g id="Grupo_28829" data-name="Grupo 28829" transform="translate(37.065 1.605)">
        <path id="Trazado_5384" data-name="Trazado 5384" d="M2185.436,1158.744l-.036-.025c-.01-.008-.019-.013-.023-.064h-.008a.34.34,0,0,0-.1-.264c-.4-.411-1.95-.394-3.911-.372a40.813,40.813,0,0,1-7.452-.405c-1.371-.237-.446-10.654.529-20.4.166-1.655.3-2.962.355-3.732.635-8.291,4.3-23,4.337-23.12.163-.62,2.369-2.918,7.152-2.842,1.809.027,3.092.471,3.811,1.319a2.471,2.471,0,0,1,.589,1.843.977.977,0,0,1-.037.277c-.02.08-3.326,19.112-3.866,23.679-.891,7.534-1.245,23.11-1.261,23.981,0,.011,0,.022,0,.033v.044Zm-2.854-.88c1.43,0,2.439.065,2.791.425h0c.006-.359.024-1.031.06-2.3.042-1.49.114-3.817.219-6.442.183-4.593.5-10.911.977-14.927.553-4.68,3.854-23.644,3.871-23.7a.9.9,0,0,0,.031-.246,2.374,2.374,0,0,0-.557-1.741c-.692-.813-1.937-1.239-3.7-1.265-4.7-.062-6.853,2.137-7.01,2.736-.036.135-3.7,14.785-4.332,23.092-.059.771-.19,2.079-.356,3.735-.649,6.494-2,20.007-.649,20.241a40.734,40.734,0,0,0,7.426.4C2181.792,1157.868,2182.2,1157.864,2182.583,1157.864Z" transform="translate(-2173.214 -1107.519)" fill="#d1a586"/>
      </g>
      <path id="Trazado_5385" data-name="Trazado 5385" d="M2076.882,1311.261H2026.8s1.166-4.655,30.171-3.962C2077.5,1307.79,2076.882,1311.261,2076.882,1311.261Z" transform="translate(-2024.93 -1257.617)" fill="#e5bd9e"/>
      <g id="Grupo_28830" data-name="Grupo 28830" transform="translate(47.538 54.365)">
        <path id="Trazado_5386" data-name="Trazado 5386" d="M2225.275,1374.908c-5.807-29-4.314-46.789-4.306-47.013.015-.446-.82-.852-1.268-.866s-2.459-.132-2.691.25c-.3.5-1.473,22.423,7.182,47.629Z" transform="translate(-2216.785 -1327.004)" fill="#d1a586"/>
      </g>
      <g id="Grupo_28831" data-name="Grupo 28831" transform="translate(9.267 54.365)">
        <path id="Trazado_5387" data-name="Trazado 5387" d="M2057.574,1374.908c5.807-29,4.314-46.789,4.306-47.013-.015-.446.82-.852,1.268-.866s2.458-.132,2.69.25c.3.5,1.473,22.423-7.181,47.629Z" transform="translate(-2057.574 -1327.004)" fill="#d1a586"/>
      </g>
      <g id="Grupo_28832" data-name="Grupo 28832" transform="translate(0 54.365)">
        <path id="Trazado_5388" data-name="Trazado 5388" d="M2019.022,1374.908c5.807-29,4.314-46.789,4.307-47.013-.015-.446.819-.852,1.268-.866s2.459-.132,2.691.25c.3.5,1.473,22.423-7.181,47.629Z" transform="translate(-2019.022 -1327.004)" fill="#a0795f"/>
      </g>
      <g id="Grupo_28833" data-name="Grupo 28833" transform="translate(38.209 54.365)">
        <path id="Trazado_5389" data-name="Trazado 5389" d="M2186.464,1374.908c-5.807-29-4.313-46.789-4.306-47.013.015-.446-.82-.852-1.268-.866s-2.459-.132-2.691.25c-.3.5-1.473,22.423,7.181,47.629Z" transform="translate(-2177.974 -1327.004)" fill="#a0795f"/>
      </g>
      <path id="Rectángulo_5034" data-name="Rectángulo 5034" d="M1.345,0H50.79a1.344,1.344,0,0,1,1.344,1.344v0A1.344,1.344,0,0,1,50.79,2.689H1.344A1.344,1.344,0,0,1,0,1.345v0A1.345,1.345,0,0,1,1.345,0Z" transform="translate(52.948 55.13) rotate(180)" fill="#d1a586"/>
    </g>
    <g id="Grupo_28840" data-name="Grupo 28840" transform="translate(469.831 572.337)">
      <path id="Trazado_5390" data-name="Trazado 5390" d="M1388.039,1135.163a183.606,183.606,0,0,1,2.12-22.514c1.52-8.791,2.889-13.848,2.905-13.9.2-.773,3.093-3.9,9.526-3.8s5.822,4.2,5.822,4.2h0a1.323,1.323,0,0,1-.046.365,196.915,196.915,0,0,0-5.711,49.262c0,.388.047,1.059.02,1.506,0,0-14.906.385-14.91,0C1387.245,1147.858,1387.5,1141.163,1388.039,1135.163Z" transform="translate(-1349.753 -1094.94)" fill="#d1a586"/>
      <path id="Trazado_5391" data-name="Trazado 5391" d="M1381.04,1148.631c0,.385.208.693.456.693h.006c.248-.006.445-.314.448-.693h12.775c0,.385.208.693.455.693h.006c.252-.006.453-.324.45-.714a192.86,192.86,0,0,1,1.06-21.823,171.46,171.46,0,0,1,4.882-27.283,1.36,1.36,0,0,0,.046-.365s.61-4.1-5.822-4.2-9.326,3.032-9.526,3.805c-.012.04-.787,2.9-1.817,8.053-.341,1.706-.71,3.662-1.088,5.848a183.763,183.763,0,0,0-2.12,22.513C1380.711,1141.163,1380.521,1146.216,1381.04,1148.631Z" transform="translate(-1344.628 -1094.94)" fill="#e5bd9e"/>
      <path id="Trazado_5392" data-name="Trazado 5392" d="M1381.04,1186.111c0,.385.208.693.456.693h.006c.248-.006.445-.314.448-.693h12.775c0,.385.208.693.455.693h.006c.252-.006.453-.324.45-.714a192.861,192.861,0,0,1,1.06-21.823c-2.112-10.321-10.275-18.214-12.237-19.988-.341,1.706-.71,3.662-1.088,5.848a183.768,183.768,0,0,0-2.12,22.513C1380.711,1178.643,1380.521,1183.7,1381.04,1186.111Z" transform="translate(-1344.628 -1132.42)" fill="#dfb697"/>
      <g id="Grupo_28835" data-name="Grupo 28835" transform="translate(37.064 1.629)">
        <path id="Trazado_5393" data-name="Trazado 5393" d="M1396.942,1153.646l-.036-.025c-.01-.007-.019-.013-.023-.064h-.008a.349.349,0,0,0-.1-.271c-.406-.414-1.951-.4-3.908-.375a40.338,40.338,0,0,1-7.453-.411c-1.371-.241-.446-10.8.528-20.677.166-1.68.3-3.006.356-3.786.631-8.361,4.3-23.321,4.337-23.439.163-.629,2.369-2.958,7.153-2.881,1.8.027,3.076.472,3.8,1.322a2.528,2.528,0,0,1,.6,1.884,1,1,0,0,1-.036.281c-.02.081-3.325,19.373-3.866,24.006-.89,7.625-1.245,23.433-1.261,24.312,0,.011,0,.022,0,.033v.044Zm-2.853-.891c1.427,0,2.434.066,2.789.428l0,0c.006-.364.025-1.046.06-2.329.042-1.511.114-3.87.219-6.531.184-4.656.5-11.062.978-15.134.552-4.735,3.853-23.97,3.871-24.03a.914.914,0,0,0,.031-.25,2.431,2.431,0,0,0-.569-1.781,4.765,4.765,0,0,0-3.687-1.268l-.217,0c-4.55,0-6.638,2.177-6.793,2.775-.036.137-3.7,15-4.332,23.412l-.073-.006.073.006c-.059.782-.19,2.109-.356,3.789-.649,6.583-2,20.281-.649,20.518a40.2,40.2,0,0,0,7.426.409C1393.3,1152.76,1393.709,1152.755,1394.089,1152.755Z" transform="translate(-1384.72 -1101.715)" fill="#d1a586"/>
      </g>
      <path id="Trazado_5394" data-name="Trazado 5394" d="M1288.389,1308.27h-50.082s1.166-4.72,30.171-4.017C1289,1304.75,1288.389,1308.27,1288.389,1308.27Z" transform="translate(-1236.437 -1253.884)" fill="#e5bd9e"/>
      <g id="Grupo_28836" data-name="Grupo 28836" transform="translate(47.538 55.117)">
        <path id="Trazado_5395" data-name="Trazado 5395" d="M1436.782,1372.8c-5.807-29.4-4.314-47.436-4.306-47.663.014-.453-.82-.864-1.268-.878s-2.459-.133-2.691.254c-.3.507-1.473,22.732,7.181,48.287Z" transform="translate(-1428.292 -1324.229)" fill="#d1a586"/>
      </g>
      <g id="Grupo_28837" data-name="Grupo 28837" transform="translate(9.267 55.117)">
        <path id="Trazado_5396" data-name="Trazado 5396" d="M1269.081,1372.8c5.807-29.4,4.314-47.436,4.306-47.663-.015-.453.82-.864,1.268-.878s2.459-.133,2.691.254c.3.507,1.473,22.732-7.181,48.287Z" transform="translate(-1269.081 -1324.229)" fill="#d1a586"/>
      </g>
      <g id="Grupo_28838" data-name="Grupo 28838" transform="translate(0 55.117)">
        <path id="Trazado_5397" data-name="Trazado 5397" d="M1230.529,1372.8c5.807-29.4,4.314-47.436,4.306-47.663-.015-.453.82-.864,1.268-.878s2.459-.133,2.69.254c.3.507,1.473,22.732-7.181,48.287Z" transform="translate(-1230.529 -1324.229)" fill="#a0795f"/>
      </g>
      <g id="Grupo_28839" data-name="Grupo 28839" transform="translate(38.209 55.117)">
        <path id="Trazado_5398" data-name="Trazado 5398" d="M1397.971,1372.8c-5.807-29.4-4.314-47.436-4.306-47.663.014-.453-.82-.864-1.269-.878s-2.458-.133-2.69.254c-.3.507-1.473,22.732,7.181,48.287Z" transform="translate(-1389.481 -1324.229)" fill="#a0795f"/>
      </g>
      <rect id="Rectángulo_5035" data-name="Rectángulo 5035" width="52.134" height="2.726" rx="1.363" transform="translate(52.948 55.892) rotate(180)" fill="#d1a586"/>
    </g>
    <g id="Grupo_28849" data-name="Grupo 28849" transform="translate(536.222 534.96)">
      <g id="Grupo_28847" data-name="Grupo 28847" transform="translate(0.578 0)">
        <path id="Trazado_5399" data-name="Trazado 5399" d="M1525.788,1154.724a5.992,5.992,0,0,0,7.08-2.541S1528.093,1151.374,1525.788,1154.724Z" transform="translate(-1521.783 -1100.981)" fill="#6bb7bf"/>
        <path id="Trazado_5400" data-name="Trazado 5400" d="M1518.177,1150.987a2.022,2.022,0,0,0-2.025-1.529A2.573,2.573,0,0,0,1518.177,1150.987Z" transform="translate(-1514.463 -1098.976)" fill="#6bb7bf"/>
        <path id="Trazado_5401" data-name="Trazado 5401" d="M1528.207,1113.544a2.707,2.707,0,0,0,2.758-1.984S1528.791,1111.8,1528.207,1113.544Z" transform="translate(-1523.62 -1070.188)" fill="#6bb7bf"/>
        <g id="Grupo_28842" data-name="Grupo 28842" transform="translate(3.331 4.797)">
          <path id="Trazado_5402" data-name="Trazado 5402" d="M1535,985.677c-4.048-.868-4.117-4.18-4.117-4.18C1535.654,983,1535,985.677,1535,985.677Z" transform="translate(-1528.986 -976.187)" fill="#6bb7bf"/>
          <path id="Trazado_5403" data-name="Trazado 5403" d="M1549.17,990.677a3.658,3.658,0,0,0,4.322-1.551S1550.577,988.632,1549.17,990.677Z" transform="translate(-1542.875 -981.942)" fill="#6bb7bf"/>
          <g id="Grupo_28841" data-name="Grupo 28841" transform="translate(0 2.474)">
            <path id="Trazado_5404" data-name="Trazado 5404" d="M1523.736,1025.884l-.523.6a.131.131,0,0,1-.23-.087,217.609,217.609,0,0,1,4.012-41.125,131.079,131.079,0,0,1,4.016-15.574h0c-.02.057-1.835,5.915-3.812,15.639-1.82,8.95-3.9,20.648-3.376,40.316A.34.34,0,0,1,1523.736,1025.884Z" transform="translate(-1522.983 -969.699)" fill="#6bb7bf"/>
          </g>
          <path id="Trazado_5405" data-name="Trazado 5405" d="M1550.719,959.557c-.646.519-3.118,2.731-.719,4.436,0,0,1.838.583,2.447-.834a9.018,9.018,0,0,0,.624-2.8.244.244,0,0,0-.224-.257,1.953,1.953,0,0,1-.519-.118c-.227-.089-.343-.432-.65-.507a1.818,1.818,0,0,0-.613-.068A.649.649,0,0,0,1550.719,959.557Z" transform="translate(-1542.726 -959.407)" fill="#f99746"/>
          <path id="Trazado_5406" data-name="Trazado 5406" d="M1550.525,975.92a1.488,1.488,0,0,1,.461,1.524l-.007.347a1.641,1.641,0,0,1,1.093-1.135A1.943,1.943,0,0,1,1550.525,975.92Z" transform="translate(-1543.904 -971.951)" fill="#6bb7bf"/>
          <path id="Trazado_5407" data-name="Trazado 5407" d="M1535,985.677c-4.048-.868-4.117-4.18-4.117-4.18S1534.093,983.258,1535,985.677Z" transform="translate(-1528.986 -976.187)" fill="#8ad8db"/>
        </g>
        <g id="Grupo_28844" data-name="Grupo 28844" transform="translate(1.169 3.242)">
          <path id="Trazado_5408" data-name="Trazado 5408" d="M1518.278,984.153a3.658,3.658,0,0,1-4.29-1.637S1516.912,982.08,1518.278,984.153Z" transform="translate(-1513.988 -975.377)" fill="#6bb7bf"/>
          <g id="Grupo_28843" data-name="Grupo 28843" transform="translate(2.683 2.482)">
            <path id="Trazado_5409" data-name="Trazado 5409" d="M1531.3,1019.584l.511.612a.131.131,0,0,0,.231-.082,217.618,217.618,0,0,0-3.187-41.2,130.989,130.989,0,0,0-3.7-15.651h0c.019.057,1.716,5.95,3.5,15.712,1.641,8.985,3.489,20.722,2.568,40.375A.34.34,0,0,0,1531.3,1019.584Z" transform="translate(-1525.148 -963.265)" fill="#6bb7bf"/>
          </g>
          <path id="Trazado_5410" data-name="Trazado 5410" d="M1518,953.1c.635.532,3.063,2.792.63,4.449,0,0-1.849.545-2.43-.883a9.015,9.015,0,0,1-.568-2.808.244.244,0,0,1,.229-.253,1.943,1.943,0,0,0,.521-.107c.229-.084.352-.425.66-.494a1.818,1.818,0,0,1,.614-.056A.647.647,0,0,1,1518,953.1Z" transform="translate(-1515.24 -952.938)" fill="#f99746"/>
          <path id="Trazado_5411" data-name="Trazado 5411" d="M1525.943,969.6a1.487,1.487,0,0,0-.491,1.515v.347a1.64,1.64,0,0,0-1.07-1.157A1.943,1.943,0,0,0,1525.943,969.6Z" transform="translate(-1521.883 -965.596)" fill="#6bb7bf"/>
        </g>
        <g id="Grupo_28846" data-name="Grupo 28846" transform="translate(5.174)">
          <path id="Trazado_5412" data-name="Trazado 5412" d="M1536.322,969.268a3.658,3.658,0,0,0,3.88-2.456S1537.249,966.965,1536.322,969.268Z" transform="translate(-1534.958 -960.235)" fill="#6bb7bf"/>
          <g id="Grupo_28845" data-name="Grupo 28845" transform="translate(1.134 2.546)">
            <path id="Trazado_5413" data-name="Trazado 5413" d="M1541.075,1006.459l-.379.7a.131.131,0,0,1-.244-.034,217.658,217.658,0,0,1-5.053-41.01,131.016,131.016,0,0,1,.523-16.075h0c-.007.06-.5,6.172-.31,16.093.175,9.132.693,21,5.5,40.082A.341.341,0,0,1,1541.075,1006.459Z" transform="translate(-1535.367 -950.04)" fill="#6bb7bf"/>
          </g>
          <path id="Trazado_5414" data-name="Trazado 5414" d="M1531.8,939.736c-.517.647-2.448,3.345.265,4.486,0,0,1.921.168,2.206-1.348a9,9,0,0,0,0-2.865.244.244,0,0,0-.275-.2,1.953,1.953,0,0,1-.532,0c-.241-.036-.429-.347-.746-.353a1.824,1.824,0,0,0-.613.067A.65.65,0,0,0,1531.8,939.736Z" transform="translate(-1530.649 -939.45)" fill="#f99746"/>
          <path id="Trazado_5415" data-name="Trazado 5415" d="M1533.322,957.388a1.488,1.488,0,0,1,.783,1.387l.068.34a1.64,1.64,0,0,1,.819-1.346A1.943,1.943,0,0,1,1533.322,957.388Z" transform="translate(-1532.679 -953.076)" fill="#6bb7bf"/>
        </g>
        <path id="Trazado_5416" data-name="Trazado 5416" d="M1545.552,955.735a3.076,3.076,0,0,1,1.834-2.8S1547.79,954.714,1545.552,955.735Z" transform="translate(-1536.796 -949.696)" fill="#6bb7bf"/>
        <path id="Trazado_5417" data-name="Trazado 5417" d="M1522.957,943.727a2.163,2.163,0,0,0-1.448-2.093A1.8,1.8,0,0,0,1522.957,943.727Z" transform="translate(-1518.51 -941.109)" fill="#ed9f4a"/>
        <path id="Trazado_5418" data-name="Trazado 5418" d="M1545.468,981.869a2.362,2.362,0,0,0-.7-2.888A2.773,2.773,0,0,0,1545.468,981.869Z" transform="translate(-1536.09 -969.479)" fill="#ed9f4a"/>
        <path id="Trazado_5419" data-name="Trazado 5419" d="M1552.425,987.539a.879.879,0,0,1,.759-.927S1553.314,987.3,1552.425,987.539Z" transform="translate(-1542.008 -975.275)" fill="#6bb7bf"/>
        <path id="Trazado_5420" data-name="Trazado 5420" d="M1511.858,975.379a2.545,2.545,0,0,0-2.732-1.113S1509.438,975.711,1511.858,975.379Z" transform="translate(-1509.126 -965.876)" fill="#6bb7bf"/>
      </g>
      <path id="Trazado_5421" data-name="Trazado 5421" d="M1521.539,1068.91h-13.346a1.471,1.471,0,0,1-1.456-1.683l6.212-42.817a.812.812,0,0,1,.8-.7h1.983a.868.868,0,0,1,.858.74l6.36,42.813A1.431,1.431,0,0,1,1521.539,1068.91Z" transform="translate(-1506.721 -1003.459)" fill="#f99746"/>
      <g id="Grupo_28848" data-name="Grupo 28848" transform="translate(0.802 20.265)">
        <path id="Trazado_5422" data-name="Trazado 5422" d="M1513.683,1067.647l3.3-43.891a.811.811,0,0,0-.7.686l-6.212,42.816a1.471,1.471,0,0,0,1.456,1.683h2.668A1.576,1.576,0,0,1,1513.683,1067.647Z" transform="translate(-1510.056 -1023.756)" fill="#ffb278"/>
      </g>
    </g>
    <g id="Grupo_28853" data-name="Grupo 28853" transform="translate(619.641 536.54)">
      <path id="Trazado_5423" data-name="Trazado 5423" d="M2006.7,1192.278s-9.156,10.457-11.029,10.286c-1.915-.174-3.083-.777-4.749,0-1.2.559-4.982,3.6-3.966,3.4s2.854-.437,3.34-.484c.668-.064,1.741-.078,2.469-.2.46-.08,2.124-.127,2.678-.145,2.409-.079,13.807-6.737,13.807-6.737Z" transform="translate(-1954.805 -1133.083)" fill="#ffb27d"/>
      <g id="Grupo_28850" data-name="Grupo 28850" transform="translate(27.486 46.769)">
        <path id="Trazado_5424" data-name="Trazado 5424" d="M1977.436,1141.847a2.555,2.555,0,0,0-1.585-.029v-.743a3.9,3.9,0,0,0-.031-.485h-7.695a3.855,3.855,0,0,0-.032.485v1.51a3.874,3.874,0,0,0,6.787,2.558h0a6.075,6.075,0,0,0,2.406-1.133C1977.86,1143.329,1978.047,1142.224,1977.436,1141.847Zm-.406,1.4c-.194.5-1.068.772-1.5.877a3.833,3.833,0,0,0,.31-1.277,1.134,1.134,0,0,1,.993-.521C1977.109,1142.373,1977.276,1142.608,1977.03,1143.243Z" transform="translate(-1968.093 -1140.589)" fill="#c45446"/>
        <path id="Trazado_5425" data-name="Trazado 5425" d="M1970.714,1141.073v1.511a3.891,3.891,0,0,0,3.878,3.88,3.553,3.553,0,0,0,.521-.038,3.89,3.89,0,0,1-3.357-3.842v-1.511a3.8,3.8,0,0,1,.031-.485h-1.043A3.821,3.821,0,0,0,1970.714,1141.073Z" transform="translate(-1970.084 -1140.588)" fill="#e37970"/>
        <rect id="Rectángulo_5036" data-name="Rectángulo 5036" width="3.167" height="0.474" transform="translate(2.293 5.536)" fill="#c45446"/>
      </g>
      <path id="Trazado_5426" data-name="Trazado 5426" d="M2089.157,952.118s.414-5.252,7.969-3.888c2,.361,3.37-3.2,6.639-1.932,7.04,2.733,7.454-.875,9.489,4.188.852,2.12,6.267,4.587,4.613,8.25s1.114,6.126-.831,9c-1.006,1.485-.6,4.14-5.344,4.235-2.364.047-6.047,4.428-8.7,5.224s-10.62-.352-10.32-3.993c.234-2.84-3.078-2.6-5.113-5.868-1.778-2.854,1.4-3.573-.3-8.186C2086.015,955.764,2089.255,954.94,2089.157,952.118Z" transform="translate(-2030.911 -946.024)" fill="#1c468a"/>
      <g id="Grupo_28851" data-name="Grupo 28851" transform="translate(0 122.851)">
        <path id="Trazado_5427" data-name="Trazado 5427" d="M1870.468,1469.542c.162,1.757-2.284,2.184-5.116,2.325s-1.977.721-5.859,1.424-5.438-.359-5.719-.884c-.25-.465,1.554-1.193,3.478-2.016.242-.1.485-.209.727-.315,2.165-.952,3.38-2.894,5.068-4.693,1.6-1.705,3.116-7.164,3.116-7.164l5.275-1.126s-1.481,4.913-2,7.011a6.5,6.5,0,0,0,.54,3.663A6.894,6.894,0,0,1,1870.468,1469.542Z" transform="translate(-1853.751 -1457.093)" fill="#ffb27d"/>
        <path id="Trazado_5428" data-name="Trazado 5428" d="M1865.352,1505.6c-2.833.141-1.977.721-5.859,1.424s-5.438-.359-5.719-.884c-.25-.465,1.554-1.193,3.478-2.015l.03.032a11.054,11.054,0,0,0,5.88.07c2.568-.7,5.051-2.232,6.82-2.728a6.893,6.893,0,0,1,.485,1.775C1870.631,1505.028,1868.185,1505.455,1865.352,1505.6Z" transform="translate(-1853.751 -1490.822)" fill="#c65447"/>
      </g>
      <path id="Trazado_5429" data-name="Trazado 5429" d="M1950.083,1232.194s-29.236,1.314-35.836,5.479-17.184,52.68-17.184,52.68a4.3,4.3,0,0,0,2.112.682,17.717,17.717,0,0,0,4.345-.651s15.211-21.708,16.283-27.176.81-10.348,3.25-10.479,32.853,3.7,37.454-4.407S1950.083,1232.194,1950.083,1232.194Z" transform="translate(-1886.652 -1163.404)" fill="#163560"/>
      <g id="Grupo_28852" data-name="Grupo 28852" transform="translate(12.062 123.048)">
        <path id="Trazado_5430" data-name="Trazado 5430" d="M1920.646,1470.363c.162,1.757-2.284,2.184-5.117,2.325s-1.977.721-5.859,1.424-5.437-.359-5.719-.884c-.25-.465,1.554-1.193,3.478-2.016.242-.1.484-.209.727-.314,2.165-.952,3.38-2.893,5.067-4.693,1.6-1.705,3.117-7.164,3.117-7.164l5.275-1.127s-1.481,4.913-2,7.011a6.5,6.5,0,0,0,.54,3.663A6.907,6.907,0,0,1,1920.646,1470.363Z" transform="translate(-1903.928 -1457.914)" fill="#ffb27d"/>
        <path id="Trazado_5431" data-name="Trazado 5431" d="M1915.529,1506.417c-2.833.141-1.977.721-5.859,1.425s-5.437-.359-5.719-.884c-.25-.465,1.554-1.193,3.478-2.016l.03.033a11.054,11.054,0,0,0,5.88.071c2.568-.7,5.051-2.232,6.821-2.728a6.906,6.906,0,0,1,.485,1.775C1920.807,1505.849,1918.362,1506.276,1915.529,1506.417Z" transform="translate(-1903.928 -1491.643)" fill="#c65447"/>
      </g>
      <path id="Trazado_5432" data-name="Trazado 5432" d="M1998.259,1235.07s-31.141,1.474-37.573,5.893-15.121,53.309-15.121,53.309a4.3,4.3,0,0,0,2.137.6,17.723,17.723,0,0,0,4.317-.82s14.355-22.283,15.213-27.789.406-10.372,2.839-10.6,32.973,2.416,37.254-5.862S1998.259,1235.07,1998.259,1235.07Z" transform="translate(-1923.495 -1165.589)" fill="#1c468a"/>
      <path id="Trazado_5433" data-name="Trazado 5433" d="M2115.721,1037.223a.591.591,0,0,0-.04-.048,4.889,4.889,0,0,0-.869-.761l-.011-.009h0c-2.544-1.777-7.089-2.158-7.089-2.158v0h0v0s-.5-.047-1.284-.083a23.552,23.552,0,0,1-1.485-7.172l-.451.12-7.577,2.032s.335,2.405.492,4.681c.035.5.06.99.072,1.45-.219.08-4.934.745-5.959,1.846s-3.075,8.441-3.592,9.741l29.171.477S2117.83,1039.719,2115.721,1037.223Z" transform="translate(-2031.635 -1007.53)" fill="#ffb27d"/>
      <path id="Trazado_5434" data-name="Trazado 5434" d="M2090.053,1119.143c-3.453.329-15.094-6.7-18.972-8.986-.069-.039-.133-.078-.2-.115a18.491,18.491,0,0,0-6.048-1.755c-2.752-.451-5.321-.754-6.144-1.737-.979-1.172,1.9-2.47,4.214-3.817a6.412,6.412,0,0,0,2.509-2.066,7.933,7.933,0,0,0,.062-3.263v0c-.027-.285-.064-.581-.105-.889a9.918,9.918,0,0,1-.694,1.2,17.593,17.593,0,0,1-2.472,2.893,8.213,8.213,0,0,1-2.872,1.981,2.261,2.261,0,0,1-1.372-.124,8.819,8.819,0,0,1-3.309-3.09c-.218-.3-.425-.607-.613-.894-.634-.961-1.085-1.758-1.255-1.946-.517-.572,2.079-1.705,3.146-2.555s5.248-17.366,5.248-17.366c.517-1.3,2.566-8.637,3.591-9.742,0,0,4,4.883,9.182,4.6,5.147-.276,13.963-5.241,14.1-5.319a3.211,3.211,0,0,1,.924.818c2.109,2.5,1.376,10.117,1.376,10.117s-4.035,17.782-4.035,19.577c0,3.291,2.72,10.854,4.019,16.3C2091.161,1116.416,2091.416,1119.014,2090.053,1119.143Z" transform="translate(-2004.891 -1037.274)" fill="#6bb7bf"/>
      <path id="Trazado_5435" data-name="Trazado 5435" d="M2125.308,1029.527s.336,2.405.493,4.681c4.289-.408,6.3-4.479,7.084-6.713Z" transform="translate(-2060.031 -1007.911)" fill="#f4a269"/>
      <path id="Trazado_5436" data-name="Trazado 5436" d="M2106.737,990.174s10.177-.51,9.762-6.843.618-10.664-5.9-10.606-7.618,2.557-7.993,4.7S2104.079,990.143,2106.737,990.174Z" transform="translate(-2042.751 -966.306)" fill="#ffb27d"/>
      <path id="Trazado_5437" data-name="Trazado 5437" d="M2118.153,968.8s2.432-.568,3.227.615.227,1.845,2,2.342,2.378.461,2.2,1.7,1.783,2.165,1.867,3.159a1.74,1.74,0,0,0,1.681,1.561c.781.071.426-12.811-2.59-13.379s-5.927.107-6.814.816S2118.153,968.8,2118.153,968.8Z" transform="translate(-2054.596 -960.127)" fill="#1c468a"/>
      <path id="Trazado_5438" data-name="Trazado 5438" d="M2100.731,971.345s-2.365-.166-2.792,1.183.142,1.668-.461,2.484a3.227,3.227,0,0,0-.254,2.264s-4.679-8.616.254-9.184S2102.281,968.529,2100.731,971.345Z" transform="translate(-2037.174 -962.671)" fill="#1c468a"/>
      <path id="Trazado_5439" data-name="Trazado 5439" d="M2069.534,1134.83a26.229,26.229,0,0,1-3.15,6.121,8.216,8.216,0,0,1-2.872,1.981,2.263,2.263,0,0,1-1.372-.124,8.816,8.816,0,0,1-3.308-3.09c-.219-.3-.425-.607-.614-.894,3.233-2.594,9.361-8.529,10-16.652C2069.086,1111.078,2069.581,1135.34,2069.534,1134.83Z" transform="translate(-2009.068 -1077.62)" fill="#599dad"/>
      <path id="Trazado_5440" data-name="Trazado 5440" d="M2074.535,1202.2c1.128-1.721,3.424-3.417,6.716-4.75-1.516,2.27-4.111,4.575-5.344,4.874A2.264,2.264,0,0,1,2074.535,1202.2Z" transform="translate(-2021.463 -1137.011)" fill="#599dad"/>
      <path id="Trazado_5441" data-name="Trazado 5441" d="M2103.127,1128.4s-2.541,25.537-13.786,29.043c-.069-.039-.133-.078-.2-.115a18.483,18.483,0,0,0-6.048-1.755c-2.753-.45-5.322-.754-6.145-1.737-.979-1.172,1.9-2.47,4.214-3.817a6.411,6.411,0,0,0,2.51-2.066,7.941,7.941,0,0,0,.062-3.263v0C2094.651,1140.651,2103.127,1128.4,2103.127,1128.4Z" transform="translate(-2023.151 -1084.558)" fill="#599dad"/>
      <path id="Trazado_5442" data-name="Trazado 5442" d="M2037.978,1087.038c-1.178-5.308-6.522-2.262-6.522-2.262-1.852-.423-15.451,21.62-16.54,22.119-.923.423-13.456-3.217-17.261-4.338-.982-.771-4.434-3.449-5.038-3.5-.705-.053-5.422,1.159-5.392,1.907s1.133,1.847,2.875,2.125c1.319.211,3.557,1.079,4.984,1.3h0s13.833,9.422,19.721,10.572C2020.1,1116,2039.156,1092.347,2037.978,1087.038Z" transform="translate(-1955.14 -1050.762)" fill="#ffb27d"/>
      <path id="Trazado_5443" data-name="Trazado 5443" d="M2064,1104.014s-3.188,8.193.631,11.307,12.11,2.067,21.19-10.6,12.776-19.558,8.062-21.57-8.609,1.145-11.027,6.07c-2.513,5.12-7.145,12.209-9.924,12.478A62.008,62.008,0,0,0,2064,1104.014Z" transform="translate(-2012.515 -1049.724)" fill="#6bb7bf"/>
    </g>
    <g id="Grupo_28856" data-name="Grupo 28856" transform="translate(556.474 486.575)">
      <path id="Trazado_5444" data-name="Trazado 5444" d="M1735.262,828.974l.007,1.237s-.337,3.868,4.427,4.433,8.669.492,8.54-2.493a62.988,62.988,0,0,1-1.23-7.811,13.471,13.471,0,0,1,.169-2.316l-9.23-.184-2.718.444Z" transform="translate(-1700.55 -801.725)" fill="#ffb27d"/>
      <path id="Trazado_5445" data-name="Trazado 5445" d="M1735.227,822.283l.035,6.691a7.805,7.805,0,0,0,3.327.734c4.242,0,6.984-3.111,8.417-5.368a13.471,13.471,0,0,1,.169-2.316l-9.23-.184Z" transform="translate(-1700.55 -801.725)" fill="#e2915a"/>
      <path id="Trazado_5446" data-name="Trazado 5446" d="M1739.725,770.559c-1.071,5.763-8.508,5.574-11.721,5.212-.9-.1-1.473-.216-1.473-.216-1.02-.272-1.589-1.879-1.854-3.983-.525-4.164.139-10.276.841-11.839,1.059-2.352,3.053-4.9,10.542-3.061S1741.1,763.174,1739.725,770.559Z" transform="translate(-1692.393 -751.746)" fill="#ffb27d"/>
      <path id="Trazado_5447" data-name="Trazado 5447" d="M1779.888,1505.892H1769.35a25.376,25.376,0,0,1,.84-3.782,10.762,10.762,0,0,1,.6-1.518c1.025-2.046,7.535-.745,7.535-.745a5.01,5.01,0,0,1,1.077,2.5A21,21,0,0,1,1779.888,1505.892Z" transform="translate(-1726.471 -1316.444)" fill="#233862"/>
      <path id="Trazado_5448" data-name="Trazado 5448" d="M1612.542,1489.012c-.029,1.434-.209,2.791-.729,3.326h-20.844c.265-.754,1.015-1.888,3.155-2.236,2.432-.393,6.222-1.564,8.435-3.9a6.278,6.278,0,0,0,1.633-2.957c.981-4.366,8.108,1.338,8.108,1.338A35.311,35.311,0,0,1,1612.542,1489.012Z" transform="translate(-1590.969 -1302.889)" fill="#233862"/>
      <path id="Trazado_5449" data-name="Trazado 5449" d="M1661.649,1148.1a32.84,32.84,0,0,0-.523,3.85c-.663,12.925-10.88,42.477-12.707,43.166-2.828,1.067-7.281-1.2-9.611-1.943a2,2,0,0,1-1.4-2.27c5.06-23.261,6.919-56.756,7.6-76.586a89.987,89.987,0,0,1,2.056-16.888s24.919-6.649,25.068,1.762C1672.257,1106.639,1663.871,1135.827,1661.649,1148.1Z" transform="translate(-1626.213 -1009.178)" fill="#2b478b"/>
      <path id="Trazado_5450" data-name="Trazado 5450" d="M1685.783,1148.1l-16.647-33.782a90,90,0,0,1,2.056-16.888s24.919-6.649,25.067,1.762C1696.391,1106.639,1688.005,1135.827,1685.783,1148.1Z" transform="translate(-1650.346 -1009.178)" fill="#233862"/>
      <path id="Trazado_5451" data-name="Trazado 5451" d="M1715.322,1103.173l13.174,95.477s5.785,1.4,10.285.279c0,0,3.857-50.779,3.535-63.055s2.768-32.849-.7-35.118S1715.322,1103.173,1715.322,1103.173Z" transform="translate(-1685.43 -1013.124)" fill="#2b478b"/>
      <path id="Trazado_5452" data-name="Trazado 5452" d="M1718.977,740.665a24.777,24.777,0,0,0,7.185-1.944c3.155-1.372,7.137.139,8.429.82a1.922,1.922,0,0,0-.315-.778,1.734,1.734,0,0,1,.666.987c.06.044.087.074.071.085a2.222,2.222,0,0,1,1.08.07s-.3-.042-.4.148a.169.169,0,0,1-.047.052c4.923,2.379,5.377,10.159,3.793,11.958a39.486,39.486,0,0,0-4.191,7.043,4.183,4.183,0,0,1-.487-3.058c.347-1.906-1.3-1.906-3.379-2.772s-.347-3.292-2.166-4.765-8.49-.607-8.4-1.733C1718.336,745.876,1718.977,740.918,1718.977,740.665Z" transform="translate(-1688.15 -738.164)" fill="#233862"/>
      <path id="Trazado_5453" data-name="Trazado 5453" d="M1706.673,871.636l-3.033,65.077s-25.314.414-24.591-5.315,9.124-57.769,9.124-57.769Z" transform="translate(-1657.865 -839.552)" fill="#e9f3fe"/>
      <path id="Trazado_5454" data-name="Trazado 5454" d="M1776.685,900.875c-1.506,4.518,1.333,19.678,2.346,24.814.222,1.086.37,1.728.37,1.728-3.506,5.7-16.345,5.629-16.345,5.629-2.469-10.913-3.753-28.295-3.753-28.295l9.851-43.184,12.395,11.457s-.938,6.987-2.1,14.1A117.842,117.842,0,0,1,1776.685,900.875Z" transform="translate(-1718.839 -831.904)" fill="#22407a"/>
      <path id="Trazado_5455" data-name="Trazado 5455" d="M1732.657,818.2s-.241.743-2.117.472c0,0-1.575-.227-1.458-1.056A5.111,5.111,0,0,1,1732.657,818.2Z" transform="translate(-1695.877 -798.436)" fill="#fff"/>
      <path id="Trazado_5456" data-name="Trazado 5456" d="M1617.862,865.332s0,.011-.005.027c-.6.58-17.5,16.987-20.772,23.414-3.333,6.519,15.234,19.505,15.234,19.505a4.323,4.323,0,0,0,2.024.288c-.875,7.208-1.858,13.858-1.276,16.7,1.052,5.13,5.8,6.853,5.8,6.459,0-.126,1.736-18.645,2.679-28.307a334.409,334.409,0,0,1,7.084-41.3A35.63,35.63,0,0,0,1617.862,865.332ZM1607.8,891.589a.149.149,0,0,1-.025-.1c0-.938,3.58-3.013,7.457-5.456l.074-.075.008-.005c-.069,2-.061,3.956.057,5.78a73.962,73.962,0,0,1-.435,11.543C1613.091,900.394,1608.161,892.65,1607.8,891.589Z" transform="translate(-1595.311 -832.32)" fill="#22407a"/>
      <g id="Grupo_28855" data-name="Grupo 28855" transform="translate(29.67 27.365)">
        <path id="Trazado_5457" data-name="Trazado 5457" d="M1759.632,856.571c.031-.621-2.911-1.479-2.911-1.479s-3.367,4.668-8.914,4.749c0,0,1.581,3.077,3.444,3.873C1751.251,863.714,1759.449,860.259,1759.632,856.571Z" transform="translate(-1739.776 -854.35)" fill="#d9e9f9"/>
        <path id="Trazado_5458" data-name="Trazado 5458" d="M1729.075,862.834s-2.939-1.742-2.949-3.631c0,0-1.9-.238-2.727.683,0,0-.7,3.237.228,5.117C1723.627,865,1727.859,864.358,1729.075,862.834Z" transform="translate(-1721.044 -857.452)" fill="#d9e9f9"/>
        <path id="Trazado_5459" data-name="Trazado 5459" d="M1741.913,870.211l-3.985-.955a.6.6,0,0,0-.506.694,5.074,5.074,0,0,0,1.613,2.7C1739.526,872.8,1742.856,871.524,1741.913,870.211Z" transform="translate(-1731.887 -865.109)" fill="#ba4c43"/>
        <path id="Trazado_5460" data-name="Trazado 5460" d="M1759.168,853.906c.031-.621-1.96-1.9-1.96-1.9s-3.854,4.5-9.4,4.585c0,0,1.581,3.077,3.444,3.873C1751.251,860.463,1758.985,857.594,1759.168,853.906Z" transform="translate(-1739.776 -852.005)" fill="#e9f3fe"/>
        <path id="Trazado_5461" data-name="Trazado 5461" d="M1729.15,860.13s-2.972-1.575-2.982-3.464a9.5,9.5,0,0,0-2.623,1.71,5.453,5.453,0,0,0,.157,3.923S1727.933,861.654,1729.15,860.13Z" transform="translate(-1721.119 -855.546)" fill="#e9f3fe"/>
        <g id="Grupo_28854" data-name="Grupo 28854" transform="translate(0 6.349)">
          <path id="Trazado_5462" data-name="Trazado 5462" d="M1714.638,921.543a6.143,6.143,0,0,0,1.956,3.97l1.765,1.626a1.034,1.034,0,0,0,1.513-.121l2.187-2.777a3.685,3.685,0,0,0,.772-2.63c-.2-2.1-.585-6.15-.891-10.057-.248-3.166-.447-6.242-.462-8.113-.048-5.974,1.137-25.024,1.137-25.024l-1.432.075a76.706,76.706,0,0,0-5.419,17.456,66.54,66.54,0,0,0-.99,7.843A145.084,145.084,0,0,0,1714.638,921.543Z" transform="translate(-1714.397 -878.418)" fill="#c65447"/>
          <path id="Trazado_5463" data-name="Trazado 5463" d="M1714.638,976.943a6.143,6.143,0,0,0,1.956,3.97l1.765,1.626a1.034,1.034,0,0,0,1.513-.121l2.187-2.777a3.685,3.685,0,0,0,.772-2.63c-.2-2.1-.585-6.15-.891-10.057-3.958-4.447-5.562-10.591-6.177-15.606a66.545,66.545,0,0,0-.99,7.843A145.083,145.083,0,0,0,1714.638,976.943Z" transform="translate(-1714.397 -933.818)" fill="#ba4c43"/>
        </g>
      </g>
      <path id="Trazado_5464" data-name="Trazado 5464" d="M1656.8,1049.8a2.74,2.74,0,0,1,3.1-2.742,1.7,1.7,0,0,1,1.151.636c1.129,1.5,2.2,5.873.2,6.077a4.392,4.392,0,0,1-2.665-1.1,3.878,3.878,0,0,1-1.787-2.622Z" transform="translate(-1640.976 -972.781)" fill="#ffb27d"/>
      <path id="Trazado_5465" data-name="Trazado 5465" d="M1810.768,1006.445c-3.63-3.778-9.9-11.21-9.679-17.309.3-8.543,10.1-21.258,10.1-21.258a117.892,117.892,0,0,1-2.765,13.753C1806.916,986.149,1809.755,1001.309,1810.768,1006.445Z" transform="translate(-1750.576 -912.659)" fill="#233862"/>
      <path id="Trazado_5466" data-name="Trazado 5466" d="M1805.147,1066.5s-2.609,1.3-4.193.652-3.448-1.142-5.218.873-2.143,3.413-1.771,4.159,4.5.466,5.186,0,1.768-1.613,2.456-1.413c1.9.551,3.493-.9,4.387-2.047C1806.532,1068.031,1805.077,1067.694,1805.147,1066.5Z" transform="translate(-1745.07 -987.576)" fill="#ffb27d"/>
      <path id="Trazado_5467" data-name="Trazado 5467" d="M1800.285,861.568s10.393,1.151,12.843,5.676,15.2,22.867,14.778,30.489-17.385,16.169-17.385,16.169-3.758-1.588-3.814-3.3,11.73-11.92,11.016-13.825-13.693-16.977-14.945-21.947S1800.285,861.568,1800.285,861.568Z" transform="translate(-1749.97 -831.904)" fill="#22407a"/>
      <path id="Trazado_5468" data-name="Trazado 5468" d="M1650.238,946.549l-.074.075c-3.876,2.444-7.457,4.518-7.457,5.456-.518-1.655,4.519-8.568,6.148-9.975C1650.51,940.673,1650.238,946.549,1650.238,946.549Z" transform="translate(-1630.242 -892.911)" fill="#233862"/>
      <path id="Trazado_5469" data-name="Trazado 5469" d="M1765.523,852.005s-7.89,33.044-6.634,45.492c0,0,2.9-13.3,9.881-24.2,0,0-2.547-2.24-2.409-3.067a8.725,8.725,0,0,1,3.726-.183s-.2-14.244-1.347-15.749A8.338,8.338,0,0,0,1765.523,852.005Z" transform="translate(-1718.422 -824.64)" fill="#233862"/>
      <path id="Trazado_5470" data-name="Trazado 5470" d="M1708.586,856.665c.161-.094-7.818,32.29-8.485,42.609,0,0,.791-18.415.713-23.722,0,0,3.277-1.735,3.277-2.343s-3.5-2.254-3.5-2.254,2.214-11.34,3.422-12.59S1708.586,856.665,1708.586,856.665Z" transform="translate(-1673.868 -828.18)" fill="#233862"/>
    </g>
    <g id="Grupo_28860" data-name="Grupo 28860" transform="translate(429.247 532.685)">
      <g id="Grupo_28857" data-name="Grupo 28857">
        <path id="Trazado_5471" data-name="Trazado 5471" d="M1266.306,1410.17a1.48,1.48,0,0,1,.264,1.582.014.014,0,0,1,0,.008,9.836,9.836,0,0,1-3.107,3.408c-.187.151-.354.289-.5.416-.038.034-.076.067-.112.1l-.086.078c-1.366,1.259-.852,1.548-3.305,4.1-2.8,2.911-4.724,2.963-5.272,2.7-.463-.226.479-1.77,1.522-3.5.051-.084.1-.168.152-.253.139-.23.277-.465.415-.7,1.223-2.088.909-3.068.619-6.176-.236-2.525-3.929-14.109-3.929-14.109l5.361-.924s1.615,9.224,3.393,10.645c.951.757,2.016.766,2.93,1.328.065.039.128.079.19.12A7.047,7.047,0,0,1,1266.306,1410.17Z" transform="translate(-1206.988 -1284.662)" fill="#ffb27d"/>
        <path id="Trazado_5472" data-name="Trazado 5472" d="M1269.781,1448a1.48,1.48,0,0,1,.264,1.582.013.013,0,0,1,0,.008,11.388,11.388,0,0,1-3.112,3.4c-.185.154-.348.295-.493.426-.038.034-.076.067-.112.1l-.086.078c-1.366,1.259-.852,1.548-3.3,4.1-2.8,2.911-4.724,2.963-5.272,2.7-.463-.226.479-1.77,1.522-3.5a11.916,11.916,0,0,0,4.987-3.675c1.685-2.149,2.808-4.911,3.955-6.511.065.039.128.079.19.12A7.041,7.041,0,0,1,1269.781,1448Z" transform="translate(-1210.463 -1322.496)" fill="#c65447"/>
        <path id="Trazado_5473" data-name="Trazado 5473" d="M1077.786,1401.667c-.331,1.655-2.69,1.379-5.325.734s-2.009.122-5.76-.293-4.887-1.814-5-2.372c-.1-.495,1.751-.669,3.739-.9.25-.028.5-.059.752-.09,2.245-.281,3.888-1.73,5.927-2.919,1.931-1.127,4.813-5.717,4.813-5.717l5.144.407s-2.7,4.1-3.743,5.882a6.218,6.218,0,0,0-.5,3.505A6.592,6.592,0,0,1,1077.786,1401.667Z" transform="translate(-1061.696 -1279.507)" fill="#ffb27d"/>
        <path id="Trazado_5474" data-name="Trazado 5474" d="M1072.461,1429.975c-2.635-.644-2.009.122-5.76-.294s-4.887-1.814-5-2.371c-.1-.495,1.751-.669,3.739-.9l.019.038a10.575,10.575,0,0,0,5.372,1.67c2.544.062,5.24-.667,7-.639a6.591,6.591,0,0,1-.04,1.76C1077.455,1430.9,1075.1,1430.619,1072.461,1429.975Z" transform="translate(-1061.696 -1307.081)" fill="#c65447"/>
        <path id="Trazado_5475" data-name="Trazado 5475" d="M1148.968,1112.63s-1.226-3-2.574-3.125-5.637-.8-5.944-.184a4.24,4.24,0,0,0,.919,3.615c.919.8,6.618,2.083,6.618,2.083Z" transform="translate(-1121.432 -1066.02)" fill="#ffb27d"/>
        <path id="Trazado_5476" data-name="Trazado 5476" d="M1210.638,1275.3l11.086,29.834a10.153,10.153,0,0,0,3.336-.306,14.358,14.358,0,0,0,3.224-1.57s-2.75-28.646-7.792-34.6S1210.638,1275.3,1210.638,1275.3Z" transform="translate(-1174.835 -1186.026)" fill="#aa413e"/>
        <path id="Trazado_5477" data-name="Trazado 5477" d="M1180.08,1223.337s-31.854-10.771-38.958-8.479-28.434,44.729-28.434,44.729a4.118,4.118,0,0,0,1.8,1.133,16.944,16.944,0,0,0,4.181.429s19.25-16.5,21.541-21.313,3.208-9.4,5.5-8.937,29.563,11.229,35.75,4.812a17.861,17.861,0,0,0,4.569-14.754Z" transform="translate(-1100.43 -1146.137)" fill="#c65447"/>
        <path id="Trazado_5478" data-name="Trazado 5478" d="M1302.53,957.078a18.1,18.1,0,0,1-1.356-6.241c.043.33.616,4.524,2.229,6.9,6.625,4.349,19.322,18.872,19.071,21.624,0,0,4.472-7.586,4.549-7.631,0,0,8.25-10.491-1.528-16.5-4.97-3.054-4.945-6.974-4.737-10.379s-1.356-18.064-11.311-14.228a6.482,6.482,0,0,0-2.313-.6,1.956,1.956,0,0,1,.882.418,7.728,7.728,0,0,0-4.181.8C1300.186,933.309,1296.92,951.915,1302.53,957.078Z" transform="translate(-1242.347 -929.985)" fill="#b5453c"/>
        <path id="Trazado_5479" data-name="Trazado 5479" d="M1317.327,1015.333c-.033.015,3.2,1.693,5.63,1.028,2.286-.623,3.781-3.588,3.749-3.595-.969-.192-1.248-1.523-1.227-7.241l-.438.087-7.361,1.457s.167,2.316.172,4.5C1317.858,1013.4,1317.747,1015.138,1317.327,1015.333Z" transform="translate(-1255.878 -987.367)" fill="#ffb27d"/>
        <path id="Trazado_5480" data-name="Trazado 5480" d="M1318.8,1007.342s.168,2.316.173,4.5c4.119-.116,6.3-3.873,7.188-5.956Z" transform="translate(-1256.995 -987.64)" fill="#ed975d"/>
        <path id="Trazado_5481" data-name="Trazado 5481" d="M1312.269,954.758a21.646,21.646,0,0,0,2.677-6.327c.37-2.082-.691-9.8-8.446-8.688a10.534,10.534,0,0,0-4.37,1.652c-1.684,1.137-4.114,3.592-1.4,10.327l.706,2.275Z" transform="translate(-1242.347 -937.315)" fill="#b5453c"/>
        <path id="Trazado_5482" data-name="Trazado 5482" d="M1302.818,968.579s9.745.161,9.752-5.91,1.269-10.138-4.953-10.5-7.434,1.956-7.928,3.981S1300.283,968.381,1302.818,968.579Z" transform="translate(-1242.392 -946.811)" fill="#ffb27d"/>
        <path id="Trazado_5483" data-name="Trazado 5483" d="M1314.575,947.772s2.668,7.122,6.763,8.175,5.871-.044,5.871-.044a11.6,11.6,0,0,1-3.793-6.851S1316.588,944.383,1314.575,947.772Z" transform="translate(-1253.788 -942.56)" fill="#b5453c"/>
        <path id="Trazado_5484" data-name="Trazado 5484" d="M1301.733,950.407a8.6,8.6,0,0,0-2.478,3.136c-.486,1.546-.7,4.728-1.632,4.62,0,0-2.01-4.84.249-7.579C1300.268,947.68,1301.733,950.407,1301.733,950.407Z" transform="translate(-1240.285 -944.616)" fill="#b5453c"/>
        <path id="Trazado_5485" data-name="Trazado 5485" d="M1321.318,1087.6c-.526,1.459-2.137,1.835-4.3,1.581-4.119-.481-10.238-3.247-14.648-5.16-6.722-2.914-9.778-.176-11.917-2.031s2.445-5.979-1.528-25.127c-1.348-6.493,7.19-20.415,7.19-20.415s.738,4.031,8.906-.818c.289-.171,3.5,4.59,6.6,10.458,3.413,6.475,6.683,14.3,5.722,18.327C1315.512,1072.1,1322.846,1083.364,1321.318,1087.6Z" transform="translate(-1234.196 -1010.236)" fill="#699dee"/>
        <path id="Trazado_5486" data-name="Trazado 5486" d="M1204.012,1039.05l-5.036,20.656s-.626,1.116-1.609,2.7c-2.305,3.728-6.573,10.061-9.3,10.7-1.348.318-4.214-.8-7.385-2.406a150.034,150.034,0,0,1-13.088-7.778c-.458-2.75,1.934-4.992,1.934-4.992s14.362,5.4,15.789,5.5c3.109.222,6.273-14.785,9.179-19.786C1196.593,1040.035,1204.012,1039.05,1204.012,1039.05Z" transform="translate(-1142.091 -1012.833)" fill="#699dee"/>
        <path id="Trazado_5487" data-name="Trazado 5487" d="M1310.513,1003.677s-.182.771-2.1.652c0,0-1.611-.1-1.562-.947A5.182,5.182,0,0,1,1310.513,1003.677Z" transform="translate(-1247.92 -985.589)" fill="#fff"/>
        <path id="Trazado_5488" data-name="Trazado 5488" d="M1363.051,1144.414c-.526,1.459-2.138,1.835-4.3,1.581-2.851-1.242-15.167-6.014-15.029-9.247.2-4.787,2.368-4.94.84-10.848-1.227-4.744,10.153-13.565,11.968-15.482,3.413,6.475,3.507,6.781,2.547,10.812C1357.245,1128.914,1364.579,1140.174,1363.051,1144.414Z" transform="translate(-1275.929 -1067.046)" fill="#4a75cb"/>
        <path id="Trazado_5489" data-name="Trazado 5489" d="M1238.91,1133.625c-2.306,3.728-6.573,10.061-9.3,10.7-1.348.318-4.214-.8-7.385-2.406a19.187,19.187,0,0,0,6.749.37c2.368-.229,3.056-3.132,6.8-7.487C1238.2,1131.982,1238.791,1132.693,1238.91,1133.625Z" transform="translate(-1183.633 -1084.048)" fill="#4a75cb"/>
        <path id="Trazado_5490" data-name="Trazado 5490" d="M1317.5,1170.3s-2.063-1.6-4.011-1.222-2.9,1.719-2.826,2.33a3.475,3.475,0,0,0,2.6,2.483c1.49.153,5.729-.917,5.729-.917Z" transform="translate(-1250.813 -1111.561)" fill="#ffb27d"/>
        <path id="Trazado_5491" data-name="Trazado 5491" d="M1340.805,1035.649s7.943.489,10.692,4.324c3.871,5.4,10.593,27.438,8.76,32.479l-24.166-.1s-.586-2.738.229-4.062,14.056-3.463,14.667-4.074-7.639-11.917-7.639-13.751S1340.805,1035.649,1340.805,1035.649Z" transform="translate(-1269.978 -1010.25)" fill="#699dee"/>
      </g>
      <g id="Grupo_28859" data-name="Grupo 28859" transform="translate(30.084 49.374)">
        <g id="Grupo_28858" data-name="Grupo 28858">
          <path id="Trazado_5492" data-name="Trazado 5492" d="M1221.376,1153.778H1192.12l-5.274-18.392h29.211Z" transform="translate(-1186.846 -1135.386)" fill="#1c468a"/>
          <rect id="Rectángulo_5037" data-name="Rectángulo 5037" width="38.247" height="0.716" transform="translate(5.374 17.675)" fill="#163560"/>
        </g>
        <path id="Trazado_5493" data-name="Trazado 5493" d="M1247.284,1168.7a.852.852,0,0,1,.835-1.171,1.677,1.677,0,0,1,1.506,1.171.852.852,0,0,1-.835,1.171A1.678,1.678,0,0,1,1247.284,1168.7Z" transform="translate(-1232.72 -1159.802)" fill="#163560"/>
      </g>
    </g>
    <g id="Grupo_28862" data-name="Grupo 28862" transform="translate(337.746 506.203)">
      <path id="Trazado_5494" data-name="Trazado 5494" d="M948.067,1028.884s3.2-2.614,4.347-2.627,3.332-.588,3.246-.215-1.924.861-1.609,1.034,2.987-.545,3.734-.115,2.5,2.211,1.091,2.987-5.63,2.01-6.721,1.867-3.562-.316-3.562-.316Z" transform="translate(-883.88 -976.374)" fill="#ffb27d"/>
      <path id="Trazado_5495" data-name="Trazado 5495" d="M778.171,1442.545l2.682,11.3,4.017-.023.147-11.273Z" transform="translate(-754.824 -1292.853)" fill="#ffb27d"/>
      <path id="Trazado_5496" data-name="Trazado 5496" d="M918.744,1439.849l7.631,10.814,2.974-3.819-4.593-8.482Z" transform="translate(-861.606 -1289.676)" fill="#ffb27d"/>
      <path id="Trazado_5497" data-name="Trazado 5497" d="M725.2,833.411v0a.494.494,0,0,0-.007-.083c-.05-.563-.115-1.119-.191-1.673v0a36.609,36.609,0,0,0-.963-4.777c-.232-.834-.485-1.613-.758-2.314-.041-.108-.083-.209-.122-.313l0,0A6.543,6.543,0,0,0,721,821.077a7.8,7.8,0,0,0-4.212-.806,1.974,1.974,0,0,1,.889-.42,6.51,6.51,0,0,0-2.33.606c-10.027-3.862-11.6,10.9-11.392,14.331s-3.371,4.55-8.587,7.252c-9.954,5.156-10.827,12.061-10.827,12.061.076.046.158.1.244.159.494-.836,1.512-2.408,2.369-2.645a35.287,35.287,0,0,0-1.381,3.357c1.257.958,2.978,2.408,4.839,4.032l0,0c2.491,2.171,5.227,4.651,7.417,6.659a5.639,5.639,0,0,1,.262-2.174l.418,2.518.055.329c1.4,1.285,2.5,2.309,3.056,2.833.057.053.108.1.154.143.163.151.25.234.25.234-.08-.88,1.156-2.959,3.093-5.524.133-.179.274-.361.416-.544.623-.809,1.31-1.657,2.043-2.528.264-.315.531-.63.806-.949a0,0,0,0,1,0,0c.22-.257.443-.512.673-.772l0,0c.542-.616,1.1-1.234,1.668-1.852,1.47-1.6,3.01-3.18,4.513-4.614a45.86,45.86,0,0,1,5.99-4.993c.064-.094.126-.191.184-.29a10.4,10.4,0,0,0,.82-1.691c.071-.179.138-.361.2-.542a24.566,24.566,0,0,0,1.032-4.343,25.187,25.187,0,0,1-.714,4.425c-.064.235-.129.451-.2.651v0a9.192,9.192,0,0,1-.446,1.126,6.171,6.171,0,0,0,.8-.91,7.224,7.224,0,0,0,.453-.7C725.249,842.574,725.609,837.9,725.2,833.411Z" transform="translate(-683.703 -819.817)" fill="#163560"/>
      <path id="Trazado_5498" data-name="Trazado 5498" d="M806.529,905.781c.033.015-3.222,1.705-5.67,1.036-2.3-.628-3.808-3.614-3.776-3.621.975-.194,1.256-1.534,1.236-7.293l.441.087,7.413,1.468s-.168,2.333-.173,4.531C805.995,903.834,806.107,905.585,806.529,905.781Z" transform="translate(-769.19 -877.613)" fill="#ffb27d"/>
      <path id="Trazado_5499" data-name="Trazado 5499" d="M801.505,829.454a5.926,5.926,0,0,1,8.248-.2A32.14,32.14,0,0,0,801.505,829.454Z" transform="translate(-772.549 -825.777)" fill="#e37970"/>
      <path id="Trazado_5500" data-name="Trazado 5500" d="M811.474,897.733s-.169,2.333-.174,4.531c-4.148-.117-6.341-3.9-7.24-6Z" transform="translate(-774.49 -877.888)" fill="#ed975d"/>
      <path id="Trazado_5501" data-name="Trazado 5501" d="M792.156,844.771a21.8,21.8,0,0,1-2.7-6.372c-.373-2.1.7-9.87,8.507-8.75a10.612,10.612,0,0,1,4.4,1.664c1.7,1.145,4.143,3.618,1.407,10.4L803.064,844Z" transform="translate(-763.351 -827.202)" fill="#163560"/>
      <path id="Trazado_5502" data-name="Trazado 5502" d="M824.845,1192.614l-3.93.12-4.254.13a83.963,83.963,0,0,1-15.337-28.475q-.193-.611-.407-1.237c-3.016-8.795-9.269-19.834-12.564-29.826-.525-1.592-1-3.09-1.418-4.508-.135-.454-.267-.9-.392-1.339a105.986,105.986,0,0,1-3.779-19.9l23.794.19A443.525,443.525,0,0,0,824.845,1192.614Z" transform="translate(-758.313 -1038.411)" fill="#2b478b"/>
      <path id="Trazado_5503" data-name="Trazado 5503" d="M771,954.056c-.06,11.322,1.661,16.18,1.661,16.18a31.972,31.972,0,0,1-22.3,1.366c-.142-.045-10.025-2.3-10.025-2.3.2-.458,2-8.089,2.2-8.509,2.556-5.49,4.5-7.9,4.8-9.584a35.894,35.894,0,0,0,.294-9.486,76.116,76.116,0,0,0-2.936-14.9,77.35,77.35,0,0,0,9.822-3.357,7.672,7.672,0,0,0,5.3,1.966c2.412-.053,3.194-1.086,3.069-2.213,2.57,1.43,4.621,2.781,4.621,2.781,2.184,3.794,6.615,7.479,6.935,13.3C774.529,940.732,771,953.738,771,954.056Z" transform="translate(-726.088 -898.364)" fill="#e7f1fd"/>
      <path id="Trazado_5504" data-name="Trazado 5504" d="M809.279,858.692s-9.815.162-9.822-5.952-1.278-10.211,4.988-10.573,7.487,1.97,7.985,4.01S811.832,858.492,809.279,858.692Z" transform="translate(-770.909 -836.766)" fill="#ffb27d"/>
      <path id="Trazado_5505" data-name="Trazado 5505" d="M798.942,837.735s-2.687,7.173-6.812,8.234-5.913-.044-5.913-.044a11.68,11.68,0,0,0,3.82-6.9S796.915,834.321,798.942,837.735Z" transform="translate(-760.936 -832.484)" fill="#163560"/>
      <path id="Trazado_5506" data-name="Trazado 5506" d="M836.383,840.388a8.67,8.67,0,0,1,2.5,3.159c.489,1.557.709,4.762,1.643,4.653,0,0,2.025-4.875-.251-7.633C837.859,837.642,836.383,840.388,836.383,840.388Z" transform="translate(-799.043 -834.555)" fill="#163560"/>
      <path id="Trazado_5507" data-name="Trazado 5507" d="M786.953,1486.908a10.885,10.885,0,0,1-.512,4.631s-.658,3,2.293,3.052,3.674-.223,3.34-2.06-.969-5.014-.969-5.014Z" transform="translate(-761.059 -1326.552)" fill="#ffb27d"/>
      <path id="Trazado_5508" data-name="Trazado 5508" d="M791.058,1510.761H784.6a17.208,17.208,0,0,1,.417-4.708c.007-.041.014-.071.018-.092s0-.03,0-.03c3.339,3.061,5.43-.078,5.43-.078a.094.094,0,0,1,.007.016A19.726,19.726,0,0,1,791.058,1510.761Z" transform="translate(-759.652 -1340.943)" fill="#c45446"/>
      <path id="Trazado_5509" data-name="Trazado 5509" d="M957.189,1482.759s-5.44-6.038-7.11-9.11l-4.045,2.072,9.041,8.491,2.116-.278Z" transform="translate(-882.337 -1316.481)" fill="#ffb27d"/>
      <path id="Trazado_5510" data-name="Trazado 5510" d="M957.4,1492.847h-6.843c-1.008,0-1.813-1.67-2.9-3.841a3.652,3.652,0,0,0-2.463-1.646l.027,5.488h-1.579l-1.454-5.8c-.964-1.77-.077-3.375.6-4.773.788,0,2.909.538,6.927,5.065a5.269,5.269,0,0,0,4.227,1.972.333.333,0,0,0,.06.032C957.349,1490.842,957.4,1492.847,957.4,1492.847Z" transform="translate(-879.096 -1323.029)" fill="#c45446"/>
      <path id="Trazado_5511" data-name="Trazado 5511" d="M832.859,1247.2l-4.254.13a83.962,83.962,0,0,1-15.337-28.475q-.193-.611-.407-1.237c-3.016-8.795-9.269-19.834-12.564-29.826-.524-1.592-1-3.09-1.418-4.508-.135-.454-.267-.9-.392-1.339l3.5-2.659s10.52,17.035,13.776,33.066C818.6,1226.281,829.926,1243.037,832.859,1247.2Z" transform="translate(-770.256 -1092.88)" fill="#233862"/>
      <path id="Trazado_5512" data-name="Trazado 5512" d="M757,1199.563c.06,7.8-.334,25.719-1.349,33.139h-3.768c-2.083,0-3.122-.03-3.122-.03-2.547-12.9-4.359-23.576-5.678-32.775-1.082-7.549-2.044-14.02-2.784-19.592-.745-5.607-1.263-10.3-1.448-14.268-.028-.625-.05-1.232-.062-1.822s-.015-1.169-.01-1.729l20.559-2C759.078,1174.143,756.965,1195.032,757,1199.563Z" transform="translate(-724.898 -1078.594)" fill="#2b478b"/>
      <path id="Trazado_5513" data-name="Trazado 5513" d="M752.116,1250.256c-2.083,0-3.122-.03-3.122-.03-2.547-12.9-4.359-23.576-5.678-32.775-1.082-7.549-2.044-14.02-2.784-19.592-.745-5.607-1.263-10.3-1.448-14.268l7.544,4.437s-4.815,1.7-2.978,14.558S749.559,1248.435,752.116,1250.256Z" transform="translate(-725.133 -1096.147)" fill="#233862"/>
      <path id="Trazado_5514" data-name="Trazado 5514" d="M738.58,986.586s-1.448,5.232-6.458,4.564-12.135-3.674-12.135-3.674,2.141-6.766,4.8-15.654c3.223-10.76,4.025-25.884,5.906-34.633.528-2.452,4.076-3.248,4.21-4.714l4.157-8.065s6.2,13.91,6.532,17.417S738.58,986.586,738.58,986.586Z" transform="translate(-710.626 -899.268)" fill="#f99746"/>
      <path id="Trazado_5515" data-name="Trazado 5515" d="M750.256,1007.483c-.224,5.678-2.211,15.363-10.192,19.621-.031.017-.063.032-.1.045,3.223-10.76,3.182-21.084,5.062-29.834C749.321,996.423,750.378,1004.357,750.256,1007.483Z" transform="translate(-725.805 -954.596)" fill="#ed7d2b"/>
      <g id="Grupo_28861" data-name="Grupo 28861" transform="translate(68.502 49.491)">
        <path id="Trazado_5516" data-name="Trazado 5516" d="M973.8,1025.7h-7.7c0,.037-.011.184-.023.391-.03.7-.078,2.063-.069,2.19a3.4,3.4,0,0,0,2.342,2.962h0a.067.067,0,0,0,.016.009,5.172,5.172,0,0,0,.761.227,4.356,4.356,0,0,0,.519.08,2.777,2.777,0,0,0,.3.016,3.847,3.847,0,0,0,1.579-.338,3.891,3.891,0,0,0,2.3-3.541v-1.512A3.8,3.8,0,0,0,973.8,1025.7Z" transform="translate(-966.016 -1025.705)" fill="#c45446"/>
        <path id="Trazado_5517" data-name="Trazado 5517" d="M981.994,1025.7h-1.043a3.777,3.777,0,0,1,.032.485v1.512a3.875,3.875,0,0,1-1.112,2.714,3.928,3.928,0,0,1-1.193.827,3.862,3.862,0,0,1-.722.241c-.108.025-.218.044-.331.06a3.518,3.518,0,0,0,.521.037,3.092,3.092,0,0,0,.329-.016,3.727,3.727,0,0,0,1.248-.322,3.922,3.922,0,0,0,1.737-1.535l0,0a3.905,3.905,0,0,0,.388-.862,3.829,3.829,0,0,0,.172-1.142v-1.512A3.777,3.777,0,0,0,981.994,1025.7Z" transform="translate(-974.835 -1025.705)" fill="#e37970"/>
        <rect id="Rectángulo_5038" data-name="Rectángulo 5038" width="3.166" height="0.474" transform="translate(5.526 6.011) rotate(180)" fill="#c45446"/>
      </g>
      <path id="Trazado_5518" data-name="Trazado 5518" d="M738.31,1091.39s3.58-.773,4.5.249,1.436,2.646.517,3.217-3.581-1-4.538-.364c-.686.453-.9,1.6-1.591,1.2s-1.415-3.039-1.415-3.039Z" transform="translate(-722.624 -1025.896)" fill="#ffb27d"/>
      <path id="Trazado_5519" data-name="Trazado 5519" d="M709.481,924.41s-9.659.424-11.981,2.581-16.223,18.815-16.453,23.18,12.178,16.773,12.178,16.773,3.447-.83,4.94-3c0,0-7.7-13.725-7.238-14.324s13.5-11.283,14.568-8.914C706.417,942.75,709.481,924.41,709.481,924.41Z" transform="translate(-681.045 -899.268)" fill="#f99746"/>
      <path id="Trazado_5520" data-name="Trazado 5520" d="M862.534,949.458s-11.029,3.676-12.408,3.37-3.348-15.251-4.412-20.373c-1.371-6.6-6.6-7.908-6.6-7.908l-4.96-1.327s5.679,14.029,5.846,16.868.668,46.428.668,46.428-.334,2,3.507,1.169,4.843-1.67,4.843-1.67-1.665-12.185-2.448-23c3.914-.669,16.5-7.046,16.5-7.046C865.023,952.9,862.534,949.458,862.534,949.458Z" transform="translate(-797.351 -898.364)" fill="#f99746"/>
    </g>
    <g id="Grupo_28869" data-name="Grupo 28869" transform="translate(408.481 600.411)">
      <g id="Grupo_28863" data-name="Grupo 28863" transform="translate(11.212 3.814)">
        <path id="Trazado_5521" data-name="Trazado 5521" d="M1036.012,1227.727,1034,1239.109h0l-5.547,31.44-4.96,28.106a.9.9,0,0,1-.9.737.635.635,0,0,1-.641-.711l4.277-31.861,4.574-34.081.691-5.141Z" transform="translate(-1021.951 -1227.598)" fill="#c69d7f"/>
      </g>
      <g id="Grupo_28864" data-name="Grupo 28864" transform="translate(33.171 3.814)">
        <path id="Trazado_5522" data-name="Trazado 5522" d="M1127.365,1227.727l-2.009,11.382h0l-5.547,31.44-4.96,28.106a.9.9,0,0,1-.9.737.635.635,0,0,1-.642-.711l4.277-31.861,4.574-34.081.691-5.141Z" transform="translate(-1113.304 -1227.598)" fill="#c69d7f"/>
      </g>
      <path id="Trazado_5523" data-name="Trazado 5523" d="M1061.992,1239.109c.263-4.891-3.2-6.369-3.2-6.369l.691-5.141,4.513.129Z" transform="translate(-1038.727 -1223.784)" fill="#a0795f"/>
      <g id="Grupo_28866" data-name="Grupo 28866" transform="translate(201.298 3.814)">
        <g id="Grupo_28865" data-name="Grupo 28865">
          <path id="Trazado_5524" data-name="Trazado 5524" d="M1826.139,1299.393a.907.907,0,0,1-.9-.737l-4.406-24.972-6.337-35.914-1.772-10.043,4.513-.129.783,5.83,5.5,40.969,3.26,24.284A.636.636,0,0,1,1826.139,1299.393Z" transform="translate(-1812.726 -1227.598)" fill="#c69d7f"/>
        </g>
        <path id="Trazado_5525" data-name="Trazado 5525" d="M1818.023,1233.428a6.475,6.475,0,0,0-3.525,4.342l-1.772-10.043,4.513-.129Z" transform="translate(-1812.726 -1227.598)" fill="#a0795f"/>
      </g>
      <g id="Grupo_28868" data-name="Grupo 28868" transform="translate(226.605 3.814)">
        <g id="Grupo_28867" data-name="Grupo 28867">
          <path id="Trazado_5526" data-name="Trazado 5526" d="M1931.415,1299.393a.906.906,0,0,1-.9-.737l-4.406-24.972-6.337-35.914L1918,1227.727l4.513-.129.783,5.83,5.5,40.969,3.26,24.284A.636.636,0,0,1,1931.415,1299.393Z" transform="translate(-1918.002 -1227.598)" fill="#c69d7f"/>
        </g>
        <path id="Trazado_5527" data-name="Trazado 5527" d="M1923.3,1233.428a6.475,6.475,0,0,0-3.525,4.342L1918,1227.727l4.513-.129Z" transform="translate(-1918.002 -1227.598)" fill="#a0795f"/>
      </g>
      <path id="Rectángulo_5039" data-name="Rectángulo 5039" d="M3.943,0H239.367a3.943,3.943,0,0,1,3.943,3.943v0a3.943,3.943,0,0,1-3.943,3.943H3.943A3.943,3.943,0,0,1,0,3.943v0A3.943,3.943,0,0,1,3.943,0Z" fill="#e0b594"/>
    </g>
    <g id="Grupo_28870" data-name="Grupo 28870" transform="translate(449.827 594.409)">
      <path id="Trazado_5528" data-name="Trazado 5528" d="M1156.654,1188.019a2.552,2.552,0,0,0-1.585-.029v-.743a3.853,3.853,0,0,0-.032-.485h-7.7a3.9,3.9,0,0,0-.031.485v1.51a3.874,3.874,0,0,0,6.788,2.558h0a6.072,6.072,0,0,0,2.406-1.133C1157.078,1189.5,1157.265,1188.4,1156.654,1188.019Zm-.406,1.4c-.194.5-1.067.772-1.5.877a3.84,3.84,0,0,0,.31-1.277,1.134,1.134,0,0,1,.993-.521C1156.327,1188.545,1156.494,1188.78,1156.248,1189.415Z" transform="translate(-1147.311 -1186.761)" fill="#c45446"/>
      <path id="Trazado_5529" data-name="Trazado 5529" d="M1149.932,1187.245v1.51a3.891,3.891,0,0,0,3.878,3.88,3.589,3.589,0,0,0,.521-.037,3.891,3.891,0,0,1-3.357-3.842v-1.51a3.814,3.814,0,0,1,.031-.485h-1.042A3.77,3.77,0,0,0,1149.932,1187.245Z" transform="translate(-1149.302 -1186.76)" fill="#e37970"/>
      <rect id="Rectángulo_5040" data-name="Rectángulo 5040" width="3.166" height="0.474" transform="translate(2.293 5.536)" fill="#c45446"/>
    </g>
    <g id="Grupo_28871" data-name="Grupo 28871" transform="translate(559.18 594.409)">
      <path id="Trazado_5530" data-name="Trazado 5530" d="M1611.572,1188.019a2.552,2.552,0,0,0-1.585-.029v-.743a3.876,3.876,0,0,0-.031-.485h-7.7a3.83,3.83,0,0,0-.032.485v1.51a3.874,3.874,0,0,0,6.788,2.558h0a6.074,6.074,0,0,0,2.406-1.133C1612,1189.5,1612.183,1188.4,1611.572,1188.019Zm-.406,1.4c-.194.5-1.067.772-1.5.877a3.834,3.834,0,0,0,.31-1.277,1.135,1.135,0,0,1,.993-.521C1611.245,1188.545,1611.412,1188.78,1611.166,1189.415Z" transform="translate(-1602.229 -1186.761)" fill="#c45446"/>
      <path id="Trazado_5531" data-name="Trazado 5531" d="M1604.851,1187.245v1.51a3.891,3.891,0,0,0,3.878,3.88,3.581,3.581,0,0,0,.521-.037,3.891,3.891,0,0,1-3.356-3.842v-1.51a3.748,3.748,0,0,1,.031-.485h-1.043A3.883,3.883,0,0,0,1604.851,1187.245Z" transform="translate(-1604.221 -1186.76)" fill="#e37970"/>
      <rect id="Rectángulo_5041" data-name="Rectángulo 5041" width="3.167" height="0.474" transform="translate(2.293 5.536)" fill="#c45446"/>
    </g>
    <path id="Trazado_5532" data-name="Trazado 5532" d="M336.86,965.2v134.871H301.28s-.535-5.244-.694-13.715c-.089-4.934-.057-10.965.29-17.691.03-.548.06-1.105.092-1.665.181-3.083.425-6.3.754-9.623.03-.294.06-.59.092-.887.358-3.471.8-7.076,1.36-10.782.453-3.01.974-6.091,1.586-9.218.041-.219.085-.44.129-.661q.472-2.388,1.013-4.811.21-.949.432-1.9.434-1.863.91-3.739,1.158-4.6,2.59-9.244c.1-.313.2-.633.292-.952q.652-2.067,1.36-4.146,1.082-3.157,2.3-6.314c.508-1.32,1.041-2.634,1.59-3.951A134.343,134.343,0,0,1,336.86,965.2Z" transform="translate(-54.263 -424.048)" fill="#deedff"/>
    <path id="Rectángulo_5042" data-name="Rectángulo 5042" d="M1.169,0H654.275a1.169,1.169,0,0,1,1.169,1.169v0a1.169,1.169,0,0,1-1.169,1.169H1.17A1.17,1.17,0,0,1,0,1.169v0A1.169,1.169,0,0,1,1.169,0Z" transform="translate(229.109 675.935)" fill="#2e3552"/>
  </g>
</svg>
