<svg xmlns="http://www.w3.org/2000/svg" width="33.281" height="46" viewBox="0 0 33.281 46">
  <g id="bolsa-de-dinero-en-dolares" transform="translate(-4.424)">
    <g id="money_3" transform="translate(4.424 0)">
      <g id="Grupo_28449" data-name="Grupo 28449">
        <path id="Trazado_4328" data-name="Trazado 4328" d="M30.079,16.57a2.129,2.129,0,0,0-.9-3.763,22.253,22.253,0,0,0,1.747-4.6c.509-2.038.837-4.854-.492-6.693A3.322,3.322,0,0,0,27.678,0c-1.765,0-3.323,1.4-4.7,2.636A13.873,13.873,0,0,1,21.464,3.88c-.349-.194-.832-.51-1.3-.819C18.517,1.974,16.472.624,14.4.624a4.185,4.185,0,0,0-2.179.589A3.287,3.287,0,0,0,10.762,4.1c-.116,2.4,1.16,6.186,2.569,8.74a2.126,2.126,0,0,0-.792,3.717C8.984,20.622,4.424,28.531,4.424,32.706,4.424,40.657,11.113,46,21.065,46S37.7,40.655,37.7,32.7C37.706,28.506,33.469,20.688,30.079,16.57ZM14,3.9a1.06,1.06,0,0,1,.392-.068c1.108,0,2.777,1.1,3.995,1.906A13.366,13.366,0,0,0,20.553,7a2.354,2.354,0,0,0,.873.165h0c1.305,0,2.415-.99,3.689-2.136.707-.634,2.024-1.817,2.539-1.823a.62.62,0,0,1,.177.191c1.258,1.741-1.081,8.041-2.395,9.358a23.752,23.752,0,0,1-3.83.292,25.289,25.289,0,0,1-4.711-.528C15.624,11.089,13.52,5.339,14,3.9Zm7.061,38.887c-6.2,0-13.429-2.639-13.429-10.084,0-3.349,4.964-11.874,8.174-14.956.533.1,1.078.185,1.623.256.354.053.71.095,1.064.126l.124.014c.265.023.522.039.778.056a30.725,30.725,0,0,0,7.5-.407c3.145,3.316,7.6,11.464,7.6,14.911C34.494,40.149,27.263,42.789,21.065,42.789Z" transform="translate(-4.424 0)" fill="#111e61"/>
        <path id="Trazado_4329" data-name="Trazado 4329" d="M21.42,24.445a4.352,4.352,0,0,0-1.271-1.039,6.5,6.5,0,0,0-2.241-.686q-2.262-.341-2.263-1.393a.914.914,0,0,1,.365-.693,1.531,1.531,0,0,1,1.042-.326,3.658,3.658,0,0,1,.816.082,2.661,2.661,0,0,1,.64.236,2.453,2.453,0,0,1,.551.39,7.392,7.392,0,0,1,.533.542h2.28V18.164H19.607v.486a3.815,3.815,0,0,0-.9-.39V17.033H16.438V18.1a3.934,3.934,0,0,0-1.219.38,3.613,3.613,0,0,0-.972.713,3.077,3.077,0,0,0-.864,2.143,4.016,4.016,0,0,0,.138.96,2.622,2.622,0,0,0,.581,1.058,4.33,4.33,0,0,0,1.269.954,7.006,7.006,0,0,0,2.2.648,7.838,7.838,0,0,1,.786.168,3.4,3.4,0,0,1,.727.283,1.836,1.836,0,0,1,.542.427.884.884,0,0,1,.21.592.752.752,0,0,1-.4.654,1.922,1.922,0,0,1-1.019.25,4.334,4.334,0,0,1-.831-.073,2.591,2.591,0,0,1-.666-.224,3.231,3.231,0,0,1-.581-.39,5.012,5.012,0,0,1-.572-.556H13.5v3.394h2.265v-.506c.106.056.216.106.331.154s.227.1.345.151v1.325H18.7V29.592a4.135,4.135,0,0,0,1.348-.306,3.578,3.578,0,0,0,1.075-.68,3.111,3.111,0,0,0,.71-.977,2.817,2.817,0,0,0,.259-1.2,4.033,4.033,0,0,0-.121-.881A2.794,2.794,0,0,0,21.42,24.445Z" transform="translate(-0.504 7.452)" fill="#111e61"/>
      </g>
    </g>
  </g>
</svg>
