<svg id="Grupo_28765" data-name="Grupo 28765" xmlns="http://www.w3.org/2000/svg" width="383.792" height="288.135" viewBox="0 0 383.792 288.135">
  <g id="OBJECTS" transform="translate(0 0)">
    <g id="Grupo_28764" data-name="Grupo 28764">
      <g id="Grupo_28733" data-name="Grupo 28733">
        <path id="Trazado_5082" data-name="Trazado 5082" d="M379.826,371.554c41.43-31.5,59.88-118.854-7.389-161.688C327.9,181.514,300.2,197.688,250.1,178.932c-61.163-22.891-70.279-92.054-144.676-58.022-39.414,18.023-66.737,68.822-71.544,126.557C29.17,304.005,49.209,342.8,90.159,369.347,186.322,373.439,282.677,372.7,379.826,371.554Z" transform="translate(-33.205 -88.278)" fill="#dff3fc"/>
        <path id="Trazado_5083" data-name="Trazado 5083" d="M235.281,119.668c-6.258,25.125,16.98,50,41.461,60.308s52.555,9.09,78.782,4.17c11.317-2.12,22.949-5.1,31.741-12.318s13.888-19.742,9.07-29.862c-4.252-8.925-14.6-13.5-24.472-15.843s-20.35-3.306-29.142-8.244c-8.336-4.685-14.25-12.44-21.5-18.582-13.4-11.332-32.215-16.95-49.631-13.365S240.6,98.312,235.281,119.668Z" transform="translate(-58.861 -84.858)" fill="#dff3fc"/>
      </g>
      <g id="Grupo_28763" data-name="Grupo 28763" transform="translate(18.543 75.609)">
        <g id="Grupo_28762" data-name="Grupo 28762">
          <g id="Grupo_28761" data-name="Grupo 28761" transform="translate(43.29)">
            <g id="Grupo_28734" data-name="Grupo 28734" transform="translate(86.242 97.991)">
              <path id="Trazado_5084" data-name="Trazado 5084" d="M232.789,348.992s1.911,17.509,4.048,18.913c3.821,2.521,48.051,8.349,48.051,8.349l-1.448,11.507s-60.578,5.444-63.152,2.416c-4.467-5.252-12.318-30.586-12.318-30.586Z" transform="translate(-203.582 -292.165)" fill="#e06a58"/>
              <path id="Trazado_5085" data-name="Trazado 5085" d="M202.94,295.6l4.894-11.751s13.278,6.238,17.657,13.941c4.685,8.235,10.416,52.02,10.416,52.02s-23.441,5.4-27.751,3.106S202.94,295.6,202.94,295.6Z" transform="translate(-202.94 -283.852)" fill="#f2ae30"/>
            </g>
            <path id="Trazado_5086" data-name="Trazado 5086" d="M153.047,234.492c-3.428-1.256-7.058-2.355-10.73-2.076s-7.424,2.225-8.671,5.452c-.89,2.286-.48,4.981-1.884,7.04-1.343,1.972-4.013,2.792-6.508,2.957s-5.025-.157-7.511.166c-7.677,1.021-13.156,9.361-10.634,16.191,1,2.722,3.062,5.322,2.591,8.157-.5,3.036-3.681,5.034-4.99,7.851-1.736,3.751.34,8.3,3.769,10.853s7.886,3.516,12.213,4.161c5.958.89,12.109,1.309,18,.052s11.515-4.362,14.56-9.212c1.352-2.146,2.172-4.571,3.743-6.586,3.245-4.161,8.994-5.775,13.522-8.724,4.946-3.237,8.576-9.535,5.662-14.464-2.809-4.737-10.12-5.793-13.051-10.46-1.213-1.928-1.5-4.222-2.286-6.325C160.035,237.414,158.116,236.35,153.047,234.492Z" transform="translate(-104.083 -179.292)" fill="#0a2240"/>
            <g id="Grupo_28735" data-name="Grupo 28735" transform="translate(42.404 61.333)">
              <path id="Trazado_5087" data-name="Trazado 5087" d="M179.228,293.809c.864.995,1.884,2.085,3.3,2.181,1.492.1,2.739-.951,3.7-1.972a37.547,37.547,0,0,0,9.553-18.32c-1.23-.7-2.416-1.37-3.49-2a5.3,5.3,0,0,1-2.172-2.39,4.592,4.592,0,0,1-.323-2.251,64.333,64.333,0,0,1,3.62-16.872c-10.94-2.469-21.26-5.4-27.192-10.355-.724,3.053-1.579,9.029-3.4,14.953-1.945,6.272-4.981,12.475-10.128,15.145A108.539,108.539,0,0,1,179.228,293.809Z" transform="translate(-152.69 -241.832)" fill="#f9a07b"/>
              <path id="Trazado_5088" data-name="Trazado 5088" d="M191.274,269.069a4.577,4.577,0,0,0,.323,2.251c-6.473,7.851-20.946-2.408-27.3-14.525,1.823-5.923,2.678-11.9,3.4-14.953,5.923,4.955,16.253,7.9,27.192,10.355A64.258,64.258,0,0,0,191.274,269.069Z" transform="translate(-154.172 -241.833)" fill="#e06a58"/>
            </g>
            <g id="Grupo_28736" data-name="Grupo 28736" transform="translate(16.146 88.141)">
              <path id="Trazado_5089" data-name="Trazado 5089" d="M203.975,367.9c-1.431,9.474,8.794,19.672,9.047,24.732-21.714,0-67.2,1.326-90.362-1.823-1.056-5.845,10.381-18.992,10.381-31.973,0-1.719-.07-3.6-.209-5.627-.366-5.793-1.221-12.684-2.172-19.751-2.582-18.957-6.019-39.231-3.481-43.436,4.973-8.192,16.6-13.758,22.368-16.148,1.98-.82,3.271-1.265,3.367-1.317,7.232,12.336,21.949,22.856,27.506,22.385,1.544-.122,6.124-1.719,9.151-16.959,1.178.672,2.355,1.291,3.524,1.893,5.749,2.992,11.14,5.461,12.693,9.308,4.1,10.128,8.122,35.663,7.232,44.745-.9,9.16-4.58,16.156-7.162,25.351-.6,2.155-1.152,4.44-1.6,6.9C204.149,366.736,204.062,367.312,203.975,367.9Z" transform="translate(-122.591 -272.562)" fill="#ffc73c"/>
              <path id="Trazado_5090" data-name="Trazado 5090" d="M213.022,400.14c-21.714,0-67.2,1.326-90.362-1.823-1.056-5.845,10.381-18.992,10.381-31.973,0-1.719-.07-3.6-.209-5.627-.366-5.793-1.221-12.685-2.172-19.751,4.109,4.336,10.1-13.984,12.754-8.619,14.351,28.963,25.666,36.579,45.329,36.579a75.5,75.5,0,0,0,17.116-2.137c-.6,2.155-1.152,4.44-1.6,6.9q-.157.838-.288,1.727C202.544,384.873,212.769,395.071,213.022,400.14Z" transform="translate(-122.591 -280.065)" fill="#fb3"/>
              <path id="Trazado_5091" data-name="Trazado 5091" d="M197.039,279.881c-.933,6.778-3.7,15.912-11.742,18.32-10.87,3.254-26.6-17.055-31.807-24.322,1.98-.82,3.271-1.265,3.367-1.317,7.232,12.336,21.949,22.856,27.506,22.385,1.544-.122,6.124-1.719,9.151-16.959C194.693,278.651,195.87,279.271,197.039,279.881Z" transform="translate(-126.534 -272.562)" fill="#fce172"/>
            </g>
            <g id="Grupo_28740" data-name="Grupo 28740" transform="translate(91.04 126.841)">
              <g id="Grupo_28739" data-name="Grupo 28739">
                <g id="Grupo_28737" data-name="Grupo 28737" transform="translate(0 70.969)">
                  <path id="Trazado_5092" data-name="Trazado 5092" d="M208.519,398.482l-.079,7.564,135.22.8.279-8.576Z" transform="translate(-208.44 -398.272)" fill="#325f73"/>
                </g>
                <g id="Grupo_28738" data-name="Grupo 28738" transform="translate(42.913)">
                  <path id="Trazado_5093" data-name="Trazado 5093" d="M408.544,320.621l-3.01-3.053-98.492-.646L257.63,388.379l2.582,2.076Z" transform="translate(-257.63 -316.922)" fill="#325f73"/>
                  <path id="Trazado_5094" data-name="Trazado 5094" d="M309.322,319.952l-48.731,70.89,93.083.462,55.248-70.3Z" transform="translate(-258.008 -317.309)" fill="#0b2d50"/>
                </g>
              </g>
              <ellipse id="Elipse_347" data-name="Elipse 347" cx="10.835" cy="5.418" rx="10.835" ry="5.418" transform="translate(106.911 37.059)" fill="#3c738c"/>
            </g>
            <g id="Grupo_28753" data-name="Grupo 28753" transform="translate(37.945)">
              <g id="Grupo_28741" data-name="Grupo 28741" transform="translate(52.394 44.589)">
                <ellipse id="Elipse_348" data-name="Elipse 348" cx="15.171" cy="10.006" rx="15.171" ry="10.006" transform="translate(0 29.829) rotate(-79.444)" fill="#56c4f9"/>
              </g>
              <path id="Trazado_5095" data-name="Trazado 5095" d="M230.17,209.924c-1.012,7.171-4.214,15.075-8.881,23.807-1.64-7.154-2.687-15.869-4.135-24.584-1.474-8.733-3.35-17.465-6.6-24.6a42.706,42.706,0,0,0-2.39-4.484,15.918,15.918,0,0,1,5.74.515,19.232,19.232,0,0,1,7.851,4.283,27.529,27.529,0,0,1,7.651,12.5A28.055,28.055,0,0,1,230.17,209.924Z" transform="translate(-155.31 -172.607)" fill="#0b2d50"/>
              <g id="Grupo_28742" data-name="Grupo 28742" transform="translate(7.765 3.841)">
                <path id="Trazado_5096" data-name="Trazado 5096" d="M218.1,216.82c-.052,1.413-.148,2.853-.279,4.283-1.989,23.205-11.734,39.126-26.643,39.126-21.051,0-34.695-23.607-34.695-46.734,0-22.813,13.976-39.327,30.333-37.417,9.43,1.082,16.322,4.214,21.216,8.8a28.917,28.917,0,0,1,7.171,10.94,47.828,47.828,0,0,1,2.888,15.755c0,.017.017.035.017.052C218.175,213.322,218.158,215.049,218.1,216.82Z" transform="translate(-156.48 -175.93)" fill="#f9a07b"/>
                <path id="Trazado_5097" data-name="Trazado 5097" d="M219.507,219.289a23.321,23.321,0,0,0-2.835-6.395,66.243,66.243,0,0,1-41.238,6.621c-2.67,2.225-5.278,4.414-7.9,6.6.052-10.556.2-17.7,4.318-22.813,3.865-4.8,10.312-6.6,16.418-7.389a75.943,75.943,0,0,1,20.719.131,20.967,20.967,0,0,1,7.633,2.259,47.829,47.829,0,0,1,2.888,15.755c0,.017.017.035.017.052C219.585,215.79,219.568,217.518,219.507,219.289Z" transform="translate(-157.89 -178.398)" fill="#e06a58"/>
              </g>
              <path id="Trazado_5098" data-name="Trazado 5098" d="M220.22,201.97a38.889,38.889,0,0,1-10.573,6.107c-11.568,4.667-26.6,6.211-38.315,5.644-5.758,12.65-8.087,17.186-9.561,28.222C156.143,236.665,151.563,227,150.2,219.4a51.56,51.56,0,0,1,.9-22.961,34.341,34.341,0,0,1,17.518-21.068,32.927,32.927,0,0,1,3.769-1.745c7.424-2.87,15.79-2.608,23.406-.279a27.876,27.876,0,0,1,10.591,6.159c5.941,5.365,9.614,12.632,11.987,18.076C219.12,199.248,219.722,200.758,220.22,201.97Z" transform="translate(-147.802 -171.528)" fill="#0b2d50"/>
              <path id="Trazado_5099" data-name="Trazado 5099" d="M225.487,208.843a35.519,35.519,0,0,0-2.207-7.372,25.4,25.4,0,0,0-2.076-3.9,21.383,21.383,0,0,0-11.14-9.082,41,41,0,0,0-4.187-5.016,32.314,32.314,0,0,0-18.032-9.509,34.258,34.258,0,0,0-16.383,1.4,32.923,32.923,0,0,1,3.769-1.745c7.424-2.87,15.79-2.608,23.406-.279a27.876,27.876,0,0,1,10.591,6.159,19.232,19.232,0,0,1,7.851,4.283,27.529,27.529,0,0,1,7.651,12.5A28.183,28.183,0,0,1,225.487,208.843Z" transform="translate(-150.626 -171.527)" fill="#225570"/>
              <g id="Grupo_28748" data-name="Grupo 28748" transform="translate(29.366 48.378)">
                <g id="Grupo_28746" data-name="Grupo 28746">
                  <g id="Grupo_28743" data-name="Grupo 28743">
                    <path id="Trazado_5100" data-name="Trazado 5100" d="M182.113,231.021a.872.872,0,0,1-.434-1.63A15.6,15.6,0,0,1,196,228.169a.872.872,0,1,1-.6,1.639,13.844,13.844,0,0,0-12.861,1.1A.862.862,0,0,1,182.113,231.021Z" transform="translate(-181.24 -226.981)" fill="#0b2d50"/>
                  </g>
                  <g id="Grupo_28744" data-name="Grupo 28744" transform="translate(26.643 0.181)">
                    <path id="Trazado_5101" data-name="Trazado 5101" d="M212.653,230.891a.873.873,0,0,1-.523-1.572c3.859-2.88,9.243-2.834,12,.1a.872.872,0,1,1-1.272,1.194c-2.132-2.271-6.568-2.224-9.686.1A.867.867,0,0,1,212.653,230.891Z" transform="translate(-211.78 -227.189)" fill="#0b2d50"/>
                  </g>
                  <g id="Grupo_28745" data-name="Grupo 28745" transform="translate(21.94 14.822)">
                    <path id="Trazado_5102" data-name="Trazado 5102" d="M207.262,253.133a.873.873,0,0,1-.787-1.248,15.177,15.177,0,0,0,.611-6.874.872.872,0,1,1,1.713-.331c.353,1.831.195,5.979-.75,7.956A.87.87,0,0,1,207.262,253.133Z" transform="translate(-206.39 -243.971)" fill="#cc454e"/>
                  </g>
                  <ellipse id="Elipse_349" data-name="Elipse 349" cx="1.605" cy="2.53" rx="1.605" ry="2.53" transform="translate(8.741 11.822)" fill="#262d40"/>
                  <ellipse id="Elipse_350" data-name="Elipse 350" cx="1.605" cy="2.53" rx="1.605" ry="2.53" transform="translate(29.722 10.644)" fill="#262d40"/>
                </g>
                <g id="Grupo_28747" data-name="Grupo 28747" transform="translate(8.466 23.119)">
                  <path id="Trazado_5103" data-name="Trazado 5103" d="M203.983,256.919a12.327,12.327,0,0,1-.916,1.439,9.963,9.963,0,0,1-4.737,3.69h-.009a6.186,6.186,0,0,1-3.045.2c-3.28-.585-4.144-3.612-4.3-5.941a12.463,12.463,0,0,1-.026-1.256,11.892,11.892,0,0,1,.122-1.57C196.3,256.361,203.983,256.919,203.983,256.919Z" transform="translate(-190.944 -253.482)" fill="#cc454e"/>
                  <path id="Trazado_5104" data-name="Trazado 5104" d="M203.983,256.919a12.33,12.33,0,0,1-.916,1.439,36.039,36.039,0,0,1-12.117-3.306,11.889,11.889,0,0,1,.122-1.57C196.3,256.361,203.983,256.919,203.983,256.919Z" transform="translate(-190.945 -253.482)" fill="#fff"/>
                  <path id="Trazado_5105" data-name="Trazado 5105" d="M198.325,262.452a6.185,6.185,0,0,1-3.045.2c-3.28-.585-4.144-3.612-4.3-5.941a8.932,8.932,0,0,1,7.345,5.74Z" transform="translate(-190.949 -253.894)" fill="#e8729b"/>
                </g>
              </g>
              <g id="Grupo_28752" data-name="Grupo 28752" transform="translate(0 3.623)">
                <path id="Trazado_5106" data-name="Trazado 5106" d="M163.145,219.6a60.306,60.306,0,0,1,4.344-21.687c5.679-13.566,17.256-19.367,28.483-19.76a30.593,30.593,0,0,1,22,8.6s-4.406-7.773-13.094-10.006c-5.705-1.466-14.316-1.7-21.225,1.108-7.119,2.888-15.991,10.9-19.2,19.376s-4.763,21.661-4.763,21.661Z" transform="translate(-149.124 -175.68)" fill="#3d86e0"/>
                <g id="Grupo_28749" data-name="Grupo 28749" transform="translate(0 39.361)">
                  <ellipse id="Elipse_351" data-name="Elipse 351" cx="10.547" cy="15.981" rx="10.547" ry="15.981" transform="translate(0 2.181) rotate(-5.935)" fill="#56c4f9"/>
                  <ellipse id="Elipse_352" data-name="Elipse 352" cx="6.848" cy="12.048" rx="6.848" ry="12.048" transform="translate(0.776 7.25) rotate(-8.546)" fill="#3d86e0"/>
                </g>
                <g id="Grupo_28751" data-name="Grupo 28751" transform="translate(17.841 68.773)">
                  <ellipse id="Elipse_353" data-name="Elipse 353" cx="5.618" cy="3.498" rx="5.618" ry="3.498" transform="translate(23.476 9.072)" fill="#3a92c9"/>
                  <g id="Grupo_28750" data-name="Grupo 28750">
                    <path id="Trazado_5107" data-name="Trazado 5107" d="M191.507,267.956l-.066,0a34.493,34.493,0,0,1-23.226-12.033.872.872,0,0,1,1.377-1.072c.08.1,8.206,10.319,21.981,11.365a.872.872,0,0,1-.065,1.742Z" transform="translate(-168.03 -254.513)" fill="#3a92c9"/>
                  </g>
                </g>
              </g>
            </g>
            <g id="Grupo_28760" data-name="Grupo 28760" transform="translate(11.672 94.859)">
              <g id="Grupo_28758" data-name="Grupo 28758">
                <g id="Grupo_28757" data-name="Grupo 28757" transform="translate(4.482 47.667)">
                  <g id="Grupo_28754" data-name="Grupo 28754">
                    <path id="Trazado_5108" data-name="Trazado 5108" d="M197.486,370.2l-.541,13.949s-50.45,15.118-58.781,10.338c-4.065-2.338-7.86-15.2-10.7-27.751C124.5,353.546,122.6,340.7,122.6,340.7l29.574-5.793s.017,18.032,1.021,28.457c.358,3.882.872,6.709,1.562,7.171C157.365,372.259,197.486,370.2,197.486,370.2Z" transform="translate(-122.6 -334.903)" fill="#f9a07b"/>
                    <path id="Trazado_5109" data-name="Trazado 5109" d="M153.195,363.35c-5.374,1.745-15.747,4.44-25.727,3.376-2.966-13.19-4.868-26.032-4.868-26.032l29.574-5.793C152.174,334.893,152.191,352.925,153.195,363.35Z" transform="translate(-122.6 -334.902)" fill="#e06a58"/>
                  </g>
                  <g id="Grupo_28756" data-name="Grupo 28756" transform="translate(70.864 28.535)">
                    <path id="Trazado_5110" data-name="Trazado 5110" d="M206.412,374.512c7.5-1.605,20.2-5.461,25.474-6.787,3.743-.942,13.487,4.1,16.061,8.855,1.125,2.076,2.19,13.836-1.71,12.623-1.954-.611-1.631-5.653-2.242-7.712-.5-1.675-2.085-3.3-4.5-4.693,1.614,4.022,1.553,7.529,1.378,11.873a6.155,6.155,0,0,1-.558,2.792,2,2,0,0,1-2.355,1.056c-.89-.366-1.2-1.474-1.4-2.443A79.413,79.413,0,0,1,234.9,379.59c.07,3.725-.009,7.459-.244,11.175-.174,2.844-1.588,4.405-3.324,3.908-.776-.218-1.09-.933-1.422-1.876-.523,1.823-1.832,3.838-3.524,3.071-1.029-.462-1.666-4.179-1.483-8a22.386,22.386,0,0,1-11.132,3.062c-3.786.174-7.66-.532-9.936-3.106A66.931,66.931,0,0,1,206.412,374.512Z" transform="translate(-203.83 -367.611)" fill="#f9a07b"/>
                    <g id="Grupo_28755" data-name="Grupo 28755" transform="translate(24.942 15.18)">
                      <path id="Trazado_5111" data-name="Trazado 5111" d="M233.634,394.879l-.038,0a.435.435,0,0,1-.4-.471,26.081,26.081,0,0,0-.763-8.846.436.436,0,1,1,.844-.222,26.961,26.961,0,0,1,.789,9.141A.435.435,0,0,1,233.634,394.879Z" transform="translate(-232.42 -385.012)" fill="#cc454e"/>
                    </g>
                  </g>
                </g>
                <path id="Trazado_5112" data-name="Trazado 5112" d="M148.194,298.678c-2.146-6.046-10.006-18.416-10.006-18.416s-12,4.99-16.253,13.461c-7.206,14.342-3.542,55.519-3.542,55.519,9.71,4.065,29.2,4.126,37.5,2.957C155.889,352.2,152.5,310.761,148.194,298.678Z" transform="translate(-117.462 -280.262)" fill="#ffc73c"/>
              </g>
              <g id="Grupo_28759" data-name="Grupo 28759" transform="translate(31.823 20.508)">
                <path id="Trazado_5113" data-name="Trazado 5113" d="M159.96,349.214a.436.436,0,0,1-.435-.419,266.178,266.178,0,0,0-5.575-44.5.437.437,0,0,1,.338-.516.432.432,0,0,1,.516.338,266.979,266.979,0,0,1,5.592,44.643.435.435,0,0,1-.419.453Z" transform="translate(-153.94 -303.77)" fill="#f2ae30"/>
              </g>
            </g>
          </g>
          <rect id="Rectángulo_5031" data-name="Rectángulo 5031" width="343.964" height="8.628" transform="translate(0 203.899)" fill="#0b2d50"/>
        </g>
      </g>
    </g>
  </g>
</svg>
