<svg id="Grupo_28258" data-name="Grupo 28258" xmlns="http://www.w3.org/2000/svg" width="280.365" height="218.791" viewBox="0 0 280.365 218.791">
  <g id="Device" transform="translate(0 45.347)">
    <g id="Grupo_28090" data-name="Grupo 28090">
      <g id="Grupo_28085" data-name="Grupo 28085">
        <g id="Grupo_28068" data-name="Grupo 28068">
          <g id="Grupo_28067" data-name="Grupo 28067">
            <g id="Grupo_28056" data-name="Grupo 28056" transform="translate(10.46)">
              <g id="Grupo_28055" data-name="Grupo 28055">
                <g id="Grupo_28054" data-name="Grupo 28054">
                  <rect id="Rectángulo_4740" data-name="Rectángulo 4740" width="258.777" height="171.126" rx="14.567" fill="#455a64"/>
                </g>
              </g>
            </g>
            <g id="Grupo_28059" data-name="Grupo 28059" transform="translate(0 158.47)">
              <g id="Grupo_28058" data-name="Grupo 28058">
                <g id="Grupo_28057" data-name="Grupo 28057">
                  <path id="Rectángulo_4741" data-name="Rectángulo 4741" d="M0,0H280.365a0,0,0,0,1,0,0V0a14.973,14.973,0,0,1-14.973,14.973H14.973A14.973,14.973,0,0,1,0,0V0A0,0,0,0,1,0,0Z" fill="#455a64"/>
                </g>
              </g>
            </g>
            <g id="Grupo_28062" data-name="Grupo 28062" transform="translate(17.768 6.799)">
              <g id="Grupo_28061" data-name="Grupo 28061">
                <g id="Grupo_28060" data-name="Grupo 28060">
                  <rect id="Rectángulo_4742" data-name="Rectángulo 4742" width="244.161" height="144.514" fill="#f5f5f5"/>
                </g>
              </g>
            </g>
            <g id="Grupo_28066" data-name="Grupo 28066" transform="translate(114.699 158.301)">
              <g id="Grupo_28065" data-name="Grupo 28065">
                <g id="Grupo_28064" data-name="Grupo 28064">
                  <g id="Grupo_28063" data-name="Grupo 28063">
                    <path id="Trazado_4071" data-name="Trazado 4071" d="M338.114,432.266s.087-.005.27-.008l.821-.009,3.189-.018,11.83-.048,39.556-.085h.292l-.148.253-1.57,2.69c-.564.965-1.124,1.925-1.66,2.844l-.049.083h-.1l-48.955-.092h-.043l-.022-.036-2.563-4.169-.645-1.056c-.143-.235-.207-.349-.207-.349s.088.127.243.367l.684,1.058,2.615,4.069-.064-.035,48.955-.092-.144.083,1.66-2.844,1.57-2.69.145.252-39.394-.085L342.5,432.3l-3.238-.018-.849-.008C338.22,432.272,338.114,432.266,338.114,432.266Z" transform="translate(-338.114 -432.098)" fill="#263238"/>
                  </g>
                </g>
              </g>
            </g>
          </g>
        </g>
        <g id="Grupo_28084" data-name="Grupo 28084" transform="translate(26.851 15.303)">
          <g id="Grupo_28070" data-name="Grupo 28070" transform="translate(76.965 13.389)">
            <g id="Grupo_28069" data-name="Grupo 28069">
              <path id="Trazado_4072" data-name="Trazado 4072" d="M324.25,232.725a8.347,8.347,0,0,1,1.551-1.584l-.369-2.022,3.128-1.334,1.2,1.665a8.338,8.338,0,0,1,2.217-.024l1.168-1.69L336.3,229l-.325,2.028a8.329,8.329,0,0,1,1.584,1.552l2.022-.369,1.335,3.127-1.666,1.205a8.306,8.306,0,0,1,.025,2.217l1.69,1.168-1.268,3.156-2.029-.326a8.345,8.345,0,0,1-1.551,1.584l.369,2.022-3.128,1.335-1.2-1.665a8.335,8.335,0,0,1-2.217.024l-1.169,1.69-3.155-1.268.326-2.028a8.313,8.313,0,0,1-1.584-1.552l-2.022.369L321,240.145l1.666-1.205a8.357,8.357,0,0,1-.025-2.217l-1.69-1.168,1.268-3.156,2.029.326Zm3.384,3.515a3.648,3.648,0,1,0,4.745-2.025A3.648,3.648,0,0,0,327.634,236.24Z" transform="translate(-320.953 -227.736)" fill="#e0e0e0" fill-rule="evenodd"/>
            </g>
          </g>
          <g id="Grupo_28072" data-name="Grupo 28072" transform="translate(58.032 69.509)">
            <g id="Grupo_28071" data-name="Grupo 28071">
              <path id="Trazado_4073" data-name="Trazado 4073" d="M300.654,330.681a24.127,24.127,0,0,1,4.495-4.589l-1.07-5.859,9.064-3.867,3.49,4.826a24.124,24.124,0,0,1,6.423-.07l3.385-4.9,9.143,3.674-.944,5.877a24.15,24.15,0,0,1,4.589,4.5l5.859-1.069,3.867,9.063-4.826,3.49a24.154,24.154,0,0,1,.07,6.423l4.9,3.385-3.673,9.143-5.878-.944a24.13,24.13,0,0,1-4.5,4.589l1.07,5.86-9.063,3.867-3.49-4.826a24.155,24.155,0,0,1-6.423.07l-3.385,4.9-9.143-3.674.944-5.877a24.117,24.117,0,0,1-4.589-4.5l-5.859,1.07-3.867-9.063,4.826-3.491a24.176,24.176,0,0,1-.07-6.423l-4.9-3.385,3.673-9.143,5.879.944Zm9.8,10.184A10.571,10.571,0,1,0,324.207,335,10.57,10.57,0,0,0,310.458,340.865Z" transform="translate(-291.101 -316.223)" fill="#f5f5f5" fill-rule="evenodd"/>
            </g>
          </g>
          <g id="Grupo_28081" data-name="Grupo 28081" transform="translate(16.397 88.018)">
            <g id="Grupo_28074" data-name="Grupo 28074" transform="translate(0.104 0.157)">
              <g id="Grupo_28073" data-name="Grupo 28073">
                <path id="Trazado_4074" data-name="Trazado 4074" d="M230.9,353.654a13.349,13.349,0,0,1,2.487-2.539l-.592-3.242,5.014-2.139,1.931,2.669a13.345,13.345,0,0,1,3.553-.039l1.873-2.709,5.058,2.033-.522,3.252a13.313,13.313,0,0,1,2.539,2.487l3.241-.592,2.14,5.013-2.67,1.931a13.328,13.328,0,0,1,.039,3.554l2.71,1.873-2.033,5.058-3.252-.523a13.358,13.358,0,0,1-2.487,2.539l.592,3.241-5.014,2.139-1.931-2.67a13.346,13.346,0,0,1-3.553.039l-1.873,2.709-5.059-2.033.522-3.252a13.351,13.351,0,0,1-2.539-2.487l-3.241.592-2.14-5.013,2.67-1.932a13.374,13.374,0,0,1-.039-3.554l-2.71-1.873,2.033-5.059,3.252.523Zm5.424,5.634a5.848,5.848,0,1,0,7.607-3.247A5.848,5.848,0,0,0,236.325,359.288Z" transform="translate(-225.616 -345.655)" fill="none"/>
              </g>
            </g>
            <g id="Grupo_28077" data-name="Grupo 28077" transform="translate(10.314 9.993)">
              <g id="Grupo_28076" data-name="Grupo 28076">
                <g id="Grupo_28075" data-name="Grupo 28075">
                  <path id="Trazado_4075" data-name="Trazado 4075" d="M242.214,364.961a4.41,4.41,0,0,1,.649-1.3,5.818,5.818,0,0,1,3.2-2.272,5.9,5.9,0,0,1,2.749-.122,5.984,5.984,0,0,1,2.832,1.4,5.991,5.991,0,0,1,1.818,2.976,5.968,5.968,0,0,1-2.649,6.6,6,6,0,0,1-3.373.891,5.984,5.984,0,0,1-3.014-.949,5.9,5.9,0,0,1-1.9-1.99,5.826,5.826,0,0,1-.736-3.851,4.422,4.422,0,0,1,.427-1.384c.039.013-.183.488-.3,1.4a5.833,5.833,0,0,0,.81,3.711,5.709,5.709,0,0,0,4.72,2.752,5.706,5.706,0,0,0,3.189-.861,5.667,5.667,0,0,0,2.5-6.234,5.718,5.718,0,0,0-1.707-2.828,5.713,5.713,0,0,0-5.312-1.28,5.833,5.833,0,0,0-3.153,2.12C242.42,364.481,242.252,364.978,242.214,364.961Z" transform="translate(-241.715 -361.163)" fill="#263238"/>
                </g>
              </g>
            </g>
            <g id="Grupo_28080" data-name="Grupo 28080">
              <g id="Grupo_28079" data-name="Grupo 28079">
                <g id="Grupo_28078" data-name="Grupo 28078">
                  <path id="Trazado_4076" data-name="Trazado 4076" d="M230.841,353.563a1.209,1.209,0,0,1-.2-.021l-.618-.086-2.438-.363.058-.032-2,5.07-.03-.1,2.717,1.862.049.033-.007.06a13.328,13.328,0,0,0,.05,3.526l.009.066-.054.039-2.664,1.939.039-.143c.678,1.577,1.4,3.251,2.151,5.009l-.145-.079,3.24-.6.082-.015.052.066a13.284,13.284,0,0,0,2.517,2.456l.07.053-.014.086-.518,3.253-.091-.162,5.06,2.026-.186.056,1.87-2.711.055-.079.1.011a13.244,13.244,0,0,0,3.51-.041l.1-.014.058.08,1.933,2.669-.2-.055,5.013-2.142-.1.183-.593-3.241-.018-.1.08-.062a13.263,13.263,0,0,0,2.454-2.505l0,0,.062-.081.1.016,3.252.523-.182.1,2.034-5.059.06.2-2.709-1.874-.082-.056.012-.1a13.186,13.186,0,0,0-.036-3.51l-.014-.1.079-.058,2.671-1.929-.053.192-2.134-5.016.169.091-3.242.588-.09.016-.056-.072a13.229,13.229,0,0,0-2.507-2.463l-.07-.053.014-.087c.181-1.114.356-2.195.528-3.25l.086.152-5.055-2.043.154-.046-1.879,2.7-.042.06-.072-.009a13.306,13.306,0,0,0-3.523.029l-.067.01-.039-.054L237.67,345.7l.119.033-5.023,2.118.044-.082.571,3.245.006.032-.026.02a13.855,13.855,0,0,0-1.948,1.826l-.428.5a1.372,1.372,0,0,1-.143.166,1.712,1.712,0,0,1,.122-.183c.087-.118.218-.3.408-.523a12.944,12.944,0,0,1,1.924-1.875l-.02.053-.613-3.238-.011-.059.056-.024,5-2.161.072-.031.047.064,1.94,2.663-.105-.044a13.486,13.486,0,0,1,3.584-.049l-.113.051L245,345.491l.058-.084.1.038,5.062,2.022.1.041-.017.11c-.168,1.056-.34,2.137-.517,3.252l-.056-.139a13.492,13.492,0,0,1,2.57,2.511l-.145-.055,3.24-.6.122-.022.048.113q1.046,2.445,2.145,5.012l.05.117-.1.075-2.669,1.933.065-.155a13.509,13.509,0,0,1,.042,3.6l-.07-.155,2.71,1.872.109.075-.049.124-2.031,5.058-.049.124-.133-.021-3.252-.523.16-.065,0,0a13.547,13.547,0,0,1-2.517,2.567l.061-.162c.2,1.113.4,2.218.591,3.241l.024.131-.122.052-5.015,2.138-.121.051-.077-.107L243.386,375l.155.065a13.565,13.565,0,0,1-3.6.037l.15-.067-1.875,2.707-.071.1-.115-.047-5.056-2.038-.111-.045.019-.117c.183-1.132.364-2.243.527-3.251l.056.139a13.529,13.529,0,0,1-2.562-2.518l.134.051-3.243.585-.1.019-.041-.1-2.128-5.019-.037-.088.077-.056,2.675-1.923-.044.1a13.469,13.469,0,0,1-.027-3.581l.041.093-2.7-1.884-.056-.039.025-.063c.84-2.055,1.534-3.754,2.062-5.046l.016-.041.042.008,2.408.415.622.113A1.548,1.548,0,0,1,230.841,353.563Z" transform="translate(-225.452 -345.407)" fill="#263238"/>
                </g>
              </g>
            </g>
          </g>
          <g id="Grupo_28083" data-name="Grupo 28083">
            <g id="Grupo_28082" data-name="Grupo 28082">
              <path id="Trazado_4077" data-name="Trazado 4077" d="M209,235.87a33.275,33.275,0,0,1,4.137-7.832l-3.717-7.324,10.458-8.675,6.51,5.006a33.26,33.26,0,0,1,8.462-2.619l2.549-7.8,13.529,1.261,1.063,8.139a33.273,33.273,0,0,1,7.833,4.138l7.323-3.717,8.675,10.458-5.006,6.511a33.273,33.273,0,0,1,2.618,8.462l7.8,2.549-1.261,13.529-8.139,1.063a33.284,33.284,0,0,1-4.138,7.832l3.717,7.324-10.458,8.675-6.511-5.007a33.288,33.288,0,0,1-8.462,2.618l-2.55,7.8L229.908,287l-1.063-8.139a33.317,33.317,0,0,1-7.833-4.138l-7.323,3.717-8.675-10.458,5.006-6.511a33.281,33.281,0,0,1-2.618-8.462l-7.8-2.549,1.261-13.529L209,235.87Zm16.963,9.606a14.576,14.576,0,1,0,15.865-13.161A14.575,14.575,0,0,0,225.962,245.476Z" transform="translate(-199.598 -206.624)" fill="#e0e0e0" fill-rule="evenodd"/>
            </g>
          </g>
        </g>
      </g>
      <g id="Grupo_28089" data-name="Grupo 28089" transform="translate(10.46 158.312)">
        <g id="Grupo_28086" data-name="Grupo 28086" transform="translate(0 0.157)">
          <line id="Línea_93" data-name="Línea 93" x2="258.777" fill="#263238"/>
        </g>
        <g id="Grupo_28088" data-name="Grupo 28088" transform="translate(0)">
          <g id="Grupo_28087" data-name="Grupo 28087">
            <path id="Trazado_4078" data-name="Trazado 4078" d="M432.529,432.272c0,.087-57.933.157-129.382.157-71.473,0-129.395-.07-129.395-.157s57.921-.157,129.395-.157C374.6,432.115,432.529,432.185,432.529,432.272Z" transform="translate(-173.753 -432.115)" fill="#263238"/>
          </g>
        </g>
      </g>
    </g>
  </g>
  <g id="Character" transform="translate(61.435 0)">
    <g id="Grupo_28257" data-name="Grupo 28257" transform="translate(0 0)">
      <g id="Grupo_28167" data-name="Grupo 28167" transform="translate(44.013)">
        <g id="Grupo_28094" data-name="Grupo 28094" transform="translate(0 9.387)">
          <g id="Grupo_28091" data-name="Grupo 28091">
            <path id="Trazado_4079" data-name="Trazado 4079" d="M348.132,125.794c-3.99,1.751-6.313,6.052-7.184,10.322s-.585,8.684-.963,13.025-1.568,8.88-4.737,11.872c-2.953,2.788-7.3,3.923-9.818,7.111a8.945,8.945,0,0,0,5.1,14.277c-1.99,3.151-.994,7.552,1.552,10.274s6.286,4.02,9.971,4.58a27.1,27.1,0,0,0,18.869-3.71c5.475-3.607,9.306-9.872,9.293-16.429" transform="translate(-323.526 -125.794)" fill="#263238"/>
          </g>
          <g id="Grupo_28093" data-name="Grupo 28093" transform="translate(6.209 30.91)">
            <g id="Grupo_28092" data-name="Grupo 28092">
              <path id="Trazado_4080" data-name="Trazado 4080" d="M334.429,208.044a5.226,5.226,0,0,1-.7-1.413,8.5,8.5,0,0,1-.255-4.28,11.775,11.775,0,0,1,.915-2.843,15.739,15.739,0,0,1,1.832-2.893,52.939,52.939,0,0,1,5.487-5.552,57.532,57.532,0,0,0,5.334-5.646,26.381,26.381,0,0,0,3.413-5.316,18.63,18.63,0,0,0,1.386-4.027c.119-.491.153-.883.209-1.144a2.007,2.007,0,0,1,.087-.4,1.954,1.954,0,0,1-.024.407c-.036.264-.051.662-.152,1.16a17.309,17.309,0,0,1-1.3,4.1,25.7,25.7,0,0,1-3.389,5.4,55.126,55.126,0,0,1-5.344,5.693,55.278,55.278,0,0,0-5.476,5.5,15.755,15.755,0,0,0-1.824,2.826,11.75,11.75,0,0,0-.932,2.771,8.663,8.663,0,0,0,.153,4.2A14.786,14.786,0,0,0,334.429,208.044Z" transform="translate(-333.317 -174.531)" fill="#455a64"/>
            </g>
          </g>
        </g>
        <g id="Grupo_28100" data-name="Grupo 28100" transform="translate(52.326 23.713)">
          <g id="Grupo_28095" data-name="Grupo 28095">
            <path id="Trazado_4081" data-name="Trazado 4081" d="M426.012,148.382c0,5.861,2.7,11.233,5.136,13.208,3.44,2.794,8.488,4.145,11.813,5.074,4.845,1.354,8.906,5.6,9.511,10.589s-2.661,10.333-7.532,11.589c3.062,3.127,2.151,8.5-.37,12.08-4.777,6.78-14.31,9.386-22.215,6.879s-13.965-9.513-16.324-17.464" transform="translate(-406.032 -148.382)" fill="#263238"/>
          </g>
          <g id="Grupo_28097" data-name="Grupo 28097" transform="translate(16.634 16.418)">
            <g id="Grupo_28096" data-name="Grupo 28096">
              <path id="Trazado_4082" data-name="Trazado 4082" d="M447.659,215.578a5.223,5.223,0,0,0,1.863-.82,5.453,5.453,0,0,0,1.561-1.788,6.494,6.494,0,0,0,.835-3.017,7.388,7.388,0,0,0-.98-3.656,11.843,11.843,0,0,0-2.848-3.34c-2.4-2.024-5.667-3.288-8.824-5.1a17.275,17.275,0,0,1-4.191-3.291,10.05,10.05,0,0,1-1.465-2.089,9.2,9.2,0,0,1-.82-2.305,15.676,15.676,0,0,1-.205-4.486c.106-1.4.285-2.694.408-3.875a17.241,17.241,0,0,0-.088-5.584l-.23-.849c-.072-.244-.171-.438-.23-.6a3.439,3.439,0,0,1-.182-.5,3.384,3.384,0,0,1,.24.478c.069.161.177.353.259.6l.261.85a16.649,16.649,0,0,1,.19,5.634c-.11,1.187-.275,2.481-.369,3.872a15.576,15.576,0,0,0,.228,4.4,9.117,9.117,0,0,0,2.232,4.252,17.116,17.116,0,0,0,4.121,3.225c3.123,1.8,6.411,3.077,8.852,5.152a12.042,12.042,0,0,1,2.891,3.438,7.57,7.57,0,0,1,.974,3.788,6.625,6.625,0,0,1-.9,3.1,5.477,5.477,0,0,1-1.643,1.8,4.554,4.554,0,0,1-1.4.64A3.351,3.351,0,0,1,447.659,215.578Z" transform="translate(-432.259 -174.269)" fill="#455a64"/>
            </g>
          </g>
          <g id="Grupo_28099" data-name="Grupo 28099" transform="translate(17.792 7.981)">
            <g id="Grupo_28098" data-name="Grupo 28098">
              <path id="Trazado_4083" data-name="Trazado 4083" d="M459.744,191.156a3.138,3.138,0,0,0,.592-1.628,3.936,3.936,0,0,0-.453-1.976,4.951,4.951,0,0,0-1.8-1.985,8.765,8.765,0,0,0-3.116-1.052c-1.18-.205-2.468-.28-3.819-.49a20.51,20.51,0,0,1-8.2-3.245,20.16,20.16,0,0,1-6.061-6.411A20.4,20.4,0,0,1,434.4,167.6a19.48,19.48,0,0,1-.259-4.861c.044-.575.1-1.017.152-1.316a2.531,2.531,0,0,1,.088-.453c.037,0-.072.632-.118,1.776a20.851,20.851,0,0,0,2.875,11.48,20.115,20.115,0,0,0,5.988,6.3,20.473,20.473,0,0,0,8.073,3.219c1.329.215,2.622.3,3.818.519a8.91,8.91,0,0,1,3.19,1.12,5.09,5.09,0,0,1,1.838,2.1,4,4,0,0,1,.417,2.062,2.828,2.828,0,0,1-.418,1.263,3.377,3.377,0,0,1-.214.273C459.776,191.131,459.749,191.16,459.744,191.156Z" transform="translate(-434.086 -160.966)" fill="#455a64"/>
            </g>
          </g>
        </g>
        <g id="Grupo_28135" data-name="Grupo 28135" transform="translate(16.336 2.739)">
          <g id="Grupo_28134" data-name="Grupo 28134">
            <g id="Grupo_28132" data-name="Grupo 28132" transform="translate(0.597 5.611)">
              <g id="Grupo_28131" data-name="Grupo 28131">
                <g id="Grupo_28125" data-name="Grupo 28125">
                  <g id="Grupo_28102" data-name="Grupo 28102">
                    <g id="Grupo_28101" data-name="Grupo 28101">
                      <path id="Trazado_4084" data-name="Trazado 4084" d="M360.744,208.227c.835-8.758,1.553-17.993,1.553-17.993s-11.095-2.983-11.983-17.928c-.847-14.254,4.655-46.435,4.655-46.435h0a42.5,42.5,0,0,1,45.98,15.409h0L393,212.3c-.923,8.245-8.748,14.017-17.568,12.961h0C366.519,224.194,359.949,216.57,360.744,208.227Z" transform="translate(-350.225 -124.159)" fill="#b78876"/>
                    </g>
                  </g>
                  <g id="Grupo_28108" data-name="Grupo 28108" transform="translate(3.552 23.376)">
                    <g id="Grupo_28104" data-name="Grupo 28104" transform="translate(2.858 2.526)">
                      <g id="Grupo_28103" data-name="Grupo 28103">
                        <path id="Trazado_4085" data-name="Trazado 4085" d="M360.349,166.533a1.9,1.9,0,0,0,1.632,2.083,1.814,1.814,0,0,0,2.113-1.51,1.9,1.9,0,0,0-1.631-2.084A1.816,1.816,0,0,0,360.349,166.533Z" transform="translate(-360.333 -165)" fill="#263238"/>
                      </g>
                    </g>
                    <g id="Grupo_28107" data-name="Grupo 28107">
                      <g id="Grupo_28106" data-name="Grupo 28106">
                        <g id="Grupo_28105" data-name="Grupo 28105">
                          <path id="Trazado_4086" data-name="Trazado 4086" d="M355.849,162.663c.209.269,1.743-.648,3.774-.443,2.031.176,3.418,1.367,3.663,1.14.119-.1-.075-.566-.678-1.1a5.2,5.2,0,0,0-2.9-1.218,5,5,0,0,0-3.034.66C356,162.117,355.744,162.541,355.849,162.663Z" transform="translate(-355.826 -161.017)" fill="#263238"/>
                        </g>
                      </g>
                    </g>
                  </g>
                  <g id="Grupo_28114" data-name="Grupo 28114" transform="translate(24.67 26.199)">
                    <g id="Grupo_28110" data-name="Grupo 28110" transform="translate(2.496 2.107)">
                      <g id="Grupo_28109" data-name="Grupo 28109">
                        <path id="Trazado_4087" data-name="Trazado 4087" d="M393.075,170.325a1.9,1.9,0,0,0,1.632,2.083,1.813,1.813,0,0,0,2.113-1.51,1.9,1.9,0,0,0-1.631-2.085A1.815,1.815,0,0,0,393.075,170.325Z" transform="translate(-393.059 -168.791)" fill="#263238"/>
                      </g>
                    </g>
                    <g id="Grupo_28113" data-name="Grupo 28113">
                      <g id="Grupo_28112" data-name="Grupo 28112">
                        <g id="Grupo_28111" data-name="Grupo 28111">
                          <path id="Trazado_4088" data-name="Trazado 4088" d="M389.146,167.114c.211.27,1.746-.648,3.775-.443,2.031.176,3.418,1.367,3.664,1.14.119-.1-.074-.566-.679-1.1a5.2,5.2,0,0,0-2.9-1.217,5,5,0,0,0-3.035.66C389.3,166.568,389.043,166.993,389.146,167.114Z" transform="translate(-389.124 -165.468)" fill="#263238"/>
                        </g>
                      </g>
                    </g>
                  </g>
                  <g id="Grupo_28117" data-name="Grupo 28117" transform="translate(10.802 25.35)">
                    <g id="Grupo_28116" data-name="Grupo 28116">
                      <g id="Grupo_28115" data-name="Grupo 28115">
                        <path id="Trazado_4089" data-name="Trazado 4089" d="M372.295,180.96a13.536,13.536,0,0,0-3.24-.92c-.513-.1-.994-.256-1.047-.618a2.656,2.656,0,0,1,.5-1.5q.916-1.81,1.922-3.8c2.683-5.413,4.679-9.884,4.46-9.99s-2.571,4.195-5.254,9.608q-.973,2-1.86,3.827a3.02,3.02,0,0,0-.469,2.009,1.31,1.31,0,0,0,.778.842,3.552,3.552,0,0,0,.869.209A13.272,13.272,0,0,0,372.295,180.96Z" transform="translate(-367.257 -164.129)" fill="#263238"/>
                      </g>
                    </g>
                  </g>
                  <g id="Grupo_28119" data-name="Grupo 28119" transform="translate(11.929 62.757)">
                    <g id="Grupo_28118" data-name="Grupo 28118">
                      <path id="Trazado_4090" data-name="Trazado 4090" d="M369.177,226.429a37.621,37.621,0,0,0,20.226-3.318s-5.776,9.639-20.369,6.812Z" transform="translate(-369.034 -223.111)" fill="#aa6550"/>
                    </g>
                  </g>
                  <g id="Grupo_28121" data-name="Grupo 28121" transform="translate(15.97 46.045)">
                    <g id="Grupo_28120" data-name="Grupo 28120">
                      <path id="Trazado_4091" data-name="Trazado 4091" d="M375.654,197.875a3.675,3.675,0,0,1,3.414-1.036,3.358,3.358,0,0,1,2.186,1.464,2.127,2.127,0,0,1-.077,2.437,2.467,2.467,0,0,1-2.728.411,7.731,7.731,0,0,1-2.444-1.8,2.259,2.259,0,0,1-.521-.658.683.683,0,0,1,.077-.756" transform="translate(-375.406 -196.76)" fill="#aa6550"/>
                    </g>
                  </g>
                  <g id="Grupo_28124" data-name="Grupo 28124" transform="translate(14.674 44.173)">
                    <g id="Grupo_28123" data-name="Grupo 28123">
                      <g id="Grupo_28122" data-name="Grupo 28122">
                        <path id="Trazado_4092" data-name="Trazado 4092" d="M380.367,193.81c-.328-.052-.55,2.153-2.59,3.531s-4.364.906-4.412,1.212c-.044.135.481.479,1.471.6a5.513,5.513,0,0,0,3.67-.887,4.8,4.8,0,0,0,2.031-2.975C380.712,194.382,380.519,193.811,380.367,193.81Z" transform="translate(-373.363 -193.809)" fill="#263238"/>
                      </g>
                    </g>
                  </g>
                </g>
                <g id="Grupo_28127" data-name="Grupo 28127" transform="translate(41.822 32.775)">
                  <g id="Grupo_28126" data-name="Grupo 28126">
                    <path id="Trazado_4093" data-name="Trazado 4093" d="M418.067,175.883a8.818,8.818,0,0,1,4.707.769,6.156,6.156,0,0,1,3.158,3.488,6.431,6.431,0,0,1-.422,4.708,10.888,10.888,0,0,1-3.07,3.694,7.377,7.377,0,0,1-3.044,1.615,3.523,3.523,0,0,1-3.227-.831" transform="translate(-416.168 -175.837)" fill="#b78876"/>
                  </g>
                </g>
                <g id="Grupo_28130" data-name="Grupo 28130" transform="translate(43.618 35.066)">
                  <g id="Grupo_28129" data-name="Grupo 28129">
                    <g id="Grupo_28128" data-name="Grupo 28128">
                      <path id="Trazado_4094" data-name="Trazado 4094" d="M419.034,186.83c-.186.041.4,1.06,1.882.814a3.112,3.112,0,0,0,1.931-1.377,7.036,7.036,0,0,0,1.04-2.534,4.13,4.13,0,0,0-.393-2.836,2.749,2.749,0,0,0-1.948-1.424c-1.476-.179-2.036.8-1.872.848.107.131.732-.341,1.679-.012a2.667,2.667,0,0,1,1.341,3.2c-.335,1.6-1.1,3.023-2,3.307C419.753,187.184,419.146,186.709,419.034,186.83Z" transform="translate(-419.001 -179.45)" fill="#aa6550"/>
                    </g>
                  </g>
                </g>
              </g>
            </g>
            <g id="Grupo_28133" data-name="Grupo 28133">
              <path id="Trazado_4095" data-name="Trazado 4095" d="M361.737,128.928a18.028,18.028,0,0,1-12.144,10.227,43.886,43.886,0,0,1,.067-10.911,17.254,17.254,0,0,1,4.684-9.68,10.842,10.842,0,0,1,10.038-2.953" transform="translate(-349.283 -115.311)" fill="#263238"/>
            </g>
          </g>
        </g>
        <g id="Grupo_28136" data-name="Grupo 28136" transform="translate(28.815)">
          <path id="Trazado_4096" data-name="Trazado 4096" d="M369.949,120.673a14.474,14.474,0,0,0,14.962,19.742,6.22,6.22,0,0,1,2.882.055,5.123,5.123,0,0,1,2.18,2.145c2.346,3.505,4.824,7.149,8.521,9.179s8.99,1.831,11.461-1.587a12.638,12.638,0,0,0,1.835-5.806c.937-6.832,1.321-14.166-1.934-20.245a23.145,23.145,0,0,0-11.37-9.912,44.308,44.308,0,0,0-14.962-3.16c-2.973-.182-6.049-.186-8.805.941s-5.137,3.629-5.293,6.6" transform="translate(-368.961 -110.993)" fill="#263238"/>
        </g>
        <g id="Grupo_28138" data-name="Grupo 28138" transform="translate(32.225 3.131)">
          <g id="Grupo_28137" data-name="Grupo 28137">
            <path id="Trazado_4097" data-name="Trazado 4097" d="M413.1,148.138a3.308,3.308,0,0,1-.18-.5c-.1-.334-.27-.818-.5-1.439a26.682,26.682,0,0,0-2.5-4.986,26.01,26.01,0,0,0-5.5-6.137,35.83,35.83,0,0,0-8.807-4.959c-3.327-1.393-6.58-2.543-9.426-3.875a32.948,32.948,0,0,1-7.108-4.341,18.587,18.587,0,0,1-3.77-4.158,13,13,0,0,1-.755-1.33,3.437,3.437,0,0,1-.223-.483,3.4,3.4,0,0,1,.278.453c.162.308.436.742.8,1.292a19.358,19.358,0,0,0,3.808,4.054,33.63,33.63,0,0,0,7.089,4.25c2.836,1.31,6.087,2.45,9.426,3.848a35.515,35.515,0,0,1,8.868,5.024,25.734,25.734,0,0,1,5.505,6.243,25.041,25.041,0,0,1,2.429,5.064c.21.63.362,1.122.443,1.462A3.459,3.459,0,0,1,413.1,148.138Z" transform="translate(-374.337 -115.93)" fill="#455a64"/>
          </g>
        </g>
        <g id="Grupo_28140" data-name="Grupo 28140" transform="translate(32.225 3.505)">
          <g id="Grupo_28139" data-name="Grupo 28139">
            <path id="Trazado_4098" data-name="Trazado 4098" d="M408.529,147.544a2.827,2.827,0,0,1-.25-.417,13.019,13.019,0,0,0-.755-1.164,15.52,15.52,0,0,0-3.652-3.525,35.579,35.579,0,0,0-6.7-3.515c-1.312-.567-2.7-1.149-4.111-1.82s-2.843-1.424-4.264-2.276a37.37,37.37,0,0,1-7.386-5.7,28.481,28.481,0,0,1-4.612-6.061,23.5,23.5,0,0,1-2.029-4.718c-.166-.584-.287-1.039-.348-1.353a2.739,2.739,0,0,1-.086-.479,2.85,2.85,0,0,1,.148.464c.079.308.22.756.4,1.331A25.187,25.187,0,0,0,377,122.96a29.027,29.027,0,0,0,4.623,5.967,37.956,37.956,0,0,0,7.342,5.631c1.412.845,2.837,1.593,4.236,2.267s2.782,1.256,4.094,1.832a34.626,34.626,0,0,1,6.711,3.6,14.94,14.94,0,0,1,3.622,3.635,10.205,10.205,0,0,1,.711,1.205A2.8,2.8,0,0,1,408.529,147.544Z" transform="translate(-374.337 -116.52)" fill="#455a64"/>
          </g>
        </g>
        <g id="Grupo_28142" data-name="Grupo 28142" transform="translate(15.552 2.81)">
          <g id="Grupo_28141" data-name="Grupo 28141">
            <path id="Trazado_4099" data-name="Trazado 4099" d="M349.192,145.037a1.6,1.6,0,0,1-.143-.339c-.081-.226-.209-.56-.348-1a17.44,17.44,0,0,1-.635-3.829,18.366,18.366,0,0,1,3.8-12.016,16.841,16.841,0,0,1,2.55-2.633,32.593,32.593,0,0,1,2.768-1.982,29.139,29.139,0,0,0,4.579-3.4A10.2,10.2,0,0,0,364,116.75c.368-.83.451-1.335.484-1.326a1.62,1.62,0,0,1-.056.365,6.724,6.724,0,0,1-.316,1.01,9.8,9.8,0,0,1-2.2,3.2,27.937,27.937,0,0,1-4.575,3.489,33.241,33.241,0,0,0-2.732,1.978,16.764,16.764,0,0,0-2.5,2.589A18.018,18.018,0,0,0,349,134.231a18.368,18.368,0,0,0-.708,5.632,19.168,19.168,0,0,0,.532,3.806c.118.412.214.746.289,1.009A1.611,1.611,0,0,1,349.192,145.037Z" transform="translate(-348.048 -115.424)" fill="#455a64"/>
          </g>
        </g>
        <g id="Grupo_28166" data-name="Grupo 28166" transform="translate(31.433 2.875)">
          <g id="Grupo_28145" data-name="Grupo 28145" transform="translate(10.862 39.948)">
            <g id="Grupo_28143" data-name="Grupo 28143" transform="translate(1.326)">
              <path id="Trazado_4100" data-name="Trazado 4100" d="M401.727,197.462a14.138,14.138,0,0,1-9.423-3.456l.4-.448a13.36,13.36,0,0,0,21.368-14.822l.561-.221A14.459,14.459,0,0,1,409.6,195.1,13.838,13.838,0,0,1,401.727,197.462Z" transform="translate(-392.304 -178.515)" fill="#e8505b"/>
            </g>
            <g id="Grupo_28144" data-name="Grupo 28144" transform="translate(0 13.444)">
              <path id="Trazado_4101" data-name="Trazado 4101" d="M396.058,202.635a2.922,2.922,0,1,1-2.922-2.922A2.922,2.922,0,0,1,396.058,202.635Z" transform="translate(-390.214 -199.713)" fill="#e8505b"/>
            </g>
          </g>
          <g id="Grupo_28146" data-name="Grupo 28146" transform="translate(25.318 30.555)">
            <ellipse id="Elipse_271" data-name="Elipse 271" cx="9.786" cy="9.786" rx="9.786" ry="9.786" transform="translate(0 19.427) rotate(-83.008)" fill="#e8505b"/>
          </g>
          <g id="Grupo_28148" data-name="Grupo 28148">
            <g id="Grupo_28147" data-name="Grupo 28147">
              <path id="Trazado_4102" data-name="Trazado 4102" d="M407.727,155.625a12.543,12.543,0,0,1,.057-2.482c.032-.8.07-1.775.114-2.9.011-1.13.048-2.415,0-3.834,0-.71-.049-1.452-.091-2.224-.027-.774-.117-1.573-.193-2.4s-.221-1.677-.33-2.555q-.122-.653-.247-1.322c-.077-.448-.172-.9-.291-1.349a25.879,25.879,0,0,0-5.123-10.791,23.8,23.8,0,0,0-9.756-6.837,42.842,42.842,0,0,0-9.605-2.415c-2.811-.392-5.113-.511-6.7-.623a12.771,12.771,0,0,1-2.474-.2,12.292,12.292,0,0,1,2.482-.164,59.977,59.977,0,0,1,6.776.328,40.652,40.652,0,0,1,9.838,2.267,24.149,24.149,0,0,1,10.166,7.043,26.115,26.115,0,0,1,5.245,11.2c.116.464.207.926.28,1.385s.155.909.231,1.355c.1.9.242,1.762.289,2.607s.133,1.657.141,2.441c.024.784.052,1.535.031,2.253,0,1.435-.082,2.73-.143,3.866-.094,1.134-.184,2.109-.275,2.9A12.522,12.522,0,0,1,407.727,155.625Z" transform="translate(-373.088 -115.526)" fill="#e8505b"/>
            </g>
          </g>
          <g id="Grupo_28149" data-name="Grupo 28149" transform="translate(29.755 34.724)" opacity="0.4">
            <path id="Trazado_4103" data-name="Trazado 4103" d="M433.476,177.014a6.736,6.736,0,1,1-6.736-6.736A6.736,6.736,0,0,1,433.476,177.014Z" transform="translate(-420.004 -170.278)"/>
          </g>
          <g id="Grupo_28151" data-name="Grupo 28151" transform="translate(31.474 34.667)">
            <g id="Grupo_28150" data-name="Grupo 28150">
              <path id="Trazado_4104" data-name="Trazado 4104" d="M425.516,170.7a1.339,1.339,0,0,1,.3-.157,4.528,4.528,0,0,1,.934-.277,5.314,5.314,0,0,1,3.494.6,4.715,4.715,0,0,1,1.795,1.721,5.207,5.207,0,0,1,.72,2.763,5.092,5.092,0,0,1-7.209,4.509,4.977,4.977,0,0,1-2.245-2.214,5.216,5.216,0,0,1-.575-2.8,5.291,5.291,0,0,1,.831-2.345,4.9,4.9,0,0,1,2.79-2.172,3.15,3.15,0,0,1,.969-.11,1.364,1.364,0,0,1,.337.048,4.8,4.8,0,0,0-1.272.18,4.88,4.88,0,0,0-2.635,2.173,5.109,5.109,0,0,0-.76,2.248,4.983,4.983,0,0,0,.572,2.643,4.708,4.708,0,0,0,2.12,2.069,4.738,4.738,0,0,0,6.788-4.236,4.981,4.981,0,0,0-.655-2.624,4.53,4.53,0,0,0-1.68-1.661,5.325,5.325,0,0,0-3.365-.67A9.476,9.476,0,0,0,425.516,170.7Z" transform="translate(-422.715 -170.188)" fill="#263238"/>
            </g>
          </g>
          <g id="Grupo_28153" data-name="Grupo 28153" transform="translate(36.117 44.897)">
            <g id="Grupo_28152" data-name="Grupo 28152">
              <path id="Trazado_4105" data-name="Trazado 4105" d="M430.351,189.516a5.415,5.415,0,0,1-.132-3.2,5.753,5.753,0,0,1,.139,1.6A5.689,5.689,0,0,1,430.351,189.516Z" transform="translate(-430.036 -186.318)" fill="#263238"/>
            </g>
          </g>
          <g id="Grupo_28155" data-name="Grupo 28155" transform="translate(39.023 43.947)">
            <g id="Grupo_28154" data-name="Grupo 28154">
              <path id="Trazado_4106" data-name="Trazado 4106" d="M435.743,187.659a7.458,7.458,0,0,1-1.106-2.839,7.458,7.458,0,0,1,1.106,2.839Z" transform="translate(-434.617 -184.819)" fill="#263238"/>
            </g>
          </g>
          <g id="Grupo_28157" data-name="Grupo 28157" transform="translate(40.795 42.167)">
            <g id="Grupo_28156" data-name="Grupo 28156">
              <path id="Trazado_4107" data-name="Trazado 4107" d="M439.269,183.7c-.058.064-.52-.261-1.031-.725s-.878-.894-.819-.958.519.26,1.031.725S439.327,183.639,439.269,183.7Z" transform="translate(-437.412 -182.013)" fill="#263238"/>
            </g>
          </g>
          <g id="Grupo_28159" data-name="Grupo 28159" transform="translate(41.439 39.226)">
            <g id="Grupo_28158" data-name="Grupo 28158">
              <path id="Trazado_4108" data-name="Trazado 4108" d="M439.818,177.918c-.03.082-.365.035-.748-.1s-.671-.317-.641-.4.364-.036.748.1S439.847,177.836,439.818,177.918Z" transform="translate(-438.427 -177.376)" fill="#263238"/>
            </g>
          </g>
          <g id="Grupo_28161" data-name="Grupo 28161" transform="translate(32.014 43.721)">
            <g id="Grupo_28160" data-name="Grupo 28160">
              <path id="Trazado_4109" data-name="Trazado 4109" d="M423.585,187.327a5.22,5.22,0,0,1,1.466-2.86,21.305,21.305,0,0,1-1.466,2.86Z" transform="translate(-423.566 -184.463)" fill="#263238"/>
            </g>
          </g>
          <g id="Grupo_28163" data-name="Grupo 28163" transform="translate(30.018 41.251)">
            <g id="Grupo_28162" data-name="Grupo 28162">
              <path id="Trazado_4110" data-name="Trazado 4110" d="M420.425,182.47c-.06-.061.323-.536.856-1.059s1.015-.9,1.076-.835-.322.536-.856,1.06S420.486,182.533,420.425,182.47Z" transform="translate(-420.419 -180.569)" fill="#263238"/>
            </g>
          </g>
          <g id="Grupo_28165" data-name="Grupo 28165" transform="translate(30.293 38.43)">
            <g id="Grupo_28164" data-name="Grupo 28164">
              <path id="Trazado_4111" data-name="Trazado 4111" d="M422.156,176.178c.023.084-.251.229-.61.325s-.668.1-.691.021.251-.23.611-.325S422.134,176.094,422.156,176.178Z" transform="translate(-420.853 -176.121)" fill="#263238"/>
            </g>
          </g>
        </g>
      </g>
      <g id="Grupo_28173" data-name="Grupo 28173" transform="translate(128.578 59.177)">
        <g id="Grupo_28168" data-name="Grupo 28168" transform="translate(17.479)">
          <path id="Trazado_4112" data-name="Trazado 4112" d="M496.6,240.023a11.631,11.631,0,0,0-3.079-6.55,18.059,18.059,0,0,0-3.1-2.666,18.87,18.87,0,0,0-4.595-2.208c-1.53-.331-1.9-2.321-.621-2.887s5.518.244,9.593,3.24,2.014-4.595,1.313-7.373-2.466-11.467-1.778-12.337c1.009-1.275,2.6-.408,3.237,2.381.644,2.824,3.134,11.036,4.591,10.633,1.435-.4-2.329-14.5-2.329-14.5s-1.294-2.9.372-3.417c3.006-.94,5.9,14.315,6.137,15.773.166,1.014,1.766.633,1.529-.447-.244-1.112-4.083-13.988-1.033-14.973,2.341-.757,2.5,12.529,4.783,14.8s-1.153-10.088,1.116-10.72c.844-.235,1.51-.293,2.456,7.06.508,3.952.178,9.4,1.72,16.942" transform="translate(-484.425 -204.3)" fill="#b78876"/>
        </g>
        <g id="Grupo_28172" data-name="Grupo 28172" transform="translate(0 24.475)">
          <g id="Grupo_28169" data-name="Grupo 28169" transform="translate(0 0.381)">
            <path id="Trazado_4113" data-name="Trazado 4113" d="M478.914,282.723l13.863,19.9-6.658-51.31,19.82-7.815s25.013,95.889-8.535,97.238c0,0-23.213-.636-40.539-40.824Z" transform="translate(-456.865 -243.493)" fill="#b78876"/>
          </g>
          <g id="Grupo_28171" data-name="Grupo 28171" transform="translate(34.103)">
            <g id="Grupo_28170" data-name="Grupo 28170">
              <path id="Trazado_4114" data-name="Trazado 4114" d="M520.818,242.9c.036.051-.434.363-1.043,1.046a7,7,0,0,0-1.625,3.2l-.078.375-.276-.275a8.49,8.49,0,0,0-1.024-.9,8.758,8.758,0,0,0-4.214-1.634c-1.173-.126-1.91,0-1.92-.07a4.283,4.283,0,0,1,1.944-.229,8.148,8.148,0,0,1,5.516,2.547l-.353.1a6.6,6.6,0,0,1,1.837-3.3A3.217,3.217,0,0,1,520.818,242.9Z" transform="translate(-510.638 -242.892)" fill="#aa6550"/>
            </g>
          </g>
        </g>
      </g>
      <g id="Grupo_28256" data-name="Grupo 28256" transform="translate(0 83.652)">
        <g id="Grupo_28176" data-name="Grupo 28176" transform="translate(0 3.018)">
          <g id="Grupo_28175" data-name="Grupo 28175">
            <g id="Grupo_28174" data-name="Grupo 28174">
              <path id="Trazado_4115" data-name="Trazado 4115" d="M394.8,325.725,378.02,304.444l-4.36,21.766a45.088,45.088,0,0,0,2.613,26.254l2.165,5.177h-77.68l1.942-6.915c1.1-8.473-.371-17.32-.115-29.455l-2.159-13.681-11.751,50.051H254.128s18.964-77.684,30.842-93.055c14.976-19.38,41.141-16.823,41.141-16.823l16.032,25.127L357.8,250.234s26.9-5.719,47.907,30.444l11.239,19.264h0l-5.218-39.655,24.323-5.615s8.784,38.962,8.207,59.824c-.516,18.634-8.446,28.41-19.437,29.372C407.539,345.378,394.8,325.725,394.8,325.725Z" transform="translate(-254.128 -247.651)" fill="#e8505b"/>
            </g>
          </g>
        </g>
        <g id="Grupo_28177" data-name="Grupo 28177" transform="translate(65.89)">
          <path id="Trazado_4116" data-name="Trazado 4116" d="M364.113,246.022l.274-3.13s11.874,2.639,15.855,23.371c0,0,3.995-19.133,16.784-21.061l2.157,5.512-7.853,20.444-13.792,4.032-13.417-4.032-6.1-12.117Z" transform="translate(-358.02 -242.892)" fill="#e8505b"/>
        </g>
        <g id="Grupo_28179" data-name="Grupo 28179" transform="translate(38.885 11.375)">
          <g id="Grupo_28178" data-name="Grupo 28178">
            <path id="Trazado_4117" data-name="Trazado 4117" d="M315.449,260.827a3.5,3.5,0,0,1,.06.537q.041.57.112,1.542c.086,1.34.226,3.278.419,5.67.382,4.785,1.039,11.387,2.073,18.638s2.26,13.774,3.234,18.475c.486,2.35.895,4.25,1.188,5.56l.325,1.512a3.414,3.414,0,0,1,.093.532,3.506,3.506,0,0,1-.154-.518q-.141-.554-.382-1.5c-.33-1.3-.772-3.2-1.286-5.542-1.031-4.692-2.286-11.215-3.328-18.476s-1.658-13.872-1.984-18.665c-.164-2.4-.27-4.338-.319-5.68q-.033-.975-.053-1.546A3.528,3.528,0,0,1,315.449,260.827Z" transform="translate(-315.44 -260.827)" fill="#263238"/>
          </g>
        </g>
        <g id="Grupo_28181" data-name="Grupo 28181" transform="translate(88.029 4.862)">
          <g id="Grupo_28180" data-name="Grupo 28180">
            <path id="Trazado_4118" data-name="Trazado 4118" d="M411.658,250.558a1.407,1.407,0,0,1-.169.3l-.534.824-1.979,3.02c-1.66,2.556-3.9,6.12-6.235,10.143-.093.158-.184.317-.269.464l-.151.26-.127-.271a9.279,9.279,0,0,0-1.707-2.744,3.093,3.093,0,0,0-2.643-.989,3.616,3.616,0,0,0-2.18,1.43,6.657,6.657,0,0,0-1.088,2.091c-.448,1.391-.71,2.565-1.041,3.325a6.987,6.987,0,0,1-.415.856,1.37,1.37,0,0,1-.189.272c-.025-.014.218-.4.492-1.17.293-.765.517-1.929.945-3.351a6.783,6.783,0,0,1,1.093-2.18,3.858,3.858,0,0,1,2.337-1.556,3.378,3.378,0,0,1,2.9,1.053,9.464,9.464,0,0,1,1.777,2.829l-.278-.011c.086-.146.177-.305.269-.464,2.334-4.03,4.612-7.581,6.322-10.107.854-1.264,1.563-2.276,2.063-2.967l.583-.791A1.392,1.392,0,0,1,411.658,250.558Z" transform="translate(-392.928 -250.558)" fill="#263238"/>
          </g>
        </g>
        <g id="Grupo_28183" data-name="Grupo 28183" transform="translate(80.046 15.004)">
          <g id="Grupo_28182" data-name="Grupo 28182">
            <path id="Trazado_4119" data-name="Trazado 4119" d="M395.747,268.148a1.084,1.084,0,0,1-.129.268l-.419.735-1.594,2.673-2.4,3.943-1.425,2.323-.765,1.233a1.1,1.1,0,0,1-.3.3.58.58,0,0,1-.483.066,1.221,1.221,0,0,1-.6-.577c-2.231-3.352-3.89-6.589-5.192-8.868-.642-1.145-1.17-2.068-1.542-2.7a8.638,8.638,0,0,1-.555-1,1.053,1.053,0,0,1,.185.232c.111.159.276.392.475.7.4.615.962,1.521,1.63,2.654,1.352,2.253,3.044,5.475,5.259,8.8.139.218.265.4.436.453.154.056.305-.061.436-.25l.759-1.214,1.44-2.314,2.455-3.908,1.678-2.621.47-.7A1.052,1.052,0,0,1,395.747,268.148Z" transform="translate(-380.341 -266.549)" fill="#263238"/>
          </g>
        </g>
        <g id="Grupo_28185" data-name="Grupo 28185" transform="translate(124.088 18.441)">
          <g id="Grupo_28184" data-name="Grupo 28184">
            <path id="Trazado_4120" data-name="Trazado 4120" d="M464.158,271.969a2.428,2.428,0,0,1-.18.414c-.144.293-.334.678-.571,1.16-.507,1-1.218,2.461-2.068,4.277s-1.818,4-2.833,6.448-2.046,5.176-3.046,8.067-1.841,5.684-2.562,8.235c-.706,2.555-1.291,4.871-1.733,6.827s-.785,3.543-1,4.644q-.164.788-.263,1.265a2.539,2.539,0,0,1-.113.438,2.437,2.437,0,0,1,.05-.449q.078-.482.205-1.277c.179-1.109.485-2.7.9-4.669s.979-4.291,1.671-6.857c.707-2.56,1.551-5.358,2.544-8.26s2.058-5.622,3.076-8.075,2.019-4.628,2.9-6.433,1.618-3.254,2.16-4.238l.624-1.133A2.411,2.411,0,0,1,464.158,271.969Z" transform="translate(-449.784 -271.969)" fill="#263238"/>
          </g>
        </g>
        <g id="Grupo_28187" data-name="Grupo 28187" transform="translate(57.498 83.742)">
          <g id="Grupo_28186" data-name="Grupo 28186">
            <path id="Trazado_4121" data-name="Trazado 4121" d="M390.219,388.444a2.828,2.828,0,0,1-.485-.017l-1.387-.109c-.6-.048-1.338-.115-2.19-.221s-1.825-.2-2.893-.368c-2.141-.292-4.677-.732-7.475-1.313-2.794-.6-5.847-1.351-9.011-2.284s-6.128-1.987-8.8-3.011c-2.661-1.043-5.026-2.06-6.979-2.985-.985-.444-1.854-.893-2.623-1.273s-1.424-.722-1.955-1.012l-1.221-.666a2.808,2.808,0,0,1-.416-.251,2.766,2.766,0,0,1,.445.2l1.247.613c.538.272,1.2.6,1.976.962s1.65.8,2.639,1.229c1.961.9,4.33,1.891,6.99,2.917,2.668,1.007,5.631,2.035,8.783,2.98,3.155.93,6.2,1.688,8.981,2.3,2.788.594,5.315,1.057,7.448,1.376,1.064.181,2.033.294,2.882.413s1.581.208,2.181.274l1.38.168A2.821,2.821,0,0,1,390.219,388.444Z" transform="translate(-344.788 -374.934)" fill="#263238"/>
          </g>
        </g>
        <g id="Grupo_28189" data-name="Grupo 28189" transform="translate(67.246 98.607)">
          <g id="Grupo_28188" data-name="Grupo 28188">
            <path id="Trazado_4122" data-name="Trazado 4122" d="M392.406,398.376a1.3,1.3,0,0,1-.32.082l-.927.176c-.806.149-1.977.334-3.429.533-2.9.4-6.936.811-11.406.968s-8.524.025-11.448-.174c-1.462-.1-2.643-.2-3.457-.294l-.937-.111a.166.166,0,1,1,.006-.063l.941.052c.816.055,2,.124,3.459.194,2.922.142,6.964.235,11.425.082s8.485-.53,11.389-.875c1.452-.171,2.627-.322,3.437-.434l.935-.117A1.293,1.293,0,0,1,392.406,398.376Z" transform="translate(-360.159 -398.371)" fill="#263238"/>
          </g>
        </g>
        <g id="Grupo_28191" data-name="Grupo 28191" transform="translate(126.981 20.035)">
          <g id="Grupo_28190" data-name="Grupo 28190">
            <path id="Trazado_4123" data-name="Trazado 4123" d="M454.349,318.179a2.5,2.5,0,0,1,.091-.456l.322-1.292c.293-1.153.7-2.766,1.206-4.746,1.019-4.006,2.372-9.557,4.035-15.647.839-3.044,1.7-5.928,2.528-8.535s1.655-4.931,2.4-6.861c.356-.972.722-1.833,1.031-2.6s.589-1.412.829-1.938q.345-.757.552-1.213a2.619,2.619,0,0,1,.212-.414,2.554,2.554,0,0,1-.154.439l-.5,1.235c-.223.533-.49,1.188-.778,1.956s-.643,1.633-.986,2.608c-.72,1.936-1.506,4.268-2.335,6.87s-1.662,5.49-2.5,8.531c-1.662,6.083-3.049,11.625-4.123,15.619-.535,2-.978,3.612-1.3,4.722q-.236.8-.379,1.277A2.649,2.649,0,0,1,454.349,318.179Z" transform="translate(-454.347 -274.483)" fill="#263238"/>
          </g>
        </g>
        <g id="Grupo_28193" data-name="Grupo 28193" transform="translate(35.158 15.004)">
          <g id="Grupo_28192" data-name="Grupo 28192">
            <path id="Trazado_4124" data-name="Trazado 4124" d="M320.3,314.237a3.055,3.055,0,0,1-.33-.383c-.2-.263-.528-.63-.885-1.148a33.432,33.432,0,0,1-2.77-4.555,43.743,43.743,0,0,1-2.907-7.354,64.547,64.547,0,0,1-2.021-9.468c-.925-6.816-1.077-13.039-1.356-17.521-.126-2.244-.244-4.058-.338-5.311q-.067-.906-.105-1.444a3.064,3.064,0,0,1-.017-.5,3.035,3.035,0,0,1,.08.5c.04.329.1.813.164,1.438.132,1.251.284,3.064.438,5.308.336,4.482.523,10.7,1.445,17.491a66.547,66.547,0,0,0,1.988,9.429,45.281,45.281,0,0,0,2.829,7.337,36.812,36.812,0,0,0,2.671,4.584c.341.527.65.905.835,1.18A2.968,2.968,0,0,1,320.3,314.237Z" transform="translate(-309.564 -266.55)" fill="#263238"/>
          </g>
        </g>
        <g id="Grupo_28195" data-name="Grupo 28195" transform="translate(39.386 48.7)">
          <g id="Grupo_28194" data-name="Grupo 28194">
            <path id="Trazado_4125" data-name="Trazado 4125" d="M319.787,319.707c.018.093-.9.292-1.875.871s-1.605,1.271-1.677,1.21a4.4,4.4,0,0,1,3.552-2.081Z" transform="translate(-316.23 -319.68)" fill="#263238"/>
          </g>
        </g>
        <g id="Grupo_28197" data-name="Grupo 28197" transform="translate(37.935 40.54)">
          <g id="Grupo_28196" data-name="Grupo 28196">
            <path id="Trazado_4126" data-name="Trazado 4126" d="M318.36,306.855a16.39,16.39,0,0,0-2.368.852,16.586,16.586,0,0,0-2.045,1.468,5.022,5.022,0,0,1,4.412-2.321Z" transform="translate(-313.943 -306.814)" fill="#263238"/>
          </g>
        </g>
        <g id="Grupo_28199" data-name="Grupo 28199" transform="translate(37.043 33.073)">
          <g id="Grupo_28198" data-name="Grupo 28198">
            <path id="Trazado_4127" data-name="Trazado 4127" d="M316.064,295.1a7.348,7.348,0,0,0-3.521,1.748,3.61,3.61,0,0,1,3.521-1.748Z" transform="translate(-312.536 -295.04)" fill="#263238"/>
          </g>
        </g>
        <g id="Grupo_28201" data-name="Grupo 28201" transform="translate(36.348 25.411)">
          <g id="Grupo_28200" data-name="Grupo 28200">
            <path id="Trazado_4128" data-name="Trazado 4128" d="M314.8,283c.012.092-.793.245-1.708.641s-1.586.862-1.645.79A4.4,4.4,0,0,1,314.8,283Z" transform="translate(-311.44 -282.959)" fill="#263238"/>
          </g>
        </g>
        <g id="Grupo_28203" data-name="Grupo 28203" transform="translate(35.877 19.196)">
          <g id="Grupo_28202" data-name="Grupo 28202">
            <path id="Trazado_4129" data-name="Trazado 4129" d="M314.026,273.2c.012.092-.8.239-1.712.671s-1.547.956-1.611.888a4.095,4.095,0,0,1,3.323-1.559Z" transform="translate(-310.698 -273.159)" fill="#263238"/>
          </g>
        </g>
        <g id="Grupo_28205" data-name="Grupo 28205" transform="translate(125.917 52.963)">
          <g id="Grupo_28204" data-name="Grupo 28204">
            <path id="Trazado_4130" data-name="Trazado 4130" d="M455.366,327.671c-.075.053-.488-.5-1.245-.8a8.494,8.494,0,0,0-1.45-.3,1.682,1.682,0,0,1,1.568.005C455.1,326.924,455.446,327.646,455.366,327.671Z" transform="translate(-452.669 -326.403)" fill="#263238"/>
          </g>
        </g>
        <g id="Grupo_28207" data-name="Grupo 28207" transform="translate(127.609 45.599)">
          <g id="Grupo_28206" data-name="Grupo 28206">
            <path id="Trazado_4131" data-name="Trazado 4131" d="M458.7,317.072a4.081,4.081,0,0,0-3.365-2.173c-.006-.037.235-.12.642-.107a3.083,3.083,0,0,1,2.555,1.651C458.714,316.808,458.737,317.062,458.7,317.072Z" transform="translate(-455.337 -314.791)" fill="#263238"/>
          </g>
        </g>
        <g id="Grupo_28209" data-name="Grupo 28209" transform="translate(129.205 39.275)">
          <g id="Grupo_28208" data-name="Grupo 28208">
            <path id="Trazado_4132" data-name="Trazado 4132" d="M461.39,306.447a4.263,4.263,0,0,0-3.536-1.4c-.011-.036.2-.148.58-.2a3.045,3.045,0,0,1,2.673,1.06C461.346,306.2,461.423,306.428,461.39,306.447Z" transform="translate(-457.853 -304.82)" fill="#263238"/>
          </g>
        </g>
        <g id="Grupo_28211" data-name="Grupo 28211" transform="translate(132.249 32.698)">
          <g id="Grupo_28210" data-name="Grupo 28210">
            <path id="Trazado_4133" data-name="Trazado 4133" d="M465.229,295.946c-.081.042-.412-.58-1.144-.954a6.491,6.491,0,0,0-1.432-.406c-.008-.039.162-.117.459-.134a2.268,2.268,0,0,1,1.967,1.039C465.234,295.746,465.265,295.93,465.229,295.946Z" transform="translate(-462.654 -294.449)" fill="#263238"/>
          </g>
        </g>
        <g id="Grupo_28213" data-name="Grupo 28213" transform="translate(134.305 26.437)">
          <g id="Grupo_28212" data-name="Grupo 28212">
            <path id="Trazado_4134" data-name="Trazado 4134" d="M468.853,286.177a3.165,3.165,0,0,0-2.957-1.369c-.013-.035.167-.152.5-.207a2.35,2.35,0,0,1,2.288,1.059C468.861,285.952,468.888,286.164,468.853,286.177Z" transform="translate(-465.895 -284.576)" fill="#263238"/>
          </g>
        </g>
        <g id="Grupo_28215" data-name="Grupo 28215" transform="translate(79.319 19.234)">
          <g id="Grupo_28214" data-name="Grupo 28214">
            <path id="Trazado_4135" data-name="Trazado 4135" d="M397.271,273.22a1.239,1.239,0,0,1-.136.294l-.446.811c-.394.7-.976,1.706-1.711,2.94s-1.623,2.7-2.64,4.3c-.51.8-1.052,1.639-1.633,2.5a28.116,28.116,0,0,1-1.919,2.581,2.7,2.7,0,0,1-.651.582.431.431,0,0,1-.278.055.862.862,0,0,1-.242-.077,2.122,2.122,0,0,1-.36-.244,9.043,9.043,0,0,1-1.11-1.157c-.665-.8-1.251-1.611-1.8-2.389-1.091-1.558-2.017-3-2.783-4.213s-1.363-2.213-1.769-2.906l-.458-.8a1.278,1.278,0,0,1-.14-.292,1.292,1.292,0,0,1,.195.259l.507.773,1.852,2.85c.788,1.2,1.732,2.623,2.832,4.166.552.77,1.14,1.572,1.8,2.359a8.961,8.961,0,0,0,1.07,1.111c.19.153.431.322.549.227a2.6,2.6,0,0,0,.552-.509,29.111,29.111,0,0,0,1.9-2.545c.582-.85,1.128-1.682,1.643-2.478,1.029-1.593,1.936-3.042,2.695-4.259l1.8-2.887.5-.781A1.232,1.232,0,0,1,397.271,273.22Z" transform="translate(-379.195 -273.22)" fill="#263238"/>
          </g>
        </g>
        <g id="Grupo_28217" data-name="Grupo 28217" transform="translate(83.793 25.465)">
          <g id="Grupo_28216" data-name="Grupo 28216">
            <path id="Trazado_4136" data-name="Trazado 4136" d="M386.339,285.837c-.037.005-.112-.213-.084-.579a2.545,2.545,0,0,1,1.683-2.131c.349-.112.579-.089.582-.053a3.331,3.331,0,0,0-2.181,2.763Z" transform="translate(-386.249 -283.044)" fill="#263238"/>
          </g>
        </g>
        <g id="Grupo_28219" data-name="Grupo 28219" transform="translate(87.743 28.257)">
          <g id="Grupo_28218" data-name="Grupo 28218">
            <path id="Trazado_4137" data-name="Trazado 4137" d="M392.783,292.447a10.992,10.992,0,0,1-.035-5,121.705,121.705,0,0,1,.035,5Z" transform="translate(-392.477 -287.446)" fill="#263238"/>
          </g>
        </g>
        <g id="Grupo_28221" data-name="Grupo 28221" transform="translate(90.473 24.906)">
          <g id="Grupo_28220" data-name="Grupo 28220">
            <path id="Trazado_4138" data-name="Trazado 4138" d="M399.089,284.143c-.088.025-.285-.676-.944-1.213a6.372,6.372,0,0,0-1.362-.714c0-.039.188-.08.491-.032a2.344,2.344,0,0,1,1.759,1.471C399.135,283.944,399.127,284.136,399.089,284.143Z" transform="translate(-396.783 -282.162)" fill="#263238"/>
          </g>
        </g>
        <g id="Grupo_28223" data-name="Grupo 28223" transform="translate(93.834 19.508)">
          <g id="Grupo_28222" data-name="Grupo 28222">
            <path id="Trazado_4139" data-name="Trazado 4139" d="M404.118,275.862a6.354,6.354,0,0,0-.783-1.308c-.567-.623-1.272-.779-1.253-.869.006-.038.2-.057.488.027a2.317,2.317,0,0,1,1.554,1.662C404.188,275.67,404.157,275.858,404.118,275.862Z" transform="translate(-402.082 -273.652)" fill="#263238"/>
          </g>
        </g>
        <g id="Grupo_28225" data-name="Grupo 28225" transform="translate(80.576 19.796)">
          <g id="Grupo_28224" data-name="Grupo 28224">
            <path id="Trazado_4140" data-name="Trazado 4140" d="M381.331,277.834c-.035.008-.136-.239-.152-.663a3.314,3.314,0,0,1,1.5-2.813c.362-.225.623-.278.636-.244a4.377,4.377,0,0,0-1.983,3.72Z" transform="translate(-381.177 -274.105)" fill="#263238"/>
          </g>
        </g>
        <g id="Grupo_28227" data-name="Grupo 28227" transform="translate(71.82 3.081)" opacity="0.4">
          <g id="Grupo_28226" data-name="Grupo 28226">
            <path id="Trazado_4141" data-name="Trazado 4141" d="M367.371,247.752c1.359,5.212,3.627,13.7,6.083,20.344a2.151,2.151,0,0,0,.468.843c.623.593,1.7.229,2.283-.4a15.343,15.343,0,0,0,1.338-2.044,2.64,2.64,0,0,1,1.944-1.331,2.292,2.292,0,0,1,1.726.867,9.555,9.555,0,0,1,1.057,1.689c.175.312.4.648.75.72a.452.452,0,0,0,.536-.63l-2.172-5.631s-1-4.131-4.449-3.489c-3.86.719-2.11,7.057-2.11,7.057S367.313,247.531,367.371,247.752Z" transform="translate(-367.37 -247.75)"/>
          </g>
        </g>
        <g id="Grupo_28229" data-name="Grupo 28229" transform="translate(71.981 3.13)">
          <g id="Grupo_28228" data-name="Grupo 28228">
            <path id="Trazado_4142" data-name="Trazado 4142" d="M383.755,268.068a2.041,2.041,0,0,1-.186-.368c-.112-.247-.269-.613-.465-1.087l-1.6-4.038c-.172-.424-.352-.869-.554-1.324a4.1,4.1,0,0,0-.79-1.283,3.776,3.776,0,0,0-3.007-1.121,2.907,2.907,0,0,0-1.584.71,3.974,3.974,0,0,0-.857,1.641,4.659,4.659,0,0,0-.131,1.928,15.65,15.65,0,0,0,.358,2.018l.178.723-.3.09c-.89-2.557-1.912-4.922-2.846-7.065s-1.792-4.063-2.465-5.693-1.166-2.967-1.465-3.9c-.158-.465-.256-.835-.325-1.084a1.869,1.869,0,0,1-.089-.384,1.9,1.9,0,0,1,.148.366c.089.243.2.605.38,1.063.332.922.854,2.244,1.553,3.859s1.57,3.526,2.525,5.662,1.983,4.506,2.881,7.078l-.3.09c-.056-.231-.118-.479-.18-.729a15.74,15.74,0,0,1-.362-2.06,4.938,4.938,0,0,1,.15-2.055,4.239,4.239,0,0,1,.941-1.759,3.181,3.181,0,0,1,1.761-.782,4.031,4.031,0,0,1,3.227,1.228,4.333,4.333,0,0,1,.824,1.365c.2.463.374.911.539,1.34l1.508,4.074.409,1.108A2,2,0,0,1,383.755,268.068Z" transform="translate(-367.624 -247.827)" fill="#263238"/>
          </g>
        </g>
        <g id="Grupo_28231" data-name="Grupo 28231" transform="translate(88.358 5.487)" opacity="0.4">
          <g id="Grupo_28230" data-name="Grupo 28230">
            <path id="Trazado_4143" data-name="Trazado 4143" d="M393.509,269.272c-.131.09-.036.323.12.357a.556.556,0,0,0,.435-.155,9.59,9.59,0,0,0,1.828-2.438,3.2,3.2,0,0,1,2.423-1.665,3.145,3.145,0,0,1,2.49,1.848,11.887,11.887,0,0,0,1.674,2.775,76.194,76.194,0,0,0,9.2-18.451,11,11,0,0,0-2.905,3.582l-6.177,10.3a8.018,8.018,0,0,0-1.741-2.747,3.392,3.392,0,0,0-2.995-.959,4.458,4.458,0,0,0-2.622,2.456,14.707,14.707,0,0,0-1.65,5.133" transform="translate(-393.448 -251.543)"/>
          </g>
        </g>
        <g id="Grupo_28233" data-name="Grupo 28233" transform="translate(162.526 54.811)">
          <g id="Grupo_28232" data-name="Grupo 28232">
            <path id="Trazado_4144" data-name="Trazado 4144" d="M517.279,348.529a4.014,4.014,0,0,1-.412-.694c-.249-.455-.588-1.124-.989-1.959A71.948,71.948,0,0,1,511,332.255c-.22-.9-.383-1.632-.479-2.142a3.891,3.891,0,0,1-.122-.8,3.986,3.986,0,0,1,.241.769l.575,2.114c.493,1.781,1.228,4.228,2.177,6.884s1.938,5.01,2.688,6.7l.9,2A3.951,3.951,0,0,1,517.279,348.529Z" transform="translate(-510.393 -329.316)" fill="#263238"/>
          </g>
        </g>
        <g id="Grupo_28235" data-name="Grupo 28235" transform="translate(161.425 54.285)">
          <g id="Grupo_28234" data-name="Grupo 28234">
            <path id="Trazado_4145" data-name="Trazado 4145" d="M510.614,347.033a3.325,3.325,0,0,1-.254-.694c-.147-.452-.331-1.114-.533-1.939a42.226,42.226,0,0,1-1.041-13.19c.07-.847.148-1.53.222-2a3.333,3.333,0,0,1,.143-.725,3.371,3.371,0,0,1-.021.738c-.037.472-.081,1.156-.122,2a50.944,50.944,0,0,0,1.036,13.127c.172.828.323,1.5.434,1.956A3.359,3.359,0,0,1,510.614,347.033Z" transform="translate(-508.657 -328.486)" fill="#263238"/>
          </g>
        </g>
        <g id="Grupo_28237" data-name="Grupo 28237" transform="translate(158.201 17.311)">
          <g id="Grupo_28236" data-name="Grupo 28236">
            <path id="Trazado_4146" data-name="Trazado 4146" d="M528.134,270.189a2.277,2.277,0,0,1,.486.186l.1.041-.1.036a85.447,85.447,0,0,1-12.105,3.1c-3.54.652-6.778,1.03-9.127,1.218-1.174.1-2.126.153-2.785.175a6.245,6.245,0,0,1-1.024.005,6.379,6.379,0,0,1,1.015-.127l2.772-.274c2.339-.244,5.563-.656,9.091-1.307,5.883-1.069,10.722-2.5,12.137-2.867l-.006.078A2.232,2.232,0,0,1,528.134,270.189Z" transform="translate(-503.573 -270.187)" fill="#263238"/>
          </g>
        </g>
        <g id="Grupo_28239" data-name="Grupo 28239" transform="translate(176.572 14.223)">
          <g id="Grupo_28238" data-name="Grupo 28238">
            <path id="Trazado_4147" data-name="Trazado 4147" d="M533.267,265.658c-.008-.01.063-.1.259-.16a1,1,0,0,1,.812.18,1.163,1.163,0,0,1,.524,1.129.937.937,0,0,1-.465.637,1.3,1.3,0,0,1-.811.149,1.338,1.338,0,0,1-.748-.347,1,1,0,0,1-.3-.727,1.267,1.267,0,0,1,.677-1.042,1.147,1.147,0,0,1,.819-.131c.194.051.271.136.264.147a1.35,1.35,0,0,0-.969.174,1.067,1.067,0,0,0-.5.852.829.829,0,0,0,.8.763.812.812,0,0,0,.953-.535,1.038,1.038,0,0,0-1.032-1.128C533.374,265.631,533.281,265.685,533.267,265.658Z" transform="translate(-532.54 -265.318)" fill="#263238"/>
          </g>
        </g>
        <g id="Grupo_28241" data-name="Grupo 28241" transform="translate(40.37 27.947)">
          <g id="Grupo_28240" data-name="Grupo 28240">
            <path id="Trazado_4148" data-name="Trazado 4148" d="M360.467,286.958a2.49,2.49,0,0,1-.346.3c-.24.183-.57.485-1.047.8a23.57,23.57,0,0,1-4.219,2.4,25.68,25.68,0,0,1-6.923,1.969,26.5,26.5,0,0,1-4.257.229,26.16,26.16,0,0,1-4.543-.563c-3.068-.693-5.835-1.824-8.437-2.522a22.827,22.827,0,0,0-3.741-.738,15.4,15.4,0,0,0-3.312.033,10.143,10.143,0,0,0-4.488,1.58,16.248,16.248,0,0,0-1.374,1.111,6.093,6.093,0,0,1,1.3-1.211,9.962,9.962,0,0,1,4.528-1.7,15.323,15.323,0,0,1,3.365-.072,22.558,22.558,0,0,1,3.792.717c2.628.689,5.4,1.811,8.429,2.494a26.316,26.316,0,0,0,4.485.562,26.807,26.807,0,0,0,4.209-.208,26.177,26.177,0,0,0,6.873-1.886,25.642,25.642,0,0,0,4.238-2.3c.485-.3.826-.587,1.078-.754A2.473,2.473,0,0,1,360.467,286.958Z" transform="translate(-317.781 -286.957)" fill="#fafafa"/>
          </g>
        </g>
        <g id="Grupo_28243" data-name="Grupo 28243" transform="translate(44.583 49.024)">
          <g id="Grupo_28242" data-name="Grupo 28242">
            <path id="Trazado_4149" data-name="Trazado 4149" d="M403.2,325.233a1.1,1.1,0,0,1-.192-.088l-.549-.285c-.242-.122-.554-.247-.915-.41-.375-.129-.8-.311-1.3-.439a19.982,19.982,0,0,0-8.639-.314,50.09,50.09,0,0,0-5.876,1.334c-2.094.571-4.324,1.234-6.727,1.724a24.659,24.659,0,0,1-7.663.468,36.674,36.674,0,0,1-8.026-1.889c-2.678-.9-5.241-1.908-7.758-2.747a39.3,39.3,0,0,0-7.406-1.817,34.676,34.676,0,0,0-12.835.7,37.83,37.83,0,0,0-4.728,1.526c-.67.293-1.3.551-1.866.824s-1.081.522-1.532.774l-1.2.669-.855.528-.528.322a1.043,1.043,0,0,1-.186.1,1.073,1.073,0,0,1,.168-.128l.512-.349c.227-.15.5-.344.841-.554l1.186-.7c.447-.261.968-.508,1.525-.8s1.194-.549,1.865-.851a37.053,37.053,0,0,1,4.741-1.579,34.542,34.542,0,0,1,12.928-.77,39.3,39.3,0,0,1,7.465,1.812c2.529.839,5.094,1.844,7.762,2.742a36.612,36.612,0,0,0,7.957,1.88,24.5,24.5,0,0,0,7.574-.445c2.388-.478,4.617-1.13,6.716-1.692a49.447,49.447,0,0,1,5.912-1.3,19.721,19.721,0,0,1,8.707.417c.5.138.922.33,1.3.47.36.174.67.308.908.441l.535.313A1.022,1.022,0,0,1,403.2,325.233Z" transform="translate(-324.425 -320.19)" fill="#fafafa"/>
          </g>
        </g>
        <g id="Grupo_28245" data-name="Grupo 28245" transform="translate(91.399 23.713)">
          <g id="Grupo_28244" data-name="Grupo 28244">
            <path id="Trazado_4150" data-name="Trazado 4150" d="M398.242,284.067a14.23,14.23,0,0,0,1.621.355,11.678,11.678,0,0,0,4.473-.358,54,54,0,0,0,6.3-2.356,20.9,20.9,0,0,1,3.839-1.145,18.249,18.249,0,0,1,4.3-.247,25.008,25.008,0,0,1,8.047,1.932,43.469,43.469,0,0,1,6,3.112c1.641,1,2.929,1.877,3.817,2.481l1.015.707a2.187,2.187,0,0,1,.342.265,2.246,2.246,0,0,1-.377-.212l-1.048-.658c-.908-.572-2.213-1.417-3.864-2.393a45.652,45.652,0,0,0-6-3.034,25.146,25.146,0,0,0-7.955-1.886,18.172,18.172,0,0,0-4.224.237,20.979,20.979,0,0,0-3.79,1.112,50.678,50.678,0,0,1-6.351,2.3,11.313,11.313,0,0,1-4.545.263A5.519,5.519,0,0,1,398.242,284.067Z" transform="translate(-398.242 -280.282)" fill="#fafafa"/>
          </g>
        </g>
        <g id="Grupo_28247" data-name="Grupo 28247" transform="translate(105.079 9.599)">
          <g id="Grupo_28246" data-name="Grupo 28246">
            <path id="Trazado_4151" data-name="Trazado 4151" d="M443.2,260.018a5.368,5.368,0,0,1-.9.275c-.292.081-.652.172-1.075.255s-.9.2-1.438.274a33.549,33.549,0,0,1-3.79.408,34.515,34.515,0,0,1-9.286-.79,33.521,33.521,0,0,1-3.667-1.043c-.517-.165-.969-.357-1.371-.512s-.742-.3-1.016-.433a5.386,5.386,0,0,1-.842-.422,5.459,5.459,0,0,1,.889.309c.28.112.625.245,1.031.382s.861.315,1.38.466c1.025.335,2.266.667,3.658.971a37.16,37.16,0,0,0,9.211.783c1.423-.064,2.7-.183,3.77-.339.536-.061,1.014-.158,1.438-.226s.786-.139,1.081-.2A5.451,5.451,0,0,1,443.2,260.018Z" transform="translate(-419.812 -258.028)" fill="#fafafa"/>
          </g>
        </g>
        <g id="Grupo_28249" data-name="Grupo 28249" transform="translate(39.15 5.56)">
          <g id="Grupo_28248" data-name="Grupo 28248">
            <path id="Trazado_4152" data-name="Trazado 4152" d="M315.858,261.764a1.634,1.634,0,0,1,.276-.245c.188-.152.466-.375.832-.651.729-.557,1.8-1.343,3.164-2.259a44.311,44.311,0,0,1,11.481-5.669,27.034,27.034,0,0,1,12.725-.888,19.772,19.772,0,0,1,3.742,1.071c.432.158.748.329.968.426a1.7,1.7,0,0,1,.326.173c-.012.027-.478-.175-1.338-.485a22.074,22.074,0,0,0-3.738-.966,27.7,27.7,0,0,0-12.595.97,46.683,46.683,0,0,0-11.451,5.554c-1.374.889-2.463,1.646-3.213,2.172l-.866.6A1.659,1.659,0,0,1,315.858,261.764Z" transform="translate(-315.858 -251.658)" fill="#fafafa"/>
          </g>
        </g>
        <g id="Grupo_28251" data-name="Grupo 28251" transform="translate(49.038 77.958)">
          <g id="Grupo_28250" data-name="Grupo 28250">
            <path id="Trazado_4153" data-name="Trazado 4153" d="M401.385,370.031a.852.852,0,0,1-.178.05l-.531.115a5.761,5.761,0,0,1-.874.132l-.562.06-.643.017a23.427,23.427,0,0,1-7.533-1.386c-1.548-.483-3.221-1.073-5.041-1.613a30.629,30.629,0,0,0-5.93-1.15,51.442,51.442,0,0,0-13.807.99c-4.856.874-9.446,1.977-13.712,2.484a42.855,42.855,0,0,1-11.374.074,23.677,23.677,0,0,1-7.333-2.215c-.4-.211-.763-.392-1.067-.562l-.746-.474-.455-.3a.8.8,0,0,1-.148-.11.811.811,0,0,1,.166.083l.471.27.758.447,1.075.533a24.329,24.329,0,0,0,7.311,2.106,43.406,43.406,0,0,0,11.307-.141c4.244-.521,8.824-1.629,13.693-2.506a51.052,51.052,0,0,1,13.89-.969,30.593,30.593,0,0,1,5.977,1.189c1.826.553,3.5,1.156,5.034,1.651a24.1,24.1,0,0,0,7.465,1.476l.638,0,.559-.046a6.153,6.153,0,0,0,.872-.1l.535-.084A.777.777,0,0,1,401.385,370.031Z" transform="translate(-331.449 -365.814)" fill="#fafafa"/>
          </g>
        </g>
        <g id="Grupo_28253" data-name="Grupo 28253" transform="translate(63.097 86.545)" opacity="0.3">
          <g id="Grupo_28252" data-name="Grupo 28252">
            <path id="Trazado_4154" data-name="Trazado 4154" d="M353.616,379.353c2.875,7.171,8.438,12.266,16.091,13.319s15.4-.7,22.853-2.728c-13.555-1.9-25.544-3.774-38.943-10.591" transform="translate(-353.616 -379.353)"/>
          </g>
        </g>
        <g id="Grupo_28255" data-name="Grupo 28255" transform="translate(49.02 99.116)">
          <g id="Grupo_28254" data-name="Grupo 28254">
            <path id="Trazado_4155" data-name="Trazado 4155" d="M403.316,406.325a.892.892,0,0,1-.188-.068l-.537-.23-2.052-.91c-1.783-.784-4.338-1.988-7.531-3.371a32.976,32.976,0,0,0-5.371-1.818,17.224,17.224,0,0,0-6.445-.3,23.246,23.246,0,0,0-3.423.778,34.7,34.7,0,0,0-3.434,1.3c-2.291,1-4.568,2.242-6.91,3.5a55.016,55.016,0,0,1-7.052,3.282,21.886,21.886,0,0,1-7.1,1.445,15.959,15.959,0,0,1-6.426-1.26,42.354,42.354,0,0,1-5.09-2.589c-1.514-.863-2.877-1.651-4.12-2.253a21.989,21.989,0,0,0-3.273-1.334,11.922,11.922,0,0,0-1.246-.335,6.987,6.987,0,0,0-.928-.18l-.576-.091a1.033,1.033,0,0,1-.2-.042.916.916,0,0,1,.2.009l.582.061a6.352,6.352,0,0,1,.939.151,11.293,11.293,0,0,1,1.261.309,21.2,21.2,0,0,1,3.315,1.292c1.257.591,2.632,1.369,4.152,2.219a43.077,43.077,0,0,0,5.079,2.541,15.744,15.744,0,0,0,6.324,1.213,21.675,21.675,0,0,0,7-1.445,55.389,55.389,0,0,0,7.009-3.269c2.341-1.255,4.627-2.5,6.936-3.5a35.013,35.013,0,0,1,3.469-1.3,23.386,23.386,0,0,1,3.472-.777,17.413,17.413,0,0,1,6.544.333,32.68,32.68,0,0,1,5.4,1.867c3.191,1.414,5.725,2.645,7.494,3.463l2.027.964.523.257A1.053,1.053,0,0,1,403.316,406.325Z" transform="translate(-331.421 -399.175)" fill="#fafafa"/>
          </g>
        </g>
      </g>
    </g>
  </g>
</svg>
