<svg xmlns="http://www.w3.org/2000/svg" width="52.017" height="36.166" viewBox="0 0 52.017 36.166">
  <g id="transferir" transform="translate(24.425 -18.004)">
    <g id="Grupo_28282" data-name="Grupo 28282" transform="translate(0 31.595)">
      <g id="Grupo_28281" data-name="Grupo 28281" transform="translate(0)">
        <path id="Trazado_4263" data-name="Trazado 4263" d="M26.756,273.854H11.706v-5.017a.836.836,0,0,0-1.427-.591L.245,278.279a.836.836,0,0,0-.023,1.159l10.033,10.869a.837.837,0,0,0,1.451-.568v-5.017h15.05a.836.836,0,0,0,.836-.836v-9.2A.836.836,0,0,0,26.756,273.854Zm-.836,9.2H10.87a.836.836,0,0,0-.836.836V287.6L2,278.893l8.038-8.038v3.834a.836.836,0,0,0,.836.836H25.92Z" transform="translate(0 -268.001)" fill="#111e61"/>
      </g>
    </g>
    <g id="Grupo_28284" data-name="Grupo 28284" transform="translate(-24.425 18.003)">
      <g id="Grupo_28283" data-name="Grupo 28283" transform="translate(0 0)">
        <path id="Trazado_4264" data-name="Trazado 4264" d="M243.426,15.207a.831.831,0,0,0-.142-.147h0L229.907,4.19a.836.836,0,0,0-1.363.649V9.856H216.838a.836.836,0,0,0-.836.836v9.2a.836.836,0,0,0,.836.836h11.706v5.017a.836.836,0,0,0,1.338.669l13.378-10.033A.836.836,0,0,0,243.426,15.207Zm-13.21,8.863V19.889a.836.836,0,0,0-.836-.836H217.674V11.528H229.38a.836.836,0,0,0,.836-.836v-4.1L241.4,15.683Z" transform="translate(-216.002 -4.003)" fill="#111e61"/>
      </g>
    </g>
  </g>
</svg>
