<svg xmlns="http://www.w3.org/2000/svg" xmlns:xlink="http://www.w3.org/1999/xlink" width="86.647" height="78.711" viewBox="0 0 86.647 78.711">
  <defs>
    <linearGradient id="linear-gradient" y1="0.5" x2="1" y2="0.5" gradientUnits="objectBoundingBox">
      <stop offset="0" stop-color="#e3d969"/>
      <stop offset="0.154" stop-color="#e4be70"/>
      <stop offset="0.404" stop-color="#e6997b"/>
      <stop offset="0.636" stop-color="#e77e83"/>
      <stop offset="0.842" stop-color="#e86d88"/>
      <stop offset="1" stop-color="#e9688a"/>
    </linearGradient>
    <linearGradient id="linear-gradient-4" x1="0" y1="0.5" x2="1" y2="0.5" xlink:href="#linear-gradient"/>
  </defs>
  <g id="Grupo_27955" data-name="Grupo 27955" transform="translate(-22.192 -23.667)">
    <g id="Grupo_27890" data-name="Grupo 27890" transform="translate(79.74 35.83)">
      <g id="Grupo_27856" data-name="Grupo 27856" transform="translate(0 12.986)">
        <path id="Trazado_3914" data-name="Trazado 3914" d="M87.625,57.393c.007-.069.015-.138.027-.207s.024-.158.04-.236c.008-.052.018-.1.029-.152s.025-.1.038-.154c.016-.069.034-.136.054-.2.011-.039.024-.08.036-.118.026-.08.051-.158.08-.236l.033-.094c.041-.106.082-.212.129-.319.005-.014.013-.028.02-.045.04-.089.083-.179.127-.268l.049-.1c.042-.084.088-.167.135-.25.012-.02.021-.04.033-.062.058-.1.119-.2.183-.294.019-.029.038-.055.056-.085.047-.069.094-.136.141-.2.028-.038.055-.076.083-.113.042-.058.087-.112.129-.168s.076-.093.115-.138.072-.081.108-.123c.065-.07.13-.14.2-.208.04-.042.081-.083.123-.122s.065-.063.1-.093c.054-.049.106-.1.162-.142l.1-.083c.06-.048.121-.093.182-.137.03-.021.058-.044.089-.064.09-.062.183-.122.276-.175s.179-.1.266-.138c.024-.011.047-.023.07-.032a1.506,1.506,0,0,1,.144-.057c.069-.028.137-.05.2-.071.045-.013.089-.026.132-.037s.078-.018.115-.025c.055-.01.106-.019.157-.025l.084-.008c.063,0,.124-.005.187,0H91.9a1.837,1.837,0,0,1,.214.029l.051.01a1.684,1.684,0,0,1,.162.048l.046.015a1.7,1.7,0,0,1,.191.09c-.522-.3-.522-.3-1.089-.633a.076.076,0,0,0-.015-.007,1.065,1.065,0,0,0-.147-.072c-.008,0-.02-.005-.03-.009s-.03-.012-.046-.018l-.077-.028c-.028-.008-.055-.013-.083-.019s-.035-.008-.054-.011L91,51.8a1.388,1.388,0,0,0-.174-.021h-.056c-.044,0-.089,0-.136,0-.016,0-.033,0-.049,0l-.085.008c-.027,0-.055.005-.082.01s-.05.012-.074.014-.077.016-.115.026c-.022.005-.044.008-.067.014s-.043.016-.065.022c-.065.019-.134.044-.2.071-.025.01-.048.014-.072.023s-.047.023-.072.034-.044.021-.068.031c-.086.04-.175.086-.267.139s-.184.114-.276.174l-.089.064c-.061.045-.122.09-.182.138-.035.028-.067.055-.1.083-.055.047-.11.093-.163.143l-.1.092-.059.056c-.021.021-.038.043-.06.064-.067.07-.133.14-.2.211-.019.023-.039.042-.058.065s-.03.037-.047.055c-.041.047-.08.094-.118.143-.023.03-.047.057-.072.088v0h0v0c-.02.025-.038.052-.058.078s-.054.072-.08.107-.038.051-.054.077c-.032.042-.059.085-.088.127s-.04.058-.06.089l-.022.036c-.051.08-.1.164-.151.244l-.008.016-.028.05c-.033.059-.068.119-.1.179-.015.027-.028.056-.043.082s-.029.058-.043.087-.026.052-.039.077l-.088.191a.521.521,0,0,1-.025.055l0,.008c-.038.086-.073.173-.108.26l-.017.048c-.012.03-.021.061-.033.091s-.033.089-.047.134-.02.065-.03.1-.025.08-.037.12-.018.051-.024.077c-.013.043-.021.088-.032.133s-.025.1-.037.147c0,.018-.009.036-.013.051-.009.035-.011.07-.019.106-.014.078-.028.155-.039.231,0,.023-.008.044-.011.065-.006.047-.01.1-.014.144,0,.033-.007.068-.011.1-.007.106-.013.214-.013.319a2.031,2.031,0,0,0,.846,1.86c.363.211.726.423,1.089.632a2.025,2.025,0,0,1-.846-1.859c0-.106.005-.213.013-.321C87.618,57.462,87.622,57.427,87.625,57.393Z" transform="translate(-86.514 -51.775)" fill="#d66767"/>
        <g id="Grupo_27854" data-name="Grupo 27854" transform="translate(1.089 0.633)">
          <path id="Trazado_3915" data-name="Trazado 3915" d="M90.625,52.88c1.6-.925,2.907-.183,2.912,1.66a6.374,6.374,0,0,1-2.893,5.009c-1.6.926-2.909.184-2.914-1.658A6.378,6.378,0,0,1,90.625,52.88Z" transform="translate(-87.731 -52.482)" fill="url(#linear-gradient)"/>
        </g>
        <g id="Grupo_27855" data-name="Grupo 27855" transform="translate(3.374 3.458)">
          <path id="Trazado_3916" data-name="Trazado 3916" d="M90.285,55.7l2.487-.064-2.479,3.032Z" transform="translate(-90.285 -55.641)" fill="#993328"/>
        </g>
      </g>
      <g id="Grupo_27889" data-name="Grupo 27889" transform="translate(8.207)">
        <path id="Trazado_3917" data-name="Trazado 3917" d="M114.867,37.968c.046-.018.094-.034.141-.048l.093-.027.079-.017c.038-.007.077-.013.115-.017l.057-.006a1.078,1.078,0,0,1,.132,0h.03a1.169,1.169,0,0,1,.15.019l.033.007a1.085,1.085,0,0,1,.115.033.255.255,0,0,0,.034.012,1.384,1.384,0,0,1,.132.064l-.012-.005-.579-.336c-.14-.082-.278-.164-.421-.245l-.012-.007a.976.976,0,0,0-.1-.049l-.021-.007a.329.329,0,0,0-.033-.013l-.052-.019.01.007h0l-.012-.007-.06-.013-.034-.009a.129.129,0,0,1-.02,0,.951.951,0,0,0-.123-.013h-.01c-.01,0-.02,0-.03,0-.031,0-.062,0-.093,0l-.037,0-.058.007a.414.414,0,0,0-.059.005c-.018,0-.036.008-.055.012l-.079.016c-.014,0-.031.006-.046.011a.494.494,0,0,0-.047.015c-.047.015-.1.031-.144.051a.319.319,0,0,0-.049.017c-.01,0-.019.01-.03.013-.084.037-.169.079-.258.128l-15.8,9.123a3.166,3.166,0,0,0-.32.214c-.015.013-.035.027-.051.039a3.577,3.577,0,0,0-.285.252l-.025.021-.044.047c-.046.047-.09.095-.135.143l-.044.047-.034.041c-.028.032-.054.065-.08.1s-.035.04-.052.063-.024.034-.038.049l-.059.084a.378.378,0,0,0-.038.049c-.021.029-.039.057-.06.088l-.043.067-.015.021c-.037.056-.071.114-.106.171a.039.039,0,0,1-.007.013l-.019.035c-.023.041-.047.081-.069.123l-.03.056c-.012.022-.021.043-.032.065s-.017.034-.025.051c-.026.051-.048.1-.072.155l-.005.013,0,.008c-.026.061-.052.123-.074.183,0,.013-.009.024-.013.038s-.015.041-.024.062-.022.062-.033.093-.015.05-.023.074-.015.054-.022.079a.377.377,0,0,0-.017.055c-.009.032-.016.064-.024.1s-.017.067-.024.1c0,.011-.007.023-.01.036s-.008.048-.013.074c-.011.055-.02.11-.029.164,0,.014-.005.029-.007.045s0,.026,0,.04a3.279,3.279,0,0,0-.024.358l.005,1.519A1.43,1.43,0,0,0,96.286,53l1.009.587a1.425,1.425,0,0,1-.592-1.305l0-1.52a3.27,3.27,0,0,1,.022-.358l.011-.086c.007-.054.019-.108.029-.163.006-.037.013-.073.021-.111s.016-.067.025-.1c.011-.051.025-.1.039-.152l.023-.076c.019-.058.038-.115.057-.171.008-.021.014-.042.022-.063.03-.076.06-.152.092-.228l0-.007c.033-.073.068-.146.1-.218a.445.445,0,0,1,.026-.05c.032-.064.067-.128.1-.191.005-.011.012-.021.017-.032.041-.071.085-.141.129-.211l.038-.055c.033-.049.066-.1.1-.146.017-.025.038-.051.055-.077s.064-.081.1-.12.048-.063.076-.093.051-.06.079-.089c.043-.05.089-.1.134-.145l.068-.067c.093-.089.189-.174.287-.252.017-.013.032-.025.05-.037a2.859,2.859,0,0,1,.319-.217l15.8-9.123a2.61,2.61,0,0,1,.256-.127C114.812,37.988,114.839,37.979,114.867,37.968Z" transform="translate(-95.687 -37.261)" fill="#d66767"/>
        <g id="Grupo_27857" data-name="Grupo 27857" transform="translate(1.013 0.587)">
          <path id="Trazado_3918" data-name="Trazado 3918" d="M114.648,38.2c1.125-.65,2.041-.13,2.043,1.162l.005,1.52a4.474,4.474,0,0,1-2.032,3.515l-15.8,9.122c-1.125.65-2.038.13-2.042-1.163l0-1.52a4.464,4.464,0,0,1,2.027-3.513Z" transform="translate(-96.819 -37.917)" fill="url(#linear-gradient)"/>
        </g>
        <g id="Grupo_27888" data-name="Grupo 27888" transform="translate(4.527 2.531)">
          <g id="Grupo_27858" data-name="Grupo 27858" transform="translate(1.048 8.314)">
            <path id="Trazado_3919" data-name="Trazado 3919" d="M102.18,49.383l0,1.13-.262.152,0-1.13Z" transform="translate(-101.918 -49.383)" fill="#993328"/>
          </g>
          <g id="Grupo_27859" data-name="Grupo 27859" transform="translate(0 8.919)">
            <path id="Trazado_3920" data-name="Trazado 3920" d="M101.008,50.059l0,1.131-.261.151,0-1.132Z" transform="translate(-100.747 -50.059)" fill="#993328"/>
          </g>
          <g id="Grupo_27860" data-name="Grupo 27860" transform="translate(2.445 7.507)">
            <path id="Trazado_3921" data-name="Trazado 3921" d="M103.742,48.481l0,1.131-.262.152,0-1.132Z" transform="translate(-103.479 -48.481)" fill="#993328"/>
          </g>
          <g id="Grupo_27861" data-name="Grupo 27861" transform="translate(1.92 7.107)">
            <path id="Trazado_3922" data-name="Trazado 3922" d="M103.153,48.033l.007,2.509-.26.151-.007-2.508Z" transform="translate(-102.893 -48.033)" fill="#993328"/>
          </g>
          <g id="Grupo_27862" data-name="Grupo 27862" transform="translate(0.522 7.914)">
            <path id="Trazado_3923" data-name="Trazado 3923" d="M101.593,48.936l.007,2.509-.262.151-.008-2.508Z" transform="translate(-101.33 -48.936)" fill="#993328"/>
          </g>
          <g id="Grupo_27863" data-name="Grupo 27863" transform="translate(1.484 6.806)">
            <path id="Trazado_3924" data-name="Trazado 3924" d="M102.665,47.7l.01,3.713-.26.152-.01-3.715Z" transform="translate(-102.406 -47.697)" fill="#993328"/>
          </g>
          <g id="Grupo_27864" data-name="Grupo 27864" transform="translate(10.916 2.566)">
            <path id="Trazado_3925" data-name="Trazado 3925" d="M113.21,42.958l0,1.133-.262.15,0-1.132Z" transform="translate(-112.948 -42.958)" fill="#993328"/>
          </g>
          <g id="Grupo_27865" data-name="Grupo 27865" transform="translate(9.868 3.171)">
            <path id="Trazado_3926" data-name="Trazado 3926" d="M112.038,43.634l0,1.132-.262.153,0-1.134Z" transform="translate(-111.776 -43.634)" fill="#993328"/>
          </g>
          <g id="Grupo_27866" data-name="Grupo 27866" transform="translate(12.314 1.76)">
            <path id="Trazado_3927" data-name="Trazado 3927" d="M114.772,42.057l0,1.132-.265.151V42.208Z" transform="translate(-114.51 -42.057)" fill="#993328"/>
          </g>
          <g id="Grupo_27867" data-name="Grupo 27867" transform="translate(11.788 1.36)">
            <path id="Trazado_3928" data-name="Trazado 3928" d="M114.184,41.609l.006,2.509-.261.15-.007-2.509Z" transform="translate(-113.922 -41.609)" fill="#993328"/>
          </g>
          <g id="Grupo_27868" data-name="Grupo 27868" transform="translate(10.39 2.167)">
            <path id="Trazado_3929" data-name="Trazado 3929" d="M112.62,42.512l.008,2.508-.26.151-.008-2.509Z" transform="translate(-112.36 -42.512)" fill="#993328"/>
          </g>
          <g id="Grupo_27869" data-name="Grupo 27869" transform="translate(11.351 1.062)">
            <path id="Trazado_3930" data-name="Trazado 3930" d="M113.693,41.276l.01,3.712-.259.149-.011-3.712Z" transform="translate(-113.433 -41.276)" fill="#993328"/>
          </g>
          <g id="Grupo_27870" data-name="Grupo 27870" transform="translate(12.838 1.507)">
            <path id="Trazado_3931" data-name="Trazado 3931" d="M115.357,41.774l.005,1.757-.263.15,0-1.756Z" transform="translate(-115.095 -41.774)" fill="#993328"/>
          </g>
          <g id="Grupo_27871" data-name="Grupo 27871" transform="translate(14.233 0.701)">
            <path id="Trazado_3932" data-name="Trazado 3932" d="M116.918,40.873,116.923,42l-.263.152-.005-1.131Z" transform="translate(-116.655 -40.873)" fill="#993328"/>
          </g>
          <g id="Grupo_27872" data-name="Grupo 27872" transform="translate(13.708 0.301)">
            <path id="Trazado_3933" data-name="Trazado 3933" d="M116.331,40.426l.006,2.509-.262.151-.007-2.509Z" transform="translate(-116.068 -40.426)" fill="#993328"/>
          </g>
          <g id="Grupo_27873" data-name="Grupo 27873" transform="translate(13.271)">
            <path id="Trazado_3934" data-name="Trazado 3934" d="M115.841,40.09l.011,3.714-.263.149-.01-3.712Z" transform="translate(-115.58 -40.09)" fill="#993328"/>
          </g>
          <g id="Grupo_27874" data-name="Grupo 27874" transform="translate(3.49 5.899)">
            <path id="Trazado_3935" data-name="Trazado 3935" d="M104.909,46.683l.005,2.135-.259.151-.008-2.135Z" transform="translate(-104.647 -46.683)" fill="#993328"/>
          </g>
          <g id="Grupo_27875" data-name="Grupo 27875" transform="translate(4.89 6.095)">
            <path id="Trazado_3936" data-name="Trazado 3936" d="M106.474,46.9l.006,2.158-.261.15-.006-2.156Z" transform="translate(-106.212 -46.902)" fill="#993328"/>
          </g>
          <g id="Grupo_27876" data-name="Grupo 27876" transform="translate(4.363 5.695)">
            <path id="Trazado_3937" data-name="Trazado 3937" d="M105.887,46.455l.008,2.508-.262.152-.009-2.508Z" transform="translate(-105.623 -46.455)" fill="#993328"/>
          </g>
          <g id="Grupo_27877" data-name="Grupo 27877" transform="translate(5.933 4.236)">
            <path id="Trazado_3938" data-name="Trazado 3938" d="M107.642,44.824l.005,2.386-.262.15-.007-2.386Z" transform="translate(-107.378 -44.824)" fill="#993328"/>
          </g>
          <g id="Grupo_27878" data-name="Grupo 27878" transform="translate(5.412 5.09)">
            <path id="Trazado_3939" data-name="Trazado 3939" d="M107.058,45.779l.008,2.508-.263.152-.008-2.508Z" transform="translate(-106.795 -45.779)" fill="#993328"/>
          </g>
          <g id="Grupo_27879" data-name="Grupo 27879" transform="translate(2.966 6.502)">
            <path id="Trazado_3940" data-name="Trazado 3940" d="M104.324,47.357l.009,2.509-.263.15-.008-2.508Z" transform="translate(-104.062 -47.357)" fill="#993328"/>
          </g>
          <g id="Grupo_27880" data-name="Grupo 27880" transform="translate(3.928 5.395)">
            <path id="Trazado_3941" data-name="Trazado 3941" d="M105.4,46.12l.011,3.713-.259.149-.011-3.713Z" transform="translate(-105.137 -46.12)" fill="#993328"/>
          </g>
          <g id="Grupo_27881" data-name="Grupo 27881" transform="translate(6.985 4.885)">
            <path id="Trazado_3942" data-name="Trazado 3942" d="M108.818,45.55l0,1.131-.263.152,0-1.132Z" transform="translate(-108.554 -45.55)" fill="#993328"/>
          </g>
          <g id="Grupo_27882" data-name="Grupo 27882" transform="translate(8.384 4.079)">
            <path id="Trazado_3943" data-name="Trazado 3943" d="M110.381,44.648l0,2.156-.262.152-.005-2.157Z" transform="translate(-110.118 -44.648)" fill="#993328"/>
          </g>
          <g id="Grupo_27883" data-name="Grupo 27883" transform="translate(7.857 3.678)">
            <path id="Trazado_3944" data-name="Trazado 3944" d="M109.791,44.2l.007,2.51-.261.15-.008-2.509Z" transform="translate(-109.529 -44.201)" fill="#993328"/>
          </g>
          <g id="Grupo_27884" data-name="Grupo 27884" transform="translate(9.432 3.474)">
            <path id="Trazado_3945" data-name="Trazado 3945" d="M111.55,43.973l0,1.131-.26.15,0-1.132Z" transform="translate(-111.289 -43.973)" fill="#993328"/>
          </g>
          <g id="Grupo_27885" data-name="Grupo 27885" transform="translate(8.909 4.327)">
            <path id="Trazado_3946" data-name="Trazado 3946" d="M110.967,44.926l0,1.256-.262.151,0-1.255Z" transform="translate(-110.705 -44.926)" fill="#993328"/>
          </g>
          <g id="Grupo_27886" data-name="Grupo 27886" transform="translate(6.46 4.485)">
            <path id="Trazado_3947" data-name="Trazado 3947" d="M108.228,45.1l.009,2.51-.262.15-.007-2.509Z" transform="translate(-107.967 -45.103)" fill="#993328"/>
          </g>
          <g id="Grupo_27887" data-name="Grupo 27887" transform="translate(7.42 3.38)">
            <path id="Trazado_3948" data-name="Trazado 3948" d="M109.3,43.867l.011,3.712-.26.15-.011-3.714Z" transform="translate(-109.04 -43.867)" fill="#993328"/>
          </g>
        </g>
      </g>
    </g>
    <g id="Grupo_27891" data-name="Grupo 27891" transform="translate(50.998 86.307)" opacity="0.2">
      <path id="Trazado_3949" data-name="Trazado 3949" d="M77.086,95.94c5.216,3.009,5.247,7.894.064,10.905s-13.615,3.011-18.831,0-5.246-7.9-.062-10.909S71.869,92.928,77.086,95.94Z" transform="translate(-54.389 -93.679)"/>
    </g>
    <g id="Grupo_27894" data-name="Grupo 27894" transform="translate(53.163 86.822)">
      <path id="Trazado_3950" data-name="Trazado 3950" d="M77.322,101.461c-.005.027-.009.05-.013.076-.016.095-.047.189-.071.284s-.054.208-.091.313a3.521,3.521,0,0,1-.19.45c-.01.024-.025.05-.038.075a4.77,4.77,0,0,1-.289.477c-.015.024-.033.047-.051.07a5.108,5.108,0,0,1-.335.421c-.026.026-.045.054-.068.081-.133.143-.279.283-.433.422-.1.089-.209.176-.318.263s-.184.152-.286.227-.239.159-.363.242-.256.173-.4.254c-.223.13-.456.249-.693.366l-.19.087c-.212.1-.429.191-.654.279-.03.013-.06.027-.092.038-.239.091-.486.174-.735.251-.175.055-.358.106-.539.156-.132.035-.262.073-.4.1-.186.046-.372.082-.558.121-.143.03-.285.062-.43.086-.053.01-.106.018-.16.026-.24.04-.48.075-.724.1-.067.008-.134.016-.2.022-.14.016-.285.024-.426.037-.226.018-.454.034-.682.045-.149.007-.3.01-.458.013-.183,0-.366,0-.552,0-.16,0-.319-.005-.477-.013s-.343-.014-.513-.027-.325-.026-.488-.04-.331-.035-.5-.058-.316-.041-.477-.067-.351-.057-.528-.09c-.146-.026-.293-.058-.438-.089-.216-.047-.426-.1-.634-.157-.136-.036-.274-.069-.407-.109-.075-.021-.149-.046-.221-.067-.208-.065-.419-.138-.622-.213-.06-.023-.123-.043-.181-.066-.184-.072-.362-.151-.541-.23-.089-.04-.181-.075-.27-.116-.259-.124-.512-.254-.754-.395-2.024-1.169-3.037-2.7-3.032-4.236v1.075c-.007,1.532,1.006,3.067,3.029,4.236.243.14.495.269.752.393.089.042.188.08.278.122.151.065.3.136.453.2l.086.031c.057.022.119.043.175.065.2.075.412.144.623.211.073.024.149.048.225.071.046.014.092.03.14.043.083.024.172.04.255.063.214.058.429.112.648.158.056.015.112.03.17.042.086.018.173.03.259.045.177.035.356.067.537.092.075.013.147.03.225.04s.162.018.243.028c.168.022.338.039.506.057.081.008.166.02.25.027s.155.007.229.013c.175.012.348.019.521.027.088,0,.173.012.26.014.072,0,.141,0,.214,0,.183,0,.37,0,.555,0,.1,0,.191,0,.285,0,.057,0,.113-.01.171-.012.228-.009.457-.027.684-.046.095-.008.191-.01.285-.02.044,0,.091-.01.137-.016l.2-.024c.242-.029.482-.062.722-.1l.162-.025c.03-.005.057-.009.086-.015.117-.021.233-.05.348-.073.183-.038.369-.073.55-.117.142-.035.279-.077.418-.114.175-.048.346-.092.512-.146.04-.013.081-.021.119-.033.214-.069.422-.144.628-.223.029-.01.052-.022.08-.031.227-.09.449-.186.666-.285l.184-.086c.239-.117.472-.238.7-.366l.126-.073c.1-.061.182-.123.276-.186.123-.077.245-.156.357-.237s.2-.153.293-.233.213-.166.31-.253c.019-.02.045-.037.065-.055a4.971,4.971,0,0,0,.367-.375c.025-.023.044-.049.069-.075.066-.08.137-.157.2-.236.048-.063.092-.127.139-.191.016-.021.032-.044.048-.064.081-.119.157-.239.225-.36.025-.04.042-.08.064-.12.012-.025.025-.05.04-.077a4.173,4.173,0,0,0,.171-.387c.01-.021.012-.044.019-.064.036-.1.062-.2.087-.305.021-.072.047-.141.061-.211a.676.676,0,0,1,.014-.081c0-.024.006-.047.01-.072a3.591,3.591,0,0,0,.044-.437c0-.03,0-.061,0-.089l0-1.076A3.688,3.688,0,0,1,77.322,101.461Z" transform="translate(-56.808 -94.953)" fill="#41c0fd"/>
      <g id="Grupo_27893" data-name="Grupo 27893" transform="translate(0.001 0)">
        <g id="Grupo_27892" data-name="Grupo 27892">
          <path id="Trazado_3951" data-name="Trazado 3951" d="M74.329,96c4.028,2.324,4.051,6.1.051,8.419a16.017,16.017,0,0,1-14.539,0c-4.023-2.324-4.047-6.093-.043-8.419A16.011,16.011,0,0,1,74.329,96Z" transform="translate(-56.809 -94.255)" fill="#c5f9ff"/>
        </g>
      </g>
    </g>
    <g id="Grupo_27899" data-name="Grupo 27899" transform="translate(62.163 75.799)">
      <g id="Grupo_27898" data-name="Grupo 27898" transform="translate(0 0)" style="isolation: isolate">
        <g id="Grupo_27895" data-name="Grupo 27895" transform="translate(0 0.782)">
          <path id="Trazado_3952" data-name="Trazado 3952" d="M68.063,100.081l-1.151-.667L66.868,82.81l1.149.667Z" transform="translate(-66.868 -82.81)" fill="#41c0fd"/>
        </g>
        <g id="Grupo_27896" data-name="Grupo 27896">
          <path id="Trazado_3953" data-name="Trazado 3953" d="M68.017,83.384l-1.149-.667,1.351-.782,1.149.671Z" transform="translate(-66.868 -81.936)" fill="#41c0fd"/>
        </g>
        <g id="Grupo_27897" data-name="Grupo 27897" transform="translate(1.149 0.671)">
          <path id="Trazado_3954" data-name="Trazado 3954" d="M69.5,82.686l.046,16.6-1.351.779-.046-16.605Z" transform="translate(-68.152 -82.686)" fill="#8fedff"/>
        </g>
      </g>
    </g>
    <g id="Grupo_27905" data-name="Grupo 27905" transform="translate(51.659 53.976)">
      <g id="Grupo_27900" data-name="Grupo 27900" transform="translate(20.412)">
        <path id="Trazado_3955" data-name="Trazado 3955" d="M78.707,58.9l-.765-.446,1.578-.912.766.446Z" transform="translate(-77.942 -57.543)" fill="#c5f9ff"/>
      </g>
      <g id="Grupo_27901" data-name="Grupo 27901" transform="translate(0 11.787)">
        <path id="Trazado_3956" data-name="Trazado 3956" d="M55.893,72.074l-.765-.445,1.579-.911.766.443Z" transform="translate(-55.127 -70.718)" fill="#329cd7"/>
      </g>
      <g id="Grupo_27903" data-name="Grupo 27903" transform="translate(0 0.913)">
        <g id="Grupo_27902" data-name="Grupo 27902">
          <path id="Trazado_3957" data-name="Trazado 3957" d="M76.666,70.592c.014-.109.022-.216.032-.325.008-.079.016-.16.022-.24.019-.245.031-.489.031-.728l-.031-10.291-.765-.446.029,10.29c0,.241-.012.484-.029.729-.008.079-.017.16-.024.24-.016.155-.035.31-.056.468-.026.177-.057.353-.09.532-.025.119-.046.238-.07.357s-.055.226-.083.338c-.04.157-.081.317-.128.473-.025.089-.054.18-.083.268-.054.178-.114.358-.177.533-.026.072-.053.146-.076.216-.092.243-.191.486-.294.725-.012.03-.027.06-.038.089-.1.215-.2.428-.3.64l-.095.19c-.106.206-.218.411-.334.613-.017.032-.035.064-.055.1-.132.231-.273.458-.417.682-.041.063-.083.123-.123.186q-.165.242-.335.48c-.06.082-.117.162-.18.242-.1.133-.2.259-.3.389-.082.1-.168.2-.251.305s-.172.194-.258.29c-.144.162-.288.315-.437.467-.094.095-.186.19-.283.281-.072.071-.149.139-.223.208-.123.112-.248.219-.372.327-.077.063-.15.127-.227.188-.136.109-.274.211-.416.31-.066.05-.132.1-.2.148-.209.14-.418.277-.629.4L63.781,83.5c-.2.117-.406.219-.607.313-.053.025-.106.05-.157.072-.192.087-.383.166-.569.229l-.035.012c-.164.054-.325.1-.481.134-.092.022-.183.04-.272.058-.117.021-.234.039-.349.054l-.2.02c-.146.011-.286.013-.426.009-.032,0-.064,0-.095,0a3.455,3.455,0,0,1-.489-.062c-.04-.007-.079-.017-.117-.026a3.431,3.431,0,0,1-.361-.106c-.039-.013-.077-.026-.114-.039a2.98,2.98,0,0,1-.431-.206l.765.445a.422.422,0,0,0,.037.021,2.839,2.839,0,0,0,.331.163c.021.008.045.013.065.021.037.015.074.027.112.042.059.021.114.042.173.059s.127.028.191.045c.038.01.077.019.115.025.022,0,.043.013.064.016a3.4,3.4,0,0,0,.4.045h.025a.837.837,0,0,0,.095,0,3.073,3.073,0,0,0,.315,0c.035,0,.073-.007.11-.009.065,0,.132-.015.2-.021s.121-.01.184-.019.11-.024.167-.033c.087-.018.177-.037.267-.058.049-.013.1-.017.148-.031.114-.032.225-.068.341-.106l.03-.008c.134-.047.269-.1.405-.156.055-.023.112-.048.166-.075s.1-.047.153-.07c.2-.094.4-.2.609-.315l5.618-3.243c.211-.123.421-.259.631-.4.064-.043.128-.093.191-.14q.215-.153.425-.318c.073-.06.145-.121.221-.183.125-.108.252-.218.377-.333.074-.066.148-.134.221-.2.046-.045.095-.085.141-.132s.093-.1.142-.152c.148-.149.292-.3.435-.464.048-.051.1-.1.143-.152s.077-.094.115-.14c.084-.1.166-.2.251-.3.054-.07.114-.139.171-.209s.087-.12.132-.18c.061-.08.119-.161.18-.244.042-.058.088-.114.127-.173.069-.1.134-.2.2-.3.042-.064.082-.127.126-.189l.053-.081c.118-.183.232-.371.342-.558a.216.216,0,0,1,.019-.035c.023-.044.047-.085.072-.129.074-.131.149-.262.219-.394.034-.064.064-.126.1-.191s.067-.132.1-.2.063-.115.088-.174c.076-.154.146-.31.215-.463l.04-.089a.072.072,0,0,1,.01-.021c.085-.2.166-.4.242-.593.013-.036.027-.072.038-.109.029-.072.053-.146.08-.217.035-.1.072-.2.106-.3.027-.077.046-.157.07-.234s.058-.181.085-.272c.015-.055.035-.113.052-.169.027-.1.047-.2.072-.3.029-.115.058-.227.084-.341.009-.038.021-.078.029-.117.017-.081.028-.159.04-.24.037-.178.066-.356.092-.533C76.647,70.688,76.66,70.64,76.666,70.592Z" transform="translate(-55.543 -58.563)" fill="#41c0fd"/>
          <path id="Trazado_3958" data-name="Trazado 3958" d="M55.923,82.727l-.03-10.547-.766-.445.03,10.545c.007,2.435.865,4.146,2.25,4.952l.768.445C56.789,86.871,55.931,85.161,55.923,82.727Z" transform="translate(-55.127 -59.95)" fill="#41c0fd"/>
        </g>
      </g>
      <g id="Grupo_27904" data-name="Grupo 27904" transform="translate(0.766 0.446)">
        <path id="Trazado_3959" data-name="Trazado 3959" d="M77.974,58.042,78,68.587c.016,4.9-3.431,10.863-7.694,13.326L63.757,85.7c-4.264,2.463-7.729.487-7.744-4.411l-.03-10.547,1.58-.913.03,10.292c.009,4.192,2.978,5.884,6.629,3.776l5.618-3.243a14.525,14.525,0,0,0,6.586-11.406l-.031-10.291Z" transform="translate(-55.983 -58.042)" fill="#8fedff"/>
      </g>
    </g>
    <g id="Grupo_27908" data-name="Grupo 27908" transform="translate(50.658 32.714)">
      <g id="Grupo_27907" data-name="Grupo 27907" transform="translate(0 0)">
        <g id="Grupo_27906" data-name="Grupo 27906">
          <path id="Rectángulo_4725" data-name="Rectángulo 4725" d="M11.555,0h0A11.556,11.556,0,0,1,23.112,11.556V35.492A11.556,11.556,0,0,1,11.555,47.048h0A11.555,11.555,0,0,1,0,35.493V11.555A11.555,11.555,0,0,1,11.555,0Z" transform="translate(0)" fill="#c5f9ff"/>
          <path id="Trazado_3960" data-name="Trazado 3960" d="M54.009,44.808V70.1a10.88,10.88,0,0,0,8.679,10.655,10.876,10.876,0,0,0,5.733-9.583v-25.3a10.88,10.88,0,0,0-8.679-10.654A10.871,10.871,0,0,0,54.009,44.808Z" transform="translate(-54.009 -33.932)" fill="#8fedff"/>
        </g>
        <path id="Trazado_3961" data-name="Trazado 3961" d="M64.039,49.744c2.492.359,12.4,1.82,14.048-4.214v2.384s-2.7,5.465-14.048,3.462C63.181,51.226,62.657,49.548,64.039,49.744Z" transform="translate(-54.976 -35.017)" fill="#5dd2e2"/>
        <path id="Trazado_3962" data-name="Trazado 3962" d="M64.039,55.823c2.492.358,12.4,1.821,14.048-4.214v2.384s-2.7,5.465-14.048,3.462C63.181,57.3,62.657,55.625,64.039,55.823Z" transform="translate(-54.976 -35.657)" fill="#5dd2e2"/>
        <path id="Trazado_3963" data-name="Trazado 3963" d="M64.039,61.9c2.492.357,12.4,1.819,14.048-4.215v2.385s-2.7,5.465-14.048,3.46C63.181,63.382,62.657,61.7,64.039,61.9Z" transform="translate(-54.976 -36.297)" fill="#5dd2e2"/>
        <path id="Trazado_3964" data-name="Trazado 3964" d="M64.039,67.98c2.492.358,12.4,1.82,14.048-4.214v2.383s-2.7,5.466-14.048,3.461C63.181,69.459,62.657,67.781,64.039,67.98Z" transform="translate(-54.976 -36.937)" fill="#5dd2e2"/>
      </g>
      <path id="Trazado_3965" data-name="Trazado 3965" d="M72.237,36.036c0,1.248-2.7,2.259-6.022,2.259s-6.021-1.011-6.021-2.259,2.7-2.257,6.021-2.257S72.237,34.79,72.237,36.036Z" transform="translate(-54.66 -33.779)" fill="#fff" opacity="0.4"/>
    </g>
    <path id="Trazado_3966" data-name="Trazado 3966" d="M57.473,71.161l-.766-.443-1.579.911.765.445Z" transform="translate(-3.468 -4.955)" fill="#c5f9ff"/>
    <path id="Trazado_3967" data-name="Trazado 3967" d="M63.22,86.732c-.053.025-.106.05-.157.072-.192.087-.383.166-.569.229l-.035.012c-.164.054-.325.1-.481.134-.092.022-.183.04-.272.058-.117.021-.234.039-.349.054l-.2.02c-.146.011-.286.013-.426.009-.032,0-.064,0-.095,0a3.455,3.455,0,0,1-.489-.062c-.04-.007-.079-.017-.117-.026a3.431,3.431,0,0,1-.361-.106c-.039-.013-.077-.026-.114-.039a.445.445,0,0,0-.042-.02,3.1,3.1,0,0,0,.824.471l.1.036a.08.08,0,0,1,.019.005,3.568,3.568,0,0,0,.366.1c.032.007.064.016.095.021l.013,0a3.373,3.373,0,0,0,.489.057h.109a3.3,3.3,0,0,0,.409-.008c.064,0,.125-.013.189-.019h.01c.115-.013.232-.032.347-.055.087-.016.174-.033.261-.055l.008,0c.164-.038.328-.083.5-.139a.018.018,0,0,1,.012,0,.111.111,0,0,1,.02-.008c.18-.062.366-.139.553-.225.052-.021.1-.045.152-.068.2-.094.4-.2.609-.315l1.374-.624-1.88.028-.262.152C63.623,86.536,63.42,86.638,63.22,86.732Z" transform="translate(-3.93 -6.589)" fill="#41c0fd"/>
    <path id="Trazado_3968" data-name="Trazado 3968" d="M57.439,87.1c-.064-.063-.132-.119-.19-.186a3.419,3.419,0,0,1-.223-.291c-.055-.072-.114-.138-.165-.217-.07-.106-.127-.225-.191-.341-.046-.083-.095-.158-.135-.246-.058-.123-.1-.259-.153-.389-.035-.094-.075-.177-.107-.276-.047-.14-.079-.3-.115-.445-.025-.1-.055-.191-.075-.293-.033-.167-.057-.347-.079-.525-.013-.095-.031-.187-.04-.286a8.708,8.708,0,0,1-.043-.879l-.03-10.547-.766-.445.03,10.545c.007,2.435.865,4.146,2.25,4.952l.768.445c-.1-.055-.179-.123-.268-.184-.071-.051-.146-.094-.215-.151C57.6,87.27,57.521,87.183,57.439,87.1Z" transform="translate(-3.468 -5.062)" fill="#41c0fd"/>
    <path id="Trazado_3969" data-name="Trazado 3969" d="M63.461,85.664c-.187.086-.373.163-.553.225-.013,0-.021.008-.031.012-.171.055-.336.1-.5.139-.09.023-.181.04-.269.058-.115.022-.233.042-.347.055-.064.007-.132.016-.2.02a3.3,3.3,0,0,1-.409.008c-.036,0-.072,0-.109,0a3.373,3.373,0,0,1-.489-.057c-.037-.005-.072-.017-.107-.024a3.568,3.568,0,0,1-.366-.1c-.038-.014-.077-.025-.115-.041a3.1,3.1,0,0,1-.824-.471,4.9,4.9,0,0,1-1.55-3.978l-.03-10.292-1.58.913.03,10.547a8.707,8.707,0,0,0,.043.879c.009.1.027.191.04.286.021.178.046.358.079.525.02.1.05.2.075.293.037.149.069.3.115.445.032.1.072.182.107.276.048.131.095.268.153.389.04.088.089.163.135.246.064.115.121.234.191.341.051.079.11.144.165.217a3.418,3.418,0,0,0,.223.291c.058.067.125.123.19.186.082.081.165.168.253.241.069.057.144.1.215.151,1.419,1,3.471.967,5.76-.355l4.51-2.6-2.826.11-1.219.692A7.581,7.581,0,0,1,63.461,85.664Z" transform="translate(-3.558 -5.007)" fill="#c5f9ff"/>
    <g id="Grupo_27909" data-name="Grupo 27909" transform="translate(22.192 23.667)" opacity="0.5" style="mix-blend-mode: overlay;isolation: isolate">
      <path id="Trazado_3970" data-name="Trazado 3970" d="M50.9,105.683c7.634,4.4,19.971,4.4,27.558,0S86,94.123,78.369,89.717s-19.973-4.405-27.564,0-7.542,11.554.092,15.966" transform="translate(-24.609 -30.275)" fill="#fcfdfd" opacity="0.8"/>
      <path id="Trazado_3971" data-name="Trazado 3971" d="M48.082,97.664c8.977,4.963,23.481,4.963,32.4,0s8.873-13.02-.1-17.982-23.482-4.965-32.4,0-8.867,13.015.106,17.985" transform="translate(-24.206 -29.174)" fill="#fcfdfd" opacity="0.667"/>
      <path id="Trazado_3972" data-name="Trazado 3972" d="M45.267,89.645c10.318,5.52,26.989,5.52,37.24,0s10.2-14.482-.119-20-26.99-5.522-37.243,0-10.192,14.478.123,20.005" transform="translate(-23.803 -28.073)" fill="#fcfdfd" opacity="0.533"/>
      <path id="Trazado_3973" data-name="Trazado 3973" d="M42.451,81.626c11.661,6.079,30.5,6.079,42.081,0S96.054,65.679,84.4,59.6s-30.5-6.081-42.083,0S30.8,75.54,42.451,81.626" transform="translate(-23.4 -26.971)" fill="#fcfdfd" opacity="0.4"/>
      <path id="Trazado_3974" data-name="Trazado 3974" d="M39.636,73.607c13,6.636,34.007,6.636,46.921,0S99.4,56.2,86.406,49.563s-34.006-6.64-46.923,0-12.842,17.4.153,24.044" transform="translate(-22.998 -25.87)" fill="#fcfdfd" opacity="0.267"/>
      <path id="Trazado_3975" data-name="Trazado 3975" d="M36.82,65.588c14.345,7.194,37.517,7.194,51.762,0s14.171-18.871-.167-26.063-37.514-7.2-51.763,0-14.167,18.863.168,26.064" transform="translate(-22.595 -24.769)" fill="#fcfdfd" opacity="0.133"/>
      <path id="Trazado_3976" data-name="Trazado 3976" d="M34.006,57.569c15.687,7.753,41.026,7.753,56.6,0s15.5-20.334-.183-28.083-41.023-7.757-56.6,0-15.493,20.325.183,28.083" transform="translate(-22.192 -23.668)" fill="#fcfdfd" opacity="0"/>
    </g>
    <g id="Grupo_27942" data-name="Grupo 27942" transform="translate(23.867 71.638)">
      <path id="Trazado_3977" data-name="Trazado 3977" d="M43.244,77.991c.046-.017.094-.033.141-.047l.093-.028.079-.015c.038-.008.077-.014.114-.019.018,0,.039,0,.057-.006a1.314,1.314,0,0,1,.132,0h.03a.822.822,0,0,1,.15.02.2.2,0,0,1,.033.007.782.782,0,0,1,.115.032.219.219,0,0,0,.034.012,1.125,1.125,0,0,1,.132.064L44.344,78l-.58-.336c-.139-.081-.277-.164-.42-.244l-.012-.006a.83.83,0,0,0-.1-.05.074.074,0,0,0-.02-.007.169.169,0,0,0-.034-.012c-.017-.006-.035-.014-.052-.02l.011.007h0l-.013-.007-.059-.014a.164.164,0,0,1-.035-.008l-.02,0a.818.818,0,0,0-.123-.015h-.009c-.011,0-.021,0-.031,0-.031,0-.062,0-.093,0-.013,0-.024,0-.037,0l-.058.006a.41.41,0,0,0-.059.007c-.018,0-.036.008-.055.01s-.051.01-.079.017a.378.378,0,0,0-.046.012.265.265,0,0,0-.047.014c-.047.014-.1.031-.144.05-.017.007-.033.011-.049.018s-.019.01-.03.013a2.635,2.635,0,0,0-.257.128l-15.8,9.123a3.144,3.144,0,0,0-.319.214c-.017.014-.036.028-.052.04-.1.078-.193.162-.286.251l-.024.023c-.015.014-.03.032-.044.047-.046.046-.09.094-.135.142l-.044.047c-.012.013-.022.028-.035.04l-.079.1-.052.061c-.013.018-.024.036-.038.052s-.04.054-.06.083a.37.37,0,0,0-.037.049c-.021.029-.04.058-.06.089l-.043.065-.016.021c-.037.056-.07.114-.106.173l-.006.013a.322.322,0,0,0-.02.035l-.069.123c-.009.02-.019.038-.029.056l-.032.066c-.01.018-.017.033-.026.051-.025.051-.047.1-.071.154l-.007.014,0,.008c-.027.06-.052.122-.075.182,0,.014-.009.024-.013.038s-.014.041-.023.062-.022.063-.033.094-.015.049-.022.075-.016.052-.025.078-.011.037-.015.054c-.01.032-.016.065-.024.1s-.017.067-.025.1c0,.013-.007.023-.009.037s-.008.05-.013.073c-.011.056-.021.111-.03.166,0,.014,0,.029-.005.044s0,.027,0,.04a3.072,3.072,0,0,0-.024.359l.005,1.519a1.427,1.427,0,0,0,.594,1.306l1.009.587a1.426,1.426,0,0,1-.592-1.306l0-1.518a3.489,3.489,0,0,1,.021-.358c0-.029.008-.058.012-.086.007-.055.017-.108.029-.164.006-.037.013-.073.021-.112s.016-.067.026-.1c.011-.052.025-.1.04-.152.007-.025.013-.052.021-.077.02-.057.038-.114.058-.169l.022-.065c.029-.075.059-.152.091-.227l0-.005c.033-.073.068-.148.1-.22a.434.434,0,0,1,.026-.049c.031-.064.066-.128.1-.192a.2.2,0,0,0,.017-.03c.042-.07.086-.141.13-.212l.038-.055c.032-.048.066-.1.1-.144.018-.026.038-.051.056-.076.031-.042.063-.082.1-.123s.049-.062.075-.092l.079-.089c.043-.049.09-.1.135-.144.022-.024.046-.046.067-.066a3.291,3.291,0,0,1,.288-.254.559.559,0,0,1,.05-.037,3.279,3.279,0,0,1,.318-.217l15.8-9.122a2.352,2.352,0,0,1,.256-.128Z" transform="translate(-24.064 -77.284)" fill="#d66767"/>
      <g id="Grupo_27910" data-name="Grupo 27910" transform="translate(1.013 0.587)">
        <path id="Trazado_3978" data-name="Trazado 3978" d="M43.025,78.221c1.125-.651,2.041-.131,2.043,1.162l.005,1.521a4.475,4.475,0,0,1-2.033,3.515l-15.8,9.121c-1.125.65-2.038.131-2.042-1.164l0-1.518a4.471,4.471,0,0,1,2.026-3.515Z" transform="translate(-25.196 -77.94)" fill="url(#linear-gradient)"/>
      </g>
      <g id="Grupo_27941" data-name="Grupo 27941" transform="translate(4.527 2.531)">
        <g id="Grupo_27911" data-name="Grupo 27911" transform="translate(1.048 8.315)">
          <path id="Trazado_3979" data-name="Trazado 3979" d="M30.557,89.407l0,1.13-.263.152,0-1.13Z" transform="translate(-30.294 -89.407)" fill="#993328"/>
        </g>
        <g id="Grupo_27912" data-name="Grupo 27912" transform="translate(0 8.92)">
          <path id="Trazado_3980" data-name="Trazado 3980" d="M29.384,90.083l0,1.132-.261.15,0-1.132Z" transform="translate(-29.124 -90.083)" fill="#993328"/>
        </g>
        <g id="Grupo_27913" data-name="Grupo 27913" transform="translate(2.445 7.509)">
          <path id="Trazado_3981" data-name="Trazado 3981" d="M32.118,88.506l0,1.13-.262.152,0-1.132Z" transform="translate(-31.856 -88.506)" fill="#993328"/>
        </g>
        <g id="Grupo_27914" data-name="Grupo 27914" transform="translate(1.92 7.109)">
          <path id="Trazado_3982" data-name="Trazado 3982" d="M31.53,88.059l.006,2.508-.26.152-.008-2.509Z" transform="translate(-31.269 -88.059)" fill="#993328"/>
        </g>
        <g id="Grupo_27915" data-name="Grupo 27915" transform="translate(0.522 7.915)">
          <path id="Trazado_3983" data-name="Trazado 3983" d="M29.97,88.96l.006,2.508-.262.152-.007-2.508Z" transform="translate(-29.706 -88.96)" fill="#993328"/>
        </g>
        <g id="Grupo_27916" data-name="Grupo 27916" transform="translate(1.484 6.807)">
          <path id="Trazado_3984" data-name="Trazado 3984" d="M31.041,87.722l.011,3.713-.26.153-.01-3.716Z" transform="translate(-30.783 -87.722)" fill="#993328"/>
        </g>
        <g id="Grupo_27917" data-name="Grupo 27917" transform="translate(10.915 2.567)">
          <path id="Trazado_3985" data-name="Trazado 3985" d="M41.586,82.982l.005,1.133-.263.151,0-1.132Z" transform="translate(-41.324 -82.982)" fill="#993328"/>
        </g>
        <g id="Grupo_27918" data-name="Grupo 27918" transform="translate(9.868 3.172)">
          <path id="Trazado_3986" data-name="Trazado 3986" d="M40.414,83.659l0,1.131-.262.152,0-1.133Z" transform="translate(-40.153 -83.659)" fill="#993328"/>
        </g>
        <g id="Grupo_27919" data-name="Grupo 27919" transform="translate(12.314 1.761)">
          <path id="Trazado_3987" data-name="Trazado 3987" d="M43.149,82.081l0,1.131-.264.152,0-1.133Z" transform="translate(-42.887 -82.081)" fill="#993328"/>
        </g>
        <g id="Grupo_27920" data-name="Grupo 27920" transform="translate(11.787 1.36)">
          <path id="Trazado_3988" data-name="Trazado 3988" d="M42.561,81.634l.006,2.51-.261.15-.008-2.51Z" transform="translate(-42.298 -81.634)" fill="#993328"/>
        </g>
        <g id="Grupo_27921" data-name="Grupo 27921" transform="translate(10.389 2.167)">
          <path id="Trazado_3989" data-name="Trazado 3989" d="M41,82.535,41,85.045l-.259.15-.009-2.509Z" transform="translate(-40.736 -82.535)" fill="#993328"/>
        </g>
        <g id="Grupo_27922" data-name="Grupo 27922" transform="translate(11.351 1.062)">
          <path id="Trazado_3990" data-name="Trazado 3990" d="M42.07,81.3l.011,3.712-.259.149-.011-3.712Z" transform="translate(-41.81 -81.301)" fill="#993328"/>
        </g>
        <g id="Grupo_27923" data-name="Grupo 27923" transform="translate(12.838 1.507)">
          <path id="Trazado_3991" data-name="Trazado 3991" d="M43.734,81.8l.005,1.758-.263.15,0-1.755Z" transform="translate(-43.472 -81.798)" fill="#993328"/>
        </g>
        <g id="Grupo_27924" data-name="Grupo 27924" transform="translate(14.233 0.702)">
          <path id="Trazado_3992" data-name="Trazado 3992" d="M45.295,80.9l0,1.13-.262.152-.005-1.132Z" transform="translate(-45.032 -80.898)" fill="#993328"/>
        </g>
        <g id="Grupo_27925" data-name="Grupo 27925" transform="translate(13.708 0.301)">
          <path id="Trazado_3993" data-name="Trazado 3993" d="M44.708,80.45l.006,2.509-.263.15L44.445,80.6Z" transform="translate(-44.445 -80.45)" fill="#993328"/>
        </g>
        <g id="Grupo_27926" data-name="Grupo 27926" transform="translate(13.271)">
          <path id="Trazado_3994" data-name="Trazado 3994" d="M44.218,80.113l.011,3.715-.263.15-.01-3.714Z" transform="translate(-43.957 -80.113)" fill="#993328"/>
        </g>
        <g id="Grupo_27927" data-name="Grupo 27927" transform="translate(3.49 5.9)">
          <path id="Trazado_3995" data-name="Trazado 3995" d="M33.285,86.708l.006,2.133-.261.153-.006-2.136Z" transform="translate(-33.024 -86.708)" fill="#993328"/>
        </g>
        <g id="Grupo_27928" data-name="Grupo 27928" transform="translate(4.89 6.097)">
          <path id="Trazado_3996" data-name="Trazado 3996" d="M34.851,86.928l.006,2.157-.26.151-.007-2.158Z" transform="translate(-34.589 -86.928)" fill="#993328"/>
        </g>
        <g id="Grupo_27929" data-name="Grupo 27929" transform="translate(4.363 5.697)">
          <path id="Trazado_3997" data-name="Trazado 3997" d="M34.263,86.481l.008,2.508-.262.151L34,86.633Z" transform="translate(-34 -86.481)" fill="#993328"/>
        </g>
        <g id="Grupo_27930" data-name="Grupo 27930" transform="translate(5.934 4.237)">
          <path id="Trazado_3998" data-name="Trazado 3998" d="M36.018,84.849l.006,2.386-.262.151L35.755,85Z" transform="translate(-35.755 -84.849)" fill="#993328"/>
        </g>
        <g id="Grupo_27931" data-name="Grupo 27931" transform="translate(5.412 5.091)">
          <path id="Trazado_3999" data-name="Trazado 3999" d="M35.434,85.8l.009,2.508-.263.152-.008-2.508Z" transform="translate(-35.172 -85.804)" fill="#993328"/>
        </g>
        <g id="Grupo_27932" data-name="Grupo 27932" transform="translate(2.966 6.503)">
          <path id="Trazado_4000" data-name="Trazado 4000" d="M32.7,87.382l.009,2.508-.263.152-.008-2.508Z" transform="translate(-32.439 -87.382)" fill="#993328"/>
        </g>
        <g id="Grupo_27933" data-name="Grupo 27933" transform="translate(3.928 5.395)">
          <path id="Trazado_4001" data-name="Trazado 4001" d="M33.774,86.144l.01,3.714-.258.15-.011-3.713Z" transform="translate(-33.514 -86.144)" fill="#993328"/>
        </g>
        <g id="Grupo_27934" data-name="Grupo 27934" transform="translate(6.985 4.887)">
          <path id="Trazado_4002" data-name="Trazado 4002" d="M37.2,85.575l0,1.13-.263.152,0-1.131Z" transform="translate(-36.931 -85.575)" fill="#993328"/>
        </g>
        <g id="Grupo_27935" data-name="Grupo 27935" transform="translate(8.384 4.079)">
          <path id="Trazado_4003" data-name="Trazado 4003" d="M38.758,84.673l0,2.156-.262.152-.005-2.157Z" transform="translate(-38.495 -84.673)" fill="#993328"/>
        </g>
        <g id="Grupo_27936" data-name="Grupo 27936" transform="translate(7.858 3.679)">
          <path id="Trazado_4004" data-name="Trazado 4004" d="M38.167,84.226l.008,2.51-.261.15-.007-2.509Z" transform="translate(-37.907 -84.226)" fill="#993328"/>
        </g>
        <g id="Grupo_27937" data-name="Grupo 27937" transform="translate(9.431 3.475)">
          <path id="Trazado_4005" data-name="Trazado 4005" d="M39.926,84l0,1.131-.261.15,0-1.132Z" transform="translate(-39.665 -83.997)" fill="#993328"/>
        </g>
        <g id="Grupo_27938" data-name="Grupo 27938" transform="translate(8.909 4.328)">
          <path id="Trazado_4006" data-name="Trazado 4006" d="M39.345,84.951l0,1.255-.262.152,0-1.256Z" transform="translate(-39.082 -84.951)" fill="#993328"/>
        </g>
        <g id="Grupo_27939" data-name="Grupo 27939" transform="translate(6.46 4.487)">
          <path id="Trazado_4007" data-name="Trazado 4007" d="M36.605,85.128l.008,2.509-.262.15-.007-2.509Z" transform="translate(-36.344 -85.128)" fill="#993328"/>
        </g>
        <g id="Grupo_27940" data-name="Grupo 27940" transform="translate(7.421 3.38)">
          <path id="Trazado_4008" data-name="Trazado 4008" d="M37.677,83.892l.011,3.712-.259.15-.011-3.713Z" transform="translate(-37.417 -83.892)" fill="#993328"/>
        </g>
      </g>
    </g>
    <g id="Grupo_27945" data-name="Grupo 27945" transform="translate(37.526 62.392)">
      <path id="Trazado_4009" data-name="Trazado 4009" d="M40.441,72.567c.008-.069.014-.136.026-.2s.025-.159.039-.238c.01-.05.02-.1.03-.15s.026-.1.038-.156c.016-.068.034-.136.055-.2.009-.04.022-.08.035-.119.025-.079.052-.157.081-.235.01-.031.021-.063.032-.093.042-.107.083-.212.128-.318.005-.016.014-.03.021-.046.04-.091.084-.181.126-.269.018-.032.034-.064.05-.1.043-.084.089-.167.134-.25.013-.02.022-.04.035-.061.058-.1.118-.2.182-.3.019-.028.038-.056.055-.083.047-.069.095-.138.142-.2l.082-.113c.043-.056.088-.111.131-.166s.076-.093.115-.138.072-.082.108-.123c.064-.072.128-.14.2-.208.04-.041.082-.083.123-.122s.066-.063.1-.093c.053-.048.107-.1.161-.142.034-.029.068-.056.1-.082.06-.048.12-.093.182-.139.03-.02.059-.043.089-.064.09-.062.183-.122.276-.175s.179-.1.265-.139l.071-.03c.047-.021.1-.039.145-.057a2.093,2.093,0,0,1,.2-.071c.044-.013.089-.027.13-.036l.117-.027c.055-.008.106-.017.157-.023.028,0,.055-.006.084-.008a1.622,1.622,0,0,1,.186-.005c.014,0,.03,0,.044,0a1.489,1.489,0,0,1,.213.027l.052.012a1.64,1.64,0,0,1,.164.047.432.432,0,0,0,.044.016,1.645,1.645,0,0,1,.192.091c-.522-.305-.522-.305-1.088-.633l-.017-.009a1.556,1.556,0,0,0-.145-.072c-.01,0-.021-.007-.03-.011l-.045-.015c-.027-.01-.051-.02-.078-.027s-.055-.013-.084-.02l-.053-.013-.028,0a1.1,1.1,0,0,0-.174-.021h-.012c-.014,0-.03,0-.045,0-.044,0-.089,0-.136,0a.458.458,0,0,0-.049,0l-.085.008c-.028,0-.055,0-.083.009s-.049.01-.074.015-.077.016-.115.025c-.021.005-.043.007-.065.013s-.045.017-.065.023c-.067.02-.137.043-.2.07-.025.01-.049.015-.073.025l-.071.033-.068.031c-.088.041-.176.087-.268.138s-.183.114-.276.176c-.03.02-.059.043-.088.064-.062.045-.123.089-.183.138-.034.027-.068.055-.1.082-.055.046-.111.093-.163.141l-.1.095-.06.055c-.02.021-.038.043-.059.064-.068.069-.133.14-.2.212-.018.022-.038.042-.058.064l-.046.055-.119.145c-.022.029-.047.055-.07.088h0c-.021.025-.038.052-.06.078s-.053.071-.079.107-.038.049-.055.075c-.03.043-.057.085-.087.128s-.04.059-.059.089l-.022.035c-.051.081-.1.163-.15.245l-.008.015-.029.049c-.034.06-.068.119-.1.181l-.044.081c-.014.03-.028.058-.043.088s-.025.052-.038.077c-.03.064-.059.127-.088.191-.008.018-.016.037-.025.055l0,.007c-.038.087-.074.174-.107.259l-.018.05c-.012.03-.022.061-.033.092s-.032.089-.047.132-.02.067-.03.1-.025.081-.037.121a.494.494,0,0,0-.023.076c-.013.045-.022.089-.034.133s-.025.1-.037.148c0,.017-.008.035-.012.052-.008.035-.012.07-.019.106-.013.077-.028.156-.04.232,0,.021-.006.044-.01.064-.006.047-.01.1-.015.143s-.006.07-.01.1c-.007.11-.012.217-.012.32a2.032,2.032,0,0,0,.845,1.862l1.09.633a2.03,2.03,0,0,1-.847-1.861c0-.106,0-.213.013-.321C40.434,72.637,40.438,72.6,40.441,72.567Z" transform="translate(-39.331 -66.95)" fill="#d66767"/>
      <g id="Grupo_27943" data-name="Grupo 27943" transform="translate(1.088 0.631)">
        <path id="Trazado_4010" data-name="Trazado 4010" d="M43.441,68.054c1.6-.926,2.908-.183,2.913,1.66a6.381,6.381,0,0,1-2.893,5.011c-1.6.925-2.91.184-2.914-1.659A6.385,6.385,0,0,1,43.441,68.054Z" transform="translate(-40.547 -67.656)" fill="url(#linear-gradient-4)"/>
      </g>
      <g id="Grupo_27944" data-name="Grupo 27944" transform="translate(3.373 3.459)">
        <path id="Trazado_4011" data-name="Trazado 4011" d="M43.1,70.88l2.487-.064L43.11,73.848Z" transform="translate(-43.101 -70.816)" fill="#993328"/>
      </g>
    </g>
    <g id="Grupo_27946" data-name="Grupo 27946" transform="translate(83.624 90.814)" opacity="0.2">
      <path id="Trazado_4012" data-name="Trazado 4012" d="M107.662,100.39c3.863,2.228,3.885,5.845.048,8.075a15.364,15.364,0,0,1-13.945,0c-3.861-2.23-3.885-5.847-.046-8.076A15.366,15.366,0,0,1,107.662,100.39Z" transform="translate(-90.855 -98.717)"/>
    </g>
    <g id="Grupo_27954" data-name="Grupo 27954" transform="translate(81.704 53.395)">
      <g id="Grupo_27947" data-name="Grupo 27947" transform="translate(6.207)">
        <path id="Trazado_4013" data-name="Trazado 4013" d="M98.412,59.864A9.4,9.4,0,0,0,97.9,58.24a2.939,2.939,0,0,0-1.975-1.346c-.565-.028-.179.515.417,1.108a1.184,1.184,0,0,1,.538,1.046,4.317,4.317,0,0,0,.362,1.462C97.386,60.823,98.412,59.864,98.412,59.864Z" transform="translate(-95.646 -56.894)" fill="#efb185"/>
        <path id="Trazado_4014" data-name="Trazado 4014" d="M97.2,60.459a4.881,4.881,0,0,0-.606-1.327c-.376-.41.019-.859-.254-1.124-.463-.46-.8-.91-.657-1.06.327.375.972.159,1.478,1.348a8.031,8.031,0,0,1,.411,2.1C97.324,60.515,97.257,60.584,97.2,60.459Z" transform="translate(-95.646 -56.9)" fill="#e6a376"/>
        <path id="Trazado_4015" data-name="Trazado 4015" d="M108.118,65.315s.106,1.767-2.185,1.44-6.483-1.44-7.128-2.44a23.843,23.843,0,0,1-1.53-3.8s1.12.219,1.413-.709l2.205,3.33S108.073,64.079,108.118,65.315Z" transform="translate(-95.817 -57.2)" fill="#ea4bbd"/>
        <path id="Trazado_4016" data-name="Trazado 4016" d="M97.65,60.481s-1.128-1.126-1.422-1.519-.335-.786-.212-.765,1.041,1.128,1.334.7C97.506,58.673,97.523,60.282,97.65,60.481Z" transform="translate(-95.678 -57.031)" fill="#efb185"/>
      </g>
      <path id="Trazado_4017" data-name="Trazado 4017" d="M101.911,104.824s.759,1.215-.3,1.506-.735-.37-3.029.21-2.024-.71-1.973-.978,1.05-.629,1.551-.762,2.5-.592,2.5-.592l1.225.225Z" transform="translate(-89.537 -61.876)" fill="#111114"/>
      <path id="Trazado_4018" data-name="Trazado 4018" d="M104.008,101.134s-.875.132-.662.638,1.222,1.274,1.353,1.6a3.875,3.875,0,0,0,1.224,1.356c.474.081.959.054.879-1.253A2.866,2.866,0,0,0,104.008,101.134Z" transform="translate(-90.246 -61.552)" fill="#111114"/>
      <path id="Trazado_4019" data-name="Trazado 4019" d="M107.869,76.249s1.7,2.528.595,6.8c0,0-1.91,6.441-1.567,7.707s1.663,2.837.737,6.912a30.5,30.5,0,0,0-.769,3.071c-.06.685-1.2.75-1.361-.019-.356-1.63-.089-4.057-.336-5.263-.808-3.949-1.228-6.009-.97-8.695s-.056-8.772-.056-8.772S107.186,78.3,107.869,76.249Z" transform="translate(-90.332 -58.932)" fill="#efb185"/>
      <path id="Trazado_4020" data-name="Trazado 4020" d="M105.6,77.963s1.465,2.679-.036,6.823c0,0-2.5,6.237-2.277,7.529s1.279,2.13.089,6.951a21.637,21.637,0,0,0-1.046,2.986c-.124,1.06-1.193,1.193-1.306.415-.231-1.584.238-4.607.106-5.832-.435-4.007-.667-6.1-.16-8.747s.76-8.74.76-8.74S104.727,79.947,105.6,77.963Z" transform="translate(-89.969 -59.113)" fill="#efb185"/>
      <path id="Trazado_4021" data-name="Trazado 4021" d="M101.336,67.693s4.779-4.694,6.4-3.327c0,0,1.45,1.109.855,4.947s-1.537,4.524-.6,6.827c0,0-1.877,3.758-6.657,2.05,0,0,.735-3.806.171-4.932-1.406-2.812-1.5-4.252-.361-5.342Z" transform="translate(-89.936 -57.654)" fill="#ff61cb"/>
      <path id="Trazado_4022" data-name="Trazado 4022" d="M107.923,77.555s2.009,1.7,1.081,7.638c-.63,4.018-.376,2.924-.376,2.924s-4.829,3.724-8.922,1.845a38.231,38.231,0,0,0,.421-4.235c.457-4.949,1.139-6.121,1.139-6.121A5.744,5.744,0,0,0,107.923,77.555Z" transform="translate(-89.867 -59.07)" fill="#632bee"/>
      <path id="Trazado_4023" data-name="Trazado 4023" d="M100.648,104.6a.97.97,0,0,0,1.675.291s.169,1.4-.836,1.221S100.079,104.884,100.648,104.6Z" transform="translate(-89.938 -61.917)" fill="#111114"/>
      <g id="Grupo_27953" data-name="Grupo 27953" transform="translate(0 10.23)">
        <g id="Grupo_27950" data-name="Grupo 27950" transform="translate(0 0.834)">
          <g id="Grupo_27948" data-name="Grupo 27948">
            <path id="Trazado_4024" data-name="Trazado 4024" d="M91.414,71.77s-1.15-.025-1.554-.512a5.566,5.566,0,0,1-1.094-1.447c-.131-.454-.041-.617.32-.528a6.422,6.422,0,0,1,1.836,1.143,1.426,1.426,0,0,0,.784.452C91.878,70.943,92.014,71.524,91.414,71.77Z" transform="translate(-88.708 -69.26)" fill="#efb185"/>
          </g>
          <g id="Grupo_27949" data-name="Grupo 27949" transform="translate(0.241 0.001)">
            <path id="Trazado_4025" data-name="Trazado 4025" d="M91.734,70.879a1.426,1.426,0,0,1-.784-.452,6.422,6.422,0,0,0-1.836-1.143.522.522,0,0,0-.136-.022c.291.3.783.8,1.224,1.238a3.482,3.482,0,0,0,1.667.791C91.9,71.093,91.827,70.912,91.734,70.879Z" transform="translate(-88.978 -69.261)" fill="#efb185"/>
          </g>
        </g>
        <g id="Grupo_27952" data-name="Grupo 27952" transform="translate(2.393)">
          <g id="Grupo_27951" data-name="Grupo 27951">
            <path id="Trazado_4026" data-name="Trazado 4026" d="M101.769,68.823c-.324-.446-1.153-.895-2.217.119s-4,3.87-4,3.87-3.386-2.046-3.811-2.222a.8.8,0,0,1-.361,1.087s2.791,3.41,4.1,3.287S103.1,70.664,101.769,68.823Z" transform="translate(-91.383 -68.328)" fill="#ea4bbd"/>
          </g>
        </g>
        <path id="Trazado_4027" data-name="Trazado 4027" d="M91.728,70.962s-.667-1.034-.919-1.317-.538-.379-.544-.285.686.972.317,1.123C90.387,70.562,91.6,70.834,91.728,70.962Z" transform="translate(-88.872 -68.433)" fill="#efb185"/>
      </g>
      <path id="Trazado_4028" data-name="Trazado 4028" d="M103.042,64.8l-.183,2.184a2.773,2.773,0,0,0,3.428-.635L106.052,64A5.072,5.072,0,0,1,103.042,64.8Z" transform="translate(-90.199 -57.642)" fill="#efb185"/>
      <path id="Trazado_4029" data-name="Trazado 4029" d="M103.579,57.5a3.069,3.069,0,0,0-2.372,1.262c-1.028,1.219-1.1,2.515-.2,4.252a5.1,5.1,0,0,1-.59,4.758c-.407.371,5.014.254,7.115-2.88C107.528,64.89,108.521,57.04,103.579,57.5Z" transform="translate(-89.937 -56.955)" fill="#231202"/>
      <path id="Trazado_4030" data-name="Trazado 4030" d="M100.036,104.453s.573-.184.665-1.21a2.606,2.606,0,0,0,2,.211,7.958,7.958,0,0,1-.246,2.435S99.738,105.488,100.036,104.453Z" transform="translate(-89.899 -61.775)" fill="#111114"/>
      <path id="Trazado_4031" data-name="Trazado 4031" d="M105.5,102.457s.816,1.068,1.573.624c0,0-.027.926-.049,1.079a.949.949,0,0,1-1.163.055A2.441,2.441,0,0,1,105.5,102.457Z" transform="translate(-90.471 -61.692)" fill="#111114"/>
    </g>
  </g>
</svg>
