<svg xmlns="http://www.w3.org/2000/svg" width="396" height="241.161" viewBox="0 0 396 241.161">
  <g id="Grupo_55724" data-name="Grupo 55724" transform="translate(-908 -4387)">
    <rect id="Rectángulo_5001" data-name="Rectángulo 5001" width="396" height="183" transform="translate(908 4445.161)" fill="#fffbdc"/>
    <g id="subasta" transform="translate(984.18 4371.749)">
      <path id="Trazado_4929" data-name="Trazado 4929" d="M176.351,199.133l-26.763-56.319a14.985,14.985,0,0,0-13.5-8.548v-.017H64.011a28.72,28.72,0,0,0-28.72,28.72v65.307H136.084V184.291l13.171,27.718a15,15,0,1,0,27.1-12.876Z" fill="#cecece"/>
      <g id="Grupo_28635" data-name="Grupo 28635">
        <path id="Trazado_4930" data-name="Trazado 4930" d="M70.512,134.248h-6.5a28.72,28.72,0,0,0-28.72,28.72v65.307h6.5V162.968a28.72,28.72,0,0,1,28.72-28.72Z" fill="#afafaf"/>
      </g>
      <circle id="Elipse_336" data-name="Elipse 336" cx="8.5" cy="8.5" r="8.5" transform="translate(48.806 68.413)" fill="#f87023"/>
      <circle id="Elipse_337" data-name="Elipse 337" cx="8.5" cy="8.5" r="8.5" transform="translate(116.953 68.413)" fill="#f8af23"/>
      <path id="Trazado_4931" data-name="Trazado 4931" d="M94.051,144.883H90.708a14,14,0,0,1-14-14V107.392a14,14,0,0,1,14-14h3.343a14,14,0,0,1,14,14v23.491A14,14,0,0,1,94.051,144.883Z" fill="#f8af23"/>
      <g id="Grupo_28636" data-name="Grupo 28636">
        <path id="Trazado_4932" data-name="Trazado 4932" d="M83.208,130.883V107.392a14,14,0,0,1,12.421-13.9,14.182,14.182,0,0,0-1.579-.1H90.707a14,14,0,0,0-14,14v23.491a14,14,0,0,0,14,14H94.05a13.959,13.959,0,0,0,1.579-.1A14,14,0,0,1,83.208,130.883Z" fill="#f87023"/>
      </g>
      <path id="Trazado_4933" data-name="Trazado 4933" d="M92.379,120.791A35.074,35.074,0,0,1,57.3,85.717V69.683a35.074,35.074,0,0,1,70.148,0V85.717A35.074,35.074,0,0,1,92.379,120.791Z" fill="#f8af23"/>
      <g id="Grupo_28637" data-name="Grupo 28637">
        <path id="Trazado_4934" data-name="Trazado 4934" d="M63.806,85.717V69.683A35.073,35.073,0,0,1,95.63,34.765c-1.071-.1-2.154-.156-3.25-.156A35.074,35.074,0,0,0,57.306,69.683V85.717A35.074,35.074,0,0,0,92.38,120.791c1.1,0,2.179-.057,3.25-.156A35.071,35.071,0,0,1,63.806,85.717Z" fill="#f87023"/>
      </g>
      <path id="Trazado_4935" data-name="Trazado 4935" d="M76.708,126.879l15.671,18L79.413,153l-7-18.75Z" fill="#63bce7"/>
      <path id="Trazado_4936" data-name="Trazado 4936" d="M108.051,126.879l-15.672,18L105.346,153l7-18.75Z" fill="#63bce7"/>
      <path id="Trazado_4937" data-name="Trazado 4937" d="M127.453,77.7H124.24l-3.214-17.322,6.427-2Z" fill="#9e9e9e"/>
      <path id="Trazado_4938" data-name="Trazado 4938" d="M57.306,77.7h4.6l5.375-16.072s36.125,24.125,65.875-4.25c22.888-21.83-14.228-32.415-32.567-36.136A33.947,33.947,0,0,0,83.21,22.285l-21.46,7.07a8.754,8.754,0,0,0-6.015,8.315,19.225,19.225,0,0,0-4.791,19.212Z" fill="#9e9e9e"/>
      <g id="Grupo_28638" data-name="Grupo 28638">
        <path id="Trazado_4939" data-name="Trazado 4939" d="M62.234,37.67a8.755,8.755,0,0,1,6.015-8.315l21.46-7.07a34.142,34.142,0,0,1,7.415-1.542,34.006,34.006,0,0,0-13.915,1.542l-21.46,7.07a8.754,8.754,0,0,0-6.015,8.315,19.225,19.225,0,0,0-4.791,19.212L57.306,77.7h4.6l.995-2.976L57.443,56.881A19.226,19.226,0,0,1,62.234,37.67Z" fill="#707070"/>
      </g>
      <g id="Grupo_28639" data-name="Grupo 28639">
        <path id="Trazado_4940" data-name="Trazado 4940" d="M164.158,130l-16,72.328a15,15,0,1,0,29.291,6.479l16-72.328Z" fill="#cecece"/>
      </g>
      <g id="Grupo_28640" data-name="Grupo 28640">
        <path id="Trazado_4941" data-name="Trazado 4941" d="M187.292,135.121l-16.343,73.69a14.99,14.99,0,0,1-11.414,11.4l.029.008A14.985,14.985,0,0,0,177.45,208.81l16-72.328Z" fill="#e2e2e2"/>
      </g>
      <path id="Trazado_4942" data-name="Trazado 4942" d="M173.334,68.395h14.5v81.9h-14.5Z" fill="#9e9e9e"/>
      <g id="Grupo_28641" data-name="Grupo 28641">
        <path id="Trazado_4943" data-name="Trazado 4943" d="M181.334,68.395h6.5v81.9h-6.5Z" fill="#cecece"/>
      </g>
      <circle id="Elipse_338" data-name="Elipse 338" cx="40.125" cy="40.125" r="40.125" transform="translate(140.459 16.751)" fill="#f46275"/>
      <g id="Grupo_28642" data-name="Grupo 28642">
        <path id="Trazado_4944" data-name="Trazado 4944" d="M180.584,16.751c-1.1,0-2.177.056-3.25.142a40.114,40.114,0,0,1,0,79.966c1.073.086,2.155.142,3.25.142a40.125,40.125,0,0,0,0-80.25Z" fill="#f48875"/>
      </g>
      <path id="Trazado_4945" data-name="Trazado 4945" d="M193.449,136.482h-15.11a9.693,9.693,0,0,1-9.693-9.693V114.2a9.693,9.693,0,0,1,9.693-9.693h15.11Z" fill="#f8af23"/>
      <g id="Grupo_28643" data-name="Grupo 28643">
        <path id="Trazado_4946" data-name="Trazado 4946" d="M186.949,104.51h6.5v31.972h-6.5Z" fill="#f8d323"/>
      </g>
      <g id="Grupo_28644" data-name="Grupo 28644">
        <path id="Trazado_4947" data-name="Trazado 4947" d="M200.762,56.852V70.7a3.8,3.8,0,0,1-1.214,2.808,3.974,3.974,0,0,1-2.879,1.19H184.486v9.756a3.821,3.821,0,0,1-1.189,2.832,3.877,3.877,0,0,1-2.808,1.166,3.99,3.99,0,0,1-2.9-1.166,3.818,3.818,0,0,1-1.19-2.832V74.6H164.309a3.876,3.876,0,0,1-2.808-1.166,3.993,3.993,0,0,1-.024-5.664,3.857,3.857,0,0,1,2.832-1.166h28.269V60.85H164.4a3.9,3.9,0,0,1-2.831-1.142,3.827,3.827,0,0,1-1.167-2.856v-13.8a3.983,3.983,0,0,1,4-4H176.4V29.3a3.948,3.948,0,0,1,4.141-4,3.8,3.8,0,0,1,2.784,1.166,3.857,3.857,0,0,1,1.166,2.832v9.756h12.278a3.977,3.977,0,0,1,2.879,1.189,3.805,3.805,0,0,1,1.214,2.808,4.146,4.146,0,0,1-4.093,4.093H168.5v5.71H196.67a3.978,3.978,0,0,1,2.879,1.19A3.8,3.8,0,0,1,200.762,56.852Z" fill="#f8af23"/>
      </g>
      <g id="Grupo_28645" data-name="Grupo 28645">
        <path id="Trazado_4948" data-name="Trazado 4948" d="M27.323,237.749h-18a1.5,1.5,0,0,0,0,3h18a1.5,1.5,0,0,0,0-3Z" fill="#3f3679"/>
        <path id="Trazado_4949" data-name="Trazado 4949" d="M246.68,237.749h-18a1.5,1.5,0,0,0,0,3h18a1.5,1.5,0,0,0,0-3Z" fill="#3f3679"/>
        <path id="Trazado_4950" data-name="Trazado 4950" d="M218.479,237.749H37.521a1.5,1.5,0,1,0,0,3H218.48a1.5,1.5,0,1,0,0-3Z" fill="#3f3679"/>
        <path id="Trazado_4951" data-name="Trazado 4951" d="M136.084,229.776h110.6a1.5,1.5,0,0,0,0-3h-109.1V190.943L147.9,212.652c.014.029.033.053.049.081a16.6,16.6,0,0,0,.942,1.71,16.391,16.391,0,0,0,10.349,7.239,16.481,16.481,0,0,0,19.674-12.546l16-72.328s0,0,0-.006a1.521,1.521,0,0,0,.036-.319V104.51a1.5,1.5,0,0,0-1.5-1.5h-4.114V97.568a41.623,41.623,0,1,0-47.669-55.435c-.065-.329-.143-.657-.237-.983-1.838-6.372-10.363-15.253-40.546-21.378A35.523,35.523,0,0,0,82.742,20.86L61.28,27.93a10.237,10.237,0,0,0-7.027,9.112A20.682,20.682,0,0,0,49.509,57.32L52.773,68a9.991,9.991,0,0,0,3.06,18.791A36.6,36.6,0,0,0,75.208,118v8.478l-3.653,6.273H64.012a30.255,30.255,0,0,0-30.221,30.22v63.808H9.32a1.5,1.5,0,0,0,0,3H136.084Zm0-59.866a1.5,1.5,0,0,0-1.5,1.5v55.366H93.88V147.591l10.67,6.679a1.5,1.5,0,0,0,.8.229,1.481,1.481,0,0,0,.482-.08,1.5,1.5,0,0,0,.923-.9l6.632-17.774h22.473a1.481,1.481,0,0,0,.223.017,13.571,13.571,0,0,1,12.154,7.692l7.7,16.21a1.4,1.4,0,0,0,.091.136l-9.336,42.2c-.06.273-.094.547-.14.82l-8.968-18.874V171.41A1.5,1.5,0,0,0,136.084,169.91Zm-28.276-40.467,2.881,4.947-6.105,16.361-9.919-6.208Zm68.175,79.043a13.482,13.482,0,0,1-16.1,10.266,13.5,13.5,0,0,1-10.265-16.1L165.3,131.792l3.468.767a11.24,11.24,0,0,0,3.069,3.321v14.412a1.5,1.5,0,0,0,1.5,1.5h14.5a1.478,1.478,0,0,0,.735-.2Zm15.6-70.5-2.246,10.153V137.982Zm-16.746-.569a11.133,11.133,0,0,0,3.5.57h8v10.811h-11.5Zm17.114-2.431h-13.61a8.2,8.2,0,0,1-8.192-8.193V114.2a8.2,8.2,0,0,1,8.192-8.193h13.61Zm-5.614-31.972h-8a11.138,11.138,0,0,0-3.5.57V98.1a40.921,40.921,0,0,0,11.5,0Zm-5.75-84.759a38.625,38.625,0,1,1-38.625,38.625A38.669,38.669,0,0,1,180.584,18.251Zm-8.75,79.317v7.544a11.177,11.177,0,0,0-4.688,9.092V126.79a11.153,11.153,0,0,0,.265,2.4l-2.929-.648a1.5,1.5,0,0,0-1.789,1.141l-5.618,25.394-6.132-12.9a16.586,16.586,0,0,0-14.614-9.4,1.516,1.516,0,0,0-.244-.02H113.2l-3.653-6.273V118a36.6,36.6,0,0,0,19.388-31.71,10,10,0,0,0,.014-18.742V62.894a56.834,56.834,0,0,0,5.233-4.429,32.551,32.551,0,0,0,5-5.907,41.628,41.628,0,0,0,32.65,45.01ZM128.953,77.7V70.877a6.956,6.956,0,0,1,0,12.073Zm-3-8.016V76.2h-.467l-1.825-9.839q1.147-.654,2.292-1.39ZM62.22,30.78l21.46-7.069a32.508,32.508,0,0,1,16.606-1c10.443,2.119,35.078,8.239,38.26,19.269,1.228,4.256-.937,9.072-6.43,14.312-11.939,11.388-26.295,15.561-42.672,12.4a65.489,65.489,0,0,1-21-8.1L57.258,37.376a7.226,7.226,0,0,1,4.962-6.6Zm-6.856,9.577L65.66,61.73,60.821,76.2h-2.4L52.378,56.443a17.679,17.679,0,0,1,2.986-16.086ZM50.306,76.913a6.956,6.956,0,0,1,3.364-5.977l2.136,6.989v5.822A7.009,7.009,0,0,1,50.306,76.913Zm8.5,8.8V79.2h3.1a1.5,1.5,0,0,0,1.423-1.024l4.782-14.3c6.33,3.614,29.714,15.166,52.776,3.949l1.882,10.148A1.5,1.5,0,0,0,124.24,79.2h1.714v6.517a33.574,33.574,0,1,1-67.148,0ZM92.38,122.291a36.382,36.382,0,0,0,14.171-2.858v6.885L92.38,142.6l-14.172-16.28v-6.885a36.387,36.387,0,0,0,14.172,2.858Zm-15.429,7.152,13.145,15.1-9.92,6.208L74.07,134.39Zm-40.16,33.526a27.251,27.251,0,0,1,27.221-27.22h7.364l6.632,17.774a1.5,1.5,0,0,0,2.2.747l10.671-6.679v79.186H61.713V171.41a1.5,1.5,0,0,0-3,0v55.367H36.791Z" fill="#3f3679"/>
        <circle id="Elipse_339" data-name="Elipse 339" cx="3.125" cy="3.125" r="3.125" transform="translate(79.348 80.397)" fill="#3f3679"/>
        <circle id="Elipse_340" data-name="Elipse 340" cx="3.125" cy="3.125" r="3.125" transform="translate(105.661 80.397)" fill="#3f3679"/>
        <path id="Trazado_4952" data-name="Trazado 4952" d="M94.776,99.253h3.718a1.5,1.5,0,0,0,1.453-1.874L97.083,86.273a1.5,1.5,0,1,0-2.9.749l2.381,9.232H94.778a1.5,1.5,0,0,0,0,3Z" fill="#3f3679"/>
        <path id="Trazado_4953" data-name="Trazado 4953" d="M100.858,108.152a1.5,1.5,0,1,0-2.027-2.211,4.837,4.837,0,0,1-6.4,0,1.5,1.5,0,1,0-2.027,2.211,7.718,7.718,0,0,0,10.457,0Z" fill="#3f3679"/>
        <path id="Trazado_4954" data-name="Trazado 4954" d="M88.106,73.952H76.69a1.5,1.5,0,0,0,0,3H88.106a1.5,1.5,0,0,0,0-3Z" fill="#3f3679"/>
        <path id="Trazado_4955" data-name="Trazado 4955" d="M103.077,76.952h11.417a1.5,1.5,0,0,0,0-3H103.077a1.5,1.5,0,0,0,0,3Z" fill="#3f3679"/>
        <path id="Trazado_4956" data-name="Trazado 4956" d="M164.309,65.108a5.5,5.5,0,0,0,0,10.994H174.9v8.351a5.28,5.28,0,0,0,1.64,3.9,5.453,5.453,0,0,0,3.953,1.6,5.354,5.354,0,0,0,3.859-1.6,5.288,5.288,0,0,0,1.639-3.9V76.2h10.684a5.441,5.441,0,0,0,3.929-1.619,5.27,5.27,0,0,0,1.664-3.878V56.852a5.275,5.275,0,0,0-1.664-3.879,5.448,5.448,0,0,0-3.929-1.619H170v-2.71h26.769a5.645,5.645,0,0,0,5.592-5.593,5.269,5.269,0,0,0-1.664-3.879,5.442,5.442,0,0,0-3.929-1.618H185.987V29.3a5.327,5.327,0,0,0-1.6-3.893,5.269,5.269,0,0,0-3.845-1.6,5.446,5.446,0,0,0-5.64,5.5v8.256H164.405a5.482,5.482,0,0,0-5.5,5.5v13.8a5.292,5.292,0,0,0,1.617,3.927,5.364,5.364,0,0,0,3.881,1.571h26.674v2.758h-26.77Zm28.268-5.758H164.4a2.4,2.4,0,0,1-1.783-.715,2.339,2.339,0,0,1-.715-1.783v-13.8a2.482,2.482,0,0,1,2.5-2.5H176.4a1.5,1.5,0,0,0,1.5-1.5V29.3a2.463,2.463,0,0,1,.712-1.781,2.408,2.408,0,0,1,1.929-.717,2.307,2.307,0,0,1,1.724.727,2.364,2.364,0,0,1,.727,1.771v9.756a1.5,1.5,0,0,0,1.5,1.5h12.278a2.474,2.474,0,0,1,1.829.761,2.313,2.313,0,0,1,.764,1.737,2.644,2.644,0,0,1-2.592,2.593H168.5a1.5,1.5,0,0,0-1.5,1.5v5.71a1.5,1.5,0,0,0,1.5,1.5h28.174a2.473,2.473,0,0,1,1.828.761,2.315,2.315,0,0,1,.765,1.736V70.7a2.311,2.311,0,0,1-.764,1.736,2.472,2.472,0,0,1-1.829.761H184.488a1.5,1.5,0,0,0-1.5,1.5v9.756a2.326,2.326,0,0,1-.739,1.761,2.383,2.383,0,0,1-1.759.737,2.489,2.489,0,0,1-1.853-.737,2.323,2.323,0,0,1-.74-1.761V74.6a1.5,1.5,0,0,0-1.5-1.5H164.31a2.378,2.378,0,0,1-1.758-.737,2.323,2.323,0,0,1-.74-1.761,2.482,2.482,0,0,1,2.5-2.5h28.269a1.5,1.5,0,0,0,1.5-1.5V60.85a1.5,1.5,0,0,0-1.5-1.5Z" fill="#3f3679"/>
      </g>
    </g>
  </g>
</svg>
