<svg id="Flat" xmlns="http://www.w3.org/2000/svg" width="77" height="77.875" viewBox="0 0 77 77.875">
  <path id="Trazado_2999" data-name="Trazado 2999" d="M78.819,276.1a8.041,8.041,0,0,0-2.5-2.8,7.964,7.964,0,0,0-4.532-13.251c0-.037,0-.073,0-.111a7.944,7.944,0,0,0-.453-2.655,7.617,7.617,0,0,0-.393-.919,7.969,7.969,0,0,0-10.868-3.455,9.293,9.293,0,0,0-16.4,0,7.968,7.968,0,0,0-11.714,7.03c0,.038,0,.075,0,.111a7.963,7.963,0,0,0-4.532,13.251A7.956,7.956,0,0,0,24,279.859a8.07,8.07,0,0,0,.081,1.14,7.968,7.968,0,0,0,7.884,6.825H71.793A7.968,7.968,0,0,0,78.819,276.1Z" transform="translate(-24 -210.824)" fill="#f7afaf"/>
  <path id="Trazado_3000" data-name="Trazado 3000" d="M218.133,257.769H205.31a5.31,5.31,0,0,1-5.31-5.31V248.57a9.3,9.3,0,0,1,6.872,4.824,7.971,7.971,0,0,1,11.261,4.374Z" transform="translate(-170.793 -211.303)" fill="#f1a9a9"/>
  <path id="Trazado_3001" data-name="Trazado 3001" d="M80.168,321.948a7.966,7.966,0,0,1-7.966,7.966H32.375a7.968,7.968,0,0,1-7.884-6.822c16.123-2.947,33.453-10.275,46.865-24.632a7.616,7.616,0,0,1,.393.919,7.945,7.945,0,0,1,.453,2.655c0,.038,0,.075,0,.111A7.963,7.963,0,0,1,76.732,315.4a8.042,8.042,0,0,1,2.5,2.8A7.932,7.932,0,0,1,80.168,321.948Z" transform="translate(-24.41 -252.914)" fill="#f1a9a9"/>
  <path id="Trazado_3002" data-name="Trazado 3002" d="M160.981,349.449a4.789,4.789,0,0,1,0-8.315,1.328,1.328,0,1,0-1.317-2.305,7.348,7.348,0,0,0-3.632,5.135h-9.5a9.857,9.857,0,0,0-5.4-7.545l-.561-.28a1.328,1.328,0,1,0-1.188,2.375l.561.28a7.215,7.215,0,0,1,3.911,5.281,9.295,9.295,0,0,0-1.665,17.946,1.328,1.328,0,0,0,.885-2.5,6.639,6.639,0,0,1,2.213-12.9h10.74a7.348,7.348,0,0,0,3.632,5.135,1.328,1.328,0,1,0,1.317-2.305Z" transform="translate(-117.413 -284.223)" fill="#ed9191"/>
  <path id="Trazado_3003" data-name="Trazado 3003" d="M71.08,319.588a6.65,6.65,0,0,1-4.425-6.261,1.328,1.328,0,0,0-2.655,0,9.31,9.31,0,0,0,6.2,8.764,1.328,1.328,0,1,0,.885-2.5Z" transform="translate(-57.362 -264.207)" fill="#ed9191"/>
  <path id="Trazado_3004" data-name="Trazado 3004" d="M200.667,277.063a1.328,1.328,0,0,0,1.811-.494,4.789,4.789,0,0,1,8.315,0,1.328,1.328,0,1,0,2.305-1.317,7.368,7.368,0,0,0-3.889-3.3,10.605,10.605,0,0,0-1.437-4.172,1.328,1.328,0,1,0-2.275,1.37,7.932,7.932,0,0,1,.944,2.356,7.357,7.357,0,0,0-6.269,3.744,1.328,1.328,0,0,0,.494,1.812Z" transform="translate(-170.792 -226.79)" fill="#ed9191"/>
  <path id="Trazado_3005" data-name="Trazado 3005" d="M74.5,386.479a1.328,1.328,0,1,0-1.317-2.305,7.444,7.444,0,0,0,0,12.926,1.328,1.328,0,0,0,1.317-2.305,4.789,4.789,0,0,1,0-8.315Z" transform="translate(-61.891 -324.257)" fill="#ed9191"/>
  <path id="Trazado_3006" data-name="Trazado 3006" d="M218.353,424.385a7.86,7.86,0,0,0-.727,10.224,1.328,1.328,0,0,0,2.124-1.593,5.192,5.192,0,0,1,.48-6.754,1.328,1.328,0,1,0-1.878-1.878Z" transform="translate(-184.199 -357.617)" fill="#ed9191"/>
  <path id="Trazado_3007" data-name="Trazado 3007" d="M130.267,278.938a7.294,7.294,0,0,0,1.7-7.577l-.3-.838a1.328,1.328,0,0,0-2.5.893l.3.837a4.626,4.626,0,0,1-1.081,4.806,1.328,1.328,0,1,0,1.878,1.878Z" transform="translate(-110.742 -228.878)" fill="#ed9191"/>
  <path id="Trazado_3008" data-name="Trazado 3008" d="M227.776,29.31V61.172a5.31,5.31,0,0,1-5.31,5.31H211.845l-14.6,9.293,1.328-9.293H181.31a5.31,5.31,0,0,1-5.31-5.31V29.31A5.31,5.31,0,0,1,181.31,24h41.155a5.306,5.306,0,0,1,5.31,5.31Z" transform="translate(-150.776 -24)" fill="#348fd9"/>
  <path id="Trazado_3009" data-name="Trazado 3009" d="M227.776,29.794V61.656a5.31,5.31,0,0,1-5.31,5.31H211.845l-14.6,9.293,1.328-9.293H181.31a5.31,5.31,0,0,1-5.31-5.31v-3.3c17.464-4.723,35.359-14.912,47.476-33.78a5.311,5.311,0,0,1,4.3,5.214Z" transform="translate(-150.776 -24.484)" fill="#3086cd"/>
  <path id="Trazado_3010" data-name="Trazado 3010" d="M256,72h30.534v5.31H256Z" transform="translate(-217.5 -64.034)" fill="#f35244"/>
  <path id="Trazado_3011" data-name="Trazado 3011" d="M256,200h22.569v5.31H256Z" transform="translate(-217.5 -170.793)" fill="#ffb531"/>
  <path id="Trazado_3012" data-name="Trazado 3012" d="M256,136h15.931v5.31H256Z" transform="translate(-217.5 -117.414)" fill="#fa6d00"/>
  <g id="Grupo_27263" data-name="Grupo 27263" transform="translate(29.207 3.983)">
    <path id="Trazado_3013" data-name="Trazado 3013" d="M248,48h2.655V82.517H248Z" transform="translate(-240.034 -48)" fill="#2a71ad"/>
    <path id="Trazado_3014" data-name="Trazado 3014" d="M200,64h5.31v2.655H200Z" transform="translate(-200 -61.345)" fill="#2a71ad"/>
    <path id="Trazado_3015" data-name="Trazado 3015" d="M200,96h5.31v2.655H200Z" transform="translate(-200 -88.034)" fill="#2a71ad"/>
    <path id="Trazado_3016" data-name="Trazado 3016" d="M200,128h5.31v2.655H200Z" transform="translate(-200 -114.724)" fill="#2a71ad"/>
    <path id="Trazado_3017" data-name="Trazado 3017" d="M200,160h5.31v2.655H200Z" transform="translate(-200 -141.414)" fill="#2a71ad"/>
    <path id="Trazado_3018" data-name="Trazado 3018" d="M200,192h5.31v2.655H200Z" transform="translate(-200 -168.103)" fill="#2a71ad"/>
    <path id="Trazado_3019" data-name="Trazado 3019" d="M200,224h5.31v2.655H200Z" transform="translate(-200 -194.793)" fill="#2a71ad"/>
  </g>
</svg>
