<svg id="Grupo_27271" data-name="Grupo 27271" xmlns="http://www.w3.org/2000/svg" width="71.373" height="68.349" viewBox="0 0 71.373 68.349">
  <g id="Grupo_27270" data-name="Grupo 27270">
    <path id="Trazado_3034" data-name="Trazado 3034" d="M176.97,134.468h-.161v-4.6a1.436,1.436,0,0,0-1.436-1.436H159.121a16.181,16.181,0,0,0-29.85,0h-14.4a2.9,2.9,0,0,0-2.9,2.9v3.134H111.4a2.9,2.9,0,0,0-2.9,2.9v43.187a2.9,2.9,0,0,0,2.9,2.9H176.97a2.9,2.9,0,0,0,2.9-2.9V137.371a2.9,2.9,0,0,0-2.9-2.9Z" transform="translate(-108.5 -115.113)" fill="#382b73"/>
    <path id="Trazado_3035" data-name="Trazado 3035" d="M176.97,222.525H111.4a2.9,2.9,0,0,1-2.9-2.9V177.4a2.9,2.9,0,0,1,2.9-2.9H176.97a2.9,2.9,0,0,1,2.9,2.9v42.219A2.9,2.9,0,0,1,176.97,222.525Z" transform="translate(-108.5 -157.564)" fill="#136da0"/>
    <path id="Trazado_3036" data-name="Trazado 3036" d="M176.97,218.525H111.4a2.9,2.9,0,0,1-2.9-2.9V173.4a2.9,2.9,0,0,1,2.9-2.9H176.97a2.9,2.9,0,0,1,2.9,2.9v42.219A2.9,2.9,0,0,1,176.97,218.525Z" transform="translate(-108.5 -154.532)" fill="#1caee4"/>
    <path id="Trazado_3037" data-name="Trazado 3037" d="M155.254,324.965H125.737a2.9,2.9,0,0,1-2.9-2.9V315h32.42Z" transform="translate(-119.366 -264.071)" fill="#d1d3d4"/>
    <path id="Trazado_3038" data-name="Trazado 3038" d="M155.254,314.3H125.737a2.9,2.9,0,0,1-2.9-2.9v-7.062h32.42Z" transform="translate(-119.366 -255.986)" fill="#e6e7e8"/>
    <path id="Trazado_3039" data-name="Trazado 3039" d="M256.834,324.965h29.517a2.9,2.9,0,0,0,2.9-2.9V315h-32.42Z" transform="translate(-220.946 -264.071)" fill="#bcbec0"/>
    <path id="Trazado_3040" data-name="Trazado 3040" d="M256.834,314.3h29.517a2.9,2.9,0,0,0,2.9-2.9v-7.062h-32.42Z" transform="translate(-220.946 -255.986)" fill="#d1d3d4"/>
    <path id="Trazado_3041" data-name="Trazado 3041" d="M149.512,145.546H125.737a2.9,2.9,0,0,0-2.9,2.9v39.414a2.9,2.9,0,0,0,2.9,2.9h23.775a5.742,5.742,0,0,1,5.742,5.742V151.288a5.742,5.742,0,0,0-5.742-5.742Z" transform="translate(-119.366 -135.615)" fill="#fff"/>
    <path id="Trazado_3042" data-name="Trazado 3042" d="M287.819,145.546H262.576a5.742,5.742,0,0,0-5.742,5.742v45.22a5.742,5.742,0,0,1,5.742-5.742h25.242a1.435,1.435,0,0,0,1.436-1.436V146.982A1.436,1.436,0,0,0,287.819,145.546Z" transform="translate(-220.946 -135.615)" fill="#e6e7e8"/>
    <path id="Trazado_3043" data-name="Trazado 3043" d="M205.461,114.5H205.4c-.039,0-.078,0-.117,0a16.186,16.186,0,0,0-11.13,27.939,10.4,10.4,0,0,1,3.336,7.534v.572a1.8,1.8,0,0,0,1.8,1.8h-.108v6.7h.007a1.857,1.857,0,0,0,1.853,1.789H202.6v.215a1.8,1.8,0,0,0,1.8,1.8h1.761a1.8,1.8,0,0,0,1.8-1.8v-.215h1.564a1.857,1.857,0,0,0,1.853-1.789h.007v-6.7h-.108a1.8,1.8,0,0,0,1.8-1.8v-.389a10.847,10.847,0,0,1,3.423-7.8,16.188,16.188,0,0,0-11.034-27.86Z" transform="translate(-169.592 -112.083)" fill="#e6e7e8"/>
    <g id="Grupo_27269" data-name="Grupo 27269" transform="translate(7.775 9.93)">
      <path id="Trazado_3044" data-name="Trazado 3044" d="M256.834,151.287v35.1h.679a1.8,1.8,0,0,0,1.8-1.8v-.215h1.564a1.857,1.857,0,0,0,1.853-1.789h.007v-6.7h-.108a1.8,1.8,0,0,0,1.8-1.8v-.389a10.847,10.847,0,0,1,3.423-7.8,16.182,16.182,0,0,0,2.447-20.349h-7.719a5.743,5.743,0,0,0-5.742,5.743Z" transform="translate(-228.72 -145.544)" fill="#d1d3d4"/>
      <path id="Trazado_3045" data-name="Trazado 3045" d="M157.666,183.737H142.086a1.452,1.452,0,1,1,0-2.9h15.58a1.452,1.452,0,0,1,0,2.9Z" transform="translate(-140.634 -172.296)" fill="#d1d3d4"/>
      <path id="Trazado_3046" data-name="Trazado 3046" d="M157.666,212.4H142.086a1.452,1.452,0,1,1,0-2.9h15.58a1.452,1.452,0,0,1,0,2.9Z" transform="translate(-140.634 -194.026)" fill="#d1d3d4"/>
      <path id="Trazado_3047" data-name="Trazado 3047" d="M157.666,241.071H142.086a1.452,1.452,0,1,1,0-2.9h15.58a1.452,1.452,0,0,1,0,2.9Z" transform="translate(-140.634 -215.758)" fill="#d1d3d4"/>
      <path id="Trazado_3048" data-name="Trazado 3048" d="M157.666,269.737H142.086a1.452,1.452,0,1,1,0-2.9h15.58a1.452,1.452,0,0,1,0,2.9Z" transform="translate(-140.634 -237.489)" fill="#d1d3d4"/>
      <path id="Trazado_3049" data-name="Trazado 3049" d="M157.666,298.4H142.086a1.452,1.452,0,1,1,0-2.9h15.58a1.452,1.452,0,0,1,0,2.9Z" transform="translate(-140.634 -259.219)" fill="#d1d3d4"/>
      <path id="Trazado_3050" data-name="Trazado 3050" d="M312,183.737h-15.58a1.452,1.452,0,0,1,0-2.9H312a1.452,1.452,0,0,1,0,2.9Z" transform="translate(-257.63 -172.296)" fill="#d1d3d4"/>
      <path id="Trazado_3051" data-name="Trazado 3051" d="M312,212.4h-15.58a1.452,1.452,0,0,1,0-2.9H312a1.452,1.452,0,0,1,0,2.9Z" transform="translate(-257.63 -194.026)" fill="#d1d3d4"/>
      <path id="Trazado_3052" data-name="Trazado 3052" d="M312,241.071h-15.58a1.452,1.452,0,0,1,0-2.9H312a1.452,1.452,0,0,1,0,2.9Z" transform="translate(-257.63 -215.758)" fill="#d1d3d4"/>
      <path id="Trazado_3053" data-name="Trazado 3053" d="M312,269.737h-15.58a1.452,1.452,0,0,1,0-2.9H312a1.452,1.452,0,0,1,0,2.9Z" transform="translate(-257.63 -237.489)" fill="#d1d3d4"/>
      <path id="Trazado_3054" data-name="Trazado 3054" d="M312,298.4h-15.58a1.452,1.452,0,0,1,0-2.9H312a1.452,1.452,0,0,1,0,2.9Z" transform="translate(-257.63 -259.219)" fill="#d1d3d4"/>
    </g>
    <path id="Trazado_3055" data-name="Trazado 3055" d="M221.466,120.688a16.188,16.188,0,1,0-27.319,11.755,10.4,10.4,0,0,1,3.336,7.534v.572a1.8,1.8,0,0,0,1.8,1.8h11.991a1.8,1.8,0,0,0,1.8-1.8v-.389a10.847,10.847,0,0,1,3.423-7.8,16.137,16.137,0,0,0,4.972-11.672Z" transform="translate(-169.592 -104.5)" fill="#009add"/>
    <path id="Trazado_3056" data-name="Trazado 3056" d="M233.816,120.688c0-8.88-4.593-16.09-10.282-16.187s-10.437,7.105-10.515,15.961a21.3,21.3,0,0,0,3.248,11.981,13.6,13.6,0,0,1,2.143,7.534v.572c0,.993.517,1.8,1.156,1.8h7.7c.638,0,1.156-.805,1.156-1.8v-.389a14.225,14.225,0,0,1,2.2-7.8,21.282,21.282,0,0,0,3.194-11.672Z" transform="translate(-187.731 -104.5)" fill="#1caee4"/>
    <path id="Trazado_3057" data-name="Trazado 3057" d="M241.119,269.421h-8.487a1.86,1.86,0,0,1-1.86-1.86v-6.627H242.98v6.627A1.861,1.861,0,0,1,241.119,269.421Z" transform="translate(-201.189 -223.086)" fill="#f7cb15"/>
    <path id="Trazado_3058" data-name="Trazado 3058" d="M248.486,298.03h-1.761a1.8,1.8,0,0,1-1.8-1.8v-.215h5.359v.215A1.8,1.8,0,0,1,248.486,298.03Z" transform="translate(-211.919 -249.68)" fill="#f7cb15"/>
    <path id="Trazado_3059" data-name="Trazado 3059" d="M248.486,297.129h-1.761a1.8,1.8,0,0,1-1.663-1.115h-.136v.215a1.8,1.8,0,0,0,1.8,1.8h1.761a1.8,1.8,0,0,0,1.8-1.8v-.215h-.136a1.8,1.8,0,0,1-1.662,1.115Z" transform="translate(-211.919 -249.679)" fill="#e7ad27"/>
    <path id="Trazado_3060" data-name="Trazado 3060" d="M246.9,269.421H242.56a1.428,1.428,0,0,1-1.428-1.428v-7.059h7.195v7.059A1.429,1.429,0,0,1,246.9,269.421Z" transform="translate(-209.043 -223.086)" fill="#fede3a"/>
    <path id="Trazado_3061" data-name="Trazado 3061" d="M230.77,267.438h12.208v2H230.77Z" transform="translate(-201.188 -228.016)" fill="#e7ad27"/>
    <path id="Trazado_3062" data-name="Trazado 3062" d="M230.77,280.372h12.208v2H230.77Z" transform="translate(-201.188 -237.821)" fill="#e7ad27"/>
    <path id="Trazado_3063" data-name="Trazado 3063" d="M207.25,138.891a11.795,11.795,0,1,0,23.589,0v-1.815a11.795,11.795,0,1,0-23.589,0Z" transform="translate(-183.358 -120.254)" fill="#009add"/>
    <path id="Trazado_3064" data-name="Trazado 3064" d="M207.25,132.891a11.795,11.795,0,1,0,23.589,0v-1.815a11.795,11.795,0,1,0-23.589,0Z" transform="translate(-183.358 -115.706)" fill="#e7ad27"/>
    <circle id="Elipse_251" data-name="Elipse 251" cx="11.794" cy="11.794" r="11.794" transform="translate(23.888 3.588)" fill="#fede3a"/>
    <circle id="Elipse_252" data-name="Elipse 252" cx="8.844" cy="8.844" r="8.844" transform="matrix(0.445, -0.895, 0.895, 0.445, 23.811, 19.351)" fill="#f7cb15"/>
    <path id="Trazado_3065" data-name="Trazado 3065" d="M228.284,132.125a8.839,8.839,0,0,1,8.829,8.518c0-.11.016-.217.016-.328a8.846,8.846,0,1,0-17.692,0c0,.111.013.218.016.328a8.839,8.839,0,0,1,8.829-8.518Z" transform="translate(-192.597 -124.945)" fill="#e7ad27"/>
    <path id="Trazado_3066" data-name="Trazado 3066" d="M248.072,148.245a3.179,3.179,0,0,0-.34-1.5,3.09,3.09,0,0,0-1.006-1.1,8.158,8.158,0,0,0-1.921-.866,4.4,4.4,0,0,1-1.553-.779,1.009,1.009,0,0,1-.292-.506.489.489,0,0,1,0-.238,1.177,1.177,0,0,1,.34-.581,1.664,1.664,0,0,1,1.188-.378,1.451,1.451,0,0,1,1.16.468,2.025,2.025,0,0,1,.438,1.4.536.536,0,0,0,.536.536h.835a.536.536,0,0,0,.536-.536c0-.024,0-.045,0-.069h0v-.536a3.872,3.872,0,0,0-.8-2.552,3.006,3.006,0,0,0-1.419-.944.532.532,0,0,1-.369-.507v-.547a.536.536,0,0,0-.536-.536h-.716a.536.536,0,0,0-.536.536v.533a.53.53,0,0,1-.376.509,3.159,3.159,0,0,0-1.379.811,3.06,3.06,0,0,0-.856,2.233c0,.107.016.206.025.309-.007.1-.025.193-.025.3a3.023,3.023,0,0,0,.783,2.138,5.587,5.587,0,0,0,2.442,1.323,4.315,4.315,0,0,1,1.583.814,1.076,1.076,0,0,1,.259.4.56.56,0,0,1-.007.4,1.186,1.186,0,0,1-.346.467,1.893,1.893,0,0,1-1.278.406,1.927,1.927,0,0,1-1.41-.47,1.76,1.76,0,0,1-.477-1.332.536.536,0,0,0-.536-.536h-.842a.536.536,0,0,0-.536.536c0,.024,0,.045.005.069h-.005v.536a3.527,3.527,0,0,0,.923,2.552,3.371,3.371,0,0,0,1.633.912.531.531,0,0,1,.4.515v.414a.536.536,0,0,0,.536.536h.709a.536.536,0,0,0,.536-.536v-.439a.53.53,0,0,1,.384-.511,3.254,3.254,0,0,0,1.432-.8,3.01,3.01,0,0,0,.88-2.239c0-.129-.008-.254-.019-.376.005-.078.02-.15.02-.23Z" transform="translate(-208.67 -130.253)" fill="#e7ad27"/>
    <path id="Trazado_3067" data-name="Trazado 3067" d="M247.732,146.742a3.09,3.09,0,0,0-1.006-1.1,8.158,8.158,0,0,0-1.921-.866,4.4,4.4,0,0,1-1.553-.779,1.188,1.188,0,0,1-.341-.925,1.3,1.3,0,0,1,.389-1.005,1.661,1.661,0,0,1,1.188-.378,1.451,1.451,0,0,1,1.16.468,2.025,2.025,0,0,1,.438,1.4.536.536,0,0,0,.536.536h.835a.536.536,0,0,0,.536-.536,3.872,3.872,0,0,0-.8-2.552,3,3,0,0,0-1.42-.944.532.532,0,0,1-.369-.507v-.547a.536.536,0,0,0-.536-.536h-.716a.536.536,0,0,0-.536.536v.533a.53.53,0,0,1-.376.509,3.159,3.159,0,0,0-1.379.811,3.06,3.06,0,0,0-.856,2.233,3.023,3.023,0,0,0,.783,2.138,5.586,5.586,0,0,0,2.442,1.323,4.315,4.315,0,0,1,1.583.814,1.181,1.181,0,0,1,.345.891,1.2,1.2,0,0,1-.439.981,1.892,1.892,0,0,1-1.278.406,1.925,1.925,0,0,1-1.41-.469,1.76,1.76,0,0,1-.477-1.332.536.536,0,0,0-.536-.536h-.842a.536.536,0,0,0-.536.536,3.527,3.527,0,0,0,.923,2.552,3.373,3.373,0,0,0,1.634.912.531.531,0,0,1,.4.515v.414a.536.536,0,0,0,.536.536h.709a.536.536,0,0,0,.536-.536V151.8a.53.53,0,0,1,.384-.511,3.254,3.254,0,0,0,1.432-.8,3.01,3.01,0,0,0,.88-2.239,3.175,3.175,0,0,0-.339-1.5Z" transform="translate(-208.67 -130.253)" fill="#d1d3d4"/>
    <path id="Trazado_3068" data-name="Trazado 3068" d="M247.732,144.24a3.09,3.09,0,0,0-1.006-1.1,8.159,8.159,0,0,0-1.921-.866,4.4,4.4,0,0,1-1.553-.779,1.188,1.188,0,0,1-.341-.925,1.3,1.3,0,0,1,.389-1.005,1.661,1.661,0,0,1,1.188-.379,1.451,1.451,0,0,1,1.16.468,2.025,2.025,0,0,1,.438,1.4.536.536,0,0,0,.536.536h.835a.536.536,0,0,0,.536-.536,3.872,3.872,0,0,0-.8-2.552,3,3,0,0,0-1.42-.944.532.532,0,0,1-.369-.507v-.547a.536.536,0,0,0-.536-.536h-.716a.536.536,0,0,0-.536.536v.533a.53.53,0,0,1-.376.509,3.159,3.159,0,0,0-1.379.811,3.06,3.06,0,0,0-.856,2.233,3.023,3.023,0,0,0,.783,2.138,5.586,5.586,0,0,0,2.442,1.323,4.315,4.315,0,0,1,1.583.814,1.181,1.181,0,0,1,.345.891,1.2,1.2,0,0,1-.439.981,1.892,1.892,0,0,1-1.278.406,1.925,1.925,0,0,1-1.41-.469,1.76,1.76,0,0,1-.477-1.332.536.536,0,0,0-.536-.536h-.842a.536.536,0,0,0-.536.536,3.527,3.527,0,0,0,.923,2.552,3.377,3.377,0,0,0,1.634.913.531.531,0,0,1,.4.515v.414a.536.536,0,0,0,.536.536h.709a.536.536,0,0,0,.536-.536V149.3a.53.53,0,0,1,.384-.511,3.254,3.254,0,0,0,1.432-.8,3.01,3.01,0,0,0,.88-2.239,3.175,3.175,0,0,0-.339-1.5Z" transform="translate(-208.67 -128.356)" fill="#fff"/>
  </g>
</svg>
