<svg xmlns="http://www.w3.org/2000/svg" xmlns:xlink="http://www.w3.org/1999/xlink" width="69" height="59" viewBox="0 0 69 59">
  <defs>
    <clipPath id="clip-path">
      <rect id="Rectángulo_4534" data-name="Rectángulo 4534" width="69" height="59" transform="translate(176 5735)" fill="#f3f9ff" stroke="#707070" stroke-width="1"/>
    </clipPath>
  </defs>
  <g id="Enmascarar_grupo_12" data-name="Enmascarar grupo 12" transform="translate(-176 -5735)" clip-path="url(#clip-path)">
    <g id="calendario_1_" data-name="calendario (1)" transform="translate(174.877 5728.877)">
      <g id="Grupo_26763" data-name="Grupo 26763">
        <g id="Grupo_26742" data-name="Grupo 26742">
          <path id="Trazado_2465" data-name="Trazado 2465" d="M51.208,17.255a1.113,1.113,0,1,1,0-2.226,3.34,3.34,0,1,0,0-6.679,1.113,1.113,0,1,1,0-2.226,5.566,5.566,0,0,1,0,11.132Z" fill="#f06423"/>
        </g>
        <g id="Grupo_26743" data-name="Grupo 26743">
          <path id="Trazado_2466" data-name="Trazado 2466" d="M30.057,17.255a1.113,1.113,0,0,1,0-2.226,3.34,3.34,0,1,0,0-6.679,1.113,1.113,0,0,1,0-2.226,5.566,5.566,0,1,1,0,11.132Z" fill="#f06423"/>
        </g>
        <g id="Grupo_26744" data-name="Grupo 26744">
          <path id="Trazado_2467" data-name="Trazado 2467" d="M64.566,58.443h-42.3a4.453,4.453,0,0,1-4.453-4.453v-33.4H69.019v33.4A4.453,4.453,0,0,1,64.566,58.443Z" fill="#f06423"/>
        </g>
        <g id="Grupo_26745" data-name="Grupo 26745">
          <path id="Trazado_2468" data-name="Trazado 2468" d="M59,58.443H22.264a4.453,4.453,0,0,1-4.453-4.453v-33.4H63.453v33.4A4.453,4.453,0,0,1,59,58.443Z" fill="#faa51e"/>
        </g>
        <g id="Grupo_26746" data-name="Grupo 26746">
          <path id="Trazado_2469" data-name="Trazado 2469" d="M64.566,11.689h-42.3a4.453,4.453,0,0,0-4.453,4.453v4.453H69.019V16.142A4.453,4.453,0,0,0,64.566,11.689Z" fill="#46508c"/>
        </g>
        <g id="Grupo_26747" data-name="Grupo 26747">
          <path id="Trazado_2470" data-name="Trazado 2470" d="M59,11.689H22.264a4.453,4.453,0,0,0-4.453,4.453v4.453H63.453V16.142A4.453,4.453,0,0,0,59,11.689Z" fill="#5f78be"/>
        </g>
        <g id="Grupo_26748" data-name="Grupo 26748">
          <path id="Trazado_2471" data-name="Trazado 2471" d="M30.057,17.255a5.566,5.566,0,1,1,0-11.132,1.113,1.113,0,0,1,0,2.226,3.34,3.34,0,0,0,0,6.679,1.113,1.113,0,0,1,0,2.226Z" fill="#faa51e"/>
        </g>
        <g id="Grupo_26749" data-name="Grupo 26749">
          <path id="Trazado_2472" data-name="Trazado 2472" d="M51.208,17.255a5.566,5.566,0,1,1,0-11.132,1.113,1.113,0,0,1,0,2.226,3.34,3.34,0,1,0,0,6.679,1.113,1.113,0,0,1,0,2.226Z" fill="#faa51e"/>
        </g>
        <g id="Grupo_26762" data-name="Grupo 26762">
          <g id="Grupo_26750" data-name="Grupo 26750">
            <circle id="Elipse_197" data-name="Elipse 197" cx="3.34" cy="3.34" r="3.34" transform="translate(32.283 26.16)" fill="#f06423"/>
          </g>
          <g id="Grupo_26751" data-name="Grupo 26751">
            <circle id="Elipse_198" data-name="Elipse 198" cx="3.34" cy="3.34" r="3.34" transform="translate(42.302 26.16)" fill="#f06423"/>
          </g>
          <g id="Grupo_26752" data-name="Grupo 26752">
            <circle id="Elipse_199" data-name="Elipse 199" cx="3.34" cy="3.34" r="3.34" transform="translate(52.321 26.16)" fill="#f06423"/>
          </g>
          <g id="Grupo_26753" data-name="Grupo 26753">
            <circle id="Elipse_200" data-name="Elipse 200" cx="3.34" cy="3.34" r="3.34" transform="translate(22.264 36.179)" fill="#f06423"/>
          </g>
          <g id="Grupo_26754" data-name="Grupo 26754">
            <circle id="Elipse_201" data-name="Elipse 201" cx="3.34" cy="3.34" r="3.34" transform="translate(32.283 36.179)" fill="#f06423"/>
          </g>
          <g id="Grupo_26755" data-name="Grupo 26755">
            <circle id="Elipse_202" data-name="Elipse 202" cx="3.34" cy="3.34" r="3.34" transform="translate(42.302 36.179)" fill="#f06423"/>
          </g>
          <g id="Grupo_26756" data-name="Grupo 26756">
            <circle id="Elipse_203" data-name="Elipse 203" cx="3.34" cy="3.34" r="3.34" transform="translate(52.321 36.179)" fill="#f06423"/>
          </g>
          <g id="Grupo_26757" data-name="Grupo 26757">
            <circle id="Elipse_204" data-name="Elipse 204" cx="3.34" cy="3.34" r="3.34" transform="translate(22.264 46.198)" fill="#f06423"/>
          </g>
          <g id="Grupo_26758" data-name="Grupo 26758">
            <circle id="Elipse_205" data-name="Elipse 205" cx="3.34" cy="3.34" r="3.34" transform="translate(32.283 46.198)" fill="#f06423"/>
          </g>
          <g id="Grupo_26759" data-name="Grupo 26759">
            <circle id="Elipse_206" data-name="Elipse 206" cx="3.34" cy="3.34" r="3.34" transform="translate(42.302 46.198)" fill="#f06423"/>
          </g>
          <g id="Grupo_26760" data-name="Grupo 26760">
            <circle id="Elipse_207" data-name="Elipse 207" cx="3.34" cy="3.34" r="3.34" transform="translate(22.264 36.179)" fill="#f06423"/>
          </g>
          <g id="Grupo_26761" data-name="Grupo 26761">
            <circle id="Elipse_208" data-name="Elipse 208" cx="3.34" cy="3.34" r="3.34" transform="translate(32.283 36.179)" fill="#f06423"/>
          </g>
        </g>
      </g>
      <g id="Grupo_26771" data-name="Grupo 26771">
        <g id="Grupo_26770" data-name="Grupo 26770">
          <g id="Grupo_26764" data-name="Grupo 26764">
            <path id="Trazado_2473" data-name="Trazado 2473" d="M23.377,65.123H18.925a16.7,16.7,0,0,1,0-33.4h4.453a16.7,16.7,0,1,1,0,33.4Z" fill="#46508c"/>
          </g>
          <g id="Grupo_26765" data-name="Grupo 26765">
            <circle id="Elipse_209" data-name="Elipse 209" cx="16.698" cy="16.698" r="16.698" transform="translate(2.226 31.726)" fill="#5f78be"/>
          </g>
          <g id="Grupo_26766" data-name="Grupo 26766">
            <circle id="Elipse_210" data-name="Elipse 210" cx="12.245" cy="12.245" r="12.245" transform="translate(6.679 36.179)" fill="#73cddc"/>
          </g>
          <g id="Grupo_26767" data-name="Grupo 26767">
            <path id="Trazado_2474" data-name="Trazado 2474" d="M20.038,45.276V39.519a1.113,1.113,0,0,0-2.226,0v5.757a3.348,3.348,0,0,0-2.036,2.036H10.019a1.113,1.113,0,0,0,0,2.226h5.757a3.34,3.34,0,1,0,4.262-4.262Zm-1.113,4.262a1.113,1.113,0,1,1,1.113-1.113A1.113,1.113,0,0,1,18.925,49.538Z" fill="#46508c"/>
            <circle id="Elipse_211" data-name="Elipse 211" cx="1.113" cy="1.113" r="1.113" transform="translate(17.811 47.311)" fill="#73cddc"/>
          </g>
          <g id="Grupo_26768" data-name="Grupo 26768">
            <path id="Trazado_2475" data-name="Trazado 2475" d="M18.925,58.443a1.113,1.113,0,0,1-1.113-1.113V56.217a1.113,1.113,0,1,1,2.226,0V57.33A1.113,1.113,0,0,1,18.925,58.443Z" fill="#46508c"/>
          </g>
          <g id="Grupo_26769" data-name="Grupo 26769">
            <path id="Trazado_2476" data-name="Trazado 2476" d="M27.83,49.538H26.717a1.113,1.113,0,0,1,0-2.226H27.83a1.113,1.113,0,0,1,0,2.226Z" fill="#46508c"/>
          </g>
        </g>
      </g>
    </g>
  </g>
</svg>
