<svg xmlns="http://www.w3.org/2000/svg" width="295" height="167" viewBox="0 0 295 167">
  <g id="Grupo_55671" data-name="Grupo 55671" transform="translate(-177 -1643)">
    <rect id="Rectángulo_4617" data-name="Rectángulo 4617" width="295" height="167" rx="10" transform="translate(177 1643)" fill="#fff1db"/>
    <text id="Intangible." transform="translate(276 1786)" fill="#111e61" font-size="20" font-family="Roboto-Black, Roboto" font-weight="800"><tspan x="0" y="0">Intangible.</tspan></text>
    <g id="bombilla" transform="translate(278.037 1668.376)">
      <path id="Trazado_2890" data-name="Trazado 2890" d="M249.1,10.348a1.184,1.184,0,0,0,1.184-1.184V1.184a1.184,1.184,0,0,0-2.367,0v7.98A1.184,1.184,0,0,0,249.1,10.348Z" transform="translate(-202.924)" fill="#ffb74d"/>
      <path id="Trazado_2891" data-name="Trazado 2891" d="M83.526,78.238A1.184,1.184,0,0,0,85.2,76.564l-5.643-5.643a1.184,1.184,0,0,0-1.674,1.674Z" transform="translate(-59.435 -59.435)" fill="#ffb74d"/>
      <path id="Trazado_2892" data-name="Trazado 2892" d="M16.127,240.953H8.147a1.184,1.184,0,1,0,0,2.367h7.98a1.184,1.184,0,0,0,0-2.367Z" transform="translate(0 -202.924)" fill="#ffb74d"/>
      <path id="Trazado_2893" data-name="Trazado 2893" d="M83.526,375.926l-5.643,5.643a1.184,1.184,0,0,0,1.674,1.674L85.2,377.6a1.184,1.184,0,1,0-1.674-1.674Z" transform="translate(-59.435 -316.302)" fill="#ffb74d"/>
      <path id="Trazado_2894" data-name="Trazado 2894" d="M384.563,375.926a1.184,1.184,0,1,0-1.674,1.674l5.643,5.643a1.184,1.184,0,0,0,1.674-1.674Z" transform="translate(-316.302 -316.302)" fill="#ffb74d"/>
      <path id="Trazado_2895" data-name="Trazado 2895" d="M447.471,240.953h-7.98a1.184,1.184,0,0,0,0,2.367h7.98a1.184,1.184,0,0,0,0-2.367Z" transform="translate(-363.265 -202.924)" fill="#ffb74d"/>
      <path id="Trazado_2896" data-name="Trazado 2896" d="M388.532,70.921l-5.643,5.643a1.184,1.184,0,1,0,1.674,1.674l5.643-5.643a1.184,1.184,0,0,0-1.674-1.674Z" transform="translate(-316.302 -59.435)" fill="#ffb74d"/>
      <path id="Trazado_2897" data-name="Trazado 2897" d="M154.024,106.721A23.581,23.581,0,0,0,130.639,83a23.062,23.062,0,0,0-12.677,3.785,23.67,23.67,0,0,0-8.471,9.8,1.184,1.184,0,1,0,2.146,1,20.968,20.968,0,0,1,40.02,9.133,21.418,21.418,0,0,1-5.95,14.888c-2.212,2.31-4.094,4.517-4.579,7.609H120.461c-.61-3.21-2.8-5.463-4.768-7.485a21.4,21.4,0,0,1-6.071-15.012,21.871,21.871,0,0,1,.4-4.153,1.184,1.184,0,1,0-2.324-.451,24.229,24.229,0,0,0-.44,4.6A23.755,23.755,0,0,0,114,123.384c2.5,2.566,4.264,4.614,4.264,7.615,0,.01,0,.021,0,.032l.068,6.947a6.237,6.237,0,0,0,3,5.327v1.3a5.925,5.925,0,0,0,5.919,5.919h7.26a5.925,5.925,0,0,0,5.919-5.919v-1.3a6.237,6.237,0,0,0,3-5.327s-.008-7.738-.024-7.815c.225-2.743,1.887-4.693,4.016-6.917A23.776,23.776,0,0,0,154.024,106.721Zm-15.966,37.885a3.555,3.555,0,0,1-3.551,3.551h-7.26a3.555,3.555,0,0,1-3.551-3.551v-.456a6.252,6.252,0,0,0,.868.062h12.626a6.275,6.275,0,0,0,.868-.062Zm-.868-2.762H124.563a3.871,3.871,0,0,1-3.867-3.867V137.9h11.995a1.184,1.184,0,0,0,0-2.367H120.7v-3.946h20.323l.037,3.946h-2.841a1.184,1.184,0,0,0,0,2.367h2.841v.079A3.871,3.871,0,0,1,137.189,141.844Z" transform="translate(-84.463 -69.9)" fill="#ffb74d"/>
      <path id="Trazado_2898" data-name="Trazado 2898" d="M195.316,193.315a1.184,1.184,0,1,0,1.87,1.452l2.343-3.018a3.788,3.788,0,0,0-5.984-4.646l-7.645,9.846-4.388-4.855a3.788,3.788,0,0,0-5.62,5.08l7.418,8.207a3.812,3.812,0,0,0,5.8-.217l4.685-6.034a1.184,1.184,0,1,0-1.87-1.452l-4.685,6.034a1.429,1.429,0,0,1-2.176.081l-7.418-8.207a1.42,1.42,0,1,1,2.108-1.9l5.335,5.9a1.193,1.193,0,0,0,1.813-.068l8.511-10.961a1.42,1.42,0,1,1,2.244,1.742Z" transform="translate(-141.444 -156.338)" fill="#ffb74d"/>
    </g>
  </g>
</svg>
