<svg xmlns="http://www.w3.org/2000/svg" xmlns:xlink="http://www.w3.org/1999/xlink" width="69" height="59" viewBox="0 0 69 59">
  <defs>
    <clipPath id="clip-path">
      <rect id="Rectángulo_4536" data-name="Rectángulo 4536" width="69" height="59" transform="translate(772 5646)" fill="#f3f9ff" stroke="#707070" stroke-width="1"/>
    </clipPath>
  </defs>
  <g id="Enmascarar_grupo_14" data-name="Enmascarar grupo 14" transform="translate(-772 -5646)" clip-path="url(#clip-path)">
    <g id="huesped" transform="translate(781.255 5646)">
      <path id="Trazado_2498" data-name="Trazado 2498" d="M44.785,50.67a1.325,1.325,0,0,1-1.327-1.32v-.591a1.314,1.314,0,0,1,.48-1.015l.108-.089-.108-.089a1.315,1.315,0,0,1-.48-1.015v-.59a1.315,1.315,0,0,1,.48-1.015l.108-.089-.108-.089a1.316,1.316,0,0,1-.48-1.016v-.107l-4.873-6.725a5.255,5.255,0,0,1,.049.7v11.3l3.475,4.8a3.526,3.526,0,0,0,4.9.793,3.476,3.476,0,0,0,1.307-3.848H44.785Zm0,0" fill="#003c72"/>
      <path id="Trazado_2499" data-name="Trazado 2499" d="M43.444,52.018l-4.811-6.639v3.55l3.475,4.795a3.526,3.526,0,0,0,4.9.793,3.472,3.472,0,0,0,1.252-1.649A3.525,3.525,0,0,1,43.444,52.018Zm0,0" fill="#002d4f"/>
      <path id="Trazado_2500" data-name="Trazado 2500" d="M8.078,46.505l0-.007a1.193,1.193,0,0,1,.059-1.082L10.809,41.4a.835.835,0,0,0-.215-1.14l-2.428-1.7a.737.737,0,0,1-.23-.883l2.591-5.432H5.415A5.4,5.4,0,0,0,0,37.625V58.4a.6.6,0,0,0,.6.6h11.96Zm0,0" fill="#003c72"/>
      <path id="Trazado_2501" data-name="Trazado 2501" d="M33.333,32.246H29l2.59,5.431a.737.737,0,0,1-.229.885l-2.428,1.7a.836.836,0,0,0-.216,1.14l2.676,4.012a1.194,1.194,0,0,1,.059,1.082l0,.007L26.994,59H38.143a.6.6,0,0,0,.6-.6V37.625a5.4,5.4,0,0,0-5.415-5.38Zm0,0" fill="#003c72"/>
      <path id="Trazado_2502" data-name="Trazado 2502" d="M3.719,58.4V37.625a5.4,5.4,0,0,1,5.415-5.38H5.415A5.4,5.4,0,0,0,0,37.625V58.4a.6.6,0,0,0,.6.6H4.324a.6.6,0,0,1-.6-.6Zm0,0" fill="#002d4f"/>
      <path id="Trazado_2503" data-name="Trazado 2503" d="M24.91,40.242l-5.145-3.526-5.147,3.45V59H24.91Zm0,0" fill="#abebff"/>
      <path id="Trazado_2504" data-name="Trazado 2504" d="M16.923,48.43l2.84,4.089L22.6,48.43l-1.331-6.843,1.783-2.615-3.291-2.255-3.315,2.222,1.805,2.649Zm0,0" fill="#b7092b"/>
      <path id="Trazado_2505" data-name="Trazado 2505" d="M24.91,44.907l-5.146,7.41-5.146-7.41V59H24.909Zm0,0" fill="#8a8c8e"/>
      <path id="Trazado_2506" data-name="Trazado 2506" d="M14.617,59h2.821V48.969l-2.821-4.062Zm0,0" fill="#6d6e71"/>
      <path id="Trazado_2507" data-name="Trazado 2507" d="M24.91,30.09a9.645,9.645,0,0,1-3.858.8H18.474a9.647,9.647,0,0,1-3.858-.8V40.305l5.147-3.45,5.146,3.526V30.09Zm0,0" fill="#def9ff"/>
      <path id="Trazado_2508" data-name="Trazado 2508" d="M28.813,41.34A.721.721,0,0,1,29,40.359l2.428-1.7a.848.848,0,0,0,.267-1.028l-4.33-9.079a9.687,9.687,0,0,1-2.569,1.593V59h2.3l4.462-12.448a1.306,1.306,0,0,0-.065-1.2Zm0,0" fill="#0052ac"/>
      <path id="Trazado_2509" data-name="Trazado 2509" d="M12.163,28.548l-4.33,9.079A.848.848,0,0,0,8.1,38.655l2.428,1.7a.72.72,0,0,1,.185.982L8.038,45.352a1.3,1.3,0,0,0-.066,1.2L12.435,59h2.3V30.141a9.7,9.7,0,0,1-2.569-1.593Zm0,0" fill="#0052ac"/>
      <path id="Trazado_2510" data-name="Trazado 2510" d="M21.052,30.892H18.474a9.689,9.689,0,0,1-2.393-.3l3.682,4.974,3.681-4.974A9.683,9.683,0,0,1,21.052,30.892Zm0,0" fill="#f8d5ab"/>
      <path id="Trazado_2511" data-name="Trazado 2511" d="M18.474,30.892a9.689,9.689,0,0,1-2.393-.3l3.682,4.974,1.268-1.714L18.84,30.892Zm0,0" fill="#eac092"/>
      <path id="Trazado_2512" data-name="Trazado 2512" d="M28.116,2.951h-.587a4.575,4.575,0,0,0-2.289.61,5.886,5.886,0,0,1,.556,2.5V8.01a9.858,9.858,0,0,1,1.716,1.117,8.673,8.673,0,0,1,3.2,6.96v.239h1.673a1.905,1.905,0,0,1,.314.028V7.506a4.568,4.568,0,0,0-4.58-4.556Zm0,0" fill="#9b5729"/>
      <path id="Trazado_2513" data-name="Trazado 2513" d="M7.144,16.327H8.816v-.239a8.672,8.672,0,0,1,3.2-6.961,12.238,12.238,0,0,1,7.749-2.484A13.139,13.139,0,0,1,25.911,8.07V6.061A6.077,6.077,0,0,0,19.818,0H12.923A6.077,6.077,0,0,0,6.83,6.061V16.355a1.9,1.9,0,0,1,.314-.028Zm0,0" fill="#b57a4e"/>
      <path id="Trazado_2514" data-name="Trazado 2514" d="M7.144,16.327H8.816v-.239a8.874,8.874,0,0,1,1.7-5.4V6.061A6.077,6.077,0,0,1,16.61,0H12.923A6.077,6.077,0,0,0,6.83,6.061V16.355a1.9,1.9,0,0,1,.314-.028Zm0,0" fill="#9b5729"/>
      <path id="Trazado_2515" data-name="Trazado 2515" d="M8.816,21.286V16.212H7.144A2.035,2.035,0,0,0,5.1,18.241V20.7a2.035,2.035,0,0,0,2.041,2.03H8.925a9.576,9.576,0,0,1-.109-1.441Zm0,0" fill="#ffe2b8"/>
      <path id="Trazado_2516" data-name="Trazado 2516" d="M32.382,16.212H30.71v5.075a9.586,9.586,0,0,1-.109,1.442h1.782a2.035,2.035,0,0,0,2.04-2.03V18.241a2.035,2.035,0,0,0-2.04-2.03Zm0,0" fill="#f8d5ab"/>
      <path id="Trazado_2517" data-name="Trazado 2517" d="M19.763,6.528c-6.11,0-11.062,3.507-11.062,9.56v5.2a9.747,9.747,0,0,0,9.773,9.722h2.577a9.747,9.747,0,0,0,9.773-9.722v-5.2c0-6.053-4.952-9.56-11.062-9.56Zm0,0" fill="#ffe2b8"/>
      <path id="Trazado_2518" data-name="Trazado 2518" d="M11.111,21.286v-5.2c0-5.65,4.315-9.081,9.857-9.513q-.594-.046-1.205-.047c-6.11,0-11.062,3.507-11.062,9.56v5.2a9.747,9.747,0,0,0,9.773,9.721h2.41a9.747,9.747,0,0,1-9.773-9.721Zm0,0" fill="#ffc987"/>
      <path id="Trazado_2519" data-name="Trazado 2519" d="M20.642,22.038h-1.2a1.423,1.423,0,0,1-1.423-1.42V17.791a.864.864,0,1,1,1.729,0v2.519h.894a.864.864,0,0,1,0,1.729Zm0,0" fill="#72563c"/>
      <path id="Trazado_2520" data-name="Trazado 2520" d="M46.5,35.626a3.88,3.88,0,0,1-.864-.1v6.315H47.36V35.528A3.88,3.88,0,0,1,46.5,35.626Zm0,0" fill="#abebff"/>
      <path id="Trazado_2521" data-name="Trazado 2521" d="M46.5,35.741A3.986,3.986,0,0,1,42.5,31.773V23.836a.7.7,0,0,1,.7-.7h6.588a.7.7,0,0,1,.7.7v7.937A3.986,3.986,0,0,1,46.5,35.741Zm0,0" fill="#def9ff"/>
      <path id="Trazado_2522" data-name="Trazado 2522" d="M44.962,31.773V23.836a.7.7,0,0,1,.7-.7H43.2a.7.7,0,0,0-.7.7v7.937a4,4,0,0,0,5.225,3.774A3.977,3.977,0,0,1,44.962,31.773Zm0,0" fill="#abebff"/>
      <path id="Trazado_2523" data-name="Trazado 2523" d="M42.5,27.108v4.665a3.995,3.995,0,0,0,7.989,0V27.108Zm0,0" fill="#fff4a4"/>
      <path id="Trazado_2524" data-name="Trazado 2524" d="M44.962,31.773V27.108H42.5v4.665a4,4,0,0,0,5.225,3.774A3.977,3.977,0,0,1,44.962,31.773Zm0,0" fill="#e8dd52"/>
      <path id="Trazado_2525" data-name="Trazado 2525" d="M48.442,50.785a1.441,1.441,0,0,0,1.443-1.435V43.163a1.441,1.441,0,0,0-1.443-1.435H44.785a1.44,1.44,0,0,0-1.443,1.435v.59a1.431,1.431,0,0,0,.522,1.1,1.429,1.429,0,0,0-.522,1.1v.59a1.429,1.429,0,0,0,.522,1.1,1.429,1.429,0,0,0-.522,1.1v.591a1.441,1.441,0,0,0,1.443,1.435Zm0,0" fill="#ffe2b8"/>
      <path id="Trazado_2526" data-name="Trazado 2526" d="M45.793,49.35v-.591a1.429,1.429,0,0,1,.522-1.1,1.431,1.431,0,0,1-.522-1.1v-.591a1.43,1.43,0,0,1,.522-1.1,1.429,1.429,0,0,1-.522-1.1v-.591a1.441,1.441,0,0,1,1.443-1.435H44.785a1.44,1.44,0,0,0-1.443,1.435v.591a1.429,1.429,0,0,0,.522,1.1,1.43,1.43,0,0,0-.522,1.1v.591a1.431,1.431,0,0,0,.522,1.1,1.429,1.429,0,0,0-.522,1.1v.591a1.44,1.44,0,0,0,1.443,1.435h2.451A1.44,1.44,0,0,1,45.793,49.35Zm0,0" fill="#ffc987"/>
      <g id="Grupo_26794" data-name="Grupo 26794">
        <path id="Trazado_2527" data-name="Trazado 2527" d="M14.412,19.87a.864.864,0,0,1-.864-.864V17a.864.864,0,0,1,1.729,0v2.008A.864.864,0,0,1,14.412,19.87Zm0,0" fill="#72563c"/>
        <path id="Trazado_2528" data-name="Trazado 2528" d="M16.729,15.675a.862.862,0,0,1-.609-.251,2.429,2.429,0,0,0-3.414,0A.864.864,0,1,1,11.487,14.2a4.162,4.162,0,0,1,5.851,0,.864.864,0,0,1-.609,1.477Zm0,0" fill="#72563c"/>
        <path id="Trazado_2529" data-name="Trazado 2529" d="M25.048,19.87a.864.864,0,0,1-.864-.864V17a.864.864,0,1,1,1.729,0v2.008A.864.864,0,0,1,25.048,19.87Zm0,0" fill="#72563c"/>
        <path id="Trazado_2530" data-name="Trazado 2530" d="M22.731,15.675a.864.864,0,0,1-.609-1.477,4.162,4.162,0,0,1,5.851,0,.864.864,0,0,1-1.218,1.226,2.429,2.429,0,0,0-3.415,0,.863.863,0,0,1-.609.251Zm0,0" fill="#72563c"/>
      </g>
      <path id="Trazado_2531" data-name="Trazado 2531" d="M19.763,28.349a4.046,4.046,0,0,1-4.054-4.027.768.768,0,0,1,.77-.765h6.569a.768.768,0,0,1,.77.765,4.045,4.045,0,0,1-4.054,4.027Zm0,0" fill="#ffa05f"/>
      <path id="Trazado_2532" data-name="Trazado 2532" d="M18.119,24.322a.768.768,0,0,1,.77-.765h-2.41a.768.768,0,0,0-.77.765,4.058,4.058,0,0,0,5.259,3.845,4.038,4.038,0,0,1-2.849-3.845Zm0,0" fill="#ff812c"/>
    </g>
  </g>
</svg>
