<svg xmlns="http://www.w3.org/2000/svg" width="416" height="282.567" viewBox="0 0 416 282.567">
  <g id="Grupo_26847" data-name="Grupo 26847" transform="translate(32 -5763)">
    <g id="Grupo_26846" data-name="Grupo 26846" transform="translate(-32 5763)">
      <g id="Grupo_26811" data-name="Grupo 26811" transform="translate(20.264 0)">
        <g id="Grupo_26796" data-name="Grupo 26796">
          <rect id="Rectángulo_4551" data-name="Rectángulo 4551" width="360.534" height="229.586" rx="3" fill="#111e61"/>
          <rect id="Rectángulo_4552" data-name="Rectángulo 4552" width="314.278" height="171.693" transform="translate(23.128 23.127)" fill="#fff"/>
          <path id="Trazado_2560" data-name="Trazado 2560" d="M301.462,536.422V729.14h335.3V536.422Z" transform="translate(-288.848 -523.807)" fill="#fff"/>
          <rect id="Rectángulo_4553" data-name="Rectángulo 4553" width="124.529" height="32.334" transform="translate(118.002 229.586)" fill="#e5e6eb"/>
          <path id="Trazado_2561" data-name="Trazado 2561" d="M775.821,1452.523H614.338l18.477-21.426H757.344Z" transform="translate(-514.813 -1169.956)" fill="#e5e6eb"/>
        </g>
        <g id="Grupo_26810" data-name="Grupo 26810" transform="translate(12.614 12.615)">
          <rect id="Rectángulo_4554" data-name="Rectángulo 4554" width="180.696" height="335.305" transform="translate(0 192.718) rotate(-90)" fill="#b3bdf2"/>
          <g id="Grupo_26809" data-name="Grupo 26809" transform="translate(37.951 32.268)">
            <rect id="Rectángulo_4555" data-name="Rectángulo 4555" width="150.338" height="143.2" transform="translate(113.714)" fill="#155bcd"/>
            <g id="Grupo_26801" data-name="Grupo 26801" transform="translate(113.714)">
              <g id="Grupo_26799" data-name="Grupo 26799" transform="translate(3.98 3.792)">
                <g id="Grupo_26797" data-name="Grupo 26797" transform="translate(67.597)">
                  <path id="Trazado_2562" data-name="Trazado 2562" d="M1179.9,666.232v33.273l-7.183,5.6L1112.3,752.236l-7.181,5.6V692.184l7.181-5.6,16.882-13.168,9.206-7.181Z" transform="translate(-1105.119 -666.232)" fill="#84a9ff"/>
                  <path id="Trazado_2563" data-name="Trazado 2563" d="M1179.9,841.027v15.282l-7.183,5.6L1112.3,909.037l-7.181,5.6V899.358l7.181-5.6,60.415-47.127Z" transform="translate(-1105.119 -792.472)" fill="#84a9ff"/>
                  <path id="Trazado_2564" data-name="Trazado 2564" d="M1185.995,951.046v23.205l-7.183,5.6-26.292,20.509-9.21,7.183h-29.75l4.837-3.773,4.373-3.411,56.042-43.713Z" transform="translate(-1111.215 -871.929)" fill="#84a9ff"/>
                </g>
                <g id="Grupo_26798" data-name="Grupo 26798">
                  <path id="Trazado_2565" data-name="Trazado 2565" d="M921.145,666.232l-9.206,7.181-42.982,33.528-7.182,5.6v-5.628l7.182-5.6,35.766-27.9,9.206-7.181Z" transform="translate(-861.776 -666.232)" fill="#84a9ff"/>
                  <path id="Trazado_2566" data-name="Trazado 2566" d="M936.554,693.434v23.029l-7.182,5.6-60.415,47.125-7.182,5.6V751.763l7.182-5.6,60.415-47.127Z" transform="translate(-861.776 -685.878)" fill="#84a9ff"/>
                  <path id="Trazado_2567" data-name="Trazado 2567" d="M936.554,844.039v38.381l-7.182,5.6-44.944,35.058-9.208,7.183H861.776V902.37l7.182-5.6,60.415-47.125Z" transform="translate(-861.776 -794.648)" fill="#84a9ff"/>
                </g>
              </g>
              <g id="Grupo_26800" data-name="Grupo 26800">
                <rect id="Rectángulo_4556" data-name="Rectángulo 4556" width="7.583" height="143.2" fill="#050f64"/>
                <rect id="Rectángulo_4557" data-name="Rectángulo 4557" width="7.583" height="143.2" transform="translate(71.376)" fill="#050f64"/>
                <rect id="Rectángulo_4558" data-name="Rectángulo 4558" width="7.585" height="143.2" transform="translate(142.753)" fill="#050f64"/>
                <rect id="Rectángulo_4559" data-name="Rectángulo 4559" width="143.2" height="7.583" transform="translate(3.569)" fill="#050f64"/>
                <rect id="Rectángulo_4560" data-name="Rectángulo 4560" width="143.2" height="7.585" transform="translate(3.569 135.615)" fill="#050f64"/>
              </g>
            </g>
            <g id="Grupo_26808" data-name="Grupo 26808" transform="translate(113.714)">
              <g id="Grupo_26804" data-name="Grupo 26804">
                <rect id="Rectángulo_4561" data-name="Rectángulo 4561" width="93.961" height="9.396" transform="translate(0)" fill="#ffb74d"/>
                <g id="Grupo_26802" data-name="Grupo 26802" transform="translate(0 9.396)">
                  <rect id="Rectángulo_4562" data-name="Rectángulo 4562" width="14.094" height="9.396" transform="translate(9.396 0) rotate(90)" fill="#ffc571"/>
                  <rect id="Rectángulo_4563" data-name="Rectángulo 4563" width="14.094" height="9.396" transform="translate(18.792 0) rotate(90)" fill="#fff"/>
                  <rect id="Rectángulo_4564" data-name="Rectángulo 4564" width="14.094" height="9.396" transform="translate(28.188 0) rotate(90)" fill="#ffc571"/>
                  <rect id="Rectángulo_4565" data-name="Rectángulo 4565" width="14.094" height="9.396" transform="translate(37.584 0) rotate(90)" fill="#fff"/>
                  <rect id="Rectángulo_4566" data-name="Rectángulo 4566" width="14.094" height="9.396" transform="translate(46.981 0) rotate(90)" fill="#ffc571"/>
                  <rect id="Rectángulo_4567" data-name="Rectángulo 4567" width="14.094" height="9.396" transform="translate(56.377 0) rotate(90)" fill="#fff"/>
                  <rect id="Rectángulo_4568" data-name="Rectángulo 4568" width="14.094" height="9.396" transform="translate(65.773 0) rotate(90)" fill="#ffc571"/>
                  <rect id="Rectángulo_4569" data-name="Rectángulo 4569" width="14.094" height="9.396" transform="translate(75.169 0) rotate(90)" fill="#fff"/>
                  <rect id="Rectángulo_4570" data-name="Rectángulo 4570" width="14.094" height="9.396" transform="translate(84.565 0) rotate(90)" fill="#ffc571"/>
                  <rect id="Rectángulo_4571" data-name="Rectángulo 4571" width="14.094" height="9.396" transform="translate(93.961 0) rotate(90)" fill="#fff"/>
                </g>
                <g id="Grupo_26803" data-name="Grupo 26803" transform="translate(0 23.49)">
                  <path id="Trazado_2568" data-name="Trazado 2568" d="M847.446,742.158v-5.012h9.4v5.012a4.7,4.7,0,0,1-4.7,4.7h0A4.7,4.7,0,0,1,847.446,742.158Z" transform="translate(-847.446 -737.146)" fill="#ffb74d"/>
                  <path id="Trazado_2569" data-name="Trazado 2569" d="M881.272,742.158v-5.012h9.4v5.012a4.7,4.7,0,0,1-4.7,4.7h0A4.7,4.7,0,0,1,881.272,742.158Z" transform="translate(-871.876 -737.146)" fill="#e5e6eb"/>
                  <path id="Rectángulo_4572" data-name="Rectángulo 4572" d="M0,0H5.012a4.7,4.7,0,0,1,4.7,4.7v0a4.7,4.7,0,0,1-4.7,4.7H0a0,0,0,0,1,0,0V0A0,0,0,0,1,0,0Z" transform="translate(28.188 0) rotate(90)" fill="#ffb74d"/>
                  <path id="Trazado_2570" data-name="Trazado 2570" d="M948.922,742.158v-5.012h9.4v5.012a4.7,4.7,0,0,1-4.7,4.7h0A4.7,4.7,0,0,1,948.922,742.158Z" transform="translate(-920.734 -737.146)" fill="#e5e6eb"/>
                  <path id="Trazado_2571" data-name="Trazado 2571" d="M982.747,742.158v-5.012h9.4v5.012a4.7,4.7,0,0,1-4.7,4.7h0A4.7,4.7,0,0,1,982.747,742.158Z" transform="translate(-945.163 -737.146)" fill="#ffb74d"/>
                  <path id="Rectángulo_4573" data-name="Rectángulo 4573" d="M0,0H5.012a4.7,4.7,0,0,1,4.7,4.7v0a4.7,4.7,0,0,1-4.7,4.7H0a0,0,0,0,1,0,0V0A0,0,0,0,1,0,0Z" transform="translate(56.377 0) rotate(90)" fill="#e5e6eb"/>
                  <path id="Trazado_2572" data-name="Trazado 2572" d="M1050.4,742.158v-5.012h9.4v5.012a4.7,4.7,0,0,1-4.7,4.7h0A4.7,4.7,0,0,1,1050.4,742.158Z" transform="translate(-994.021 -737.146)" fill="#ffb74d"/>
                  <path id="Trazado_2573" data-name="Trazado 2573" d="M1084.223,742.158v-5.012h9.4v5.012a4.7,4.7,0,0,1-4.7,4.7h0A4.7,4.7,0,0,1,1084.223,742.158Z" transform="translate(-1018.45 -737.146)" fill="#e5e6eb"/>
                  <path id="Rectángulo_4574" data-name="Rectángulo 4574" d="M0,0H5.012a4.7,4.7,0,0,1,4.7,4.7v0a4.7,4.7,0,0,1-4.7,4.7H0a0,0,0,0,1,0,0V0A0,0,0,0,1,0,0Z" transform="translate(84.565 0) rotate(90)" fill="#ffb74d"/>
                  <path id="Trazado_2574" data-name="Trazado 2574" d="M1151.874,742.158v-5.012h9.4v5.012a4.7,4.7,0,0,1-4.7,4.7h0A4.7,4.7,0,0,1,1151.874,742.158Z" transform="translate(-1067.309 -737.146)" fill="#e5e6eb"/>
                </g>
              </g>
              <g id="Grupo_26807" data-name="Grupo 26807" transform="translate(93.961)">
                <rect id="Rectángulo_4575" data-name="Rectángulo 4575" width="56.375" height="9.396" transform="translate(0)" fill="#ffb74d"/>
                <g id="Grupo_26805" data-name="Grupo 26805" transform="translate(0 9.396)">
                  <rect id="Rectángulo_4576" data-name="Rectángulo 4576" width="14.094" height="9.396" transform="translate(9.396 0) rotate(90)" fill="#ffc571"/>
                  <rect id="Rectángulo_4577" data-name="Rectángulo 4577" width="14.094" height="9.396" transform="translate(18.792 0) rotate(90)" fill="#fff"/>
                  <rect id="Rectángulo_4578" data-name="Rectángulo 4578" width="14.094" height="9.396" transform="translate(28.188 0) rotate(90)" fill="#ffc571"/>
                  <rect id="Rectángulo_4579" data-name="Rectángulo 4579" width="14.094" height="9.396" transform="translate(37.584 0) rotate(90)" fill="#fff"/>
                  <rect id="Rectángulo_4580" data-name="Rectángulo 4580" width="14.094" height="9.396" transform="translate(46.98 0) rotate(90)" fill="#ffc571"/>
                  <rect id="Rectángulo_4581" data-name="Rectángulo 4581" width="14.094" height="9.396" transform="translate(56.377 0) rotate(90)" fill="#fff"/>
                </g>
                <g id="Grupo_26806" data-name="Grupo 26806" transform="translate(0 23.49)">
                  <path id="Trazado_2575" data-name="Trazado 2575" d="M1185.7,742.158v-5.012h9.4v5.012a4.7,4.7,0,0,1-4.7,4.7h0A4.7,4.7,0,0,1,1185.7,742.158Z" transform="translate(-1185.699 -737.146)" fill="#ffb74d"/>
                  <path id="Rectángulo_4582" data-name="Rectángulo 4582" d="M0,0H5.012a4.7,4.7,0,0,1,4.7,4.7v0a4.7,4.7,0,0,1-4.7,4.7H0a0,0,0,0,1,0,0V0A0,0,0,0,1,0,0Z" transform="translate(18.792 0) rotate(90)" fill="#e5e6eb"/>
                  <path id="Trazado_2576" data-name="Trazado 2576" d="M1253.35,742.158v-5.012h9.4v5.012a4.7,4.7,0,0,1-4.7,4.7h0A4.7,4.7,0,0,1,1253.35,742.158Z" transform="translate(-1234.558 -737.146)" fill="#ffb74d"/>
                  <path id="Trazado_2577" data-name="Trazado 2577" d="M1287.175,742.158v-5.012h9.4v5.012a4.7,4.7,0,0,1-4.7,4.7h0A4.7,4.7,0,0,1,1287.175,742.158Z" transform="translate(-1258.987 -737.146)" fill="#e5e6eb"/>
                  <path id="Rectángulo_4583" data-name="Rectángulo 4583" d="M0,0H5.012a4.7,4.7,0,0,1,4.7,4.7v0a4.7,4.7,0,0,1-4.7,4.7H0a0,0,0,0,1,0,0V0A0,0,0,0,1,0,0Z" transform="translate(46.981 0) rotate(90)" fill="#ffb74d"/>
                  <path id="Trazado_2578" data-name="Trazado 2578" d="M1354.81,742.158v-5.012h9.4v5.012a4.7,4.7,0,0,1-4.7,4.7h0A4.7,4.7,0,0,1,1354.81,742.158Z" transform="translate(-1307.834 -737.146)" fill="#e5e6eb"/>
                </g>
              </g>
            </g>
            <rect id="Rectángulo_4584" data-name="Rectángulo 4584" width="73.997" height="127.274" transform="translate(0 33.175)" fill="#155bcd"/>
            <rect id="Rectángulo_4585" data-name="Rectángulo 4585" width="53.648" height="61.276" transform="translate(10.175 44.694)" fill="#050f64"/>
            <rect id="Rectángulo_4586" data-name="Rectángulo 4586" width="4.255" height="12.764" transform="translate(10.175 112.074)" fill="#050f64"/>
          </g>
          <rect id="Rectángulo_4587" data-name="Rectángulo 4587" width="335.305" height="12.022" fill="#7785d1"/>
        </g>
      </g>
      <g id="Grupo_26820" data-name="Grupo 26820" transform="translate(0 56.23)">
        <g id="Grupo_26812" data-name="Grupo 26812" transform="translate(77.756 25.557)">
          <path id="Trazado_2579" data-name="Trazado 2579" d="M468.793,786.609l-3.85,16.977-1.924-.254,3.847-16.977Z" transform="translate(-463.02 -786.1)" fill="#050f64"/>
          <path id="Trazado_2580" data-name="Trazado 2580" d="M483.287,785.439l-3.85,16.977-9.492.509,3.85-16.977Z" transform="translate(-468.021 -785.439)" fill="#ffc571"/>
        </g>
        <g id="Grupo_26814" data-name="Grupo 26814" transform="translate(45.732 32.985)">
          <g id="Grupo_26813" data-name="Grupo 26813" transform="translate(0.025 0.54)">
            <path id="Trazado_2581" data-name="Trazado 2581" d="M403.98,849.683a2.121,2.121,0,0,1-.238,2.9c-2.449,2.042-4.944,4.052-7.589,5.948a54.872,54.872,0,0,1-8.58,5.2,25.443,25.443,0,0,1-5.177,1.829,16.485,16.485,0,0,1-6.185.294,15.191,15.191,0,0,1-6.138-2.413,21.857,21.857,0,0,1-4.486-4.064,37.635,37.635,0,0,1-3.224-4.43c-.941-1.491-1.784-2.986-2.573-4.48-1.572-2.987-2.942-5.968-4.247-8.936-2.6-5.938-4.942-11.832-7.3-17.682-1.4-3.744.9-7.972,5.066-9.32s8.518.773,9.548,4.636c1.488,6.119,2.942,12.214,4.562,18.123.813,2.95,1.672,5.853,2.646,8.615.488,1.378,1.007,2.719,1.569,3.989a28.157,28.157,0,0,0,1.826,3.523,12.987,12.987,0,0,0,2.093,2.647,6.38,6.38,0,0,0,2.373,1.461c1.768.622,4.384.385,7.06-.441a48.494,48.494,0,0,0,8.144-3.461c2.71-1.4,5.385-2.976,8.039-4.6A2.137,2.137,0,0,1,403.98,849.683Z" transform="translate(-347.826 -814.121)" fill="#ea8096"/>
          </g>
          <path id="Trazado_2582" data-name="Trazado 2582" d="M354.411,841.427,348.452,824.6c-1.8-5.09-.123-10.492,4.184-12.017h0c4.307-1.525,9.61,1.4,11.412,6.494l5.959,16.828Z" transform="translate(-347.737 -812.178)" fill="#ffc571"/>
        </g>
        <g id="Grupo_26815" data-name="Grupo 26815" transform="translate(0 207.951)">
          <path id="Trazado_2583" data-name="Trazado 2583" d="M194.74,1444.871a18.149,18.149,0,0,0,2.076,8.072L187.61,1446l.392-1.147a13.344,13.344,0,0,0,2.715-2.813Z" transform="translate(-186.359 -1442.043)" fill="#f5bdc8"/>
          <path id="Trazado_2584" data-name="Trazado 2584" d="M183.5,1453.848l12.046,8.469a.521.521,0,0,0,.767-.658l-2.569-5.176a.646.646,0,0,0-1.038.029.719.719,0,0,1-.931.084l-4.831-3.375a4.361,4.361,0,0,1-1.425-1.669l-.4-.825a.309.309,0,0,0-.53-.042l-1.313,1.868A.929.929,0,0,0,183.5,1453.848Z" transform="translate(-183.105 -1448.19)" fill="#050f64"/>
        </g>
        <g id="Grupo_26816" data-name="Grupo 26816" transform="translate(49.705 219.427)">
          <path id="Trazado_2585" data-name="Trazado 2585" d="M368.691,1483.356a18.151,18.151,0,0,0,6.343,5.407l-11.522-.379-.34-1.164a13.335,13.335,0,0,0,.6-3.863Z" transform="translate(-362.857 -1483.356)" fill="#f5bdc8"/>
          <path id="Trazado_2586" data-name="Trazado 2586" d="M362.97,1498.439l14.726,0a.521.521,0,0,0,.248-.98l-5.08-2.755c-.5-.122-.768.195-.832.621a.72.72,0,0,1-.713.6l-5.893.02a4.367,4.367,0,0,1-2.126-.545l-.8-.444a.309.309,0,0,0-.458.27v2.283A.929.929,0,0,0,362.97,1498.439Z" transform="translate(-362.04 -1491.53)" fill="#050f64"/>
        </g>
        <path id="Trazado_2587" data-name="Trazado 2587" d="M320.407,1008.67h0v0c.29-6.47,22.285-11.055,21.995-4.585,0,0,1.842,52.375,1.842,52.375a63.225,63.225,0,0,1-.29,6.623l-6.972,71.878h-5.045l-5.473-74.156C318.984,1047.411,317.824,1029.406,320.407,1008.67Z" transform="translate(-281.367 -915.533)" fill="#155bcd"/>
        <path id="Trazado_2588" data-name="Trazado 2588" d="M225.861,1050.21c-6.543-13.379-7.179-30.881-4.266-50.861h0v0a11.727,11.727,0,0,1,23.4,1.538s0,.009,0,.014-.6,49.874-.615,50.131v.074h0a8.888,8.888,0,0,1-1.1,3.75l-.008.012c-.136.243-40.75,62.583-40.75,62.583l-4.323-3.017Z" transform="translate(-194.009 -906.455)" fill="#155bcd"/>
        <path id="Trazado_2589" data-name="Trazado 2589" d="M231.354,1105.27l.4.453,15.334-23.581a9.437,9.437,0,0,0,1.122-3.47s.07-1.155.061-1.427l.529-42.858-.589-.007-.534,43.727h-.006a8.857,8.857,0,0,1-1.1,3.75l-.006.012c-.137.243-.286.479-.444.716l-.041.055h.006Zm-28.009,31.885,25.814-59.941a51.548,51.548,0,0,1-3.245-8.538l-.567.137a52.234,52.234,0,0,0,3.169,8.416l-25.746,59.78Zm.278,5.764c-.105.164-.21.328-.319.488l2.681,1.871,10.187-15.638-.438-.4-9.909,15.212Zm19.108-99.913.585-.026a154.166,154.166,0,0,1,1.578-16.626c.012-.193.029-.383.053-.573h-.588c-.018.164-.032.327-.044.494A154.887,154.887,0,0,0,222.731,1043.006Z" transform="translate(-197.307 -933.46)" fill="#050f64"/>
        <path id="Trazado_2590" data-name="Trazado 2590" d="M320.583,758.919s-11.423.718-12.7-13.194c0,0,5.51-3.055,5.872-3.159s6.451,9.414,6.451,9.414Z" transform="translate(-273.222 -728.917)" fill="#050f64"/>
        <path id="Trazado_2591" data-name="Trazado 2591" d="M284.736,800.246h0a21.785,21.785,0,0,1,23.315,23.382l-2.577,35.456c-9.243,4.249-21.743,4.679-32.969,2.417l-4.267-40.551A18.023,18.023,0,0,1,284.736,800.246Z" transform="translate(-244.438 -770.532)" fill="#ffc571"/>
        <path id="Trazado_2592" data-name="Trazado 2592" d="M269.4,829.79l3.56,33.867.422.084c2.19.443,4.413.778,6.63,1l0-.586c-2.2-.226-4.376-.561-6.512-.991l-3.516-33.41Zm25.229-27.295-.08.586a21.8,21.8,0,0,1,14.5,22.215l-2,27.489.593-.108,1.988-27.339a22.377,22.377,0,0,0-15-22.843Z" transform="translate(-245.426 -772.2)" fill="#fff"/>
        <g id="Grupo_26817" data-name="Grupo 26817" transform="translate(33.458)">
          <path id="Trazado_2593" data-name="Trazado 2593" d="M331.065,779.2l-2.529,13.123a7.41,7.41,0,0,1-8.55-1.648l2.529-13.123Z" transform="translate(-315.42 -754.183)" fill="#f5bdc8"/>
          <path id="Trazado_2594" data-name="Trazado 2594" d="M335.314,783.477l-.628,3.255a9.5,9.5,0,0,1-4.595.472c-.089-.014-.179-.029-.268-.046a5.793,5.793,0,0,1-3.639-2.327l.579-3Z" transform="translate(-319.898 -757.274)" fill="#ea8096"/>
          <path id="Trazado_2595" data-name="Trazado 2595" d="M336.971,731.591l-1.655,7.607-.369,1.688a8.282,8.282,0,0,1-9.252,6.36,4.687,4.687,0,0,1-1.255-.366,5.126,5.126,0,0,1-.457-.236c-.031-.016-.062-.036-.093-.055a4.512,4.512,0,0,1-1.433-1.393,13.961,13.961,0,0,1-1.63-3.888,23.868,23.868,0,0,1-.761-3.443,10.707,10.707,0,0,1,.2-4.1l.973-2.779,3.624-3.191,10.2.136Z" transform="translate(-315.4 -718.249)" fill="#f5bdc8"/>
          <path id="Trazado_2596" data-name="Trazado 2596" d="M310.384,702.7c.164-.213.327-.4.49-.579a3.448,3.448,0,0,1-1.564-1.411c-1.151-2.018.048-4.871,2.68-6.372s5.7-1.083,6.849.935a3.626,3.626,0,0,1,.265,2.84c5.483-1.179,9.6,3.881,10.136,6.96a16.163,16.163,0,0,1-.286,6.615c1.587,1.01,1.472,5.792-1.243,6.945-3.47,1.473-1.825,4.918-1.825,4.918-1.3-1.23-1.7-4.346.326-5.763,1.372-.96,2.717-2,1.809-3.818-.543-1.087-1.013-2.265-1.576-3.488a7.58,7.58,0,0,0-5.621-4.325l-.054-.009c-3.567-.574-4.421-2.032-4.625-2.751a11.443,11.443,0,0,0-1.619,2.861,4.068,4.068,0,0,0,.309.787c2.456,4.768-3.636,10.365-3.636,10.365s4.285-4.893,2.482-8.682c-.31,1.1-.454,1.891-.454,1.891.227,3.33-3.508,3.174-4.464,2.036C306.47,709.923,308.778,704.787,310.384,702.7Z" transform="translate(-306.618 -693.434)" fill="#050f64"/>
          <circle id="Elipse_212" data-name="Elipse 212" cx="3.168" cy="3.168" r="3.168" transform="matrix(0.828, -0.561, 0.561, 0.828, 0, 16.146)" fill="#f5bdc8"/>
        </g>
        <g id="Grupo_26819" data-name="Grupo 26819" transform="translate(27.01 29.743)">
          <g id="Grupo_26818" data-name="Grupo 26818" transform="translate(1.165)">
            <path id="Trazado_2597" data-name="Trazado 2597" d="M345.5,800.519a2.121,2.121,0,0,1,1.968,2.14c-.159,3.185-.373,6.381-.772,9.611A54.853,54.853,0,0,1,344.7,822.1a25.442,25.442,0,0,1-2.165,5.046,16.5,16.5,0,0,1-3.977,4.746,15.189,15.189,0,0,1-5.935,2.876,21.861,21.861,0,0,1-6.029.543,37.587,37.587,0,0,1-5.442-.633c-1.734-.319-3.4-.713-5.038-1.145-3.262-.869-6.382-1.883-9.448-2.936-6.126-2.116-12.048-4.389-17.949-6.62-3.7-1.506-5.249-6.067-3.417-10.042s6.343-5.738,9.881-3.876c5.507,3.055,10.974,6.117,16.415,8.932,2.72,1.4,5.437,2.74,8.127,3.9,1.344.575,2.682,1.1,4,1.551a28.154,28.154,0,0,0,3.828,1.047,12.984,12.984,0,0,0,3.364.256,6.384,6.384,0,0,0,2.683-.753c1.656-.878,3.255-2.962,4.462-5.489a48.5,48.5,0,0,0,2.977-8.334c.809-2.941,1.463-5.976,2.066-9.031A2.137,2.137,0,0,1,345.5,800.519Z" transform="translate(-284.531 -800.505)" fill="#f5bdc8"/>
          </g>
          <path id="Trazado_2598" data-name="Trazado 2598" d="M305.393,854.75l-16.41-7.028c-4.964-2.126-7.8-7.022-6-11.222h0c1.8-4.2,7.547-6.112,12.511-3.987l16.41,7.028Z" transform="translate(-281.857 -822.991)" fill="#ffc571"/>
          <path id="Trazado_2599" data-name="Trazado 2599" d="M296.7,864.405l7.485,3.208,6.974-16.285-6.188-2.65-.2.55,5.621,2.409-6.514,15.208-6.928-2.968Zm-9.462-4.052.862.369c.071-.182.139-.366.209-.546l-.84-.36c-4.924-2.11-7.75-6.945-6.038-11.12l-.508-.312C279.053,852.784,281.82,858.037,287.234,860.353Z" transform="translate(-280.338 -835.085)" fill="#fff"/>
        </g>
      </g>
      <g id="Grupo_26825" data-name="Grupo 26825" transform="translate(140.68 2.316)">
        <g id="Grupo_26823" data-name="Grupo 26823" transform="translate(0 141.919)">
          <rect id="Rectángulo_4588" data-name="Rectángulo 4588" width="77.918" height="23.612" rx="10" fill="#ff9800"/>
          <g id="Grupo_26821" data-name="Grupo 26821" transform="translate(20.48 4.89)">
            <path id="Trazado_2600" data-name="Trazado 2600" d="M767.817,1027.847a8.683,8.683,0,0,1,2.241.252,4.292,4.292,0,0,1,1.528.717,2.782,2.782,0,0,1,.878,1.135,3.87,3.87,0,0,1,.28,1.5,3,3,0,0,1-.147.935,2.743,2.743,0,0,1-.456.845,3.342,3.342,0,0,1-.774.708,4.441,4.441,0,0,1-1.1.522q2.905.618,2.9,3.086a3.85,3.85,0,0,1-.327,1.6,3.533,3.533,0,0,1-.95,1.253,4.458,4.458,0,0,1-1.533.821,6.76,6.76,0,0,1-2.079.294H763.27v-13.671Zm-2.326,1.738v4.272h2.221a3.417,3.417,0,0,0,2.127-.551,1.9,1.9,0,0,0,.7-1.586,1.924,1.924,0,0,0-.66-1.633,3.414,3.414,0,0,0-2.065-.5Zm2.753,10.177a3.979,3.979,0,0,0,1.267-.176,2.32,2.32,0,0,0,.845-.479,1.781,1.781,0,0,0,.475-.717,2.627,2.627,0,0,0,.147-.887,1.885,1.885,0,0,0-.66-1.524,3.2,3.2,0,0,0-2.084-.555h-2.744v4.339Z" transform="translate(-763.27 -1027.847)" fill="#fff"/>
            <path id="Trazado_2601" data-name="Trazado 2601" d="M812.852,1039.724a3.555,3.555,0,0,0,1.41-.266,2.992,2.992,0,0,0,1.054-.74,3.207,3.207,0,0,0,.66-1.144,4.585,4.585,0,0,0,.228-1.486v-8.24h2.212v8.24a6.3,6.3,0,0,1-.385,2.231,4.974,4.974,0,0,1-2.857,2.938,6.588,6.588,0,0,1-4.642,0,4.976,4.976,0,0,1-2.858-2.938,6.3,6.3,0,0,1-.384-2.231v-8.24h2.221v8.231a4.591,4.591,0,0,0,.228,1.486,3.3,3.3,0,0,0,.655,1.149,2.914,2.914,0,0,0,1.049.745A3.554,3.554,0,0,0,812.852,1039.724Z" transform="translate(-795.061 -1027.847)" fill="#fff"/>
            <path id="Trazado_2602" data-name="Trazado 2602" d="M859.606,1036.164v5.354h-2.212v-5.354l-4.994-8.317h1.946a.7.7,0,0,1,.465.142,1.161,1.161,0,0,1,.285.361l2.8,4.9q.19.37.347.7t.28.655a5.428,5.428,0,0,1,.256-.66q.152-.327.342-.7l2.782-4.9a1.124,1.124,0,0,1,.275-.347.683.683,0,0,1,.465-.157H864.6Z" transform="translate(-827.641 -1027.847)" fill="#fff"/>
          </g>
          <g id="Grupo_26822" data-name="Grupo 26822" transform="translate(3.899 9.802)">
            <circle id="Elipse_213" data-name="Elipse 213" cx="2.003" cy="2.003" r="2.003" fill="#050f64"/>
            <circle id="Elipse_214" data-name="Elipse 214" cx="2.003" cy="2.003" r="2.003" transform="translate(66.112)" fill="#050f64"/>
          </g>
        </g>
        <g id="Grupo_26824" data-name="Grupo 26824" transform="translate(5.225)">
          <path id="Trazado_2603" data-name="Trazado 2603" d="M774.464,653.221l-32.378-147.4-32.378,147.4-1.357-.3,33.735-153.576,33.735,153.576Z" transform="translate(-708.352 -499.348)" fill="#050f64"/>
        </g>
      </g>
      <g id="Grupo_26842" data-name="Grupo 26842" transform="translate(179.03 197.583)">
        <g id="Grupo_26826" data-name="Grupo 26826" transform="translate(0)">
          <path id="Trazado_2604" data-name="Trazado 2604" d="M984.57,1202.3H831.99a4.535,4.535,0,0,0-4.391,4.666v75.651a4.535,4.535,0,0,0,4.391,4.666H984.57a4.535,4.535,0,0,0,4.391-4.666v-75.651A4.535,4.535,0,0,0,984.57,1202.3Z" transform="translate(-827.599 -1202.295)" fill="#ffc571"/>
        </g>
        <g id="Grupo_26827" data-name="Grupo 26827" transform="translate(117.156 5.168)">
          <circle id="Elipse_215" data-name="Elipse 215" cx="13.397" cy="13.397" r="13.397" transform="translate(0 18.947) rotate(-45)" fill="#fff"/>
        </g>
        <g id="Grupo_26828" data-name="Grupo 26828" transform="translate(0 69.285)">
          <rect id="Rectángulo_4589" data-name="Rectángulo 4589" width="161.362" height="4.981" fill="#111e61"/>
        </g>
        <g id="Grupo_26829" data-name="Grupo 26829" transform="translate(11.862 54.19)">
          <rect id="Rectángulo_4590" data-name="Rectángulo 4590" width="29.473" height="4.984" fill="#fff"/>
        </g>
        <g id="Grupo_26830" data-name="Grupo 26830" transform="translate(46.733 54.19)">
          <rect id="Rectángulo_4591" data-name="Rectángulo 4591" width="31.249" height="4.984" fill="#fff"/>
        </g>
        <g id="Grupo_26831" data-name="Grupo 26831" transform="translate(83.38 54.19)">
          <rect id="Rectángulo_4592" data-name="Rectángulo 4592" width="31.249" height="4.984" fill="#fff"/>
        </g>
        <g id="Grupo_26832" data-name="Grupo 26832" transform="translate(120.027 54.19)">
          <rect id="Rectángulo_4593" data-name="Rectángulo 4593" width="29.473" height="4.984" fill="#fff"/>
        </g>
        <g id="Grupo_26841" data-name="Grupo 26841" transform="translate(12.605 21.585)">
          <g id="Grupo_26833" data-name="Grupo 26833">
            <rect id="Rectángulo_4594" data-name="Rectángulo 4594" width="35.63" height="24.239" rx="12.119" fill="#fff"/>
          </g>
          <g id="Grupo_26834" data-name="Grupo 26834" transform="translate(0.001 17.118)">
            <rect id="Rectángulo_4595" data-name="Rectángulo 4595" width="35.629" height="0.467" fill="#ff9800"/>
          </g>
          <g id="Grupo_26835" data-name="Grupo 26835" transform="translate(0.001 6.521)">
            <rect id="Rectángulo_4596" data-name="Rectángulo 4596" width="35.629" height="0.467" fill="#ff9800"/>
          </g>
          <g id="Grupo_26836" data-name="Grupo 26836" transform="translate(20.43 6.755)">
            <rect id="Rectángulo_4597" data-name="Rectángulo 4597" width="0.467" height="17.484" fill="#ff9800"/>
          </g>
          <g id="Grupo_26837" data-name="Grupo 26837" transform="translate(28.642 6.755)">
            <rect id="Rectángulo_4598" data-name="Rectángulo 4598" width="0.467" height="10.596" fill="#ff9800"/>
          </g>
          <g id="Grupo_26838" data-name="Grupo 26838" transform="translate(8.641)">
            <rect id="Rectángulo_4599" data-name="Rectángulo 4599" width="0.467" height="24.239" fill="#ff9800"/>
          </g>
          <g id="Grupo_26839" data-name="Grupo 26839" transform="translate(14.734)">
            <rect id="Rectángulo_4600" data-name="Rectángulo 4600" width="0.467" height="6.755" fill="#ff9800"/>
          </g>
          <g id="Grupo_26840" data-name="Grupo 26840" transform="translate(3.873 17.351)">
            <rect id="Rectángulo_4601" data-name="Rectángulo 4601" width="0.467" height="6.888" fill="#ff9800"/>
          </g>
        </g>
      </g>
      <g id="Grupo_26845" data-name="Grupo 26845" transform="translate(320.365 211.817)">
        <path id="Trazado_2605" data-name="Trazado 2605" d="M1442.708,1340.5l-.669,2.541-9.8,37.242h-61.349l-9.8-37.242-.669-2.541Z" transform="translate(-1353.75 -1316.342)" fill="#fff"/>
        <path id="Trazado_2606" data-name="Trazado 2606" d="M1362.832,1349.647l6,44.052h68.935l6-44.052Z" transform="translate(-1355.488 -1322.948)" fill="#111e61"/>
        <g id="Grupo_26843" data-name="Grupo 26843" transform="translate(28.791 35.646)">
          <path id="Trazado_2607" data-name="Trazado 2607" d="M1442.4,1408.015h0a2.361,2.361,0,0,1-2.361-2.361v-21.434a2.361,2.361,0,0,1,2.361-2.361h0a2.361,2.361,0,0,1,2.361,2.361v21.434A2.361,2.361,0,0,1,1442.4,1408.015Z" transform="translate(-1440.038 -1381.858)" fill="#84a9ff"/>
          <path id="Trazado_2608" data-name="Trazado 2608" d="M1502.394,1408.015h0a2.361,2.361,0,0,1-2.361-2.361v-21.434a2.361,2.361,0,0,1,2.361-2.361h0a2.361,2.361,0,0,1,2.361,2.361v21.434A2.361,2.361,0,0,1,1502.394,1408.015Z" transform="translate(-1483.367 -1381.858)" fill="#84a9ff"/>
          <rect id="Rectángulo_4602" data-name="Rectángulo 4602" width="4.723" height="26.157" rx="2.361" transform="translate(33.331)" fill="#84a9ff"/>
        </g>
        <path id="Trazado_2609" data-name="Trazado 2609" d="M1426.853,1313.585h-85.282a5.177,5.177,0,0,1-5.177-5.177h0a5.177,5.177,0,0,1,5.177-5.177h85.282a5.177,5.177,0,0,1,5.177,5.177h0A5.177,5.177,0,0,1,1426.853,1313.585Z" transform="translate(-1336.394 -1289.426)" fill="#111e61"/>
        <path id="Trazado_2610" data-name="Trazado 2610" d="M1442.708,1340.5l-.669,2.541h-80.945l-.669-2.541Z" transform="translate(-1353.75 -1316.342)" fill="#84a9ff"/>
        <g id="Grupo_26844" data-name="Grupo 26844" transform="translate(29.091)">
          <rect id="Rectángulo_4603" data-name="Rectángulo 4603" width="3.519" height="13.805" fill="#111e61"/>
          <rect id="Rectángulo_4604" data-name="Rectángulo 4604" width="3.519" height="13.805" transform="translate(33.934)" fill="#111e61"/>
          <rect id="Rectángulo_4605" data-name="Rectángulo 4605" width="3.519" height="37.452" transform="translate(37.452 0) rotate(90)" fill="#111e61"/>
        </g>
      </g>
    </g>
  </g>
</svg>
