<svg xmlns="http://www.w3.org/2000/svg" width="94.482" height="94.459" viewBox="0 0 94.482 94.459">
  <g id="auriculares" transform="translate(-1.426 -1.488)">
    <g id="Grupo_28277" data-name="Grupo 28277" transform="translate(1.426 1.489)">
      <path id="Trazado_4232" data-name="Trazado 4232" d="M325.945,260.913H307.476a2.851,2.851,0,1,1,0-5.7h18.469a8.59,8.59,0,0,0,8.58-8.58V209.048a2.851,2.851,0,1,1,5.7,0v37.583a14.3,14.3,0,0,1-14.282,14.282Z" transform="translate(-248.14 -168.436)" fill="#f9f6f9"/>
      <path id="Trazado_4233" data-name="Trazado 4233" d="M103.215,72.709a3.8,3.8,0,0,1-3.8-3.8V43.242A28.109,28.109,0,0,0,71.337,15.164H51.3A28.109,28.109,0,0,0,23.225,43.242V68.908a3.8,3.8,0,1,1-7.6,0V43.242A35.72,35.72,0,0,1,51.3,7.562H71.337a35.72,35.72,0,0,1,35.68,35.68V68.908A3.8,3.8,0,0,1,103.215,72.709Z" transform="translate(-14.079 -7.562)" fill="#3b56e1"/>
      <g id="Grupo_28270" data-name="Grupo 28270" transform="translate(1.544)">
        <path id="Trazado_4234" data-name="Trazado 4234" d="M19.059,68.908V43.242a35.72,35.72,0,0,1,35.68-35.68H51.3a35.72,35.72,0,0,0-35.68,35.68V68.908A3.8,3.8,0,0,0,21.142,72.3,3.8,3.8,0,0,1,19.059,68.908Z" transform="translate(-15.623 -7.562)" fill="#111e61"/>
        <path id="Trazado_4235" data-name="Trazado 4235" d="M340.206,101.3V75.629a28.109,28.109,0,0,0-28.077-28.077h-3.436a28.109,28.109,0,0,1,28.077,28.077V101.3a3.8,3.8,0,0,0,5.519,3.388A3.8,3.8,0,0,1,340.206,101.3Z" transform="translate(-252.978 -39.95)" fill="#111e61"/>
      </g>
      <g id="Grupo_28273" data-name="Grupo 28273" transform="translate(0 40.612)">
        <g id="Grupo_28271" data-name="Grupo 28271">
          <path id="Trazado_4236" data-name="Trazado 4236" d="M20.318,285.433A12.818,12.818,0,0,1,7.5,272.616v-1.861a12.818,12.818,0,0,1,12.818-12.818l6.747,13.748Z" transform="translate(-7.5 -250.952)" fill="#e27a66"/>
          <path id="Trazado_4237" data-name="Trazado 4237" d="M24.224,324.577l-3.906,3.3A12.818,12.818,0,0,1,7.5,315.062V313.2a12.834,12.834,0,0,1,.39-3.147,12.821,12.821,0,0,0,12.428,9.67Z" transform="translate(-7.501 -293.159)" fill="#dd636e"/>
          <path id="Trazado_4238" data-name="Trazado 4238" d="M81.671,221.193a6.747,6.747,0,0,0-6.747,6.747v27.973a6.747,6.747,0,0,0,13.493,0V227.94A6.747,6.747,0,0,0,81.671,221.193Z" transform="translate(-62.106 -221.193)" fill="#6b61b1"/>
          <path id="Trazado_4239" data-name="Trazado 4239" d="M88.414,339.913v12.15a6.746,6.746,0,1,1-13.492,0v-12.15a6.746,6.746,0,1,0,13.492,0Z" transform="translate(-62.105 -317.344)" fill="#5e54ac"/>
        </g>
        <g id="Grupo_28272" data-name="Grupo 28272" transform="translate(68.171)">
          <path id="Trazado_4240" data-name="Trazado 4240" d="M408.334,285.433a12.818,12.818,0,0,0,12.818-12.818v-1.861a12.818,12.818,0,0,0-12.818-12.818l-6.747,13.748Z" transform="translate(-394.84 -250.952)" fill="#e27a66"/>
          <path id="Trazado_4241" data-name="Trazado 4241" d="M415.143,324.577l4.169,3.3a12.818,12.818,0,0,0,12.817-12.817V313.2a12.834,12.834,0,0,0-.39-3.147,12.821,12.821,0,0,1-12.428,9.67Z" transform="translate(-405.819 -293.159)" fill="#dd636e"/>
          <path id="Trazado_4242" data-name="Trazado 4242" d="M372.845,221.193a6.747,6.747,0,0,1,6.747,6.747v27.973a6.747,6.747,0,0,1-13.493,0V227.94A6.747,6.747,0,0,1,372.845,221.193Z" transform="translate(-366.098 -221.193)" fill="#6b61b1"/>
          <path id="Trazado_4243" data-name="Trazado 4243" d="M366.106,339.913v12.15a6.746,6.746,0,1,0,13.492,0v-12.15a6.746,6.746,0,1,1-13.492,0Z" transform="translate(-366.104 -317.344)" fill="#5e54ac"/>
        </g>
      </g>
      <path id="Trazado_4244" data-name="Trazado 4244" d="M270.144,447.945h3.545a5.37,5.37,0,0,1,0,10.74h-3.545a5.37,5.37,0,1,1,0-10.74Z" transform="translate(-215.865 -364.226)" fill="#6b61b1"/>
      <path id="Trazado_4245" data-name="Trazado 4245" d="M274.693,458.592a5.305,5.305,0,0,1-1.005.1h-3.544a5.369,5.369,0,0,1,0-10.738h3.544a5.305,5.305,0,0,1,1.005.1,5.369,5.369,0,0,0,0,10.548Z" transform="translate(-215.865 -364.229)" fill="#5e54ac"/>
      <g id="Grupo_28276" data-name="Grupo 28276" transform="translate(31.799 23.083)">
        <g id="Grupo_28274" data-name="Grupo 28274" transform="translate(0 0)">
          <path id="Trazado_4246" data-name="Trazado 4246" d="M190.212,164.365a4.8,4.8,0,0,1-4.8-4.8v-4.5a4.8,4.8,0,0,1,4.8-4.8,5.856,5.856,0,0,0,5.843-6.169,5.852,5.852,0,0,0-11.638-.5,5.965,5.965,0,0,0-.057.822,4.8,4.8,0,1,1-9.59,0,15.432,15.432,0,0,1,15.443-15.442c.105,0,.21,0,.315,0a15.488,15.488,0,0,1,15.1,14.624,15.317,15.317,0,0,1-4.223,11.445,15.5,15.5,0,0,1-6.4,4.042v.47A4.8,4.8,0,0,1,190.212,164.365Z" transform="translate(-174.77 -128.985)" fill="#9dc6fb"/>
          <path id="Trazado_4247" data-name="Trazado 4247" d="M235.57,345.062a4.8,4.8,0,0,1-4.8-4.8v-.126a4.8,4.8,0,0,1,9.59,0v.126A4.8,4.8,0,0,1,235.57,345.062Z" transform="translate(-220.128 -296.116)" fill="#9dc6fb"/>
        </g>
        <g id="Grupo_28275" data-name="Grupo 28275" transform="translate(0)">
          <path id="Trazado_4248" data-name="Trazado 4248" d="M178.164,142.278a15.558,15.558,0,0,0-.149,2.148,4.793,4.793,0,0,0,3.173,4.512,4.795,4.795,0,0,1-6.418-4.512,15.431,15.431,0,0,1,15.442-15.442c.106,0,.211,0,.317,0,.44.01.876.037,1.306.083A15.443,15.443,0,0,0,178.164,142.278Z" transform="translate(-174.771 -128.984)" fill="#80b4fb"/>
          <path id="Trazado_4249" data-name="Trazado 4249" d="M243.059,189.313a5.792,5.792,0,0,1-4.242,1.825,4.8,4.8,0,0,0-4.8,4.8v4.5a4.8,4.8,0,0,0,3.173,4.514,4.8,4.8,0,0,1-6.418-4.514v-4.5a4.8,4.8,0,0,1,4.8-4.8,5.857,5.857,0,0,0,5.842-6.17,5.861,5.861,0,0,0-4.223-5.3,5.85,5.85,0,0,1,5.868,9.648Z" transform="translate(-220.13 -169.844)" fill="#80b4fb"/>
          <path id="Trazado_4250" data-name="Trazado 4250" d="M237.195,344.786a4.8,4.8,0,0,1-6.418-4.514v-.125a4.8,4.8,0,0,1,6.418-4.514,4.8,4.8,0,0,0-3.173,4.514v.125A4.8,4.8,0,0,0,237.195,344.786Z" transform="translate(-220.13 -296.121)" fill="#80b4fb"/>
        </g>
      </g>
    </g>
  </g>
</svg>
