<svg xmlns="http://www.w3.org/2000/svg" width="156.521" height="155.811" viewBox="0 0 156.521 155.811">
  <g id="charla_1_" data-name="charla (1)" transform="translate(-2.57 -2.998)">
    <path id="Trazado_4254" data-name="Trazado 4254" d="M24.039,40.782A26.121,26.121,0,0,0,44.348,10h68.347A10.435,10.435,0,0,1,123.13,20.435V62.173a10.435,10.435,0,0,1-10.435,10.435h-2.609V93.478L84,72.608H34.435A10.435,10.435,0,0,1,24,62.173V40.782Z" transform="translate(35.961 13.157)" fill="#c0dafc"/>
    <path id="Trazado_4255" data-name="Trazado 4255" d="M24.039,34.348H24V55.739A10.435,10.435,0,0,0,34.435,66.173H84l26.087,20.869V66.173h.123V14H44.327A26.105,26.105,0,0,1,24.039,34.348Z" transform="translate(35.961 19.592)" fill="#d7ecff"/>
    <path id="Trazado_4256" data-name="Trazado 4256" d="M105.246,46.869H69.826A10.435,10.435,0,0,1,59.391,36.435V26.044c-.863-.029-1.735-.044-2.609-.044C26.522,26,2,43.52,2,65.13c0,16.333,14.009,30.328,33.913,36.19v18.592l26.418-15.85h.052c27.626-2.009,49.181-18.67,49.181-38.932A30.522,30.522,0,0,0,105.246,46.869Z" transform="translate(0.57 38.896)" fill="#78a0d4"/>
    <ellipse id="Elipse_275" data-name="Elipse 275" cx="26.587" cy="25.756" rx="26.587" ry="25.756" transform="translate(28.21 2.998)" fill="#f0ae42"/>
    <path id="Trazado_4257" data-name="Trazado 4257" d="M22.087,21.7,20.081,11.679A4.858,4.858,0,0,1,20,10.748,4.748,4.748,0,0,1,24.748,6h.939a4.748,4.748,0,0,1,4.748,4.748,4.857,4.857,0,0,1-.091.931l-2,10.023a3.194,3.194,0,0,1-6.261,0Z" transform="translate(29.526 6.723)" fill="#fce797"/>
    <ellipse id="Elipse_276" data-name="Elipse 276" cx="6.647" cy="4.985" rx="6.647" ry="4.985" transform="translate(48.15 36.232)" fill="#fce797"/>
    <g id="Grupo_28279" data-name="Grupo 28279" transform="translate(84.707 54.511)">
      <ellipse id="Elipse_277" data-name="Elipse 277" cx="4.985" cy="5.816" rx="4.985" ry="5.816" transform="translate(0 0)" fill="#78a0d4"/>
      <ellipse id="Elipse_278" data-name="Elipse 278" cx="4.985" cy="5.816" rx="4.985" ry="5.816" transform="translate(19.94 0)" fill="#78a0d4"/>
      <circle id="Elipse_279" data-name="Elipse 279" cx="5.816" cy="5.816" r="5.816" transform="translate(39.88 0)" fill="#78a0d4"/>
    </g>
    <g id="Grupo_28280" data-name="Grupo 28280" transform="translate(31.265 104.026)">
      <path id="Trazado_4258" data-name="Trazado 4258" d="M18.217,51.435a5.217,5.217,0,1,1,5.217-5.217A5.217,5.217,0,0,1,18.217,51.435Z" transform="translate(-13 -41)" fill="#c0dafc"/>
      <path id="Trazado_4259" data-name="Trazado 4259" d="M26.217,51.435a5.217,5.217,0,1,1,5.217-5.217A5.217,5.217,0,0,1,26.217,51.435Z" transform="translate(-0.131 -41)" fill="#c0dafc"/>
      <path id="Trazado_4260" data-name="Trazado 4260" d="M34.217,51.435a5.217,5.217,0,1,1,5.217-5.217A5.217,5.217,0,0,1,34.217,51.435Z" transform="translate(12.739 -41)" fill="#c0dafc"/>
    </g>
  </g>
</svg>
