<svg xmlns="http://www.w3.org/2000/svg" width="292" height="167" viewBox="0 0 292 167">
  <g id="Grupo_55672" data-name="Grupo 55672" transform="translate(-492 -1643)">
    <rect id="Rectángulo_4618" data-name="Rectángulo 4618" width="292" height="167" rx="10" transform="translate(492 1643)" fill="#fff1db"/>
    <text id="Inseparabilidad." transform="translate(566 1786)" fill="#111e61" font-size="20" font-family="Roboto-Black, Roboto" font-weight="800"><tspan x="0" y="0">Inseparabilidad.</tspan></text>
    <path id="cadena_1_" data-name="cadena (1)" d="M27.242,20.04a1.181,1.181,0,0,0,2.045-1.181l-2.759-4.78a1.181,1.181,0,1,0-2.045,1.181ZM14.076,26.53l5.2,3a1.181,1.181,0,1,0,1.181-2.046l-5.2-3a1.181,1.181,0,0,0-1.181,2.046ZM66.549,54.095l-5.2-3a1.181,1.181,0,0,0-1.181,2.046l5.2,3a1.181,1.181,0,0,0,1.181-2.046ZM53.383,60.586a1.181,1.181,0,0,0-2.045,1.181l2.759,4.78a1.181,1.181,0,1,0,2.045-1.181ZM75.915,6.142,74.482,4.71A16.088,16.088,0,0,0,53.891,2.9a1.181,1.181,0,1,0,1.358,1.933A13.726,13.726,0,0,1,72.812,6.381l1.432,1.432a13.716,13.716,0,0,1,0,19.4l-10.5,10.5a13.717,13.717,0,0,1-19.4,0l-1.433-1.433A13.7,13.7,0,0,1,39.5,30.613l.807-.807a6.385,6.385,0,0,1,3.64-1.814,8.731,8.731,0,0,0,2.457,4.8l1.433,1.433a8.784,8.784,0,0,0,12.422,0l10.5-10.5a8.782,8.782,0,0,0,0-12.422L69.325,9.868a8.783,8.783,0,0,0-12.422,0l-8.741,8.741a16.292,16.292,0,0,0-6.726.02,13.813,13.813,0,0,1,1.479-1.749L51.28,8.515a1.181,1.181,0,0,0-1.671-1.67L41.245,15.21a16.023,16.023,0,0,0-3.2,4.559,16.078,16.078,0,0,0-4.569,3.209l-10.5,10.5a16.051,16.051,0,0,0-3.2,4.567,16.029,16.029,0,0,0-4.562,3.2l-10.5,10.5a16.078,16.078,0,0,0,0,22.739l1.433,1.432A16.086,16.086,0,0,0,26.959,77.56a1.181,1.181,0,1,0-1.391-1.908A13.725,13.725,0,0,1,7.812,74.245L6.38,72.813a13.716,13.716,0,0,1,0-19.4l10.5-10.5a13.926,13.926,0,0,1,1.756-1.484,16.334,16.334,0,0,0-.022,6.726L9.868,56.9a8.782,8.782,0,0,0,0,12.422L11.3,70.757a8.785,8.785,0,0,0,12.422,0l10.5-10.5a8.784,8.784,0,0,0,0-12.422L32.789,46.4a8.73,8.73,0,0,0-4.8-2.456,6.366,6.366,0,0,1,1.814-3.64l.807-.807a13.708,13.708,0,0,1,5.666,3.416l1.432,1.433a13.716,13.716,0,0,1,0,19.4l-8.137,8.137a1.181,1.181,0,0,0,1.67,1.671l8.137-8.138a16.083,16.083,0,0,0,3.209-4.568,16.03,16.03,0,0,0,4.559-3.2l10.5-10.5A15.965,15.965,0,0,0,60.831,42.6a16.091,16.091,0,0,0,4.583-3.216l10.5-10.5a16.078,16.078,0,0,0,0-22.739ZM49.505,32.552,48.073,31.12a6.384,6.384,0,0,1-1.693-3.007,6.384,6.384,0,0,1,3.008,1.693l1.432,1.433a6.372,6.372,0,0,1,1.691,3.01,6.379,6.379,0,0,1-3-1.7Zm9.067-21.014a6.423,6.423,0,0,1,9.082,0l1.432,1.433a6.421,6.421,0,0,1,0,9.082L61.238,29.9a16.049,16.049,0,0,0-3.591-5.491l-1.432-1.433a16.048,16.048,0,0,0-5.481-3.6ZM22.052,69.087a6.423,6.423,0,0,1-9.082,0l-1.432-1.433a6.421,6.421,0,0,1,0-9.082l7.841-7.841a16,16,0,0,0,3.6,5.483l1.432,1.433a16.1,16.1,0,0,0,5.483,3.6Zm9.067-21.014,1.433,1.433a6.379,6.379,0,0,1,1.7,3.009,6.388,6.388,0,0,1-3.012-1.694l-1.432-1.433a6.365,6.365,0,0,1-1.694-3.008A6.387,6.387,0,0,1,31.119,48.073Zm-2.984-9.437a8.791,8.791,0,0,0,0,12.422l1.432,1.432a8.735,8.735,0,0,0,4.8,2.458,6.375,6.375,0,0,1-1.818,3.64l-.807.806a13.7,13.7,0,0,1-5.666-3.416l-1.432-1.433a13.608,13.608,0,0,1-3.57-6.229,1.17,1.17,0,0,0-.044-.169,13.867,13.867,0,0,1-.4-3.3,13.72,13.72,0,0,1,1.081-5.358,1.134,1.134,0,0,0,.074-.168,13.659,13.659,0,0,1,2.855-4.173l10.5-10.5a13.716,13.716,0,0,1,19.4,0l1.433,1.432a13.676,13.676,0,0,1,3.406,5.674l-.8.8a6.374,6.374,0,0,1-3.643,1.818,8.72,8.72,0,0,0-2.454-4.8l-1.432-1.433a8.8,8.8,0,0,0-12.422,0ZM39.38,42.677l-1.433-1.433a16.1,16.1,0,0,0-5.483-3.6l5.181-5.181a16.1,16.1,0,0,0,3.6,5.483l1.432,1.433a16.044,16.044,0,0,0,5.481,3.6l-5.176,5.176a16.021,16.021,0,0,0-3.6-5.481Zm16.6,2.8-10.5,10.5a13.859,13.859,0,0,1-1.749,1.478,16.277,16.277,0,0,0,.02-6.726l6.982-6.982a16.268,16.268,0,0,0,6.721-.019,13.679,13.679,0,0,1-1.474,1.748Zm0,0" transform="translate(598 1668.375)" fill="#ffb74d"/>
  </g>
</svg>
