<svg xmlns="http://www.w3.org/2000/svg" width="74.292" height="77.154" viewBox="0 0 74.292 77.154">
  <g id="Grupo_27396" data-name="Grupo 27396" transform="translate(-293.899 -61.262)">
    <g id="Grupo_27375" data-name="Grupo 27375" transform="translate(320.216 121.618)" opacity="0.2">
      <path id="Trazado_3298" data-name="Trazado 3298" d="M321.32,117.872c-4.846,2.8-4.873,7.342-.054,10.142s12.651,2.8,17.5,0,4.871-7.343.053-10.139S326.171,115.074,321.32,117.872Z" transform="translate(-317.668 -115.774)"/>
    </g>
    <g id="Grupo_27393" data-name="Grupo 27393" transform="translate(342.324 61.262)">
      <g id="Grupo_27377" data-name="Grupo 27377" transform="translate(5.03 19.369)">
        <g id="Grupo_27376" data-name="Grupo 27376">
          <path id="Trazado_3299" data-name="Trazado 3299" d="M343.034,86.395l1.427-.829c-.075-.226-1.491-4.519-.513-6.81l-1.426.828C341.54,81.875,342.961,86.168,343.034,86.395Z" transform="translate(-342.178 -78.755)" fill="#8fedff"/>
        </g>
      </g>
      <g id="Grupo_27379" data-name="Grupo 27379" transform="translate(0.735)">
        <g id="Grupo_27378" data-name="Grupo 27378">
          <path id="Trazado_3300" data-name="Trazado 3300" d="M339.722,61.423c-.07.042-.141.082-.213.124l-1.21.7a1.675,1.675,0,0,1,1.7.167l1.427-.828A1.686,1.686,0,0,0,339.722,61.423Z" transform="translate(-338.299 -61.262)" fill="#8fedff"/>
        </g>
      </g>
      <g id="Grupo_27381" data-name="Grupo 27381" transform="translate(20.245 25.606)">
        <g id="Grupo_27380" data-name="Grupo 27380">
          <path id="Trazado_3301" data-name="Trazado 3301" d="M355.92,86.747l1.426-.827a1.667,1.667,0,0,0,.7-1.532l-1.424.829A1.672,1.672,0,0,1,355.92,86.747Z" transform="translate(-355.92 -84.388)" fill="#8fedff"/>
        </g>
      </g>
      <g id="Grupo_27383" data-name="Grupo 27383" transform="translate(20.943 13.788)">
        <g id="Grupo_27382" data-name="Grupo 27382">
          <path id="Trazado_3302" data-name="Trazado 3302" d="M356.55,86.361l1.424-.829.034-11.817-1.424.827Z" transform="translate(-356.55 -73.715)" fill="#8fedff"/>
        </g>
      </g>
      <g id="Grupo_27385" data-name="Grupo 27385" transform="translate(2.43 0.328)">
        <g id="Grupo_27384" data-name="Grupo 27384">
          <path id="Trazado_3303" data-name="Trazado 3303" d="M355.99,71.714l1.426-.828-16.158-9.328-1.427.828Z" transform="translate(-339.83 -61.558)" fill="#8fedff"/>
        </g>
      </g>
      <g id="Grupo_27387" data-name="Grupo 27387" transform="translate(18.59 9.655)">
        <g id="Grupo_27386" data-name="Grupo 27386">
          <path id="Trazado_3304" data-name="Trazado 3304" d="M356.811,74.942l1.424-.827a5.257,5.257,0,0,0-2.384-4.133l-1.426.829A5.267,5.267,0,0,1,356.811,74.942Z" transform="translate(-354.425 -69.982)" fill="#8fedff"/>
        </g>
      </g>
      <g id="Grupo_27389" data-name="Grupo 27389" transform="translate(0 0.828)">
        <g id="Grupo_27388" data-name="Grupo 27388">
          <path id="Trazado_3305" data-name="Trazado 3305" d="M340.065,62.338c-1.321-.764-2.391-.148-2.395,1.371l-.035,11.817a18.907,18.907,0,0,0,5.886,12.664c-.073-.227-1.494-4.52-.512-6.812l13.165,7.6c1.324.764,2.4.156,2.4-1.363l.033-11.82a5.266,5.266,0,0,0-2.386-4.131Z" transform="translate(-337.635 -62.01)" fill="#c5f9ff"/>
        </g>
      </g>
      <g id="Grupo_27390" data-name="Grupo 27390" transform="translate(4.037 6.15)">
        <path id="Trazado_3306" data-name="Trazado 3306" d="M342.146,66.934c-.473-.272-.863-.059-.865.492a1.9,1.9,0,0,0,.861,1.488l11.177,6.454c.472.273.861.052.864-.493a1.891,1.891,0,0,0-.861-1.488Z" transform="translate(-341.281 -66.816)" fill="#d66767"/>
      </g>
      <g id="Grupo_27391" data-name="Grupo 27391" transform="translate(4.037 10.195)">
        <path id="Trazado_3307" data-name="Trazado 3307" d="M342.146,70.588c-.473-.273-.863-.059-.865.493a1.894,1.894,0,0,0,.861,1.486l11.177,6.454c.472.273.861.052.864-.492a1.89,1.89,0,0,0-.861-1.488Z" transform="translate(-341.281 -70.47)" fill="#d66767"/>
      </g>
      <g id="Grupo_27392" data-name="Grupo 27392" transform="translate(4.037 14.241)">
        <path id="Trazado_3308" data-name="Trazado 3308" d="M342.146,74.243c-.473-.275-.863-.059-.865.492a1.9,1.9,0,0,0,.861,1.488l11.177,6.454c.472.273.861.052.864-.493a1.884,1.884,0,0,0-.861-1.487Z" transform="translate(-341.281 -74.124)" fill="#d66767"/>
      </g>
    </g>
    <g id="Grupo_27394" data-name="Grupo 27394" transform="translate(325.34 78.847)">
      <path id="Trazado_3309" data-name="Trazado 3309" d="M323.069,121.925s-1.359.8-.475,1.62.908.012,2.848,1.742,2.34.331,2.424.044-.706-1.146-1.124-1.529-2.149-1.853-2.149-1.853l-1.309-.394Z" transform="translate(-322.295 -72.383)" fill="#171716"/>
      <path id="Trazado_3310" data-name="Trazado 3310" d="M333.4,120.662s.907.414.524.9-1.717,1-1.958,1.305a4.307,4.307,0,0,1-1.743,1.085c-.536-.058-1.05-.235-.56-1.62A3.221,3.221,0,0,1,333.4,120.662Z" transform="translate(-321.527 -72.491)" fill="#171716"/>
      <path id="Trazado_3311" data-name="Trazado 3311" d="M325.469,97.483s-2.905,3.459.393,8.053c0,0,2.6,6.929,2.407,8.359s-1.019,4.946.2,7.686a31.256,31.256,0,0,1,1.424,3.646c.179,1.168,1.268.391,1.357-.474.184-1.762-.5-4.6-.407-5.958.311-4.442.471-6.76-.209-9.668s-.536-9.265-.536-9.265S326.519,99.637,325.469,97.483Z" transform="translate(-322.082 -74.964)" fill="#ea4bbd"/>
      <path id="Trazado_3312" data-name="Trazado 3312" d="M328.636,97.33a6.825,6.825,0,0,0-.806,8.176l-.169,8.107s-3.038,3.049-4.541,10.839c0,0,.948,1.671,1.639.56s6.064-8.741,6.729-11.292,3.76-10.335,2.885-15.2A10.784,10.784,0,0,1,328.636,97.33Z" transform="translate(-322.207 -74.98)" fill="#ff61cb"/>
      <path id="Trazado_3313" data-name="Trazado 3313" d="M333.891,87.987s-4.543-5.144-6.631-3.381c0,0-2.87,1.392-2.1,6.35s1.232,5.166.027,8.142c0,0,4.159,5.1,9.147,1.584,0,0-.6-3.616-.006-5.066.871-2.137,2.09-4.791.77-6.334S333.891,87.987,333.891,87.987Z" transform="translate(-322.003 -76.384)" fill="#77d2ff"/>
      <path id="Trazado_3314" data-name="Trazado 3314" d="M333.21,89.4c-.951-.69-2.5-.034-1.8,1.421s5.533,5.776,8.538,5.6C339.944,96.424,341.776,95.686,333.21,89.4Z" transform="translate(-321.337 -75.859)" fill="#efb185"/>
      <path id="Trazado_3315" data-name="Trazado 3315" d="M339.169,96.236s1.659-.155,4.672-2.15c0,0,2.042.238,2.847-2.626,0,0-.044-.467-1.259.648,0,0-.8.6-.62-.2s.1-1.331-.313-.708-1.1,1.777-1.1,1.777l-5.64,1.384Z" transform="translate(-320.638 -75.666)" fill="#efb185"/>
      <path id="Trazado_3316" data-name="Trazado 3316" d="M332.467,88.794a1.492,1.492,0,0,0-1.545,1.431c-.2,1.174,2.758,3.8,3.824,4.368a2.762,2.762,0,0,0,1.842-3.075S333.938,88.763,332.467,88.794Z" transform="translate(-321.371 -75.895)" fill="#4bbbe8"/>
      <path id="Trazado_3317" data-name="Trazado 3317" d="M332.91,85.111l-.814,2.652a3.261,3.261,0,0,1-3.807-1.532l.815-2.661A9.574,9.574,0,0,0,332.91,85.111Z" transform="translate(-321.653 -76.455)" fill="#efb185"/>
      <path id="Trazado_3318" data-name="Trazado 3318" d="M333.2,77.6a3.407,3.407,0,0,1,2.53,2.083c.477,1.689.678,4.089-.547,5.17-1.306,1.161-.932,2.095-.531,2.636s-5.857,1.363-7.612-2.893C327.044,84.6,327.261,74.967,333.2,77.6Z" transform="translate(-321.786 -77.144)" fill="#231202"/>
    </g>
    <g id="Grupo_27395" data-name="Grupo 27395" transform="translate(293.899 65.363)" opacity="0.5" style="mix-blend-mode: overlay;isolation: isolate">
      <path id="Trazado_3319" data-name="Trazado 3319" d="M316.451,129.907c7.087,4.089,18.536,4.089,25.581,0s7-10.727-.082-14.817-18.54-4.089-25.586,0-7,10.722.086,14.818" transform="translate(-292.054 -59.921)" fill="#fcfdfd" opacity="0.8"/>
      <path id="Trazado_3320" data-name="Trazado 3320" d="M314.52,124.327c8.333,4.607,21.792,4.607,30.073,0s8.23-12.084-.1-16.691-21.794-4.606-30.075,0-8.227,12.08.1,16.692" transform="translate(-292.361 -60.762)" fill="#fcfdfd" opacity="0.667"/>
      <path id="Trazado_3321" data-name="Trazado 3321" d="M312.589,118.747c9.577,5.125,25.05,5.125,34.565,0s9.46-13.442-.112-18.567-25.051-5.124-34.567,0-9.457,13.437.114,18.567" transform="translate(-292.669 -61.603)" fill="#fcfdfd" opacity="0.533"/>
      <path id="Trazado_3322" data-name="Trazado 3322" d="M310.657,113.168c10.823,5.641,28.306,5.641,39.056,0s10.692-14.8-.125-20.441-28.306-5.642-39.058,0-10.689,14.795.127,20.442" transform="translate(-292.976 -62.443)" fill="#fcfdfd" opacity="0.4"/>
      <path id="Trazado_3323" data-name="Trazado 3323" d="M308.726,107.588c12.069,6.159,31.563,6.159,43.548,0s11.922-16.158-.14-22.317-31.562-6.161-43.55,0-11.919,16.151.142,22.317" transform="translate(-293.284 -63.284)" fill="#fcfdfd" opacity="0.267"/>
      <path id="Trazado_3324" data-name="Trazado 3324" d="M306.795,102.009c13.314,6.678,34.821,6.678,48.04,0s13.153-17.515-.154-24.19-34.819-6.68-48.041,0-13.15,17.507.155,24.19" transform="translate(-293.592 -64.125)" fill="#fcfdfd" opacity="0.133"/>
      <path id="Trazado_3325" data-name="Trazado 3325" d="M304.864,96.43c14.56,7.195,38.077,7.195,52.532,0s14.383-18.872-.169-26.066-38.073-7.2-52.532,0-14.38,18.865.169,26.066" transform="translate(-293.899 -64.966)" fill="#fcfdfd" opacity="0"/>
    </g>
  </g>
</svg>
