<svg xmlns="http://www.w3.org/2000/svg" xmlns:xlink="http://www.w3.org/1999/xlink" width="110" height="65" viewBox="0 0 110 65">
  <defs>
    <clipPath id="clip-path">
      <rect id="Rectángulo_4963" data-name="Rectángulo 4963" width="110" height="65" transform="translate(727 1040)" fill="#fff" stroke="#707070" stroke-width="1"/>
    </clipPath>
  </defs>
  <g id="Enmascarar_grupo_29" data-name="Enmascarar grupo 29" transform="translate(-727 -1040)" clip-path="url(#clip-path)">
    <g id="calendario_2_" data-name="calendario (2)" transform="translate(750.621 1040)">
      <path id="Trazado_4618" data-name="Trazado 4618" d="M62.759,24.655V60.517A4.483,4.483,0,0,1,58.276,65H4.483A4.483,4.483,0,0,1,0,60.517V24.655Zm0,0" fill="#5aaae7"/>
      <path id="Trazado_4619" data-name="Trazado 4619" d="M13.448,52.672H8.966a1.121,1.121,0,0,0-1.121,1.121v4.483A1.121,1.121,0,0,0,8.966,59.4h4.483a1.121,1.121,0,0,0,1.121-1.121V53.793A1.121,1.121,0,0,0,13.448,52.672Zm0,0" fill="#ffd422"/>
      <path id="Trazado_4620" data-name="Trazado 4620" d="M17.931,43.707c0,2.847-2.723,6.612-4.7,8.966-1.143,1.356-2.029,2.241-2.029,2.241s-.885-.885-2.029-2.241c-1.972-2.354-4.7-6.119-4.7-8.966a6.724,6.724,0,0,1,13.448,0Zm0,0" fill="#ff5023"/>
      <path id="Trazado_4621" data-name="Trazado 4621" d="M58.276,13.448H4.483A4.483,4.483,0,0,0,0,17.931v6.724H62.759V17.931A4.483,4.483,0,0,0,58.276,13.448Zm0,0" fill="#ff5023"/>
      <path id="Trazado_4622" data-name="Trazado 4622" d="M38.1,2.241V6.724H24.655V2.241A2.249,2.249,0,0,1,26.9,0h8.966A2.249,2.249,0,0,1,38.1,2.241Zm0,0" fill="#ee8700"/>
      <path id="Trazado_4623" data-name="Trazado 4623" d="M43.707,6.724H19.052A2.249,2.249,0,0,0,16.81,8.966V15.69a2.249,2.249,0,0,0,2.241,2.241H43.707a2.249,2.249,0,0,0,2.241-2.241V8.966A2.249,2.249,0,0,0,43.707,6.724Zm0,0" fill="#ff9811"/>
      <path id="Trazado_4624" data-name="Trazado 4624" d="M13.448,43.707a2.241,2.241,0,1,1-2.241-2.241A2.241,2.241,0,0,1,13.448,43.707Zm0,0" fill="#ffd422"/>
      <g id="Grupo_28541" data-name="Grupo 28541">
        <path id="Trazado_4625" data-name="Trazado 4625" d="M49.31,52.672h4.483a1.121,1.121,0,0,1,1.121,1.121v4.483A1.121,1.121,0,0,1,53.793,59.4H49.31a1.121,1.121,0,0,1-1.121-1.121V53.793A1.121,1.121,0,0,1,49.31,52.672Zm0,0" fill="#ffb655"/>
        <path id="Trazado_4626" data-name="Trazado 4626" d="M35.862,52.672h4.483a1.121,1.121,0,0,1,1.121,1.121v4.483A1.121,1.121,0,0,1,40.345,59.4H35.862a1.121,1.121,0,0,1-1.121-1.121V53.793A1.121,1.121,0,0,1,35.862,52.672Zm0,0" fill="#ffb655"/>
        <path id="Trazado_4627" data-name="Trazado 4627" d="M22.414,52.672H26.9a1.121,1.121,0,0,1,1.121,1.121v4.483A1.121,1.121,0,0,1,26.9,59.4H22.414a1.121,1.121,0,0,1-1.121-1.121V53.793A1.121,1.121,0,0,1,22.414,52.672Zm0,0" fill="#ffb655"/>
        <path id="Trazado_4628" data-name="Trazado 4628" d="M22.414,41.466H26.9a1.121,1.121,0,0,1,1.121,1.121v4.483A1.121,1.121,0,0,1,26.9,48.19H22.414a1.121,1.121,0,0,1-1.121-1.121V42.586A1.121,1.121,0,0,1,22.414,41.466Zm0,0" fill="#ffb655"/>
        <path id="Trazado_4629" data-name="Trazado 4629" d="M35.862,41.466h4.483a1.121,1.121,0,0,1,1.121,1.121v4.483a1.121,1.121,0,0,1-1.121,1.121H35.862a1.121,1.121,0,0,1-1.121-1.121V42.586A1.121,1.121,0,0,1,35.862,41.466Zm0,0" fill="#ffb655"/>
        <path id="Trazado_4630" data-name="Trazado 4630" d="M49.31,41.466h4.483a1.121,1.121,0,0,1,1.121,1.121v4.483a1.121,1.121,0,0,1-1.121,1.121H49.31a1.121,1.121,0,0,1-1.121-1.121V42.586A1.121,1.121,0,0,1,49.31,41.466Zm0,0" fill="#ffb655"/>
        <path id="Trazado_4631" data-name="Trazado 4631" d="M49.31,30.259h4.483a1.121,1.121,0,0,1,1.121,1.121v4.483a1.121,1.121,0,0,1-1.121,1.121H49.31a1.121,1.121,0,0,1-1.121-1.121V31.379A1.121,1.121,0,0,1,49.31,30.259Zm0,0" fill="#ffb655"/>
        <path id="Trazado_4632" data-name="Trazado 4632" d="M35.862,30.259h4.483a1.121,1.121,0,0,1,1.121,1.121v4.483a1.121,1.121,0,0,1-1.121,1.121H35.862a1.121,1.121,0,0,1-1.121-1.121V31.379A1.121,1.121,0,0,1,35.862,30.259Zm0,0" fill="#ffb655"/>
        <path id="Trazado_4633" data-name="Trazado 4633" d="M22.414,30.259H26.9a1.121,1.121,0,0,1,1.121,1.121v4.483A1.121,1.121,0,0,1,26.9,36.983H22.414a1.121,1.121,0,0,1-1.121-1.121V31.379A1.121,1.121,0,0,1,22.414,30.259Zm0,0" fill="#ffb655"/>
        <path id="Trazado_4634" data-name="Trazado 4634" d="M14.569,31.379v4.483a1.121,1.121,0,0,1-1.121,1.121H8.966a1.121,1.121,0,0,1-1.121-1.121V31.379a1.121,1.121,0,0,1,1.121-1.121h4.483A1.121,1.121,0,0,1,14.569,31.379Zm0,0" fill="#ffb655"/>
      </g>
    </g>
  </g>
</svg>
