<svg xmlns="http://www.w3.org/2000/svg" width="51" height="50.166" viewBox="0 0 51 50.166">
  <g id="transferir" transform="translate(0 -4.004)">
    <g id="Grupo_28282" data-name="Grupo 28282" transform="translate(0 31.595)">
      <g id="Grupo_28281" data-name="Grupo 28281" transform="translate(0)">
        <path id="Trazado_4263" data-name="Trazado 4263" d="M26.756,273.854H11.706v-5.017a.836.836,0,0,0-1.427-.591L.245,278.279a.836.836,0,0,0-.023,1.159l10.033,10.869a.837.837,0,0,0,1.451-.568v-5.017h15.05a.836.836,0,0,0,.836-.836v-9.2A.836.836,0,0,0,26.756,273.854Zm-.836,9.2H10.87a.836.836,0,0,0-.836.836V287.6L2,278.893l8.038-8.038v3.834a.836.836,0,0,0,.836.836H25.92Z" transform="translate(0 -268.001)" fill="#111e61"/>
      </g>
    </g>
    <g id="Grupo_28284" data-name="Grupo 28284" transform="translate(22.575 4.003)">
      <g id="Grupo_28283" data-name="Grupo 28283" transform="translate(0 0)">
        <path id="Trazado_4264" data-name="Trazado 4264" d="M243.426,15.207a.831.831,0,0,0-.142-.147h0L229.907,4.19a.836.836,0,0,0-1.363.649V9.856H216.838a.836.836,0,0,0-.836.836v9.2a.836.836,0,0,0,.836.836h11.706v5.017a.836.836,0,0,0,1.338.669l13.378-10.033A.836.836,0,0,0,243.426,15.207Zm-13.21,8.863V19.889a.836.836,0,0,0-.836-.836H217.674V11.528H229.38a.836.836,0,0,0,.836-.836v-4.1L241.4,15.683Z" transform="translate(-216.002 -4.003)" fill="#111e61"/>
      </g>
    </g>
    <g id="Grupo_28286" data-name="Grupo 28286" transform="translate(14.214 9.856)">
      <g id="Grupo_28285" data-name="Grupo 28285" transform="translate(0 0)">
        <rect id="Rectángulo_4750" data-name="Rectángulo 4750" width="7" height="2" transform="translate(-0.214 0.148)" fill="#111e61"/>
      </g>
    </g>
    <g id="Grupo_28288" data-name="Grupo 28288" transform="translate(10.87 9.856)">
      <g id="Grupo_28287" data-name="Grupo 28287" transform="translate(0 0)">
        <rect id="Rectángulo_4751" data-name="Rectángulo 4751" width="2" height="2" transform="translate(0.13 0.148)" fill="#111e61"/>
      </g>
    </g>
    <g id="Grupo_28290" data-name="Grupo 28290" transform="translate(3.345 14.872)">
      <g id="Grupo_28289" data-name="Grupo 28289" transform="translate(0 0)">
        <rect id="Rectángulo_4752" data-name="Rectángulo 4752" width="6" height="2" transform="translate(-0.345 0.132)" fill="#111e61"/>
      </g>
    </g>
    <g id="Grupo_28292" data-name="Grupo 28292" transform="translate(17.559 19.053)">
      <g id="Grupo_28291" data-name="Grupo 28291">
        <rect id="Rectángulo_4753" data-name="Rectángulo 4753" width="3" height="2" transform="translate(0.442 -0.049)" fill="#111e61"/>
      </g>
    </g>
    <g id="Grupo_28294" data-name="Grupo 28294" transform="translate(9.198 19.053)">
      <g id="Grupo_28293" data-name="Grupo 28293">
        <rect id="Rectángulo_4754" data-name="Rectángulo 4754" width="5" height="2" transform="translate(-0.198 -0.049)" fill="#111e61"/>
      </g>
    </g>
    <g id="Grupo_28296" data-name="Grupo 28296" transform="translate(5.853 19.053)">
      <g id="Grupo_28295" data-name="Grupo 28295">
        <rect id="Rectángulo_4755" data-name="Rectángulo 4755" width="2" height="2" transform="translate(0.147 -0.049)" fill="#111e61"/>
      </g>
    </g>
    <g id="Grupo_28298" data-name="Grupo 28298" transform="translate(2.509 19.053)">
      <g id="Grupo_28297" data-name="Grupo 28297">
        <rect id="Rectángulo_4756" data-name="Rectángulo 4756" width="1" height="2" transform="translate(0.491 -0.049)" fill="#111e61"/>
      </g>
    </g>
    <g id="Grupo_28300" data-name="Grupo 28300" transform="translate(13.378 14.872)">
      <g id="Grupo_28299" data-name="Grupo 28299" transform="translate(0 0)">
        <rect id="Rectángulo_4757" data-name="Rectángulo 4757" width="2" height="2" transform="translate(-0.378 0.132)" fill="#111e61"/>
      </g>
    </g>
    <g id="Grupo_28302" data-name="Grupo 28302" transform="translate(16.723 14.872)">
      <g id="Grupo_28301" data-name="Grupo 28301" transform="translate(0 0)">
        <rect id="Rectángulo_4758" data-name="Rectángulo 4758" width="4" height="2" transform="translate(0.277 0.132)" fill="#111e61"/>
      </g>
    </g>
    <g id="Grupo_28304" data-name="Grupo 28304" transform="translate(0.001 14.872)">
      <g id="Grupo_28303" data-name="Grupo 28303" transform="translate(0 0)">
        <rect id="Rectángulo_4759" data-name="Rectángulo 4759" width="2" height="2" transform="translate(0 0.132)" fill="#111e61"/>
      </g>
    </g>
    <g id="Grupo_28306" data-name="Grupo 28306" transform="translate(29.264 37.447)">
      <g id="Grupo_28305" data-name="Grupo 28305">
        <rect id="Rectángulo_4760" data-name="Rectángulo 4760" width="9" height="2" transform="translate(-0.264 -0.443)" fill="#111e61"/>
      </g>
    </g>
    <g id="Grupo_28308" data-name="Grupo 28308" transform="translate(39.298 37.447)">
      <g id="Grupo_28307" data-name="Grupo 28307">
        <rect id="Rectángulo_4761" data-name="Rectángulo 4761" width="2" height="2" transform="translate(-0.297 -0.443)" fill="#111e61"/>
      </g>
    </g>
    <g id="Grupo_28310" data-name="Grupo 28310" transform="translate(40.97 42.464)">
      <g id="Grupo_28309" data-name="Grupo 28309">
        <rect id="Rectángulo_4762" data-name="Rectángulo 4762" width="6" height="2" transform="translate(0.03 -0.46)" fill="#111e61"/>
      </g>
    </g>
    <g id="Grupo_28312" data-name="Grupo 28312" transform="translate(29.264 46.645)">
      <g id="Grupo_28311" data-name="Grupo 28311">
        <rect id="Rectángulo_4763" data-name="Rectángulo 4763" width="2" height="1" transform="translate(-0.264 0.359)" fill="#111e61"/>
      </g>
    </g>
    <g id="Grupo_28314" data-name="Grupo 28314" transform="translate(38.462 46.645)">
      <g id="Grupo_28313" data-name="Grupo 28313">
        <rect id="Rectángulo_4764" data-name="Rectángulo 4764" width="5" height="1" transform="translate(-0.461 0.359)" fill="#111e61"/>
      </g>
    </g>
    <g id="Grupo_28316" data-name="Grupo 28316" transform="translate(45.15 46.645)">
      <g id="Grupo_28315" data-name="Grupo 28315">
        <rect id="Rectángulo_4765" data-name="Rectángulo 4765" width="2" height="1" transform="translate(-0.15 0.359)" fill="#111e61"/>
      </g>
    </g>
    <g id="Grupo_28318" data-name="Grupo 28318" transform="translate(49.331 46.645)">
      <g id="Grupo_28317" data-name="Grupo 28317">
        <rect id="Rectángulo_4766" data-name="Rectángulo 4766" width="2" height="1" transform="translate(-0.331 0.359)" fill="#111e61"/>
      </g>
    </g>
    <g id="Grupo_28320" data-name="Grupo 28320" transform="translate(35.953 42.464)">
      <g id="Grupo_28319" data-name="Grupo 28319">
        <rect id="Rectángulo_4767" data-name="Rectángulo 4767" width="2" height="2" transform="translate(0.047 -0.46)" fill="#111e61"/>
      </g>
    </g>
    <g id="Grupo_28322" data-name="Grupo 28322" transform="translate(29.264 42.464)">
      <g id="Grupo_28321" data-name="Grupo 28321">
        <rect id="Rectángulo_4768" data-name="Rectángulo 4768" width="5" height="2" transform="translate(-0.264 -0.46)" fill="#111e61"/>
      </g>
    </g>
    <g id="Grupo_28324" data-name="Grupo 28324" transform="translate(48.495 42.464)">
      <g id="Grupo_28323" data-name="Grupo 28323">
        <rect id="Rectángulo_4769" data-name="Rectángulo 4769" width="2" height="2" transform="translate(-0.495 -0.46)" fill="#111e61"/>
      </g>
    </g>
    <g id="Grupo_28326" data-name="Grupo 28326" transform="translate(32.609 46.645)">
      <g id="Grupo_28325" data-name="Grupo 28325">
        <rect id="Rectángulo_4770" data-name="Rectángulo 4770" width="1" height="1" transform="translate(0.391 0.359)" fill="#111e61"/>
      </g>
    </g>
    <g id="Grupo_28328" data-name="Grupo 28328" transform="translate(45.15 37.447)">
      <g id="Grupo_28327" data-name="Grupo 28327">
        <rect id="Rectángulo_4771" data-name="Rectángulo 4771" width="5" height="2" transform="translate(-0.15 -0.443)" fill="#111e61"/>
      </g>
    </g>
    <g id="Grupo_28330" data-name="Grupo 28330" transform="translate(0.837 9.856)">
      <g id="Grupo_28329" data-name="Grupo 28329" transform="translate(0 0)">
        <rect id="Rectángulo_4772" data-name="Rectángulo 4772" width="5" height="2" transform="translate(0.164 0.148)" fill="#111e61"/>
      </g>
    </g>
  </g>
</svg>
