<svg xmlns="http://www.w3.org/2000/svg" width="88.856" height="68.667" viewBox="0 0 88.856 68.667">
  <g id="video-conferencia" transform="translate(0 -58.166)">
    <path id="Trazado_4265" data-name="Trazado 4265" d="M102.236,58.167H36.268A6.239,6.239,0,0,0,30.036,64.4v46.742a6.272,6.272,0,0,0,5.249,6.153l1.122.9h64.72l2.091-.9a6.272,6.272,0,0,0,5.249-6.153V64.4a6.239,6.239,0,0,0-6.232-6.232Z" transform="translate(-24.823 -0.001)" fill="#365e7d"/>
    <path id="Trazado_4266" data-name="Trazado 4266" d="M35.981,111.14V64.4a6.239,6.239,0,0,1,6.232-6.232H36.268A6.239,6.239,0,0,0,30.036,64.4V111.14a6.272,6.272,0,0,0,5.249,6.153l1.122.9h5.945l-1.122-.9a6.272,6.272,0,0,1-5.249-6.153Z" transform="translate(-24.823)" fill="#2b4d66"/>
    <path id="Trazado_4267" data-name="Trazado 4267" d="M87.816,398.865H1.04A1.046,1.046,0,0,0,0,399.916v3.614A4.866,4.866,0,0,0,4.828,408.4h79.2a4.866,4.866,0,0,0,4.828-4.875v-3.614A1.046,1.046,0,0,0,87.816,398.865Z" transform="translate(0 -281.572)" fill="#407093"/>
    <path id="Trazado_4268" data-name="Trazado 4268" d="M10.812,403.529v-3.614a1.046,1.046,0,0,1,1.04-1.051H1.041A1.046,1.046,0,0,0,0,399.916v3.614A4.866,4.866,0,0,0,4.829,408.4H15.64A4.866,4.866,0,0,1,10.812,403.529Z" transform="translate(-0.001 -281.572)" fill="#365e7d"/>
    <path id="Trazado_4269" data-name="Trazado 4269" d="M181.32,398.865v2.424a2.162,2.162,0,0,0,2.146,2.167H205.1a2.162,2.162,0,0,0,2.146-2.167v-2.424Z" transform="translate(-149.852 -281.572)" fill="#5c90b9"/>
    <path id="Trazado_4270" data-name="Trazado 4270" d="M192.131,401.289v-2.424H181.32v2.424a2.162,2.162,0,0,0,2.146,2.167h10.811A2.162,2.162,0,0,1,192.131,401.289Z" transform="translate(-149.852 -281.572)" fill="#4a80aa"/>
    <path id="Trazado_4271" data-name="Trazado 4271" d="M62.293,127.36v40.453a1.118,1.118,0,0,0,1.118,1.118h7.8l.5-.47h14.66l.623.47H104.83l.4-.47H120.1l.51.47h7.8a1.118,1.118,0,0,0,1.118-1.118V127.36Z" transform="translate(-51.482 -57.186)" fill="#e4f6ff"/>
    <path id="Trazado_4272" data-name="Trazado 4272" d="M69.56,167.813V127.36H62.292v40.453a1.118,1.118,0,0,0,1.118,1.118h7.268A1.118,1.118,0,0,1,69.56,167.813Z" transform="translate(-51.481 -57.186)" fill="#d3effb"/>
    <path id="Trazado_4273" data-name="Trazado 4273" d="M318.471,322.793H312.1a4.7,4.7,0,0,0-4.7,4.7v2.953h15.779v-2.953A4.7,4.7,0,0,0,318.471,322.793Z" transform="translate(-254.047 -218.702)" fill="#90d8f9"/>
    <circle id="Elipse_287" data-name="Elipse 287" cx="4.003" cy="4.003" r="4.003" transform="translate(57.234 96.085)" fill="#ffdecf"/>
    <path id="Trazado_4274" data-name="Trazado 4274" d="M318.471,203.539H312.1a4.7,4.7,0,0,0-4.7,4.7v2.953h15.779v-2.953A4.7,4.7,0,0,0,318.471,203.539Z" transform="translate(-254.047 -120.144)" fill="#ffaa5b"/>
    <circle id="Elipse_288" data-name="Elipse 288" cx="4.003" cy="4.003" r="4.003" transform="translate(57.234 75.389)" fill="#ffdecf"/>
    <path id="Trazado_4275" data-name="Trazado 4275" d="M124.763,322.793h-6.376a4.7,4.7,0,0,0-4.7,4.7v2.953h15.779v-2.953A4.7,4.7,0,0,0,124.763,322.793Z" transform="translate(-93.956 -218.702)" fill="#b3e59f"/>
    <path id="Trazado_4276" data-name="Trazado 4276" d="M318.727,322.8c-.085,0-.17-.007-.257-.007h-6.376a4.7,4.7,0,0,0-4.7,4.7v2.953h6.889v-2.953A4.7,4.7,0,0,1,318.727,322.8Z" transform="translate(-254.046 -218.702)" fill="#75cef9"/>
    <path id="Trazado_4277" data-name="Trazado 4277" d="M125.02,322.8c-.085,0-.171-.007-.257-.007h-6.376a4.7,4.7,0,0,0-4.7,4.7v2.953h6.889v-2.953A4.7,4.7,0,0,1,125.02,322.8Z" transform="translate(-93.956 -218.702)" fill="#95d6a4"/>
    <circle id="Elipse_289" data-name="Elipse 289" cx="4.003" cy="4.003" r="4.003" transform="translate(23.616 96.085)" fill="#ffdecf"/>
    <path id="Trazado_4278" data-name="Trazado 4278" d="M124.763,203.539h-6.376a4.7,4.7,0,0,0-4.7,4.7v2.953h15.779v-2.953A4.7,4.7,0,0,0,124.763,203.539Z" transform="translate(-93.956 -120.144)" fill="#dd636e"/>
    <path id="Trazado_4279" data-name="Trazado 4279" d="M318.727,203.546c-.085,0-.17-.007-.257-.007h-6.376a4.7,4.7,0,0,0-4.7,4.7v2.953h6.889v-2.953A4.7,4.7,0,0,1,318.727,203.546Z" transform="translate(-254.046 -120.144)" fill="#ff9838"/>
    <path id="Trazado_4280" data-name="Trazado 4280" d="M125.02,203.546c-.085,0-.171-.007-.257-.007h-6.376a4.7,4.7,0,0,0-4.7,4.7v2.953h6.889v-2.953A4.7,4.7,0,0,1,125.02,203.546Z" transform="translate(-93.956 -120.144)" fill="#da4a54"/>
    <circle id="Elipse_290" data-name="Elipse 290" cx="4.003" cy="4.003" r="4.003" transform="translate(23.616 75.389)" fill="#ffdecf"/>
    <g id="Grupo_28331" data-name="Grupo 28331" transform="translate(23.617 75.392)">
      <path id="Trazado_4281" data-name="Trazado 4281" d="M334.964,283.509a3.99,3.99,0,0,1,.829-6.293,4,4,0,1,0,0,6.925A3.99,3.99,0,0,1,334.964,283.509Z" transform="translate(-296.171 -255.982)" fill="#ffcebe"/>
      <path id="Trazado_4282" data-name="Trazado 4282" d="M334.964,164.255a3.99,3.99,0,0,1,.829-6.293,4,4,0,1,0,0,6.925A3.99,3.99,0,0,1,334.964,164.255Z" transform="translate(-296.171 -157.424)" fill="#ffcebe"/>
      <path id="Trazado_4283" data-name="Trazado 4283" d="M141.256,283.509a3.99,3.99,0,0,1,.829-6.293,4,4,0,1,0,0,6.925A3.994,3.994,0,0,1,141.256,283.509Z" transform="translate(-136.081 -255.982)" fill="#ffcebe"/>
      <path id="Trazado_4284" data-name="Trazado 4284" d="M141.256,164.255a3.99,3.99,0,0,1,.829-6.293,4,4,0,1,0,0,6.925A3.994,3.994,0,0,1,141.256,164.255Z" transform="translate(-136.081 -157.424)" fill="#ffcebe"/>
    </g>
    <path id="Trazado_4285" data-name="Trazado 4285" d="M129.528,146.8H97.247V127.36H94.565V146.8H62.293v2.682H94.565v19.445h2.682V149.487h32.281C129.528,148.6,129.528,147.7,129.528,146.8Z" transform="translate(-51.482 -57.186)" fill="#d3effb"/>
    <path id="Trazado_4286" data-name="Trazado 4286" d="M69.561,239.4H62.293v2.682h7.268C69.561,241.193,69.561,240.3,69.561,239.4Z" transform="translate(-51.482 -149.784)" fill="#b1e4f9"/>
    <path id="Trazado_4287" data-name="Trazado 4287" d="M69.56,90.183H63.41A1.118,1.118,0,0,0,62.292,91.3v5.513H69.56l.314-.257V90.523Z" transform="translate(-51.481 -26.461)" fill="#dd636e"/>
    <path id="Trazado_4288" data-name="Trazado 4288" d="M163.019,90.182H104.17v6.631h59.967V91.3A1.118,1.118,0,0,0,163.019,90.182Z" transform="translate(-86.092 -26.46)" fill="#b1e4f9"/>
  </g>
</svg>
