<svg xmlns="http://www.w3.org/2000/svg" width="292" height="167" viewBox="0 0 292 167">
  <g id="Grupo_55673" data-name="Grupo 55673" transform="translate(-804 -1643)">
    <rect id="Rectángulo_4619" data-name="Rectángulo 4619" width="292" height="167" rx="10" transform="translate(804 1643)" fill="#fff1db"/>
    <text id="Heterogeneidad." transform="translate(950 1786)" fill="#111e61" font-size="20" font-family="Roboto-Black, Roboto" font-weight="800"><tspan x="-75.186" y="0">Heterogeneidad.</tspan></text>
    <g id="feliz" transform="translate(910 1668.376)">
      <path id="Trazado_2899" data-name="Trazado 2899" d="M91.256,102.321a32.256,32.256,0,1,0,32.256,32.256A32.293,32.293,0,0,0,91.256,102.321Zm0,61.788c-15.181,0-29.532-14.351-29.532-29.532s14.351-29.532,29.532-29.532,29.532,14.351,29.532,29.532S106.437,164.109,91.256,164.109Z" transform="translate(-49.709 -86.209)" fill="#ffb74d"/>
      <path id="Trazado_2900" data-name="Trazado 2900" d="M198.148,342.208a2.362,2.362,0,0,0-3.331.255,14.165,14.165,0,0,1-21.512,0,2.362,2.362,0,0,0-3.586,3.076,18.889,18.889,0,0,0,28.683,0,2.362,2.362,0,0,0-.255-3.331Z" transform="translate(-142.515 -287.842)" fill="#ffb74d"/>
      <path id="Trazado_2901" data-name="Trazado 2901" d="M167.928,238.306a2.362,2.362,0,0,0,2.362-2.362,1.373,1.373,0,0,1,2.747,0,2.362,2.362,0,1,0,4.724,0,6.1,6.1,0,0,0-12.2,0A2.362,2.362,0,0,0,167.928,238.306Z" transform="translate(-139.494 -193.652)" fill="#ffb74d"/>
      <path id="Trazado_2902" data-name="Trazado 2902" d="M290.767,229.847a6.1,6.1,0,0,0-6.1,6.1,2.362,2.362,0,0,0,4.724,0,1.373,1.373,0,1,1,2.747,0,2.362,2.362,0,0,0,4.724,0A6.1,6.1,0,0,0,290.767,229.847Z" transform="translate(-239.842 -193.653)" fill="#ffb74d"/>
      <path id="Trazado_2903" data-name="Trazado 2903" d="M374.782,58.985h3.446a2.362,2.362,0,0,0,0-4.724h-3.446a2.362,2.362,0,0,0,0,4.724Z" transform="translate(-313.775 -45.717)" fill="#ffb74d"/>
      <path id="Trazado_2904" data-name="Trazado 2904" d="M429.572,94.808a2.362,2.362,0,0,0,2.362-2.362V89a2.362,2.362,0,1,0-4.724,0v3.446A2.362,2.362,0,0,0,429.572,94.808Z" transform="translate(-359.938 -72.995)" fill="#ffb74d"/>
      <path id="Trazado_2905" data-name="Trazado 2905" d="M465.925,54.261h-3.446a2.362,2.362,0,1,0,0,4.724h3.446a2.362,2.362,0,0,0,0-4.724Z" transform="translate(-387.663 -45.717)" fill="#ffb74d"/>
      <path id="Trazado_2906" data-name="Trazado 2906" d="M429.572,8.17a2.362,2.362,0,0,0,2.362-2.362V2.362a2.362,2.362,0,1,0-4.724,0V5.808A2.362,2.362,0,0,0,429.572,8.17Z" transform="translate(-359.938)" fill="#ffb74d"/>
      <path id="Trazado_2907" data-name="Trazado 2907" d="M5.113,74.261H2.362a2.362,2.362,0,0,0,0,4.724H5.113a2.362,2.362,0,0,0,0-4.724Z" transform="translate(0 -62.567)" fill="#ffb74d"/>
      <path id="Trazado_2908" data-name="Trazado 2908" d="M53.466,110.223v-2.751a2.362,2.362,0,0,0-4.724,0v2.751a2.362,2.362,0,1,0,4.724,0Z" transform="translate(-41.067 -88.558)" fill="#ffb74d"/>
      <path id="Trazado_2909" data-name="Trazado 2909" d="M82.375,78.985h2.751a2.362,2.362,0,0,0,0-4.724H82.375a2.362,2.362,0,0,0,0,4.724Z" transform="translate(-67.413 -62.567)" fill="#ffb74d"/>
      <path id="Trazado_2910" data-name="Trazado 2910" d="M51.1,33.417a2.362,2.362,0,0,0,2.362-2.362V28.3a2.362,2.362,0,1,0-4.724,0v2.751A2.362,2.362,0,0,0,51.1,33.417Z" transform="translate(-41.067 -21.857)" fill="#ffb74d"/>
    </g>
  </g>
</svg>
