<svg xmlns="http://www.w3.org/2000/svg" width="80.993" height="80.77" viewBox="0 0 80.993 80.77">
  <g id="Grupo_27513" data-name="Grupo 27513" transform="translate(-349.813 -372.998)">
    <g id="Grupo_27397" data-name="Grupo 27397" transform="translate(377.999 401.843)" opacity="0.5" style="mix-blend-mode: overlay;isolation: isolate">
      <path id="Trazado_3326" data-name="Trazado 3326" d="M405.706,469.89c5.036,2.906,13.174,2.906,18.181,0s4.977-7.624-.058-10.532-13.178-2.9-18.185,0-4.973,7.623.062,10.533" transform="translate(-388.363 -420.145)" fill="#fcfdfd" opacity="0.8"/>
      <path id="Trazado_3327" data-name="Trazado 3327" d="M403.554,463.794c5.921,3.274,15.489,3.274,21.373,0s5.851-8.589-.067-11.865-15.492-3.274-21.378,0-5.848,8.587.072,11.866" transform="translate(-387.803 -418.612)" fill="#fcfdfd" opacity="0.667"/>
      <path id="Trazado_3328" data-name="Trazado 3328" d="M401.4,457.7c6.807,3.642,17.8,3.642,24.567,0s6.725-9.553-.078-13.2-17.806-3.642-24.57,0-6.722,9.552.082,13.2" transform="translate(-387.242 -417.079)" fill="#fcfdfd" opacity="0.533"/>
      <path id="Trazado_3329" data-name="Trazado 3329" d="M399.249,451.6c7.693,4.01,20.12,4.01,27.76,0s7.6-10.519-.09-14.53-20.12-4.011-27.761,0-7.6,10.516.091,14.531" transform="translate(-386.681 -415.546)" fill="#fcfdfd" opacity="0.4"/>
      <path id="Trazado_3330" data-name="Trazado 3330" d="M397.1,445.505c8.578,4.378,22.435,4.378,30.953,0s8.474-11.485-.1-15.863-22.434-4.379-30.954,0-8.473,11.479.1,15.863" transform="translate(-386.12 -414.014)" fill="#fcfdfd" opacity="0.267"/>
      <path id="Trazado_3331" data-name="Trazado 3331" d="M394.945,439.41c9.463,4.745,24.749,4.745,34.146,0s9.348-12.449-.111-17.195-24.748-4.747-34.146,0-9.348,12.444.111,17.2" transform="translate(-385.56 -412.481)" fill="#fcfdfd" opacity="0.133"/>
      <path id="Trazado_3332" data-name="Trazado 3332" d="M392.792,433.312c10.349,5.114,27.066,5.114,37.34,0s10.223-13.415-.121-18.528-27.062-5.115-37.339,0-10.222,13.409.119,18.528" transform="translate(-384.999 -410.948)" fill="#fcfdfd" opacity="0"/>
    </g>
    <g id="Grupo_27399" data-name="Grupo 27399" transform="translate(349.813 413.39)" opacity="0.2">
      <path id="Trazado_3340" data-name="Trazado 3340" d="M353.024,437.676c-4.259,2.459-4.288,6.449-.051,8.91l13.983,8.125a16.952,16.952,0,0,0,15.385,0l18.13-10.467c4.264-2.46,4.286-6.45.051-8.91l-13.983-8.126a16.952,16.952,0,0,0-15.384,0Z" transform="translate(-349.813 -425.363)"/>
    </g>
    <path id="Trazado_3341" data-name="Trazado 3341" d="M393.647,384.553a2.8,2.8,0,0,1,.544-.117c.014,0,.031,0,.042,0a1.887,1.887,0,0,1,.537.026.084.084,0,0,1,.017.006,1.617,1.617,0,0,1,.482.181l-.02-.012-.7-.4-.989-.576a.065.065,0,0,0-.017-.01,1.673,1.673,0,0,0-.166-.082c-.057-.022-.115-.042-.174-.06-.038-.011-.078-.019-.119-.028l-.025,0a.3.3,0,0,0-.041-.01,1.446,1.446,0,0,0-.2-.023,2.13,2.13,0,0,0-.216,0c-.025,0-.052.006-.078.009s-.026,0-.04,0c-.042,0-.083.006-.127.014a2.547,2.547,0,0,0-.289.061c-.042.012-.088.03-.128.044s-.074.026-.111.04-.1.028-.151.05a3.556,3.556,0,0,0-.459.23l-18.933,10.93a5.617,5.617,0,0,0-.617.429c-.068.051-.129.113-.193.17-.1.085-.2.161-.291.254-.042.042-.083.09-.127.135s-.07.074-.1.113-.086.088-.129.138q-.136.156-.267.324c-.029.037-.058.076-.086.116a.745.745,0,0,1-.048.064l-.086.117c-.064.091-.127.187-.189.284s-.115.183-.17.278a.109.109,0,0,0-.013.023.076.076,0,0,0-.012.022c-.045.075-.088.151-.131.229-.047.095-.095.189-.139.281s-.079.167-.115.252a.133.133,0,0,0-.01.022l-.006.012c-.041.1-.083.2-.119.3s-.079.207-.112.309c-.017.053-.031.1-.046.157a.583.583,0,0,0-.022.07c-.013.038-.024.074-.035.111-.035.125-.064.251-.092.378-.014.074-.026.153-.04.228,0,.04-.013.077-.018.115s-.016.074-.02.113a4.888,4.888,0,0,0-.042.645l.012,4.56s0,.041.006.111a3.551,3.551,0,0,0,.08.677,6.214,6.214,0,0,0,2.815,4.433l1.7.992a6.215,6.215,0,0,1-2.814-4.435,3.482,3.482,0,0,1-.08-.674c-.006-.07-.006-.111-.006-.114l-.014-4.561a5.171,5.171,0,0,1,.062-.752c.006-.043.013-.082.02-.123a6.556,6.556,0,0,1,.167-.721c0-.019.011-.039.018-.06a7.626,7.626,0,0,1,.69-1.572l0-.008a7.855,7.855,0,0,1,.463-.708c.014-.022.03-.04.044-.06.153-.2.315-.4.485-.586l.1-.107c.136-.143.279-.272.424-.4.063-.053.121-.107.185-.159a5.176,5.176,0,0,1,.618-.433l18.933-10.929a3.808,3.808,0,0,1,.606-.28C393.57,384.582,393.609,384.569,393.647,384.553Z" transform="translate(-3.818 -3.631)" fill="#8fedff"/>
    <g id="Grupo_27401" data-name="Grupo 27401" transform="translate(366.892 380.791)">
      <g id="Grupo_27400" data-name="Grupo 27400">
        <path id="Trazado_3342" data-name="Trazado 3342" d="M393.348,385.12c1.817-1.049,3.3-.207,3.3,1.883l.014,4.561a7.225,7.225,0,0,1-3.283,5.683l-17.156,9.9a9.307,9.307,0,0,0,.875,5.18,5.855,5.855,0,0,1-5.867-5.248,3.482,3.482,0,0,1-.08-.674c-.006-.07-.006-.111-.006-.114l-.014-4.561a7.244,7.244,0,0,1,3.282-5.687Z" transform="translate(-371.133 -384.669)" fill="#c5f9ff"/>
      </g>
    </g>
    <g id="Grupo_27405" data-name="Grupo 27405" transform="translate(367.682 398.805)">
      <path id="Trazado_3343" data-name="Trazado 3343" d="M407.118,434.013c.008-.062.013-.136.018-.206,0-.045.01-.091.011-.137.006-.088.014-.176.018-.274a.6.6,0,0,0,.006-.084c0-.1.008-.2.013-.306v-.11c0-.1,0-.2,0-.309,0-.026,0-.05,0-.078,0-.12-.007-.238-.014-.359,0-.025,0-.048,0-.069-.008-.117-.016-.233-.029-.351,0-.029,0-.062-.009-.09a6.41,6.41,0,0,0-.138-.814c-.008-.028-.013-.054-.021-.082-.031-.111-.062-.221-.1-.326l-.018-.055a3.661,3.661,0,0,0-.147-.347c-.015-.031-.032-.059-.049-.087a2.109,2.109,0,0,0-.131-.218,2.345,2.345,0,0,0-.172-.216c-.034-.035-.061-.075-.1-.11a1.572,1.572,0,0,0-.327-.252l1.46.848a1.549,1.549,0,0,1,.33.254c.033.03.057.066.087.1a2,2,0,0,1,.18.226.429.429,0,0,0,.034.042c.03.049.054.1.084.153s.042.08.066.121a.162.162,0,0,1,.012.023,2.863,2.863,0,0,1,.118.278.081.081,0,0,0,.008.021c.014.034.023.071.034.1.018.053.036.106.051.158s.019.079.03.121.019.07.03.107a.3.3,0,0,0,.014.058c.022.1.042.2.06.305v0c.006.043.011.083.016.128.012.063.02.124.03.188,0,.022,0,.047.008.069.006.067.014.135.021.2,0,.023,0,.046,0,.07s.006.078.01.119c0,.07.008.139.015.209v.043c0,.059,0,.12,0,.179s.006.124.006.187v.03c0,.069,0,.131,0,.2s0,.125,0,.186v.038c0,.05,0,.093,0,.143-.007.085-.009.17-.015.248v.049c0,.03-.006.05-.01.078-.007.125-.018.236-.025.34,0,.007,0,.018,0,.025a.023.023,0,0,1,0,.014c-.014.148-.026.276-.039.373v0c0,.031,0,.05-.009.075a.22.22,0,0,0-.007.053c-.006.042-.012.071-.014.087l-1.46-.848c.006-.038.023-.166.046-.348C407.105,434.137,407.112,434.081,407.118,434.013Z" transform="translate(-378.846 -411.528)" fill="#8fedff"/>
      <path id="Trazado_3344" data-name="Trazado 3344" d="M372.122,431.061c0-.113.011-.225.017-.34,0-.05.009-.106.012-.159a.287.287,0,0,1,0-.052c0-.042.006-.086.01-.128.012-.111.026-.227.04-.341s.03-.233.049-.351l0-.011v-.009c.02-.11.039-.222.059-.332s.049-.246.074-.365c.011-.045.021-.09.03-.135a.642.642,0,0,0,.018-.064c.01-.054.024-.113.04-.167.029-.126.063-.248.1-.37.025-.091.052-.181.078-.27.006-.017.011-.034.018-.052l.012-.047c.037-.12.075-.24.116-.361s.079-.236.123-.356a.461.461,0,0,0,.019-.05c.013-.028.024-.058.036-.089.024-.066.05-.135.074-.2.046-.113.091-.227.139-.338.031-.084.066-.162.1-.243.006-.014.01-.028.017-.041s.014-.035.024-.054c.048-.112.1-.224.153-.336s.116-.244.175-.368c.011-.021.022-.041.034-.059s.016-.036.026-.057c.052-.1.1-.2.156-.3s.126-.224.187-.335c.042-.075.086-.149.128-.222a.479.479,0,0,1,.03-.057c.05-.087.107-.169.16-.256.1-.17.206-.338.313-.5.014-.024.028-.046.046-.07.14-.213.289-.422.439-.631.1-.135.2-.272.312-.4.089-.115.18-.223.268-.336s.182-.209.269-.313.18-.2.273-.3c.014-.018.029-.031.044-.048l.052-.052c.063-.068.127-.135.188-.2.1-.1.2-.194.3-.29.029-.03.06-.056.09-.085s.046-.043.07-.066c.048-.042.1-.09.147-.135l.31-.272c.047-.038.092-.074.144-.113a.739.739,0,0,1,.065-.056c.033-.027.068-.054.1-.083.1-.081.2-.159.3-.234.079-.057.159-.114.24-.169a.089.089,0,0,1,.019-.015c.015-.011.031-.02.045-.032.1-.068.2-.134.3-.2s.2-.122.3-.179a.7.7,0,0,1,.068-.039l19.41-11.209c.075-.042.149-.082.22-.125.1-.05.192-.1.288-.147l.182-.086c.018-.006.031-.015.048-.022s.035-.018.052-.026c.094-.042.187-.082.279-.117s.189-.074.282-.106c.017-.006.035-.013.053-.018a.129.129,0,0,0,.03-.012l.2-.062c.1-.031.194-.055.289-.08.046-.011.092-.021.137-.033l.059-.01.091-.02q.155-.031.305-.05a1.831,1.831,0,0,1,.186-.018.558.558,0,0,1,.058-.007l.064-.006c.114-.008.222-.012.33-.012.049,0,.094,0,.14.007s.074,0,.11.006.075,0,.111.006a3.676,3.676,0,0,1,.4.056l.01,0a.328.328,0,0,0,.066.018,3.764,3.764,0,0,1,.413.116l.031.014a3.62,3.62,0,0,1,.534.245l1.46.85a3.293,3.293,0,0,0-.536-.248,3.607,3.607,0,0,0-.424-.123c-.029-.006-.057-.018-.083-.022a3.74,3.74,0,0,0-.526-.066l-.1,0a5.216,5.216,0,0,0-.535.007l-.062.011a5.4,5.4,0,0,0-.58.087c-.018,0-.038.01-.058.013-.2.048-.405.1-.616.173a.441.441,0,0,1-.042.014c-.217.075-.437.164-.665.268a.371.371,0,0,0-.036.014c-.23.108-.463.228-.7.364l-19.41,11.2c-.233.136-.466.284-.7.445-.018.009-.033.022-.05.032-.213.151-.425.31-.631.479-.022.015-.042.032-.062.049-.2.167-.4.34-.6.524-.021.019-.044.042-.067.06-.2.188-.4.387-.588.59-.01.014-.022.024-.031.036-.2.213-.4.434-.59.665l0,.006c-.008.009-.016.019-.024.027a16.843,16.843,0,0,0-1.042,1.414c-.1.143-.183.289-.274.436s-.167.261-.243.4c-.033.054-.06.107-.091.161-.128.226-.253.453-.372.686-.006.014-.015.028-.023.044-.137.27-.265.547-.387.823a.247.247,0,0,0-.013.028c-.114.264-.222.528-.32.8-.009.026-.021.053-.03.079-.1.271-.192.544-.274.815a.661.661,0,0,0-.018.068c-.081.264-.152.528-.212.79-.006.026-.011.05-.017.076-.064.268-.115.542-.159.807,0,.011,0,.026-.006.036-.041.271-.075.54-.1.807a.779.779,0,0,0-.006.087c-.021.269-.031.534-.031.8s.013.521.034.767c0,.03.008.056.011.081.023.227.055.449.1.659,0,.028.012.055.018.083.041.2.094.4.152.6.013.038.024.074.038.113a5.051,5.051,0,0,0,.19.489c.014.025.018.054.034.079a4.31,4.31,0,0,0,.288.526,3.907,3.907,0,0,0,.49.608c.046.049.091.092.14.137a3.468,3.468,0,0,0,.594.453l-1.461-.849a3.314,3.314,0,0,1-.6-.455c-.047-.042-.091-.087-.136-.131a3.91,3.91,0,0,1-.494-.614h0a4.587,4.587,0,0,1-.273-.491c-.006-.012-.01-.022-.014-.033l-.031-.074c-.044-.1-.092-.205-.132-.314-.022-.062-.04-.123-.062-.184-.014-.038-.023-.074-.036-.107s-.022-.063-.03-.1c-.038-.119-.066-.244-.1-.37-.008-.038-.014-.081-.024-.122s-.013-.064-.018-.1-.021-.084-.027-.128c-.018-.112-.037-.228-.053-.345-.008-.062-.01-.125-.018-.189a.58.58,0,0,1-.006-.066c-.006-.028-.006-.056-.009-.084-.01-.109-.014-.22-.021-.334s-.008-.221-.008-.339v-.02C372.119,431.271,372.119,431.166,372.122,431.061Z" transform="translate(-372.119 -407.156)" fill="#8fedff"/>
      <g id="Grupo_27404" data-name="Grupo 27404" transform="translate(1.46 0.85)">
        <g id="Grupo_27403" data-name="Grupo 27403">
          <g id="Grupo_27402" data-name="Grupo 27402">
            <path id="Trazado_3345" data-name="Trazado 3345" d="M380.9,420.379a15.335,15.335,0,0,0-6.96,12.057c.01,4.294,2.968,6.327,6.666,4.192.111-.064.226-.134.339-.206,2.979-1.9,7.976-5.465,12.349-7.986a22.571,22.571,0,0,1,6.344-2.8c3.436-.6,2.555,5.287,2.51,5.6a68.456,68.456,0,0,0,4.965-16.063c.04-.207.07-.4.1-.6.024-.179.037-.278.037-.284.034-.369.066-.746.066-1.111-.014-4.432-3.15-6.219-7-3.993Z" transform="translate(-373.941 -408.217)" fill="#c5f9ff"/>
          </g>
        </g>
      </g>
    </g>
    <g id="Grupo_27409" data-name="Grupo 27409" transform="translate(394.808 372.998)">
      <path id="Trazado_3346" data-name="Trazado 3346" d="M429.807,393.222c0-.042.008-.091.012-.142,0-.029,0-.06.006-.091,0-.058.01-.12.014-.187,0-.02,0-.039,0-.059,0-.069.006-.136.009-.207,0-.022,0-.049,0-.073,0-.07,0-.139,0-.211,0-.018,0-.037,0-.053,0-.082,0-.163-.007-.244,0-.018,0-.033,0-.048-.006-.079-.012-.158-.018-.239,0-.018,0-.041-.007-.062a4.486,4.486,0,0,0-.095-.552c0-.019-.009-.039-.014-.056-.019-.076-.042-.151-.066-.222a.215.215,0,0,1-.012-.038c-.03-.081-.065-.159-.1-.236-.01-.02-.024-.038-.034-.06a1.141,1.141,0,0,0-.09-.147,1.332,1.332,0,0,0-.117-.147.71.71,0,0,0-.066-.072A.992.992,0,0,0,429,389.9l.995.577a1.167,1.167,0,0,1,.224.175.837.837,0,0,1,.059.068,1.619,1.619,0,0,1,.124.151.1.1,0,0,0,.022.028c.021.035.038.071.058.107s.029.052.043.08l.008.017c.03.062.057.127.081.191a.047.047,0,0,0,0,.013c.009.025.016.049.022.071a1.044,1.044,0,0,1,.036.107c.009.026.014.054.022.08a.664.664,0,0,0,.02.074c0,.015,0,.029.006.042a2.033,2.033,0,0,1,.044.207v0c.006.028.008.058.013.087s.014.086.019.129l0,.046c.006.046.01.091.014.137,0,.015,0,.034,0,.049s0,.054.006.079c0,.048,0,.1.01.143v.029c0,.042,0,.083,0,.122s0,.086,0,.127v.021c0,.044,0,.087,0,.135s0,.084,0,.126v.026c0,.034,0,.063,0,.1-.006.058-.006.115-.01.169v.032c0,.02,0,.035-.006.054,0,.084-.012.162-.018.234v.016l0,.008c-.01.1-.019.187-.027.256h0c0,.022,0,.033-.006.05a.373.373,0,0,0-.006.037c0,.027-.007.048-.01.058l-.994-.578c0-.025.019-.112.032-.236C429.8,393.306,429.8,393.269,429.807,393.222Z" transform="translate(-410.561 -377.916)" fill="#8fedff"/>
      <path id="Trazado_3347" data-name="Trazado 3347" d="M405.984,391.213c0-.077.006-.154.013-.23,0-.036.006-.073.006-.11,0-.012,0-.025,0-.036,0-.028,0-.056.007-.086.008-.076.018-.155.026-.234s.022-.159.034-.238l0-.006v-.007c.013-.075.027-.15.04-.226s.033-.167.049-.249a.583.583,0,0,0,.022-.091c0-.014.007-.028.011-.042.01-.038.017-.078.028-.114.02-.084.042-.169.064-.252.018-.062.036-.124.055-.186a.137.137,0,0,1,.01-.034.109.109,0,0,0,.006-.031c.028-.083.054-.165.082-.245s.054-.164.084-.244c0-.011.007-.022.013-.034l.023-.062c.016-.046.034-.091.052-.136.03-.076.061-.154.093-.23.022-.058.046-.11.07-.167a.2.2,0,0,1,.012-.027.264.264,0,0,1,.016-.034c.034-.078.069-.155.1-.231s.078-.168.119-.251c.006-.014.014-.026.022-.04a.331.331,0,0,1,.019-.038c.036-.069.07-.138.106-.206s.086-.15.128-.228c.029-.049.057-.1.087-.151a.207.207,0,0,1,.021-.039c.034-.058.071-.116.109-.173.07-.116.138-.229.213-.341.01-.014.019-.03.031-.046.095-.147.2-.29.3-.429.07-.095.14-.187.212-.277.06-.074.122-.152.183-.227s.122-.144.183-.214.122-.137.186-.2c.008-.011.018-.022.028-.033s.025-.025.036-.037c.044-.046.087-.094.129-.135.065-.068.132-.135.2-.2l.062-.055c.017-.015.031-.031.048-.046.033-.03.066-.062.1-.091.072-.063.141-.126.211-.187.032-.026.063-.051.1-.078a.4.4,0,0,1,.045-.037c.022-.02.046-.04.069-.058.069-.054.138-.108.208-.16.055-.039.109-.076.164-.114,0,0,.008-.007.013-.01a.252.252,0,0,0,.03-.023c.067-.045.134-.09.2-.132s.134-.083.2-.122a.5.5,0,0,0,.048-.03l13.212-7.627c.051-.028.1-.058.151-.086.066-.033.131-.067.195-.1.041-.021.083-.038.124-.058l.034-.016.034-.018c.063-.027.127-.051.191-.075a1.423,1.423,0,0,1,.19-.073.1.1,0,0,1,.037-.013l.018-.008c.046-.014.091-.03.135-.042.066-.023.131-.04.2-.056l.095-.022.038-.007a.352.352,0,0,1,.061-.014c.07-.015.141-.026.207-.034.045-.008.086-.01.128-.014a.329.329,0,0,1,.04,0c.015,0,.03,0,.042,0,.077-.006.151-.009.227-.009.031,0,.063.006.093.006s.052,0,.076,0l.075,0a2.556,2.556,0,0,1,.274.039h.006a.356.356,0,0,0,.045.013,2.661,2.661,0,0,1,.282.078c.008,0,.012.008.022.01a2.031,2.031,0,0,1,.36.17l1,.577a2.314,2.314,0,0,0-.364-.169,2.475,2.475,0,0,0-.288-.082c-.022-.006-.04-.014-.059-.018a2.457,2.457,0,0,0-.357-.044c-.023,0-.046,0-.067,0a3.285,3.285,0,0,0-.366.008l-.043,0a3.316,3.316,0,0,0-.393.063.178.178,0,0,0-.041.009,3.77,3.77,0,0,0-.418.117l-.03.009c-.147.05-.3.111-.454.182a.059.059,0,0,0-.022.01c-.157.074-.315.155-.476.248L411.714,383.8c-.161.094-.319.195-.476.3a.2.2,0,0,0-.032.022c-.145.1-.29.211-.43.326l-.042.034c-.139.113-.275.231-.409.356-.014.014-.03.027-.045.041-.135.129-.272.262-.4.4-.006.008-.014.015-.022.024-.137.145-.269.3-.4.451l0,0a.083.083,0,0,1-.015.019,11.513,11.513,0,0,0-.711.962c-.064.1-.125.2-.185.3s-.114.179-.167.268c-.021.037-.041.074-.06.111-.089.154-.172.308-.254.467,0,.009-.01.018-.015.029-.094.184-.181.372-.264.559a.054.054,0,0,1-.007.02c-.08.18-.151.364-.219.544l-.019.054c-.069.184-.132.369-.186.554,0,.015-.01.033-.014.046-.054.18-.1.361-.144.537,0,.018-.01.035-.011.054-.042.182-.08.367-.108.549,0,.007,0,.017,0,.022q-.046.277-.067.549a.41.41,0,0,0-.006.061c-.013.181-.018.364-.018.542s.006.355.022.522c0,.019,0,.038.008.056a3.931,3.931,0,0,0,.066.449l.009.057c.03.139.066.274.107.4.008.026.016.051.025.078q.059.173.132.334a.183.183,0,0,0,.022.052,2.971,2.971,0,0,0,.195.36,2.69,2.69,0,0,0,.335.412c.031.033.062.063.1.094a2.269,2.269,0,0,0,.4.306l-.995-.576a2.366,2.366,0,0,1-.405-.31c-.031-.029-.061-.058-.09-.091a2.383,2.383,0,0,1-.337-.418h0a2.828,2.828,0,0,1-.189-.334.069.069,0,0,0-.007-.022l-.022-.05c-.03-.069-.062-.141-.09-.214-.015-.042-.026-.085-.043-.127a.431.431,0,0,0-.023-.073.482.482,0,0,1-.018-.064c-.026-.083-.046-.166-.066-.252-.006-.028-.011-.056-.018-.083a.513.513,0,0,1-.013-.068.817.817,0,0,1-.018-.086c-.015-.077-.026-.153-.037-.234-.006-.042-.007-.086-.011-.129,0-.014,0-.031-.006-.045s0-.038,0-.058c-.008-.073-.013-.151-.016-.227s0-.151,0-.23v-.015C405.982,391.356,405.982,391.284,405.984,391.213Z" transform="translate(-405.982 -374.94)" fill="#8fedff"/>
      <g id="Grupo_27408" data-name="Grupo 27408" transform="translate(0.996 0.58)">
        <g id="Grupo_27407" data-name="Grupo 27407">
          <g id="Grupo_27406" data-name="Grupo 27406">
            <path id="Trazado_3348" data-name="Trazado 3348" d="M411.961,383.942a10.434,10.434,0,0,0-4.736,8.208c.006,2.922,2.02,4.3,4.536,2.854.075-.044.152-.093.229-.141,2.029-1.3,5.43-3.719,8.4-5.436a15.479,15.479,0,0,1,4.32-1.911c2.338-.408,1.739,3.6,1.707,3.811a46.476,46.476,0,0,0,3.38-10.935c.03-.137.049-.272.066-.409s.026-.19.026-.192a7.111,7.111,0,0,0,.044-.756c-.01-3.017-2.144-4.233-4.767-2.718Z" transform="translate(-407.225 -375.665)" fill="#c5f9ff"/>
          </g>
        </g>
      </g>
    </g>
    <g id="Grupo_27442" data-name="Grupo 27442" transform="translate(398.058 376.099)">
      <g id="Grupo_27412" data-name="Grupo 27412" transform="translate(1.356 10.765)">
        <path id="Trazado_3363" data-name="Trazado 3363" d="M412.072,392.25l0,1.463-.339.2,0-1.464Z" transform="translate(-411.732 -392.25)" fill="#993328"/>
      </g>
      <g id="Grupo_27413" data-name="Grupo 27413" transform="translate(0 11.548)">
        <path id="Trazado_3364" data-name="Trazado 3364" d="M410.379,393.228l0,1.465-.34.195,0-1.464Z" transform="translate(-410.039 -393.228)" fill="#993328"/>
      </g>
      <g id="Grupo_27414" data-name="Grupo 27414" transform="translate(3.167 9.72)">
        <path id="Trazado_3365" data-name="Trazado 3365" d="M414.332,390.945l.006,1.464-.34.2,0-1.464Z" transform="translate(-413.992 -390.945)" fill="#993328"/>
      </g>
      <g id="Grupo_27415" data-name="Grupo 27415" transform="translate(2.488 9.202)">
        <path id="Trazado_3366" data-name="Trazado 3366" d="M413.481,390.3l.009,3.249-.336.2-.009-3.249Z" transform="translate(-413.145 -390.299)" fill="#993328"/>
      </g>
      <g id="Grupo_27416" data-name="Grupo 27416" transform="translate(0.676 10.247)">
        <path id="Trazado_3367" data-name="Trazado 3367" d="M411.224,391.6l.009,3.248-.341.2-.009-3.247Z" transform="translate(-410.883 -391.604)" fill="#993328"/>
      </g>
      <g id="Grupo_27417" data-name="Grupo 27417" transform="translate(1.923 8.813)">
        <path id="Trazado_3368" data-name="Trazado 3368" d="M412.774,389.813l.016,4.809-.339.2-.012-4.81Z" transform="translate(-412.439 -389.813)" fill="#993328"/>
      </g>
      <g id="Grupo_27418" data-name="Grupo 27418" transform="translate(14.134 3.322)">
        <path id="Trazado_3369" data-name="Trazado 3369" d="M428.023,382.959l.006,1.468-.341.195,0-1.464Z" transform="translate(-427.684 -382.959)" fill="#993328"/>
      </g>
      <g id="Grupo_27419" data-name="Grupo 27419" transform="translate(12.778 4.107)">
        <path id="Trazado_3370" data-name="Trazado 3370" d="M426.33,383.938l0,1.465-.34.2,0-1.467Z" transform="translate(-425.99 -383.938)" fill="#993328"/>
      </g>
      <g id="Grupo_27420" data-name="Grupo 27420" transform="translate(15.945 2.279)">
        <path id="Trazado_3371" data-name="Trazado 3371" d="M430.284,381.656l0,1.465-.341.2,0-1.465Z" transform="translate(-429.943 -381.656)" fill="#993328"/>
      </g>
      <g id="Grupo_27421" data-name="Grupo 27421" transform="translate(15.264 1.762)">
        <path id="Trazado_3372" data-name="Trazado 3372" d="M429.432,381.011l.009,3.249-.339.195-.009-3.25Z" transform="translate(-429.094 -381.011)" fill="#993328"/>
      </g>
      <g id="Grupo_27422" data-name="Grupo 27422" transform="translate(13.455 2.806)">
        <path id="Trazado_3373" data-name="Trazado 3373" d="M427.172,382.315l.009,3.248-.336.194-.009-3.249Z" transform="translate(-426.835 -382.315)" fill="#993328"/>
      </g>
      <g id="Grupo_27423" data-name="Grupo 27423" transform="translate(14.698 1.374)">
        <path id="Trazado_3374" data-name="Trazado 3374" d="M428.723,380.527l.013,4.806-.335.193-.014-4.806Z" transform="translate(-428.387 -380.527)" fill="#993328"/>
      </g>
      <g id="Grupo_27424" data-name="Grupo 27424" transform="translate(16.622 1.952)">
        <path id="Trazado_3375" data-name="Trazado 3375" d="M431.13,381.248l0,2.275-.339.194-.006-2.273Z" transform="translate(-430.789 -381.248)" fill="#993328"/>
      </g>
      <g id="Grupo_27425" data-name="Grupo 27425" transform="translate(18.43 0.907)">
        <path id="Trazado_3376" data-name="Trazado 3376" d="M433.386,379.944l.006,1.464-.341.2-.005-1.466Z" transform="translate(-433.046 -379.944)" fill="#993328"/>
      </g>
      <g id="Grupo_27426" data-name="Grupo 27426" transform="translate(17.75 0.39)">
        <path id="Trazado_3377" data-name="Trazado 3377" d="M432.537,379.3l.009,3.247-.34.195-.008-3.247Z" transform="translate(-432.197 -379.299)" fill="#993328"/>
      </g>
      <g id="Grupo_27427" data-name="Grupo 27427" transform="translate(17.185)">
        <path id="Trazado_3378" data-name="Trazado 3378" d="M431.829,378.811l.016,4.81-.339.195-.013-4.809Z" transform="translate(-431.492 -378.811)" fill="#993328"/>
      </g>
      <g id="Grupo_27428" data-name="Grupo 27428" transform="translate(4.519 7.638)">
        <path id="Trazado_3379" data-name="Trazado 3379" d="M416.019,388.347l.007,2.764-.336.2-.009-2.765Z" transform="translate(-415.681 -388.347)" fill="#993328"/>
      </g>
      <g id="Grupo_27429" data-name="Grupo 27429" transform="translate(6.333 7.893)">
        <path id="Trazado_3380" data-name="Trazado 3380" d="M418.283,388.664l.008,2.794-.339.195-.007-2.793Z" transform="translate(-417.945 -388.664)" fill="#993328"/>
      </g>
      <g id="Grupo_27430" data-name="Grupo 27430" transform="translate(5.651 7.375)">
        <path id="Trazado_3381" data-name="Trazado 3381" d="M417.433,388.018l.009,3.248-.339.2-.01-3.248Z" transform="translate(-417.094 -388.018)" fill="#993328"/>
      </g>
      <g id="Grupo_27431" data-name="Grupo 27431" transform="translate(7.684 5.485)">
        <path id="Trazado_3382" data-name="Trazado 3382" d="M419.972,385.658l.008,3.09-.341.195-.008-3.091Z" transform="translate(-419.631 -385.658)" fill="#993328"/>
      </g>
      <g id="Grupo_27432" data-name="Grupo 27432" transform="translate(7.009 6.591)">
        <path id="Trazado_3383" data-name="Trazado 3383" d="M419.128,387.039l.01,3.246-.34.2-.01-3.247Z" transform="translate(-418.788 -387.039)" fill="#993328"/>
      </g>
      <g id="Grupo_27433" data-name="Grupo 27433" transform="translate(3.841 8.419)">
        <path id="Trazado_3384" data-name="Trazado 3384" d="M415.173,389.321l.011,3.249-.339.195-.011-3.246Z" transform="translate(-414.834 -389.321)" fill="#993328"/>
      </g>
      <g id="Grupo_27434" data-name="Grupo 27434" transform="translate(5.086 6.987)">
        <path id="Trazado_3385" data-name="Trazado 3385" d="M416.725,387.533l.013,4.808-.334.193-.016-4.808Z" transform="translate(-416.389 -387.533)" fill="#993328"/>
      </g>
      <g id="Grupo_27435" data-name="Grupo 27435" transform="translate(9.045 6.326)">
        <path id="Trazado_3386" data-name="Trazado 3386" d="M421.673,386.709l0,1.462-.34.2-.006-1.463Z" transform="translate(-421.33 -386.709)" fill="#993328"/>
      </g>
      <g id="Grupo_27436" data-name="Grupo 27436" transform="translate(10.857 5.281)">
        <path id="Trazado_3387" data-name="Trazado 3387" d="M423.931,385.4l.006,2.792-.34.2-.006-2.792Z" transform="translate(-423.592 -385.404)" fill="#993328"/>
      </g>
      <g id="Grupo_27437" data-name="Grupo 27437" transform="translate(10.175 4.763)">
        <path id="Trazado_3388" data-name="Trazado 3388" d="M423.08,384.758l.009,3.25-.338.195-.01-3.25Z" transform="translate(-422.741 -384.758)" fill="#993328"/>
      </g>
      <g id="Grupo_27438" data-name="Grupo 27438" transform="translate(12.213 4.498)">
        <path id="Trazado_3389" data-name="Trazado 3389" d="M425.623,384.427l.005,1.465-.338.195-.005-1.465Z" transform="translate(-425.285 -384.427)" fill="#993328"/>
      </g>
      <g id="Grupo_27439" data-name="Grupo 27439" transform="translate(11.537 5.603)">
        <path id="Trazado_3390" data-name="Trazado 3390" d="M424.781,385.806l0,1.626-.339.2,0-1.626Z" transform="translate(-424.441 -385.806)" fill="#993328"/>
      </g>
      <g id="Grupo_27440" data-name="Grupo 27440" transform="translate(8.366 5.808)">
        <path id="Trazado_3391" data-name="Trazado 3391" d="M420.82,386.061l.01,3.25-.339.194-.009-3.25Z" transform="translate(-420.482 -386.061)" fill="#993328"/>
      </g>
      <g id="Grupo_27441" data-name="Grupo 27441" transform="translate(9.61 4.375)">
        <path id="Trazado_3392" data-name="Trazado 3392" d="M422.37,384.273l.016,4.806-.336.2-.014-4.809Z" transform="translate(-422.035 -384.273)" fill="#993328"/>
      </g>
    </g>
    <g id="Grupo_27473" data-name="Grupo 27473" transform="translate(369.24 385.585)">
      <g id="Grupo_27443" data-name="Grupo 27443" transform="translate(1.479 11.733)">
        <path id="Trazado_3393" data-name="Trazado 3393" d="M376.279,405.3l0,1.594-.37.214,0-1.6Z" transform="translate(-375.91 -405.3)" fill="#993328"/>
      </g>
      <g id="Grupo_27444" data-name="Grupo 27444" transform="translate(0 12.586)">
        <path id="Trazado_3394" data-name="Trazado 3394" d="M374.434,406.365l0,1.6-.368.211-.005-1.6Z" transform="translate(-374.065 -406.365)" fill="#993328"/>
      </g>
      <g id="Grupo_27445" data-name="Grupo 27445" transform="translate(3.45 10.595)">
        <path id="Trazado_3395" data-name="Trazado 3395" d="M378.743,403.879l.005,1.6-.371.214-.006-1.6Z" transform="translate(-378.371 -403.879)" fill="#993328"/>
      </g>
      <g id="Grupo_27446" data-name="Grupo 27446" transform="translate(2.711 10.029)">
        <path id="Trazado_3396" data-name="Trazado 3396" d="M377.814,403.173l.011,3.541-.367.214-.009-3.54Z" transform="translate(-377.448 -403.173)" fill="#993328"/>
      </g>
      <g id="Grupo_27447" data-name="Grupo 27447" transform="translate(0.736 11.169)">
        <path id="Trazado_3397" data-name="Trazado 3397" d="M375.355,404.6l.009,3.539-.371.214-.01-3.54Z" transform="translate(-374.983 -404.596)" fill="#993328"/>
      </g>
      <g id="Grupo_27448" data-name="Grupo 27448" transform="translate(2.094 9.605)">
        <path id="Trazado_3398" data-name="Trazado 3398" d="M377.044,402.644l.016,5.24-.368.214-.014-5.242Z" transform="translate(-376.679 -402.644)" fill="#993328"/>
      </g>
      <g id="Grupo_27449" data-name="Grupo 27449" transform="translate(15.404 3.622)">
        <path id="Trazado_3399" data-name="Trazado 3399" d="M393.664,395.175l.005,1.6-.37.212-.006-1.6Z" transform="translate(-393.294 -395.175)" fill="#993328"/>
      </g>
      <g id="Grupo_27450" data-name="Grupo 27450" transform="translate(13.926 4.475)">
        <path id="Trazado_3400" data-name="Trazado 3400" d="M391.817,396.24l.005,1.6-.37.215,0-1.6Z" transform="translate(-391.449 -396.24)" fill="#993328"/>
      </g>
      <g id="Grupo_27451" data-name="Grupo 27451" transform="translate(17.376 2.483)">
        <path id="Trazado_3401" data-name="Trazado 3401" d="M396.127,393.753l0,1.6-.372.212,0-1.6Z" transform="translate(-395.756 -393.753)" fill="#993328"/>
      </g>
      <g id="Grupo_27452" data-name="Grupo 27452" transform="translate(16.634 1.92)">
        <path id="Trazado_3402" data-name="Trazado 3402" d="M395.2,393.05l.009,3.541-.369.212-.01-3.541Z" transform="translate(-394.829 -393.05)" fill="#993328"/>
      </g>
      <g id="Grupo_27453" data-name="Grupo 27453" transform="translate(14.663 3.058)">
        <path id="Trazado_3403" data-name="Trazado 3403" d="M392.735,394.471l.01,3.541-.367.212-.009-3.541Z" transform="translate(-392.369 -394.471)" fill="#993328"/>
      </g>
      <g id="Grupo_27454" data-name="Grupo 27454" transform="translate(16.017 1.497)">
        <path id="Trazado_3404" data-name="Trazado 3404" d="M394.426,392.522l.014,5.238-.366.21-.015-5.237Z" transform="translate(-394.06 -392.522)" fill="#993328"/>
      </g>
      <g id="Grupo_27455" data-name="Grupo 27455" transform="translate(18.115 2.127)">
        <path id="Trazado_3405" data-name="Trazado 3405" d="M397.05,393.309l0,2.479-.369.212-.008-2.478Z" transform="translate(-396.678 -393.309)" fill="#993328"/>
      </g>
      <g id="Grupo_27456" data-name="Grupo 27456" transform="translate(20.085 0.99)">
        <path id="Trazado_3406" data-name="Trazado 3406" d="M399.508,391.89l.007,1.594-.371.214-.007-1.6Z" transform="translate(-399.138 -391.89)" fill="#993328"/>
      </g>
      <g id="Grupo_27457" data-name="Grupo 27457" transform="translate(19.344 0.426)">
        <path id="Trazado_3407" data-name="Trazado 3407" d="M398.584,391.185l.008,3.539-.369.213-.009-3.539Z" transform="translate(-398.213 -391.185)" fill="#993328"/>
      </g>
      <g id="Grupo_27458" data-name="Grupo 27458" transform="translate(18.728)">
        <path id="Trazado_3408" data-name="Trazado 3408" d="M397.811,390.653l.016,5.241-.369.214-.015-5.241Z" transform="translate(-397.443 -390.653)" fill="#993328"/>
      </g>
      <g id="Grupo_27459" data-name="Grupo 27459" transform="translate(4.925 8.324)">
        <path id="Trazado_3409" data-name="Trazado 3409" d="M380.582,401.045l.008,3.012-.368.214-.009-3.014Z" transform="translate(-380.213 -401.045)" fill="#993328"/>
      </g>
      <g id="Grupo_27460" data-name="Grupo 27460" transform="translate(6.901 8.602)">
        <path id="Trazado_3410" data-name="Trazado 3410" d="M383.049,401.392l.008,3.045-.368.213-.009-3.045Z" transform="translate(-382.68 -401.392)" fill="#993328"/>
      </g>
      <g id="Grupo_27461" data-name="Grupo 27461" transform="translate(6.158 8.036)">
        <path id="Trazado_3411" data-name="Trazado 3411" d="M382.123,400.685l.009,3.541-.368.214-.012-3.54Z" transform="translate(-381.752 -400.685)" fill="#993328"/>
      </g>
      <g id="Grupo_27462" data-name="Grupo 27462" transform="translate(8.374 5.977)">
        <path id="Trazado_3412" data-name="Trazado 3412" d="M384.889,398.115l.009,3.367-.371.213-.009-3.368Z" transform="translate(-384.518 -398.115)" fill="#993328"/>
      </g>
      <g id="Grupo_27463" data-name="Grupo 27463" transform="translate(7.637 7.184)">
        <path id="Trazado_3413" data-name="Trazado 3413" d="M383.97,399.621l.009,3.538-.37.214-.012-3.538Z" transform="translate(-383.598 -399.621)" fill="#993328"/>
      </g>
      <g id="Grupo_27464" data-name="Grupo 27464" transform="translate(4.187 9.176)">
        <path id="Trazado_3414" data-name="Trazado 3414" d="M379.661,402.107l.012,3.541-.372.212-.01-3.54Z" transform="translate(-379.291 -402.107)" fill="#993328"/>
      </g>
      <g id="Grupo_27465" data-name="Grupo 27465" transform="translate(5.543 7.614)">
        <path id="Trazado_3415" data-name="Trazado 3415" d="M381.35,400.158l.016,5.24-.365.211-.017-5.24Z" transform="translate(-380.983 -400.158)" fill="#993328"/>
      </g>
      <g id="Grupo_27466" data-name="Grupo 27466" transform="translate(9.857 6.894)">
        <path id="Trazado_3416" data-name="Trazado 3416" d="M386.742,399.26l0,1.594-.37.215-.006-1.6Z" transform="translate(-386.369 -399.26)" fill="#993328"/>
      </g>
      <g id="Grupo_27467" data-name="Grupo 27467" transform="translate(11.831 5.755)">
        <path id="Trazado_3417" data-name="Trazado 3417" d="M389.2,397.838l.007,3.043-.371.214-.006-3.043Z" transform="translate(-388.834 -397.838)" fill="#993328"/>
      </g>
      <g id="Grupo_27468" data-name="Grupo 27468" transform="translate(11.088 5.191)">
        <path id="Trazado_3418" data-name="Trazado 3418" d="M388.277,397.134l.009,3.542-.368.211-.012-3.54Z" transform="translate(-387.906 -397.134)" fill="#993328"/>
      </g>
      <g id="Grupo_27469" data-name="Grupo 27469" transform="translate(13.31 4.902)">
        <path id="Trazado_3419" data-name="Trazado 3419" d="M391.048,396.772l.006,1.6-.367.213-.007-1.6Z" transform="translate(-390.68 -396.772)" fill="#993328"/>
      </g>
      <g id="Grupo_27470" data-name="Grupo 27470" transform="translate(12.573 6.107)">
        <path id="Trazado_3420" data-name="Trazado 3420" d="M390.131,398.276l0,1.77-.369.215,0-1.772Z" transform="translate(-389.76 -398.276)" fill="#993328"/>
      </g>
      <g id="Grupo_27471" data-name="Grupo 27471" transform="translate(9.117 6.33)">
        <path id="Trazado_3421" data-name="Trazado 3421" d="M385.813,398.555l.011,3.541-.368.212-.011-3.541Z" transform="translate(-385.445 -398.555)" fill="#993328"/>
      </g>
      <g id="Grupo_27472" data-name="Grupo 27472" transform="translate(10.472 4.77)">
        <path id="Trazado_3422" data-name="Trazado 3422" d="M387.5,396.607l.016,5.237-.366.213-.016-5.241Z" transform="translate(-387.137 -396.607)" fill="#993328"/>
      </g>
    </g>
    <g id="Grupo_27504" data-name="Grupo 27504" transform="translate(372.846 403.344)">
      <g id="Grupo_27474" data-name="Grupo 27474" transform="translate(1.99 15.789)">
        <path id="Trazado_3423" data-name="Trazado 3423" d="M381.547,432.532l.008,2.147-.5.289,0-2.146Z" transform="translate(-381.051 -432.532)" fill="#993328"/>
      </g>
      <g id="Grupo_27475" data-name="Grupo 27475" transform="translate(0 16.938)">
        <path id="Trazado_3424" data-name="Trazado 3424" d="M379.063,433.967l.006,2.149-.5.286-.006-2.147Z" transform="translate(-378.566 -433.967)" fill="#993328"/>
      </g>
      <g id="Grupo_27476" data-name="Grupo 27476" transform="translate(4.644 14.257)">
        <path id="Trazado_3425" data-name="Trazado 3425" d="M384.862,430.62l.008,2.147-.5.287-.008-2.147Z" transform="translate(-384.363 -430.62)" fill="#993328"/>
      </g>
      <g id="Grupo_27477" data-name="Grupo 27477" transform="translate(3.647 13.497)">
        <path id="Trazado_3426" data-name="Trazado 3426" d="M383.612,429.671l.014,4.764-.493.289-.014-4.766Z" transform="translate(-383.119 -429.671)" fill="#993328"/>
      </g>
      <g id="Grupo_27478" data-name="Grupo 27478" transform="translate(0.991 15.03)">
        <path id="Trazado_3427" data-name="Trazado 3427" d="M380.3,431.585l.013,4.763-.5.289-.014-4.764Z" transform="translate(-379.804 -431.585)" fill="#993328"/>
      </g>
      <g id="Grupo_27479" data-name="Grupo 27479" transform="translate(2.818 12.926)">
        <path id="Trazado_3428" data-name="Trazado 3428" d="M382.577,428.958l.022,7.052-.5.289-.019-7.056Z" transform="translate(-382.084 -428.958)" fill="#993328"/>
      </g>
      <g id="Grupo_27480" data-name="Grupo 27480" transform="translate(20.731 4.874)">
        <path id="Trazado_3429" data-name="Trazado 3429" d="M404.944,418.907l.009,2.151-.5.286-.008-2.148Z" transform="translate(-404.445 -418.907)" fill="#993328"/>
      </g>
      <g id="Grupo_27481" data-name="Grupo 27481" transform="translate(18.742 6.022)">
        <path id="Trazado_3430" data-name="Trazado 3430" d="M402.459,420.34l.008,2.15-.5.291,0-2.153Z" transform="translate(-401.963 -420.34)" fill="#993328"/>
      </g>
      <g id="Grupo_27482" data-name="Grupo 27482" transform="translate(23.387 3.34)">
        <path id="Trazado_3431" data-name="Trazado 3431" d="M408.261,416.992l0,2.151-.5.286,0-2.151Z" transform="translate(-407.761 -416.992)" fill="#993328"/>
      </g>
      <g id="Grupo_27483" data-name="Grupo 27483" transform="translate(22.386 2.582)">
        <path id="Trazado_3432" data-name="Trazado 3432" d="M407.011,416.046l.013,4.767-.5.284-.016-4.766Z" transform="translate(-406.512 -416.046)" fill="#993328"/>
      </g>
      <g id="Grupo_27484" data-name="Grupo 27484" transform="translate(19.734 4.115)">
        <path id="Trazado_3433" data-name="Trazado 3433" d="M403.7,417.959l.013,4.764-.494.286-.014-4.766Z" transform="translate(-403.201 -417.959)" fill="#993328"/>
      </g>
      <g id="Grupo_27485" data-name="Grupo 27485" transform="translate(21.557 2.014)">
        <path id="Trazado_3434" data-name="Trazado 3434" d="M405.973,415.337l.017,7.05-.491.282-.022-7.048Z" transform="translate(-405.477 -415.337)" fill="#993328"/>
      </g>
      <g id="Grupo_27486" data-name="Grupo 27486" transform="translate(24.381 2.862)">
        <path id="Trazado_3435" data-name="Trazado 3435" d="M409.5,416.395l.007,3.336-.5.286L409,416.682Z" transform="translate(-409.002 -416.395)" fill="#993328"/>
      </g>
      <g id="Grupo_27487" data-name="Grupo 27487" transform="translate(27.033 1.332)">
        <path id="Trazado_3436" data-name="Trazado 3436" d="M412.812,414.485l.009,2.145-.5.288-.009-2.147Z" transform="translate(-412.313 -414.485)" fill="#993328"/>
      </g>
      <g id="Grupo_27488" data-name="Grupo 27488" transform="translate(26.036 0.571)">
        <path id="Trazado_3437" data-name="Trazado 3437" d="M411.565,413.535l.012,4.763-.5.287-.011-4.764Z" transform="translate(-411.068 -413.535)" fill="#993328"/>
      </g>
      <g id="Grupo_27489" data-name="Grupo 27489" transform="translate(25.207)">
        <path id="Trazado_3438" data-name="Trazado 3438" d="M410.526,412.822l.023,7.054-.5.285-.018-7.053Z" transform="translate(-410.033 -412.822)" fill="#993328"/>
      </g>
      <g id="Grupo_27490" data-name="Grupo 27490" transform="translate(6.628 11.202)">
        <path id="Trazado_3439" data-name="Trazado 3439" d="M387.338,426.807l.01,4.054-.5.288-.013-4.056Z" transform="translate(-386.84 -426.807)" fill="#993328"/>
      </g>
      <g id="Grupo_27491" data-name="Grupo 27491" transform="translate(9.287 11.576)">
        <path id="Trazado_3440" data-name="Trazado 3440" d="M390.658,427.272l.011,4.1-.5.286-.013-4.1Z" transform="translate(-390.16 -427.272)" fill="#993328"/>
      </g>
      <g id="Grupo_27492" data-name="Grupo 27492" transform="translate(8.288 10.816)">
        <path id="Trazado_3441" data-name="Trazado 3441" d="M389.411,426.324l.012,4.765-.5.288-.016-4.764Z" transform="translate(-388.912 -426.324)" fill="#993328"/>
      </g>
      <g id="Grupo_27493" data-name="Grupo 27493" transform="translate(11.27 8.043)">
        <path id="Trazado_3442" data-name="Trazado 3442" d="M393.135,422.862l.011,4.532-.5.287-.013-4.533Z" transform="translate(-392.635 -422.862)" fill="#993328"/>
      </g>
      <g id="Grupo_27494" data-name="Grupo 27494" transform="translate(10.279 9.666)">
        <path id="Trazado_3443" data-name="Trazado 3443" d="M391.9,424.889l.015,4.764-.5.288-.014-4.762Z" transform="translate(-391.398 -424.889)" fill="#993328"/>
      </g>
      <g id="Grupo_27495" data-name="Grupo 27495" transform="translate(5.633 12.348)">
        <path id="Trazado_3444" data-name="Trazado 3444" d="M386.1,428.236l.015,4.767-.5.285-.016-4.764Z" transform="translate(-385.599 -428.236)" fill="#993328"/>
      </g>
      <g id="Grupo_27496" data-name="Grupo 27496" transform="translate(7.461 10.246)">
        <path id="Trazado_3445" data-name="Trazado 3445" d="M388.372,425.613l.02,7.052-.491.284-.021-7.053Z" transform="translate(-387.88 -425.613)" fill="#993328"/>
      </g>
      <g id="Grupo_27497" data-name="Grupo 27497" transform="translate(13.268 9.279)">
        <path id="Trazado_3446" data-name="Trazado 3446" d="M395.629,424.405l.006,2.144-.5.289-.008-2.147Z" transform="translate(-395.129 -424.405)" fill="#993328"/>
      </g>
      <g id="Grupo_27498" data-name="Grupo 27498" transform="translate(15.924 7.745)">
        <path id="Trazado_3447" data-name="Trazado 3447" d="M398.943,422.491l.009,4.1-.5.288-.008-4.1Z" transform="translate(-398.445 -422.491)" fill="#993328"/>
      </g>
      <g id="Grupo_27499" data-name="Grupo 27499" transform="translate(14.923 6.985)">
        <path id="Trazado_3448" data-name="Trazado 3448" d="M397.694,421.542l.013,4.768-.5.284-.016-4.763Z" transform="translate(-397.195 -421.542)" fill="#993328"/>
      </g>
      <g id="Grupo_27500" data-name="Grupo 27500" transform="translate(17.913 6.596)">
        <path id="Trazado_3449" data-name="Trazado 3449" d="M401.425,421.056l.006,2.15-.494.285-.009-2.148Z" transform="translate(-400.928 -421.056)" fill="#993328"/>
      </g>
      <g id="Grupo_27501" data-name="Grupo 27501" transform="translate(16.921 8.216)">
        <path id="Trazado_3450" data-name="Trazado 3450" d="M400.189,423.079l0,2.385-.5.287-.006-2.383Z" transform="translate(-399.689 -423.079)" fill="#993328"/>
      </g>
      <g id="Grupo_27502" data-name="Grupo 27502" transform="translate(12.271 8.517)">
        <path id="Trazado_3451" data-name="Trazado 3451" d="M394.379,423.454l.014,4.767-.5.285-.012-4.767Z" transform="translate(-393.885 -423.454)" fill="#993328"/>
      </g>
      <g id="Grupo_27503" data-name="Grupo 27503" transform="translate(14.094 6.418)">
        <path id="Trazado_3452" data-name="Trazado 3452" d="M396.653,420.834l.021,7.049-.493.286-.021-7.052Z" transform="translate(-396.16 -420.834)" fill="#993328"/>
      </g>
    </g>
    <g id="Grupo_27512" data-name="Grupo 27512" transform="translate(394.657 405.163)">
      <path id="Trazado_3453" data-name="Trazado 3453" d="M424.127,423.21c-1.011-.033-1.7,3.24-2.687,5.837l-4.8-2.108a6.987,6.987,0,0,1-.79-1.111c-.208-.448-.429-.486-.527-.473s.022.305.046.505.345.591.086.54-1.452-.74-1.759-.509c-.14.108-.388.028.367.875a4.9,4.9,0,0,0,1.923,1.156,20.073,20.073,0,0,0,5.538,3.538v0a1.392,1.392,0,0,0,.759-.039c1.609-1.277,2.458-3.89,2.78-6.328C425.291,423.347,424.127,423.21,424.127,423.21Z" transform="translate(-407.334 -416.708)" fill="#efb185"/>
      <path id="Trazado_3454" data-name="Trazado 3454" d="M425.819,422.982c.522-.157,1.516-.035,1.516,1.561a7.044,7.044,0,0,1-.6,3.446c-.265.643-2.189.35-2.694-.7C423.751,426.681,424.778,423.3,425.819,422.982Z" transform="translate(-409.414 -416.652)" fill="#471bce"/>
      <g id="Grupo_27505" data-name="Grupo 27505" transform="translate(1.776 36.516)">
        <path id="Trazado_3455" data-name="Trazado 3455" d="M410.895,462.335c-3.827,2.209-3.852,5.8-.043,8.007a15.22,15.22,0,0,0,13.817,0c3.827-2.21,3.847-5.8.045-8A15.211,15.211,0,0,0,410.895,462.335Z" transform="translate(-408.01 -460.678)" opacity="0.1"/>
      </g>
      <path id="Trazado_3456" data-name="Trazado 3456" d="M421.8,462.913s-.946.141-.713.683,1.314,1.374,1.453,1.717,1.033,1.575,1.316,1.463,1.033.056.944-1.347A3.072,3.072,0,0,0,421.8,462.913Z" transform="translate(-408.828 -424.606)" fill="#111114"/>
      <path id="Trazado_3457" data-name="Trazado 3457" d="M418.071,469.242s.459,1.344-.685,1.658-.8-.4-3.292.232-2.776-.661-2.72-.945,1.719-.8,2.266-.945,1.571-.4,1.571-.4h2.954Z" transform="translate(-406.902 -425.785)" fill="#111114"/>
      <path id="Trazado_3458" data-name="Trazado 3458" d="M424.563,439.862s.014,8.124.014,9.04,1.024,8.12.412,11.271c0,0-1.774,1.775-3.338,0,0,0-.5-9.026-.956-11.062s-.3-8.266-.3-8.266Z" transform="translate(-408.692 -420.021)" fill="#5fb9e6"/>
      <path id="Trazado_3459" data-name="Trazado 3459" d="M420.469,441.015s-.4,5.248-.82,10.446c0,0-.268,10.325-.507,11.813,0,0-3.33.829-3.663-.743,0,0,.087-9.088,0-10.987s-.279-7.193.474-10.251S420.469,441.015,420.469,441.015Z" transform="translate(-407.703 -420.02)" fill="#5fb9e6"/>
      <path id="Trazado_3460" data-name="Trazado 3460" d="M419.545,463.933c.24-1.488.507-11.813.507-11.813.28-3.5.553-7.02.7-8.948l-2.056.5a26.9,26.9,0,0,0-1.255,9.731c.177,4.519.249,8.96.271,10.743A8.423,8.423,0,0,0,419.545,463.933Z" transform="translate(-408.105 -420.679)" fill="#77d2ff"/>
      <path id="Trazado_3461" data-name="Trazado 3461" d="M425.525,460.187c.612-3.151-.412-10.359-.412-11.271,0-.874-.013-8.281-.014-8.983l-1.787,1.375a45.726,45.726,0,0,0,0,9.115c.518,3.014.187,8.873.437,10.555A2.843,2.843,0,0,0,425.525,460.187Z" transform="translate(-409.228 -420.035)" fill="#77d2ff"/>
      <path id="Trazado_3462" data-name="Trazado 3462" d="M424.553,422.644s1.528.8.6,3.408-1.575,4.291-1.546,5.269a43.13,43.13,0,0,0,.521,4.951s.216,2.166-4.747,3.355c0,0-4.073.328-3.349-2.333a35.229,35.229,0,0,0,.979-8.007c-.078-1.032-.658-3.1,1.943-4.439S422.914,422.509,424.553,422.644Z" transform="translate(-407.813 -416.593)" fill="#632bee"/>
      <path id="Trazado_3463" data-name="Trazado 3463" d="M417.011,429.954a35.229,35.229,0,0,1-.979,8.007c-.5,1.848,1.3,2.255,2.458,2.328.391-1.186-.189-3.327.719-5.917,1.118-3.2,1.013-5.331.477-7.061a1.758,1.758,0,0,0-1.484-1.328C416.477,427.3,416.938,429.036,417.011,429.954Z" transform="translate(-407.813 -417.26)" fill="#471bce"/>
      <path id="Trazado_3464" data-name="Trazado 3464" d="M425.1,436.276a43.129,43.129,0,0,1-.521-4.951c-.029-.978.642-2.657,1.546-5.269.858-2.472-.074-3.141-.6-3.408-.295,1.283-4.763,1.736-4.677,2.6.106.959,1.279,1.878,1.312,3.594a25.184,25.184,0,0,1-.564,5.513,16.064,16.064,0,0,0,.024,4.916C425.282,438.057,425.1,436.276,425.1,436.276Z" transform="translate(-408.788 -416.596)" fill="#632bee"/>
      <g id="Grupo_27506" data-name="Grupo 27506" transform="translate(12.161 4.58)">
        <path id="Trazado_3465" data-name="Trazado 3465" d="M423.753,420.949a4.457,4.457,0,0,0,.261,2.235c.415.789-2.829,1.435-2.889.711a3.112,3.112,0,0,0-.116-2.659C420.613,420.495,423.753,420.949,423.753,420.949Z" transform="translate(-420.974 -420.811)" fill="#efb185"/>
      </g>
      <g id="Grupo_27507" data-name="Grupo 27507" transform="translate(12.52 5.006)">
        <path id="Trazado_3466" data-name="Trazado 3466" d="M424.089,423.337a4.047,4.047,0,0,1-.284-1.994l-2.382,1.122v.006c.089.021,1.669.457,1.99,1.613C423.9,423.893,424.236,423.626,424.089,423.337Z" transform="translate(-421.422 -421.343)" fill="#dd9569"/>
      </g>
      <g id="Grupo_27508" data-name="Grupo 27508" transform="translate(11.118 0.546)">
        <path id="Trazado_3467" data-name="Trazado 3467" d="M420.166,416.238a5.933,5.933,0,0,0-.449,2.308c.086,1.158-.095,1.387-.032,1.9a1.261,1.261,0,0,0,.249.76,2.037,2.037,0,0,0,2.084.15c1.206-.418,2.507-2.045,2.026-3.542S422,415.063,420.166,416.238Z" transform="translate(-419.672 -415.774)" fill="#efb185"/>
      </g>
      <g id="Grupo_27509" data-name="Grupo 27509" transform="translate(11.345 0.548)">
        <path id="Trazado_3468" data-name="Trazado 3468" d="M424.012,419.422a21.6,21.6,0,0,0-1.6-3.063,4.154,4.154,0,0,0-.832-.582,2.732,2.732,0,0,0-1.355.461,6.862,6.862,0,0,0-.268.8c.284.324.859.7.945.973a3.5,3.5,0,0,1-.146,2.041c-.2.425.557,1.066.393,1.447a.057.057,0,0,0-.007.049,3.385,3.385,0,0,0,.936-.189A3.5,3.5,0,0,0,424.012,419.422Z" transform="translate(-419.955 -415.777)" fill="#e6a376"/>
      </g>
      <g id="Grupo_27510" data-name="Grupo 27510" transform="translate(10.38 0.059)">
        <path id="Trazado_3469" data-name="Trazado 3469" d="M418.75,415.656a10.05,10.05,0,0,0,1.734,1.544c.6.364.548,1.338.513,1.526a4.942,4.942,0,0,0-.161,1.156c.145.212.65-.435.885-.386.6.127.348.681-.207,1.254-.589.61.926.893,1.64.4.38-.264.517-.425,1.031-1.392.742-1.411.811-3.118-.852-4.065A5.523,5.523,0,0,0,418.75,415.656Z" transform="translate(-418.75 -415.167)" fill="#221101"/>
      </g>
      <g id="Grupo_27511" data-name="Grupo 27511" transform="translate(10.38)">
        <path id="Trazado_3470" data-name="Trazado 3470" d="M423.154,421.132a2.7,2.7,0,0,0,1.177-1.329c.743-1.409.92-3.791-.985-4.432a6.725,6.725,0,0,0-4.6.271s1.124.336,1.161.582c.529.1,1.71.2,2.073.841.449.779.969.543.909,1.5-.056.924.159,2.141-1.4,2.634A1.577,1.577,0,0,0,423.154,421.132Z" transform="translate(-418.75 -415.093)" fill="#341c09"/>
      </g>
      <path id="Trazado_3471" data-name="Trazado 3471" d="M421.131,423.917l-1.068.866s3.256,1,4.246-.584a.934.934,0,0,0-.577-1.139S423.594,424.363,421.131,423.917Z" transform="translate(-408.632 -416.678)" fill="#def0f9"/>
      <path id="Trazado_3472" data-name="Trazado 3472" d="M416.38,426.2c-1.013-.03-1.7,3.241-2.689,5.839l-4.8-2.114a6.676,6.676,0,0,1-.787-1.109c-.211-.442-.432-.485-.53-.471s.03.305.043.507.348.589.09.535-1.452-.737-1.761-.5c-.14.1-.381.027.363.873a5,5,0,0,0,1.932,1.154,20.017,20.017,0,0,0,5.536,3.539v0a1.416,1.416,0,0,0,.759-.042c1.6-1.276,2.454-3.889,2.775-6.326C417.538,426.335,416.38,426.2,416.38,426.2Z" transform="translate(-405.793 -417.302)" fill="#efb185"/>
      <path id="Trazado_3473" data-name="Trazado 3473" d="M418.07,425.97c.522-.157,1.516-.038,1.516,1.561a7.067,7.067,0,0,1-.594,3.447c-.264.645-2.191.346-2.7-.7C416,429.67,417.032,426.284,418.07,425.97Z" transform="translate(-407.872 -417.247)" fill="#632bee"/>
    </g>
  </g>
</svg>
