<svg xmlns="http://www.w3.org/2000/svg" xmlns:xlink="http://www.w3.org/1999/xlink" width="86.679" height="78.609" viewBox="0 0 86.679 78.609">
  <defs>
    <linearGradient id="linear-gradient" y1="0.5" x2="1" y2="0.5" gradientUnits="objectBoundingBox">
      <stop offset="0" stop-color="#4845e8"/>
      <stop offset="0.263" stop-color="#4036c8"/>
      <stop offset="0.55" stop-color="#3a29ae"/>
      <stop offset="0.805" stop-color="#36219d"/>
      <stop offset="1" stop-color="#351f98"/>
    </linearGradient>
    <linearGradient id="linear-gradient-2" y1="0.5" x2="1" y2="0.5" gradientUnits="objectBoundingBox">
      <stop offset="0" stop-color="#4845e8"/>
      <stop offset="0.395" stop-color="#4137cb"/>
      <stop offset="1" stop-color="#351f98"/>
    </linearGradient>
  </defs>
  <g id="Grupo_27680" data-name="Grupo 27680" transform="translate(-474.017 -390.982)">
    <g id="Grupo_27629" data-name="Grupo 27629" transform="translate(474.017 419.23)" opacity="0.2">
      <path id="Trazado_3612" data-name="Trazado 3612" d="M559.732,440.271c1.279.732,1.284,1.92.02,2.659l-2.511,1.471-46.578,27.256-3.887,2.275a5.047,5.047,0,0,1-4.581.012l-27.218-15.6c-1.272-.73-1.282-1.918-.021-2.655l52.971-31a5.058,5.058,0,0,1,4.59-.015Z" transform="translate(-474.017 -424.126)"/>
    </g>
    <g id="Grupo_27643" data-name="Grupo 27643" transform="translate(476.448 416.549)">
      <g id="Grupo_27639" data-name="Grupo 27639">
        <path id="Trazado_3613" data-name="Trazado 3613" d="M569.166,439.791a1.118,1.118,0,0,1-.05.3.074.074,0,0,0-.008.032,1.29,1.29,0,0,1-.144.275.329.329,0,0,0-.032.048,1.662,1.662,0,0,1-.237.259,2.279,2.279,0,0,1-.208.157,2.015,2.015,0,0,1-.184.128l-2.3,1.336-.01,3.862,2.3-1.334a.266.266,0,0,1,.038-.022c.053-.034.094-.07.14-.1a1.823,1.823,0,0,0,.213-.16.028.028,0,0,0,.019-.015,1.387,1.387,0,0,0,.187-.2c.011-.013.021-.033.032-.047s.021-.031.029-.046a.675.675,0,0,0,.057-.084c.029-.055.059-.113.081-.168a.068.068,0,0,0,0-.027.113.113,0,0,0,.012-.029.533.533,0,0,0,.031-.111,1.645,1.645,0,0,0,.023-.17v-.025c0-1.122,0-2.247.006-3.367l0-.47Z" transform="translate(-490.035 -423.759)" fill="#8fedff"/>
        <path id="Trazado_3614" data-name="Trazado 3614" d="M506.722,471.524a3.509,3.509,0,0,1-.585.257c-.072.026-.145.044-.222.07-.1.024-.193.049-.294.072-.119.022-.24.046-.362.061-.028.005-.057.01-.085.014-.165.015-.333.026-.5.027-.025,0-.046,0-.07,0-.167,0-.332-.012-.5-.027l-.068-.009c-.164-.019-.324-.048-.481-.082l-.08-.02a3.417,3.417,0,0,1-.416-.128.659.659,0,0,1-.07-.02,3.827,3.827,0,0,1-.449-.215l-24.788-14.31a1.482,1.482,0,0,1-.874-1.221l-.01,3.861a1.473,1.473,0,0,0,.874,1.223l24.787,14.31a3.342,3.342,0,0,0,.428.2.084.084,0,0,0,.023.012c.023.009.047.014.072.02.086.033.17.065.265.092.049.014.1.024.151.036.025.009.053.012.08.02s.05.014.08.02c.094.019.193.036.29.051.034,0,.07.007.1.01s.054.005.079.01.07.008.1.01c.1.007.2.014.291.015h.3c.113,0,.219-.014.33-.024a.1.1,0,0,0,.037-.007c.028,0,.057-.005.084-.009.085-.01.17-.022.252-.036.041-.007.073-.02.109-.026.1-.026.2-.048.3-.075.049-.015.1-.022.155-.039.024-.009.043-.02.068-.027a3.665,3.665,0,0,0,.582-.257l3.549-2.065.011-3.861Z" transform="translate(-476.869 -426.153)" fill="#8fedff"/>
        <g id="Grupo_27632" data-name="Grupo 27632" transform="translate(0.011)">
          <g id="Grupo_27631" data-name="Grupo 27631">
            <g id="Grupo_27630" data-name="Grupo 27630">
              <path id="Trazado_3615" data-name="Trazado 3615" d="M555.128,435.793a1.279,1.279,0,0,1,.01,2.422l-2.3,1.336-42.568,24.738-3.551,2.063a4.612,4.612,0,0,1-4.181,0l-24.788-14.31a1.28,1.28,0,0,1-.013-2.424l48.411-28.134a4.615,4.615,0,0,1,4.188,0Z" transform="translate(-476.881 -420.98)" fill="#c5f9ff"/>
            </g>
          </g>
        </g>
        <path id="Trazado_3616" data-name="Trazado 3616" d="M524.624,423.136l-42.569,24.738,28.984,16.733,42.567-24.738Z" transform="translate(-477.635 -421.299)" fill="url(#linear-gradient)"/>
        <g id="Grupo_27633" data-name="Grupo 27633" transform="translate(58.338 6.218)">
          <path id="Trazado_3617" data-name="Trazado 3617" d="M555.6,433.411c.311.179.319.545-.135.782a1.1,1.1,0,0,1-1.027.114l-9.011-5.117c-.312-.179.09-.6.4-.78a1.226,1.226,0,0,1,1.116,0Z" transform="translate(-545.319 -428.276)" fill="#65d2e0"/>
        </g>
        <g id="Grupo_27636" data-name="Grupo 27636" transform="translate(58.345 6.45)">
          <g id="Grupo_27635" data-name="Grupo 27635">
            <g id="Grupo_27634" data-name="Grupo 27634">
              <path id="Trazado_3618" data-name="Trazado 3618" d="M555.334,433.683a.344.344,0,0,1,.008.649,1.249,1.249,0,0,1-1.122,0l-8.663-5a.344.344,0,0,1,0-.65,1.235,1.235,0,0,1,1.115,0Z" transform="translate(-545.327 -428.548)" fill="#8fedff"/>
            </g>
          </g>
        </g>
        <g id="Grupo_27638" data-name="Grupo 27638" transform="translate(33.393 18.569)">
          <g id="Grupo_27637" data-name="Grupo 27637">
            <path id="Trazado_3619" data-name="Trazado 3619" d="M558.629,442.769l-.01,3.863L516.05,471.368l.012-3.861Z" transform="translate(-516.05 -442.769)" fill="url(#linear-gradient-2)"/>
          </g>
        </g>
      </g>
      <g id="Grupo_27642" data-name="Grupo 27642" transform="translate(13.39 34.964)">
        <g id="Grupo_27641" data-name="Grupo 27641">
          <g id="Grupo_27640" data-name="Grupo 27640">
            <path id="Trazado_3620" data-name="Trazado 3620" d="M497.132,462.458a1.157,1.157,0,0,1,.013,2.188,4.167,4.167,0,0,1-3.775,0,1.156,1.156,0,0,1-.018-2.187A4.172,4.172,0,0,1,497.132,462.458Z" transform="translate(-492.579 -462.005)" fill="#8fedff"/>
          </g>
        </g>
      </g>
    </g>
    <g id="Grupo_27662" data-name="Grupo 27662" transform="translate(495.204 396.504)">
      <g id="Grupo_27644" data-name="Grupo 27644" transform="translate(0 36.039)" opacity="0.2">
        <path id="Trazado_3621" data-name="Trazado 3621" d="M522.962,442.143c5.536,3.194,5.568,8.377.068,11.572s-14.448,3.2-19.984,0-5.565-8.378-.064-11.574S517.427,438.948,522.962,442.143Z" transform="translate(-498.876 -439.747)"/>
      </g>
      <g id="Grupo_27647" data-name="Grupo 27647" transform="translate(7.143 39.382)">
        <path id="Trazado_3622" data-name="Trazado 3622" d="M522.188,449.155c0,.016-.005.035-.008.054-.012.068-.034.138-.053.206a2.276,2.276,0,0,1-.066.228,2.558,2.558,0,0,1-.138.326.554.554,0,0,1-.028.055,3.658,3.658,0,0,1-.21.348c-.011.016-.024.032-.036.05a3.657,3.657,0,0,1-.245.307c-.017.019-.032.038-.049.058-.1.106-.2.206-.314.309-.073.065-.153.128-.234.191s-.133.109-.206.165-.175.115-.265.176-.186.124-.288.185c-.162.095-.332.182-.5.265l-.138.065c-.154.072-.313.14-.476.2-.022.009-.044.021-.067.029-.173.066-.354.127-.534.182-.129.043-.262.077-.393.113-.1.025-.192.054-.288.078-.135.032-.271.059-.407.086-.1.02-.207.046-.314.063-.037.007-.076.012-.116.02-.175.027-.349.053-.527.072l-.147.018c-.1.012-.207.017-.31.026-.164.014-.329.026-.5.032-.109.005-.222.007-.333.012-.134,0-.268,0-.4,0-.117,0-.232-.005-.347-.01s-.25-.01-.373-.019-.236-.02-.355-.029l-.361-.041c-.116-.017-.23-.031-.347-.051s-.256-.042-.385-.066c-.106-.019-.213-.043-.319-.063-.155-.034-.309-.075-.462-.116-.1-.024-.2-.049-.295-.078-.055-.016-.107-.032-.16-.05-.154-.048-.305-.1-.453-.154l-.132-.048c-.134-.052-.263-.11-.393-.167-.066-.029-.133-.055-.2-.086-.189-.089-.372-.184-.548-.286a3.746,3.746,0,0,1-2.207-3.084l0,.783a3.747,3.747,0,0,0,2.207,3.085c.177.1.361.194.547.285.066.031.136.06.2.089.108.048.216.1.329.143a.435.435,0,0,0,.061.02c.042.019.086.032.129.049q.222.081.453.155c.055.015.109.034.164.049.033.01.067.022.1.031.06.019.124.03.184.046.157.043.313.082.472.118.041.009.082.02.124.029.063.013.125.02.188.032.13.026.26.049.391.068.055.009.107.02.164.027s.118.014.177.021l.368.041c.06.007.12.016.18.02s.113.005.169.009c.126.009.251.015.378.02.064,0,.125.01.19.012h.154c.134,0,.27,0,.4,0,.069,0,.139,0,.207,0,.041,0,.082-.008.124-.008.167-.009.332-.02.5-.034.069-.005.139-.007.207-.014.033,0,.067-.007.1-.009s.1-.012.148-.02c.176-.021.351-.046.526-.074l.118-.019.063-.01c.084-.014.168-.037.251-.053.133-.028.268-.055.4-.087.1-.024.2-.053.3-.083.126-.032.251-.065.372-.1.028-.009.059-.015.086-.026.155-.049.308-.1.457-.16l.058-.024c.166-.066.328-.135.485-.208.045-.02.089-.04.134-.063.174-.084.344-.172.507-.264.03-.02.06-.036.091-.055.071-.043.132-.09.2-.136.089-.055.179-.112.26-.172s.144-.111.214-.169.155-.122.227-.184a.411.411,0,0,1,.047-.04c.1-.089.184-.181.268-.274.017-.016.032-.036.05-.054.048-.058.1-.114.146-.172s.067-.09.1-.14l.035-.046c.058-.085.114-.174.164-.261.016-.03.03-.06.046-.087a.559.559,0,0,1,.028-.055,2.758,2.758,0,0,0,.124-.283c.007-.016.008-.032.015-.047.026-.073.044-.146.063-.221.015-.052.033-.1.044-.153,0-.02.006-.039.01-.06l.007-.051a2.515,2.515,0,0,0,.032-.319c0-.022,0-.044,0-.066l0-.782A2.534,2.534,0,0,1,522.188,449.155Z" transform="translate(-507.257 -444.417)" fill="#41c0fd"/>
        <g id="Grupo_27646" data-name="Grupo 27646" transform="translate(0.002)">
          <g id="Grupo_27645" data-name="Grupo 27645">
            <path id="Trazado_3623" data-name="Trazado 3623" d="M520.011,444.938c2.933,1.693,2.949,4.435.038,6.128a11.651,11.651,0,0,1-10.582,0c-2.93-1.693-2.945-4.434-.033-6.128A11.657,11.657,0,0,1,520.011,444.938Z" transform="translate(-507.259 -443.669)" fill="#c5f9ff"/>
          </g>
        </g>
      </g>
      <g id="Grupo_27652" data-name="Grupo 27652" transform="translate(13.695 31.36)">
        <g id="Grupo_27651" data-name="Grupo 27651" style="isolation: isolate">
          <g id="Grupo_27648" data-name="Grupo 27648" transform="translate(0 0.568)">
            <path id="Trazado_3624" data-name="Trazado 3624" d="M515.814,447.495l-.837-.486-.032-12.086.836.486Z" transform="translate(-514.944 -434.923)" fill="#41c0fd"/>
          </g>
          <g id="Grupo_27649" data-name="Grupo 27649">
            <path id="Trazado_3625" data-name="Trazado 3625" d="M515.781,435.311l-.836-.486.983-.568.837.488Z" transform="translate(-514.944 -434.257)" fill="#41c0fd"/>
          </g>
          <g id="Grupo_27650" data-name="Grupo 27650" transform="translate(0.837 0.488)">
            <path id="Trazado_3626" data-name="Trazado 3626" d="M516.91,434.829l.033,12.086-.984.566-.033-12.086Z" transform="translate(-515.926 -434.829)" fill="#8fedff"/>
          </g>
        </g>
      </g>
      <g id="Grupo_27658" data-name="Grupo 27658" transform="translate(6.049 15.475)">
        <g id="Grupo_27653" data-name="Grupo 27653" transform="translate(14.857)">
          <path id="Trazado_3627" data-name="Trazado 3627" d="M523.963,416.607l-.558-.324,1.149-.665.558.325Z" transform="translate(-523.405 -415.618)" fill="#c5f9ff"/>
        </g>
        <g id="Grupo_27654" data-name="Grupo 27654" transform="translate(0 8.579)">
          <path id="Trazado_3628" data-name="Trazado 3628" d="M506.531,426.672l-.558-.324,1.149-.663.558.324Z" transform="translate(-505.974 -425.685)" fill="#329cd7"/>
        </g>
        <g id="Grupo_27656" data-name="Grupo 27656" transform="translate(0 0.665)">
          <g id="Grupo_27655" data-name="Grupo 27655">
            <path id="Trazado_3629" data-name="Trazado 3629" d="M521.794,425.153c.01-.08.015-.157.024-.237.005-.058.011-.116.016-.174.013-.18.022-.356.022-.531l-.022-7.49-.558-.324.022,7.489c0,.176-.008.353-.022.532-.005.056-.011.115-.016.174-.012.114-.026.226-.041.341s-.043.257-.067.387c-.017.087-.031.174-.05.261s-.04.164-.06.245c-.029.115-.059.23-.093.344-.019.065-.037.132-.061.2-.039.13-.083.26-.129.389l-.055.155c-.067.177-.138.354-.214.528-.008.023-.02.043-.028.065q-.106.234-.221.467c-.022.045-.046.092-.068.138q-.116.225-.242.445c-.014.023-.026.048-.041.072-.1.168-.2.334-.3.5-.029.046-.06.09-.09.135-.078.119-.161.234-.245.35-.042.06-.083.118-.129.176-.072.1-.146.188-.221.285-.059.073-.121.147-.182.22s-.124.14-.188.211c-.1.118-.21.231-.318.342-.067.068-.135.136-.2.2-.053.052-.109.1-.163.151-.09.082-.18.161-.271.238-.055.045-.109.093-.166.136-.1.079-.2.154-.3.228-.048.036-.1.073-.145.106q-.228.156-.458.292l-4.089,2.362c-.148.085-.3.158-.441.228l-.114.054c-.14.062-.28.118-.413.166l-.026.006c-.12.041-.237.071-.351.1-.067.016-.133.029-.2.041-.084.015-.17.029-.254.04l-.145.013a2.694,2.694,0,0,1-.309.009c-.022,0-.047,0-.068,0a2.676,2.676,0,0,1-.356-.044l-.084-.019a2.43,2.43,0,0,1-.263-.078l-.083-.027a2.224,2.224,0,0,1-.315-.15l.557.326a.161.161,0,0,1,.027.013,2.114,2.114,0,0,0,.241.118.407.407,0,0,0,.048.017l.082.029c.041.015.083.032.124.043s.093.021.14.033l.083.019c.016,0,.032.009.047.01a2.651,2.651,0,0,0,.291.034h.019a.458.458,0,0,0,.068,0c.076,0,.153.007.231,0,.026,0,.053-.007.079-.008.047,0,.1-.009.146-.015s.087-.005.134-.012.081-.019.12-.026c.066-.011.13-.026.2-.041.036-.009.071-.013.107-.025.082-.022.164-.048.248-.076.008,0,.014,0,.021-.006.1-.032.2-.07.3-.111l.122-.055.111-.052c.147-.07.293-.143.442-.229l4.089-2.361c.155-.089.307-.188.459-.292.048-.032.093-.068.141-.1.1-.073.205-.152.308-.232.055-.043.107-.087.161-.133.092-.078.185-.158.274-.24.055-.049.108-.1.162-.15.032-.031.069-.061.1-.1s.068-.075.1-.111c.107-.108.212-.221.316-.337.035-.039.071-.073.1-.112s.055-.068.083-.1c.062-.073.121-.147.182-.22.04-.053.084-.1.125-.153s.063-.089.1-.13c.044-.059.088-.118.13-.177.033-.044.066-.084.095-.127.049-.072.1-.146.148-.219.031-.045.061-.093.091-.138.013-.02.026-.037.038-.059.087-.134.17-.27.249-.406l.014-.024.053-.095c.054-.1.107-.19.16-.285.023-.048.045-.094.07-.139l.072-.143c.022-.042.045-.084.064-.129.054-.11.107-.224.156-.336.009-.021.019-.044.03-.066,0,0,0-.009.006-.014.062-.143.121-.287.177-.43l.027-.082c.02-.051.038-.106.058-.157.026-.073.053-.145.077-.216.019-.056.034-.114.051-.169s.042-.133.062-.2c.01-.04.026-.081.037-.123.02-.073.035-.147.052-.218s.044-.166.061-.249c.006-.027.015-.057.021-.084.012-.059.02-.118.029-.176.026-.13.049-.259.066-.387C521.781,425.223,521.79,425.187,521.794,425.153Z" transform="translate(-506.42 -416.398)" fill="#41c0fd"/>
            <path id="Trazado_3630" data-name="Trazado 3630" d="M506.553,434.462l-.022-7.675-.557-.324.021,7.676a3.932,3.932,0,0,0,1.638,3.6l.558.324A3.934,3.934,0,0,1,506.553,434.462Z" transform="translate(-505.974 -417.885)" fill="#41c0fd"/>
          </g>
        </g>
        <g id="Grupo_27657" data-name="Grupo 27657" transform="translate(0.558 0.325)">
          <path id="Trazado_3631" data-name="Trazado 3631" d="M522.635,416l.022,7.676a12.337,12.337,0,0,1-5.6,9.7l-4.769,2.754c-3.1,1.792-5.626.355-5.636-3.212l-.022-7.675,1.15-.663.022,7.49c.008,3.051,2.168,4.282,4.824,2.749l4.089-2.361a10.57,10.57,0,0,0,4.794-8.3l-.022-7.49Z" transform="translate(-506.628 -416)" fill="#8fedff"/>
        </g>
      </g>
      <g id="Grupo_27661" data-name="Grupo 27661" transform="translate(5.322)">
        <g id="Grupo_27660" data-name="Grupo 27660">
          <g id="Grupo_27659" data-name="Grupo 27659">
            <path id="Rectángulo_4724" data-name="Rectángulo 4724" d="M8.412,0h0a8.411,8.411,0,0,1,8.411,8.411V25.835a8.411,8.411,0,0,1-8.411,8.411h0A8.412,8.412,0,0,1,0,25.834V8.412A8.412,8.412,0,0,1,8.412,0Z" transform="translate(0)" fill="#c5f9ff"/>
            <path id="Trazado_3632" data-name="Trazado 3632" d="M505.12,405.541v18.412a7.917,7.917,0,0,0,6.317,7.755,7.913,7.913,0,0,0,4.172-6.974V406.32a7.922,7.922,0,0,0-6.317-7.755A7.915,7.915,0,0,0,505.12,405.541Z" transform="translate(-505.12 -397.624)" fill="#8fedff"/>
          </g>
          <path id="Trazado_3633" data-name="Trazado 3633" d="M512.752,409.507c1.814.261,9.025,1.325,10.226-3.067v1.736s-1.969,3.977-10.226,2.518C512.128,410.585,511.747,409.364,512.752,409.507Z" transform="translate(-506.156 -398.787)" fill="#5dd2e2"/>
          <path id="Trazado_3634" data-name="Trazado 3634" d="M512.752,414.152c1.814.26,9.025,1.324,10.226-3.068v1.737s-1.969,3.976-10.226,2.518C512.128,415.228,511.747,414.007,512.752,414.152Z" transform="translate(-506.156 -399.473)" fill="#5dd2e2"/>
          <path id="Trazado_3635" data-name="Trazado 3635" d="M512.752,418.8c1.814.258,9.025,1.324,10.226-3.069v1.738s-1.969,3.977-10.226,2.517C512.128,419.873,511.747,418.652,512.752,418.8Z" transform="translate(-506.156 -400.159)" fill="#5dd2e2"/>
          <path id="Trazado_3636" data-name="Trazado 3636" d="M512.752,423.44c1.814.259,9.025,1.324,10.226-3.068v1.736s-1.969,3.978-10.226,2.518C512.128,424.516,511.747,423.3,512.752,423.44Z" transform="translate(-506.156 -400.845)" fill="#5dd2e2"/>
        </g>
        <path id="Trazado_3637" data-name="Trazado 3637" d="M518.612,399.1c0,.909-1.962,1.643-4.384,1.643s-4.382-.734-4.382-1.643,1.963-1.643,4.382-1.643S518.612,398.2,518.612,399.1Z" transform="translate(-505.818 -397.461)" fill="#fff" opacity="0.4"/>
      </g>
      <path id="Trazado_3638" data-name="Trazado 3638" d="M507.681,426.008l-.558-.324-1.149.663.558.324Z" transform="translate(-499.924 -401.63)" fill="#c5f9ff"/>
      <path id="Trazado_3639" data-name="Trazado 3639" d="M512.023,437.9l-.114.054c-.14.062-.28.118-.413.166l-.026.006c-.12.041-.237.071-.351.1-.067.016-.133.029-.2.041-.084.015-.17.029-.254.04l-.145.013a2.694,2.694,0,0,1-.309.009c-.022,0-.047,0-.068,0a2.681,2.681,0,0,1-.356-.044l-.084-.019a2.423,2.423,0,0,1-.263-.078c-.029-.009-.056-.018-.083-.027a.218.218,0,0,0-.031-.015,2.226,2.226,0,0,0,.6.342l.072.026.013,0a2.317,2.317,0,0,0,.267.075c.023,0,.046.011.068.016l.009,0a2.715,2.715,0,0,0,.355.043h.079a2.2,2.2,0,0,0,.3-.005c.043,0,.09-.009.137-.015l.006,0c.083-.008.169-.022.253-.038.064-.011.126-.025.19-.039h.006c.119-.03.239-.06.364-.1l.007,0s.008-.005.015-.005c.131-.046.266-.1.4-.163l.11-.05c.147-.07.293-.143.442-.229l1-.453-1.368.019-.191.111C512.317,437.761,512.169,437.833,512.023,437.9Z" transform="translate(-500.42 -403.382)" fill="#41c0fd"/>
      <path id="Trazado_3640" data-name="Trazado 3640" d="M507.656,437.647c-.046-.046-.1-.087-.139-.135-.057-.065-.109-.14-.162-.211-.039-.055-.082-.1-.119-.159-.05-.078-.092-.164-.139-.249-.032-.06-.068-.115-.1-.178-.043-.091-.076-.188-.113-.285-.026-.066-.055-.129-.078-.2-.033-.1-.056-.216-.083-.323-.018-.073-.039-.14-.055-.215-.024-.123-.04-.254-.055-.382-.01-.07-.025-.135-.031-.21-.02-.205-.031-.418-.031-.641l-.022-7.675-.557-.324.021,7.676a3.932,3.932,0,0,0,1.638,3.6l.558.324a2.361,2.361,0,0,1-.194-.135c-.052-.036-.107-.068-.157-.109S507.717,437.7,507.656,437.647Z" transform="translate(-499.924 -401.745)" fill="#41c0fd"/>
      <path id="Trazado_3641" data-name="Trazado 3641" d="M512.071,436.583c-.137.06-.272.117-.4.163a.114.114,0,0,0-.022.008c-.125.043-.245.073-.364.1l-.2.04c-.084.016-.17.031-.253.038a1.379,1.379,0,0,1-.143.017,2.2,2.2,0,0,1-.3.005.613.613,0,0,1-.079,0,2.715,2.715,0,0,1-.355-.043c-.026,0-.052-.014-.078-.018a2.321,2.321,0,0,1-.267-.075c-.027-.009-.056-.018-.084-.031a2.227,2.227,0,0,1-.6-.342,3.566,3.566,0,0,1-1.128-2.894l-.022-7.49-1.15.663.022,7.675c0,.222.01.436.031.641.006.075.02.14.031.21.015.128.032.259.055.382.016.075.038.141.055.215.027.107.05.219.084.323.023.07.053.132.078.2.037.1.07.2.113.285.029.063.065.118.1.178.047.085.089.17.139.249.038.057.08.1.119.158.053.072.1.147.162.211.043.048.093.089.139.135s.12.122.184.176.1.073.157.109c1.033.728,2.525.7,4.192-.257l3.283-1.9-2.057.079-.888.5C512.436,436.411,512.254,436.5,512.071,436.583Z" transform="translate(-500.021 -401.686)" fill="#c5f9ff"/>
    </g>
    <g id="Grupo_27663" data-name="Grupo 27663" transform="translate(480.162 390.983)" opacity="0.5" style="mix-blend-mode: overlay;isolation: isolate">
      <path id="Trazado_3642" data-name="Trazado 3642" d="M503.193,453.641c5.618,3.24,14.7,3.24,20.282,0s5.553-8.507-.065-11.748-14.7-3.244-20.285,0-5.55,8.5.068,11.75" transform="translate(-483.846 -398.144)" fill="#fcfdfd" opacity="0.8"/>
      <path id="Trazado_3643" data-name="Trazado 3643" d="M500.981,447.356c6.606,3.652,17.279,3.652,23.843,0s6.528-9.583-.076-13.235-17.281-3.655-23.848,0-6.524,9.579.08,13.236" transform="translate(-483.41 -396.95)" fill="#fcfdfd" opacity="0.667"/>
      <path id="Trazado_3644" data-name="Trazado 3644" d="M498.768,441.071c7.595,4.063,19.861,4.063,27.407,0s7.5-10.659-.088-14.721-19.862-4.065-27.409,0-7.5,10.655.09,14.722" transform="translate(-482.973 -395.756)" fill="#fcfdfd" opacity="0.533"/>
      <path id="Trazado_3645" data-name="Trazado 3645" d="M496.557,434.787c8.582,4.473,22.445,4.473,30.969,0s8.478-11.736-.1-16.209-22.444-4.476-30.97,0-8.476,11.732.1,16.21" transform="translate(-482.536 -394.563)" fill="#fcfdfd" opacity="0.4"/>
      <path id="Trazado_3646" data-name="Trazado 3646" d="M494.345,428.5c9.568,4.884,25.027,4.884,34.531,0s9.454-12.811-.112-17.7-25.026-4.887-34.533,0-9.451,12.808.113,17.7" transform="translate(-482.1 -393.369)" fill="#fcfdfd" opacity="0.267"/>
      <path id="Trazado_3647" data-name="Trazado 3647" d="M492.132,422.217c10.557,5.294,27.61,5.294,38.094,0s10.428-13.889-.124-19.182-27.608-5.3-38.094,0-10.426,13.884.124,19.182" transform="translate(-481.663 -392.176)" fill="#fcfdfd" opacity="0.133"/>
      <path id="Trazado_3648" data-name="Trazado 3648" d="M489.92,415.933c11.545,5.7,30.192,5.7,41.657,0s11.4-14.965-.135-20.669-30.189-5.709-41.656,0-11.4,14.96.135,20.669" transform="translate(-481.227 -390.982)" fill="#fcfdfd" opacity="0"/>
    </g>
    <g id="Grupo_27679" data-name="Grupo 27679" transform="translate(523.958 396.504)">
      <g id="Grupo_27664" data-name="Grupo 27664" transform="translate(0 5.944)">
        <path id="Trazado_3649" data-name="Trazado 3649" d="M542.119,406.375c.131-.566-.178-2.384-1.721-.851A26,26,0,0,0,537,410.9l-2.6-2.442a4.489,4.489,0,0,0-1.088-2.2c-.843-.786-1.013,1.333-.029,2.439s3.128,5.571,4.245,4.18S541.645,408.374,542.119,406.375Z" transform="translate(-532.615 -404.507)" fill="#e8a476"/>
        <path id="Trazado_3650" data-name="Trazado 3650" d="M541.717,409.564a2.8,2.8,0,0,1-2.616-1.448s2.275-4.919,3.984-3.384C543.085,404.732,544.383,405.648,541.717,409.564Z" transform="translate(-533.573 -404.435)" fill="#5fb9e6"/>
      </g>
      <g id="Grupo_27665" data-name="Grupo 27665" transform="translate(2.019 33.322)" opacity="0.1">
        <path id="Trazado_3651" data-name="Trazado 3651" d="M537.7,438.118c-3.608,2.087-3.63,5.464-.043,7.549a14.358,14.358,0,0,0,13.029,0c3.609-2.086,3.63-5.462.041-7.543A14.358,14.358,0,0,0,537.7,438.118Z" transform="translate(-534.984 -436.559)"/>
      </g>
      <path id="Trazado_3652" data-name="Trazado 3652" d="M541.191,438.983c-.112-.018-.146-.122-.32-.188-.022.226-.217.535-.245.752l-.041.061c-.6.92-2.219,1.806-1.992,2.417.155.436,1.179.672,1.7.3a1.23,1.23,0,0,0,.326-.395.977.977,0,0,1,.65-.536.82.82,0,0,0,.418-.292c.5-.822.007-1.173.172-2C541.623,439.063,541.4,439.016,541.191,438.983Z" transform="translate(-533.495 -403.567)" fill="#171716"/>
      <path id="Trazado_3653" data-name="Trazado 3653" d="M543.064,413.7a26.649,26.649,0,0,0-2.05,12.919s-.426,6.895-.84,8.705c-.211.921,1.653,1.251,2.119.476a20.928,20.928,0,0,1,.874-3.667,6.1,6.1,0,0,0,.108-4.572s4.4-8.662,3.119-11.274A13.885,13.885,0,0,1,543.064,413.7Z" transform="translate(-533.729 -399.86)" fill="#ea4bbd"/>
      <path id="Trazado_3654" data-name="Trazado 3654" d="M543.809,427.357a6.745,6.745,0,0,1-.16,4.815,30.766,30.766,0,0,0-1.058,3.9.639.639,0,0,1-.413.32c.886-2.68.7-8.99.7-8.99,1.147-2.621,1.988-9.407,2.263-11.859a10.7,10.7,0,0,0,1.551,1.016C547.973,419.173,543.809,427.357,543.809,427.357Z" transform="translate(-534.027 -400.132)" fill="#ff61cb"/>
      <path id="Trazado_3655" data-name="Trazado 3655" d="M551.595,441.872c-.118,0-.166-.1-.355-.141,0,.235-.173.583-.178.811a.279.279,0,0,1-.038.07c-.53,1.042-2.134,2.213-1.832,2.806.207.423,1.3.506,1.806.043a1.476,1.476,0,0,0,.3-.458,1.083,1.083,0,0,1,.618-.653.951.951,0,0,0,.41-.369c.445-.931-.114-1.21-.025-2.084C552.057,441.889,551.814,441.874,551.595,441.872Z" transform="translate(-535.058 -404.001)" fill="#171716"/>
      <path id="Trazado_3656" data-name="Trazado 3656" d="M543.369,418.092a52.3,52.3,0,0,0,4.032,12.934s1.646,6.02,2.086,7.833c.256,1.053,1.715.25,2.02-.212a24.1,24.1,0,0,1-.257-3.569,5.684,5.684,0,0,0-1.413-4.286s.579-10.4-1.491-12.2C548.345,418.594,544.6,419.354,543.369,418.092Z" transform="translate(-534.203 -400.509)" fill="#ea4bbd"/>
      <path id="Trazado_3657" data-name="Trazado 3657" d="M550.485,430.342c1.047.9,1.267,2.866,1.538,4.494a21.364,21.364,0,0,1,.112,3.811c-.035.2-.455.429-.586.52.152-2.5-2.093-8.926-2.093-8.926.073-3.43-1.223-8.994-1.84-11.441a3.061,3.061,0,0,0,1.555-.708C551.24,419.886,550.485,430.342,550.485,430.342Z" transform="translate(-534.831 -400.509)" fill="#ff61cb"/>
      <g id="Grupo_27667" data-name="Grupo 27667" transform="translate(6.872 5.943)">
        <g id="Grupo_27666" data-name="Grupo 27666">
          <path id="Trazado_3658" data-name="Trazado 3658" d="M549.3,407.387s-1.434-2.322-6.88-2.94c0,0-.874-.335-.712,2.471a3.134,3.134,0,0,1-.649,1.481c-.276.376-.989,1.8.71,3.438,0,0,.35,3.234-.364,4.872-.643,1.467,2.908,2.028,4.837,1.7.372-.064,2.985-1.038,2.622-2.332s-1.474-2.888-.935-5.307S549.748,408.6,549.3,407.387Z" transform="translate(-540.678 -404.434)" fill="#77d2ff"/>
        </g>
      </g>
      <g id="Grupo_27668" data-name="Grupo 27668" transform="translate(11.806 7.525)">
        <path id="Trazado_3659" data-name="Trazado 3659" d="M550.16,407.661c.443,1.21-.828.963-1.37,3.38s.574,4.014.935,5.307a1.45,1.45,0,0,1-.958,1.988,4.507,4.507,0,0,1-1.664.344c1-2.362-.49-6.555-.628-8.886a3.763,3.763,0,0,1,2.069-3.5A4.821,4.821,0,0,1,550.16,407.661Z" transform="translate(-546.467 -406.29)" fill="#5fb9e6"/>
      </g>
      <g id="Grupo_27669" data-name="Grupo 27669" transform="translate(7.536 7.979)">
        <path id="Trazado_3660" data-name="Trazado 3660" d="M549.3,408.214c-.209-.544-1.483-1.875-1.9.258a26.034,26.034,0,0,0,.2,6.356l-3.522-.566a4.488,4.488,0,0,0-2.133-1.211c-1.138-.178-.092,1.672,1.343,2.037s5.712,2.861,5.859,1.083S550.023,410.134,549.3,408.214Z" transform="translate(-541.457 -406.893)" fill="#e8a476"/>
        <path id="Trazado_3661" data-name="Trazado 3661" d="M550.931,411.606a2.8,2.8,0,0,1-2.979.267s-.87-5.35,1.405-5.037C549.358,406.836,550.946,406.868,550.931,411.606Z" transform="translate(-542.393 -406.822)" fill="#77d2ff"/>
      </g>
      <g id="Grupo_27678" data-name="Grupo 27678" transform="translate(7.925)">
        <g id="Grupo_27670" data-name="Grupo 27670">
          <path id="Trazado_3662" data-name="Trazado 3662" d="M543.45,399.036s.436,2.8.684,5.462a.892.892,0,0,1-1.073.91s-2.122-3.108-.592-6.3a3.021,3.021,0,0,1,4.461-1.065Z" transform="translate(-541.914 -397.461)" fill="#301806"/>
        </g>
        <g id="Grupo_27673" data-name="Grupo 27673" transform="translate(1.068 3.601)">
          <g id="Grupo_27671" data-name="Grupo 27671">
            <path id="Trazado_3663" data-name="Trazado 3663" d="M543.167,403.353a2.6,2.6,0,0,1,.591,2.341c-.112.337-.373,1.725,1.692,1.093,0,0,2.137-1.166,1.462-1.8-.445-.423-.887-1.041-.324-3.3Z" transform="translate(-543.167 -401.686)" fill="#e8a476"/>
          </g>
          <g id="Grupo_27672" data-name="Grupo 27672" transform="translate(0.468 0.249)">
            <path id="Trazado_3664" data-name="Trazado 3664" d="M546.992,405.031a.335.335,0,0,1,.117.213,3.906,3.906,0,0,1-3.393-.892l2.508-2.374h0s.135.081.337.225C546.171,404.081,546.578,404.641,546.992,405.031Z" transform="translate(-543.716 -401.978)" fill="#db9669"/>
          </g>
        </g>
        <g id="Grupo_27674" data-name="Grupo 27674" transform="translate(0.391 0.904)">
          <path id="Trazado_3665" data-name="Trazado 3665" d="M543.267,398.9s-.556.213-.522,1.878c.005.182-.282.436-.347.9s-.1,2.321.979,2.483a3.309,3.309,0,0,0,3.27-2.325C547.231,399.945,545.56,397.591,543.267,398.9Z" transform="translate(-542.373 -398.522)" fill="#f1b287"/>
        </g>
        <g id="Grupo_27675" data-name="Grupo 27675" transform="translate(1.412 0.135)">
          <path id="Trazado_3666" data-name="Trazado 3666" d="M543.57,399.436s4.824,1.6,1.431,7.855a3.811,3.811,0,0,0,3.539-2.012c.5-1.046.226-3.119.01-5.1,0,0-.649-3.034-3.186-2.5C545.364,397.683,543.694,398.381,543.57,399.436Z" transform="translate(-543.57 -397.62)" fill="#231202"/>
        </g>
        <g id="Grupo_27676" data-name="Grupo 27676" transform="translate(0.212 0.004)">
          <path id="Trazado_3667" data-name="Trazado 3667" d="M543.362,399.413s-.84-.135-1.2,1.414c0,0,0-4.342,4.151-3.157C546.313,397.67,543.868,397.865,543.362,399.413Z" transform="translate(-542.162 -397.465)" fill="#301806"/>
        </g>
        <g id="Grupo_27677" data-name="Grupo 27677" transform="translate(3.482 3.85)">
          <path id="Trazado_3668" data-name="Trazado 3668" d="M546.242,402.691s.267-.928.806-.665c.17.082.357.272.12.751s-.751.929-1.169.891Z" transform="translate(-545.999 -401.979)" fill="#f1b287"/>
        </g>
      </g>
    </g>
  </g>
</svg>
