<svg xmlns="http://www.w3.org/2000/svg" xmlns:xlink="http://www.w3.org/1999/xlink" width="117.641" height="76.468" viewBox="0 0 117.641 76.468">
  <defs>
    <linearGradient id="linear-gradient" y1="0.5" x2="1" y2="0.5" gradientUnits="objectBoundingBox">
      <stop offset="0" stop-color="#4845e8"/>
      <stop offset="0.263" stop-color="#4036c8"/>
      <stop offset="0.55" stop-color="#3a29ae"/>
      <stop offset="0.805" stop-color="#36219d"/>
      <stop offset="1" stop-color="#351f98"/>
    </linearGradient>
    <linearGradient id="linear-gradient-2" y1="0.5" x2="1" y2="0.5" gradientUnits="objectBoundingBox">
      <stop offset="0" stop-color="#4845e8"/>
      <stop offset="0.395" stop-color="#4137cb"/>
      <stop offset="1" stop-color="#351f98"/>
    </linearGradient>
    <linearGradient id="linear-gradient-3" y1="0.5" x2="1" y2="0.5" gradientUnits="objectBoundingBox">
      <stop offset="0" stop-color="#e3d969"/>
      <stop offset="0.154" stop-color="#e4be70"/>
      <stop offset="0.404" stop-color="#e6997b"/>
      <stop offset="0.636" stop-color="#e77e83"/>
      <stop offset="0.842" stop-color="#e86d88"/>
      <stop offset="1" stop-color="#e9688a"/>
    </linearGradient>
  </defs>
  <g id="Grupo_27721" data-name="Grupo 27721" transform="translate(-408.221 -178.702)">
    <g id="Grupo_27721-2" data-name="Grupo 27721" opacity="0.2">
      <path id="Trazado_3783" data-name="Trazado 3783" d="M508.793,215.024c1.5.859,1.506,2.253.024,3.12l-2.946,1.725L451.219,251.85l-4.56,2.668a5.924,5.924,0,0,1-5.375.015l-31.936-18.31c-1.492-.856-1.5-2.25-.025-3.115l62.153-36.374a5.936,5.936,0,0,1,5.385-.019Z"/>
    </g>
    <g id="Grupo_27735" data-name="Grupo 27735">
      <g id="Grupo_27731" data-name="Grupo 27731">
        <path id="Trazado_3784" data-name="Trazado 3784" d="M504.251,211.768a1.374,1.374,0,0,1-.056.353.055.055,0,0,0-.011.036,1.552,1.552,0,0,1-.169.322.427.427,0,0,0-.035.052,2.133,2.133,0,0,1-.274.3c-.07.062-.159.119-.241.18s-.134.1-.214.149l-2.665,1.549-.011,4.483,2.663-1.548a.424.424,0,0,1,.044-.027c.061-.039.107-.081.164-.12a2.253,2.253,0,0,0,.246-.185.045.045,0,0,0,.022-.019,1.783,1.783,0,0,0,.216-.229.631.631,0,0,0,.037-.054c.013-.021.024-.035.034-.053a.9.9,0,0,0,.067-.1c.034-.063.066-.131.093-.2a.075.075,0,0,0,0-.03.091.091,0,0,0,.013-.034.592.592,0,0,0,.036-.128,1.528,1.528,0,0,0,.026-.2v-.029c0-1.3,0-2.606.009-3.907l0-.544Z" fill="#8fedff"/>
        <path id="Trazado_3785" data-name="Trazado 3785" d="M447.07,245.814a3.99,3.99,0,0,1-.679.3c-.081.03-.167.053-.256.081-.114.03-.227.058-.34.082-.14.028-.278.056-.423.075-.032,0-.065.011-.1.013-.192.02-.385.031-.581.033-.031,0-.055,0-.083,0a5.586,5.586,0,0,1-.578-.033l-.078-.009a4.891,4.891,0,0,1-.558-.1l-.093-.024a4.162,4.162,0,0,1-.483-.146c-.026-.009-.054-.017-.082-.025a4.255,4.255,0,0,1-.517-.25l-28.768-16.6a1.721,1.721,0,0,1-1.014-1.417l-.011,4.481a1.71,1.71,0,0,0,1.014,1.418l28.762,16.6a4.052,4.052,0,0,0,.5.236c.01.006.02.008.027.012.027.01.056.018.083.027.1.037.2.073.31.1.055.017.111.027.172.041a.7.7,0,0,0,.1.023c.029.008.059.018.09.024.111.023.225.043.339.058.039,0,.081.008.12.014s.06.006.09.012.081.008.122.011c.113.008.227.018.338.02h.35c.129,0,.255-.016.382-.029a.134.134,0,0,0,.045-.008c.03,0,.064-.008.1-.012.1-.01.2-.023.294-.039.045-.01.085-.023.126-.031.117-.026.232-.055.347-.086.057-.016.12-.025.18-.043a.347.347,0,0,1,.079-.033,4.4,4.4,0,0,0,.676-.3l4.117-2.4.014-4.478Z" fill="#8fedff"/>
        <g id="Grupo_27724" data-name="Grupo 27724">
          <g id="Grupo_27723" data-name="Grupo 27723">
            <g id="Grupo_27722" data-name="Grupo 27722">
              <path id="Trazado_3786" data-name="Trazado 3786" d="M503.238,210.354c1.345.775,1.351,2.034.013,2.81l-2.665,1.549L451.191,243.42l-4.121,2.394a5.335,5.335,0,0,1-4.849,0l-28.768-16.6c-1.346-.779-1.352-2.035-.015-2.812l56.18-32.649a5.356,5.356,0,0,1,4.859,0Z" fill="#c5f9ff"/>
            </g>
          </g>
        </g>
        <path id="Trazado_3787" data-name="Trazado 3787" d="M466.956,195.3,417.558,224l33.634,19.417,49.395-28.707Z" fill="url(#linear-gradient)"/>
        <g id="Grupo_27725" data-name="Grupo 27725">
          <path id="Trazado_3788" data-name="Trazado 3788" d="M492.061,206.337c.361.209.371.633-.158.908a1.284,1.284,0,0,1-1.19.135l-10.457-5.939c-.362-.208.1-.7.461-.907a1.428,1.428,0,0,1,1.295,0Z" fill="#65d2e0"/>
        </g>
        <g id="Grupo_27728" data-name="Grupo 27728">
          <g id="Grupo_27727" data-name="Grupo 27727">
            <g id="Grupo_27726" data-name="Grupo 27726">
              <path id="Trazado_3789" data-name="Trazado 3789" d="M491.746,206.608a.4.4,0,0,1,.009.751,1.44,1.44,0,0,1-1.3,0l-10.055-5.8a.4.4,0,0,1,0-.753,1.433,1.433,0,0,1,1.3,0Z" fill="#8fedff"/>
            </g>
          </g>
        </g>
        <g id="Grupo_27730" data-name="Grupo 27730">
          <g id="Grupo_27729" data-name="Grupo 27729">
            <path id="Trazado_3790" data-name="Trazado 3790" d="M500.586,214.713l-.011,4.483-49.4,28.7.015-4.479Z" fill="url(#linear-gradient-2)"/>
          </g>
        </g>
      </g>
      <g id="Grupo_27734" data-name="Grupo 27734">
        <g id="Grupo_27733" data-name="Grupo 27733">
          <g id="Grupo_27732" data-name="Grupo 27732">
            <path id="Trazado_3791" data-name="Trazado 3791" d="M433.246,234.263a1.344,1.344,0,0,1,.017,2.541,4.844,4.844,0,0,1-4.379,0c-1.215-.7-1.227-1.838-.022-2.539A4.839,4.839,0,0,1,433.246,234.263Z" fill="#8fedff"/>
          </g>
        </g>
      </g>
    </g>
    <g id="Grupo_27758" data-name="Grupo 27758">
      <g id="Grupo_27736" data-name="Grupo 27736" opacity="0.1">
        <path id="Trazado_3792" data-name="Trazado 3792" d="M461.379,218.795c1.5.865,1.509,2.269.018,3.135l-1.753,1.018a5.961,5.961,0,0,1-5.413,0l-21.079-12.17c-1.5-.866-1.509-2.268-.018-3.135l1.753-1.018a5.956,5.956,0,0,1,5.412,0Z"/>
      </g>
      <g id="Grupo_27737" data-name="Grupo 27737" opacity="0.1">
        <path id="Trazado_3793" data-name="Trazado 3793" d="M471.153,223.11c1.988,1.149,2,3.007.024,4.155a7.9,7.9,0,0,1-7.17,0c-1.988-1.147-2-3.006-.026-4.155A7.911,7.911,0,0,1,471.153,223.11Z"/>
      </g>
      <path id="Trazado_3794" data-name="Trazado 3794" d="M462.995,217.939c-.005.013-.008.028-.013.042a1.675,1.675,0,0,1-.181.355c-.014.021-.028.043-.043.063a2.28,2.28,0,0,1-.3.334,16.059,16.059,0,0,1-.507.369L460.2,220.12a4.3,4.3,0,0,1-.755.332c-.093.031-.189.061-.286.088-.127.034-.254.067-.385.1-.154.032-.31.061-.469.08-.034.006-.072.013-.109.016a6.327,6.327,0,0,1-.647.036c-.033,0-.065,0-.1,0a5.908,5.908,0,0,1-.639-.036c-.031,0-.063-.006-.093-.01-.209-.025-.416-.061-.618-.106-.036-.008-.07-.016-.106-.026a4.79,4.79,0,0,1-.537-.164c-.03-.01-.061-.019-.087-.029a4.089,4.089,0,0,1-.586-.276L433.7,207.95a1.917,1.917,0,0,1-1.13-1.579l-.005,1.561a1.918,1.918,0,0,0,1.13,1.578l21.08,12.171a4.143,4.143,0,0,0,.553.264l.029.01c.033.013.069.023.1.034.108.04.219.08.334.114.061.016.125.03.188.045.037.009.074.02.112.028s.065.017.1.023c.123.028.251.048.379.067.045.007.092.01.139.015.03,0,.058.008.09.01s.093.013.143.017c.126.01.252.017.376.019.04,0,.079,0,.117,0h.276c.142-.005.284-.014.426-.028l.045-.008c.039,0,.077-.011.115-.015.11-.013.221-.027.328-.045.045-.008.088-.026.136-.035.129-.027.256-.059.382-.094.069-.02.14-.031.2-.051.031-.012.057-.028.085-.038a4.306,4.306,0,0,0,.755-.331l1.751-1.019.049-.027c.073-.046.128-.1.2-.146a2.878,2.878,0,0,0,.262-.195c.008-.007.019-.012.027-.019a2.143,2.143,0,0,0,.236-.255.605.605,0,0,0,.039-.059c.018-.021.03-.045.047-.067s.048-.068.068-.1a1.6,1.6,0,0,0,.1-.217c0-.01,0-.021.007-.032s.008-.03.013-.045a1.318,1.318,0,0,0,.04-.138,1.364,1.364,0,0,0,.027-.22v-.033c0-.521,0-1.041,0-1.561A1.354,1.354,0,0,1,462.995,217.939Z" fill="#d66767"/>
      <g id="Grupo_27738" data-name="Grupo 27738">
        <path id="Trazado_3795" data-name="Trazado 3795" d="M461.932,215.968c1.5.863,1.506,2.267.016,3.134L460.2,220.12a5.969,5.969,0,0,1-5.414,0L433.7,207.95c-1.5-.866-1.508-2.269-.017-3.135l1.753-1.018a5.956,5.956,0,0,1,5.412,0Z" fill="url(#linear-gradient-3)"/>
      </g>
      <g id="Grupo_27754" data-name="Grupo 27754">
        <g id="Grupo_27739" data-name="Grupo 27739">
          <path id="Trazado_3796" data-name="Trazado 3796" d="M457.945,214.54a.278.278,0,0,1,0,.526l-3.87,2.248a1,1,0,0,1-.908,0,.279.279,0,0,1,0-.527l3.869-2.247A1,1,0,0,1,457.945,214.54Z" fill="#842c22"/>
        </g>
        <g id="Grupo_27740" data-name="Grupo 27740">
          <path id="Trazado_3797" data-name="Trazado 3797" d="M453.467,215.34c.239.139.244.365.006.5l-.99.575a.959.959,0,0,1-.868,0,.265.265,0,0,1,0-.5l.989-.575A.955.955,0,0,1,453.467,215.34Z" fill="#842c22"/>
        </g>
        <g id="Grupo_27741" data-name="Grupo 27741">
          <path id="Trazado_3798" data-name="Trazado 3798" d="M452.965,213.906c.24.139.242.364,0,.5l-1.978,1.15a.962.962,0,0,1-.865,0,.266.266,0,0,1-.005-.5L452.1,213.9A.959.959,0,0,1,452.965,213.906Z" fill="#842c22"/>
        </g>
        <g id="Grupo_27742" data-name="Grupo 27742">
          <path id="Trazado_3799" data-name="Trazado 3799" d="M453.17,212c.229.134.231.347,0,.48l-3.786,2.2a.908.908,0,0,1-.826,0,.253.253,0,0,1,0-.478l3.785-2.2A.907.907,0,0,1,453.17,212Z" fill="#842c22"/>
        </g>
        <g id="Grupo_27743" data-name="Grupo 27743">
          <path id="Trazado_3800" data-name="Trazado 3800" d="M448.365,212.99a.24.24,0,0,1,0,.455l-.534.311a.866.866,0,0,1-.784,0c-.218-.127-.22-.329,0-.455l.534-.311A.869.869,0,0,1,448.365,212.99Z" fill="#842c22"/>
        </g>
        <g id="Grupo_27744" data-name="Grupo 27744">
          <path id="Trazado_3801" data-name="Trazado 3801" d="M448.192,211.364a.239.239,0,0,1,0,.452L446.34,212.9a.86.86,0,0,1-.781,0,.239.239,0,0,1,0-.452l1.855-1.079A.858.858,0,0,1,448.192,211.364Z" fill="#842c22"/>
        </g>
        <g id="Grupo_27750" data-name="Grupo 27750" style="isolation: isolate">
          <g id="Grupo_27745" data-name="Grupo 27745">
            <path id="Trazado_3802" data-name="Trazado 3802" d="M441.324,204.871a.3.3,0,0,1,0,.575L437.5,207.67a1.093,1.093,0,0,1-.99,0,.3.3,0,0,1,0-.575l3.825-2.224A1.1,1.1,0,0,1,441.324,204.871Z" fill="#842c22"/>
          </g>
          <g id="Grupo_27746" data-name="Grupo 27746">
            <path id="Trazado_3803" data-name="Trazado 3803" d="M441.781,206.426c.278.159.28.415.007.575l-2.715,1.578a1.093,1.093,0,0,1-.993,0,.3.3,0,0,1,0-.573l2.717-1.578A1.086,1.086,0,0,1,441.781,206.426Z" fill="#842c22"/>
          </g>
          <g id="Grupo_27747" data-name="Grupo 27747">
            <path id="Trazado_3804" data-name="Trazado 3804" d="M444.346,206.665a.3.3,0,0,1,0,.573l-3.827,2.224a1.088,1.088,0,0,1-.989,0,.3.3,0,0,1,0-.573l3.825-2.224A1.1,1.1,0,0,1,444.346,206.665Z" fill="#842c22"/>
          </g>
          <g id="Grupo_27748" data-name="Grupo 27748">
            <path id="Trazado_3805" data-name="Trazado 3805" d="M443.8,208.59c.239.139.244.363.006.5l-1.978,1.148a.959.959,0,0,1-.868,0,.264.264,0,0,1,0-.5l1.976-1.148A.951.951,0,0,1,443.8,208.59Z" fill="#842c22"/>
          </g>
          <g id="Grupo_27749" data-name="Grupo 27749">
            <path id="Trazado_3806" data-name="Trazado 3806" d="M448.776,209.224c.252.146.254.382.006.525L444.913,212a1,1,0,0,1-.909,0,.278.278,0,0,1,0-.526l3.868-2.248A1,1,0,0,1,448.776,209.224Z" fill="#842c22"/>
          </g>
        </g>
        <g id="Grupo_27751" data-name="Grupo 27751">
          <path id="Trazado_3807" data-name="Trazado 3807" d="M444.3,210.024a.266.266,0,0,1,0,.5l-.987.574a.955.955,0,0,1-.865,0c-.24-.139-.244-.364-.007-.5l.988-.574A.965.965,0,0,1,444.3,210.024Z" fill="#842c22"/>
        </g>
        <g id="Grupo_27752" data-name="Grupo 27752">
          <path id="Trazado_3808" data-name="Trazado 3808" d="M457.531,218.3a.24.24,0,0,1,0,.454l-.534.312a.868.868,0,0,1-.785,0,.24.24,0,0,1,0-.455l.535-.311A.869.869,0,0,1,457.531,218.3Z" fill="#842c22"/>
        </g>
        <g id="Grupo_27753" data-name="Grupo 27753">
          <path id="Trazado_3809" data-name="Trazado 3809" d="M457.358,216.682a.238.238,0,0,1,0,.451l-1.857,1.08a.863.863,0,0,1-.778,0c-.217-.126-.219-.328,0-.453l1.857-1.078A.856.856,0,0,1,457.358,216.682Z" fill="#842c22"/>
        </g>
      </g>
      <g id="Grupo_27757" data-name="Grupo 27757">
        <path id="Trazado_3810" data-name="Trazado 3810" d="M472.639,222.412c-.006.054-.01.108-.019.161s-.021.086-.033.13a1.381,1.381,0,0,1-.044.152c-.014.042-.034.083-.052.124s-.046.1-.074.157c-.02.038-.044.076-.068.115-.038.058-.076.116-.118.173-.026.035-.055.069-.083.1a2.514,2.514,0,0,1-.213.229c-.028.028-.055.058-.087.085-.046.042-.1.083-.15.124s-.1.079-.148.117-.114.077-.171.115-.131.087-.2.129a5.37,5.37,0,0,1-.709.336c-.065.027-.128.051-.195.074-.153.056-.317.1-.48.147s-.33.09-.5.125c-.2.042-.413.081-.623.107-.049.007-.1.015-.148.021-.28.03-.567.045-.853.047-.044,0-.09,0-.135,0-.282,0-.56-.018-.84-.047-.042,0-.086-.009-.128-.015a7.746,7.746,0,0,1-.813-.139l-.148-.036c-.24-.06-.475-.132-.705-.214-.038-.015-.082-.027-.123-.042a5.4,5.4,0,0,1-.77-.365,2.536,2.536,0,0,1-1.5-2.091q0,.78,0,1.56A2.538,2.538,0,0,0,464,225.889a5.55,5.55,0,0,0,.732.349.3.3,0,0,0,.042.014c.039.016.082.027.123.041.148.056.3.109.45.154.083.024.169.04.253.061l.145.036c.045.01.088.023.133.032q.246.052.5.087c.06.009.12.013.179.02l.132.014c.061.007.121.017.181.022.168.012.333.021.5.026.05,0,.1,0,.153,0h.141c.074,0,.15,0,.225,0,.188-.006.376-.017.561-.037.022,0,.043-.007.064-.009.05-.005.1-.013.152-.021.144-.019.289-.034.432-.061.062-.01.12-.032.183-.045.173-.036.341-.078.508-.126.088-.025.183-.039.268-.067s.136-.053.207-.078l.2-.073a5.76,5.76,0,0,0,.707-.336l.062-.038c.046-.029.086-.057.13-.087.063-.04.126-.08.184-.122s.1-.077.146-.115.1-.083.15-.125l.034-.027c.019-.019.035-.04.054-.06a2.581,2.581,0,0,0,.21-.225c.016-.018.035-.034.049-.052s.023-.037.036-.055c.042-.057.081-.114.118-.171.014-.026.036-.052.049-.077a.383.383,0,0,0,.02-.041c.026-.048.047-.1.069-.149.016-.033.035-.065.048-.1,0-.011.005-.023.009-.035.017-.047.029-.1.041-.143s.023-.072.031-.107a.223.223,0,0,1,0-.028c.009-.054.014-.107.018-.16,0-.034.011-.069.013-.1v-.044l0-1.56C472.65,222.315,472.643,222.363,472.639,222.412Z" fill="#d66767"/>
        <g id="Grupo_27755" data-name="Grupo 27755">
          <path id="Trazado_3811" data-name="Trazado 3811" d="M471.153,220.173c1.988,1.148,2,3.008.024,4.154a7.894,7.894,0,0,1-7.17,0c-1.988-1.146-2-3.006-.026-4.154A7.91,7.91,0,0,1,471.153,220.173Z" fill="url(#linear-gradient-3)"/>
        </g>
        <g id="Grupo_27756" data-name="Grupo 27756">
          <path id="Trazado_3812" data-name="Trazado 3812" d="M467.963,220.593l1.773,2.892-5-1.017Z" fill="#993328"/>
        </g>
      </g>
    </g>
    <g id="Grupo_27781" data-name="Grupo 27781">
      <g id="Grupo_27759" data-name="Grupo 27759" opacity="0.1">
        <path id="Trazado_3813" data-name="Trazado 3813" d="M496.233,223.059c1.5.863,1.509,2.267.018,3.134l-1.754,1.019a5.96,5.96,0,0,1-5.411,0l-21.08-12.171c-1.5-.866-1.508-2.268-.017-3.135l1.752-1.018a5.964,5.964,0,0,1,5.413,0Z"/>
      </g>
      <g id="Grupo_27760" data-name="Grupo 27760" opacity="0.1">
        <path id="Trazado_3814" data-name="Trazado 3814" d="M466.84,205.746c1.985,1.148,2,3.007.022,4.154a7.9,7.9,0,0,1-7.171,0c-1.985-1.146-2-3.006-.021-4.154A7.906,7.906,0,0,1,466.84,205.746Z"/>
      </g>
      <g id="Grupo_27780" data-name="Grupo 27780">
        <path id="Trazado_3815" data-name="Trazado 3815" d="M468.324,205.047a1.456,1.456,0,0,1-.018.162c-.008.043-.021.087-.033.13s-.026.1-.043.151-.034.083-.052.125-.046.1-.075.156-.046.077-.069.115c-.036.058-.073.117-.117.175-.026.034-.054.069-.082.1-.065.077-.138.154-.214.229-.028.028-.055.057-.087.085s-.1.083-.149.124-.1.079-.148.116-.115.078-.173.115-.129.088-.2.13a5.259,5.259,0,0,1-.709.336c-.062.026-.128.051-.192.073-.156.058-.321.1-.483.148s-.33.089-.5.125c-.206.042-.412.081-.624.107-.048.007-.1.015-.147.021-.282.029-.567.044-.852.047h-.135q-.425,0-.842-.047c-.043,0-.085-.008-.128-.014a7.716,7.716,0,0,1-.811-.14c-.051-.011-.1-.023-.146-.035a6.794,6.794,0,0,1-.7-.214c-.042-.015-.085-.027-.124-.042a5.407,5.407,0,0,1-.775-.365,2.536,2.536,0,0,1-1.5-2.091q0,.78,0,1.56a2.533,2.533,0,0,0,1.5,2.091,5.419,5.419,0,0,0,.731.351l.041.014c.04.015.083.027.122.041.149.054.3.109.453.153.082.024.168.041.252.062.05.011.1.025.147.036s.085.023.129.031c.165.035.334.064.5.088.06.009.12.013.18.02l.134.014c.059.007.12.017.181.021.166.014.333.023.5.027.051,0,.1,0,.154,0h.138c.076,0,.151,0,.226,0,.188-.006.377-.019.563-.037.02,0,.042-.007.063-.009.051-.005.1-.015.151-.02.144-.02.289-.036.432-.061.064-.012.121-.033.184-.046.173-.036.34-.079.507-.127.089-.024.183-.038.268-.066s.139-.053.207-.078l.2-.075a5.319,5.319,0,0,0,.709-.336c.021-.011.041-.024.061-.037.047-.028.086-.057.131-.086.06-.041.126-.081.18-.122s.1-.077.149-.115.1-.082.149-.125a.32.32,0,0,0,.033-.027.777.777,0,0,0,.056-.06,2.734,2.734,0,0,0,.21-.225c.015-.018.035-.035.049-.053s.023-.036.037-.054c.043-.056.079-.114.116-.172.015-.026.036-.051.051-.077s.012-.027.02-.04c.026-.049.047-.1.069-.149.015-.033.035-.066.047-.1a.23.23,0,0,0,.009-.035,1.42,1.42,0,0,0,.041-.145c.009-.036.024-.07.031-.1,0-.01,0-.019,0-.027.01-.054.013-.108.019-.162,0-.034.01-.068.011-.1v-.044l.005-1.561A1.431,1.431,0,0,1,468.324,205.047Z" fill="#d66767"/>
        <g id="Grupo_27761" data-name="Grupo 27761">
          <path id="Trazado_3816" data-name="Trazado 3816" d="M466.84,202.81c1.985,1.147,2,3.006.022,4.153a7.9,7.9,0,0,1-7.171,0c-1.985-1.147-2-3.006-.021-4.153A7.894,7.894,0,0,1,466.84,202.81Z" fill="url(#linear-gradient-3)"/>
        </g>
        <path id="Trazado_3817" data-name="Trazado 3817" d="M497.3,221.751c0,.014-.007.028-.012.043a1.6,1.6,0,0,1-.184.355.406.406,0,0,1-.042.063,2.175,2.175,0,0,1-.3.336,3.018,3.018,0,0,1-.271.2,2.712,2.712,0,0,1-.235.168l-1.754,1.019a4.365,4.365,0,0,1-.753.332c-.093.031-.189.06-.287.088-.125.034-.252.067-.384.094-.155.033-.31.062-.47.08-.036.005-.071.012-.108.016q-.322.033-.648.035c-.033,0-.065,0-.1,0-.213,0-.426-.013-.637-.034l-.094-.012a5.46,5.46,0,0,1-.618-.105c-.035-.007-.071-.017-.1-.026a5.022,5.022,0,0,1-.538-.164c-.028-.01-.06-.018-.086-.029a3.932,3.932,0,0,1-.585-.275l-21.08-12.17a1.917,1.917,0,0,1-1.132-1.579l0,1.56a1.911,1.911,0,0,0,1.13,1.577l21.08,12.172a4.213,4.213,0,0,0,.553.265l.029.009c.031.012.067.023.1.035.109.039.219.08.334.113.061.016.126.029.189.045.037.01.073.02.111.027s.065.018.1.025c.125.026.253.048.381.067.045.005.091.009.136.015l.091.01c.048,0,.1.011.145.016.123.01.251.018.375.02.039,0,.079,0,.117,0h.277c.141-.005.284-.016.424-.029l.045-.007c.039,0,.077-.011.115-.016.112-.014.22-.026.328-.046.046-.008.088-.024.135-.033.132-.028.257-.061.385-.1.068-.019.138-.03.2-.052.031-.009.056-.027.086-.038a4.275,4.275,0,0,0,.752-.33l1.753-1.018c.016-.009.03-.019.047-.028.074-.046.13-.1.2-.146a2.528,2.528,0,0,0,.265-.2.14.14,0,0,0,.025-.017,2.345,2.345,0,0,0,.238-.256c.014-.019.025-.038.038-.059a.806.806,0,0,0,.047-.067c.021-.034.048-.067.069-.1a1.558,1.558,0,0,0,.1-.217c0-.011.006-.022.01-.033a.385.385,0,0,0,.014-.045c.014-.046.03-.092.04-.138a1.247,1.247,0,0,0,.023-.22c0-.012,0-.022,0-.034q0-.78,0-1.561A1.342,1.342,0,0,1,497.3,221.751Z" fill="#d66767"/>
        <g id="Grupo_27762" data-name="Grupo 27762">
          <path id="Trazado_3818" data-name="Trazado 3818" d="M496.233,219.78c1.5.865,1.509,2.268.018,3.135l-1.754,1.019a5.966,5.966,0,0,1-5.411,0l-21.08-12.17c-1.5-.866-1.508-2.27-.017-3.136l1.752-1.019a5.958,5.958,0,0,1,5.413,0Z" fill="url(#linear-gradient-3)"/>
        </g>
        <g id="Grupo_27778" data-name="Grupo 27778">
          <g id="Grupo_27763" data-name="Grupo 27763">
            <path id="Trazado_3819" data-name="Trazado 3819" d="M492.248,218.353a.279.279,0,0,1,0,.526l-3.869,2.249a1,1,0,0,1-.909,0,.278.278,0,0,1,0-.527l3.869-2.248A1,1,0,0,1,492.248,218.353Z" fill="#842c22"/>
          </g>
          <g id="Grupo_27764" data-name="Grupo 27764">
            <path id="Trazado_3820" data-name="Trazado 3820" d="M487.769,219.153c.241.139.246.365.007.5l-.99.575a.962.962,0,0,1-.868,0,.265.265,0,0,1,0-.5l.991-.575A.96.96,0,0,1,487.769,219.153Z" fill="#842c22"/>
          </g>
          <g id="Grupo_27765" data-name="Grupo 27765">
            <path id="Trazado_3821" data-name="Trazado 3821" d="M487.268,217.719a.265.265,0,0,1,0,.5l-1.976,1.15a.957.957,0,0,1-.866,0,.267.267,0,0,1,0-.5l1.974-1.148A.965.965,0,0,1,487.268,217.719Z" fill="#842c22"/>
          </g>
          <g id="Grupo_27766" data-name="Grupo 27766">
            <path id="Trazado_3822" data-name="Trazado 3822" d="M487.471,215.811c.231.133.232.346,0,.479l-3.785,2.2a.9.9,0,0,1-.826,0,.251.251,0,0,1,0-.475l3.784-2.2A.911.911,0,0,1,487.471,215.811Z" fill="#842c22"/>
          </g>
          <g id="Grupo_27767" data-name="Grupo 27767">
            <path id="Trazado_3823" data-name="Trazado 3823" d="M482.667,216.8a.24.24,0,0,1,0,.455l-.534.309a.868.868,0,0,1-.785,0,.239.239,0,0,1,0-.454l.534-.31A.858.858,0,0,1,482.667,216.8Z" fill="#842c22"/>
          </g>
          <g id="Grupo_27768" data-name="Grupo 27768">
            <path id="Trazado_3824" data-name="Trazado 3824" d="M482.495,215.177a.239.239,0,0,1,0,.452l-1.858,1.079a.858.858,0,0,1-.78,0,.239.239,0,0,1,0-.452l1.858-1.079A.86.86,0,0,1,482.495,215.177Z" fill="#842c22"/>
          </g>
          <g id="Grupo_27774" data-name="Grupo 27774" style="isolation: isolate">
            <g id="Grupo_27769" data-name="Grupo 27769">
              <path id="Trazado_3825" data-name="Trazado 3825" d="M475.625,208.685a.3.3,0,0,1,0,.574l-3.825,2.223a1.089,1.089,0,0,1-.991,0c-.275-.159-.277-.417-.006-.574l3.827-2.223A1.087,1.087,0,0,1,475.625,208.685Z" fill="#842c22"/>
            </g>
            <g id="Grupo_27770" data-name="Grupo 27770">
              <path id="Trazado_3826" data-name="Trazado 3826" d="M476.085,210.238c.275.16.279.416.006.576l-2.715,1.578a1.1,1.1,0,0,1-.993,0,.3.3,0,0,1,0-.574l2.716-1.578A1.09,1.09,0,0,1,476.085,210.238Z" fill="#842c22"/>
            </g>
            <g id="Grupo_27771" data-name="Grupo 27771">
              <path id="Trazado_3827" data-name="Trazado 3827" d="M478.647,210.479c.273.158.278.414,0,.573l-3.825,2.223a1.086,1.086,0,0,1-.991,0,.3.3,0,0,1,0-.573l3.823-2.223A1.086,1.086,0,0,1,478.647,210.479Z" fill="#842c22"/>
            </g>
            <g id="Grupo_27772" data-name="Grupo 27772">
              <path id="Trazado_3828" data-name="Trazado 3828" d="M478.1,212.4a.267.267,0,0,1,0,.5l-1.975,1.148a.961.961,0,0,1-.869,0,.264.264,0,0,1,0-.5l1.976-1.149A.958.958,0,0,1,478.1,212.4Z" fill="#842c22"/>
            </g>
            <g id="Grupo_27773" data-name="Grupo 27773">
              <path id="Trazado_3829" data-name="Trazado 3829" d="M483.08,213.036c.251.147.253.382.005.526l-3.869,2.249a1.006,1.006,0,0,1-.91,0,.279.279,0,0,1,0-.527l3.87-2.248A1,1,0,0,1,483.08,213.036Z" fill="#842c22"/>
            </g>
          </g>
          <g id="Grupo_27775" data-name="Grupo 27775">
            <path id="Trazado_3830" data-name="Trazado 3830" d="M478.607,213.838a.266.266,0,0,1,0,.5l-.987.573a.949.949,0,0,1-.865,0c-.24-.139-.243-.364-.006-.5l.986-.573A.964.964,0,0,1,478.607,213.838Z" fill="#842c22"/>
          </g>
          <g id="Grupo_27776" data-name="Grupo 27776">
            <path id="Trazado_3831" data-name="Trazado 3831" d="M491.832,222.118c.22.126.219.329,0,.453l-.534.313a.869.869,0,0,1-.785,0,.241.241,0,0,1,0-.455l.535-.311A.866.866,0,0,1,491.832,222.118Z" fill="#842c22"/>
          </g>
          <g id="Grupo_27777" data-name="Grupo 27777">
            <path id="Trazado_3832" data-name="Trazado 3832" d="M491.661,220.494a.238.238,0,0,1,0,.451l-1.857,1.08a.856.856,0,0,1-.779,0c-.217-.126-.218-.328,0-.452l1.859-1.079A.854.854,0,0,1,491.661,220.494Z" fill="#842c22"/>
          </g>
        </g>
        <g id="Grupo_27779" data-name="Grupo 27779">
          <path id="Trazado_3833" data-name="Trazado 3833" d="M463.649,203.229l1.773,2.893-5-1.018Z" fill="#993328"/>
        </g>
      </g>
    </g>
    <g id="Grupo_27804" data-name="Grupo 27804">
      <g id="Grupo_27782" data-name="Grupo 27782" opacity="0.1">
        <path id="Trazado_3834" data-name="Trazado 3834" d="M466.513,241.025c1.5.866,1.507,2.269.016,3.136l-1.752,1.019a5.968,5.968,0,0,1-5.412,0l-21.081-12.171c-1.5-.865-1.507-2.269-.016-3.134l1.751-1.019a5.96,5.96,0,0,1,5.414,0Z"/>
      </g>
      <g id="Grupo_27783" data-name="Grupo 27783" opacity="0.1">
        <path id="Trazado_3835" data-name="Trazado 3835" d="M437.119,223.714c1.987,1.147,2,3.008.024,4.154a7.9,7.9,0,0,1-7.171,0c-1.988-1.145-2-3.007-.024-4.154A7.908,7.908,0,0,1,437.119,223.714Z"/>
      </g>
      <g id="Grupo_27803" data-name="Grupo 27803">
        <path id="Trazado_3836" data-name="Trazado 3836" d="M438.6,223.016c0,.054-.008.107-.017.162s-.022.086-.033.129-.026.1-.044.152a1.316,1.316,0,0,1-.053.124c-.022.053-.044.1-.071.156s-.046.076-.072.117a1.991,1.991,0,0,1-.116.172c-.026.035-.055.07-.084.1a2.632,2.632,0,0,1-.212.228c-.029.03-.056.058-.087.086s-.1.082-.15.124-.1.079-.147.118-.115.076-.172.113-.131.089-.2.13a5.562,5.562,0,0,1-.708.337l-.2.073c-.155.057-.318.1-.481.147s-.331.09-.5.125c-.2.041-.411.08-.623.107-.049.006-.1.015-.144.02-.283.031-.568.045-.854.048H433.5c-.279,0-.562-.017-.84-.047l-.129-.013a8.2,8.2,0,0,1-.81-.14c-.05-.011-.1-.024-.149-.036a7.165,7.165,0,0,1-.7-.214c-.04-.016-.083-.026-.124-.043a5.646,5.646,0,0,1-.772-.364,2.536,2.536,0,0,1-1.5-2.091q0,.78-.005,1.56a2.539,2.539,0,0,0,1.5,2.091,5.56,5.56,0,0,0,.732.352l.042.013c.04.016.082.027.123.042.149.053.295.107.452.152.082.024.167.041.251.062.049.012.1.025.147.036s.086.022.13.032c.165.033.333.063.5.087.058.008.116.012.177.019l.133.016c.061.007.121.015.183.019.164.015.332.024.5.028.054,0,.1,0,.155,0h.139c.076,0,.151,0,.226,0,.189-.008.375-.019.562-.038.021,0,.041-.006.063-.009.051-.005.1-.014.151-.021.146-.018.291-.035.432-.06.064-.011.121-.032.183-.046.176-.035.343-.079.51-.127.089-.024.181-.038.267-.066s.138-.053.206-.079.133-.047.2-.075a5.368,5.368,0,0,0,.709-.335c.019-.011.042-.024.061-.037.046-.027.086-.056.13-.086.063-.04.125-.08.184-.122s.1-.077.144-.115.105-.082.152-.125a.293.293,0,0,1,.033-.026c.02-.02.036-.041.055-.06a2.2,2.2,0,0,0,.209-.227c.015-.017.035-.034.049-.052a.518.518,0,0,0,.037-.054c.042-.057.08-.114.116-.173.016-.025.037-.05.052-.075s.011-.027.019-.04c.025-.05.048-.1.07-.151.015-.032.033-.065.046-.1,0-.012.006-.025.01-.036a1.469,1.469,0,0,0,.041-.144c.01-.036.024-.071.032-.107v-.027a1.44,1.44,0,0,0,.019-.161c0-.034.011-.067.011-.1,0-.015,0-.03,0-.046l.005-1.559C438.617,222.917,438.608,222.967,438.6,223.016Z" fill="#d66767"/>
        <g id="Grupo_27784" data-name="Grupo 27784">
          <path id="Trazado_3837" data-name="Trazado 3837" d="M437.119,220.777c1.987,1.148,2,3.006.024,4.154a7.9,7.9,0,0,1-7.171,0c-1.988-1.148-2-3.006-.024-4.154A7.9,7.9,0,0,1,437.119,220.777Z" fill="url(#linear-gradient-3)"/>
        </g>
        <path id="Trazado_3838" data-name="Trazado 3838" d="M467.577,239.719a.322.322,0,0,0-.013.044,1.487,1.487,0,0,1-.182.354c-.013.021-.028.041-.04.064a2.415,2.415,0,0,1-.305.336c-.079.069-.178.132-.271.2s-.146.115-.237.168l-1.752,1.018a4.282,4.282,0,0,1-.753.333q-.141.047-.288.087c-.127.035-.254.068-.384.1-.154.031-.31.061-.467.081-.037.005-.074.011-.11.014a6.367,6.367,0,0,1-.649.037c-.031,0-.064,0-.1,0a6.172,6.172,0,0,1-.639-.035l-.093-.011a6.039,6.039,0,0,1-.616-.1l-.107-.026a4.746,4.746,0,0,1-.538-.165c-.03-.011-.059-.017-.088-.028a4.236,4.236,0,0,1-.584-.277l-21.081-12.17a1.916,1.916,0,0,1-1.129-1.579l0,1.56a1.913,1.913,0,0,0,1.13,1.579l21.078,12.17a4.3,4.3,0,0,0,.554.267.09.09,0,0,1,.028.008c.034.013.069.022.1.035.109.039.219.081.334.111.06.018.125.031.188.048.038.009.076.019.114.027s.063.017.1.024c.124.025.251.047.38.067.046.006.093.01.139.015.029,0,.059.007.09.009.048,0,.1.013.143.016.126.012.252.018.377.02.039,0,.077,0,.117,0h.1c.06,0,.116,0,.174,0,.141,0,.283-.012.424-.027l.047-.007c.039,0,.076-.011.116-.016.108-.013.217-.026.325-.046.049-.009.091-.024.136-.034.131-.027.257-.059.383-.1.068-.018.139-.028.2-.051.033-.009.056-.027.087-.036a4.337,4.337,0,0,0,.752-.332l1.753-1.017c.016-.011.032-.019.047-.028.075-.045.127-.1.2-.145a2.75,2.75,0,0,0,.262-.2c.008-.008.019-.01.028-.018a2.244,2.244,0,0,0,.236-.256c.015-.02.024-.04.04-.058s.028-.046.044-.068.049-.067.068-.1a1.4,1.4,0,0,0,.1-.218c0-.01.006-.023.009-.032s.007-.029.011-.044a.921.921,0,0,0,.04-.14,1.032,1.032,0,0,0,.026-.219v-.033c0-.521,0-1.04.006-1.561A1.338,1.338,0,0,1,467.577,239.719Z" fill="#d66767"/>
        <g id="Grupo_27785" data-name="Grupo 27785">
          <path id="Trazado_3839" data-name="Trazado 3839" d="M466.513,237.747c1.5.865,1.507,2.269.016,3.136l-1.752,1.018a5.956,5.956,0,0,1-5.412,0l-21.081-12.17c-1.5-.866-1.507-2.268-.016-3.134l1.751-1.019a5.96,5.96,0,0,1,5.414,0Z" fill="url(#linear-gradient-3)"/>
        </g>
        <g id="Grupo_27801" data-name="Grupo 27801">
          <g id="Grupo_27786" data-name="Grupo 27786">
            <path id="Trazado_3840" data-name="Trazado 3840" d="M462.527,236.319a.281.281,0,0,1,0,.529L458.66,239.1a1.012,1.012,0,0,1-.907,0,.279.279,0,0,1,0-.528l3.868-2.249A1.017,1.017,0,0,1,462.527,236.319Z" fill="#842c22"/>
          </g>
          <g id="Grupo_27787" data-name="Grupo 27787">
            <path id="Trazado_3841" data-name="Trazado 3841" d="M458.05,237.121a.267.267,0,0,1,.005.5l-.991.573a.941.941,0,0,1-.867,0,.264.264,0,0,1,0-.5l.989-.575A.951.951,0,0,1,458.05,237.121Z" fill="#842c22"/>
          </g>
          <g id="Grupo_27788" data-name="Grupo 27788">
            <path id="Trazado_3842" data-name="Trazado 3842" d="M457.546,235.688c.24.139.242.362,0,.5l-1.975,1.15a.966.966,0,0,1-.867,0c-.239-.14-.243-.366,0-.5l1.976-1.148A.953.953,0,0,1,457.546,235.688Z" fill="#842c22"/>
          </g>
          <g id="Grupo_27789" data-name="Grupo 27789">
            <path id="Trazado_3843" data-name="Trazado 3843" d="M457.751,233.779c.23.133.231.345,0,.478l-3.785,2.2a.9.9,0,0,1-.825,0,.251.251,0,0,1,0-.476l3.786-2.2A.9.9,0,0,1,457.751,233.779Z" fill="#842c22"/>
          </g>
          <g id="Grupo_27790" data-name="Grupo 27790">
            <path id="Trazado_3844" data-name="Trazado 3844" d="M452.947,234.772a.24.24,0,0,1,0,.455l-.533.31a.868.868,0,0,1-.785,0,.24.24,0,0,1,0-.455l.535-.31A.862.862,0,0,1,452.947,234.772Z" fill="#842c22"/>
          </g>
          <g id="Grupo_27791" data-name="Grupo 27791">
            <path id="Trazado_3845" data-name="Trazado 3845" d="M452.773,233.146a.238.238,0,0,1,0,.451l-1.855,1.079a.852.852,0,0,1-.78,0,.238.238,0,0,1,0-.451l1.855-1.079A.854.854,0,0,1,452.773,233.146Z" fill="#842c22"/>
          </g>
          <g id="Grupo_27797" data-name="Grupo 27797" style="isolation: isolate">
            <g id="Grupo_27792" data-name="Grupo 27792">
              <path id="Trazado_3846" data-name="Trazado 3846" d="M445.9,226.653a.3.3,0,0,1,0,.575l-3.825,2.223a1.1,1.1,0,0,1-.991,0c-.276-.16-.278-.418-.005-.575l3.826-2.223A1.089,1.089,0,0,1,445.9,226.653Z" fill="#842c22"/>
            </g>
            <g id="Grupo_27793" data-name="Grupo 27793">
              <path id="Trazado_3847" data-name="Trazado 3847" d="M446.365,228.207c.276.159.279.415.005.574l-2.716,1.579a1.1,1.1,0,0,1-.991,0,.3.3,0,0,1-.005-.573l2.716-1.578A1.092,1.092,0,0,1,446.365,228.207Z" fill="#842c22"/>
            </g>
            <g id="Grupo_27794" data-name="Grupo 27794">
              <path id="Trazado_3848" data-name="Trazado 3848" d="M448.927,228.446a.3.3,0,0,1,0,.575l-3.827,2.223a1.1,1.1,0,0,1-.99,0,.3.3,0,0,1,0-.573l3.827-2.225A1.093,1.093,0,0,1,448.927,228.446Z" fill="#842c22"/>
            </g>
            <g id="Grupo_27795" data-name="Grupo 27795">
              <path id="Trazado_3849" data-name="Trazado 3849" d="M448.381,230.37c.24.14.242.364,0,.5l-1.976,1.15a.963.963,0,0,1-.867,0,.264.264,0,0,1,0-.5l1.977-1.15A.957.957,0,0,1,448.381,230.37Z" fill="#842c22"/>
            </g>
            <g id="Grupo_27796" data-name="Grupo 27796">
              <path id="Trazado_3850" data-name="Trazado 3850" d="M453.359,231.005a.278.278,0,0,1,0,.525l-3.868,2.249a1,1,0,0,1-.909,0,.279.279,0,0,1,0-.527L452.452,231A1,1,0,0,1,453.359,231.005Z" fill="#842c22"/>
            </g>
          </g>
          <g id="Grupo_27798" data-name="Grupo 27798">
            <path id="Trazado_3851" data-name="Trazado 3851" d="M448.886,231.806a.266.266,0,0,1,0,.5l-.987.573a.953.953,0,0,1-.867,0,.266.266,0,0,1,0-.5l.988-.573A.958.958,0,0,1,448.886,231.806Z" fill="#842c22"/>
          </g>
          <g id="Grupo_27799" data-name="Grupo 27799">
            <path id="Trazado_3852" data-name="Trazado 3852" d="M462.113,240.085a.24.24,0,0,1,0,.455l-.535.313a.873.873,0,0,1-.784,0,.241.241,0,0,1,0-.455l.536-.313A.875.875,0,0,1,462.113,240.085Z" fill="#842c22"/>
          </g>
          <g id="Grupo_27800" data-name="Grupo 27800">
            <path id="Trazado_3853" data-name="Trazado 3853" d="M461.942,238.463a.237.237,0,0,1,0,.45l-1.855,1.079a.848.848,0,0,1-.778,0,.237.237,0,0,1,0-.45l1.856-1.079A.866.866,0,0,1,461.942,238.463Z" fill="#842c22"/>
          </g>
        </g>
        <g id="Grupo_27802" data-name="Grupo 27802">
          <path id="Trazado_3854" data-name="Trazado 3854" d="M433.928,221.2l1.774,2.893-5-1.017Z" fill="#993328"/>
        </g>
      </g>
    </g>
    <g id="Grupo_27811" data-name="Grupo 27811" style="mix-blend-mode: overlay;isolation: isolate">
      <path id="Trazado_3855" data-name="Trazado 3855" d="M461.93,215.968c1.5.863,1.506,2.267.016,3.134l-1.752,1.018a5.971,5.971,0,0,1-5.415,0L433.7,207.95c-1.5-.866-1.507-2.269-.015-3.135l1.751-1.018a5.958,5.958,0,0,1,5.413,0Z" fill="#fff" opacity="0.3"/>
      <g id="Grupo_27805" data-name="Grupo 27805" opacity="0.833">
        <path id="Trazado_3856" data-name="Trazado 3856" d="M461.93,213.486c1.5.864,1.506,2.268.016,3.134l-1.752,1.019a5.971,5.971,0,0,1-5.415,0L433.7,205.469c-1.5-.866-1.507-2.27-.015-3.135l1.751-1.019a5.958,5.958,0,0,1,5.413,0Z" fill="#fff" opacity="0.417"/>
      </g>
      <g id="Grupo_27806" data-name="Grupo 27806" opacity="0.667">
        <path id="Trazado_3857" data-name="Trazado 3857" d="M461.93,211.005c1.5.864,1.506,2.268.016,3.134l-1.752,1.019a5.971,5.971,0,0,1-5.415,0L433.7,202.987c-1.5-.866-1.507-2.269-.015-3.134l1.751-1.019a5.958,5.958,0,0,1,5.413,0Z" fill="#fff" opacity="0.533"/>
      </g>
      <g id="Grupo_27807" data-name="Grupo 27807" opacity="0.5">
        <path id="Trazado_3858" data-name="Trazado 3858" d="M461.93,208.523c1.5.864,1.506,2.269.016,3.135l-1.752,1.018a5.965,5.965,0,0,1-5.415,0L433.7,200.506c-1.5-.866-1.507-2.269-.015-3.135l1.751-1.018a5.958,5.958,0,0,1,5.413,0Z" fill="#fff" opacity="0.65"/>
      </g>
      <g id="Grupo_27808" data-name="Grupo 27808" opacity="0.333">
        <path id="Trazado_3859" data-name="Trazado 3859" d="M461.93,206.042c1.5.864,1.506,2.268.016,3.134l-1.752,1.019a5.971,5.971,0,0,1-5.415,0L433.7,198.024c-1.5-.866-1.507-2.269-.015-3.134l1.751-1.019a5.958,5.958,0,0,1,5.413,0Z" fill="#fff" opacity="0.767"/>
      </g>
      <g id="Grupo_27809" data-name="Grupo 27809" opacity="0.167">
        <path id="Trazado_3860" data-name="Trazado 3860" d="M461.93,203.561c1.5.864,1.506,2.268.016,3.134l-1.752,1.019a5.971,5.971,0,0,1-5.415,0L433.7,195.543c-1.5-.866-1.507-2.269-.015-3.135l1.751-1.018a5.958,5.958,0,0,1,5.413,0Z" fill="#fff" opacity="0.883"/>
      </g>
      <g id="Grupo_27810" data-name="Grupo 27810" opacity="0">
        <path id="Trazado_3861" data-name="Trazado 3861" d="M461.93,201.079c1.5.864,1.506,2.269.016,3.135l-1.752,1.018a5.965,5.965,0,0,1-5.415,0L433.7,193.062c-1.5-.867-1.507-2.269-.015-3.135l1.751-1.019a5.964,5.964,0,0,1,5.413,0Z" fill="#fff"/>
      </g>
    </g>
    <g id="Grupo_27818" data-name="Grupo 27818" style="mix-blend-mode: overlay;isolation: isolate">
      <path id="Trazado_3862" data-name="Trazado 3862" d="M466.513,237.6c1.5.864,1.507,2.268.016,3.135l-1.752,1.019a5.968,5.968,0,0,1-5.412,0l-21.081-12.172c-1.5-.865-1.507-2.269-.016-3.134l1.751-1.019a5.968,5.968,0,0,1,5.415,0Z" fill="#fff" opacity="0.3"/>
      <g id="Grupo_27812" data-name="Grupo 27812" opacity="0.833">
        <path id="Trazado_3863" data-name="Trazado 3863" d="M466.513,235.12c1.5.864,1.507,2.269.016,3.136l-1.752,1.018a5.962,5.962,0,0,1-5.412,0L438.284,227.1c-1.5-.866-1.507-2.269-.016-3.134l1.751-1.02a5.974,5.974,0,0,1,5.415,0Z" fill="#fff" opacity="0.417"/>
      </g>
      <g id="Grupo_27813" data-name="Grupo 27813" opacity="0.667">
        <path id="Trazado_3864" data-name="Trazado 3864" d="M466.513,232.639c1.5.864,1.507,2.268.016,3.135l-1.752,1.019a5.965,5.965,0,0,1-5.412,0l-21.081-12.171c-1.5-.866-1.507-2.269-.016-3.135l1.751-1.019a5.974,5.974,0,0,1,5.415,0Z" fill="#fff" opacity="0.533"/>
      </g>
      <g id="Grupo_27814" data-name="Grupo 27814" opacity="0.5">
        <path id="Trazado_3865" data-name="Trazado 3865" d="M466.513,230.157c1.5.865,1.507,2.269.016,3.136l-1.752,1.018a5.965,5.965,0,0,1-5.412,0l-21.081-12.17c-1.5-.867-1.507-2.269-.016-3.135l1.751-1.019a5.968,5.968,0,0,1,5.415,0Z" fill="#fff" opacity="0.65"/>
      </g>
      <g id="Grupo_27815" data-name="Grupo 27815" opacity="0.333">
        <path id="Trazado_3866" data-name="Trazado 3866" d="M466.513,227.676c1.5.864,1.507,2.268.016,3.135l-1.752,1.019a5.965,5.965,0,0,1-5.412,0l-21.081-12.17c-1.5-.867-1.507-2.27-.016-3.136l1.751-1.019a5.974,5.974,0,0,1,5.415,0Z" fill="#fff" opacity="0.767"/>
      </g>
      <g id="Grupo_27816" data-name="Grupo 27816" opacity="0.167">
        <path id="Trazado_3867" data-name="Trazado 3867" d="M466.513,225.194c1.5.865,1.507,2.269.016,3.135l-1.752,1.019a5.962,5.962,0,0,1-5.412,0l-21.081-12.17c-1.5-.866-1.507-2.269-.016-3.135l1.751-1.019a5.968,5.968,0,0,1,5.415,0Z" fill="#fff" opacity="0.883"/>
      </g>
      <g id="Grupo_27817" data-name="Grupo 27817" opacity="0">
        <path id="Trazado_3868" data-name="Trazado 3868" d="M466.513,222.713c1.5.864,1.507,2.268.016,3.135l-1.752,1.018a5.962,5.962,0,0,1-5.412,0L438.284,214.7c-1.5-.867-1.507-2.269-.016-3.135l1.751-1.019a5.968,5.968,0,0,1,5.415,0Z" fill="#fff"/>
      </g>
    </g>
    <g id="Grupo_27819" data-name="Grupo 27819" opacity="0.2">
      <path id="Trazado_3869" data-name="Trazado 3869" d="M516.16,226.565c4.03,2.327,4.054,6.1.05,8.427a16.038,16.038,0,0,1-14.551,0c-4.031-2.327-4.054-6.1-.047-8.428A16.034,16.034,0,0,1,516.16,226.565Z"/>
    </g>
    <g id="Grupo_27826" data-name="Grupo 27826">
      <path id="Trazado_3870" data-name="Trazado 3870" d="M508.731,224.5a4.63,4.63,0,0,0,.811,2.049c.623.7,3.422,2.25,3.261,3s-2.113.9-3.392-.279-1.623-1.355-2.151-1.447a1.254,1.254,0,0,1-.811-1.879A5.419,5.419,0,0,0,508.731,224.5Z"/>
      <path id="Trazado_3871" data-name="Trazado 3871" d="M505.412,227.2a4.84,4.84,0,0,0,.981,2.1c.7.692,3.737,2.126,3.614,2.928s-2.147,1.09-3.572-.064-1.781-1.311-2.343-1.37a1.323,1.323,0,0,1-.978-1.914A5.707,5.707,0,0,0,505.412,227.2Z"/>
      <path id="Trazado_3872" data-name="Trazado 3872" d="M497.1,207.33s10.08,4.909,10.772,6.6c.99,2.425.927,4.114.877,10.274l.106,1.44a2.558,2.558,0,0,1-2.594.481c-.438-.189-.239-4.254-1.049-6.46a18.14,18.14,0,0,1-.2-3.379s-8.036-2.273-9.973-3.859S497.1,207.33,497.1,207.33Z" fill="#ea4bbd"/>
      <path id="Trazado_3873" data-name="Trazado 3873" d="M489.112,209.858s-.771,3.633,3.487,5.528c4.516,2.012,8.527,4.125,8.527,4.125a23.427,23.427,0,0,0,.48,4.432c.6,2.241,1.455,5.155,1.455,5.155s1.923.651,2.926-.445c0,0-.529-10.883-1.879-12.031s-8.023-5.642-8.023-5.642l1.019-3.65Z" fill="#ff61cb"/>
      <path id="Trazado_3874" data-name="Trazado 3874" d="M492.6,215.386c4.516,2.012,8.527,4.125,8.527,4.125a23.427,23.427,0,0,0,.48,4.432c.6,2.241,1.092,5.067,1.092,5.067a5.57,5.57,0,0,0,1.163.17c-.823-2.881-1.488-9.362-1.858-10.539-.453-1.46-5.175-2.78-8.562-4.326a6.591,6.591,0,0,1-3.74-5l-.731.622S488.341,213.491,492.6,215.386Z" fill="#ea4bbd"/>
      <path id="Trazado_3875" data-name="Trazado 3875" d="M509.071,223.979c.053-6.16-.205-7.627-1.2-10.052-.692-1.688-10.772-6.6-10.772-6.6a13.01,13.01,0,0,0-1.079,1.1c2.708,1.145,9.211,4.055,10.514,6.2,1.5,2.46.9,9.589,1.151,11.608a6.352,6.352,0,0,0,1.4-.44Z" fill="#ff61cb"/>
      <path id="Trazado_3876" data-name="Trazado 3876" d="M505.961,194.577s.339-1.416,1.08-1.769,1.094-.738,1.717-.769.761.381.545.807a4.58,4.58,0,0,1-1.485,1.521c-.715.484-.659.628-.795.828S506.111,195.385,505.961,194.577Z" fill="#f1b287"/>
      <path id="Trazado_3877" data-name="Trazado 3877" d="M492.862,195.818c.2-.675,1.032-1.544,2.792-.752s6.652,3.068,6.652,3.068,3.282-3.827,3.738-4.208a1.318,1.318,0,0,0,1.082,1.256s-2.107,5.14-3.782,5.517S492.031,198.569,492.862,195.818Z" fill="#5fb9e6"/>
      <path id="Trazado_3878" data-name="Trazado 3878" d="M487.177,198.685s1.433-2.852,7.709-4.117c0,0,.985-.481,1.079,2.8a3.652,3.652,0,0,0,.9,1.659c.357.408,1.333,2-.484,4.072a10.089,10.089,0,0,0,1.019,4.141c.894,1.644-3.767,4.188-7.336,4.053-.433-.019-1.421-.251-1.124-1.791s1.037-4.26.163-7.018S486.781,200.136,487.177,198.685Z" fill="#77d2ff"/>
      <path id="Trazado_3879" data-name="Trazado 3879" d="M487.177,198.685c-.4,1.451,1.058,1.034,1.931,3.8s.129,5.474-.163,7.018.691,1.772,1.124,1.791a11.559,11.559,0,0,0,1.789-.092c-1.4-2.649-.1-7.677-.176-10.407a4.4,4.4,0,0,0-2.769-3.873A5.569,5.569,0,0,0,487.177,198.685Z" fill="#5fb9e6"/>
      <path id="Trazado_3880" data-name="Trazado 3880" d="M499.2,204.173s1.044-1.014,1.859-.913,1.32-.037,1.863.271.437.731.026.973a4.563,4.563,0,0,1-2.068.488,1.72,1.72,0,0,0-1.115.273C499.546,205.361,498.9,204.936,499.2,204.173Z" fill="#f1b287"/>
      <path id="Trazado_3881" data-name="Trazado 3881" d="M487.482,198.2c.536-.461,1.7-.75,2.76.863s3.968,6.156,3.968,6.156,4.823-1.47,5.414-1.546a1.317,1.317,0,0,0,.238,1.641s-4.534,3.209-6.151,2.628S485.306,200.071,487.482,198.2Z" fill="#92e3fc"/>
      <g id="Grupo_27825" data-name="Grupo 27825">
        <g id="Grupo_27822" data-name="Grupo 27822">
          <g id="Grupo_27820" data-name="Grupo 27820">
            <path id="Trazado_3882" data-name="Trazado 3882" d="M494.271,193.6a3.308,3.308,0,0,0-.245,3.049c.211.4.832,2.079-1.882,1.728,0,0-2.916-1.014-2.208-1.943.469-.625.891-1.488-.293-4.193Z" fill="#e8a476"/>
          </g>
          <g id="Grupo_27821" data-name="Grupo 27821">
            <path id="Trazado_3883" data-name="Trazado 3883" d="M489.936,196.435a.424.424,0,0,0-.1.292,4.962,4.962,0,0,0,4.051-1.836l-3.639-2.436h0s-.148.134-.371.353C490.76,195.071,490.37,195.857,489.936,196.435Z" fill="#d69061"/>
          </g>
        </g>
        <g id="Grupo_27823" data-name="Grupo 27823">
          <path id="Trazado_3884" data-name="Trazado 3884" d="M493.816,189.15s.718.235.788,2.356c0,.235.387.538.5,1.117s.286,2.949-1.077,3.228a4.228,4.228,0,0,1-4.327-2.74C488.835,190.746,490.8,187.635,493.816,189.15Z" fill="#f1b287"/>
        </g>
        <g id="Grupo_27824" data-name="Grupo 27824">
          <path id="Trazado_3885" data-name="Trazado 3885" d="M490.9,193.473s-.395-1.161-1.055-.8c-.212.119-.438.365-.1.961s1.012,1.128,1.539,1.051Z" fill="#f1b287"/>
        </g>
        <path id="Trazado_3886" data-name="Trazado 3886" d="M490.706,191.318a2.735,2.735,0,0,0-1.3-1.265.827.827,0,0,0-.462-.1c-.122.022-.186-.83-.3-.769-1.908,1.067-1.8,6.326-1.534,7.087.194.555.889,2.172,1.534,2.4,1.539.531,1.625,7.354,4.436,1.261.505-1.087-1.733-3.47-1.9-3.886-.253-.623-.832-.782-.8-1.453.027-.7-.012-1.859.642-2.15.7-.313.469-.791.55-.813.106-.03,3.342-.893,3.434-1.339.167-.817-.2-1.218-.878-1.862a4.323,4.323,0,0,0-3.861-.724,3.046,3.046,0,0,0-2.2,2.317,4.214,4.214,0,0,0,1.843,4.159c.6.346-.366-1.211.453-1.238.2-.011.31-.269.435-.416Z" fill="#231202"/>
        <path id="Trazado_3887" data-name="Trazado 3887" d="M490.671,193.054c.374.382.492.874.265,1.094s-.718.1-1.09-.284-.491-.871-.265-1.1S490.3,192.676,490.671,193.054Z" fill="#f1b287"/>
      </g>
    </g>
    <g id="Grupo_27846" data-name="Grupo 27846" opacity="0.5">
      <g id="Grupo_27827" data-name="Grupo 27827">
        <path id="Trazado_3888" data-name="Trazado 3888" d="M499.874,195.014l.012,3.737-.87.5-.009-3.736Z" fill="#ff9800"/>
      </g>
      <g id="Grupo_27828" data-name="Grupo 27828">
        <path id="Trazado_3889" data-name="Trazado 3889" d="M496.41,197.016l.008,3.737-.86.5-.01-3.739Z" fill="#ff9800"/>
      </g>
      <g id="Grupo_27829" data-name="Grupo 27829">
        <path id="Trazado_3890" data-name="Trazado 3890" d="M504.49,192.349l.014,3.735-.87.5-.009-3.735Z" fill="#ff9800"/>
      </g>
      <g id="Grupo_27830" data-name="Grupo 27830">
        <path id="Trazado_3891" data-name="Trazado 3891" d="M502.751,191.029l.022,8.289-.863.5-.023-8.291Z" fill="#ff9800"/>
      </g>
      <g id="Grupo_27831" data-name="Grupo 27831">
        <path id="Trazado_3892" data-name="Trazado 3892" d="M498.137,193.692l.022,8.29-.867.5-.022-8.291Z" fill="#ff9800"/>
      </g>
      <g id="Grupo_27832" data-name="Grupo 27832">
        <path id="Trazado_3893" data-name="Trazado 3893" d="M501.307,190.034l.033,12.27-.86.5-.036-12.271Z" fill="#ff9800"/>
      </g>
      <g id="Grupo_27833" data-name="Grupo 27833">
        <path id="Trazado_3894" data-name="Trazado 3894" d="M507.941,187.031l.02,7.057-.86.5-.02-7.057Z" fill="#ff9800"/>
      </g>
      <g id="Grupo_27834" data-name="Grupo 27834">
        <path id="Trazado_3895" data-name="Trazado 3895" d="M512.571,187.684l.018,7.129-.862.5-.02-7.128Z" fill="#ff9800"/>
      </g>
      <g id="Grupo_27835" data-name="Grupo 27835">
        <path id="Trazado_3896" data-name="Trazado 3896" d="M510.833,186.36l.025,8.292-.866.5-.027-8.293Z" fill="#ff9800"/>
      </g>
      <g id="Grupo_27836" data-name="Grupo 27836">
        <path id="Trazado_3897" data-name="Trazado 3897" d="M516.023,181.535l.02,7.886-.864.5-.025-7.886Z" fill="#ff9800"/>
      </g>
      <g id="Grupo_27837" data-name="Grupo 27837">
        <path id="Trazado_3898" data-name="Trazado 3898" d="M514.3,184.36l.025,8.291-.872.5-.021-8.294Z" fill="#ff9800"/>
      </g>
      <g id="Grupo_27838" data-name="Grupo 27838">
        <path id="Trazado_3899" data-name="Trazado 3899" d="M506.215,189.027l.023,8.292-.866.5-.026-8.291Z" fill="#ff9800"/>
      </g>
      <g id="Grupo_27839" data-name="Grupo 27839">
        <path id="Trazado_3900" data-name="Trazado 3900" d="M509.386,185.369l.034,12.272-.858.5-.034-12.274Z" fill="#ff9800"/>
      </g>
      <g id="Grupo_27840" data-name="Grupo 27840">
        <path id="Trazado_3901" data-name="Trazado 3901" d="M519.5,183.682l.01,3.737-.866.5-.012-3.737Z" fill="#ff9800"/>
      </g>
      <g id="Grupo_27841" data-name="Grupo 27841">
        <path id="Trazado_3902" data-name="Trazado 3902" d="M524.115,181.018l.024,7.125-.869.5-.021-7.128Z" fill="#ff9800"/>
      </g>
      <g id="Grupo_27842" data-name="Grupo 27842">
        <path id="Trazado_3903" data-name="Trazado 3903" d="M522.376,179.7l.024,8.291-.862.5-.023-8.289Z" fill="#ff9800"/>
      </g>
      <g id="Grupo_27843" data-name="Grupo 27843">
        <path id="Trazado_3904" data-name="Trazado 3904" d="M525.854,181.838l.009,4.15-.866.5-.009-4.15Z" fill="#ff9800"/>
      </g>
      <g id="Grupo_27844" data-name="Grupo 27844">
        <path id="Trazado_3905" data-name="Trazado 3905" d="M517.758,182.364l.024,8.292-.862.5-.026-8.294Z" fill="#ff9800"/>
      </g>
      <g id="Grupo_27845" data-name="Grupo 27845">
        <path id="Trazado_3906" data-name="Trazado 3906" d="M520.928,178.7l.034,12.275-.858.5-.032-12.273Z" fill="#ff9800"/>
      </g>
    </g>
    <g id="Grupo_27853" data-name="Grupo 27853" style="mix-blend-mode: overlay;isolation: isolate">
      <path id="Trazado_3907" data-name="Trazado 3907" d="M496.123,219.645c1.5.864,1.508,2.268.019,3.134l-1.753,1.019a5.969,5.969,0,0,1-5.414,0l-21.081-12.17c-1.5-.866-1.506-2.27-.015-3.135l1.752-1.019a5.964,5.964,0,0,1,5.413,0Z" fill="#fff" opacity="0.3"/>
      <g id="Grupo_27847" data-name="Grupo 27847" opacity="0.833">
        <path id="Trazado_3908" data-name="Trazado 3908" d="M496.123,217.163c1.5.864,1.508,2.269.019,3.135l-1.753,1.018a5.963,5.963,0,0,1-5.414,0l-21.081-12.169c-1.5-.867-1.506-2.27-.015-3.135l1.752-1.02a5.97,5.97,0,0,1,5.413,0Z" fill="#fff" opacity="0.417"/>
      </g>
      <g id="Grupo_27848" data-name="Grupo 27848" opacity="0.667">
        <path id="Trazado_3909" data-name="Trazado 3909" d="M496.123,214.682c1.5.864,1.508,2.268.019,3.135l-1.753,1.018a5.963,5.963,0,0,1-5.414,0l-21.081-12.169c-1.5-.867-1.506-2.27-.015-3.136l1.752-1.019a5.97,5.97,0,0,1,5.413,0Z" fill="#fff" opacity="0.533"/>
      </g>
      <g id="Grupo_27849" data-name="Grupo 27849" opacity="0.5">
        <path id="Trazado_3910" data-name="Trazado 3910" d="M496.123,212.2c1.5.864,1.508,2.268.019,3.134l-1.753,1.019a5.969,5.969,0,0,1-5.414,0l-21.081-12.17c-1.5-.867-1.506-2.269-.015-3.135l1.752-1.019a5.964,5.964,0,0,1,5.413,0Z" fill="#fff" opacity="0.65"/>
      </g>
      <g id="Grupo_27850" data-name="Grupo 27850" opacity="0.333">
        <path id="Trazado_3911" data-name="Trazado 3911" d="M496.123,209.719c1.5.865,1.508,2.268.019,3.135l-1.753,1.018a5.963,5.963,0,0,1-5.414,0L467.894,201.7c-1.5-.867-1.506-2.27-.015-3.136l1.752-1.019a5.97,5.97,0,0,1,5.413,0Z" fill="#fff" opacity="0.767"/>
      </g>
      <g id="Grupo_27851" data-name="Grupo 27851" opacity="0.167">
        <path id="Trazado_3912" data-name="Trazado 3912" d="M496.123,207.238c1.5.865,1.508,2.268.019,3.135l-1.753,1.018a5.963,5.963,0,0,1-5.414,0l-21.081-12.169c-1.5-.867-1.506-2.27-.015-3.136l1.752-1.019a5.964,5.964,0,0,1,5.413,0Z" fill="#fff" opacity="0.883"/>
      </g>
      <g id="Grupo_27852" data-name="Grupo 27852" opacity="0">
        <path id="Trazado_3913" data-name="Trazado 3913" d="M496.123,204.757c1.5.864,1.508,2.267.019,3.135l-1.753,1.017a5.963,5.963,0,0,1-5.414,0L467.894,196.74c-1.5-.867-1.506-2.269-.015-3.135l1.752-1.019a5.964,5.964,0,0,1,5.413,0Z" fill="#fff"/>
      </g>
    </g>
  </g>
</svg>
