<svg xmlns="http://www.w3.org/2000/svg" xmlns:xlink="http://www.w3.org/1999/xlink" width="69" height="59" viewBox="0 0 69 59">
  <defs>
    <clipPath id="clip-path">
      <rect id="Rectángulo_4537" data-name="Rectángulo 4537" width="69" height="59" transform="translate(772 5735)" fill="#f3f9ff" stroke="#707070" stroke-width="1"/>
    </clipPath>
  </defs>
  <g id="Enmascarar_grupo_15" data-name="Enmascarar grupo 15" transform="translate(-772 -5735)" clip-path="url(#clip-path)">
    <g id="mapa" transform="translate(777 5735)">
      <path id="Trazado_2533" data-name="Trazado 2533" d="M58.924,57.8l-8.5-20.582a.861.861,0,0,0-.8-.534H9.373a.861.861,0,0,0-.8.534L.076,57.8a.873.873,0,0,0,.079.815A.86.86,0,0,0,.871,59H58.129a.86.86,0,0,0,.717-.386A.873.873,0,0,0,58.924,57.8Z" fill="#a8eefc"/>
      <path id="Trazado_2534" data-name="Trazado 2534" d="M55.386,59h2.743a.86.86,0,0,0,.717-.386.873.873,0,0,0,.079-.815l-8.5-20.582a.861.861,0,0,0-.8-.534h-3.46Z" fill="#7ee5f2"/>
      <g id="Grupo_26795" data-name="Grupo 26795">
        <path id="Trazado_2535" data-name="Trazado 2535" d="M14.193,44.445l2.934-7.782H9.319a.861.861,0,0,0-.8.534L5.53,44.445Z" fill="#4ce166"/>
        <path id="Trazado_2536" data-name="Trazado 2536" d="M49.572,36.663H22.461l7.908,6.9H53L50.368,37.2A.862.862,0,0,0,49.572,36.663Z" fill="#4ce166"/>
        <path id="Trazado_2537" data-name="Trazado 2537" d="M53.2,44.051l.163.394h0Z" fill="#4ce166"/>
      </g>
      <path id="Trazado_2538" data-name="Trazado 2538" d="M55.61,49.888,53,43.559H30.368l-7.908-6.9h-5.98l-2.862,6.894H5.9l-1.735,4.2-.881,2.132h7.73L7.255,58.981h7.027l6.033-14.77,17.4,14.77H47.982l-10.4-9.093Z" fill="#ffdb56"/>
      <path id="Trazado_2539" data-name="Trazado 2539" d="M29.445,0A18.7,18.7,0,0,0,10.839,18.746,25.752,25.752,0,0,0,13.7,29.983a47.443,47.443,0,0,0,6.212,9.394A64.988,64.988,0,0,0,28.918,48.3a.857.857,0,0,0,1.054,0,65,65,0,0,0,9.006-8.926,47.433,47.433,0,0,0,6.212-9.394,25.752,25.752,0,0,0,2.861-11.237A18.7,18.7,0,0,0,29.445,0Zm0,11.615a7.131,7.131,0,1,1-7.077,7.131A7.1,7.1,0,0,1,29.445,11.615Z" fill="#ff4a4a"/>
      <path id="Trazado_2540" data-name="Trazado 2540" d="M29.445,0c-.612,0-1.218.031-1.815.089A18.719,18.719,0,0,1,44.422,18.746a25.752,25.752,0,0,1-2.861,11.237,47.443,47.443,0,0,1-6.212,9.394,67.915,67.915,0,0,1-7.718,7.859c.758.652,1.23,1.022,1.288,1.067a.857.857,0,0,0,1.054,0,65,65,0,0,0,9.006-8.926,47.433,47.433,0,0,0,6.212-9.394,25.752,25.752,0,0,0,2.861-11.237A18.7,18.7,0,0,0,29.445,0Z" fill="#e7343f"/>
      <path id="Trazado_2541" data-name="Trazado 2541" d="M14.282,58.981H37.711l-17.4-14.77Z" fill="#4ce166"/>
      <path id="Trazado_2542" data-name="Trazado 2542" d="M48.961,43.559l2.615,6.329H55.61L53,43.559Z" fill="#ffbb24"/>
      <path id="Trazado_2543" data-name="Trazado 2543" d="M48.961,43.559H53L50.368,37.2a.861.861,0,0,0-.8-.534h-3.46Z" fill="#44c868"/>
    </g>
  </g>
</svg>
