<svg id="credibilidad" xmlns="http://www.w3.org/2000/svg" width="59.733" height="92.832" viewBox="0 0 59.733 92.832">
  <g id="Grupo_27251" data-name="Grupo 27251" transform="translate(14.112 34.525)">
    <path id="Trazado_2921" data-name="Trazado 2921" d="M191.708,201.113l-1.032-4.44-2.93-11.924H171.965l-2.985,11.924-1.032,4.44-3.874,13.949H195.41Z" transform="translate(-164.074 -184.749)" fill="#ffcebf"/>
  </g>
  <path id="Trazado_2922" data-name="Trazado 2922" d="M117.669,313.852l-5.7-36.364-5.424-5.172-9.975,6.116a15.086,15.086,0,0,0-8.011,13.324v20.689a1.812,1.812,0,0,0,1.812,1.812h27.925Z" transform="translate(-88.557 -221.426)" fill="#918291"/>
  <path id="Trazado_2923" data-name="Trazado 2923" d="M270.232,278.431l-9.975-6.116-5.03,11.369-6.85,26.953.17,3.619h27.884a1.812,1.812,0,0,0,1.812-1.812V291.756A15.085,15.085,0,0,0,270.232,278.431Z" transform="translate(-218.511 -221.426)" fill="#918291"/>
  <g id="Grupo_27252" data-name="Grupo 27252" transform="translate(13.566 51.911)">
    <path id="Trazado_2924" data-name="Trazado 2924" d="M189.114,277.786l-.26.314-11.4,7.2-11.17-7.053-1.211,1.392.009.124-2.1,2.651-1.826,10.76,11.9,22.591,4.275,2.942h.3l17.305-31.759Z" transform="translate(-161.152 -277.786)" fill="#e5e1e5"/>
  </g>
  <g id="Grupo_27256" data-name="Grupo 27256" transform="translate(1.479)">
    <path id="Trazado_2925" data-name="Trazado 2925" d="M205.334,184.749H189.553l-2.985,11.924-.864,3.719a28.2,28.2,0,0,0,23.424,0l-.864-3.719Z" transform="translate(-169.029 -150.224)" fill="#ffb09e"/>
    <circle id="Elipse_235" data-name="Elipse 235" cx="24.489" cy="24.489" r="24.489" transform="translate(3.898 0)" fill="#99e6fc"/>
    <path id="Trazado_2926" data-name="Trazado 2926" d="M126.069,24.489A24.5,24.5,0,0,1,146.193.388a24.491,24.491,0,1,0-4.37,48.589,24.661,24.661,0,0,0,4.37-.388A24.5,24.5,0,0,1,126.069,24.489Z" transform="translate(-113.437 0)" fill="#62dbfb"/>
    <path id="Trazado_2927" data-name="Trazado 2927" d="M174.613,64.669h3.29l1.527.9a3.815,3.815,0,0,0,1.94.53h14.747a2.516,2.516,0,0,0,2.537-2.351,2.468,2.468,0,0,0-1.277-2.283.173.173,0,0,1-.091-.151v0a.169.169,0,0,1,.132-.165,2.47,2.47,0,0,0,1.132-4.238,2.657,2.657,0,0,0,.589-4.641,2.861,2.861,0,0,0-1.277-5.421h-5.9a.574.574,0,0,1-.522-.812l.7-1.533a6.822,6.822,0,0,0,.617-2.834V38.478a3.523,3.523,0,0,0-.407-1.644,2.9,2.9,0,0,0-2.579-1.516,2.021,2.021,0,0,0-1.859,1.228l-1.232,2.89-4.638,2.7-.76.323a4.646,4.646,0,0,0-2.379,2.282l-1,2.1h-3.29a1.8,1.8,0,0,0-1.8,1.8V62.865a1.8,1.8,0,0,0,1.8,1.8Z" transform="translate(-158.544 -28.719)" fill="#f9f7f8"/>
    <path id="Trazado_2928" data-name="Trazado 2928" d="M96.9,331.295l6.95,5.443.924.746a22.956,22.956,0,0,1,.441-3.238l-6.591-5.162-.7-.539a15.1,15.1,0,0,0-1.452,2.421Z" transform="translate(-96.474 -267.147)" fill="#7a6d79"/>
    <path id="Trazado_2929" data-name="Trazado 2929" d="M135.914,449.814v-9.156a1.4,1.4,0,0,0-2.8,0v9.156a1.413,1.413,0,0,0,.014.188H135.9A1.415,1.415,0,0,0,135.914,449.814Z" transform="translate(-126.264 -357.17)" fill="#7a6d79"/>
    <g id="Grupo_27253" data-name="Grupo 27253" transform="translate(23.542 64.622)">
      <path id="Trazado_2930" data-name="Trazado 2930" d="M232.14,366.583,230.831,351.2l-1.084-5.4h-5.191l-.8,5.4-1.309,15.383v7.431h10.439Z" transform="translate(-222.449 -345.805)" fill="#918291"/>
    </g>
    <g id="XMLID_548_" transform="translate(22.571 59.424)">
      <g id="Grupo_27254" data-name="Grupo 27254">
        <path id="Trazado_2931" data-name="Trazado 2931" d="M228.259,324.046a2.607,2.607,0,0,1,.27,1.621l-.315,2.006a.841.841,0,0,1-.83.71h-8.959a.838.838,0,0,1-.83-.71l-.311-1.976a2.608,2.608,0,0,1,.3-1.669l2.445-4.409q1.519-.762,3.044-1.633,1.393.8,2.781,1.5Z" transform="translate(-217.253 -317.985)" fill="#7a6d79"/>
      </g>
    </g>
    <g id="XMLID_549_" transform="translate(8.248 51.483)">
      <g id="Grupo_27255" data-name="Grupo 27255">
        <path id="Trazado_2932" data-name="Trazado 2932" d="M157.214,321.02l3.292,5.743-.513-.406a46.167,46.167,0,0,1-14.32-14.141l-1.45-2.252-3.117.792a.4.4,0,0,1-.5-.387v-4.627a22.979,22.979,0,0,1,4.352-13.457l2.876-3.979.531-.613.783,10.73.333,1.674a70.728,70.728,0,0,0,7.731,20.921Z" transform="translate(-140.608 -285.415)" fill="#a79ba7"/>
        <path id="Trazado_2933" data-name="Trazado 2933" d="M319.9,328.556l-.7.542-6.942,5.437-8.475,6.261a1.4,1.4,0,1,0,1.666,2.254l8.491-6.272.031-.024,6.948-5.442.437-.336a15.077,15.077,0,0,0-1.451-2.42Z" transform="translate(-272.821 -318.64)" fill="#7a6d79"/>
        <path id="Trazado_2934" data-name="Trazado 2934" d="M266.812,296.011v4.627a.4.4,0,0,1-.5.387l-3.117-.792-1.45,2.252a46.167,46.167,0,0,1-14.32,14.141l-.346.219,3.125-5.556a70.727,70.727,0,0,0,7.731-20.921l.333-1.674.777-13.2,4.724,7.352C266.6,286.765,266.812,291.178,266.812,296.011Z" transform="translate(-227.185 -275.496)" fill="#a79ba7"/>
      </g>
    </g>
    <path id="Trazado_2935" data-name="Trazado 2935" d="M351.447,449.814v-9.156a1.4,1.4,0,0,0-2.8,0v9.156a1.41,1.41,0,0,0,.014.188h2.775A1.382,1.382,0,0,0,351.447,449.814Z" transform="translate(-301.52 -357.17)" fill="#7a6d79"/>
  </g>
  <g id="Grupo_27257" data-name="Grupo 27257" transform="translate(16.954 50.889)">
    <path id="Trazado_2936" data-name="Trazado 2936" d="M180.315,272.315l11.88,8.535q-1.525.872-3.044,1.633a52.593,52.593,0,0,1-9.2,3.626.467.467,0,0,1-.592-.423A53.6,53.6,0,0,1,180.315,272.315Z" transform="translate(-179.283 -272.315)" fill="#f9f7f8"/>
    <path id="Trazado_2937" data-name="Trazado 2937" d="M260.258,272.315a53.594,53.594,0,0,1,.952,13.371.467.467,0,0,1-.592.423,52.847,52.847,0,0,1-9.459-3.758q-1.388-.7-2.781-1.5Z" transform="translate(-235.466 -272.315)" fill="#f9f7f8"/>
  </g>
</svg>
