<svg id="Flat" xmlns="http://www.w3.org/2000/svg" width="76.642" height="76.642" viewBox="0 0 76.642 76.642">
  <path id="Trazado_2941" data-name="Trazado 2941" d="M60.988,102.492a6.484,6.484,0,0,1-2.6,5.2v2.6H50.6v-2.6a6.5,6.5,0,1,1,10.392-5.2Z" transform="translate(-42.801 -84.306)" fill="#eedc9a"/>
  <path id="Trazado_2942" data-name="Trazado 2942" d="M157.2,152h5.846v10.392H157.2a5.2,5.2,0,1,1,0-10.392Z" transform="translate(-129.917 -131.216)" fill="#f2c194"/>
  <path id="Trazado_2943" data-name="Trazado 2943" d="M5.2,0h5.2V10.392H5.2A5.2,5.2,0,0,1,5.2,0Z" transform="translate(66.25 31.176) rotate(180)" fill="#f2c194"/>
  <path id="Trazado_2944" data-name="Trazado 2944" d="M152.951,328.475H88a24.005,24.005,0,0,1,2.148-9.922,21.38,21.38,0,0,1,14.569-11.968l5.417-1.275,2.439-.575a5.2,5.2,0,0,0,4.006-5.056V296h7.794v3.679a5.2,5.2,0,0,0,4.006,5.056l2.439.575,5.417,1.275A21.384,21.384,0,0,1,150.8,318.549a24,24,0,0,1,2.15,9.926Z" transform="translate(-76.309 -251.833)" fill="#c4d4e0"/>
  <path id="Trazado_2945" data-name="Trazado 2945" d="M113.98,376.5H88a24,24,0,0,1,2.148-9.922,21.379,21.379,0,0,1,13.367-11.648c.4-.119.8-.224,1.2-.32l5.417-1.275,2.387,10.34a56.962,56.962,0,0,1,1.444,11.516Q113.981,375.849,113.98,376.5Z" transform="translate(-76.309 -299.863)" fill="#396795"/>
  <path id="Trazado_2946" data-name="Trazado 2946" d="M178.6,370.009l2.6-6.5H176l1.226-8.58c.4-.119.8-.224,1.2-.32l5.417-1.275,2.387,10.34a56.959,56.959,0,0,1,1.444,11.516Z" transform="translate(-150.02 -299.863)" fill="#26507a"/>
  <path id="Trazado_2947" data-name="Trazado 2947" d="M353.98,376.5H328q0-.655.016-1.309a56.962,56.962,0,0,1,1.444-11.516l2.387-10.34,5.417,1.275q.606.141,1.2.32a21.384,21.384,0,0,1,13.365,11.644,24,24,0,0,1,2.15,9.926Z" transform="translate(-277.338 -299.863)" fill="#396795"/>
  <path id="Trazado_2948" data-name="Trazado 2948" d="M334.579,363.514l2.6,6.5L328.1,375.2a56.959,56.959,0,0,1,1.444-11.516l2.387-10.34,5.417,1.275q.606.141,1.2.32l1.226,8.58Z" transform="translate(-277.422 -299.863)" fill="#26507a"/>
  <path id="Trazado_2949" data-name="Trazado 2949" d="M227.691,339.9l-5.2,6.5L216,338.6l3.9-2.6Z" transform="translate(-183.525 -285.338)" fill="#a6b2bc"/>
  <path id="Trazado_2950" data-name="Trazado 2950" d="M299.691,338.6l-6.5,7.794-5.2-6.5,7.794-3.9Z" transform="translate(-243.834 -285.338)" fill="#a6b2bc"/>
  <path id="Trazado_2951" data-name="Trazado 2951" d="M228.578,104v18.186a14.289,14.289,0,0,1-14.289,14.289h0A14.289,14.289,0,0,1,200,122.186v-18.08Z" transform="translate(-170.123 -91.01)" fill="#f4ceaf"/>
  <ellipse id="Elipse_245" data-name="Elipse 245" cx="1.5" cy="1" rx="1.5" ry="1" transform="translate(35 24)" fill="#966342"/>
  <circle id="Elipse_246" data-name="Elipse 246" cx="1" cy="1" r="1" transform="translate(51 24)" fill="#966342"/>
  <path id="Trazado_2952" data-name="Trazado 2952" d="M222.5,154.6h-5.2a1.3,1.3,0,0,1,0-2.6h5.2a1.3,1.3,0,0,1,0,2.6Z" transform="translate(-183.525 -131.216)" fill="#ad7d4d"/>
  <path id="Trazado_2953" data-name="Trazado 2953" d="M318.5,154.6h-5.2a1.3,1.3,0,0,1,0-2.6h5.2a1.3,1.3,0,0,1,0,2.6Z" transform="translate(-263.936 -131.216)" fill="#ad7d4d"/>
  <path id="Trazado_2954" data-name="Trazado 2954" d="M197.671,36.99v7.794h-2.6l-6.5-5.2L171.62,44.433A9.115,9.115,0,0,1,160,35.668V31.794a4.3,4.3,0,0,1,4.335-4.314,4.215,4.215,0,0,1,3.012,1.27,4.3,4.3,0,0,0,6.089,0l2.466-2.466A7.8,7.8,0,0,1,181.414,24h3.267a7.8,7.8,0,0,1,7.794,7.793,5.2,5.2,0,0,1,5.2,5.2Z" transform="translate(-136.618 -24)" fill="#ad7d4d"/>
  <path id="Trazado_2955" data-name="Trazado 2955" d="M345.093,77.2V84.99h-2.6l-6.5-5.2a9.408,9.408,0,0,1,2.756-6.653L339.9,72a5.2,5.2,0,0,1,5.2,5.2Z" transform="translate(-284.039 -64.206)" fill="#966342"/>
  <path id="Trazado_2956" data-name="Trazado 2956" d="M282.6,182.493a1.3,1.3,0,0,1-1.232-.888l-1.3-3.9a1.3,1.3,0,1,1,2.465-.822l1.3,3.9a1.3,1.3,0,0,1-1.233,1.71Z" transform="translate(-237.13 -151.316)" fill="#f2c194"/>
  <rect id="Rect치ngulo_4630" data-name="Rect치ngulo 4630" width="5" height="8" rx="2.5" transform="translate(42 34)" fill="#e7999b"/>
  <path id="Trazado_2957" data-name="Trazado 2957" d="M267.9,234.392a3.9,3.9,0,0,1-3.9-3.9v-2.6a3.9,3.9,0,0,1,7.794,0v2.6a3.9,3.9,0,0,1-3.9,3.9Zm0-7.794a1.3,1.3,0,0,0-1.3,1.3v2.6a1.3,1.3,0,1,0,2.6,0v-2.6A1.3,1.3,0,0,0,267.9,226.6Z" transform="translate(-223.731 -191.525)" fill="#f2c194"/>
  <path id="Trazado_2958" data-name="Trazado 2958" d="M70.47,140.307l-2.548-.51.988-4.941H66.884l.988,4.941-2.548.51-1.3-6.5a1.3,1.3,0,0,1,1.274-1.554h5.2a1.3,1.3,0,0,1,1.274,1.554Z" transform="translate(-56.206 -114.679)" fill="#e88604"/>
  <path id="Trazado_2959" data-name="Trazado 2959" d="M72,200h5.2v1.3a2.6,2.6,0,0,1-5.2,0Z" transform="translate(-62.907 -171.422)" fill="#eebe33"/>
  <rect id="Rect치ngulo_4631" data-name="Rect치ngulo 4631" width="11" height="5" rx="2.5" transform="translate(6 24)" fill="#a6b2bc"/>
  <g id="Grupo_27261" data-name="Grupo 27261" transform="translate(0 6.495)">
    <path id="Trazado_2960" data-name="Trazado 2960" d="M80,64h2.6v2.6H80Z" transform="translate(-69.608 -64)" fill="#eebe33"/>
    <path id="Trazado_2961" data-name="Trazado 2961" d="M0,0H2.6V2.6H0Z" transform="translate(17.199 4.344) rotate(-45)" fill="#eebe33"/>
    <path id="Trazado_2962" data-name="Trazado 2962" d="M144,128h2.6v2.6H144Z" transform="translate(-123.216 -117.608)" fill="#eebe33"/>
    <path id="Trazado_2963" data-name="Trazado 2963" d="M0,0H2.6V2.6H0Z" transform="translate(2.504 4.342) rotate(-45)" fill="#eebe33"/>
    <path id="Trazado_2964" data-name="Trazado 2964" d="M16,128h2.6v2.6H16Z" transform="translate(-16 -117.608)" fill="#eebe33"/>
  </g>
  <path id="Trazado_2965" data-name="Trazado 2965" d="M264.508,303.568l-5.649,2.824-5.649-2.824a5.187,5.187,0,0,0,1.752-3.889V296h7.794v3.679A5.186,5.186,0,0,0,264.508,303.568Z" transform="translate(-214.693 -251.834)" fill="#f4ceaf"/>
  <path id="Trazado_2966" data-name="Trazado 2966" d="M40.887,410.6v11.691H24V410.6a2.6,2.6,0,0,1,2.6-2.6H38.289a2.6,2.6,0,0,1,2.6,2.6Z" transform="translate(-22.701 -345.647)" fill="#396795"/>
  <path id="Trazado_2967" data-name="Trazado 2967" d="M101.2,410.6v11.691H98.6V410.6A2.6,2.6,0,0,0,96,408h2.6a2.6,2.6,0,0,1,2.6,2.6Z" transform="translate(-83.01 -345.647)" fill="#26507a"/>
  <path id="Trazado_2968" data-name="Trazado 2968" d="M52.99,306.6v2.6a2.6,2.6,0,0,1-2.6,2.6v1.146a6.1,6.1,0,0,1-.174,1.448,5.993,5.993,0,0,1-.476,1.3,6.133,6.133,0,0,0-.65,2.751v2.445H40V306.6a2.6,2.6,0,0,1,2.6-2.6h7.794A2.6,2.6,0,0,1,52.99,306.6Z" transform="translate(-36.103 -258.534)" fill="#f4ceaf"/>
  <path id="Trazado_2969" data-name="Trazado 2969" d="M74.6,248a2.6,2.6,0,0,1,2.6,2.6v6.5H72v-6.5A2.6,2.6,0,0,1,74.6,248Z" transform="translate(-62.907 -211.628)" fill="#f4ceaf"/>
  <path id="Trazado_2970" data-name="Trazado 2970" d="M77.2,331.9v1.146a6.1,6.1,0,0,1-.174,1.448A5.2,5.2,0,0,1,72,329.3a1.3,1.3,0,0,1,2.6,0,2.6,2.6,0,0,0,2.6,2.6Z" transform="translate(-62.907 -278.637)" fill="#f2c194"/>
  <path id="Trazado_2971" data-name="Trazado 2971" d="M77.2,283.9H72v-1.3l5.2-2.6Z" transform="translate(-62.907 -238.432)" fill="#f2c194"/>
</svg>
