<svg xmlns="http://www.w3.org/2000/svg" xmlns:xlink="http://www.w3.org/1999/xlink" width="110" height="65" viewBox="0 0 110 65">
  <defs>
    <clipPath id="clip-path">
      <rect id="Rectángulo_4967" data-name="Rectángulo 4967" width="110" height="65" transform="translate(177 1120)" fill="#fff" stroke="#707070" stroke-width="1"/>
    </clipPath>
  </defs>
  <g id="Enmascarar_grupo_27" data-name="Enmascarar grupo 27" transform="translate(-177 -1120)" clip-path="url(#clip-path)">
    <g id="disponibilidad" transform="translate(197.777 1118.277)">
      <g id="XMLID_287_">
        <path id="Trazado_4561" data-name="Trazado 4561" d="M52.844,6.869H6.111A6.112,6.112,0,0,0,0,12.981v4.462l3.9,6.971H55.8l3.157-6.971V12.981a6.112,6.112,0,0,0-6.111-6.112Z" fill="#e5827f"/>
      </g>
      <path id="Trazado_4562" data-name="Trazado 4562" d="M7.31,12.482V8.02a6.143,6.143,0,0,1,.11-1.151H6.111A6.112,6.112,0,0,0,0,12.981v4.462l3.9,6.971H7.31V12.482Z" fill="#de6a66"/>
      <path id="Trazado_4563" data-name="Trazado 4563" d="M58.955,17.444V52.021a6.264,6.264,0,0,1-6.265,6.264H6.111A6.111,6.111,0,0,1,0,52.174V17.444Z" fill="#f8f7f8"/>
      <g id="Grupo_28535" data-name="Grupo 28535">
        <path id="Trazado_4564" data-name="Trazado 4564" d="M16.2,11.967a1.859,1.859,0,0,1-1.859-1.859V3.582a1.859,1.859,0,0,1,3.718,0v6.526A1.859,1.859,0,0,1,16.2,11.967Z" fill="#b3adb5"/>
        <path id="Trazado_4565" data-name="Trazado 4565" d="M42.752,11.967a1.859,1.859,0,0,0,1.859-1.859V3.582a1.859,1.859,0,1,0-3.718,0v6.526A1.859,1.859,0,0,0,42.752,11.967Z" fill="#b3adb5"/>
        <path id="Trazado_4566" data-name="Trazado 4566" d="M53.625,34.323A17.6,17.6,0,0,0,36.047,51.9v.014a1.4,1.4,0,0,1-1.392,1.407H13.421A6.111,6.111,0,0,1,7.31,47.212V17.444H0v34.73a6.111,6.111,0,0,0,6.111,6.111H52.69a6.265,6.265,0,0,0,6.265-6.265V35.15a17.516,17.516,0,0,0-5.33-.827Z" fill="#efedee"/>
        <circle id="Elipse_307" data-name="Elipse 307" cx="14.821" cy="14.821" r="14.821" transform="translate(38.804 37.08)" fill="#cfeffc"/>
        <path id="Trazado_4567" data-name="Trazado 4567" d="M44.134,52.219A14.823,14.823,0,0,1,57.16,37.506,14.822,14.822,0,1,0,55.42,66.615,14.827,14.827,0,0,1,44.134,52.219Z" fill="#a9e4f9"/>
        <path id="Trazado_4568" data-name="Trazado 4568" d="M53.625,37.08c-.348,0-.694.012-1.036.036l0,2.675a1.034,1.034,0,0,0,2.068,0l0-2.675c-.341-.023-.688-.036-1.035-.036Z" fill="#a9e4f9"/>
        <path id="Trazado_4569" data-name="Trazado 4569" d="M63.348,40.716l-1.891,1.891a1.034,1.034,0,0,0,1.462,1.462l1.891-1.891a14.94,14.94,0,0,0-1.462-1.462Z" fill="#a9e4f9"/>
        <path id="Trazado_4570" data-name="Trazado 4570" d="M64.7,51.9a1.034,1.034,0,0,0,1.034,1.034H68.41c.024-.342.037-.686.037-1.034s-.013-.692-.037-1.034H65.735A1.034,1.034,0,0,0,64.7,51.9Z" fill="#a9e4f9"/>
        <path id="Trazado_4571" data-name="Trazado 4571" d="M61.457,59.734a1.034,1.034,0,0,0,0,1.462l1.891,1.892a14.921,14.921,0,0,0,1.462-1.462l-1.891-1.891A1.034,1.034,0,0,0,61.457,59.734Z" fill="#a9e4f9"/>
        <path id="Trazado_4572" data-name="Trazado 4572" d="M53.625,62.978a1.034,1.034,0,0,0-1.034,1.034v2.675c.342.024.686.037,1.034.037s.692-.013,1.034-.037V64.012A1.034,1.034,0,0,0,53.625,62.978Z" fill="#a9e4f9"/>
        <path id="Trazado_4573" data-name="Trazado 4573" d="M44.331,59.734l-1.893,1.89A14.9,14.9,0,0,0,43.9,63.087L45.793,61.2a1.034,1.034,0,0,0-1.462-1.462Z" fill="#81d9f8"/>
        <path id="Trazado_4574" data-name="Trazado 4574" d="M38.84,52.936h2.675a1.034,1.034,0,1,0,0-2.068H38.84c-.024.342-.036.686-.036,1.034s.013.692.037,1.034Z" fill="#81d9f8"/>
        <path id="Trazado_4575" data-name="Trazado 4575" d="M42.439,42.178l1.892,1.891a1.034,1.034,0,1,0,1.462-1.462L43.9,40.715a14.947,14.947,0,0,0-1.463,1.463Z" fill="#81d9f8"/>
        <g id="Grupo_28524" data-name="Grupo 28524">
          <path id="Trazado_4576" data-name="Trazado 4576" d="M53.625,52.621a1.034,1.034,0,0,1-1.034-1.034V44.821a1.034,1.034,0,0,1,2.068,0v6.765A1.034,1.034,0,0,1,53.625,52.621Z" fill="#a9e4f9"/>
        </g>
        <g id="Grupo_28525" data-name="Grupo 28525">
          <path id="Trazado_4577" data-name="Trazado 4577" d="M59.21,58.521a1.031,1.031,0,0,1-.731-.3L54.43,54.169a1.056,1.056,0,0,1-.073-.082l-1.24-1.536a1.034,1.034,0,0,1,1.609-1.3l1.206,1.494,4.01,4.01a1.034,1.034,0,0,1-.731,1.765Z" fill="#a9e4f9"/>
        </g>
        <g id="Grupo_28527" data-name="Grupo 28527">
          <g id="Grupo_28526" data-name="Grupo 28526">
            <path id="Trazado_4578" data-name="Trazado 4578" d="M21.518,32.86a1.034,1.034,0,0,1-.96-1.416L24.1,22.538a1.034,1.034,0,0,1,1.921.764l-3.542,8.906A1.034,1.034,0,0,1,21.518,32.86Z" fill="#a9e4f9"/>
          </g>
        </g>
        <g id="Grupo_28529" data-name="Grupo 28529">
          <g id="Grupo_28528" data-name="Grupo 28528">
            <path id="Trazado_4579" data-name="Trazado 4579" d="M29.889,32.86a1.035,1.035,0,0,1-.946-1.45l3.277-7.456H28.906a1.034,1.034,0,1,1,0-2.068h4.9a1.034,1.034,0,0,1,.946,1.45l-3.915,8.906a1.034,1.034,0,0,1-.947.618Z" fill="#a9e4f9"/>
          </g>
        </g>
        <g id="Grupo_28531" data-name="Grupo 28531">
          <g id="Grupo_28530" data-name="Grupo 28530">
            <path id="Trazado_4580" data-name="Trazado 4580" d="M16.465,32.615a1.034,1.034,0,0,1-1.034-1.034v-1.9h-3.38a1.034,1.034,0,0,1-.885-1.569c.024-.039,2.383-3.94,3.661-5.958a1.448,1.448,0,0,1,2.671.776v4.683h.558a1.034,1.034,0,1,1,0,2.068H17.5v1.9a1.034,1.034,0,0,1-1.034,1.034Zm-2.576-5h1.542V25.1C14.9,25.963,14.341,26.874,13.889,27.615Z" fill="#a9e4f9"/>
          </g>
        </g>
        <g id="Grupo_28533" data-name="Grupo 28533">
          <g id="Grupo_28532" data-name="Grupo 28532">
            <path id="Trazado_4581" data-name="Trazado 4581" d="M7.256,32.755a7.454,7.454,0,0,1-2.007-.089,1.074,1.074,0,0,1-.7-.708c-.176-.572.081-.908.644-1.646.452-.592,1.294-1.694,2.7-3.709a4.911,4.911,0,0,0,.775-1.528l.027-.213a1.245,1.245,0,0,0-2.465-.187,1.034,1.034,0,1,1-2.029-.4,3.313,3.313,0,0,1,6.563.641,1.014,1.014,0,0,1-.008.131l-.044.344c0,.034-.011.069-.018.1a6.792,6.792,0,0,1-1.107,2.293C8.677,29.095,8,30.025,7.5,30.684c.78,0,1.714-.009,2.6-.02h.013a1.034,1.034,0,0,1,.013,2.068c-1.266.016-2.191.023-2.87.023Z" fill="#a9e4f9"/>
          </g>
        </g>
        <g id="Grupo_28534" data-name="Grupo 28534">
          <path id="Trazado_4582" data-name="Trazado 4582" d="M12.081,43.255H7.542a.91.91,0,0,1-.91-.91V37.808a.91.91,0,0,1,.91-.91h4.538a.91.91,0,0,1,.91.91v4.538A.91.91,0,0,1,12.081,43.255Z" fill="#cfeffc"/>
          <path id="Trazado_4583" data-name="Trazado 4583" d="M22.9,43.255H18.361a.91.91,0,0,1-.91-.91V37.808a.91.91,0,0,1,.91-.91H22.9a.91.91,0,0,1,.91.91v4.538A.91.91,0,0,1,22.9,43.255Z" fill="#cfeffc"/>
          <path id="Trazado_4584" data-name="Trazado 4584" d="M33.717,43.255H29.179a.91.91,0,0,1-.91-.91V37.808a.91.91,0,0,1,.91-.91h4.538a.91.91,0,0,1,.91.91v4.538A.91.91,0,0,1,33.717,43.255Z" fill="#cfeffc"/>
          <path id="Trazado_4585" data-name="Trazado 4585" d="M42.235,31.341H37.7a.91.91,0,0,1-.91-.91V25.893a.91.91,0,0,1,.91-.91h4.538a.91.91,0,0,1,.91.91v4.538A.91.91,0,0,1,42.235,31.341Z" fill="#cfeffc"/>
          <path id="Trazado_4586" data-name="Trazado 4586" d="M52.991,31.341H48.453a.91.91,0,0,1-.91-.91V25.893a.91.91,0,0,1,.91-.91h4.538a.91.91,0,0,1,.91.91v4.538A.91.91,0,0,1,52.991,31.341Z" fill="#cfeffc"/>
          <path id="Trazado_4587" data-name="Trazado 4587" d="M12.081,53.438H7.542a.91.91,0,0,1-.91-.91V47.99a.91.91,0,0,1,.91-.91h4.538a.91.91,0,0,1,.91.91v4.538A.91.91,0,0,1,12.081,53.438Z" fill="#cfeffc"/>
          <path id="Trazado_4588" data-name="Trazado 4588" d="M22.9,53.438H18.361a.91.91,0,0,1-.91-.91V47.99a.91.91,0,0,1,.91-.91H22.9a.91.91,0,0,1,.91.91v4.538A.91.91,0,0,1,22.9,53.438Z" fill="#cfeffc"/>
          <path id="Trazado_4589" data-name="Trazado 4589" d="M33.717,53.438H29.179a.91.91,0,0,1-.91-.91V47.99a.91.91,0,0,1,.91-.91h4.538a.91.91,0,0,1,.91.91v4.538A.91.91,0,0,1,33.717,53.438Z" fill="#cfeffc"/>
        </g>
      </g>
      <circle id="Elipse_308" data-name="Elipse 308" cx="2.173" cy="2.173" r="2.173" transform="translate(51.452 49.729)" fill="#cecece"/>
      <g id="Grupo_28536" data-name="Grupo 28536">
        <path id="Trazado_4590" data-name="Trazado 4590" d="M53.625,37.08c-.348,0-.694.012-1.036.036v1.715a14.723,14.723,0,0,1,2.069-.8v-.915c-.342-.023-.688-.036-1.035-.036Z" fill="#81d9f8"/>
        <path id="Trazado_4591" data-name="Trazado 4591" d="M52.591,65.605v1.081c.342.024.686.037,1.034.037s.692-.013,1.034-.037V66.4A14.732,14.732,0,0,1,52.591,65.605Z" fill="#81d9f8"/>
      </g>
    </g>
  </g>
</svg>
