<svg xmlns="http://www.w3.org/2000/svg" xmlns:xlink="http://www.w3.org/1999/xlink" width="222" height="158" viewBox="0 0 222 158">
  <defs>
    <clipPath id="clip-path">
      <rect id="Rect치ngulo_4950" data-name="Rect치ngulo 4950" width="222" height="158" rx="10" transform="translate(205 1929)" fill="#fffbdc"/>
    </clipPath>
  </defs>
  <g id="Grupo_55727" data-name="Grupo 55727" transform="translate(-205 -2215)">
    <rect id="Rect치ngulo_4783" data-name="Rect치ngulo 4783" width="222" height="158" rx="10" transform="translate(205 2215)" fill="#fffbdc"/>
    <g id="Enmascarar_grupo_25" data-name="Enmascarar grupo 25" transform="translate(0 286)" clip-path="url(#clip-path)">
      <g id="Grupo_28520" data-name="Grupo 28520" transform="translate(-74.195 1848.161)">
        <g id="Grupo_28503" data-name="Grupo 28503" transform="translate(316.862 98.453)">
          <path id="Trazado_4412" data-name="Trazado 4412" d="M309.776,115.569c4.6,2.355,7.487,24.45,8.366,38.215.814,12.712-.9,29.419-.9,29.419l-4.88,1.355s-3.1-15.579-4.926-33.67C306.8,144.558,303.922,117.957,309.776,115.569Z" transform="translate(-306.16 -59.807)" fill="#dbb4d1"/>
          <g id="Grupo_28498" data-name="Grupo 28498" transform="translate(9.553 174.737)">
            <path id="Trazado_4413" data-name="Trazado 4413" d="M326.557,152.837c-.981,8.246-2.535,12.074-5.5,31.748s-4.854,34.319-4.854,34.319-2.385,1.1-2.675-.205c.173-3.522-6.34-27.578-3.874-40.961,2.007-10.881,7.236-25.649,7.236-25.649Z" transform="translate(-309.1 -152.088)" fill="#ed9558"/>
            <g id="Grupo_28496" data-name="Grupo 28496" transform="translate(2.063 66.275)">
              <path id="Trazado_4414" data-name="Trazado 4414" d="M317.334,184.3s3.939,1.684,3.922,2.5-5.063.909-8.255.593c-1.469-.147-1.072-4.923-2.121-7.568s-2.375-2.642,1.1-7.285l1.867,9.419Z" transform="translate(-309.733 -172.198)" fill="#2d313d"/>
              <path id="Trazado_4415" data-name="Trazado 4415" d="M314.248,172.431s.7,3.61,1.2,6.177c.564,2.958.821,4.6,1.456,5.923a5.562,5.562,0,0,1-3.538.3c-1.46-.59-1.163-4.121-3.287-8.089-.762-1.424,1.629-4.2,1.629-4.2Z" transform="translate(-309.299 -172.431)" fill="#ed9558"/>
              <path id="Trazado_4416" data-name="Trazado 4416" d="M311.848,172.534a6.9,6.9,0,0,1,1.342,3.092c.192,1.639,1.776,10.126,4.007,8.673,0,0-1.756,3.17-3.577,2.14s-1.955-5-2.649-7.057S308.3,176.955,311.848,172.534Z" transform="translate(-309.596 -172.198)" fill="#2d313d"/>
              <path id="Trazado_4417" data-name="Trazado 4417" d="M309.761,174.045a55,55,0,0,1,.453,9.937l.665,0a38.551,38.551,0,0,1,.687-6.623Z" transform="translate(-309.67 -168.787)" fill="#2d313d"/>
            </g>
            <path id="Trazado_4418" data-name="Trazado 4418" d="M314.613,197.788c.74-5.235,1.639-11.471,2.671-18.342,1.844-12.237,3.141-18.342,4.092-23.193l-.114-1.89-7.764,1.469a73.2,73.2,0,0,0-2.727,18.674C310.772,181.655,313.3,192.589,314.613,197.788Z" transform="translate(-305.323 -146.949)" fill="#d87239"/>
            <path id="Trazado_4419" data-name="Trazado 4419" d="M310.492,162.119a55.236,55.236,0,0,0,11.256.593c.707-3.561,1.241-6.3,1.665-9.875l-9.663-.749S312.215,156.424,310.492,162.119Z" transform="translate(-305.956 -152.088)" fill="#d87239"/>
            <g id="Grupo_28497" data-name="Grupo 28497" transform="translate(15.797 66.275)">
              <path id="Trazado_4420" data-name="Trazado 4420" d="M321.551,184.3s3.939,1.684,3.922,2.5-5.066.909-8.259.593c-1.466-.147-1.069-4.923-2.118-7.568s-2.375-2.642,1.1-7.285l1.867,9.419Z" transform="translate(-313.949 -172.198)" fill="#2d313d"/>
              <path id="Trazado_4421" data-name="Trazado 4421" d="M318.462,172.431s.7,3.61,1.2,6.177c.567,2.958.824,4.6,1.46,5.923a5.567,5.567,0,0,1-3.538.3c-1.46-.59-1.163-4.121-3.291-8.089-.759-1.424,1.632-4.2,1.632-4.2Z" transform="translate(-313.516 -172.431)" fill="#ffb476"/>
              <path id="Trazado_4422" data-name="Trazado 4422" d="M316.064,172.534a6.9,6.9,0,0,1,1.342,3.092c.192,1.639,1.772,10.126,4.007,8.673,0,0-1.759,3.17-3.577,2.14s-1.958-5-2.649-7.057S312.516,176.955,316.064,172.534Z" transform="translate(-313.811 -172.198)" fill="#2d313d"/>
              <path id="Trazado_4423" data-name="Trazado 4423" d="M313.977,174.045a54.836,54.836,0,0,1,.45,9.937l.665,0a38.327,38.327,0,0,1,.691-6.623Z" transform="translate(-313.884 -168.787)" fill="#2d313d"/>
            </g>
            <path id="Trazado_4424" data-name="Trazado 4424" d="M325.268,152.318c.2,8.246-.772,12.074-.919,31.748s.055,34.319.055,34.319a2.449,2.449,0,0,1-2.7-.205c.163-2.434-10.689-27.757-10.106-40.961a168.178,168.178,0,0,1,3.352-23.972Z" transform="translate(-303.517 -151.569)" fill="#ffb476"/>
            <path id="Trazado_4425" data-name="Trazado 4425" d="M313.741,153.246s-.8,3.688-1.635,8.76a55.722,55.722,0,0,0,11.758-.557c.169-3.2.28-5.815.2-9.132Z" transform="translate(-302.311 -151.569)" fill="#ed9558"/>
          </g>
          <path id="Trazado_4426" data-name="Trazado 4426" d="M307.447,134.2s-1.176,3.17-1.277,12.94c-.163,15.39,7.379,33.3,10.184,49.184a49.667,49.667,0,0,0,25.47,0c3.867-10.119,8.643-38.534,8.457-49.184a55.242,55.242,0,0,0-1.456-12.94Z" transform="translate(-306.167 -17.733)" fill="#3d3d5b"/>
          <path id="Trazado_4427" data-name="Trazado 4427" d="M349.136,137.451a31.8,31.8,0,0,0-.658-3.248H307.1a22.132,22.132,0,0,0-.779,4.167C314.7,146.5,340.675,142.621,349.136,137.451Z" transform="translate(-305.82 -17.733)" fill="#323249"/>
          <path id="Trazado_4428" data-name="Trazado 4428" d="M340.935,135.3l-33.488-1.1s-1.176,3.17-1.277,12.94c-.163,15.39,7.379,33.3,10.184,49.184a50.843,50.843,0,0,0,19.5,1.205C343.841,179.97,342.834,138.663,340.935,135.3Z" transform="translate(-306.167 -17.733)" fill="#323249"/>
          <path id="Trazado_4429" data-name="Trazado 4429" d="M326.128,122.057l2.931-4.327,1.571,2.2-2.512,5.862Z" transform="translate(-261.097 -54.928)" fill="#ffb476"/>
          <path id="Trazado_4430" data-name="Trazado 4430" d="M318.69,105.875a35.243,35.243,0,0,0,.73,4.6,6.056,6.056,0,0,0,1.723,2.877c-.44,1.652-2.668,2.039-2.668,2.039Z" transform="translate(-278.378 -81.695)" fill="#d1652f"/>
          <path id="Trazado_4431" data-name="Trazado 4431" d="M325.548,128.8c-1.088-4.564-.867-10.132.124-16.283l-12.836-2.75s-.221,11.9-2.362,18.974C310.441,130.415,325.548,128.8,325.548,128.8Z" transform="translate(-296.443 -72.916)" fill="#d1652f"/>
          <path id="Trazado_4432" data-name="Trazado 4432" d="M318.6,106.476a1.888,1.888,0,0,0,1.714.186,1.934,1.934,0,0,1-1.642,1.293Z" transform="translate(-278.098 -80.338)" fill="#3a1b0b"/>
          <path id="Trazado_4433" data-name="Trazado 4433" d="M323.354,99.817s4.639-.557,5.884,9.05c0,0,.033,6.115-.381,10.556-.316,3.424.909,5.734.6,8.568-.27,2.538-2.691,5.486-5.464,12.188,0,0-1.815.7-9.77-2.769Z" transform="translate(-287.974 -95.386)" fill="#ffb476"/>
          <path id="Trazado_4434" data-name="Trazado 4434" d="M327.944,122.857s-4.913-4.268-5.278-5.916.531-9.458.531-9.458l-7.073.248-3.649,12.54S326.785,123.694,327.944,122.857Z" transform="translate(-291.923 -78.064)" fill="#d1652f"/>
          <path id="Trazado_4435" data-name="Trazado 4435" d="M320.335,106.243c.368-.345.394-1.385-.867-1.023a1.778,1.778,0,0,0-1.144,1.062.1.1,0,0,0,0,.055C318.465,106.82,320.172,106.4,320.335,106.243Z" transform="translate(-278.722 -83.343)" fill="#c73700"/>
          <path id="Trazado_4436" data-name="Trazado 4436" d="M308.658,111.648c0,.029.013.055.016.085a15.105,15.105,0,0,1,3.59-7.728c8.461-8.865,24.656-5.232,29.435-1.951a11.309,11.309,0,0,1,4.395,3.7l-.007-.091c4.16,6.359-6.2,8.422-7.33,15.123-.316,1.85-.215,5.431-.925,5.437-.674,0-1.176-.915-1.658-1.9l-2.564,5.4c-2.368-4.721-3.916,8.184-13.5,8.686C314.955,138.675,304.725,127.158,308.658,111.648Z" transform="translate(-302.53 -98.453)" fill="#c73700"/>
          <path id="Trazado_4437" data-name="Trazado 4437" d="M339.184,154.739c0,5.353,7.18,14.657,8.933,24.587-6.431,5.4-35.449,10.034-41.378,0,3.779-13.638,9.933-18.674,9.819-26.226-.1-7.031-15.244-20.727-8.216-35.065,15.781-7.6,32.5-1.88,35.159.384,3.375,12.155,7.715,16.736,7.343,20.29C350.274,144.131,339.184,149.383,339.184,154.739Z" transform="translate(-305.459 -62.856)" fill="#5c5c99"/>
          <path id="Trazado_4438" data-name="Trazado 4438" d="M342.641,148.829c3.307-3.352,7.845-6.7,8.2-10.119.371-3.554-3.968-8.135-7.343-20.29-2.655-2.264-19.378-7.988-35.159-.384-7.03,14.338,8.112,28.034,8.216,35.065.114,7.552-6.04,12.588-9.819,26.226,4.587,7.767,22.975,6.737,34.048,3.375C339.474,171,329.961,160.232,342.641,148.829Z" transform="translate(-305.459 -62.856)" fill="#4d4d84"/>
          <path id="Trazado_4439" data-name="Trazado 4439" d="M325.986,102.083s1.469.86,1.2,3.486c-.375,3.623-5.721,8.571-10.79,8.656C316.392,114.225,323.634,108.573,325.986,102.083Z" transform="translate(-283.081 -90.257)" fill="#c73700"/>
          <path id="Trazado_4440" data-name="Trazado 4440" d="M329.008,119.356l-1.17-3.841s-5.457-4.235-15.905-2.629l-2.219,6.043S314.423,117.571,329.008,119.356Z" transform="translate(-298.157 -66.686)" fill="#f4e4ec"/>
          <path id="Trazado_4441" data-name="Trazado 4441" d="M338.772,107.164c-.622-4.245-10.028-8.721-17.3-8.487-11.139.358-14.553,8.343-5.978,13.054C328.5,118.87,339.29,110.718,338.772,107.164Z" transform="translate(-295.981 -97.967)" fill="#d64900"/>
          <path id="Trazado_4442" data-name="Trazado 4442" d="M320.683,115.162c3.864-.691,6.653,9.275,11.826,20.346,5.265,11.272,11.9,23.268,6.949,25.734C328.4,166.741,305.074,117.951,320.683,115.162Z" transform="translate(-285.176 -60.801)" fill="#f4e4ec"/>
          <path id="Trazado_4443" data-name="Trazado 4443" d="M336.857,118.33A109.179,109.179,0,0,0,322.825,137.5s-3.841,21,2.583,16.518,14.384-30.748,14.384-30.748Z" transform="translate(-271.127 -53.573)" fill="#f4e4ec"/>
          <g id="Grupo_28499" data-name="Grupo 28499" transform="translate(67.778 58.044)">
            <path id="Trazado_4444" data-name="Trazado 4444" d="M333.515,118.24a4.212,4.212,0,0,0-1.381-.788,41.931,41.931,0,0,0-4.665.847C326.334,118.507,333.73,119.582,333.515,118.24Z" transform="translate(-326.118 -113.615)" fill="#ed9558"/>
            <path id="Trazado_4445" data-name="Trazado 4445" d="M329.845,119.75c2.623-.433,5.88-1.821,5.564-2.43-.362-.694-3.857,1.261-6.425,1.342Z" transform="translate(-322.426 -114.233)" fill="#ed9558"/>
            <path id="Trazado_4446" data-name="Trazado 4446" d="M329.426,119.606c2.225-.593,4.919-2.062,4.594-2.561-.368-.57-3.219,1.411-5.424,1.7Z" transform="translate(-323.306 -114.749)" fill="#ed9558"/>
            <path id="Trazado_4447" data-name="Trazado 4447" d="M327.165,118.395c.71-1.046,2.476-1.16,4.2-.889.925.691,4.258.564,4.147,1.727-.029.668-4.884.642-6.688,1.489C328.827,120.721,326.259,119.731,327.165,118.395Z" transform="translate(-326.972 -113.76)" fill="#ffb476"/>
            <path id="Trazado_4448" data-name="Trazado 4448" d="M327.031,120.9a12.093,12.093,0,0,1,3.685-3.046c.5-.336,1.945-1.834,2.444-1.554s-.173,1.1-.834,1.831a6.485,6.485,0,0,0-1.388,2.942Z" transform="translate(-326.837 -116.269)" fill="#ffb476"/>
            <path id="Trazado_4449" data-name="Trazado 4449" d="M329.952,119.022c3.072-.756,5.382-.218,5.457-.9.075-.707-4.747-.525-6.216-.261Z" transform="translate(-321.956 -113.208)" fill="#ffb476"/>
          </g>
          <path id="Trazado_4450" data-name="Trazado 4450" d="M327.859,107.679c.153-1.339-3.659-1.284-7.777-2.108-5.659-1.127-8.119-2.743-8.526-2.287s1.593,3.261,7.014,5.037C322.481,109.6,327.612,109.875,327.859,107.679Z" transform="translate(-294.112 -87.724)" fill="#d64900"/>
          <g id="Grupo_28500" data-name="Grupo 28500" transform="translate(32.331 69.693)">
            <path id="Trazado_4451" data-name="Trazado 4451" d="M338.323,147.009c4.871-2.421,12.171-20.8,14.1-27.164-1.932,6.363-9.513,28.327-14.384,30.748-5.307,3.708-16.882-10.829-21.952-26.653C321.512,137.024,332.683,150.948,338.323,147.009Z" transform="translate(-316.091 -119.845)" fill="#dbb4d1"/>
          </g>
          <path id="Trazado_4452" data-name="Trazado 4452" d="M307.863,103.994c-.981,12.989,7.63,22.141,12.224,21.9,9.295-.485,11.034-12.579,13.289-9.021l.41-1.512C324.01,119.436,310.089,115.188,307.863,103.994Z" transform="translate(-302.511 -85.942)" fill="#c73700" opacity="0.3" style="mix-blend-mode: multiply;isolation: isolate"/>
          <g id="Grupo_28501" data-name="Grupo 28501" transform="translate(28.025 23.882)">
            <path id="Trazado_4453" data-name="Trazado 4453" d="M315.064,110.681c.74,2.046,2.626,3.238,4.216,2.662s2.281-2.7,1.544-4.743-2.626-3.235-4.216-2.662S314.328,108.639,315.064,110.681Z" transform="translate(-314.77 -105.76)" fill="#ed9558"/>
            <path id="Trazado_4454" data-name="Trazado 4454" d="M315.265,110.672c.736,2.046,2.623,3.235,4.212,2.662s2.284-2.7,1.544-4.744-2.623-3.238-4.212-2.662S314.525,108.629,315.265,110.672Z" transform="translate(-314.321 -105.783)" fill="#ffb476"/>
            <path id="Trazado_4455" data-name="Trazado 4455" d="M316.456,106.346a1.818,1.818,0,0,1,1.929.648,1.36,1.36,0,0,0-1.085-.121,1.838,1.838,0,0,0-.792,2.43,2.046,2.046,0,0,0,1.593,1.414c-.02.007-.033.029-.052.036a2.417,2.417,0,0,1-1.593-4.408Z" transform="translate(-313.431 -104.702)" fill="#d1652f"/>
          </g>
          <path id="Trazado_4456" data-name="Trazado 4456" d="M319.888,114.365s5.242,17.417-11.608,18.586Z" transform="translate(-301.397 -62.525)" fill="#4d4d84" opacity="0.2" style="mix-blend-mode: multiply;isolation: isolate"/>
          <g id="Grupo_28502" data-name="Grupo 28502" transform="translate(2.993 33.185)">
            <path id="Trazado_4457" data-name="Trazado 4457" d="M315.9,112.894c-.557,1.5-2.525,2.16-4.395,1.466s-2.935-2.476-2.378-3.981,2.525-2.157,4.395-1.463S316.462,111.392,315.9,112.894Z" transform="translate(-302.801 -108.639)" fill="#323249"/>
            <path id="Trazado_4458" data-name="Trazado 4458" d="M312.9,138.127c.446,5.125-1.919,7.2-1.919,7.2a16.021,16.021,0,0,0,9.347-7.79c4.558-8.474,1.593-14.162-.365-18.664-2.1-4.828,1.153-7.135-1.671-9.37-1.538-1.215-4.258-.57-6.532,1.3C300.864,119.749,312.368,132.126,312.9,138.127Z" transform="translate(-307.086 -108.086)" fill="#c73700"/>
            <path id="Trazado_4459" data-name="Trazado 4459" d="M317.907,137.538c4.558-8.474,1.593-14.162-.365-18.664-2.1-4.828,1.153-7.135-1.671-9.37-1.538-1.215-4.258-.57-6.532,1.3a15.812,15.812,0,0,0-1.183,1.134c.564-.424,2.46-2.349,4.454-1.632,1.834.658-.218,4.007.482,8.484s4.346,5.61,4.763,12.044c.56,8.571-9.295,14.494-9.295,14.494A16.021,16.021,0,0,0,317.907,137.538Z" transform="translate(-304.669 -108.086)" fill="#c73700" opacity="0.3" style="mix-blend-mode: multiply;isolation: isolate"/>
          </g>
        </g>
        <g id="Grupo_28519" data-name="Grupo 28519" transform="translate(398.094 99.274)">
          <g id="Grupo_28506" data-name="Grupo 28506" transform="translate(0 51.91)">
            <g id="Grupo_28504" data-name="Grupo 28504" transform="translate(4.679)">
              <path id="Trazado_4460" data-name="Trazado 4460" d="M345.39,114.861c-7.826-2.1-4.542,11.038-.87,24.815,3.418,12.8,5.74,21.867,11.269,20.486C364.006,158.107,351.564,116.52,345.39,114.861Z" transform="translate(-322.556 -114.639)" fill="#a04ba0"/>
              <path id="Trazado_4461" data-name="Trazado 4461" d="M369.571,135.519c-6.164,6.587-34.511-5.05-34.511-5.05l1.378-5.343s18.6,2.258,25.1,1.163Z" transform="translate(-335.06 -90.959)" fill="#a04ba0"/>
            </g>
            <g id="Grupo_28505" data-name="Grupo 28505" transform="translate(0 7.634)">
              <path id="Trazado_4462" data-name="Trazado 4462" d="M341.4,165.867l28.065-6.972-7.538-41.912-28.065,6.972Z" transform="translate(-333.092 -116.982)" fill="#ddc6b8"/>
              <path id="Trazado_4463" data-name="Trazado 4463" d="M341.291,166.055l28.065-6.972-7.538-41.912-28.065,6.972Z" transform="translate(-333.333 -116.556)" fill="#eadace"/>
              <path id="Trazado_4464" data-name="Trazado 4464" d="M341.358,167.732l29.469-7.321-7.734-43-29.469,7.321Z" transform="translate(-333.624 -116.015)" fill="#ff9334"/>
              <path id="Trazado_4465" data-name="Trazado 4465" d="M370.826,160.411l-7.734-43-29.469,7.321Z" transform="translate(-333.624 -116.015)" fill="#ff852f"/>
            </g>
            <path id="Trazado_4466" data-name="Trazado 4466" d="M339.073,125.05c.375.143.511.775-.593,1.072,0,0,1.541-.117,1.58.476s-1.28,1.131-1.28,1.131,1.1-.2,1.241.231-.971,1.052-1.857,1.3c0,0,.626-.016.73.336.179.593-1.691,1.759-3.206,2.43l-1.023-6.535Z" transform="translate(-331.273 -91.131)" fill="#e2711e" opacity="0.4" style="mix-blend-mode: multiply;isolation: isolate"/>
            <path id="Trazado_4467" data-name="Trazado 4467" d="M335,125.5c.759-.629,5.014-.7,5.125-.254.186.759-4.128.863-4.05,1.231s4.656-.632,4.8.117c.173.932-4.587,1.173-4.444,1.662.124.42,4.291-.756,4.424-.231.244.971-4.128,1.46-4.085,1.792.033.293,2.753-.521,2.952-.007s-3.6,1.388-4.037.951a7.934,7.934,0,0,1-1.476-3.121A6.624,6.624,0,0,1,335,125.5Z" transform="translate(-332.321 -91.328)" fill="#ffb476"/>
          </g>
          <path id="Trazado_4468" data-name="Trazado 4468" d="M362.337,103.685s4.441-1.763,3.808,8.813c-.84,14.058-13.758,19.16-17.954,16.013C342.545,124.278,362.337,103.685,362.337,103.685Z" transform="translate(-303.02 -87.709)" fill="#aa4805"/>
          <g id="Grupo_28509" data-name="Grupo 28509" transform="translate(17.55 99.185)">
            <path id="Trazado_4469" data-name="Trazado 4469" d="M340.757,146.9s1.756,14.136,2.776,22c1.427,11,1.336,13.826,3.538,32.621s1.489,30.917,1.489,30.917l2.59.323s8.848-31.217,7.239-41.6-6.467-21.281-6.467-21.281l2.769-23.447Z" transform="translate(-335.068 -90.139)" fill="#ed9558"/>
            <g id="Grupo_28507" data-name="Grupo 28507" transform="translate(5.949 142.251)">
              <path id="Trazado_4470" data-name="Trazado 4470" d="M344.724,183.718s-3.818,1.548-3.887,2.294,4.59.837,7.578.544c1.372-.134,1.5-4.522,2.743-6.952s2.469-2.427-.27-6.695l-2.7,8.653Z" transform="translate(-340.837 -172.598)" fill="#2d313d"/>
              <path id="Trazado_4471" data-name="Trazado 4471" d="M345.734,172.813s-1.023,3.32-1.743,5.679a26.412,26.412,0,0,1-1.961,5.441,4.974,4.974,0,0,0,3.242.277c1.411-.538,1.5-3.782,3.877-7.431.854-1.31-1.075-3.857-1.075-3.857Z" transform="translate(-338.143 -172.813)" fill="#ed9558"/>
              <path id="Trazado_4472" data-name="Trazado 4472" d="M348.194,172.908a13.781,13.781,0,0,1-.267,3.248c-.349,1.505-1.635,9.324-5.9,7.562,0,0,1.3,2.913,3.085,1.968s2.329-4.59,3.183-6.486S351.018,176.974,348.194,172.908Z" transform="translate(-338.143 -172.598)" fill="#2d313d"/>
              <path id="Trazado_4473" data-name="Trazado 4473" d="M345.806,174.3a52.145,52.145,0,0,0-1.443,9.129l-.616,0a34.565,34.565,0,0,0,.049-6.086Z" transform="translate(-334.266 -169.462)" fill="#2d313d"/>
            </g>
            <path id="Trazado_4474" data-name="Trazado 4474" d="M368.13,138.231c2.551,7.229-5.291,25.672-5.291,25.672s-5.516,42.779-5.118,44.982c.642,3.561,2.952,11.579,4.61,21.281s-6.1,39.707-6.1,39.707h-4.281s-.4-18.234-1.922-30.217c-8.7-68.569-13.005-82.079-10.139-100.2C345.143,117,368.13,138.231,368.13,138.231Z" transform="translate(-339.011 -129.15)" fill="#323249"/>
            <path id="Trazado_4475" data-name="Trazado 4475" d="M345.6,147.114s-.068,13.426,1.029,21.29c1.534,11,1.469,13.826,3.854,32.621s1.789,30.917,1.789,30.917l2.593.323s8.545-31.217,6.835-41.6-6.672-21.281-6.672-21.281l4.5-22.737Z" transform="translate(-324.134 -89.647)" fill="#ffb476"/>
            <g id="Grupo_28508" data-name="Grupo 28508" transform="translate(20.55 142.251)">
              <path id="Trazado_4476" data-name="Trazado 4476" d="M349.209,183.718s-3.821,1.548-3.89,2.294,4.587.837,7.575.544c1.372-.134,1.505-4.522,2.756-6.952s2.476-2.427-.257-6.695l-2.717,8.653Z" transform="translate(-345.319 -172.598)" fill="#2d313d"/>
              <path id="Trazado_4477" data-name="Trazado 4477" d="M350.24,172.813s-1.03,3.32-1.756,5.679a26.321,26.321,0,0,1-1.971,5.441,4.974,4.974,0,0,0,3.242.277c1.411-.538,1.508-3.782,3.893-7.431.854-1.31-1.069-3.861-1.069-3.861Z" transform="translate(-342.622 -172.813)" fill="#ffb476"/>
              <path id="Trazado_4478" data-name="Trazado 4478" d="M352.7,172.908a13.58,13.58,0,0,1-.274,3.248c-.349,1.505-1.652,9.324-5.91,7.562,0,0,1.29,2.913,3.082,1.968s2.336-4.59,3.193-6.486S355.514,176.974,352.7,172.908Z" transform="translate(-342.622 -172.598)" fill="#2d313d"/>
              <path id="Trazado_4479" data-name="Trazado 4479" d="M350.307,174.3a52.034,52.034,0,0,0-1.463,9.129l-.616,0a34.551,34.551,0,0,0,.059-6.086Z" transform="translate(-338.75 -169.462)" fill="#2d313d"/>
            </g>
            <path id="Trazado_4480" data-name="Trazado 4480" d="M371.49,132.856c7.011,21.9-8.956,61.766-8.33,68.9.293,3.32,1.964,13.331,3.6,23.033s-5.336,39.707-5.336,39.707h-4.281s-.15-17.358-1.6-29.344-3.486-23.056-4.177-34.426c-.368-6.056-3.378-46.256-3.378-46.256h-3.636l-1-22.942Z" transform="translate(-329.196 -123.775)" fill="#3d3d5b"/>
          </g>
          <path id="Trazado_4481" data-name="Trazado 4481" d="M347.193,100.227s-4.2-.632-5.548,4.353,2.29,9.969,2.29,9.969l5.659-9.295Z" transform="translate(-316.191 -95.327)" fill="#ba5604"/>
          <path id="Trazado_4482" data-name="Trazado 4482" d="M382.072,135.713l-.955-3.776-41.463,1.753s-.4,2.987-.56,4.2A115.263,115.263,0,0,0,382.072,135.713Z" transform="translate(-321.273 -23.671)" fill="#323249"/>
          <path id="Trazado_4483" data-name="Trazado 4483" d="M342.008,121.914s3.1-10.507,2.248-15.048c1.254-10.011,25.669-12.787,30.52,3.111,5.16,16.915-8.22,27.22-13.449,28.178C358.477,138.679,342.008,121.914,342.008,121.914Z" transform="translate(-314.693 -98.705)" fill="#ba5604"/>
          <path id="Trazado_4484" data-name="Trazado 4484" d="M363.879,148.994c.293-1.632,6.718-6.457,10.168-13.709,4.421-9.292,3.5-14.491,3.5-14.491-11.579-6.8-18.3-8.809-32.774-4.659l-1.648,8.529s-3.492,6.151-3.395,9.138c.671,4.313,8.894,12.181,8.438,16.6Z" transform="translate(-319.838 -64.21)" fill="#a04ba0"/>
          <path id="Trazado_4485" data-name="Trazado 4485" d="M365.562,117.976c-.088.1-8.151,9.406-18.87,11.412a30.859,30.859,0,0,1-3.942-14.439C352.159,112.956,357.926,114.06,365.562,117.976Z" transform="translate(-313.022 -64.221)" fill="#f4e4ec"/>
          <path id="Trazado_4486" data-name="Trazado 4486" d="M380.729,158.74c-4.773-13.778-16.237-21.072-15.8-23.483.267-1.492,6.855-6.421,10.315-14.087-24.884,3.851-34.462-1.1-34.462-1.1l.15,1.212c1.267,3.685,8.692,11.478,8.288,15.39-.459,4.421-7.754,10.718-9.95,23.828C350.219,161.94,366.909,161.256,380.729,158.74Z" transform="translate(-320.885 -50.474)" fill="#833a87"/>
          <g id="Grupo_28510" data-name="Grupo 28510" transform="translate(18.381 106.914)">
            <path id="Trazado_4487" data-name="Trazado 4487" d="M380.2,131.522c.176.45.362.886.525,1.352-13.82,2.515-30.51,3.2-41.463,1.753.081-.5.218-.922.316-1.4C350.4,134.6,366.613,133.939,380.2,131.522Z" transform="translate(-339.266 -131.522)" fill="#dbb4d1"/>
          </g>
          <path id="Trazado_4488" data-name="Trazado 4488" d="M360.245,108.462s-4.682,12.152-2.759,21.127l-8.969.567-4.616-1.31a36.349,36.349,0,0,0,2.812-12.569C346.959,110.909,360.245,108.462,360.245,108.462Z" transform="translate(-310.422 -76.675)" fill="#ed9558"/>
          <path id="Trazado_4489" data-name="Trazado 4489" d="M344.406,122.676a38.7,38.7,0,0,0,1.088-6.591c3.75-3.486,11.276-6.428,13.2-7.06-1.157,3.633-3.437,10.715-2.486,17.2,1.238.469-5.744,4.46-7.887,2.01A26.9,26.9,0,0,1,344.406,122.676Z" transform="translate(-309.279 -75.404)" fill="#d87239"/>
          <path id="Trazado_4490" data-name="Trazado 4490" d="M349.186,137.51c-1.306-.28-3.059-2.877-4.222-4.252-2.473-2.916-4.685-6.385-2.3-13.26,0,0-3.665-18.645,11.373-18.759s16.009,14.879,11.65,25.656A16.809,16.809,0,0,1,349.186,137.51Z" transform="translate(-315.522 -92.984)" fill="#ffb476"/>
          <path id="Trazado_4491" data-name="Trazado 4491" d="M352.679,101.354c10.269,2.873,8.682,34.833-8.77,35.83.052.02.107.052.156.065a16.809,16.809,0,0,0,16.5-10.614C364.525,116.852,364.046,103.628,352.679,101.354Z" transform="translate(-310.401 -92.724)" fill="#ed9558"/>
          <path id="Trazado_4492" data-name="Trazado 4492" d="M345.115,105.15s2.691,2.9,1.893,6.457a5.492,5.492,0,0,1-3.913,4.232s.58,2.629,2.939,2.782-1.7-2.528-1.7-2.528,3.313-1.759,3.789-4.349C348.8,108.066,345.115,105.15,345.115,105.15Z" transform="translate(-312.239 -84.153)" fill="#ed9558"/>
          <path id="Trazado_4493" data-name="Trazado 4493" d="M345.832,105.562c-.085.394,1.267.368,3.73,1.052,2.248.626,3.861,1.577,3.971,1.189s-1.007-1.746-3.632-2.518C347.363,104.543,346,104.8,345.832,105.562Z" transform="translate(-306.069 -84.849)" fill="#ba5604"/>
          <path id="Trazado_4494" data-name="Trazado 4494" d="M341.779,106.979c.111.463.4-.176,2.479-.71,1.678-.43,3.525-.459,3.506-.782-.062-.977-2.1-.906-3.629-.388C342.049,105.813,341.7,106.673,341.779,106.979Z" transform="translate(-315.233 -85.109)" fill="#ba5604"/>
          <g id="Grupo_28511" data-name="Grupo 28511" transform="translate(29.663 35.767)">
            <path id="Trazado_4495" data-name="Trazado 4495" d="M345.732,110.314c.039.117.4.1.518.062a.222.222,0,1,0-.143-.42C345.993,110,345.693,110.2,345.732,110.314Z" transform="translate(-335.955 -109.094)" fill="#93271c"/>
            <path id="Trazado_4496" data-name="Trazado 4496" d="M343.309,110.21c-.082.091-.411-.059-.5-.137a.218.218,0,0,1-.026-.309.215.215,0,0,1,.309-.026C343.185,109.815,343.387,110.115,343.309,110.21Z" transform="translate(-342.729 -109.683)" fill="#93271c"/>
            <path id="Trazado_4497" data-name="Trazado 4497" d="M352.532,110.533l-9.692-.727a6,6,0,0,0,4.473,3.313C350.408,113.416,352.532,110.533,352.532,110.533Z" transform="translate(-342.478 -109.407)" fill="#9a6335"/>
            <path id="Trazado_4498" data-name="Trazado 4498" d="M352.532,110.533l-9.692-.727a6,6,0,0,0,4.473,3.313C350.408,113.416,352.532,110.533,352.532,110.533Z" transform="translate(-342.478 -109.407)" fill="#93271c"/>
            <path id="Trazado_4499" data-name="Trazado 4499" d="M351.03,110.509l-7.848-.6s1.336,2.629,3.948,2.619A4.85,4.85,0,0,0,351.03,110.509Z" transform="translate(-341.706 -109.172)" fill="#f4e6e1"/>
            <path id="Trazado_4500" data-name="Trazado 4500" d="M351.03,110.509l-7.848-.6.4.622a7.494,7.494,0,0,1,3.45-.169,14.818,14.818,0,0,1,3.587.645S350.916,110.656,351.03,110.509Z" transform="translate(-341.706 -109.172)" fill="#d5b698"/>
          </g>
          <path id="Trazado_4501" data-name="Trazado 4501" d="M360.225,104.215c10.08,6.131,5.134,19.231,5.134,19.231s-1.675,1.137-2.336.961c-.99-.264-.342-1.121-.2-5.291-.381-7.962-6.988-8.65-15.736-11.471-4.994-1.609-4.408-5.923-4.408-5.923S348.337,97.247,360.225,104.215Z" transform="translate(-313.213 -95.087)" fill="#ba5604"/>
          <g id="Grupo_28512" data-name="Grupo 28512" transform="translate(39.095 24.483)">
            <path id="Trazado_4502" data-name="Trazado 4502" d="M345.668,106.956s-.329,2.658,3.307,2.46c2.176-.235,2.557-1.73,2.329-1.831S345.668,106.956,345.668,106.956Z" transform="translate(-345.541 -104.558)" fill="#562824"/>
            <path id="Trazado_4503" data-name="Trazado 4503" d="M345.663,108.618l5.444.8,1.385-.349a5.824,5.824,0,0,0-2.9-2.671C347.878,105.852,345.715,106.565,345.663,108.618Z" transform="translate(-345.536 -106.22)" fill="#562824"/>
            <path id="Trazado_4504" data-name="Trazado 4504" d="M345.665,108.176c.094-.915,1.072-2.043,3.01-1.665,1.912.368,2.711,1.873,2.293,2.786C350.271,110.818,345.544,110.938,345.665,108.176Z" transform="translate(-345.537 -105.733)" fill="#f4e6e1"/>
            <path id="Trazado_4505" data-name="Trazado 4505" d="M349.794,108.5a2.085,2.085,0,1,1-2.059-2.111A2.081,2.081,0,0,1,349.794,108.5Z" transform="translate(-345.624 -105.843)" fill="#562824"/>
          </g>
          <g id="Grupo_28513" data-name="Grupo 28513" transform="translate(26.969 23.586)">
            <path id="Trazado_4506" data-name="Trazado 4506" d="M347.018,106.919s-.29,1.935-2.988,1.46c-2.046-.358-2.2-1.7-1.489-1.433A24.034,24.034,0,0,0,347.018,106.919Z" transform="translate(-341.326 -103.767)" fill="#562824"/>
            <path id="Trazado_4507" data-name="Trazado 4507" d="M347.593,109.1c-.873.345-2.782-.186-4.727-.746l-.964-.453a3.478,3.478,0,0,1,3.594-1.906A2.782,2.782,0,0,1,347.593,109.1Z" transform="translate(-341.902 -105.945)" fill="#562824"/>
            <path id="Trazado_4508" data-name="Trazado 4508" d="M346.975,108.1a2.277,2.277,0,0,0-2.75-1.893c-1.909.2-2.31,1.847-1.984,2.443C343.17,110.346,347.011,110.623,346.975,108.1Z" transform="translate(-341.365 -105.395)" fill="#f4e6e1"/>
            <path id="Trazado_4509" data-name="Trazado 4509" d="M345.969,108.094a1.922,1.922,0,1,1-1.9-1.945A1.919,1.919,0,0,1,345.969,108.094Z" transform="translate(-341.399 -105.483)" fill="#562824"/>
          </g>
          <path id="Trazado_4510" data-name="Trazado 4510" d="M343.156,114.586,344.785,123l5.118-5.069,3.043,6.486L362.7,116.9a18.343,18.343,0,0,0-3.838-1.528c-2.316-.779-5.349.264-7.793.1-1.544-.1-2.411-1.6-4.118-1.44C345.339,114.185,343.156,114.586,343.156,114.586Z" transform="translate(-312.101 -64.118)" fill="#dbb4d1"/>
          <path id="Trazado_4511" data-name="Trazado 4511" d="M354.248,113l2.617,5.428-8.337,5.929-3.155-6.744Z" transform="translate(-307.094 -66.429)" fill="#f4e4ec"/>
          <path id="Trazado_4512" data-name="Trazado 4512" d="M343.329,116.391l1.594,7.016,5.066-5.3-3.586-5.326Z" transform="translate(-311.71 -66.922)" fill="#f4e4ec"/>
          <g id="Grupo_28514" data-name="Grupo 28514" transform="translate(48.316 28.605)">
            <path id="Trazado_4513" data-name="Trazado 4513" d="M354.809,110.85a3.18,3.18,0,1,1-2.994-3.359A3.181,3.181,0,0,1,354.809,110.85Z" transform="translate(-348.454 -107.485)" fill="#ed9558"/>
            <path id="Trazado_4514" data-name="Trazado 4514" d="M350.37,107.831a2.026,2.026,0,0,0-1.232.365,1.831,1.831,0,0,1,.551-.078,1.767,1.767,0,0,1-.2,3.528,1.814,1.814,0,0,1-.42-.111,2.015,2.015,0,0,0,1.065.414,2.062,2.062,0,0,0,.238-4.118Z" transform="translate(-347.071 -106.711)" fill="#d87239"/>
          </g>
          <g id="Grupo_28516" data-name="Grupo 28516" transform="translate(55.137 122.833)">
            <g id="Grupo_28515" data-name="Grupo 28515" transform="translate(0 2.666)">
              <g id="wrist_left" data-name="wrist left">
                <path id="Trazado_4515" data-name="Trazado 4515" d="M354.187,137.416a6.836,6.836,0,0,0-1.521,1.961c-.512.981-.942,2.355-1.531,3.623a5.407,5.407,0,0,0-.58,1.359c.088.176.857.14,1.46-.945a15.986,15.986,0,0,1,1.541-2.183Z" transform="translate(-350.548 -136.798)" fill="#ffb476"/>
                <path id="Trazado_4516" data-name="Trazado 4516" d="M355.743,137.8a22.61,22.61,0,0,1,.44,6.682c-.384,3.1-1.042,3.89-1.368,3.828s-.085-.6.1-1.639c.156-.857.414-1.72.261-1.723a8,8,0,0,0-.629,2.049c-.052.3-.512,2.395-1.039,2.359-.5-.036-.169-1.528.019-2.339a8.673,8.673,0,0,0,.2-2.013,9.718,9.718,0,0,0-.424,2.144c-.049.309-.342,2.567-.834,2.58s-.57-.518-.264-2.443a11.785,11.785,0,0,0,.277-2.3c-.44-.013-.4,4.011-1.173,4.053-.391.02-.326-.88-.182-2.056.143-1.2.511-3.2.515-4.239a7.352,7.352,0,0,1,1.466-4.9S354.681,136.479,355.743,137.8Z" transform="translate(-349.479 -137.226)" fill="#ffb476"/>
              </g>
            </g>
            <path id="Trazado_4517" data-name="Trazado 4517" d="M354.574,139.652l.506-3.244-3.541.161.408,3.127Z" transform="translate(-348.31 -136.408)" fill="#ffb476"/>
          </g>
          <path id="Trazado_4518" data-name="Trazado 4518" d="M343.569,103.761c-2.134,4.353,19.117,12.8,24.64,5.926,2.916-3.626-2.805-8.741-9.63-10.24C352.473,98.109,345.442,99.943,343.569,103.761Z" transform="translate(-311.508 -98.011)" fill="#ce6f09"/>
          <path id="Trazado_4519" data-name="Trazado 4519" d="M344.715,100.858c-3.075-1.359-3.769,5.972-2.4,6.656S346.813,101.787,344.715,100.858Z" transform="translate(-315.514 -94.222)" fill="#ce6f09"/>
          <path id="Trazado_4520" data-name="Trazado 4520" d="M348.111,114.98l.632.156a69.465,69.465,0,0,1-4.238,11.878c-.14.029-.267.085-.41.111,0,0-.075-.127-.2-.345A67.567,67.567,0,0,0,348.111,114.98Z" transform="translate(-310.424 -61.958)" fill="#dbb4d1"/>
          <path id="Trazado_4521" data-name="Trazado 4521" d="M354.095,115.992c4.809,2.355,7.22,19.215,8.174,37.9.652,12.722-2.333,30.973-2.333,30.973l-5.363-.293s-.59-13.6-2.636-31.693C349.687,132.982,347.977,118.377,354.095,115.992Z" transform="translate(-296.928 -59.673)" fill="#a04ba0"/>
          <g id="Grupo_28518" data-name="Grupo 28518" transform="translate(38.591 67.824)">
            <path id="Trazado_4522" data-name="Trazado 4522" d="M354.184,126.864l-8.715-1.315,1.323-5.955,8.715,1.316Z" transform="translate(-345.469 -119.364)" fill="#f4e4ec"/>
            <path id="Trazado_4523" data-name="Trazado 4523" d="M349.553,120.8l-2.795-.422.173-.856,2.795.422Z" transform="translate(-342.559 -119.523)" fill="#8f9ed8"/>
            <g id="Grupo_28517" data-name="Grupo 28517" transform="translate(1.964 1.469)">
              <path id="Trazado_4524" data-name="Trazado 4524" d="M352.158,120.844l-5.762-.87-.217.976,5.762.87Z" transform="translate(-345.831 -119.974)" fill="#dbb4d1"/>
              <path id="Trazado_4525" data-name="Trazado 4525" d="M352.021,121.367l-5.762-.87-.187.843,5.762.87Z" transform="translate(-346.072 -118.795)" fill="#dbb4d1"/>
              <path id="Trazado_4526" data-name="Trazado 4526" d="M346.327,121.808l3.574.539.173-.844-3.574-.539Z" transform="translate(-345.496 -117.741)" fill="#dbb4d1"/>
            </g>
          </g>
        </g>
      </g>
    </g>
  </g>
</svg>
