<svg xmlns="http://www.w3.org/2000/svg" width="100.115" height="134.849" viewBox="0 0 100.115 134.849">
  <g id="viajero" transform="translate(-65.94)">
    <path id="Trazado_101490" data-name="Trazado 101490" d="M72.723,255.026a6.783,6.783,0,0,1-6.783-6.783v-13.66a6.783,6.783,0,0,1,6.783-6.783h86.549a6.783,6.783,0,0,1,6.783,6.783v13.66a6.783,6.783,0,0,1-6.783,6.783Z" transform="translate(0 -167.804)" fill="#8ac9fe"/>
    <path id="Trazado_101491" data-name="Trazado 101491" d="M165.919,233.231H86.29a6.782,6.782,0,0,0-6.783,6.783v13.658a6.767,6.767,0,0,0,.136,1.357H72.723a6.782,6.782,0,0,1-6.783-6.783V234.587a6.782,6.782,0,0,1,6.783-6.783h86.547A6.785,6.785,0,0,1,165.919,233.231Z" transform="translate(0 -167.806)" fill="#60b7ff"/>
    <path id="Trazado_101492" data-name="Trazado 101492" d="M127.3,247.555v-28a1.9,1.9,0,0,1,1.9-1.9h4.16a1.9,1.9,0,0,1,1.9,1.9v28Z" transform="translate(-45.201 -160.333)" fill="#d8ecfe"/>
    <path id="Trazado_101493" data-name="Trazado 101493" d="M362.391,247.556v-28a1.9,1.9,0,0,0-1.9-1.9h-4.16a1.9,1.9,0,0,0-1.9,1.9v28Z" transform="translate(-212.511 -160.333)" fill="#d8ecfe"/>
    <path id="Trazado_101494" data-name="Trazado 101494" d="M178.181,310.327v37.321H91.563V310.327a21.442,21.442,0,0,1,21.443-21.443h43.732c.456,0,.909.014,1.357.043a20.644,20.644,0,0,1,2.26.26,21.325,21.325,0,0,1,8.14,3.2,21.422,21.422,0,0,1,9.686,17.935Z" transform="translate(-18.875 -212.799)" fill="#b0ef9a"/>
    <path id="Trazado_101495" data-name="Trazado 101495" d="M364.26,337.984v9.784h-.952l-12.435-10.308a18.468,18.468,0,0,1-6.7-14.264V289.048a20.629,20.629,0,0,1,2.26.26,21.191,21.191,0,0,1,5.877,1.907V323.2a10.355,10.355,0,0,0,3.758,8Z" transform="translate(-204.954 -212.92)" fill="#9be27d"/>
    <path id="Trazado_101496" data-name="Trazado 101496" d="M171.007,294.324c-.233-.011-.467-.014-.7-.014H126.572a21.442,21.442,0,0,0-21.443,21.443v31.895H91.563V310.327a21.442,21.442,0,0,1,21.443-21.443h43.732a21.478,21.478,0,0,1,3.617.3,21.368,21.368,0,0,1,10.652,5.136Z" transform="translate(-18.875 -212.799)" fill="#9be27d"/>
    <path id="Trazado_101497" data-name="Trazado 101497" d="M239.009,235.87v14.112a9.456,9.456,0,0,1-18.911,0V235.87Z" transform="translate(-113.556 -173.747)" fill="#fed2a4"/>
    <path id="Trazado_101498" data-name="Trazado 101498" d="M229.674,249.419c2.384-1.219,5.8-.848,8.42-1.846a4.937,4.937,0,0,0,.916-.372v-11.33H220.1v14.111a9.458,9.458,0,0,0,13.526,8.536,9.5,9.5,0,0,1-2.939-2.188C229.623,255.157,226.947,250.813,229.674,249.419Z" transform="translate(-113.557 -173.748)" fill="#ffbd86"/>
    <path id="Trazado_101499" data-name="Trazado 101499" d="M218.071,116.087l-28.342-4.441-24.767,4.441v12.141a23.977,23.977,0,0,0,47.908,1.481h5.2a3.561,3.561,0,0,0,3.561-3.561v-6.5A3.561,3.561,0,0,0,218.071,116.087Z" transform="translate(-72.942 -82.241)" fill="#fed2a4"/>
    <path id="Trazado_101500" data-name="Trazado 101500" d="M180.886,24.965H175.05L167.5,8.97A15.192,15.192,0,0,0,155.11.046c-.372-.03-.744-.046-1.121-.046H138.527a15.091,15.091,0,0,0-13.512,8.97l-7.548,15.995H110.71a4.312,4.312,0,0,0-4.314,4.311v.258a4.312,4.312,0,0,0,4.314,4.311h70.176a4.312,4.312,0,0,0,4.314-4.311v-.258a4.312,4.312,0,0,0-4.314-4.311Z" transform="translate(-29.801)" fill="#e19974"/>
    <path id="Trazado_101501" data-name="Trazado 101501" d="M124.277,103.667H110.711a4.312,4.312,0,0,1-4.314-4.311V99.1a4.312,4.312,0,0,1,4.314-4.311h13.566a4.312,4.312,0,0,0-4.314,4.311v.258A4.312,4.312,0,0,0,124.277,103.667Z" transform="translate(-29.802 -69.822)" fill="#dc8758"/>
    <path id="Trazado_101502" data-name="Trazado 101502" d="M203.47,19.581h-27.2A7.437,7.437,0,0,1,169.543,8.97,15.09,15.09,0,0,1,183.055,0H169.488a15.091,15.091,0,0,0-13.512,8.97l-7.548,15.995h57.583Z" transform="translate(-60.763 0)" fill="#dc8758"/>
    <path id="Trazado_101503" data-name="Trazado 101503" d="M140.585,128.5v0H135.43a3.561,3.561,0,0,0-3.561,3.561v6.5a3.561,3.561,0,0,0,3.561,3.561h5.206a23.975,23.975,0,0,0,22.228,22.437,23.93,23.93,0,0,1-8.712-18.491,12.142,12.142,0,0,1,12.142-12.142H188.54V128.5H140.585Z" transform="translate(-48.565 -94.659)" fill="#ffbd86"/>
    <g id="Grupo_55656" data-name="Grupo 55656" transform="translate(72.675 70.507)">
      <path id="Trazado_101504" data-name="Trazado 101504" d="M335.462,315.473a10.355,10.355,0,0,1-3.758-8V269.605a1.9,1.9,0,0,0-1.9-1.9h-4.341a1.9,1.9,0,0,0-1.9,1.9v37.872a18.47,18.47,0,0,0,6.7,14.263L342.7,332.047h6.378v-5.285Z" transform="translate(-262.448 -267.706)" fill="#fedba6"/>
      <path id="Trazado_101505" data-name="Trazado 101505" d="M105.13,315.473a10.355,10.355,0,0,0,3.758-8V269.605a1.9,1.9,0,0,1,1.9-1.9h4.341a1.9,1.9,0,0,1,1.9,1.9v37.872a18.47,18.47,0,0,1-6.7,14.263L97.892,332.047H91.514v-5.285Z" transform="translate(-91.513 -267.706)" fill="#fedba6"/>
    </g>
  </g>
</svg>
