<svg id="licencia" xmlns="http://www.w3.org/2000/svg" width="77" height="77" viewBox="0 0 77 77">
  <path id="Trazado_2987" data-name="Trazado 2987" d="M230.466,24a3.984,3.984,0,0,0-3.983,3.983V96.928A4.057,4.057,0,0,1,222.425,101a3.986,3.986,0,0,1-3.908-3.983V93.034H184V27.983A3.984,3.984,0,0,1,187.983,24Z" transform="translate(-157.448 -24)" fill="#ded7cb"/>
  <path id="Trazado_2988" data-name="Trazado 2988" d="M447.966,27.983v3.983H440V27.983a3.983,3.983,0,0,1,7.966,0Z" transform="translate(-370.966 -24)" fill="#c1b49a"/>
  <path id="Trazado_2989" data-name="Trazado 2989" d="M182.466,447.966H139.983A3.984,3.984,0,0,1,136,443.983V440h42.483v3.983A3.984,3.984,0,0,0,182.466,447.966Z" transform="translate(-117.414 -370.966)" fill="#c1b49a"/>
  <path id="Trazado_2990" data-name="Trazado 2990" d="M69.138,247.862H26.655A2.655,2.655,0,0,1,24,245.207V218.655A2.655,2.655,0,0,1,26.655,216H69.138a2.655,2.655,0,0,1,2.655,2.655v26.552A2.655,2.655,0,0,1,69.138,247.862Z" transform="translate(-24 -184.138)" fill="#ffec00"/>
  <path id="Trazado_2991" data-name="Trazado 2991" d="M272.891,42.026h0a2.655,2.655,0,0,0,0-3.755h0a2.655,2.655,0,0,1-.778-1.877V34.838a2.655,2.655,0,0,0-2.655-2.655H267.9a2.655,2.655,0,0,1-1.877-.778h0a2.655,2.655,0,0,0-3.755,0h0a2.655,2.655,0,0,1-1.877.778h-1.555a2.655,2.655,0,0,0-2.655,2.655v1.555a2.655,2.655,0,0,1-.778,1.877h0a2.655,2.655,0,0,0,0,3.755h0a2.655,2.655,0,0,1,.778,1.877v1.555a2.655,2.655,0,0,0,2.655,2.655h1.555a2.655,2.655,0,0,1,1.877.778h0a2.655,2.655,0,0,0,3.755,0h0a2.655,2.655,0,0,1,1.877-.778h1.555a2.655,2.655,0,0,0,2.655-2.655V43.9A2.655,2.655,0,0,1,272.891,42.026Z" transform="translate(-216.355 -29.528)" fill="#ffec00"/>
  <g id="Grupo_27262" data-name="Grupo 27262" transform="translate(3.983 6.787)">
    <path id="Trazado_2992" data-name="Trazado 2992" d="M229.31,123.948v-5.31H224L230.638,112v1.328a2.654,2.654,0,0,0,2.655,2.655h1.555a2.66,2.66,0,0,1,1.761.667Z" transform="translate(-194.793 -104.184)" fill="#f6be31"/>
    <path id="Trazado_2993" data-name="Trazado 2993" d="M331.318,123.948v-5.31h5.31L329.991,112v1.328a2.654,2.654,0,0,1-2.655,2.655h-1.555a2.66,2.66,0,0,0-1.761.667Z" transform="translate(-278.215 -104.184)" fill="#f6be31"/>
    <path id="Trazado_2994" data-name="Trazado 2994" d="M80,248h7.966v7.966H80Z" transform="translate(-74.69 -217.615)" fill="#f6be31"/>
    <path id="Trazado_2995" data-name="Trazado 2995" d="M65.259,322.655H49.328a1.328,1.328,0,0,1,0-2.655H65.259a1.328,1.328,0,0,1,0,2.655Z" transform="translate(-48 -277.667)" fill="#f6be31"/>
    <path id="Trazado_2996" data-name="Trazado 2996" d="M65.259,354.655H49.328a1.328,1.328,0,0,1,0-2.655H65.259a1.328,1.328,0,0,1,0,2.655Z" transform="translate(-48 -304.356)" fill="#f6be31"/>
    <path id="Trazado_2997" data-name="Trazado 2997" d="M193.259,322.655H177.328a1.328,1.328,0,1,1,0-2.655h15.931a1.328,1.328,0,1,1,0,2.655Z" transform="translate(-154.759 -277.667)" fill="#f6be31"/>
    <path id="Trazado_2998" data-name="Trazado 2998" d="M193.259,354.655H177.328a1.328,1.328,0,1,1,0-2.655h15.931a1.328,1.328,0,1,1,0,2.655Z" transform="translate(-154.759 -304.356)" fill="#f6be31"/>
    <circle id="Elipse_249" data-name="Elipse 249" cx="4.006" cy="4.006" r="4.006" transform="translate(27.841 30.377)" fill="#f6be31"/>
    <ellipse id="Elipse_250" data-name="Elipse 250" cx="4.006" cy="3.839" rx="4.006" ry="3.839" transform="translate(39.858)" fill="#f6be31"/>
  </g>
</svg>
