<svg xmlns="http://www.w3.org/2000/svg" width="708" height="479" viewBox="0 0 708 479">
  <g id="Grupo_55726" data-name="Grupo 55726" transform="translate(-180 -4479)">
    <rect id="Rectángulo_4521" data-name="Rectángulo 4521" width="708" height="479" rx="10" transform="translate(180 4479)" fill="#f3f9ff"/>
    <text id="Autorrealización" transform="translate(202.485 4572.468)" fill="#12263f" font-size="18" font-family="Roboto-Black, Roboto" font-weight="800"><tspan x="0" y="0">Autorrealización</tspan></text>
    <text id="Estima_reconocimiento" data-name="Estima/reconocimiento" transform="translate(202.485 4661.692)" fill="#12263f" font-size="18" font-family="Roboto-Black, Roboto" font-weight="800"><tspan x="0" y="0">Estima/reconocimiento</tspan></text>
    <text id="Sociales" transform="translate(202.485 4735.262)" fill="#12263f" font-size="18" font-family="Roboto-Black, Roboto" font-weight="800"><tspan x="0" y="0">Sociales</tspan></text>
    <text id="Seguridad" transform="translate(202.485 4807.268)" fill="#12263f" font-size="18" font-family="Roboto-Black, Roboto" font-weight="800"><tspan x="0" y="0">Seguridad</tspan></text>
    <text id="Fisiológicas" transform="translate(202.485 4882.403)" fill="#12263f" font-size="18" font-family="Roboto-Black, Roboto" font-weight="800"><tspan x="0" y="0">Fisiológicas</tspan></text>
    <g id="Grupo_26689" data-name="Grupo 26689" transform="translate(341.228 4524.292)">
      <path id="Trazado_2240" data-name="Trazado 2240" d="M75,887.3H596.469l-47.587-66.693H122.592Z" transform="translate(-75.004 -493.697)" fill="#8b5e3c"/>
      <path id="Trazado_2241" data-name="Trazado 2241" d="M202.162,694.129l-47.5,66.691H570.281l-47.5-66.691Z" transform="translate(-100.988 -441.722)" fill="#fbb040"/>
      <path id="Trazado_2242" data-name="Trazado 2242" d="M233.508,635.007h319.75l-45.721-66.692H279.228Z" transform="translate(-136.333 -390.021)" fill="#e4d45e"/>
      <path id="Trazado_2243" data-name="Trazado 2243" d="M352.105,443.325l-43.647,66.692H532.452l-43.647-66.692Z" transform="translate(-163.777 -338.658)" fill="#6eaa6f"/>
      <path id="Trazado_2244" data-name="Trazado 2244" d="M445.012,265.641l-66.628,97.816H511.639Z" transform="translate(-189.799 -265.641)" fill="#0082d2"/>
    </g>
    <g id="Grupo_55659" data-name="Grupo 55659">
      <path id="Trazado_101506" data-name="Trazado 101506" d="M-10864.516-7109.828h306.113" transform="translate(11067.001 11700)" fill="none" stroke="#111e61" stroke-width="1"/>
      <path id="Polígono_1" data-name="Polígono 1" d="M10,0,20,17H0Z" transform="translate(525.598 4580.172) rotate(90)" fill="#111e61"/>
    </g>
    <g id="Grupo_55660" data-name="Grupo 55660" transform="translate(0 83)">
      <path id="Trazado_101506-2" data-name="Trazado 101506" d="M-10864.515-7109.828h256.911" transform="translate(11067 11700)" fill="none" stroke="#111e61" stroke-width="1"/>
      <path id="Polígono_1-2" data-name="Polígono 1" d="M10,0,20,17H0Z" transform="translate(476.396 4580.172) rotate(90)" fill="#111e61"/>
    </g>
    <g id="Grupo_55661" data-name="Grupo 55661" transform="translate(0 162.795)">
      <path id="Trazado_101506-3" data-name="Trazado 101506" d="M-10864.514-7109.828h212.606" transform="translate(11066.999 11700)" fill="none" stroke="#111e61" stroke-width="1"/>
      <path id="Polígono_1-3" data-name="Polígono 1" d="M10,0,20,17H0Z" transform="translate(432.092 4580.172) rotate(90)" fill="#111e61"/>
    </g>
    <g id="Grupo_55662" data-name="Grupo 55662" transform="translate(0 234.8)">
      <path id="Trazado_101506-4" data-name="Trazado 101506" d="M-10864.514-7109.828H-10696" transform="translate(11066.999 11700)" fill="none" stroke="#111e61" stroke-width="1"/>
      <path id="Polígono_1-4" data-name="Polígono 1" d="M10,0,20,17H0Z" transform="translate(388 4580.172) rotate(90)" fill="#111e61"/>
    </g>
    <g id="Grupo_55663" data-name="Grupo 55663" transform="translate(0 309.936)">
      <path id="Trazado_101506-5" data-name="Trazado 101506" d="M-10864.514-7109.828h117" transform="translate(11066.999 11700)" fill="none" stroke="#111e61" stroke-width="1"/>
      <path id="Polígono_1-5" data-name="Polígono 1" d="M10,0,20,17H0Z" transform="translate(336.485 4580.172) rotate(90)" fill="#111e61"/>
    </g>
    <text id="Éxito_reconocimiento_respeto_confianza" data-name="Éxito, reconocimiento, 
respeto, confianza" transform="translate(523 4640)" fill="#12263f" font-size="16" font-family="Roboto-Regular, Roboto"><tspan x="0" y="17">Éxito, reconocimiento, </tspan><tspan x="0" y="41">respeto, confianza</tspan></text>
    <text id="Amistad_afecto_intimidad" data-name="Amistad, afecto, intimidad" transform="translate(503 4727)" fill="#12263f" font-size="16" font-family="Roboto-Regular, Roboto"><tspan x="5.734" y="17">Amistad, afecto, intimidad</tspan></text>
    <text id="Seguridad_física_de_empleo_de_recursos_moral_familiar_y_de_salud" data-name="Seguridad física, de empleo, de recursos moral, familiar y de salud" transform="translate(462 4786)" fill="#12263f" font-size="16" font-family="Roboto-Regular, Roboto"><tspan x="22.691" y="17">Seguridad física, de empleo, de </tspan><tspan x="11.148" y="41">recursos moral, familiar y de salud</tspan></text>
    <text id="Respirar_alimentarse_descansar_Sexo_homeóstasis" data-name="Respirar, alimentarse, descansar, 
Sexo, homeóstasis" transform="translate(461 4867)" fill="#fff" font-size="16" font-family="Roboto-Regular, Roboto"><tspan x="17.516" y="17">Respirar, alimentarse, descansar, </tspan></text>
  </g>
</svg>
