<svg id="fiabilidad" xmlns="http://www.w3.org/2000/svg" width="70.896" height="70.897" viewBox="0 0 70.896 70.897">
  <path id="Trazado_3020" data-name="Trazado 3020" d="M409.779,310H400l1.222-22h8.556Zm0,0" transform="translate(-338.882 -243.995)" fill="#5d9aa4"/>
  <path id="Trazado_3021" data-name="Trazado 3021" d="M409.779,418.445H400L401.222,416h8.556Zm0,0" transform="translate(-338.882 -352.438)" fill="#3b869e"/>
  <path id="Trazado_3022" data-name="Trazado 3022" d="M24.447,64.785A44.227,44.227,0,0,1,0,25.228V7.334L24.447,0,48.894,7.334V25.228A44.226,44.226,0,0,1,24.447,64.785Zm0,0" transform="translate(0 0)" fill="#c3c3c3"/>
  <path id="Trazado_3023" data-name="Trazado 3023" d="M60.359,80.093A44.156,44.156,0,0,0,75.584,92.66,44.226,44.226,0,0,0,100.031,53.1V35.209L92.344,32.9A103.133,103.133,0,0,1,60.359,80.093Zm0,0" transform="translate(-51.137 -27.875)" fill="#cbcbcb"/>
  <path id="Trazado_3024" data-name="Trazado 3024" d="M68.192,91.248l-3.079,1.979-3.079-1.979A30.559,30.559,0,0,1,48,65.542V54.112L65.113,48,82.226,52.89V65.542A30.558,30.558,0,0,1,68.192,91.248Zm0,0" transform="translate(-40.666 -40.666)" fill="#dbdbdb"/>
  <path id="Trazado_3025" data-name="Trazado 3025" d="M104.168,109.6a30.568,30.568,0,0,0,5.452,4.49l3.079,1.979,3.079-1.979a30.559,30.559,0,0,0,14.034-25.706V75.731l-2.689-.77A103.1,103.1,0,0,1,104.168,109.6Zm0,0" transform="translate(-88.252 -63.508)" fill="#dedede"/>
  <path id="Trazado_3026" data-name="Trazado 3026" d="M212.114,190.668l-2.445-6.112v-4.278a4.278,4.278,0,0,0-8.556,0v3.337a4.884,4.884,0,0,0,.35,1.815l2.095,5.238H187.667a3.667,3.667,0,0,0,0,7.334h1.222a3.667,3.667,0,1,0,0,7.334h1.222a3.667,3.667,0,0,0,0,7.334h.917v.03a3.657,3.657,0,0,0,.306,7.3h20.78l7.334-4.889v-22Zm0,0" transform="translate(-155.886 -149.108)" fill="#f6bb92"/>
  <path id="Trazado_3027" data-name="Trazado 3027" d="M209.838,184.556v-4.278a4.278,4.278,0,0,0-8.556,0v3.337a4.884,4.884,0,0,0,.35,1.815l2.095,5.238H187.836a3.656,3.656,0,0,0-3.637,3.36c0,.245.011.5.017.779A3.655,3.655,0,0,0,187.836,198h1.222a3.667,3.667,0,1,0,0,7.334h1.222a3.667,3.667,0,1,0,0,7.334h.917v.03a3.612,3.612,0,0,0-3.136,4.859h24.222l7.334-4.889V193.113l-7.334-2.445Zm0,0" transform="translate(-156.055 -149.108)" fill="#fdc9a6"/>
  <path id="Trazado_3028" data-name="Trazado 3028" d="M363.605,92.5l-2.139-1.185q.331-.594.617-1.215l2.22,1.022c-.215.471-.449.93-.7,1.379Zm1.634-3.8-2.33-.734a18.066,18.066,0,0,0,.55-2.221l2.406.437A20.591,20.591,0,0,1,365.24,88.7Zm.93-5.1-2.445-.141c.02-.341.029-.685.029-1.031q0-.636-.043-1.259l2.439-.165q.047.706.049,1.424Q366.2,83.022,366.17,83.6Zm-2.751-4.7a18.393,18.393,0,0,0-.577-2.214l2.322-.765a20.522,20.522,0,0,1,.655,2.513Zm-1.429-4.337a18.665,18.665,0,0,0-1.11-2l2.059-1.315a20.65,20.65,0,0,1,1.259,2.269Zm-2.463-3.848a18.2,18.2,0,0,0-1.571-1.668l1.671-1.785a20.873,20.873,0,0,1,1.78,1.888Zm-3.337-3.127a18.423,18.423,0,0,0-1.933-1.222l1.179-2.142a20.756,20.756,0,0,1,2.192,1.394Zm-4-2.2a18.375,18.375,0,0,0-2.179-.709l.611-2.368a20.608,20.608,0,0,1,2.47.8Zm0,0" transform="translate(-296.529 -52.792)" fill="#8dc79d"/>
  <path id="Trazado_3029" data-name="Trazado 3029" d="M356.812,138.265h-2.445a7.768,7.768,0,0,0-4.907-7.246l-.437-.175.91-2.269.436.175A10.2,10.2,0,0,1,356.812,138.265Zm0,0" transform="translate(-295.695 -108.929)" fill="#f7ba61"/>
  <path id="Trazado_3030" data-name="Trazado 3030" d="M.791,99.415,49.211,84.889V80L.375,94.651a44.212,44.212,0,0,0,.416,4.765Zm0,0" transform="translate(-0.317 -67.776)" fill="#5d9aa4"/>
  <path id="Trazado_3031" data-name="Trazado 3031" d="M82.226,94.4,48,104.667v.184a30.541,30.541,0,0,0,.366,4.6l33.86-10.159Zm0,0" transform="translate(-40.666 -79.975)" fill="#60a0aa"/>
  <path id="Trazado_3032" data-name="Trazado 3032" d="M4.044,131.132,51.519,116.89V112L3.1,126.526a43.847,43.847,0,0,0,.946,4.606Zm0,0" transform="translate(-2.625 -94.887)" fill="#e06661"/>
  <path id="Trazado_3033" data-name="Trazado 3033" d="M51.447,141.132l32.81-9.844V126.4L50.4,136.557a30.554,30.554,0,0,0,1.049,4.574Zm0,0" transform="translate(-42.697 -107.085)" fill="#ea6b65"/>
</svg>
