<svg xmlns="http://www.w3.org/2000/svg" width="318.148" height="237.109" viewBox="0 0 318.148 237.109">
  <g id="Grupo_28703" data-name="Grupo 28703" transform="translate(-97.671 -72.606)">
    <g id="BACKGROUND" transform="translate(97.671 79.358)">
      <path id="Trazado_4983" data-name="Trazado 4983" d="M303.7,83.017A107.832,107.832,0,0,0,255.32,94.4a175.473,175.473,0,0,1-78.849,18.26q-.507,0-1.016,0a78.655,78.655,0,0,0,.871,157.306q.484,0,.968-.006a170.322,170.322,0,0,1,78.1,18.3A108.338,108.338,0,0,0,412,192.247C412.5,132.494,363.456,83.016,303.7,83.017Z" transform="translate(-97.671 -83.017)" fill="#eef5ff"/>
    </g>
    <g id="OBJECTS" transform="translate(110.598 72.606)">
      <g id="Grupo_28702" data-name="Grupo 28702">
        <g id="Grupo_28688" data-name="Grupo 28688" transform="translate(47.503 38.794)">
          <path id="Trazado_4984" data-name="Trazado 4984" d="M243.007,134.775c-12.227,2.6-20.423,13.084-20.174,24.677,1.176,54.729-57.063,93.7-19.14,123.868,44.3,35.237,107.487.671,84.973-56.716-14.111-35.968-9.57-57.919-9.65-68.148-.1-13.445-11.736-24.384-26.283-24.556q-.391,0-.789,0A42.9,42.9,0,0,0,243.007,134.775Z" transform="translate(-190.848 -132.94)" fill="#4f3121"/>
          <g id="Grupo_28674" data-name="Grupo 28674" transform="translate(85.513 100.455)">
            <path id="Trazado_4985" data-name="Trazado 4985" d="M334.867,287.311c-16.526,40.5-30.554,77.3,59.763,74.992" transform="translate(-322.698 -287.311)" fill="none" stroke="#9b695f" stroke-linecap="round" stroke-miterlimit="10" stroke-width="30"/>
            <path id="Trazado_4986" data-name="Trazado 4986" d="M421.785,405.856c6.387.388,17.472.274,21.891-4.588,0,0,9.734,3.655,12.441,3.821a4.062,4.062,0,0,0,3.823-2.067s-16.1-12.117-19.611-13.393-19.452,1.913-19.452,1.913l-2.6,9.425A3.87,3.87,0,0,0,421.785,405.856Z" transform="translate(-356.239 -323.164)" fill="#9b695f"/>
          </g>
          <g id="Grupo_28677" data-name="Grupo 28677" transform="translate(20.324 80.152)">
            <g id="Grupo_28676" data-name="Grupo 28676">
              <path id="Trazado_4987" data-name="Trazado 4987" d="M300.614,278.092l1.92-10.888c-8.53-6.377-22.056-11.2-39.593-11.2-21.941,2.874-36.947,10.881-36.947,10.881l4.3,53.145-8.113,53.249c54.786.719,81.006,0,81.006,0l-10.13-51.515C306.66,315.359,305.721,298.159,300.614,278.092Z" transform="translate(-222.185 -256.007)" fill="#ff5050"/>
              <g id="Grupo_28675" data-name="Grupo 28675" transform="translate(4.421 18.429)">
                <path id="Trazado_4988" data-name="Trazado 4988" d="M231.551,315.909c14.722-3.611,7.933-29.95,7.933-29.95L229,284.423Z" transform="translate(-229.002 -284.423)" fill="#a56f62"/>
                <path id="Trazado_4989" data-name="Trazado 4989" d="M231.343,310.785c4.551-5.119,8.535-12.228,7.163-20.734l-8.461,4.707Z" transform="translate(-229.369 -286.401)" fill="#8c5c53"/>
              </g>
              <path id="Trazado_4990" data-name="Trazado 4990" d="M303.357,358.337s-23.324-1.739-37.236,1.33C266.121,359.666,283.614,372.044,303.357,358.337Z" transform="translate(-237.626 -291.797)" fill="#a83b5d"/>
            </g>
            <path id="Trazado_4991" data-name="Trazado 4991" d="M301.155,261.634c-7.892-3.41-17.925-5.627-29.806-5.627a127.314,127.314,0,0,0-25.243,6C266.478,294.778,289.456,282.624,301.155,261.634Z" transform="translate(-230.591 -256.007)" fill="#a56f62"/>
          </g>
          <g id="Grupo_28686" data-name="Grupo 28686" transform="translate(22.504)">
            <g id="Grupo_28679" data-name="Grupo 28679" transform="translate(55.734 31.397)">
              <g id="Grupo_28678" data-name="Grupo 28678" transform="translate(4.168 0.228)">
                <path id="Trazado_4992" data-name="Trazado 4992" d="M337.2,193.815c-.364,6.679-4.974,11.859-10.295,11.568s-9.339-5.94-8.974-12.62,4.973-11.859,10.294-11.568S337.565,187.136,337.2,193.815Z" transform="translate(-317.909 -181.184)" fill="#ffac52"/>
              </g>
              <path id="Trazado_4993" data-name="Trazado 4993" d="M330.773,193.464c-.364,6.679-4.973,11.859-10.294,11.568s-9.339-5.94-8.975-12.62,4.974-11.859,10.295-11.568S331.138,186.785,330.773,193.464Z" transform="translate(-311.482 -180.833)" fill="#fff"/>
            </g>
            <path id="Trazado_4994" data-name="Trazado 4994" d="M266.329,253.518c1.863-34.139,7.561-16.034,15.783-15.585s15.737-14.728,13.995,17.21c-.653,11.965-7.263,10.568-15.486,10.119S265.676,265.482,266.329,253.518Z" transform="translate(-239.864 -167.677)" fill="#a56f62"/>
            <path id="Trazado_4995" data-name="Trazado 4995" d="M296.467,245.153c-.405-18.353-7.046-6.828-14.228-7.22-7.962-.435-13.556-17.422-15.595,12.491C279.139,255.278,289.273,250.989,296.467,245.153Z" transform="translate(-239.99 -167.677)" fill="#8c5c53"/>
            <path id="Trazado_4996" data-name="Trazado 4996" d="M274.582,143.117l13.249.723A18.88,18.88,0,0,1,305.6,163.663l-1.493,27.365a26.365,26.365,0,0,1-27.681,24.816h0a26.365,26.365,0,0,1-24.816-27.681l1.4-25.711A20.541,20.541,0,0,1,274.582,143.117Z" transform="translate(-234.693 -136.17)" fill="#a56f62"/>
            <path id="Trazado_4997" data-name="Trazado 4997" d="M290.068,143.841l-13.249-.723a20.54,20.54,0,0,0-18.881,10.3c16.944,18.623,38.013,23.025,49.268,21.867l.634-11.616A18.881,18.881,0,0,0,290.068,143.841Z" transform="translate(-236.93 -136.17)" fill="#8c5c53"/>
            <path id="Trazado_4998" data-name="Trazado 4998" d="M261.842,193.343c-.353,6.467-4.657,11.633-10.036,12.544a26.165,26.165,0,0,1-.194-4.865l1.165-21.346C258.262,180.967,262.2,186.693,261.842,193.343Z" transform="translate(-234.694 -149.029)" fill="#8c5c53"/>
            <g id="Grupo_28680" data-name="Grupo 28680" transform="translate(16.193 0.541)">
              <path id="Trazado_4999" data-name="Trazado 4999" d="M253.424,177.161c9.361-2.915,10.588-12.429,10.9-23.017,0,0,17.953,13.5,36.059,9.36a12.521,12.521,0,0,0,4.245,9.514s6.411-12.308-3.683-27.518c-7.468-11.252-33.861-16.981-44.192-7.366S251.634,174.04,253.424,177.161Z" transform="translate(-250.514 -133.256)" fill="#4f3121"/>
              <path id="Trazado_5000" data-name="Trazado 5000" d="M274.2,157.676c-10.094-1.1-15.429-8.5-18.2-16.992a25.4,25.4,0,0,0-3.566,2.736c17.822,24.014,41.263,21.9,54.539,18.033a31.3,31.3,0,0,0-2.809-8.879A57.346,57.346,0,0,1,274.2,157.676Z" transform="translate(-251.189 -135.866)" fill="#6b4332"/>
            </g>
            <path id="Trazado_5001" data-name="Trazado 5001" d="M276.222,182.026l4.434-1.429a2.627,2.627,0,0,0,1.69-3.3h0a2.628,2.628,0,0,0-3.3-1.691l-4.434,1.429a2.628,2.628,0,0,0-1.69,3.3h0A2.627,2.627,0,0,0,276.222,182.026Z" transform="translate(-242.153 -147.556)" fill="#11111a"/>
            <path id="Trazado_5002" data-name="Trazado 5002" d="M309.489,182.574l4.076,2.254a2.628,2.628,0,0,0,3.561-1.025h0a2.628,2.628,0,0,0-1.025-3.561l-4.077-2.254a2.627,2.627,0,0,0-3.561,1.025h0A2.628,2.628,0,0,0,309.489,182.574Z" transform="translate(-254.573 -148.321)" fill="#11111a"/>
            <path id="Trazado_5003" data-name="Trazado 5003" d="M300.807,214.5s-6.918.88-7.019,2.162,3.2,2.076,4.146,1.576S300.807,214.5,300.807,214.5Z" transform="translate(-249.529 -161.266)" fill="#8c5c53"/>
            <path id="Trazado_5004" data-name="Trazado 5004" d="M297.342,191.1c.683,1.56,1.3,3.147,1.882,4.745s1.138,3.209,1.666,4.827,1.039,3.241,1.5,4.873l.082.307a.535.535,0,0,1,.024.2.78.78,0,0,1-.065.321,1.107,1.107,0,0,1-.177.288,2.947,2.947,0,0,1-.586.521,9.749,9.749,0,0,1-1.143.678,11.891,11.891,0,0,1-2.429.929c.606-.637,1.255-1.189,1.883-1.743.319-.267.627-.55.909-.814a2.354,2.354,0,0,0,.324-.359c.013-.017.008-.03-.014.018a.425.425,0,0,0-.032.169c.016.146,0,.058-.005.045l-.1-.3c-.509-1.607-.97-3.224-1.42-4.845s-.87-3.249-1.259-4.889S297.634,192.776,297.342,191.1Z" transform="translate(-250.778 -153.043)" fill="#11111a"/>
            <g id="Grupo_28681" data-name="Grupo 28681" transform="translate(32.446 55.339)">
              <path id="Trazado_5005" data-name="Trazado 5005" d="M293.473,223.482a67.193,67.193,0,0,1-12.651-5.32c-2.893-1.636-6.145,1.867-5.02,5.46,1.2,3.823,3.739,7.616,9.014,8.88,4.323,1.036,7.291.3,9.317-1.062C297,229.518,296.555,224.446,293.473,223.482Z" transform="translate(-275.573 -217.748)" fill="#11111a"/>
              <path id="Trazado_5006" data-name="Trazado 5006" d="M284.821,234.627c-5.275-1.264-7.817-5.057-9.014-8.88a4.912,4.912,0,0,1-.216-1.59,12.413,12.413,0,0,1,7.89.7c5.069,1.92,7.084,6,7.758,9.932,0,.008,0,.016,0,.023A13.661,13.661,0,0,1,284.821,234.627Z" transform="translate(-275.579 -219.874)" fill="#ff9292"/>
              <path id="Trazado_5007" data-name="Trazado 5007" d="M291.1,231.429c-.66.824-2.659.377-4.466-1s-2.736-3.157-2.076-3.982,2.659-.377,4.465,1S291.762,230.6,291.1,231.429Z" transform="translate(-278.657 -220.661)" fill="#ffabab"/>
              <path id="Trazado_5008" data-name="Trazado 5008" d="M293.805,223.482a67.2,67.2,0,0,1-12.651-5.32c-1.777-1-3.685-.067-4.635,1.635a24.822,24.822,0,0,0,11.016,7.058,27.83,27.83,0,0,0,8.783,1.529C296.641,226.33,295.749,224.09,293.805,223.482Z" transform="translate(-275.906 -217.749)" fill="#fff"/>
            </g>
            <g id="Grupo_28682" data-name="Grupo 28682" transform="translate(9.603 32.594)">
              <path id="Trazado_5009" data-name="Trazado 5009" d="M252.47,190.906c.529,4.969-1.737,9.357-5.061,9.8s-6.45-3.222-6.98-8.191,1.736-9.356,5.061-9.8S251.941,185.938,252.47,190.906Z" transform="translate(-240.352 -182.679)" fill="#a56f62"/>
              <path id="Trazado_5010" data-name="Trazado 5010" d="M250.084,192.872a2.819,2.819,0,0,1,1.482.215c-.006-.082-.009-.163-.018-.247-.35-3.282-2.414-5.7-4.611-5.411s-3.694,3.193-3.344,6.475c.269,2.524,1.553,4.533,3.129,5.2C246.472,195.922,247.943,193.158,250.084,192.872Z" transform="translate(-241.474 -184.34)" fill="#8c5c53"/>
            </g>
            <g id="Grupo_28684" data-name="Grupo 28684" transform="translate(0 30.439)">
              <g id="Grupo_28683" data-name="Grupo 28683" transform="translate(0 0)">
                <path id="Trazado_5011" data-name="Trazado 5011" d="M232.978,192.079c-.364,6.679,3.654,12.329,8.975,12.62s9.929-4.889,10.294-11.568-3.653-12.33-8.974-12.62S233.343,185.4,232.978,192.079Z" transform="translate(-228.15 -179.757)" fill="#fff"/>
                <ellipse id="Elipse_344" data-name="Elipse 344" cx="12.112" cy="9.649" rx="12.112" ry="9.649" transform="translate(0 24.188) rotate(-86.876)" fill="#ffac52"/>
              </g>
              <path id="Trazado_5012" data-name="Trazado 5012" d="M233.985,195.271c-.182,3.34,1.827,6.165,4.487,6.31s4.965-2.444,5.147-5.784-1.826-6.165-4.487-6.31S234.167,191.931,233.985,195.271Z" transform="translate(-228.508 -182.914)" fill="#7a889e"/>
            </g>
            <path id="Trazado_5013" data-name="Trazado 5013" d="M244.381,166.33c-3.115-19.969,9.41-32.019,24.881-33.353l-4.731-.555s-28.483-.158-26.244,34.279Z" transform="translate(-229.979 -132.422)" fill="#ffac52"/>
            <g id="Grupo_28685" data-name="Grupo 28685" transform="translate(51.978 53.826)">
              <path id="Trazado_5014" data-name="Trazado 5014" d="M329.41,215.415c.535,16.931-16.783,15.525-16.783,15.525" transform="translate(-308.128 -215.415)" fill="none" stroke="#7a889e" stroke-linecap="round" stroke-miterlimit="10" stroke-width="2"/>
              <path id="Trazado_5015" data-name="Trazado 5015" d="M307.578,240.2l2.833.084a1.945,1.945,0,0,0,2-1.886h0a1.945,1.945,0,0,0-1.886-2l-2.833-.084a1.945,1.945,0,0,0-2,1.886h0A1.945,1.945,0,0,0,307.578,240.2Z" transform="translate(-305.691 -222.76)" fill="#fff"/>
            </g>
            <path id="Trazado_5016" data-name="Trazado 5016" d="M278.8,188.927a2.848,2.848,0,0,0-.828.088,1.691,1.691,0,0,0-.179.018,5.506,5.506,0,0,1-4.335-1.359s-.15,3.219,2.311,4.271a2.884,2.884,0,1,0,3.031-3.017Z" transform="translate(-242.383 -151.839)" fill="#11111a"/>
            <path id="Trazado_5017" data-name="Trazado 5017" d="M317.774,191.365a5.614,5.614,0,0,1-4.341.444,2.883,2.883,0,1,0,1.236,3.2C317.227,194.472,317.774,191.365,317.774,191.365Z" transform="translate(-254.874 -153.13)" fill="#11111a"/>
          </g>
          <g id="Grupo_28687" data-name="Grupo 28687" transform="translate(5.391 100.743)">
            <path id="Trazado_5018" data-name="Trazado 5018" d="M219.245,287.755c-32.284,33.821-33.677,77.01,56.641,74.7" transform="translate(-199.16 -287.755)" fill="none" stroke="#a56f62" stroke-linecap="round" stroke-miterlimit="10" stroke-width="30"/>
            <path id="Trazado_5019" data-name="Trazado 5019" d="M309.119,405.263c6.386.388,17.471.275,21.891-4.588,0,0,9.734,3.655,12.44,3.821a4.061,4.061,0,0,0,3.823-2.066s-16.1-12.118-19.611-13.393-19.452,1.913-19.452,1.913l-2.6,9.426A3.869,3.869,0,0,0,309.119,405.263Z" transform="translate(-236.521 -323.243)" fill="#a56f62"/>
          </g>
        </g>
        <g id="Grupo_28693" data-name="Grupo 28693" transform="translate(0 221.078)">
          <g id="Grupo_28689" data-name="Grupo 28689" transform="translate(1.781 0.028)">
            <rect id="Rectángulo_5010" data-name="Rectángulo 5010" width="301.659" height="16.003" fill="#c1823e"/>
          </g>
          <g id="Grupo_28690" data-name="Grupo 28690" transform="translate(1.781 0.028)">
            <rect id="Rectángulo_5011" data-name="Rectángulo 5011" width="89.79" height="16.003" fill="#e59a4e"/>
          </g>
          <path id="Trazado_5020" data-name="Trazado 5020" d="M422.008,423.949V413.525H120.349v6.812Z" transform="translate(-118.568 -413.497)" fill="#a56a3a"/>
          <g id="Grupo_28691" data-name="Grupo 28691">
            <rect id="Rectángulo_5012" data-name="Rectángulo 5012" width="305.221" height="5.296" fill="#c1823e"/>
          </g>
          <g id="Grupo_28692" data-name="Grupo 28692">
            <rect id="Rectángulo_5013" data-name="Rectángulo 5013" width="94.549" height="5.296" fill="#e59a4e"/>
          </g>
        </g>
        <g id="Grupo_28695" data-name="Grupo 28695" transform="translate(3.655)">
          <path id="Trazado_5021" data-name="Trazado 5021" d="M179.574,110.975a28.965,28.965,0,1,0-4.936,8.874Z" transform="translate(-123.239 -72.606)" fill="#a83b5d"/>
          <path id="Trazado_5022" data-name="Trazado 5022" d="M194.119,120.918l-5.965-9.943a28.968,28.968,0,1,0-4.937,8.874Z" transform="translate(-126.254 -72.606)" fill="#ff5050"/>
          <g id="Grupo_28694" data-name="Grupo 28694" transform="translate(14.018 24.146)">
            <path id="Trazado_5023" data-name="Trazado 5023" d="M149.415,109.836a4.563,4.563,0,1,0,4.563,4.563A4.562,4.562,0,0,0,149.415,109.836Z" transform="translate(-144.853 -109.836)" fill="#fff"/>
            <path id="Trazado_5024" data-name="Trazado 5024" d="M172.8,109.836a4.563,4.563,0,1,0,4.563,4.563A4.562,4.562,0,0,0,172.8,109.836Z" transform="translate(-153.073 -109.836)" fill="#fff"/>
            <path id="Trazado_5025" data-name="Trazado 5025" d="M196.195,109.836a4.563,4.563,0,1,0,4.563,4.563A4.562,4.562,0,0,0,196.195,109.836Z" transform="translate(-161.293 -109.836)" fill="#fff"/>
          </g>
        </g>
        <g id="Grupo_28697" data-name="Grupo 28697" transform="translate(22.451 189.98)">
          <g id="Grupo_28696" data-name="Grupo 28696" transform="translate(0 4.191)">
            <rect id="Rectángulo_5014" data-name="Rectángulo 5014" width="17.668" height="22.797" rx="6.129" transform="translate(17.668 22.797) rotate(180)" fill="none" stroke="#ffc154" stroke-miterlimit="10" stroke-width="6"/>
          </g>
          <rect id="Rectángulo_5015" data-name="Rectángulo 5015" width="24.163" height="31.179" transform="translate(32.38 31.179) rotate(180)" fill="#ffc154"/>
          <path id="Trazado_5026" data-name="Trazado 5026" d="M164.89,398.52c7.868.383,17.093-10.286,24.163-9.765v16.112H164.89Z" transform="translate(-156.673 -373.688)" fill="#f29538"/>
        </g>
        <g id="Grupo_28698" data-name="Grupo 28698" transform="translate(107.424 214.914)">
          <rect id="Rectángulo_5016" data-name="Rectángulo 5016" width="84.745" height="6.245" fill="#7a889e"/>
          <rect id="Rectángulo_5017" data-name="Rectángulo 5017" width="23.444" height="6.245" fill="#95a5bc"/>
        </g>
        <g id="Grupo_28701" data-name="Grupo 28701" transform="translate(159.958 119.648)">
          <rect id="Rectángulo_5018" data-name="Rectángulo 5018" width="141.653" height="80.772" transform="translate(3.048 0.048)" fill="#5d6a7c"/>
          <circle id="Elipse_345" data-name="Elipse 345" cx="8.84" cy="8.84" r="8.84" transform="translate(61.681 35.815) rotate(-46.872)" fill="#7a889e"/>
          <rect id="Rectángulo_5019" data-name="Rectángulo 5019" width="6.341" height="80.818" fill="#7a889e"/>
          <g id="Grupo_28699" data-name="Grupo 28699" transform="translate(40.299 94.634)">
            <rect id="Rectángulo_5020" data-name="Rectángulo 5020" width="67.15" height="6.781" transform="translate(67.15 6.781) rotate(180)" fill="#4a5460"/>
            <rect id="Rectángulo_5021" data-name="Rectángulo 5021" width="8.861" height="6.781" transform="translate(8.861 6.781) rotate(180)" fill="#54616d"/>
          </g>
          <g id="Grupo_28700" data-name="Grupo 28700" transform="translate(59.075 50.079)">
            <rect id="Rectángulo_5022" data-name="Rectángulo 5022" width="29.599" height="44.606" transform="translate(29.599 44.606) rotate(180)" fill="#4a5460"/>
            <rect id="Rectángulo_5023" data-name="Rectángulo 5023" width="3.648" height="44.606" transform="translate(3.648 44.606) rotate(180)" fill="#54616d"/>
          </g>
        </g>
      </g>
    </g>
  </g>
</svg>
