<svg xmlns="http://www.w3.org/2000/svg" xmlns:xlink="http://www.w3.org/1999/xlink" width="853" height="358" viewBox="0 0 853 358">
  <defs>
    <linearGradient id="linear-gradient" x1="-0.117" y1="0.465" x2="0.544" y2="0.474" gradientUnits="objectBoundingBox">
      <stop offset="0" stop-color="#e2c799"/>
      <stop offset="0.985" stop-color="#ceb083"/>
    </linearGradient>
    <linearGradient id="linear-gradient-2" x1="-0.535" y1="-0.17" x2="0.469" y2="-0.17" gradientUnits="objectBoundingBox">
      <stop offset="0" stop-color="#90765b"/>
      <stop offset="1" stop-color="#8a7567"/>
    </linearGradient>
    <linearGradient id="linear-gradient-3" x1="-0.535" y1="-0.901" x2="0.469" y2="-0.901" xlink:href="#linear-gradient-2"/>
    <linearGradient id="linear-gradient-4" x1="-1.226" y1="-0.794" x2="-0.225" y2="-0.794" xlink:href="#linear-gradient-2"/>
    <linearGradient id="linear-gradient-5" x1="-0.468" y1="-0.103" x2="0.527" y2="-0.103" xlink:href="#linear-gradient-2"/>
    <linearGradient id="linear-gradient-6" x1="-0.468" y1="-0.846" x2="0.527" y2="-0.846" xlink:href="#linear-gradient-2"/>
    <linearGradient id="linear-gradient-7" x1="-1.377" y1="-0.672" x2="-0.381" y2="-0.672" xlink:href="#linear-gradient-2"/>
    <linearGradient id="linear-gradient-8" x1="0.622" y1="1.243" x2="0.414" y2="0.118" gradientUnits="objectBoundingBox">
      <stop offset="0" stop-color="#f7c292"/>
      <stop offset="1" stop-color="#f7935c"/>
    </linearGradient>
    <linearGradient id="linear-gradient-9" x1="0" y1="0.5" x2="1.001" y2="0.5" xlink:href="#linear-gradient"/>
    <linearGradient id="linear-gradient-10" x1="0" y1="0.5" x2="1" y2="0.5" xlink:href="#linear-gradient"/>
    <linearGradient id="linear-gradient-12" x1="-47.976" y1="30.389" x2="147.857" y2="-91.003" xlink:href="#linear-gradient-2"/>
    <linearGradient id="linear-gradient-13" x1="-1.65" y1="2.902" x2="14.655" y2="-15.887" xlink:href="#linear-gradient-2"/>
    <linearGradient id="linear-gradient-14" x1="8.026" y1="-15.277" x2="94.293" y2="-196.129" xlink:href="#linear-gradient-2"/>
    <linearGradient id="linear-gradient-15" x1="-0.726" y1="7.143" x2="0.934" y2="-2.385" xlink:href="#linear-gradient-2"/>
    <linearGradient id="linear-gradient-16" x1="0.327" y1="1.102" x2="0.799" y2="-0.06" xlink:href="#linear-gradient-8"/>
    <linearGradient id="linear-gradient-17" y1="0.5" x2="1" y2="0.5" gradientUnits="objectBoundingBox">
      <stop offset="0" stop-color="#e2d0bc"/>
      <stop offset="0.995" stop-color="#d7c3af"/>
    </linearGradient>
    <radialGradient id="radial-gradient" cx="0.194" cy="0.309" r="0.996" gradientTransform="translate(-0.066) scale(1.131 1)" gradientUnits="objectBoundingBox">
      <stop offset="0" stop-color="#f7c292"/>
      <stop offset="1" stop-color="#f79b6f"/>
    </radialGradient>
    <linearGradient id="linear-gradient-18" x1="0" y1="0.5" x2="1" y2="0.5" xlink:href="#linear-gradient-2"/>
    <linearGradient id="linear-gradient-19" x1="0.697" y1="-0.097" x2="0.476" y2="0.853" gradientUnits="objectBoundingBox">
      <stop offset="0" stop-color="#f7b393"/>
      <stop offset="0.327" stop-color="#f79877"/>
      <stop offset="0.995" stop-color="#f86544"/>
    </linearGradient>
    <linearGradient id="linear-gradient-20" x1="0.564" y1="1.241" x2="0.479" y2="-0.024" xlink:href="#linear-gradient-8"/>
    <radialGradient id="radial-gradient-2" cx="0.5" cy="0.5" r="0.492" gradientTransform="translate(-0.017) scale(1.034 1)" xlink:href="#radial-gradient"/>
    <linearGradient id="linear-gradient-24" x1="0" y1="0.5" x2="1.001" y2="0.5" xlink:href="#linear-gradient"/>
    <linearGradient id="linear-gradient-25" x1="0" y1="0.5" x2="1.001" y2="0.5" xlink:href="#linear-gradient"/>
    <linearGradient id="linear-gradient-27" x1="0.376" y1="0.273" x2="0.742" y2="1.168" gradientUnits="objectBoundingBox">
      <stop offset="0.005" stop-color="#b49933"/>
      <stop offset="0.995" stop-color="#8d8029"/>
    </linearGradient>
    <linearGradient id="linear-gradient-28" x1="0.504" y1="0.067" x2="0.497" y2="1.218" xlink:href="#linear-gradient-27"/>
    <linearGradient id="linear-gradient-29" x1="0.083" y1="0.278" x2="1.02" y2="0.871" gradientUnits="objectBoundingBox">
      <stop offset="0" stop-color="#847c71"/>
      <stop offset="1" stop-color="#766c6b"/>
    </linearGradient>
    <linearGradient id="linear-gradient-30" x1="0.222" y1="-0.471" x2="0.595" y2="1.129" xlink:href="#linear-gradient-19"/>
    <linearGradient id="linear-gradient-31" x1="0" y1="0.5" x2="1.001" y2="0.5" xlink:href="#linear-gradient"/>
    <linearGradient id="linear-gradient-32" y1="0.5" x2="1" y2="0.5" gradientUnits="objectBoundingBox">
      <stop offset="0" stop-color="#82755d"/>
      <stop offset="1" stop-color="#796251"/>
    </linearGradient>
    <linearGradient id="linear-gradient-34" x1="0.003" y1="0.497" x2="1.004" y2="0.497" xlink:href="#linear-gradient-32"/>
    <linearGradient id="linear-gradient-38" x1="0.17" y1="0.234" x2="0.861" y2="0.944" gradientUnits="objectBoundingBox">
      <stop offset="0" stop-color="#e5ad62"/>
      <stop offset="1" stop-color="#d08c50"/>
    </linearGradient>
    <linearGradient id="linear-gradient-39" x1="0.077" y1="0.449" x2="1.372" y2="0.553" xlink:href="#linear-gradient-38"/>
    <linearGradient id="linear-gradient-40" x1="1.002" y1="0.893" x2="0.018" y2="-0.058" xlink:href="#linear-gradient-8"/>
    <linearGradient id="linear-gradient-41" x1="0.576" y1="1.277" x2="0.459" y2="0.06" xlink:href="#linear-gradient-8"/>
    <linearGradient id="linear-gradient-42" x1="0.57" y1="1.279" x2="0.465" y2="0.049" xlink:href="#linear-gradient-8"/>
    <linearGradient id="linear-gradient-43" x1="0.602" y1="1.259" x2="0.438" y2="0.083" xlink:href="#linear-gradient-8"/>
    <linearGradient id="linear-gradient-44" x1="0.583" y1="1.279" x2="0.449" y2="0.072" xlink:href="#linear-gradient-8"/>
  </defs>
  <g id="Grupo_26739" data-name="Grupo 26739" transform="translate(-257 -4869)">
    <rect id="Rectángulo_4528" data-name="Rectángulo 4528" width="261" height="42" rx="20" transform="translate(257 4991)" fill="#fffbdc"/>
    <rect id="Rectángulo_4531" data-name="Rectángulo 4531" width="250" height="42" rx="20" transform="translate(268 5178)" fill="#fffbdc"/>
    <rect id="Rectángulo_4532" data-name="Rectángulo 4532" width="273" height="42" rx="20" transform="translate(837 5178)" fill="#fffbdc"/>
    <rect id="Rectángulo_4529" data-name="Rectángulo 4529" width="208" height="42" rx="20" transform="translate(851 4991)" fill="#fffbdc"/>
    <rect id="Rectángulo_4530" data-name="Rectángulo 4530" width="344" height="42" rx="20" transform="translate(507 4869)" fill="#fffbdc"/>
    <text id="Necesidades_o_deseos_personales" data-name="Necesidades o deseos personales" transform="translate(683 4897)" fill="#111e61" font-size="20" font-family="Roboto-Black, Roboto" font-weight="800"><tspan x="-153.423" y="0">Necesidades o deseos personales</tspan></text>
    <text id="Comunicación_boca-oido" data-name="Comunicación boca-oido" transform="translate(276 5020)" fill="#111e61" font-size="20" font-family="Roboto-Black, Roboto" font-weight="800"><tspan x="0" y="0">Comunicación boca-oido</tspan></text>
    <text id="Información_en_internet" data-name="Información en internet" transform="translate(290 5206)" fill="#111e61" font-size="20" font-family="Roboto-Black, Roboto" font-weight="800"><tspan x="0" y="0">Información en internet</tspan></text>
    <text id="Actividades_de_marketing" data-name="Actividades de marketing" transform="translate(859 5206)" fill="#111e61" font-size="20" font-family="Roboto-Black, Roboto" font-weight="800"><tspan x="0" y="0">Actividades de marketing</tspan></text>
    <rect id="Rectángulo_4527" data-name="Rectángulo 4527" width="200" height="140" rx="20" transform="translate(583 5087)" fill="#fffbdc"/>
    <text id="Experiencia_pasada" data-name="Experiencia pasada" transform="translate(870 5020)" fill="#111e61" font-size="20" font-family="Roboto-Black, Roboto" font-weight="800"><tspan x="0" y="0">Experiencia pasada</tspan></text>
    <g id="Grupo_26738" data-name="Grupo 26738" transform="translate(-119.994 4926.03)">
      <path id="Trazado_2245" data-name="Trazado 2245" d="M734.994,442.9s84.4,12.654,125.005-1.04c0,0-25.7-7.231-60.463-6.148A426.467,426.467,0,0,0,734.994,442.9Z" transform="translate(0 -162.137)" fill="#d8dbe3"/>
      <g id="Grupo_26695" data-name="Grupo 26695" transform="translate(804.187 169.324)">
        <g id="Grupo_26692" data-name="Grupo 26692" transform="translate(0)">
          <path id="Trazado_2246" data-name="Trazado 2246" d="M896.155,284.672c-.632,14.77-2.214,45.52-4.983,60.471s-10.179,20.2-10.179,20.2a3.449,3.449,0,0,1-1.961-.83c-3.184-3.327-8.28-13.029-11.745-20.935a135.7,135.7,0,0,1-5.569-16.559v0c-3.311-11.844-6.273-25.957-6.981-35.292-.568-7.515-.709-15.195-.647-21.636,0-.364.008-.722.012-1.074,0-.117,0-.234.007-.347.025-1.783.065-3.453.115-4.985.1-3.11.246-5.637.385-7.306a2.194,2.194,0,0,0,.5.364,18.339,18.339,0,0,0,2.628,1.456q.4.2.84.417l.594.284c.687.32,1.433.653,2.234.988.191.078.385.16.581.24.073.03.146.06.219.087.156.065.317.128.476.189.329.131.665.257,1.005.383.126.046.251.092.381.138q.661.24,1.344.468c.288.1.582.191.876.282.231.076.465.145.7.214q.407.119.818.236c.825.231,1.673.444,2.533.629.166.038.335.072.5.106.2.044.406.082.609.121s.385.073.578.106c.412.073.825.136,1.241.194.187.027.375.052.562.076a26.624,26.624,0,0,0,2.672.2c.117.005.234.008.351.008.277,0,.551,0,.825,0,.113,0,.227,0,.342-.008.706-.019,1.4-.064,2.094-.128.182-.019.364-.036.546-.058s.375-.043.56-.068a.62.62,0,0,0,.083-.01c.157-.02.315-.043.473-.067.368-.055.734-.112,1.1-.178.171-.031.342-.064.51-.1l.231-.047c.289-.058.577-.119.862-.185.175-.04.349-.081.522-.121l.46-.114c.121-.03.239-.06.359-.094.358-.1.708-.195,1.056-.3.116-.033.231-.069.345-.105.34-.1.678-.212,1.009-.32.221-.072.437-.147.651-.225.229-.083.456-.162.681-.245.3-.11.592-.222.877-.338.194-.076.387-.155.576-.233l.3-.126c.165-.069.328-.138.488-.207l.347-.154c.178-.079.355-.158.526-.241.087-.037.174-.077.257-.119.429-.2.837-.4,1.218-.594.144-.073.283-.144.419-.216q.829-.433,1.464-.8c.069-.038.137-.078.2-.116,0,.087.009.185.013.294,0,.081.005.171.009.267,0,.144.012.3.017.468s.01.327.019.506c0,.074,0,.15.006.229,0,.187.012.386.019.594.018.7.042,1.52.061,2.444,0,.123,0,.248.007.372,0,.22.011.443.014.671q.009.539.019,1.123c0,.192,0,.388.006.586,0,.033,0,.071,0,.106.007.4.013.823.016,1.252,0,.381.005.772.008,1.171,0,.253,0,.507,0,.768,0,.2,0,.394,0,.595,0,.231,0,.467,0,.7s0,.475,0,.717c0,.583,0,1.177-.007,1.788,0,.519,0,1.045-.012,1.58q-.014,1.34-.04,2.746c-.006.288-.011.58-.019.873,0,.087,0,.171,0,.258-.005.31-.015.621-.023.936C896.3,280.9,896.236,282.766,896.155,284.672Z" transform="translate(-854.076 -256.374)" fill="url(#linear-gradient)"/>
          <path id="Trazado_2247" data-name="Trazado 2247" d="M896.165,284.672c-.632,14.77-2.214,45.52-4.983,60.471S881,365.342,881,365.342a3.449,3.449,0,0,1-1.961-.83c-3.184-3.327-8.28-13.029-11.745-20.935a135.692,135.692,0,0,1-5.569-16.559,42.525,42.525,0,0,1,3.191,7.9c4.4,16.3,15.181,29.749,15.181,29.749s-1.717-14.781-2.06-21.312-1.609-24.595-1.9-36.465-.193-32.773-.193-32.773c.826,5.558,3.5,44.59,3.952,54.836.521,11.9.558,11.7,2.317,34.943,0,0,5.635-12.756,6.477-19.68a349.141,349.141,0,0,0,2.609-42.308c.156-14.039.035-39.178.035-39.178a44.255,44.255,0,0,1-14.031,2.451c-7.9.08-10.676-2.407-10.676-2.407-.519.375-8.088,4.877-12.53,7.307,0-.364.008-.722.012-1.074,0-.117,0-.234.007-.347.025-1.783.065-3.453.114-4.985.1-3.11.246-5.637.385-7.306a2.2,2.2,0,0,0,.5.364,18.337,18.337,0,0,0,2.628,1.456q.4.2.84.417l.594.284c.687.32,1.433.653,2.234.988.191.081.385.16.581.24.073.03.146.06.219.087.156.065.317.128.476.189.329.131.665.257,1.005.383.126.046.251.092.381.138q.661.24,1.345.468c.288.1.582.191.876.282.231.076.465.145.7.214q.407.119.818.236c.825.231,1.673.444,2.533.629.169.038.335.072.5.106.2.044.406.082.609.121s.385.073.578.106c.412.073.825.136,1.241.194.187.027.375.052.562.076a26.627,26.627,0,0,0,2.672.2c.117.005.234.008.351.008.277,0,.551,0,.825,0,.115,0,.229,0,.342-.008.706-.019,1.4-.064,2.094-.128.181-.016.364-.036.546-.058s.375-.043.56-.068a.621.621,0,0,0,.083-.01c.157-.02.315-.043.473-.067.368-.055.734-.112,1.1-.178.172-.031.342-.062.51-.1l.231-.047c.289-.058.577-.119.862-.185.175-.04.349-.081.522-.121l.46-.114c.118-.03.239-.063.359-.094.358-.1.708-.195,1.056-.3.116-.033.229-.069.345-.105.34-.1.678-.212,1.009-.32.219-.075.438-.15.651-.225.229-.083.456-.162.681-.245.3-.113.59-.225.877-.338.2-.078.387-.155.576-.233l.3-.126c.165-.069.328-.138.488-.207l.348-.154c.178-.079.355-.158.526-.241.087-.039.174-.079.257-.119.429-.2.837-.4,1.218-.594.144-.073.283-.145.419-.216q.829-.433,1.464-.8c.069-.038.137-.078.2-.116,0,.087.009.185.013.294,0,.081.005.171.009.267,0,.144.012.3.017.468s.013.327.019.506c0,.074,0,.15.006.229.008.187.012.386.019.594.018.7.042,1.52.061,2.444,0,.123,0,.248.007.372.006.217.009.44.015.671q.009.539.019,1.123c0,.19,0,.386.006.586,0,.033,0,.071,0,.106.007.4.01.823.016,1.252,0,.384.005.772.008,1.171,0,.253,0,.507,0,.768,0,.2,0,.394,0,.595,0,.231,0,.467,0,.7s0,.475,0,.717c0,.583,0,1.177-.007,1.788,0,.519-.008,1.045-.012,1.58q-.014,1.34-.04,2.746c-.006.288-.011.58-.019.873,0,.087,0,.171,0,.258-.005.31-.015.621-.023.936C896.308,280.9,896.246,282.766,896.165,284.672Z" transform="translate(-854.086 -256.374)" fill="#e2c799" opacity="0.5" style="mix-blend-mode: multiply;isolation: isolate"/>
          <g id="Grupo_26691" data-name="Grupo 26691" transform="translate(0.026 3.261)">
            <path id="Trazado_2248" data-name="Trazado 2248" d="M861.088,262.093a30.989,30.989,0,0,1-2.138,3.952,21.82,21.82,0,0,1-4.829,5.319c0-.117,0-.234.007-.347a21.123,21.123,0,0,0,4.607-5.13,32.91,32.91,0,0,0,2.1-3.9Z" transform="translate(-854.121 -261.986)" fill="#846b55"/>
            <path id="Trazado_2249" data-name="Trazado 2249" d="M918.709,279.442c-5.069-2.489-8.641-7.331-11.428-12.414.091-.021.181-.044.269-.065,2.733,4.974,6.225,9.7,11.164,12.178C918.713,279.238,918.712,279.339,918.709,279.442Z" transform="translate(-876.392 -264.071)" fill="#846b55"/>
          </g>
        </g>
        <g id="Grupo_26693" data-name="Grupo 26693" transform="translate(26.872 105.142)">
          <path id="Trazado_2250" data-name="Trazado 2250" d="M914.149,443.837a20.666,20.666,0,0,1-13.825-1.474,6.438,6.438,0,0,1,.131-1.314,4.188,4.188,0,0,1,3.972-3.716,9.273,9.273,0,0,1,5.046,1.726A19.67,19.67,0,0,1,913.5,442.4l.016.017C914.193,443.19,914.48,443.761,914.149,443.837Z" transform="translate(-900.323 -437.324)" fill="url(#linear-gradient-2)"/>
          <path id="Trazado_2251" data-name="Trazado 2251" d="M914.162,446.537a20.666,20.666,0,0,1-13.826-1.475,6.4,6.4,0,0,1,.131-1.313c4.562,2.343,10.734,1.77,13.062,1.368C914.206,445.89,914.493,446.461,914.162,446.537Z" transform="translate(-900.328 -440.016)" opacity="0.5" fill="url(#linear-gradient-3)" style="mix-blend-mode: multiply;isolation: isolate"/>
          <path id="Trazado_2252" data-name="Trazado 2252" d="M918.6,443.65a28.789,28.789,0,0,1-6.066.352c-.275-1.839,1.188-3.091,2.04-3.693A19.674,19.674,0,0,1,918.6,443.65Z" transform="translate(-905.425 -438.575)" opacity="0.3" fill="url(#linear-gradient-4)" style="mix-blend-mode: screen;isolation: isolate"/>
        </g>
        <g id="Grupo_26694" data-name="Grupo 26694" transform="translate(11.183 105.028)">
          <path id="Trazado_2253" data-name="Trazado 2253" d="M889.019,442.288c-4.541,3.154-15.7,1.093-15.7,1.093s.356-.383.97-.962a27.759,27.759,0,0,1,3.954-3.117,14.729,14.729,0,0,1,4.226-1.929c4.347-1.081,6.074,1.656,6.535,3.471C889.2,441.593,889.167,442.187,889.019,442.288Z" transform="translate(-873.322 -437.128)" fill="url(#linear-gradient-5)"/>
          <path id="Trazado_2254" data-name="Trazado 2254" d="M889.019,444.968c-4.541,3.154-15.7,1.093-15.7,1.093s.356-.383.97-.962c3.436.4,12.445.89,14.715-1.575C889.2,444.272,889.167,444.866,889.019,444.968Z" transform="translate(-873.322 -439.807)" opacity="0.5" fill="url(#linear-gradient-6)" style="mix-blend-mode: multiply;isolation: isolate"/>
          <path id="Trazado_2255" data-name="Trazado 2255" d="M880.286,444.311s-4.168-.1-5.294-.324a27.759,27.759,0,0,1,3.954-3.117A3.372,3.372,0,0,1,880.286,444.311Z" transform="translate(-874.022 -438.696)" opacity="0.3" fill="url(#linear-gradient-7)" style="mix-blend-mode: screen;isolation: isolate"/>
        </g>
      </g>
      <g id="Grupo_26696" data-name="Grupo 26696" transform="translate(748.355 132.878)">
        <path id="Trazado_2256" data-name="Trazado 2256" d="M773.148,214.988s-.028-.011-.089-.04c-.474-.213-2.774-1.364-6.429-5.078-4.12-4.188-8.641-12.7-8.641-12.7a4.62,4.62,0,0,1,3.4-3.18c3.368-.97,7.873.415,8.1.407Z" transform="translate(-757.988 -193.649)" fill="url(#linear-gradient-8)"/>
        <path id="Trazado_2257" data-name="Trazado 2257" d="M775.6,214.988s-.029-.011-.089-.04c-3.335-5.711-3.861-14.352-4.9-17.774-.806-2.651-4.1-3.345-6.772-3.18,3.368-.97,7.873.415,8.1.407Z" transform="translate(-760.438 -193.649)" fill="#ec7448" opacity="0.3" style="mix-blend-mode: multiply;isolation: isolate"/>
      </g>
      <path id="Trazado_2258" data-name="Trazado 2258" d="M820.258,152.241l-1.744.481-3.156.869-7.388,2.084-1.976.558L801,157.64l-.808.228-3.72-2.3-1.359-.84-1.9-1.173-8.428-5.209-.285-.175-.066.022-2.3.715-1.154.359-11.7,3.646-.323.1-.584.183-.582.181-.676.21-.827.258.631,3.539L768,163.445l.287,1.622c-.279-.066-.55-.125-.816-.175-8.516-1.694-10.683,2.948-10.683,2.948s-.412-.941-.841-2c-.276-.691-.557-1.433-.733-1.991-.442-1.417.8-6.027,2.392-12.052a155.889,155.889,0,0,1,5.725-17.75l.008-.016c.043-.1.085-.194.128-.287.021-.048.045-.1.066-.141,0,0,0-.005.005-.008.155-.327.3-.614.439-.862l0-.01a5.089,5.089,0,0,1,.386-.6c1.711-2.217,8.168-5.443,9.587-6.424.059-.04.117-.083.176-.12.1-.071.207-.141.313-.207a.456.456,0,0,1,.045-.027c.091-.061.184-.117.274-.173.413-.253.83-.481,1.253-.694-.281.393-.5.731-.5.731s3.1,5.849,7.665,7.179,10.415-.71,11.167-5.674l-1.9-3.087a14.177,14.177,0,0,1,3.1.649c.381.114.776.242,1.186.38a57.253,57.253,0,0,1,10.008,4.576c.157.093.313.186.465.279.3.187.6.378.875.569a13.641,13.641,0,0,1,3.325,3.106C814.151,137.086,820.258,152.241,820.258,152.241Z" transform="translate(-8.433 -31.437)" fill="url(#linear-gradient-9)"/>
      <path id="Trazado_2259" data-name="Trazado 2259" d="M780.2,227.023l-.132,6.865a31.883,31.883,0,0,0,12.984,3.855Z" transform="translate(-18.883 -74.753)" fill="url(#linear-gradient-10)"/>
      <path id="Trazado_2260" data-name="Trazado 2260" d="M813.758,356.6c-.212.689-.335,1.059-.335,1.059s-8.774-37.149-10.5-48.182,0-13.959,0-13.959l-6.247-39.405-5.983,37.412c3.058,3.988,5.052,13.073,1.481,28.361s-17.833,34.11-17.833,34.11l-1.164-1.215-.431-.449s4.122-24.381,4.653-32.092.8-33.368.4-44.269c-.311-8.5-.623-27.981-.744-36.159-.035-2.313-.053-3.723-.053-3.723s4.386,2.526,15.666,3.855,21.025-4.9,21.025-4.9l.665,9.955c.159,2.571.359,6.365.572,10.637.66,13.392,1.422,31.5,1.422,31.5s3.7,3.932,4.209,24.593C821,331.846,815.224,351.834,813.758,356.6Z" transform="translate(-15.815 -78.948)" fill="#8e502a"/>
      <path id="Trazado_2261" data-name="Trazado 2261" d="M854.419,156.763l-3.156.869-7.388,2.084-1.976.558c-.723-6.793-1.588-17.236-.683-21.938a21.577,21.577,0,0,1,1.428-5.062c.157.093.313.186.465.279.305.187.6.378.875.569C844.555,141.762,846.861,152.208,854.419,156.763Z" transform="translate(-44.339 -35.478)" opacity="0.4" fill="url(#linear-gradient-9)" style="mix-blend-mode: multiply;isolation: isolate"/>
      <path id="Trazado_2262" data-name="Trazado 2262" d="M926.864,258.653s-.081-.117-.223-.336c0,0,.016.172.043.5C926.746,258.759,926.809,258.7,926.864,258.653Z" transform="translate(-80.29 -87.864)" fill="url(#linear-gradient-12)"/>
      <path id="Trazado_2263" data-name="Trazado 2263" d="M930.706,213.364a15.812,15.812,0,0,1,.561,2.793c.544,4.9-.886,7.091-.886,7.091s5.406,4.076,9.571,2.569a55.9,55.9,0,0,0-.154-7.251c-.385-.32-.776-.622-1.176-.9A35.417,35.417,0,0,0,930.706,213.364Z" transform="translate(-81.856 -69.031)" fill="#c5641e"/>
      <path id="Trazado_2264" data-name="Trazado 2264" d="M906.416,200.419c-4.166,1.5-9.571-2.571-9.571-2.571a8.058,8.058,0,0,0,.927-3.34v0a17.4,17.4,0,0,0-.042-3.75,15.939,15.939,0,0,0-.558-2.791h0c-.887-2.97-9.935,1.859-10.209,2.93-.715,2.762-.622,12.682.933,18.553a53.7,53.7,0,0,0,1.917,6.033,11.956,11.956,0,0,0,.752,1.633A41.828,41.828,0,0,1,874,220.785q-.727-.015-1.441-.071a52.589,52.589,0,0,1-16.3-4.377c-1.23-.547-2.159-1.018-2.687-1.316-.34-.207-.511-.335-.511-.335-.088-.266-.619-.532-1.949-10.989-1.137-8.955-1.042-28.954.344-37.97a18.188,18.188,0,0,1,.808-3.507,14.883,14.883,0,0,1,6.708-7.6c.442-.256.79-.433,1-.558,0,0,3.015,4.611,11.257,4.964,4.858.207,9.224-2.016,11.989-3.879a24.162,24.162,0,0,0,3.076-2.414c.258.152.515.309.769.473q.609.395,1.2.841a23.482,23.482,0,0,1,2.956,2.675c5.017,5.325,8.633,13.392,12.1,21.714a57.1,57.1,0,0,1,3.419,10.832,31.819,31.819,0,0,1,.6,4.887v0C907.5,198.55,906.416,200.419,906.416,200.419Z" transform="translate(-48.32 -43.631)" fill="url(#linear-gradient-13)"/>
      <path id="Trazado_2265" data-name="Trazado 2265" d="M855.542,259.687c-.339-.206-.508-.334-.508-.334A2.143,2.143,0,0,0,855.542,259.687Z" transform="translate(-50.29 -88.298)" fill="#e2c799"/>
      <path id="Trazado_2266" data-name="Trazado 2266" d="M944.333,237.6a24.574,24.574,0,0,1-4.695,2.786,33.016,33.016,0,0,1-11.448,2.741c-1.037.075-2.045.1-3.008.1a44.684,44.684,0,0,1-9.746-1.031s-1.146-1.781-2.7-7.649a42.779,42.779,0,0,1-.813-11.675c.063-1.531.178-2.967.314-4.188a24.966,24.966,0,0,1,.5-3.124,6.151,6.151,0,0,1,.42-1.162,4.759,4.759,0,0,1,.946-1.356c1.845-1.843,5.07-1.8,8.843-.412a15.6,15.6,0,0,1,.562,2.791c.545,4.9-.885,7.092-.885,7.092s5.36,4.041,9.518,2.589c.018-.005.034-.013.053-.019l.008-.016c.085-.178.927-2.031.909-6.246a23.674,23.674,0,0,1,2.883,2.88C941.6,228.3,944.333,237.6,944.333,237.6Z" transform="translate(-74.095 -68.304)" fill="#c5641e"/>
      <path id="Trazado_2267" data-name="Trazado 2267" d="M855.542,259.687c-.339-.206-.508-.334-.508-.334A2.143,2.143,0,0,0,855.542,259.687Z" transform="translate(-50.29 -88.298)" fill="url(#linear-gradient-14)"/>
      <path id="Trazado_2268" data-name="Trazado 2268" d="M878.186,159.03c8.241.354,15.065-6.292,15.065-6.292l-26.321,1.329S869.943,158.676,878.186,159.03Z" transform="translate(-55.274 -43.632)" fill="url(#linear-gradient-15)"/>
      <path id="Trazado_2269" data-name="Trazado 2269" d="M893.25,144.75a23.957,23.957,0,0,1-3.039,2.39c-2.762,1.866-7.144,4.113-12.026,3.9-8.242-.353-11.257-4.964-11.257-4.964,1.17-.68,3.007-1.819,4.427-2.7,1.162-.726,2.044-1.285,2.044-1.285v-2.276c4.346-.593,11.078-6.142,11.078-6.142l.444,5.517C887.932,140.987,893.25,144.75,893.25,144.75Z" transform="translate(-55.273 -35.645)" fill="url(#linear-gradient-16)"/>
      <path id="Trazado_2270" data-name="Trazado 2270" d="M896.442,144.75a23.969,23.969,0,0,1-3.039,2.39c-4.865-4.078-13.575-3.823-18.856-3.765,1.162-.726,2.044-1.285,2.044-1.285v-2.276c4.346-.593,11.078-6.142,11.078-6.142l.444,5.517C891.124,140.987,896.442,144.75,896.442,144.75Z" transform="translate(-58.465 -35.645)" fill="#ec7448" opacity="0.3" style="mix-blend-mode: multiply;isolation: isolate"/>
      <path id="Trazado_2271" data-name="Trazado 2271" d="M908.231,119.178a6.849,6.849,0,0,1-1.368,2.524c-.081.112-.165.228-.256.351-.279.372-.6.787-.986,1.244-.1.126-.21.253-.323.383-.081.1-.167.195-.255.292q-.295.34-.625.7a10.141,10.141,0,0,1-1.358,1.234c-.089.066-.178.133-.269.194a14.381,14.381,0,0,1-2.741,1.515c-.091.04-.178.077-.269.112a21.042,21.042,0,0,1-2.874.947c-.1.024-.191.048-.284.069a23.359,23.359,0,0,1-2.791.514l-.224.024s.686-2.991,1.271-6.895c.115-.75.224-1.534.325-2.337.388-3.108-.437-7.859-1.043-10.986v0q-.072-.368-.137-.7a12.784,12.784,0,0,1-.415-2.454c.228.032.463.059.7.08.5.048,1.03.07,1.564.072.094,0,.184,0,.277,0,.3,0,.59-.008.887-.016l.291-.013c.84-.037,1.677-.106,2.478-.194l.266-.032c.7-.08,1.356-.173,1.952-.266.088-.013.176-.027.264-.042.56-.091,1.058-.178,1.465-.256.1-.019.182-.034.268-.053.572-.109.907-.186.907-.186A20.1,20.1,0,0,1,908.231,119.178Z" transform="translate(-66.442 -23.633)" fill="url(#linear-gradient-17)"/>
      <path id="Trazado_2272" data-name="Trazado 2272" d="M863.5,126.99c-4.616,3.481-11.514,0-11.514,0,2.242.032,3.5-.636,4.193-1.518a4.966,4.966,0,0,0,.614-4c-2.127-6.958-1.881-16.043-1.469-16.894l.693-.027c0,.019-.006.037-.006.056-.01,2.274-.25,13.679,3.069,18.872a6.831,6.831,0,0,0,1.149,1.4,12.3,12.3,0,0,0,1.582,1.231A9.8,9.8,0,0,0,863.5,126.99Z" transform="translate(-49.012 -23.445)" fill="#e2d0bc"/>
      <g id="Grupo_26697" data-name="Grupo 26697" transform="translate(827.146 81.369)">
        <path id="Trazado_2273" data-name="Trazado 2273" d="M908.231,119.178s-.135,1.157-2.61,4.119c.984-7.037-2.625-15.155-4.127-14.823a29.69,29.69,0,0,1-7.471-.114,12.784,12.784,0,0,1-.415-2.454c.228.032.463.059.7.08,4.489.407,10.617-.983,10.617-.983A20.1,20.1,0,0,1,908.231,119.178Z" transform="translate(-893.588 -105.002)" fill="#e2d0bc" opacity="0.4" style="mix-blend-mode: multiply;isolation: isolate"/>
        <path id="Trazado_2274" data-name="Trazado 2274" d="M893.847,132.187l-.224.024s.686-2.991,1.271-6.895c.115-.75.224-1.534.325-2.337.388-3.108-.437-7.859-1.043-10.986a54.985,54.985,0,0,1,1.929,10.159A21.964,21.964,0,0,1,893.847,132.187Z" transform="translate(-893.603 -107.931)" fill="#e2d0bc" opacity="0.4" style="mix-blend-mode: screen;isolation: isolate"/>
      </g>
      <g id="Grupo_26698" data-name="Grupo 26698" transform="translate(806.989 79.431)">
        <path id="Trazado_2275" data-name="Trazado 2275" d="M880.671,118.653c-.1.8-.21,1.587-.325,2.337a27.6,27.6,0,0,1-4.365,3.372s0,0-.006,0c-3.65,2.215-6.822,2.526-9.582,1.417a10.9,10.9,0,0,1-3.271-2.111c-2.273-2.077-3.331-6.557-3.818-10.819-.115-1-.2-1.994-.256-2.938-.17-2.683-.154-4.988-.146-6.137,0-.144,0-.271,0-.378,0-.019.006-.037.006-.056.2-4.081,20.606.572,20.606.572.093.213.178.439.26.672-.238-.021-.473-.048-.7-.08C878.81,104.471,881.29,113.674,880.671,118.653Z" transform="translate(-858.899 -101.667)" fill="url(#radial-gradient)"/>
        <path id="Trazado_2276" data-name="Trazado 2276" d="M880.674,118.653c-.1.8-.21,1.587-.325,2.337a27.607,27.607,0,0,1-4.365,3.372,14.57,14.57,0,0,0,2.651-6.586c.731-4.77-1.2-11.449-1.2-11.449-11.52.731-16.221-.941-18.532-2.55,0-.144,0-.271,0-.378,0-.019.006-.037.006-.056.2-4.081,20.606.572,20.606.572.093.213.178.439.26.672-.238-.021-.473-.048-.7-.08C878.813,104.471,881.293,113.674,880.674,118.653Z" transform="translate(-858.902 -101.667)" fill="#ec7448" opacity="0.2" style="mix-blend-mode: multiply;isolation: isolate"/>
      </g>
      <path id="Trazado_2277" data-name="Trazado 2277" d="M863.5,140.638c-4.616,3.481-11.514,0-11.514,0,2.242.032,3.5-.636,4.193-1.518a5.909,5.909,0,0,0,2.9-1.991,6.831,6.831,0,0,0,1.149,1.4,12.3,12.3,0,0,0,1.582,1.231A9.8,9.8,0,0,0,863.5,140.638Z" transform="translate(-49.012 -37.092)" fill="#e2d0bc" opacity="0.4" style="mix-blend-mode: multiply;isolation: isolate"/>
      <path id="Trazado_2278" data-name="Trazado 2278" d="M893.3,153.209a23.318,23.318,0,0,1-15.812,7.15,14,14,0,0,1-12.281-5.735c.442-.256.79-.433,1-.558,0,0,3.015,4.611,11.257,4.964s15.065-6.293,15.065-6.293C892.785,152.888,893.042,153.045,893.3,153.209Z" transform="translate(-54.55 -43.631)" opacity="0.4" fill="url(#linear-gradient-18)" style="mix-blend-mode: multiply;isolation: isolate"/>
      <path id="Trazado_2279" data-name="Trazado 2279" d="M928.19,245.133c-1.037.075-2.045.1-3.008.1a44.684,44.684,0,0,1-9.746-1.031s-1.146-1.781-2.7-7.649-.715-16.224,0-18.987a6.151,6.151,0,0,1,.42-1.162C923.632,225.041,927.358,240.906,928.19,245.133Z" transform="translate(-74.095 -70.306)" fill="#aa5922"/>
      <g id="Grupo_26699" data-name="Grupo 26699" transform="translate(838.139 143.325)" opacity="0.6">
        <path id="Trazado_2280" data-name="Trazado 2280" d="M932.411,225.11c-6.934,3.544-15.874-2.781-19.9-6.418a24.971,24.971,0,0,1,.5-3.124,6.151,6.151,0,0,1,.42-1.162,4.762,4.762,0,0,1,.947-1.356c1.845-1.843,5.07-1.8,8.843-.412a15.615,15.615,0,0,1,.562,2.791c.545,4.9-.885,7.092-.885,7.092S928.253,226.562,932.411,225.11Z" transform="translate(-912.508 -211.63)" fill="#aa5922" opacity="0.4" style="mix-blend-mode: multiply;isolation: isolate"/>
        <path id="Trazado_2281" data-name="Trazado 2281" d="M950.659,226.9a11.059,11.059,0,0,1-3.792,3.366c.085-.178.927-2.031.909-6.246A23.674,23.674,0,0,1,950.659,226.9Z" transform="translate(-926.903 -216.821)" fill="#aa5922" opacity="0.4" style="mix-blend-mode: multiply;isolation: isolate"/>
      </g>
      <g id="Grupo_26700" data-name="Grupo 26700" transform="translate(838.537 110.419)">
        <path id="Trazado_2282" data-name="Trazado 2282" d="M916.62,183.219l-.28-.071-2.081-.524c-1.36-6.328-1.271-22.869-.564-25.126a16.815,16.815,0,0,1,.9-2.5,22.9,22.9,0,0,1,2.794,2.507c.057.056.109.111.162.167C915.028,163.874,916.62,183.219,916.62,183.219Z" transform="translate(-913.192 -154.997)" fill="#c5641e"/>
        <path id="Trazado_2283" data-name="Trazado 2283" d="M918.447,185.027l-.279-.071c-.178-2.824-.689-11.465-.606-16.392.093-5.445,1.044-7.992,1.656-9.252.057.056.109.111.162.167C916.855,165.682,918.447,185.027,918.447,185.027Z" transform="translate(-915.019 -156.805)" fill="#af5517"/>
      </g>
      <path id="Trazado_2284" data-name="Trazado 2284" d="M939.952,230.243c-4.166,1.5-9.571-2.571-9.571-2.571a8.058,8.058,0,0,0,.927-3.34v0l.2-.146c3.324,2.359,8.745,2.794,9.338-.258,0,0,.008.019.022.056v0C941.04,228.375,939.952,230.243,939.952,230.243Z" transform="translate(-81.856 -73.456)" fill="#82755d" opacity="0.4" style="mix-blend-mode: multiply;isolation: isolate"/>
      <path id="Trazado_2285" data-name="Trazado 2285" d="M926.414,205.289a16.5,16.5,0,0,1,4.343,5.846c1.705,3.988,1.029,11.278-2.217,10.7-1.282-.227-1.086-2.467-1.086-2.467a18.579,18.579,0,0,0,1.8.5s1.861-3.9.975-7.356A24.248,24.248,0,0,0,926.414,205.289Z" transform="translate(-80.195 -65.648)" fill="#60564c"/>
      <path id="Trazado_2286" data-name="Trazado 2286" d="M930.446,189.27a99.149,99.149,0,0,0-6.5-13.292c-9.239-16.085-14.454-18.465-17.014-20.828a24.162,24.162,0,0,0,3.076-2.414c.258.152.515.309.769.473,7.309,4.725,11.9,14.775,16.248,25.229A57.1,57.1,0,0,1,930.446,189.27Z" transform="translate(-72.033 -43.631)" fill="#82755d" opacity="0.2" style="mix-blend-mode: multiply;isolation: isolate"/>
      <path id="Trazado_2287" data-name="Trazado 2287" d="M937.7,237.634l1,1.668s6.08-.764,8.273-1.894a6.788,6.788,0,0,0-1.163-1.429A50.525,50.525,0,0,1,937.7,237.634Z" transform="translate(-84.923 -78.505)" fill="#aa5922"/>
      <path id="Trazado_2288" data-name="Trazado 2288" d="M883.955,122.553c.765.9,4.277-1.477,3.612-2.607S882.8,121.187,883.955,122.553Z" transform="translate(-62.321 -29.77)" fill="#ff554e" opacity="0.5"/>
      <path id="Trazado_2289" data-name="Trazado 2289" d="M860.394,118.7a.812.812,0,0,1-.98.1c-.115-1-.2-1.994-.256-2.938C860.1,116.594,861,118.072,860.394,118.7Z" transform="translate(-52.018 -28.182)" fill="#ff554e" opacity="0.5"/>
      <g id="Grupo_26701" data-name="Grupo 26701" transform="translate(807.513 83.809)">
        <path id="Trazado_2290" data-name="Trazado 2290" d="M859.8,111.8s.2-2.613,2.171-2.6,2.141,2.874,2.141,2.874Z" transform="translate(-859.799 -109.201)" fill="#ec7448" opacity="0.2" style="mix-blend-mode: multiply;isolation: isolate"/>
        <path id="Trazado_2291" data-name="Trazado 2291" d="M864.141,113.116a3.282,3.282,0,0,1-1.617.63,3.328,3.328,0,0,1-1.5-.215,4.132,4.132,0,0,1-1.225-.71,2.971,2.971,0,0,1,2.234-1.175A2.789,2.789,0,0,1,864.141,113.116Z" transform="translate(-859.799 -110.225)" fill="#fff"/>
        <path id="Trazado_2292" data-name="Trazado 2292" d="M864.107,112.674a2.18,2.18,0,0,0-2.247-2.213,2.418,2.418,0,0,0-2.061,1.86,2.359,2.359,0,0,1,2.393-.974A2.068,2.068,0,0,1,864.107,112.674Z" transform="translate(-859.799 -109.725)" fill="#a59285"/>
        <path id="Trazado_2293" data-name="Trazado 2293" d="M863.638,113.235a.994.994,0,0,1-.346.758,3.328,3.328,0,0,1-1.5-.215,1,1,0,1,1,1.845-.543Z" transform="translate(-860.567 -110.472)" fill="#7aa1aa"/>
      </g>
      <g id="Grupo_26702" data-name="Grupo 26702" transform="translate(818.143 84.549)">
        <path id="Trazado_2294" data-name="Trazado 2294" d="M878.1,113.175s.347-2.8,2.467-2.7,2.468,2.964,2.468,2.964S878.782,113.689,878.1,113.175Z" transform="translate(-878.098 -110.475)" fill="#ec7448" opacity="0.2" style="mix-blend-mode: multiply;isolation: isolate"/>
        <path id="Trazado_2295" data-name="Trazado 2295" d="M883.036,114.465a6.185,6.185,0,0,1-1.8.606h0a4.049,4.049,0,0,1-1.792-.1v0a3.07,3.07,0,0,1-1.334-.768,2.754,2.754,0,0,1,2.579-1.26A3.044,3.044,0,0,1,883.036,114.465Z" transform="translate(-878.098 -111.498)" fill="#fff"/>
        <path id="Trazado_2296" data-name="Trazado 2296" d="M878.1,113.753c-.063-.5.533-1.961,2.542-1.895a2.571,2.571,0,0,1,2.393,2.162,3.351,3.351,0,0,0-2.742-1.331A2.6,2.6,0,0,0,878.1,113.753Z" transform="translate(-878.094 -111.054)" fill="#a59285"/>
        <path id="Trazado_2297" data-name="Trazado 2297" d="M882.293,114.818a1.033,1.033,0,0,1-.191.606h0a4.049,4.049,0,0,1-1.792-.1v0a1.038,1.038,0,0,1-.127-.5,1.056,1.056,0,1,1,2.113,0Z" transform="translate(-878.968 -111.851)" fill="#7aa1aa"/>
      </g>
      <path id="Trazado_2298" data-name="Trazado 2298" d="M807.62,315.188c2.371,12.078,5.546,34.821,6.45,41.407-.212.689-.335,1.059-.335,1.059s-8.774-37.149-10.5-48.182,0-13.959,0-13.959l-6.247-39.405L791,293.519c3.057,3.988,5.052,13.073,1.481,28.361s-17.833,34.11-17.833,34.11l-1.164-1.215c4.748-7.889,13.262-24.057,15.922-36.13a56.04,56.04,0,0,0-.134-25.657s3.059-34.565,3.21-35.309-10.255-8.277-10.255-8.277L777.508,251s-.2-6.049-.145-9.189c-.035-2.313-.053-3.723-.053-3.723s4.386,2.526,15.666,3.855,21.025-4.9,21.025-4.9l.665,9.955c.159,2.571.359,6.365.572,10.637-4.342-.755-10.63-2.483-11.074-2.4-.665.134-3.722,3.324-3.576,3.722s5.3,35.894,5.3,35.894S804.828,300.964,807.62,315.188Z" transform="translate(-16.126 -78.948)" fill="#8e502a" opacity="0.4" style="mix-blend-mode: multiply;isolation: isolate"/>
      <g id="Grupo_26705" data-name="Grupo 26705" transform="translate(746.05 144.801)">
        <path id="Trazado_2299" data-name="Trazado 2299" d="M768.3,225.906s-1.785-5.743-.712-10.412l-.965-1.325c.01.344-1.109,6.448.643,12.186Z" transform="translate(-759.157 -214.169)" fill="#493c30"/>
        <g id="Grupo_26704" data-name="Grupo 26704" transform="translate(0 8.849)">
          <path id="Trazado_2300" data-name="Trazado 2300" d="M789.463,236.475c.018.193,1.1,11.023,1.248,11.079a9.69,9.69,0,0,0,3.2-1.156s-.693-10.08-1.08-11.257Z" transform="translate(-768.869 -231.805)" fill="#4b423f"/>
          <path id="Trazado_2301" data-name="Trazado 2301" d="M780.134,248.237l-5.015-.372-9.8-.726-1.1-10.369,9.91.263,4.762.125Z" transform="translate(-758.292 -232.487)" fill="#62615f"/>
          <path id="Trazado_2302" data-name="Trazado 2302" d="M764.217,235.658l3.562-1.545,14.473.6-3.366,1.334Z" transform="translate(-758.292 -231.374)" fill="#707070"/>
          <path id="Trazado_2303" data-name="Trazado 2303" d="M781.441,232.735l-2.954.947-.131-.019-3.895-.561a20.771,20.771,0,0,0,.744-3.7h3.031Z" transform="translate(-762.584 -229.399)" fill="#4b423f"/>
          <path id="Trazado_2304" data-name="Trazado 2304" d="M775.531,233.357l3.476.386-.961-2.817h-2.059Z" transform="translate(-763.033 -230.039)" fill="#cfcfcf"/>
          <g id="Grupo_26703" data-name="Grupo 26703" transform="translate(0 5.31)">
            <path id="Trazado_2305" data-name="Trazado 2305" d="M773.641,241.251c-.836-.331-5.291-1.261-8.182-1.847a4.646,4.646,0,0,1,.232,8.108l8.191-2.1A4.17,4.17,0,0,0,773.641,241.251Z" transform="translate(-758.813 -238.901)" fill="#3f3d3f"/>
            <path id="Trazado_2306" data-name="Trazado 2306" d="M772.967,246.626l-1.464.439a14.033,14.033,0,0,0-.977-6.667l1.506.343A11.608,11.608,0,0,1,772.967,246.626Z" transform="translate(-760.935 -239.317)" fill="#211922"/>
            <path id="Trazado_2307" data-name="Trazado 2307" d="M761.129,238.539l0,.021.071-.007Z" transform="translate(-756.999 -238.538)" fill="#3f3d3f"/>
            <path id="Trazado_2308" data-name="Trazado 2308" d="M761.625,238.538c-.125,0-.248.005-.369.015.262.052,1.21.239,2.442.489A4.513,4.513,0,0,0,761.625,238.538Z" transform="translate(-757.052 -238.538)" fill="#514e58"/>
            <path id="Trazado_2309" data-name="Trazado 2309" d="M760.667,239.052c-1.232-.25-2.18-.436-2.442-.489l-.071.007a4.538,4.538,0,0,0-.933.191,4.629,4.629,0,0,0,1.374,9.031,4.469,4.469,0,0,0,.832-.077,4.516,4.516,0,0,0,1.474-.555,4.646,4.646,0,0,0-.232-8.108Z" transform="translate(-754.021 -238.548)" fill="#514e58"/>
            <path id="Trazado_2310" data-name="Trazado 2310" d="M765.471,243.16a4.609,4.609,0,0,1-3.738,4.544,4.525,4.525,0,0,0,2.05-4.633c-.225-2.523-1.127-3.453-4.255-4.321a4.521,4.521,0,0,1,1.374-.212A4.6,4.6,0,0,1,765.471,243.16Z" transform="translate(-756.328 -238.538)" fill="#35333a"/>
            <path id="Trazado_2311" data-name="Trazado 2311" d="M758.306,241.081a2.977,2.977,0,0,0-2,3.371c.193,2.138,1.487,3.494,2.953,3.365s2.144-1.968,1.882-4.029S759.915,240.859,758.306,241.081Z" transform="translate(-754.973 -239.589)" fill="#346784"/>
            <path id="Trazado_2312" data-name="Trazado 2312" d="M757.708,241.256a3.48,3.48,0,0,0-2.024,3.554,3.421,3.421,0,0,0,3.308,3.095,4.528,4.528,0,0,1-1.284-6.649Z" transform="translate(-754.702 -239.677)" fill="#34333b"/>
            <path id="Trazado_2313" data-name="Trazado 2313" d="M758.965,242.219c-.381.547-1.137,2.35-.582,3.413s1.328.314.941-1.019A8.729,8.729,0,0,1,758.965,242.219Z" transform="translate(-755.766 -240.08)" fill="#7db3c8"/>
            <path id="Trazado_2314" data-name="Trazado 2314" d="M760.306,249.717c-.579.287-.2,1.468.357.964S760.663,249.541,760.306,249.717Z" transform="translate(-756.533 -243.209)" fill="#7db3c8"/>
          </g>
        </g>
        <path id="Trazado_2315" data-name="Trazado 2315" d="M780.381,233.682l-.131-.019a29.923,29.923,0,0,0-1.268-4.264h1.149l3.2,3.336Z" transform="translate(-764.478 -220.55)" fill="#8e502a" opacity="0.3" style="mix-blend-mode: multiply;isolation: isolate"/>
        <path id="Trazado_2316" data-name="Trazado 2316" d="M782.263,248.055a39.349,39.349,0,0,0-.994-10.832l4.762.125,1.247,11.079Z" transform="translate(-765.436 -223.827)" fill="#8e502a" opacity="0.3" style="mix-blend-mode: multiply;isolation: isolate"/>
      </g>
      <g id="Grupo_26706" data-name="Grupo 26706" transform="translate(811.36 85.554)">
        <path id="Trazado_2317" data-name="Trazado 2317" d="M870.151,117.546c-.01.066-.021.132-.034.2-.373,1.794-2.3,2.765-3.324,1.84a1.021,1.021,0,0,1-.285-1.212A15.333,15.333,0,0,1,868.122,116c.93-1.393.734-3.693.833-3.791C868.954,112.2,870.416,115.626,870.151,117.546Z" transform="translate(-866.421 -112.204)" fill="url(#linear-gradient-19)"/>
        <path id="Trazado_2318" data-name="Trazado 2318" d="M870.116,121.74c-.373,1.794-2.3,2.765-3.324,1.84a1.021,1.021,0,0,1-.285-1.212,1.581,1.581,0,0,0,1.865.779A2.741,2.741,0,0,0,870.116,121.74Z" transform="translate(-866.421 -116.199)" fill="#ec7448" opacity="0.2" style="mix-blend-mode: multiply;isolation: isolate"/>
      </g>
      <path id="Trazado_2319" data-name="Trazado 2319" d="M881.684,203.518c1.467,13.932,2,18.84,2,18.84a37.861,37.861,0,0,1-9.68,5.931q-.727-.015-1.441-.071a52.589,52.589,0,0,1-16.3-4.377c-1.23-.547-2.159-1.018-2.687-1.316-.34-.207-.511-.335-.511-.335-.088-.266-.619-.532-1.949-10.989-1.137-8.955-1.042-28.954.344-37.97l4.918-1.38,8.088,5.068,19.569-6.27S880.217,189.589,881.684,203.518Z" transform="translate(-48.32 -51.136)" fill="#82755d" opacity="0.2" style="mix-blend-mode: multiply;isolation: isolate"/>
      <path id="Trazado_2320" data-name="Trazado 2320" d="M886.253,118.99a2.339,2.339,0,0,1-.36.282A1.237,1.237,0,0,0,886.253,118.99Z" transform="translate(-63.218 -29.493)" fill="#9acad1" opacity="0.4"/>
      <path id="Trazado_2321" data-name="Trazado 2321" d="M885.874,119.481l.01-.006-.012.006Z" transform="translate(-63.21 -29.697)" fill="#9acad1" opacity="0.4"/>
      <g id="Grupo_26710" data-name="Grupo 26710" transform="translate(806.175 86.337)">
        <g id="Grupo_26707" data-name="Grupo 26707" transform="translate(11.034 0.513)">
          <path id="Trazado_2322" data-name="Trazado 2322" d="M882.685,115.59c-.524-.989-2.751-1.421-4.529-.985s-1.666,1.667-1.668,1.791h.006c-.075-.7,1.005-2.078,3.757-1.74,2.792.343,2.56,1.545,2.114,2.35a.755.755,0,0,1-.052.075A1.219,1.219,0,0,0,882.685,115.59Z" transform="translate(-876.487 -114.435)" fill="#9acad1" opacity="0.7"/>
          <path id="Trazado_2323" data-name="Trazado 2323" d="M882.364,117.128a.589.589,0,0,1-.051.075,2.4,2.4,0,0,1-.359.282c-.005,0-.008.005-.013.005a6.363,6.363,0,0,1-3.549.492,3.1,3.1,0,0,1-1.186-.407,1.445,1.445,0,0,1-.711-1.026c0-.008,0-.021,0-.032-.056-.529.547-1.444,2.034-1.715a5.761,5.761,0,0,1,1.726-.024c.048.006.1.011.141.019C883.036,115.161,882.8,116.336,882.364,117.128Z" transform="translate(-876.488 -114.557)" fill="#ace6ea" opacity="0.4"/>
          <path id="Trazado_2324" data-name="Trazado 2324" d="M880.911,114.8c-.453.752-1.479,2.367-2,3.185a3.1,3.1,0,0,1-1.186-.407c.3-.7.887-2.028,1.321-2.773a5.761,5.761,0,0,1,1.726-.024C880.818,114.784,880.865,114.789,880.911,114.8Z" transform="translate(-877.005 -114.557)" fill="#9acad1" opacity="0.3" style="mix-blend-mode: screen;isolation: isolate"/>
        </g>
        <g id="Grupo_26708" data-name="Grupo 26708" transform="translate(0 0)">
          <path id="Trazado_2325" data-name="Trazado 2325" d="M863.7,114.707c-.523-.989-2.75-1.421-4.528-.985s-1.666,1.668-1.669,1.791h.006c-.074-.7,1.006-2.078,3.758-1.74,2.791.342,2.56,1.544,2.113,2.35a.463.463,0,0,1-.052.074A1.215,1.215,0,0,0,863.7,114.707Z" transform="translate(-857.497 -113.552)" fill="#9acad1" opacity="0.7"/>
          <path id="Trazado_2326" data-name="Trazado 2326" d="M863.375,116.246a.479.479,0,0,1-.05.074,2.448,2.448,0,0,1-.359.282c-.006,0-.008.006-.013.006a6.368,6.368,0,0,1-3.55.492,3.108,3.108,0,0,1-1.186-.407,1.45,1.45,0,0,1-.709-1.026c0-.008,0-.021,0-.032-.057-.529.547-1.444,2.034-1.715a5.772,5.772,0,0,1,1.725-.024c.048.005.1.011.141.019C864.048,114.278,863.814,115.454,863.375,116.246Z" transform="translate(-857.499 -113.674)" fill="#ace6ea" opacity="0.4"/>
          <path id="Trazado_2327" data-name="Trazado 2327" d="M861.92,113.914c-.452.752-1.478,2.367-2,3.185a3.107,3.107,0,0,1-1.186-.407c.3-.7.889-2.028,1.322-2.773a5.771,5.771,0,0,1,1.725-.024C861.827,113.9,861.876,113.906,861.92,113.914Z" transform="translate(-858.015 -113.674)" fill="#9acad1" opacity="0.3" style="mix-blend-mode: screen;isolation: isolate"/>
        </g>
        <g id="Grupo_26709" data-name="Grupo 26709" transform="translate(6.048 0.946)">
          <path id="Trazado_2328" data-name="Trazado 2328" d="M872.973,116.378a.1.1,0,0,1-.057-.017c-2.789-1.9-4.831-.451-4.852-.437a.1.1,0,1,1-.117-.161,3.515,3.515,0,0,1,1.447-.535,5.022,5.022,0,0,1,3.635.968.1.1,0,0,1-.056.182Z" transform="translate(-867.905 -115.18)" fill="#a7bebf"/>
        </g>
      </g>
      <path id="Trazado_2329" data-name="Trazado 2329" d="M847.439,195.524c-.172,1.989-.247,4.385-.238,6.969a145.682,145.682,0,0,0,1.591,21.122l-13.161-.691-3.98-.21-15.828,4.153-11.913-5.24-.317-.138-5.416,6-.035.04-.138-.085-15.121-9.367-.3-.183-4.977-27.984-1.271-7.147-1.994-11.217,18.146-5.652.066-.021,0,0,.282.173,15.4,9.518.808-.228,14.357-4.049,1.8-.508,6.71,5.754,20.456-8.546s-.066.229-.182.66A164.335,164.335,0,0,0,847.439,195.524Z" transform="translate(-16.486 -49.135)" fill="#bfd4d6"/>
      <path id="Trazado_2330" data-name="Trazado 2330" d="M861.83,180.074l-.273,46.177L845.729,230.4l9.391-56.084,6.711,5.754Z" transform="translate(-46.392 -52.673)" fill="#badde5" opacity="0.4" style="mix-blend-mode: screen;isolation: isolate"/>
      <path id="Trazado_2331" data-name="Trazado 2331" d="M829.333,179.106l-4.653,45.92h0l12.23,5.379h0L846.3,174.32l-16.969,4.786Z" transform="translate(-37.573 -52.673)" fill="#bed5d8" opacity="0.2" style="mix-blend-mode: multiply;isolation: isolate"/>
      <g id="Grupo_26711" data-name="Grupo 26711" transform="translate(767.078 91.791)">
        <path id="Trazado_2332" data-name="Trazado 2332" d="M809.043,126.427a6.474,6.474,0,0,1-.42,1.515c-1.59,3.852-6.679,5.345-10.747,4.159-2.605-.761-4.734-2.991-6.082-4.768a19.445,19.445,0,0,1-1.582-2.411s.224-.338.5-.731c.43-.6,1-1.335,1.13-1.245.237.162.481.306.729.444,5.833,3.233,14.569-.051,14.569-.051Z" transform="translate(-790.211 -122.939)" fill="url(#linear-gradient-20)"/>
        <path id="Trazado_2333" data-name="Trazado 2333" d="M809.043,126.427a6.474,6.474,0,0,1-.42,1.515c-5.326-2.063-13.806-1.433-16.83-.609a19.445,19.445,0,0,1-1.582-2.411s.224-.338.5-.731c.43-.6,1-1.335,1.13-1.245.237.162.481.306.729.444,5.833,3.233,14.569-.051,14.569-.051Z" transform="translate(-790.211 -122.939)" fill="#ec7448" opacity="0.3" style="mix-blend-mode: multiply;isolation: isolate"/>
      </g>
      <path id="Trazado_2334" data-name="Trazado 2334" d="M806.37,82.094a9.243,9.243,0,0,1-1.234,2.018c-.085.1-.133.154-.133.154.266,3.656-1.529,13.427-8.309,15.6s-11.5-.843-14.424-2.779c-2.467-1.63-3.422-6.134-3.659-7.5a.026.026,0,0,0,0-.013c-.043-.245-.061-.386-.061-.386a5.127,5.127,0,0,1-2.164.08,5.854,5.854,0,0,1-4.35-2.941c-1.212-2.366-.709-5.783,1-6.615a1.9,1.9,0,0,1,.526-.165c2-.311,3.354,4.358,3.51,4.916a27.659,27.659,0,0,1-.6-5.363,19.761,19.761,0,0,1,.58-5.11,14.2,14.2,0,0,1,.537-1.67,5.823,5.823,0,0,1,1.419-2.345.575.575,0,0,1,.556-.115c.745.264,1.473,2.154,5.36,2.64a14.448,14.448,0,0,0,11.7-4.586c1.279-1.534.752-3.643,1.021-4.15a16.919,16.919,0,0,1,3.012,3.788,21.45,21.45,0,0,1,2.159,5.472c.123.564.221,1.08.3,1.513.154.869.223,1.42.223,1.42a4.426,4.426,0,0,1,.313-.314,2.178,2.178,0,0,1,.891-.516c1.332-.348,2.295,1.42,2.451,3.754A6.824,6.824,0,0,1,806.37,82.094Z" transform="translate(-15.239 -6.357)" fill="url(#radial-gradient-2)"/>
      <path id="Trazado_2335" data-name="Trazado 2335" d="M806.34,84.112c-.085.1-.133.154-.133.154.266,3.656-1.529,13.427-8.309,15.6s-11.5-.843-14.424-2.779c-2.467-1.63-3.422-6.134-3.659-7.5a.026.026,0,0,0,0-.013c-.043-.245-.061-.386-.061-.386a5.127,5.127,0,0,1-2.164.08c-.127-3.2-1.872-7.146-3.348-9.555a1.9,1.9,0,0,1,.526-.165c2-.311,3.354,4.358,3.51,4.916a27.659,27.659,0,0,1-.6-5.363,19.761,19.761,0,0,1,.58-5.11c.63,2.973,1.228,6.876,1.97,10.686,1.941,9.97,7.231,12.884,9.552,13.48a13.211,13.211,0,0,0,12.3-3.916c4.475-4.608,2.658-13.429,1.5-17.659a30.131,30.131,0,0,0-4.329-8.487S795.44,74.384,788,74.118c-4.972-.181-6.764-2.688-7.224-4.257.745.264,1.473,2.154,5.36,2.64a14.448,14.448,0,0,0,11.7-4.586c1.279-1.534.752-3.643,1.021-4.15a16.919,16.919,0,0,1,3.012,3.788,21.45,21.45,0,0,1,2.159,5.472c.123.564.221,1.08.3,1.513.154.869.223,1.42.223,1.42a4.426,4.426,0,0,1,.313-.314,2.178,2.178,0,0,1,.891-.516,12.5,12.5,0,0,0,1.823,6.966A9.243,9.243,0,0,1,806.34,84.112Z" transform="translate(-16.442 -6.357)" fill="#ec7448" opacity="0.2" style="mix-blend-mode: multiply;isolation: isolate"/>
      <path id="Trazado_2336" data-name="Trazado 2336" d="M787.024,98.819c-.213,1.024,2.411,1.9,2.447.905S787.19,98.021,787.024,98.819Z" transform="translate(-21.793 -20.898)" fill="#ff554e" opacity="0.5"/>
      <path id="Trazado_2337" data-name="Trazado 2337" d="M768.88,193.142c-9.193-2.164-11.5,2.773-11.5,2.773s-.412-.941-.841-2c3.348-4.942,10.155-2.981,12.052-2.4Z" transform="translate(-9.027 -59.512)" opacity="0.6" fill="url(#linear-gradient-9)" style="mix-blend-mode: multiply;isolation: isolate"/>
      <path id="Trazado_2338" data-name="Trazado 2338" d="M821.427,92.767c.737.414,2.5-1.241,1.567-2.127C822.245,89.927,820.556,92.279,821.427,92.767Z" transform="translate(-36.108 -17.56)" fill="#ff554e" opacity="0.5"/>
      <path id="Trazado_2339" data-name="Trazado 2339" d="M808.688,90.408c.266,3.656-1.529,13.427-8.308,15.6s-11.5-.843-14.424-2.779c-2.467-1.63-3.422-6.134-3.659-7.5a.026.026,0,0,0,0-.013,1.649,1.649,0,0,0-.061-.386,34.318,34.318,0,0,1-1.547-7.054c-.017-.207-.255-1.491-.524-3.033a18.122,18.122,0,0,1,1.117-6.78c.156-.024.255-.037.255-.037-.651,1.561-.7,9.94,1.364,13.505s12.141,2.859,15.863,1.676,8.307-3.51,8.318-5.581c0,0-.1-5.793-1.008-8.851l.731,1.506c.154.869.223,1.42.223,1.42C807.132,81.983,808.688,90.408,808.688,90.408Z" transform="translate(-18.922 -12.499)" fill="#70685b" opacity="0.4"/>
      <path id="Trazado_2340" data-name="Trazado 2340" d="M798.144,149.435l-2.3.715-1.154.359c-2.069-7.394-5.77-20-6.857-23.69.1-.071.207-.141.313-.207a.463.463,0,0,1,.045-.027C791.25,130.813,795.982,143.429,798.144,149.435Z" transform="translate(-22.138 -32.675)" opacity="0.4" fill="url(#linear-gradient-9)" style="mix-blend-mode: multiply;isolation: isolate"/>
      <g id="Grupo_26712" data-name="Grupo 26712" transform="translate(752.721 101.905)">
        <path id="Trazado_2341" data-name="Trazado 2341" d="M772.347,187.351l.287,1.622c-.279-.066-.55-.125-.816-.175-1.8-6.817-6.317-7.022-6.317-7.022a5.473,5.473,0,0,1,5.77-.481Z" transform="translate(-765.502 -157.248)" opacity="0.4" fill="url(#linear-gradient-9)" style="mix-blend-mode: multiply;isolation: isolate"/>
        <path id="Trazado_2342" data-name="Trazado 2342" d="M774.977,160.02l-.584.183-1.258.391c-.885-6.022-2.6-16.073-3.587-19.986-.021-.091-.045-.178-.066-.263l.071.255Z" transform="translate(-767.169 -140.345)" opacity="0.4" fill="url(#linear-gradient-24)" style="mix-blend-mode: multiply;isolation: isolate"/>
      </g>
      <path id="Trazado_2343" data-name="Trazado 2343" d="M823.939,159.187l-1.358-.84-1.9-1.173c.019-8.671,1.375-22.488,1.933-24.916Z" transform="translate(-35.9 -35.052)" opacity="0.4" fill="url(#linear-gradient-25)" style="mix-blend-mode: multiply;isolation: isolate"/>
      <path id="Trazado_2344" data-name="Trazado 2344" d="M810.661,124.658c-.311,3.371-2.334,8.755-9.708,9.343-8.654.691-11.842-6.363-12.579-8.628q.16-.1.319-.2c.413-.253.83-.481,1.253-.694-.281.393-.5.731-.5.731s3.1,5.849,7.665,7.179,10.415-.71,11.167-5.674l-1.9-3.087a14.178,14.178,0,0,1,3.1.649C809.856,124.392,810.252,124.52,810.661,124.658Z" transform="translate(-22.364 -31.437)" opacity="0.6" fill="url(#linear-gradient-9)" style="mix-blend-mode: multiply;isolation: isolate"/>
      <path id="Trazado_2345" data-name="Trazado 2345" d="M788.158,150.026l-12.949,4.033-.816.255c-1.683-7.5-3.611-15.309-4.911-19.454.066-.141.131-.277.194-.4.112-.228.218-.435.321-.618a4.923,4.923,0,0,1,.386-.6c.966-1.252,3.449-2.826,5.679-4.134,1.72-1.01,3.292-1.861,3.908-2.289.266-.186.537-.361.808-.526.308.657.72,1.585,1.263,2.893.5,1.214,1.122,2.762,1.877,4.719A123.911,123.911,0,0,1,788.158,150.026Z" transform="translate(-14.449 -32.551)" fill="url(#linear-gradient-27)"/>
      <path id="Trazado_2346" data-name="Trazado 2346" d="M836.428,156.143l-1.495.423-5.475,1.542-.808.228-5.078-3.137a160.544,160.544,0,0,1,.038-26.088c.13-1.691.269-3.166.393-4.365a54.308,54.308,0,0,1,8.059,3.265c1.052.521,2.071,1.066,3.006,1.616.2.117.4.234.594.353C834.319,139.14,835.359,149.347,836.428,156.143Z" transform="translate(-36.892 -31.905)" fill="url(#linear-gradient-28)"/>
      <path id="Trazado_2347" data-name="Trazado 2347" d="M774.143,95.378c.794-.073,3.357,2.182,4.221,4.317,0,0,.1,1.044-1.263.693a1.311,1.311,0,0,1-.565-2.289S773.719,95.417,774.143,95.378Z" transform="translate(-16.383 -19.6)" fill="#e57b47" opacity="0.7"/>
      <path id="Trazado_2348" data-name="Trazado 2348" d="M828.892,85.862a32.225,32.225,0,0,0-.982,3.493l.337,1.769s.732-1.418.153-2.033C828.4,89.091,828.892,86.294,828.892,85.862Z" transform="translate(-38.927 -15.596)" fill="#e57b47" opacity="0.7"/>
      <g id="Grupo_26714" data-name="Grupo 26714" transform="translate(756.398 48.591)">
        <path id="Trazado_2349" data-name="Trazado 2349" d="M803.536,69.606a36.682,36.682,0,0,0-2.326-5.119c-1.309-2.387-2.053-4.985-3.192-5.916-.042.34-.1.665-.167.976-.021.106-.045.213-.071.314a8.055,8.055,0,0,1-4.4,5.565c-.072.037-.144.071-.216.1a14.884,14.884,0,0,1-4.847,1.218c-.224.021-.442.037-.657.048-.119,0-.238.008-.356.01a11.078,11.078,0,0,1-7.76-2.88c-.064-.048-.176.013-.319.162a2.351,2.351,0,0,0-.194.231,12.85,12.85,0,0,0-2.1,7.126c.138,3.844,1.93,8.167.6,7.726-.854-.281-2.592-4.469-3.39-9.321a10.134,10.134,0,0,1,1.279-7.407c.058-.085.093-.128.093-.128-.917-.515-2.986-1.741-3.539-3.908v0a3.013,3.013,0,0,1-.069-.321,4.385,4.385,0,0,1-.069-.784,3.105,3.105,0,0,1,.206-1.128c.035-.085.07-.164.11-.244a4.009,4.009,0,0,1,1.677-1.643c.106-.062.212-.114.317-.165.2-.1.382-.173.55-.236a5.874,5.874,0,0,1,.729-.229.72.72,0,0,1-.137-.7,3.657,3.657,0,0,1,1.2-1.63c.1-.088.2-.173.314-.255a9.22,9.22,0,0,1,5.406-1.733,12.521,12.521,0,0,1,9.217,3.618,4.806,4.806,0,0,1-.8-2.794,2.035,2.035,0,0,1,.061-.34v0A1.546,1.546,0,0,1,792,48.642a5.471,5.471,0,0,1,4.028,1.489c1.435,1.152,2,3.231,2.2,5.06.01.1.02.207.028.309,0,.027.005.053.009.08C798.55,55.648,804.2,64.089,803.536,69.606Z" transform="translate(-771.83 -48.597)" fill="url(#linear-gradient-29)"/>
        <path id="Trazado_2350" data-name="Trazado 2350" d="M805.071,69.6a36.682,36.682,0,0,0-2.326-5.119c-1.309-2.387-2.053-4.985-3.192-5.916-.794,6.222-5.649,7.777-9.7,8.176a11.136,11.136,0,0,1-8.773-2.821c-.4-.3-2.755,3.672-2.614,7.519s1.93,8.167.6,7.726c-.854-.281-2.592-4.469-3.39-9.321a10.134,10.134,0,0,1,1.279-7.407c1.279.274,3.653.7,4.336.361,0,0,4.044,3.544,8.742,2.348s8.949-3.938,9.26-7.49c.274-3.138-2.7-8.285-5.756-9.021a5.377,5.377,0,0,1,4.028,1.489c1.536,1.234,2.074,3.531,2.237,5.448C800.085,55.642,805.735,64.084,805.071,69.6Z" transform="translate(-773.365 -48.591)" fill="#847c71" opacity="0.3" style="mix-blend-mode: multiply;isolation: isolate"/>
        <path id="Trazado_2351" data-name="Trazado 2351" d="M776.721,56.086c2.98.045,5.52,1.888,6.921,3.159-2.6-2.045-6.514-2.037-8.38-1.827a6.444,6.444,0,0,1,1.6-.63A.72.72,0,0,1,776.721,56.086Z" transform="translate(-773.268 -51.731)" fill="#847c71" opacity="0.3" style="mix-blend-mode: multiply;isolation: isolate"/>
        <g id="Grupo_26713" data-name="Grupo 26713" transform="translate(0.069 1.22)" opacity="0.5" style="mix-blend-mode: screen;isolation: isolate">
          <path id="Trazado_2352" data-name="Trazado 2352" d="M787.806,72.076c-.119,0-.238.008-.356.01-1.044-1.066-2.073-2.146-3.166-3.164a35.609,35.609,0,0,0-5.057-3.852,35.189,35.189,0,0,0-7.041-3.619c.035-.085.07-.164.11-.244a34.583,34.583,0,0,1,7.077,3.64,35.94,35.94,0,0,1,5.11,3.9C785.623,69.821,786.706,70.959,787.806,72.076Z" transform="translate(-772.048 -55.097)" fill="#6b635b"/>
          <path id="Trazado_2353" data-name="Trazado 2353" d="M795.043,69.232c-.071.037-.144.071-.216.1-.266-.4-.582-.76-.836-1.087-.661-.862-1.321-1.726-2.034-2.544a21.767,21.767,0,0,0-5.554-4.711,22.8,22.8,0,0,0-6.815-2.6,27.1,27.1,0,0,0-3.782-.468c.2-.1.382-.173.55-.236a22.19,22.19,0,0,1,16.393,8.546c.7.863,1.419,1.739,2.059,2.656C794.887,69,794.966,69.116,795.043,69.232Z" transform="translate(-773.565 -53.622)" fill="#6b635b"/>
          <path id="Trazado_2354" data-name="Trazado 2354" d="M801.2,61.321c-.021.106-.045.213-.071.314a23.749,23.749,0,0,0-9.328-6.413,28.052,28.052,0,0,0-7.429-1.962,36.311,36.311,0,0,0-4.022-.154c-.168,0-.343-.005-.522-.011.1-.088.2-.173.314-.255h.071a34.714,34.714,0,0,1,4.172.154,28.574,28.574,0,0,1,7.5,1.976A24.393,24.393,0,0,1,801.2,61.321Z" transform="translate(-775.252 -51.589)" fill="#6b635b"/>
          <path id="Trazado_2355" data-name="Trazado 2355" d="M779.271,70.924a2.351,2.351,0,0,0-.194.231,13.613,13.613,0,0,0-1.043-1.377,17.885,17.885,0,0,0-2.6-2.576,14.585,14.585,0,0,0-3.414-1.959v0a3.044,3.044,0,0,1-.069-.321,13.8,13.8,0,0,1,3.992,2.361A17.82,17.82,0,0,1,779.271,70.924Z" transform="translate(-771.949 -56.651)" fill="#6b635b"/>
          <path id="Trazado_2356" data-name="Trazado 2356" d="M811.8,56.373a21.554,21.554,0,0,1-4.034-2.191,16.714,16.714,0,0,1-3.6-3.151,2.042,2.042,0,0,1,.061-.34,15.624,15.624,0,0,0,4.069,3.526,23.029,23.029,0,0,0,3.475,1.848C811.781,56.169,811.791,56.272,811.8,56.373Z" transform="translate(-785.446 -50.691)" fill="#6b635b"/>
        </g>
      </g>
      <g id="Grupo_26715" data-name="Grupo 26715" transform="translate(776.271 72.06)">
        <path id="Trazado_2357" data-name="Trazado 2357" d="M810.664,96.173c-.089.987-1.594,2.2-3.5,1.1a2.122,2.122,0,0,1-.9-1.308c-.572-1.941.077-5.243.281-6.98a11.3,11.3,0,0,0,1.805,3.467c.638.872,1.194,1.516,1.6,2.053A2.488,2.488,0,0,1,810.664,96.173Z" transform="translate(-806.031 -88.981)" fill="url(#linear-gradient-30)"/>
        <path id="Trazado_2358" data-name="Trazado 2358" d="M810.83,100.153c-.089.987-1.594,2.2-3.5,1.1a2.122,2.122,0,0,1-.9-1.308,2.738,2.738,0,0,0,2.515.643c1.073-.245,1.236-1.268,1.175-2.1A2.488,2.488,0,0,1,810.83,100.153Z" transform="translate(-806.198 -92.961)" fill="#ec7448" opacity="0.2" style="mix-blend-mode: multiply;isolation: isolate"/>
      </g>
      <g id="Grupo_26716" data-name="Grupo 26716" transform="translate(764.32 67.76)">
        <path id="Trazado_2359" data-name="Trazado 2359" d="M792.7,83.688a.111.111,0,0,1-.091.112c-.888.22-6.513,1.861-7.045.885a1.2,1.2,0,0,1,.277-1.295,4.912,4.912,0,0,1,.963-.92l.132-.4c.133-.4,1.42.088,1.42.088-.132-.62.4-.665,1.729-.487A3.954,3.954,0,0,1,792.7,83.688Z" transform="translate(-785.463 -81.582)" fill="#999189"/>
        <path id="Trazado_2360" data-name="Trazado 2360" d="M792.7,84.835a.111.111,0,0,1-.091.112c-.888.22-6.513,1.861-7.045.885a1.2,1.2,0,0,1,.277-1.295,13.8,13.8,0,0,1,2.978.449,1.423,1.423,0,0,1-.33-.553C788.446,84.21,791.8,84.3,792.7,84.835Z" transform="translate(-785.463 -82.729)" fill="#847c71" opacity="0.2" style="mix-blend-mode: multiply;isolation: isolate"/>
      </g>
      <g id="Grupo_26717" data-name="Grupo 26717" transform="translate(779.016 64.794)">
        <path id="Trazado_2361" data-name="Trazado 2361" d="M810.871,80.108c-.091-.043-.123-.141-.112-.279a6.947,6.947,0,0,1,1.973-3.044c.4-.088.709.532.709.532s1.816-1.063,2.17-.8a.729.729,0,0,1,.252.324.739.739,0,0,1,.059.34.69.69,0,0,1,.844.532C816.986,78.425,812.333,80.818,810.871,80.108Z" transform="translate(-810.757 -76.476)" fill="#999189"/>
        <path id="Trazado_2362" data-name="Trazado 2362" d="M810.871,80.373c-.091-.043-.123-.141-.112-.279.633-.88,2.015-2.106,2.152-1.8a1.224,1.224,0,0,1,0,.843,10.127,10.127,0,0,1,2.953-2.026.739.739,0,0,1,.059.34.69.69,0,0,1,.844.532C816.986,78.689,812.333,81.082,810.871,80.373Z" transform="translate(-810.757 -76.74)" fill="#847c71" opacity="0.2" style="mix-blend-mode: multiply;isolation: isolate"/>
      </g>
      <path id="Trazado_2363" data-name="Trazado 2363" d="M786.787,129.181a11.741,11.741,0,0,1-5.98-.077c1.721-1.01,3.292-1.861,3.908-2.289.266-.186.537-.361.808-.526C785.832,126.945,786.244,127.873,786.787,129.181Z" transform="translate(-19.193 -32.551)" fill="#b49933" opacity="0.3" style="mix-blend-mode: multiply;isolation: isolate"/>
      <path id="Trazado_2364" data-name="Trazado 2364" d="M832.465,128.011a15.754,15.754,0,0,1-8.453,1.1c.13-1.691.269-3.166.393-4.365A54.308,54.308,0,0,1,832.465,128.011Z" transform="translate(-37.294 -31.905)" fill="#b49933" opacity="0.3" style="mix-blend-mode: multiply;isolation: isolate"/>
      <path id="Trazado_2365" data-name="Trazado 2365" d="M775.209,159.948l-.816.255c-1.683-7.5-3.611-15.309-4.911-19.454.066-.141.131-.277.194-.4A165.715,165.715,0,0,1,775.209,159.948Z" transform="translate(-14.449 -38.44)" fill="#937319"/>
      <path id="Trazado_2366" data-name="Trazado 2366" d="M844.3,159.663l-1.495.423c-1.981-9.747-.367-22.324.135-26.939.2.117.4.234.594.353C842.193,142.66,843.232,152.867,844.3,159.663Z" transform="translate(-44.765 -35.424)" fill="#937319"/>
      <path id="Trazado_2367" data-name="Trazado 2367" d="M874.3,179.562l.146-.053S875.127,180,874.3,179.562Z" transform="translate(-58.36 -54.847)" opacity="0.4" fill="url(#linear-gradient-31)" style="mix-blend-mode: multiply;isolation: isolate"/>
      <path id="Trazado_2368" data-name="Trazado 2368" d="M836.119,333.817c.4-.133,3.283.128,5.358-1.861,0,0-.8,4.234-2.68,4.443S836.119,333.817,836.119,333.817Z" transform="translate(-42.366 -118.714)" fill="#8e502a" opacity="0.4" style="mix-blend-mode: multiply;isolation: isolate"/>
      <path id="Trazado_2369" data-name="Trazado 2369" d="M782.81,333.786s2.128,1.8,3.324,1.164-.516,2.937-1.654,2.216S782.81,333.786,782.81,333.786Z" transform="translate(-20.032 -119.481)" fill="#8e502a" opacity="0.4" style="mix-blend-mode: multiply;isolation: isolate"/>
      <g id="Grupo_26718" data-name="Grupo 26718" transform="translate(743.68 272.717)">
        <path id="Trazado_2370" data-name="Trazado 2370" d="M765.453,440.3s-12.409,1.625-15.51.771c0,0,.42-.553,1.119-1.343,1.781-2.013,5.364-5.565,8.363-5.413,2.6.13,4.3,2.417,5.208,4.126A12.25,12.25,0,0,1,765.453,440.3Z" transform="translate(-749.943 -434.313)" fill="url(#linear-gradient-32)"/>
        <path id="Trazado_2371" data-name="Trazado 2371" d="M765.453,443.281s-12.409,1.625-15.51.771c0,0,.42-.553,1.119-1.343,4.172-.195,11.159-.875,13.571-1.287A12.25,12.25,0,0,1,765.453,443.281Z" transform="translate(-749.943 -437.291)" opacity="0.4" fill="url(#linear-gradient-32)" style="mix-blend-mode: multiply;isolation: isolate"/>
      </g>
      <g id="Grupo_26719" data-name="Grupo 26719" transform="translate(792.828 274.924)">
        <path id="Trazado_2372" data-name="Trazado 2372" d="M834.527,448.967a.552.552,0,0,0,.069.017v0Z" transform="translate(-834.527 -442.66)" fill="url(#linear-gradient-34)"/>
        <path id="Trazado_2373" data-name="Trazado 2373" d="M845.358,444.407c-4.031,1.449-9.155.4-10.5.082-.088-.021-.159-.037-.215-.052.013-.048.163-.6.442-1.352.675-1.837,2.116-4.91,4.224-4.971,2.01-.059,4.025,2.755,5.148,4.64C845.02,443.7,845.358,444.407,845.358,444.407Z" transform="translate(-834.577 -438.112)" fill="url(#linear-gradient-32)"/>
        <path id="Trazado_2374" data-name="Trazado 2374" d="M834.527,448.967a.552.552,0,0,0,.069.017v0Z" transform="translate(-834.527 -442.66)" opacity="0.4" fill="url(#linear-gradient-34)" style="mix-blend-mode: multiply;isolation: isolate"/>
        <path id="Trazado_2375" data-name="Trazado 2375" d="M845.358,447.753c-4.031,1.449-9.155.4-10.5.082-.088-.021-.159-.037-.215-.052.013-.048.163-.6.442-1.352,2.028.4,6.346,1.25,9.372-.332C845.02,447.043,845.358,447.753,845.358,447.753Z" transform="translate(-834.577 -441.458)" opacity="0.4" fill="url(#linear-gradient-32)" style="mix-blend-mode: multiply;isolation: isolate"/>
      </g>
      <path id="Trazado_2376" data-name="Trazado 2376" d="M775.2,159.474l-.323.1-.584.183-.582.181c-1.119-4.975-3.813-16.894-4.465-19.332l.008-.016.639-1.3,0-.01A207.9,207.9,0,0,1,775.2,159.474Z" transform="translate(-14.351 -37.995)" fill="#493c30"/>
      <g id="Grupo_26720" data-name="Grupo 26720" transform="translate(759.853 109.637)">
        <path id="Trazado_2377" data-name="Trazado 2377" d="M788.8,153.651l1.467,3.285-5.185,3.54-5.74-1.8,4.656.46,4.895-2.867Z" transform="translate(-778.431 -153.651)" fill="#b49933" opacity="0.4" style="mix-blend-mode: multiply;isolation: isolate"/>
        <path id="Trazado_2378" data-name="Trazado 2378" d="M777.777,156.488l10.365-2.837.816,2.837-5.336,3.589-5.169-1.463Z" transform="translate(-777.777 -153.651)" fill="#b49933"/>
        <path id="Trazado_2379" data-name="Trazado 2379" d="M787.5,161.762a.547.547,0,1,1-.547-.547A.547.547,0,0,1,787.5,161.762Z" transform="translate(-781.394 -156.82)" fill="#77611d"/>
      </g>
      <g id="Grupo_26721" data-name="Grupo 26721" transform="translate(829.431 81.555)" opacity="0.4" style="mix-blend-mode: screen;isolation: isolate">
        <path id="Trazado_2380" data-name="Trazado 2380" d="M898.555,129.436c-.1.024-.191.048-.284.069A46.906,46.906,0,0,0,899,116.65a42.406,42.406,0,0,0-1.475-9.832c.094,0,.184,0,.277,0a42.514,42.514,0,0,1,1.454,9.662A48.115,48.115,0,0,1,898.555,129.436Z" transform="translate(-897.521 -105.949)" fill="#e2c799"/>
        <path id="Trazado_2381" data-name="Trazado 2381" d="M902.538,128.359c-.091.04-.178.077-.269.112.37-7.317.349-15.032-2.744-21.685l.291-.013C902.86,113.406,902.9,121.079,902.538,128.359Z" transform="translate(-898.361 -105.929)" fill="#e2c799"/>
        <path id="Trazado_2382" data-name="Trazado 2382" d="M907.544,126.486c-.089.066-.178.133-.269.194a53.164,53.164,0,0,0-.875-11.406c-.406-2.023-.806-4.071-1.3-6.076a24.6,24.6,0,0,0-.813-2.784l.266-.032a22.327,22.327,0,0,1,.713,2.382c.516,2.047.928,4.14,1.342,6.209A54.965,54.965,0,0,1,907.544,126.486Z" transform="translate(-900.357 -105.767)" fill="#e2c799"/>
        <path id="Trazado_2383" data-name="Trazado 2383" d="M911.38,124.036c-.081.1-.167.195-.255.292a68.98,68.98,0,0,0-.733-10.206,44.172,44.172,0,0,0-1.489-5.953c-.245-.763-.5-1.526-.8-2.273.088-.013.176-.027.264-.042.321.819.606,1.651.864,2.491a42.633,42.633,0,0,1,1.457,5.969A72.925,72.925,0,0,1,911.38,124.036Z" transform="translate(-901.955 -105.544)" fill="#e2c799"/>
        <path id="Trazado_2384" data-name="Trazado 2384" d="M914.191,121.836c-.081.112-.165.228-.256.351-.162-5.7-.567-11.616-2.855-16.812.1-.019.182-.034.268-.053C913.587,110.427,914.021,116.231,914.191,121.836Z" transform="translate(-903.201 -105.322)" fill="#e2c799"/>
      </g>
      <g id="Grupo_26722" data-name="Grupo 26722" transform="translate(787.199 109.605)">
        <path id="Trazado_2385" data-name="Trazado 2385" d="M834.578,154.743l.269,3.193-5.4,1.449-4.3-3.2,3.784,1.757,4.962-.969Z" transform="translate(-824.966 -154.077)" fill="#b49933" opacity="0.4" style="mix-blend-mode: multiply;isolation: isolate"/>
        <path id="Trazado_2386" data-name="Trazado 2386" d="M824.9,153.6l9.556.666-.147,2.624-5.546,1.446-3.919-2.75Z" transform="translate(-824.84 -153.596)" fill="#b49933"/>
        <path id="Trazado_2387" data-name="Trazado 2387" d="M832.038,159.269a.488.488,0,1,1-.3-.621A.488.488,0,0,1,832.038,159.269Z" transform="translate(-827.458 -155.701)" fill="#77611d"/>
      </g>
      <path id="Trazado_2388" data-name="Trazado 2388" d="M790.191,91.3s-.422-3.026,2.037-3.928,4.027,2.435,3.781,2.7a6.031,6.031,0,0,1-2.635,1.806A3.526,3.526,0,0,1,790.191,91.3Z" transform="translate(-23.113 -16.183)" fill="#ec7448" opacity="0.2" style="mix-blend-mode: multiply;isolation: isolate"/>
      <g id="Grupo_26723" data-name="Grupo 26723" transform="translate(767.054 71.812)">
        <path id="Trazado_2389" data-name="Trazado 2389" d="M795.983,91.243c0,.112-.433.554-1.3.971a7.849,7.849,0,0,1-1.574.555,5.251,5.251,0,0,1-.784.133,3.123,3.123,0,0,1-2.116-.431,4.074,4.074,0,0,1,.489-1.12,3.12,3.12,0,0,1,2.124-1.273,3.171,3.171,0,0,1,2.558.513A4.335,4.335,0,0,1,795.983,91.243Z" transform="translate(-790.187 -89.166)" fill="#fff"/>
        <path id="Trazado_2390" data-name="Trazado 2390" d="M792.74,88.6a2.877,2.877,0,0,0-2.547,3.257,2.915,2.915,0,0,1,.489-1.12,3.127,3.127,0,0,1,2.124-1.273,3.168,3.168,0,0,1,2.557.512,2.337,2.337,0,0,1,.6.65C796.263,90.464,795.145,88.2,792.74,88.6Z" transform="translate(-790.169 -88.555)" fill="#a07559"/>
        <path id="Trazado_2391" data-name="Trazado 2391" d="M796.053,92.809a.173.173,0,0,1,0,.035,7.848,7.848,0,0,1-1.574.555,5.25,5.25,0,0,1-.784.133,1.291,1.291,0,1,1,2.361-.723Z" transform="translate(-791.552 -89.796)" fill="#635f4e"/>
      </g>
      <path id="Trazado_2392" data-name="Trazado 2392" d="M812.581,86.926s-1.136-2.869,1.332-3.866,3.788,2.15,3.647,2.567a2.95,2.95,0,0,1-2.091,1.582A4.57,4.57,0,0,1,812.581,86.926Z" transform="translate(-32.395 -14.359)" fill="#ec7448" opacity="0.2" style="mix-blend-mode: multiply;isolation: isolate"/>
      <g id="Grupo_26724" data-name="Grupo 26724" transform="translate(779.936 69.351)">
        <path id="Trazado_2393" data-name="Trazado 2393" d="M817.709,86.859a3.581,3.581,0,0,1-1.228.944,5.491,5.491,0,0,1-2.308.482,6.834,6.834,0,0,1-1.443-.125,3.267,3.267,0,0,1,.207-.781,2.955,2.955,0,0,1,1.6-1.353A2.818,2.818,0,0,1,817.709,86.859Z" transform="translate(-812.503 -84.946)" fill="#fff"/>
        <path id="Trazado_2394" data-name="Trazado 2394" d="M814.6,84.39c-2.763.655-2.364,2.863-2.011,3.146a1.749,1.749,0,0,1,.207-.782,2.958,2.958,0,0,1,1.6-1.353,2.819,2.819,0,0,1,3.172.835C817.692,85.6,816.4,83.963,814.6,84.39Z" transform="translate(-812.339 -84.319)" fill="#a07559"/>
        <path id="Trazado_2395" data-name="Trazado 2395" d="M817.372,87.9a1.1,1.1,0,0,1-.028.209,5.492,5.492,0,0,1-2.308.482,1.254,1.254,0,0,1-.245-.809,1.292,1.292,0,1,1,2.582.119Z" transform="translate(-813.365 -85.255)" fill="#635f4e"/>
      </g>
      <path id="Trazado_2396" data-name="Trazado 2396" d="M800.478,90.516l.059.019C800.53,90.525,800.508,90.519,800.478,90.516Z" transform="translate(-27.434 -17.564)" fill="#85c5cc" opacity="0.4"/>
      <g id="Grupo_26727" data-name="Grupo 26727" transform="translate(759.22 69.154)">
        <g id="Grupo_26725" data-name="Grupo 26725" transform="translate(7.387 4.176)">
          <path id="Trazado_2397" data-name="Trazado 2397" d="M789.713,93.458,789.4,93.2l.83,3.345.331.028A29.775,29.775,0,0,1,789.713,93.458Z" transform="translate(-789.4 -92.02)" fill="#417f7f" opacity="0.4"/>
          <path id="Trazado_2398" data-name="Trazado 2398" d="M796.495,91.459c-1.309.08-6.555,1.268-6.555,1.268a29.775,29.775,0,0,0,.848,3.118c.131.034,5.82-.713,6.123-.886C796.909,94.959,796.627,91.67,796.495,91.459Z" transform="translate(-789.626 -91.289)" fill="#85c5cc" opacity="0.4"/>
          <path id="Trazado_2399" data-name="Trazado 2399" d="M796.211,91.313l-.35-.146L789.4,92.35l.313.254s5.247-1.188,6.555-1.268Z" transform="translate(-789.4 -91.167)" fill="#4e9093" opacity="0.4"/>
          <path id="Trazado_2400" data-name="Trazado 2400" d="M797.23,91.826c-.013,0-1.244,3.36-1.244,3.36l.967-.085,1.152-3.416S797.356,91.8,797.23,91.826Z" transform="translate(-792.159 -91.384)" fill="#85c5cc" opacity="0.4" style="mix-blend-mode: screen;isolation: isolate"/>
        </g>
        <g id="Grupo_26726" data-name="Grupo 26726" transform="translate(19.797 1.228)">
          <path id="Trazado_2401" data-name="Trazado 2401" d="M811.09,89.285l-.332-.228,1.107,3.263h.332A29.782,29.782,0,0,1,811.09,89.285Z" transform="translate(-810.758 -87.335)" fill="#417f7f" opacity="0.4"/>
          <path id="Trazado_2402" data-name="Trazado 2402" d="M817.755,86.326c-1.3.19-6.425,1.815-6.425,1.815a29.8,29.8,0,0,0,1.107,3.035c.133.022,5.738-1.2,6.026-1.4C818.464,89.779,817.9,86.525,817.755,86.326Z" transform="translate(-810.998 -86.191)" fill="#85c5cc" opacity="0.4"/>
          <path id="Trazado_2403" data-name="Trazado 2403" d="M817.456,86.209l-.362-.116-6.336,1.722.332.228s5.128-1.625,6.425-1.815Z" transform="translate(-810.758 -86.093)" fill="#4e9093" opacity="0.4"/>
          <path id="Trazado_2404" data-name="Trazado 2404" d="M818.654,86.9c-.012,0-.957,3.452-.957,3.452l.957-.166.86-3.5S818.779,86.865,818.654,86.9Z" transform="translate(-813.665 -86.341)" fill="#85c5cc" opacity="0.4" style="mix-blend-mode: screen;isolation: isolate"/>
        </g>
        <path id="Trazado_2405" data-name="Trazado 2405" d="M806.005,84.057a.132.132,0,0,0-.176-.064L803.2,85.217l-18.815,4.242-7.539-1.3a.133.133,0,1,0-.045.262l7.566,1.3.021,0h0a.116.116,0,0,0,.028,0l18.855-4.25.015-.006.012,0,2.643-1.23A.134.134,0,0,0,806.005,84.057Z" transform="translate(-776.688 -83.98)" fill="#9db6b7"/>
      </g>
      <path id="Trazado_2406" data-name="Trazado 2406" d="M803.746,107.608a10.981,10.981,0,0,0,6.417-1.238s0,1.861-3.208,2.372A2.972,2.972,0,0,1,803.746,107.608Z" transform="translate(-28.803 -24.206)" fill="#a04f48"/>
      <path id="Trazado_2407" data-name="Trazado 2407" d="M866.422,131.165a10.537,10.537,0,0,0,6.214.417,5.863,5.863,0,0,1-3.416,1.394A3.929,3.929,0,0,1,866.422,131.165Z" transform="translate(-55.061 -34.594)" fill="#d35c5c"/>
      <path id="Trazado_2408" data-name="Trazado 2408" d="M806.949,119.033a4.3,4.3,0,0,1,4.105-.446,2.167,2.167,0,0,0-2.32-1.348C807.2,117.32,806.949,119.033,806.949,119.033Z" transform="translate(-30.145 -28.757)" fill="#ec7448" opacity="0.2" style="mix-blend-mode: multiply;isolation: isolate"/>
      <g id="Grupo_26729" data-name="Grupo 26729" transform="translate(801.474 61.071)">
        <path id="Trazado_2409" data-name="Trazado 2409" d="M888.87,84.648a40.1,40.1,0,0,1-8.615,3.523.352.352,0,0,1-.074.021,36.94,36.94,0,0,1-9.364,1.457c-9.928.184-12.592-3.092-12.592-3.092s.077-.454.249-1.22c.053-.242.117-.513.192-.811.909-3.645,3.34-11.22,8.429-14.455a83.787,83.787,0,0,0,8.647.547,11.681,11.681,0,0,0,4.27-.547s6.633,7.125,8.566,13.458C888.692,83.906,888.79,84.279,888.87,84.648Z" transform="translate(-853.101 -70.07)" fill="url(#linear-gradient-38)"/>
        <path id="Trazado_2410" data-name="Trazado 2410" d="M888.87,94.352a40.919,40.919,0,0,1-18.053,5c-9.928.184-12.592-3.092-12.592-3.092s.122-.726.406-1.887c.011-.048.021-.1.035-.144A92.012,92.012,0,0,0,875.5,95.418a43.261,43.261,0,0,0,13.075-2.186C888.692,93.61,888.79,93.982,888.87,94.352Z" transform="translate(-853.101 -79.774)" fill="#91581f"/>
        <g id="Grupo_26728" data-name="Grupo 26728" transform="translate(5.124)">
          <path id="Trazado_2411" data-name="Trazado 2411" d="M880.181,99.2a36.939,36.939,0,0,1-9.364,1.457c-9.928.184-12.592-3.092-12.592-3.092s.077-.454.249-1.22c2.9,1.691,9.75,3.855,15.074,2.9C879.017,98.264,880.016,99,880.181,99.2Z" transform="translate(-858.225 -81.077)" fill="#e5ad62" opacity="0.4" style="mix-blend-mode: multiply;isolation: isolate"/>
          <path id="Trazado_2412" data-name="Trazado 2412" d="M892.885,88.171c1.833-2.8-1.582-14.262-4.514-17.554a11.681,11.681,0,0,0,4.27-.547s6.633,7.125,8.566,13.458c.115.378.213.75.293,1.12A40.1,40.1,0,0,1,892.885,88.171Z" transform="translate(-870.854 -70.07)" fill="#e5ad62" opacity="0.4" style="mix-blend-mode: multiply;isolation: isolate"/>
        </g>
        <path id="Trazado_2413" data-name="Trazado 2413" d="M885.377,99.636c-5.849,1.555-21.224,1.614-30.043-.311-4.411-.96-6.031-3.957-5.922-5.127a.579.579,0,0,1,.162-.393.571.571,0,0,1,.21-.117c1.568-.494,6.9,4.07,14.235,4.669,7.711.633,20.029-5.062,22.334-6.464a2.636,2.636,0,0,1,.351-.183c2.077-.947,4.017.925,4.627,1.956.026.048.053.093.073.138C891.937,94.845,891.227,98.08,885.377,99.636Z" transform="translate(-849.407 -79.027)" fill="url(#linear-gradient-39)"/>
        <path id="Trazado_2414" data-name="Trazado 2414" d="M885.377,99.636c-5.849,1.555-21.224,1.614-30.043-.311-4.411-.96-6.031-3.957-5.922-5.127a.579.579,0,0,1,.162-.393.571.571,0,0,1,.21-.117c1.689,2.26,5.658,5.447,14.834,6.232,13.958,1.194,20.9-5.322,22.086-8.21,2.077-.947,4.017.925,4.627,1.956.026.048.053.093.073.138C891.937,94.845,891.227,98.08,885.377,99.636Z" transform="translate(-849.407 -79.027)" fill="#f2bb6b" opacity="0.4" style="mix-blend-mode: multiply;isolation: isolate"/>
        <path id="Trazado_2415" data-name="Trazado 2415" d="M875.795,96.137a46.774,46.774,0,0,1-8.351.263c-5.414-.436-7.474-.944-8.519-1.308.011-.048.021-.1.035-.144A92.011,92.011,0,0,0,875.795,96.137Z" transform="translate(-853.394 -80.493)" fill="#c48841" opacity="0.6" style="mix-blend-mode: multiply;isolation: isolate"/>
      </g>
      <path id="Trazado_2416" data-name="Trazado 2416" d="M879.8,108.729c-.93.223.3-1.6,2.094-1.738s3.49.964,3.456,1.263A22.843,22.843,0,0,0,879.8,108.729Z" transform="translate(-60.53 -24.462)" fill="#c1b3a4"/>
      <path id="Trazado_2417" data-name="Trazado 2417" d="M864.508,107.488c.662-.811-3.08-2.538-4.709-1.517C859.8,105.972,863.921,108.206,864.508,107.488Z" transform="translate(-52.286 -23.908)" fill="#c1b3a4"/>
      <path id="Trazado_2418" data-name="Trazado 2418" d="M939.638,248.5a33.014,33.014,0,0,1-11.448,2.741c-1.037.075-2.045.1-3.008.1a44.68,44.68,0,0,1-9.746-1.031s-1.146-1.781-2.7-7.649a42.779,42.779,0,0,1-.813-11.675c2.035,7.891,4.041,15.1,8.1,17.173C922.941,249.656,932.563,250.244,939.638,248.5Z" transform="translate(-74.095 -76.416)" fill="#aa5922" opacity="0.2" style="mix-blend-mode: multiply;isolation: isolate"/>
      <path id="Trazado_2419" data-name="Trazado 2419" d="M821.329,175.569l-4.653,45.92-5.416,6-5.685-61.6.069-.019.281.173Z" transform="translate(-29.57 -49.137)" fill="#badde5" opacity="0.4" style="mix-blend-mode: screen;isolation: isolate"/>
      <path id="Trazado_2420" data-name="Trazado 2420" d="M893.9,169.515s-.066.229-.182.66a164.334,164.334,0,0,0-4.76,26.875l-15.514,3.281v-22.27Z" transform="translate(-58.001 -50.661)" fill="#ed5335"/>
      <g id="Grupo_26730" data-name="Grupo 26730" transform="translate(816.973 124.53)">
        <path id="Trazado_2421" data-name="Trazado 2421" d="M876.08,184.242l.373,3.179,14.13-4.242v-3.9Z" transform="translate(-876.08 -179.282)" fill="#cc352a"/>
        <path id="Trazado_2422" data-name="Trazado 2422" d="M876.957,196.73v1.661l11.781-2.181v-2.036Z" transform="translate(-876.447 -185.521)" fill="#cc352a"/>
        <path id="Trazado_2423" data-name="Trazado 2423" d="M876.957,205v1.619l9.98-.939.136-2.113Z" transform="translate(-876.447 -189.457)" fill="#cc352a"/>
      </g>
      <g id="Grupo_26731" data-name="Grupo 26731" transform="translate(826.088 132.78)">
        <path id="Trazado_2424" data-name="Trazado 2424" d="M914.735,214.918c-5.584-.62-15.243-12.092-15.243-12.092-2.6.228-6.647-.482-7.091-1.9a.488.488,0,0,1-.027-.215c.062-.611,1.55-.383,2.755-.093l-.332-.106a.007.007,0,0,1-.005,0c-1.356-.452-2.941-1.13-2.891-1.843a.388.388,0,0,1,.035-.135c.267-.609,2.1-.327,3.467-.027-.207-.059-.423-.122-.646-.192,0,0,0,0-.006,0-1.428-.452-3.031-1.112-2.984-1.805a.378.378,0,0,1,.012-.066c.181-.761,2.451-.561,3.94-.343-.118-.024-.237-.05-.362-.077h-.006c-1.454-.33-3.326-.947-3.217-1.928a.531.531,0,0,1,.069-.207c.707-1.193,6.4.649,6.4.649,3.722,3.191,13.294,5.809,13.294,5.809.256.292.5.582.724.872C918.689,208.912,914.735,214.918,914.735,214.918Z" transform="translate(-891.767 -193.482)" fill="url(#linear-gradient-40)"/>
        <path id="Trazado_2425" data-name="Trazado 2425" d="M915.171,220.131c-5.584-.62-15.243-12.092-15.243-12.092-2.6.228-6.647-.482-7.091-1.9a.488.488,0,0,1-.027-.215,9.244,9.244,0,0,0,7.073,1.178,94.465,94.465,0,0,0,7.977,5.517,30.072,30.072,0,0,0,7.476,3.358s-.442-6-2.279-9.55C919.125,214.125,915.171,220.131,915.171,220.131Z" transform="translate(-892.203 -198.695)" fill="#ec7448" opacity="0.2" style="mix-blend-mode: multiply;isolation: isolate"/>
        <path id="Trazado_2426" data-name="Trazado 2426" d="M898.081,204.353a8.452,8.452,0,0,1-3.188-.2.007.007,0,0,1-.005,0c-1.356-.452-2.941-1.13-2.891-1.843a.389.389,0,0,1,.035-.135A12.537,12.537,0,0,0,898.081,204.353Z" transform="translate(-891.863 -197.123)" fill="#ec7448" opacity="0.2" style="mix-blend-mode: multiply;isolation: isolate"/>
        <path id="Trazado_2427" data-name="Trazado 2427" d="M897.156,200.5a12.364,12.364,0,0,1-2.4-.053s0,0-.006,0c-1.428-.452-3.031-1.112-2.984-1.805a.378.378,0,0,1,.012-.066A24.8,24.8,0,0,0,897.156,200.5Z" transform="translate(-891.767 -195.614)" fill="#ec7448" opacity="0.2" style="mix-blend-mode: multiply;isolation: isolate"/>
        <path id="Trazado_2428" data-name="Trazado 2428" d="M897.418,196.229a7.514,7.514,0,0,1-1.8.08h-.006c-1.454-.33-3.326-.947-3.217-1.928a.531.531,0,0,1,.069-.207A10.617,10.617,0,0,0,897.418,196.229Z" transform="translate(-892.029 -193.772)" fill="#ec7448" opacity="0.2" style="mix-blend-mode: multiply;isolation: isolate"/>
      </g>
      <g id="Grupo_26732" data-name="Grupo 26732" transform="translate(760.851 123.02)">
        <path id="Trazado_2429" data-name="Trazado 2429" d="M779.494,179.461l.565,2.8,12.751-2.167-.459-3.412Z" transform="translate(-779.494 -176.684)" fill="#797c7c" opacity="0.5" style="mix-blend-mode: multiply;isolation: isolate"/>
        <path id="Trazado_2430" data-name="Trazado 2430" d="M780.932,188.78l.267,2.506,12.143-1.713-.266-2.884Z" transform="translate(-780.096 -180.875)" fill="#797c7c" opacity="0.5" style="mix-blend-mode: multiply;isolation: isolate"/>
      </g>
      <path id="Trazado_2431" data-name="Trazado 2431" d="M892.979,250.017l-13.161-.691c4.783-5.352,8.691-10.515,11.57-20.43A145.663,145.663,0,0,0,892.979,250.017Z" transform="translate(-60.673 -75.537)" fill="#bfd4d6" opacity="0.3" style="mix-blend-mode: multiply;isolation: isolate"/>
      <path id="Trazado_2432" data-name="Trazado 2432" d="M788.851,222.943c-1.543,4.458-2.808,9.2-3.614,12.467l-.3-.183-4.977-27.984C782.7,209.641,791.393,215.589,788.851,222.943Z" transform="translate(-18.84 -66.466)" fill="#bfd4d6" opacity="0.3" style="mix-blend-mode: multiply;isolation: isolate"/>
      <g id="Grupo_26737" data-name="Grupo 26737" transform="translate(758.815 141.759)">
        <g id="Grupo_26733" data-name="Grupo 26733" transform="translate(0.417 6.449)">
          <path id="Trazado_2433" data-name="Trazado 2433" d="M785.306,225.61a.6.6,0,0,1-.164.381c-.487.518-2.006.55-3.92-.514a11.214,11.214,0,0,1-4.36-4.272,1.564,1.564,0,0,1-.152-.691c.088-1.284,2.242.258,4.295,1.635S785.352,224.768,785.306,225.61Z" transform="translate(-776.708 -220.032)" fill="url(#linear-gradient-41)"/>
          <path id="Trazado_2434" data-name="Trazado 2434" d="M785.306,225.61a.6.6,0,0,1-.164.381,28.763,28.763,0,0,0-4.888-3.472c-1.741-.856-2.956-1.726-3.392-1.314a1.564,1.564,0,0,1-.152-.691c.088-1.284,2.242.258,4.295,1.635S785.352,224.768,785.306,225.61Z" transform="translate(-776.708 -220.032)" fill="#ec7448" opacity="0.3" style="mix-blend-mode: multiply;isolation: isolate"/>
        </g>
        <g id="Grupo_26734" data-name="Grupo 26734" transform="translate(1.805 10.2)">
          <path id="Trazado_2435" data-name="Trazado 2435" d="M786.062,230.413a.29.29,0,0,1-.024.114c-.224.574-2.2.731-4.03-.1A5.005,5.005,0,0,1,779.578,228a10.078,10.078,0,0,1-.438-1.077c-.368-.971,1.751-.12,2.687.521.726.5,2.707,1.486,3.68,2.255a1.637,1.637,0,0,1,.535.593A.392.392,0,0,1,786.062,230.413Z" transform="translate(-779.097 -226.488)" fill="url(#linear-gradient-42)"/>
          <path id="Trazado_2436" data-name="Trazado 2436" d="M786.307,230.74a2.873,2.873,0,0,0-.269-.213,17.652,17.652,0,0,0-4.451-2.313,6.053,6.053,0,0,0-2.01-.21,10.078,10.078,0,0,1-.438-1.077c-.368-.971,1.751-.12,2.687.521.726.5,2.707,1.486,3.68,2.255.226.282.417.529.555.709C786.217,230.618,786.307,230.74,786.307,230.74Z" transform="translate(-779.097 -226.488)" fill="#ec7448" opacity="0.3" style="mix-blend-mode: multiply;isolation: isolate"/>
        </g>
        <g id="Grupo_26735" data-name="Grupo 26735" transform="translate(1.847)">
          <path id="Trazado_2437" data-name="Trazado 2437" d="M786.735,216.565a.447.447,0,0,1-.124.279c-.511.526-2.547-.689-4.794-2.622a7.913,7.913,0,0,1-2.489-3.526c-.242-.8-.2-1.411.051-1.659.444-.444,2.127.577,3.589,1.994S786.868,215.465,786.735,216.565Z" transform="translate(-779.168 -208.933)" fill="url(#linear-gradient-43)"/>
          <path id="Trazado_2438" data-name="Trazado 2438" d="M786.735,216.565a.447.447,0,0,1-.124.279c-.808-1.67-3.664-5.5-5.225-6.123-1.066-.423-1.751-.4-2.057-.024-.242-.8-.2-1.411.051-1.659.444-.444,2.127.577,3.589,1.994S786.868,215.465,786.735,216.565Z" transform="translate(-779.168 -208.933)" fill="#ec7448" opacity="0.3" style="mix-blend-mode: multiply;isolation: isolate"/>
        </g>
        <g id="Grupo_26736" data-name="Grupo 26736" transform="translate(0 2.272)">
          <path id="Trazado_2439" data-name="Trazado 2439" d="M785.848,220.828a.371.371,0,0,1-.109.213c-.558.566-3.079-.474-5.78-2.257-2.475-1.638-3.884-3.626-3.964-4.911a1.343,1.343,0,0,1,.1-.665c.532-1.154,2.659.665,4.834,2.3S786.024,219.855,785.848,220.828Z" transform="translate(-775.99 -212.844)" fill="url(#linear-gradient-44)"/>
          <path id="Trazado_2440" data-name="Trazado 2440" d="M785.848,220.828a.371.371,0,0,1-.109.213,33.161,33.161,0,0,0-5.033-4.858c-1.447-1-3.688-3.223-4.712-2.311a1.343,1.343,0,0,1,.1-.665c.532-1.154,2.659.665,4.834,2.3S786.024,219.855,785.848,220.828Z" transform="translate(-775.99 -212.844)" fill="#ec7448" opacity="0.3" style="mix-blend-mode: multiply;isolation: isolate"/>
        </g>
      </g>
    </g>
    <path id="Trazado_2441" data-name="Trazado 2441" d="M2013,5081l-16-33h-62" transform="translate(-1414 -34)" fill="none" stroke="#111e61" stroke-linecap="round" stroke-width="2"/>
    <path id="Trazado_2442" data-name="Trazado 2442" d="M1935,5081l16-33h62" transform="translate(-1168 -34)" fill="none" stroke="#111e61" stroke-linecap="round" stroke-width="2"/>
    <path id="Trazado_2443" data-name="Trazado 2443" d="M1987.333,5164c-3.333.667-25.333,0-25.333,0l-27.333,17.333" transform="translate(-1414)" fill="none" stroke="#111e61" stroke-linecap="round" stroke-width="2"/>
    <path id="Trazado_2444" data-name="Trazado 2444" d="M1934.667,5164c3.017.6,22.928,0,22.928,0l24.738,15.688" transform="translate(-1145.333 0.823)" fill="none" stroke="#111e61" stroke-linecap="round" stroke-width="2"/>
    <path id="Trazado_2445" data-name="Trazado 2445" d="M2089,4920v29.333" transform="translate(-1414)" fill="none" stroke="#111e61" stroke-linecap="round" stroke-width="2"/>
  </g>
</svg>
