<svg xmlns="http://www.w3.org/2000/svg" width="340.026" height="237.109" viewBox="0 0 340.026 237.109">
  <g id="Grupo_55683" data-name="Grupo 55683" transform="translate(-52.97 -29.946)">
    <g id="BACKGROUND" transform="translate(52.97 29.946)">
      <path id="Trazado_4957" data-name="Trazado 4957" d="M143.208,260.114s-91.3,8.009-90.229-88.093,111.636-55.359,151.093-97.7c65.669-70.475,150.5-55.057,183.1,32.45C420.835,197.114,304.445,280.936,143.208,260.114Z" transform="translate(-52.97 -29.946)" fill="#faeee8"/>
    </g>
    <g id="OBJECTS" transform="translate(80.723 94.736)">
      <g id="Grupo_28672" data-name="Grupo 28672">
        <g id="Grupo_28646" data-name="Grupo 28646" transform="translate(57.311 103.472)">
          <rect id="Rectángulo_5003" data-name="Rectángulo 5003" width="26.161" height="64.602" rx="9.797" transform="translate(0 3.859) rotate(-8.482)" fill="#001433"/>
        </g>
        <g id="Grupo_28668" data-name="Grupo 28668" transform="translate(65.708)">
          <g id="Grupo_28653" data-name="Grupo 28653" transform="translate(12.233 2.217)">
            <g id="Grupo_28649" data-name="Grupo 28649">
              <path id="Trazado_4958" data-name="Trazado 4958" d="M292.988,157.077s20.194-12.612,31.954,6.032,16.1,66.352-1.79,69.642-30.42.822-28.119-26.321A198.538,198.538,0,0,0,292.988,157.077Z" transform="translate(-267.886 -152.907)" fill="#000a19"/>
              <g id="Grupo_28648" data-name="Grupo 28648" transform="translate(0 9.977)">
                <g id="Grupo_28647" data-name="Grupo 28647" transform="translate(0 34.126)">
                  <path id="Trazado_4959" data-name="Trazado 4959" d="M282.971,245.851s-4.538,12.813,3.471,14.949,16.55-2.669,17.352,14.682-57.661,1.6-56.86-5.873,19.221-1.869,20.021-18.42,1.068-17.351,1.068-17.351Z" transform="translate(-246.925 -233.838)" fill="#ffb199"/>
                  <path id="Trazado_4960" data-name="Trazado 4960" d="M299.23,254.681a23.485,23.485,0,0,1,1.2-8.831l-14.949-12.013s0,2.464-.191,8.273C287.784,248.05,293.031,252.413,299.23,254.681Z" transform="translate(-264.383 -233.838)" fill="#e2887d"/>
                </g>
                <path id="Trazado_4961" data-name="Trazado 4961" d="M291.39,171.964s25.36-7.393,25.36,24.29-30.7,28.515-37.907,4.488C271.325,175.679,291.39,171.964,291.39,171.964Z" transform="translate(-260.682 -171.216)" fill="#ffb199"/>
              </g>
            </g>
            <g id="Grupo_28652" data-name="Grupo 28652" transform="translate(28.305 21.774)">
              <g id="Grupo_28650" data-name="Grupo 28650">
                <path id="Trazado_4962" data-name="Trazado 4962" d="M298.866,199.214a3.784,3.784,0,0,1,.217-.646,7.011,7.011,0,0,1,2.906-3.291,6.1,6.1,0,0,1,1.409-.6,6.763,6.763,0,0,1,1.572-.259,7.3,7.3,0,0,1,1.573.129,7.869,7.869,0,0,1,1.438.424,8.766,8.766,0,0,1,1.233.608,8.95,8.95,0,0,1,1,.692,7.141,7.141,0,0,1,.766.663,5.543,5.543,0,0,1,.539.56c.285.324.432.522.432.522s-.235-.089-.621-.265-.935-.418-1.581-.685c-.321-.14-.679-.258-1.046-.4-.372-.122-.759-.255-1.163-.349a9.132,9.132,0,0,0-1.238-.239,8.216,8.216,0,0,0-1.266-.063,7.132,7.132,0,0,0-1.242.161,6.966,6.966,0,0,0-1.169.367,9.606,9.606,0,0,0-1.972,1.118,14.891,14.891,0,0,0-1.3,1.085C299.038,199.035,298.866,199.214,298.866,199.214Z" transform="translate(-298.866 -193.57)" fill="#000a19"/>
                <path id="Trazado_4963" data-name="Trazado 4963" d="M330.708,197.573a3.18,3.18,0,0,1,.055-.517,5.843,5.843,0,0,1,.4-1.311,5.45,5.45,0,0,1,1.119-1.656,4.241,4.241,0,0,1,.954-.73,3.817,3.817,0,0,1,1.22-.442,3.932,3.932,0,0,1,1.306,0,4.359,4.359,0,0,1,1.149.387,5.264,5.264,0,0,1,.908.582,5.834,5.834,0,0,1,.674.646,4.979,4.979,0,0,1,.477.609,3.672,3.672,0,0,1,.314.5c.159.288.233.462.233.462s-.177-.08-.457-.235-.675-.375-1.138-.605c-.226-.125-.479-.232-.736-.351a7.843,7.843,0,0,0-.807-.291,5.055,5.055,0,0,0-.832-.166,3.292,3.292,0,0,0-.814.039,3.8,3.8,0,0,0-1.531.671,9.481,9.481,0,0,0-1.272,1.093c-.365.365-.667.7-.881.934Z" transform="translate(-313.356 -192.863)" fill="#000a19"/>
                <path id="Trazado_4964" data-name="Trazado 4964" d="M333.647,207.875l.241.438.628,1.126c.132.228.278.471.436.72s.335.5.523.744a3.919,3.919,0,0,0,.623.651,1.262,1.262,0,0,0,.665.308l.08.016h0c-.033,0,.077,0-.072.006h0l.017,0,.033,0,.066-.009a1.856,1.856,0,0,0,.247-.04c.055-.055.123-.046.235-.144a2.373,2.373,0,0,0,.568-.611,9.926,9.926,0,0,0,.787-1.537c.2-.484.362-.9.474-1.2l.179-.466a6.743,6.743,0,0,1-.063,1.828,6.066,6.066,0,0,1-.567,1.848,2.944,2.944,0,0,1-.748.956,1.412,1.412,0,0,1-.295.2,3.306,3.306,0,0,1-.392.161,2.407,2.407,0,0,1-.277.05l-.066.01-.033,0-.016,0h0c-.152.011-.045,0-.081,0h-.011l-.185-.021a2.168,2.168,0,0,1-1.224-.585,4.053,4.053,0,0,1-.721-.9,5.375,5.375,0,0,1-.457-.914,6.525,6.525,0,0,1-.292-.846,8.107,8.107,0,0,1-.267-1.3C333.65,208.059,333.647,207.875,333.647,207.875Z" transform="translate(-314.693 -199.694)" fill="#000a19"/>
                <path id="Trazado_4965" data-name="Trazado 4965" d="M306.7,207.875l.241.438.628,1.126c.132.228.278.471.436.72s.335.5.523.744a3.917,3.917,0,0,0,.623.651,1.263,1.263,0,0,0,.666.308l.08.016h0c-.033,0,.077,0-.072.006h0l.017,0,.033,0,.066-.009a1.842,1.842,0,0,0,.247-.04c.055-.055.123-.046.235-.144a2.372,2.372,0,0,0,.568-.611,9.881,9.881,0,0,0,.787-1.537c.2-.484.362-.9.474-1.2l.179-.466a6.743,6.743,0,0,1-.063,1.828,6.066,6.066,0,0,1-.567,1.848,2.929,2.929,0,0,1-.748.956,1.4,1.4,0,0,1-.295.2,3.3,3.3,0,0,1-.391.161,2.415,2.415,0,0,1-.277.05l-.066.01-.033,0-.016,0h0c-.153.011-.046,0-.081,0h-.011l-.185-.021a2.168,2.168,0,0,1-1.224-.585,4.054,4.054,0,0,1-.721-.9,5.332,5.332,0,0,1-.457-.914,6.45,6.45,0,0,1-.292-.846,8.1,8.1,0,0,1-.266-1.3C306.707,208.059,306.7,207.875,306.7,207.875Z" transform="translate(-302.433 -199.694)" fill="#000a19"/>
                <path id="Trazado_4966" data-name="Trazado 4966" d="M328.185,207.385c.085.449.178.883.279,1.311.043.214.107.424.16.634s.113.416.17.622.135.405.195.607.139.4.212.592.145.39.233.577.154.382.255.559l.278.541.318.51a4.3,4.3,0,0,0,.342.487,4.058,4.058,0,0,0,.369.463c.132.147.268.289.4.441l.443.394c.073.066.143.138.22.2l.244.172.486.36.943.7-.9.486c-.653.354-1.319.687-2,.995-.335.163-.689.3-1.034.445s-.706.272-1.074.384c.255-.288.525-.553.8-.817s.547-.518.834-.755c.563-.494,1.143-.961,1.736-1.408l.045,1.184-.637-.346-.317-.181c-.1-.067-.2-.144-.294-.216l-.575-.455c-.173-.171-.339-.351-.508-.528a3.924,3.924,0,0,1-.458-.569,5.523,5.523,0,0,1-.4-.605l-.343-.638c-.1-.22-.18-.445-.27-.666a5.577,5.577,0,0,1-.213-.68,4.669,4.669,0,0,1-.157-.689,5.778,5.778,0,0,1-.1-.695,6.19,6.19,0,0,1-.044-.7,8.319,8.319,0,0,1,.069-1.38A6.149,6.149,0,0,1,328.185,207.385Z" transform="translate(-312.034 -199.471)" fill="#ff8255"/>
              </g>
              <g id="Grupo_28651" data-name="Grupo 28651" transform="translate(7.741 22.863)">
                <path id="Trazado_4967" data-name="Trazado 4967" d="M313.072,234.817l13.615.267S322.282,244.294,313.072,234.817Z" transform="translate(-313.072 -234.817)" fill="#ff553c"/>
                <path id="Trazado_4968" data-name="Trazado 4968" d="M313.072,234.817c.32.33.633.632.942.917,2.657-.354,5.3-.087,7.2,2.018a14.123,14.123,0,0,1,.955,1.177,7.71,7.71,0,0,0,4.518-3.845Z" transform="translate(-313.072 -234.817)" fill="#b2382b"/>
              </g>
            </g>
          </g>
          <g id="Grupo_28658" data-name="Grupo 28658" transform="translate(4.484 73.735)">
            <g id="Grupo_28655" data-name="Grupo 28655" transform="translate(44.765 0.801)">
              <path id="Trazado_4969" data-name="Trazado 4969" d="M337.907,325.8s-.534,31.5.8,31.5,33.368,8.543,34.7,14.148,2.4,16.818-2.4,1.869c0,0,4,20.822-3.47-.267,0,0-2.937,20.021-2.937-.267,0,0-2.67,18.153-2.936.267,0,0-34.169-.534-43.78-8.275s6.674-43.245,6.674-43.245Z" transform="translate(-314.851 -301.958)" fill="#e2887d"/>
              <g id="Grupo_28654" data-name="Grupo 28654" transform="translate(8.184)">
                <path id="Trazado_4970" data-name="Trazado 4970" d="M334.33,312.392s7.474.8,12.279-1.068c0,0-.229-23.762-11.746-25.627C323.945,283.929,334.33,312.392,334.33,312.392Z" transform="translate(-329.869 -285.619)" fill="#ffa94d"/>
                <path id="Trazado_4971" data-name="Trazado 4971" d="M335.049,316.917c.886,2.978,1.639,5.04,1.639,5.04s7.474.8,12.279-1.068a58.719,58.719,0,0,0-2.133-14.252A44.5,44.5,0,0,1,335.049,316.917Z" transform="translate(-332.226 -295.183)" fill="#dd8d45"/>
              </g>
            </g>
            <g id="Grupo_28657" data-name="Grupo 28657">
              <path id="Trazado_4972" data-name="Trazado 4972" d="M248.348,402.03s-14.564,9.076-15.124,22.957h68.339A33.025,33.025,0,0,0,287,400.962C272.995,391.352,248.348,402.03,248.348,402.03Z" transform="translate(-232.941 -335.48)" fill="#dd8d45"/>
              <g id="Grupo_28656" data-name="Grupo 28656">
                <path id="Trazado_4973" data-name="Trazado 4973" d="M247.4,350.7s-17.085-26.7-14.415-47.517,12.814-18.42,17.084-18.42c0,0,6.407,13.881,20.021,12.013,14.7-2.018,16.017-12.547,16.017-12.547s8.542-1.335,10.945,6.941,6.407,31.5-7.741,35.5l-3.2,16.284S273.03,355.77,247.4,350.7Z" transform="translate(-232.704 -284.148)" fill="#ffa94d"/>
                <path id="Trazado_4974" data-name="Trazado 4974" d="M259.324,327.891a93.311,93.311,0,0,1-16.733-11.557,93,93,0,0,1-8.561-7.7,49.866,49.866,0,0,0-1.042,5.691c-2.67,20.822,14.415,47.517,14.415,47.517,25.627,5.072,38.708-7.741,38.708-7.741l3.2-16.284a11.88,11.88,0,0,0,6.625-4.673C283.755,333.96,270.323,333.552,259.324,327.891Z" transform="translate(-232.704 -295.289)" fill="#dd8d45"/>
              </g>
            </g>
          </g>
          <g id="Grupo_28665" data-name="Grupo 28665">
            <path id="Trazado_4975" data-name="Trazado 4975" d="M255.4,151.749s15.483-3.2,16.818,10.144-13.081,13.614-12.547,27.5,5.339,30.432-5.339,36.305-20.822-8.008-25.093,18.42c0,0-9.343-14.949-1.869-24.826s11.212-21.356,10.945-41.911S250.066,153.617,255.4,151.749Z" transform="translate(-224.477 -150.01)" fill="#001433"/>
            <g id="Grupo_28664" data-name="Grupo 28664" transform="translate(13.309)">
              <g id="Grupo_28660" data-name="Grupo 28660" transform="translate(16.878 41.551)">
                <g id="Grupo_28659" data-name="Grupo 28659">
                  <path id="Trazado_4976" data-name="Trazado 4976" d="M297.416,235.2c-9.88-.535-17.469-9.676-17.544-9.769l.413-.338c.074.09,7.517,9.052,17.16,9.573Z" transform="translate(-279.872 -225.089)" fill="#001433"/>
                </g>
                <path id="Trazado_4977" data-name="Trazado 4977" d="M312.653,241.851a1.756,1.756,0,0,1-2.029,1.433l-4.111-.708a1.757,1.757,0,0,1-1.433-2.029h0a1.756,1.756,0,0,1,2.029-1.433l4.111.708a1.756,1.756,0,0,1,1.433,2.029Z" transform="translate(-291.332 -231.459)" fill="#22689e"/>
              </g>
              <g id="Grupo_28663" data-name="Grupo 28663">
                <g id="Grupo_28661" data-name="Grupo 28661" transform="translate(0 22.561)">
                  <ellipse id="Elipse_341" data-name="Elipse 341" cx="11.078" cy="12.146" rx="11.078" ry="12.146" transform="translate(3.47)" fill="#dd8d45"/>
                  <ellipse id="Elipse_342" data-name="Elipse 342" cx="11.078" cy="12.146" rx="11.078" ry="12.146" fill="#ffa94d"/>
                </g>
                <g id="Grupo_28662" data-name="Grupo 28662" transform="translate(5.073)">
                  <ellipse id="Elipse_343" data-name="Elipse 343" cx="5.982" cy="6.558" rx="5.982" ry="6.558" transform="translate(0 28.282)" fill="#dd8d45"/>
                  <path id="Trazado_4978" data-name="Trazado 4978" d="M266.042,183.413s-.534-22.423,11.479-30.432c13.493-9,24.559-.534,24.559-.534s-14.682-2.937-22.957,5.873-9.344,23.224-9.344,23.224Z" transform="translate(-261.772 -148.84)" fill="#dd8d45"/>
                </g>
              </g>
            </g>
          </g>
          <g id="Grupo_28667" data-name="Grupo 28667" transform="translate(3.121 76.96)">
            <g id="Grupo_28666" data-name="Grupo 28666" transform="translate(1.66 10.177)">
              <path id="Trazado_4979" data-name="Trazado 4979" d="M257.8,322.647s-1.335,29.632-1.869,36.572c0,0,36.305-6.94,41.11-4.271s17.619,26.962,4.805,10.411c0,0,11.212,20.288-2.937,1.068,0,0,6.941,17.351-3.2,0,0,0,6.674,14.949-3.737-1.335,0,0-43.513,18.153-49.919,14.148s-10.945-34.7-7.742-60.063S257.8,322.647,257.8,322.647Z" transform="translate(-233.25 -308.74)" fill="#ffb199"/>
              <path id="Trazado_4980" data-name="Trazado 4980" d="M248.879,334.971a38.98,38.98,0,0,0,8.45-.821c.306-6.434.534-11.5.534-11.5s-20.288-28.83-23.492-3.47c-.519,4.114-.834,8.368-.972,12.626A48.389,48.389,0,0,0,248.879,334.971Z" transform="translate(-233.318 -308.74)" fill="#e2887d"/>
            </g>
            <path id="Trazado_4981" data-name="Trazado 4981" d="M230.248,320.556s-1.6-32.034,14.415-30.432,12.546,31.767,12.546,31.767S242.528,325.628,230.248,320.556Z" transform="translate(-230.203 -290.065)" fill="#ffa94d"/>
          </g>
        </g>
        <g id="Grupo_28671" data-name="Grupo 28671" transform="translate(0 53.26)">
          <path id="Trazado_4982" data-name="Trazado 4982" d="M397.009,451.152a2.973,2.973,0,0,1-2.669,3.2H106.569a2.973,2.973,0,0,1-2.67-3.2v-6.407a2.973,2.973,0,0,1,2.67-3.2H394.34a2.973,2.973,0,0,1,2.669,3.2Z" transform="translate(-103.899 -335.295)" fill="#22689e"/>
          <g id="Grupo_28670" data-name="Grupo 28670" transform="translate(111.185)">
            <g id="Grupo_28669" data-name="Grupo 28669" transform="translate(50.077)">
              <rect id="Rectángulo_5004" data-name="Rectángulo 5004" width="103.576" height="81.686" rx="4.899" fill="#003154"/>
              <rect id="Rectángulo_5005" data-name="Rectángulo 5005" width="103.576" height="81.686" rx="4.899" transform="translate(7.473)" fill="#001433"/>
              <rect id="Rectángulo_5006" data-name="Rectángulo 5006" width="19.22" height="62.466" rx="4.899" transform="translate(47.916 43.246)" fill="#003154"/>
              <rect id="Rectángulo_5007" data-name="Rectángulo 5007" width="64.602" height="5.873" rx="2.936" transform="translate(25.226 100.373)" fill="#003154"/>
              <rect id="Rectángulo_5008" data-name="Rectángulo 5008" width="19.22" height="62.466" rx="4.899" transform="translate(47.916 43.246)" fill="#003154"/>
            </g>
            <rect id="Rectángulo_5009" data-name="Rectángulo 5009" width="64.602" height="5.873" rx="2.936" transform="translate(0 100.373)" fill="#003154"/>
          </g>
        </g>
      </g>
    </g>
  </g>
</svg>
