<svg xmlns="http://www.w3.org/2000/svg" width="357.412" height="237.108" viewBox="0 0 357.412 237.108">
  <g id="Grupo_55682" data-name="Grupo 55682" transform="translate(-65.421 -79.802)">
    <g id="BACKGROUND" transform="translate(66.597 79.802)">
      <path id="Trazado_5027" data-name="Trazado 5027" d="M87.7,158.7,221.772,84.729a39.6,39.6,0,0,1,42.735,2.877L406.264,192.844c27.675,20.546,17.709,64.189-16.141,70.685l-193.331,37.1a39.6,39.6,0,0,1-32.732-8.4l-82.5-68.371A39.6,39.6,0,0,1,87.7,158.7Z" transform="translate(-67.227 -79.802)" fill="#b9dffd"/>
    </g>
    <g id="OBJECTS" transform="translate(65.421 97.33)">
      <g id="Grupo_28731" data-name="Grupo 28731">
        <g id="Grupo_28708" data-name="Grupo 28708" transform="translate(18.479 155.473)">
          <path id="Trazado_5028" data-name="Trazado 5028" d="M134.488,406.629h-18.96l-3.843-19.722h26.646Z" transform="translate(-100.054 -360.033)" fill="#ffc154"/>
          <path id="Trazado_5029" data-name="Trazado 5029" d="M113.424,395.83l23.8-3.228,1.11-5.695H111.685Z" transform="translate(-100.054 -360.033)" fill="#ff9e55"/>
          <g id="Grupo_28707" data-name="Grupo 28707" transform="translate(0 0)">
            <path id="Trazado_5030" data-name="Trazado 5030" d="M129.151,371c11.422-15.836.146-25.265,0-25.386v0h0v0c-.146.12-11.421,9.549,0,25.386v0l0,0v0Z" transform="translate(-104.367 -345.615)" fill="#a7e070"/>
            <g id="Grupo_28706" data-name="Grupo 28706" transform="translate(0 7.63)">
              <g id="Grupo_28704" data-name="Grupo 28704" transform="translate(23.934)">
                <path id="Trazado_5031" data-name="Trazado 5031" d="M130.588,377.057c.141-21.668,13.6-23.226,24.784-15.437Z" transform="translate(-130.588 -357.338)" fill="#75b75a"/>
                <path id="Trazado_5032" data-name="Trazado 5032" d="M133.417,381.711c0-13.878,15.72-18.552,23.792-2.691Z" transform="translate(-131.576 -361.426)" fill="#a7e070"/>
              </g>
              <g id="Grupo_28705" data-name="Grupo 28705">
                <path id="Trazado_5033" data-name="Trazado 5033" d="M119.9,377.057c-.142-21.668-13.6-23.226-24.784-15.437Z" transform="translate(-94.27 -357.338)" fill="#75b75a"/>
                <path id="Trazado_5034" data-name="Trazado 5034" d="M117.606,381.711c0-13.878-15.72-18.552-23.792-2.691Z" transform="translate(-93.814 -361.426)" fill="#a7e070"/>
              </g>
            </g>
          </g>
          <rect id="Rectángulo_5024" data-name="Rectángulo 5024" width="30.319" height="4.526" transform="translate(9.539 26.077)" fill="#ffc154"/>
        </g>
        <g id="Grupo_28724" data-name="Grupo 28724" transform="translate(68.515)">
          <g id="Grupo_28709" data-name="Grupo 28709" transform="translate(0 100.473)">
            <path id="Trazado_5035" data-name="Trazado 5035" d="M312.063,340.031,306.672,284.1a10.234,10.234,0,0,0-20.373,1.964l4.565,47.356L227.357,350.79a7.348,7.348,0,0,0,3.324,14.3l73.511-14.114,8.763-1.682Z" transform="translate(-188.59 -265.907)" fill="#ffa67a"/>
            <path id="Trazado_5036" data-name="Trazado 5036" d="M341.175,288.531c-.033-.339-.083-.672-.147-1l-20.255,1.582a10.343,10.343,0,0,0,.029,1.382l2.536,26.3,20.7,1.453Z" transform="translate(-223.093 -270.334)" fill="#ef946c"/>
            <path id="Rectángulo_5025" data-name="Rectángulo 5025" d="M16.621,0h0A16.621,16.621,0,0,1,33.242,16.621V40.879a0,0,0,0,1,0,0H0a0,0,0,0,1,0,0V16.621A16.621,16.621,0,0,1,16.621,0Z" transform="translate(89.813 3.039) rotate(-5.246)" fill="#4278c6"/>
            <path id="Trazado_5037" data-name="Trazado 5037" d="M211.006,404.352c-6.749.411-18.46.29-23.129-4.847,0,0-10.285,3.862-13.144,4.036a4.29,4.29,0,0,1-4.038-2.184s17.014-12.8,20.72-14.15,20.551,2.021,20.551,2.021l2.747,9.959A4.088,4.088,0,0,1,211.006,404.352Z" transform="translate(-170.694 -305.027)" fill="#ffa67a"/>
          </g>
          <g id="Grupo_28711" data-name="Grupo 28711" transform="translate(101.478 91.513)">
            <g id="Grupo_28710" data-name="Grupo 28710">
              <path id="Trazado_5038" data-name="Trazado 5038" d="M370.145,247.341c-19.282,0-34.153,4.726-43.531,10.978l10.5,53.1-2.171,50.9s37.437,8.806,75.116,0l-4.351-50.907,3.763-53.8S394.269,250.158,370.145,247.341Z" transform="translate(-326.614 -247.341)" fill="#5295fe"/>
            </g>
            <path id="Trazado_5039" data-name="Trazado 5039" d="M398.345,257.135c0,8.371-9.753,15.157-21.783,15.157s-21.782-6.786-21.782-15.157,9.753-7.649,21.782-7.649S398.345,248.764,398.345,257.135Z" transform="translate(-336.449 -248.085)" fill="#ffb692"/>
          </g>
          <g id="Grupo_28712" data-name="Grupo 28712" transform="translate(72.885 100.473)">
            <path id="Trazado_5040" data-name="Trazado 5040" d="M424.05,340.031,418.66,284.1a10.234,10.234,0,0,0-20.373,1.964l4.564,47.356L339.344,350.79a7.348,7.348,0,0,0,3.324,14.3L416.18,350.98l8.763-1.682Z" transform="translate(-300.577 -265.907)" fill="#ffb692"/>
            <path id="Trazado_5041" data-name="Trazado 5041" d="M454.263,300.567l-20.427,1.4,1.774,18.4,20.787,2.334Z" transform="translate(-335.459 -274.886)" fill="#d88d87"/>
            <path id="Rectángulo_5026" data-name="Rectángulo 5026" d="M16.621,0h0A16.621,16.621,0,0,1,33.242,16.621V40.879a0,0,0,0,1,0,0H0a0,0,0,0,1,0,0V16.621A16.621,16.621,0,0,1,16.621,0Z" transform="translate(89.813 3.039) rotate(-5.246)" fill="#4278c6"/>
            <path id="Trazado_5042" data-name="Trazado 5042" d="M322.993,404.352c-6.748.411-18.459.29-23.129-4.847,0,0-10.284,3.862-13.144,4.036a4.291,4.291,0,0,1-4.039-2.184s17.014-12.8,20.72-14.15,20.552,2.021,20.552,2.021l2.747,9.959A4.088,4.088,0,0,1,322.993,404.352Z" transform="translate(-282.681 -305.027)" fill="#ffb692"/>
          </g>
          <g id="Grupo_28723" data-name="Grupo 28723" transform="translate(97.222)">
            <g id="Grupo_28720" data-name="Grupo 28720">
              <g id="Grupo_28714" data-name="Grupo 28714" transform="translate(4.498 41.637)">
                <g id="Grupo_28713" data-name="Grupo 28713" transform="translate(0 0)">
                  <ellipse id="Elipse_346" data-name="Elipse 346" cx="9.575" cy="12.02" rx="9.575" ry="12.02" transform="translate(0 1.043) rotate(-3.123)" fill="#6d86aa"/>
                </g>
                <path id="Trazado_5043" data-name="Trazado 5043" d="M334.336,183.679c.361,6.629,4.935,11.768,10.216,11.48s9.267-5.895,8.906-12.523-4.936-11.768-10.216-11.48S333.974,177.051,334.336,183.679Z" transform="translate(-329.544 -170.86)" fill="#fff"/>
              </g>
              <path id="Trazado_5044" data-name="Trazado 5044" d="M339.2,150.682c-13.88,13.518,4.536,28.725,4.536,28.725l-.866-29.128Z" transform="translate(-324.945 -121.937)" fill="#323244"/>
              <path id="Trazado_5045" data-name="Trazado 5045" d="M395.732,241.379c-1.848-33.879-7.5-15.912-15.663-15.466s-15.617-14.616-13.888,17.079c.648,11.873,7.207,10.487,15.368,10.042S396.381,253.252,395.732,241.379Z" transform="translate(-336.086 -146.546)" fill="#ffb692"/>
              <path id="Trazado_5046" data-name="Trazado 5046" d="M365.961,233.078c.4-18.213,6.992-6.776,14.119-7.165,7.9-.431,13.453-17.289,15.476,12.4C383.156,243.125,373.1,238.869,365.961,233.078Z" transform="translate(-336.096 -146.546)" fill="#d88d87"/>
              <path id="Trazado_5047" data-name="Trazado 5047" d="M374.723,132.132l-13.148.718a18.736,18.736,0,0,0-17.636,19.672l1.482,27.155a26.164,26.164,0,0,0,27.47,24.627h0a26.164,26.164,0,0,0,24.626-27.47l-1.392-25.515A20.385,20.385,0,0,0,374.723,132.132Z" transform="translate(-328.397 -115.591)" fill="#ffb692"/>
              <path id="Trazado_5048" data-name="Trazado 5048" d="M410.668,181.847c.35,6.417,4.621,11.544,9.959,12.449a25.963,25.963,0,0,0,.192-4.829l-1.156-21.183C414.221,169.566,410.308,175.248,410.668,181.847Z" transform="translate(-351.698 -128.224)" fill="#d88d87"/>
              <path id="Trazado_5049" data-name="Trazado 5049" d="M399.381,150.2a20.39,20.39,0,0,0-21.309-18.071l-13.148.718A18.568,18.568,0,0,0,353.5,137.6C367.483,155.375,387.1,153.7,399.381,150.2Z" transform="translate(-331.746 -115.591)" fill="#d88d87"/>
              <path id="Trazado_5050" data-name="Trazado 5050" d="M396.8,170.631l-4.4-1.418a2.607,2.607,0,0,1-1.677-3.272h0A2.608,2.608,0,0,1,394,164.263l4.4,1.418a2.608,2.608,0,0,1,1.677,3.272h0A2.608,2.608,0,0,1,396.8,170.631Z" transform="translate(-344.699 -126.777)" fill="#323244"/>
              <path id="Trazado_5051" data-name="Trazado 5051" d="M364.1,171.166l-4.046,2.237a2.608,2.608,0,0,1-3.533-1.017h0a2.608,2.608,0,0,1,1.017-3.534l4.046-2.236a2.608,2.608,0,0,1,3.534,1.017h0A2.608,2.608,0,0,1,364.1,171.166Z" transform="translate(-332.688 -127.529)" fill="#323244"/>
              <path id="Trazado_5052" data-name="Trazado 5052" d="M373.886,202.718s6.866.873,6.965,2.146-3.175,2.061-4.115,1.564S373.886,202.718,373.886,202.718Z" transform="translate(-338.863 -140.247)" fill="#d88d87"/>
              <g id="Grupo_28715" data-name="Grupo 28715" transform="translate(26.463 46.446)">
                <path id="Trazado_5053" data-name="Trazado 5053" d="M366.468,182.537a2.869,2.869,0,1,1-3.021-2.708A2.869,2.869,0,0,1,366.468,182.537Z" transform="translate(-360.734 -178.7)" fill="#34344f"/>
                <path id="Trazado_5054" data-name="Trazado 5054" d="M398.118,180.81A2.869,2.869,0,1,1,395.1,178.1,2.87,2.87,0,0,1,398.118,180.81Z" transform="translate(-371.785 -178.097)" fill="#34344f"/>
                <path id="Trazado_5055" data-name="Trazado 5055" d="M378.348,179.579c-.3,1.663-.662,3.3-1.055,4.927s-.814,3.242-1.26,4.851-.907,3.213-1.411,4.808l-.1.3c-.009.014-.02.1-.005-.039a.4.4,0,0,0-.029-.155c-.02-.044-.023-.029-.008-.01a2.418,2.418,0,0,0,.327.361c.283.262.59.541.908.8.627.545,1.274,1.088,1.882,1.709a12.192,12.192,0,0,1-2.4-.942,9.845,9.845,0,0,1-1.128-.676A2.938,2.938,0,0,1,373.5,195a1.082,1.082,0,0,1-.171-.278.751.751,0,0,1-.062-.307.512.512,0,0,1,.023-.192l.081-.3c.463-1.619.972-3.229,1.492-4.834s1.066-3.2,1.642-4.791S377.68,181.13,378.348,179.579Z" transform="translate(-365.109 -178.615)" fill="#34344f"/>
              </g>
              <g id="Grupo_28716" data-name="Grupo 28716" transform="translate(33.389 64.564)">
                <path id="Trazado_5056" data-name="Trazado 5056" d="M373.936,211.624a66.707,66.707,0,0,0,12.555-5.28c2.872-1.623,6.1,1.852,4.982,5.418-1.188,3.793-3.71,7.557-8.945,8.812-4.29,1.028-7.235.294-9.246-1.053C370.436,217.615,370.877,212.58,373.936,211.624Z" transform="translate(-371.376 -205.934)" fill="#34344f"/>
                <path id="Trazado_5057" data-name="Trazado 5057" d="M385.093,222.663c5.235-1.254,7.757-5.019,8.945-8.812a4.878,4.878,0,0,0,.215-1.578,12.321,12.321,0,0,0-7.83.694c-5.031,1.906-7.03,5.952-7.7,9.857,0,.008,0,.015,0,.023A13.562,13.562,0,0,0,385.093,222.663Z" transform="translate(-373.941 -208.023)" fill="#ff9292"/>
                <path id="Trazado_5058" data-name="Trazado 5058" d="M383.514,219.481c.654.818,2.638.375,4.432-.989s2.715-3.134,2.061-3.951-2.639-.375-4.432.99S382.858,218.664,383.514,219.481Z" transform="translate(-375.54 -208.796)" fill="#ffabab"/>
                <path id="Trazado_5059" data-name="Trazado 5059" d="M373.938,211.625a66.709,66.709,0,0,0,12.555-5.28c1.764-1,3.657-.067,4.6,1.622a24.632,24.632,0,0,1-10.932,7,27.621,27.621,0,0,1-8.717,1.517C371.124,214.451,372.009,212.227,373.938,211.625Z" transform="translate(-371.377 -205.934)" fill="#fff"/>
              </g>
              <path id="Trazado_5060" data-name="Trazado 5060" d="M379.065,139.447c-65.34,16.08-58.809-16.8-58.809-16.8l3.537,5.049s-2.814-15.377,11.6-20.96l1.907,9.662s22.626-11.569,44.828,2.2,10.812,46.649,10.812,46.649S383.378,165.675,379.065,139.447Z" transform="translate(-320.074 -106.733)" fill="#323244"/>
              <path id="Trazado_5061" data-name="Trazado 5061" d="M388.484,130.378a27.489,27.489,0,0,0-6.289-5.35c-15.584,11.148-39.164,22.165-58.618,6.448a18.185,18.185,0,0,0,.216,2.6l-3.537-5.049a15.576,15.576,0,0,0-.069,4.344C341.9,152.836,371.127,144.107,388.484,130.378Z" transform="translate(-320.075 -113.121)" fill="#49496b"/>
              <g id="Grupo_28717" data-name="Grupo 28717" transform="translate(64.28 41.992)">
                <path id="Trazado_5062" data-name="Trazado 5062" d="M418.915,179.418c-.525,4.931,1.723,9.285,5.023,9.727s6.4-3.2,6.926-8.128-1.723-9.285-5.023-9.727S419.441,174.488,418.915,179.418Z" transform="translate(-418.839 -171.253)" fill="#ffb692"/>
                <path id="Trazado_5063" data-name="Trazado 5063" d="M423.514,181.353a2.8,2.8,0,0,0-1.47.213c.007-.082.009-.162.018-.245.347-3.257,2.4-5.662,4.575-5.37s3.666,3.168,3.319,6.426c-.267,2.5-1.541,4.5-3.106,5.157C427.1,184.379,425.639,181.637,423.514,181.353Z" transform="translate(-419.958 -172.885)" fill="#d88d87"/>
              </g>
              <g id="Grupo_28719" data-name="Grupo 28719" transform="translate(62.483 40.77)">
                <g id="Grupo_28718" data-name="Grupo 28718">
                  <path id="Trazado_5064" data-name="Trazado 5064" d="M435.222,181.213c.362,6.629-3.626,12.236-8.906,12.524s-9.854-4.852-10.216-11.48,3.626-12.236,8.906-12.524S434.86,174.585,435.222,181.213Z" transform="translate(-416.078 -169.496)" fill="#fff"/>
                  <path id="Trazado_5065" data-name="Trazado 5065" d="M441.577,180.867c.362,6.628-3.625,12.235-8.905,12.523s-9.854-4.852-10.216-11.48,3.626-12.236,8.906-12.523S441.216,174.238,441.577,180.867Z" transform="translate(-418.297 -169.375)" fill="#6d86aa"/>
                </g>
                <path id="Trazado_5066" data-name="Trazado 5066" d="M439.368,184.35c.181,3.314-1.813,6.117-4.452,6.262s-4.927-2.426-5.108-5.74,1.813-6.118,4.453-6.262S439.187,181.036,439.368,184.35Z" transform="translate(-420.868 -172.598)" fill="#ffac52"/>
              </g>
              <path id="Trazado_5067" data-name="Trazado 5067" d="M417.608,154.389c3.047-21.293-9.41-34.175-24.767-35.632l4.694-.582s28.268-.1,26.121,36.623Z" transform="translate(-345.482 -110.728)" fill="#6d86aa"/>
            </g>
            <g id="Grupo_28722" data-name="Grupo 28722" transform="translate(10.379 64.158)">
              <g id="Grupo_28721" data-name="Grupo 28721">
                <path id="Trazado_5068" data-name="Trazado 5068" d="M352.337,221.421c-2.353,0-8.1-.427-12.145-4.273-2.92-2.78-4.32-6.762-4.159-11.837l1.3.041c-.148,4.685,1.114,8.334,3.75,10.847,4.653,4.435,12.125,3.9,12.2,3.891l.1,1.3C353.324,221.392,352.943,221.421,352.337,221.421Z" transform="translate(-336.021 -205.311)" fill="#6d86aa"/>
              </g>
              <path id="Trazado_5069" data-name="Trazado 5069" d="M364.038,229.867l-2.812.084a1.93,1.93,0,0,1-1.986-1.871h0a1.93,1.93,0,0,1,1.872-1.986l2.812-.084a1.93,1.93,0,0,1,1.986,1.872h0A1.929,1.929,0,0,1,364.038,229.867Z" transform="translate(-344.128 -212.538)" fill="#fff"/>
            </g>
          </g>
        </g>
        <path id="Trazado_5070" data-name="Trazado 5070" d="M413.95,434.585H74.3a8.883,8.883,0,0,1-8.883-8.883h0A8.883,8.883,0,0,1,74.3,416.82H413.95a8.883,8.883,0,0,1,8.883,8.883h0A8.883,8.883,0,0,1,413.95,434.585Z" transform="translate(-65.421 -215.004)" fill="#bdd3f4"/>
        <g id="Grupo_28725" data-name="Grupo 28725" transform="translate(45.975 131.718)">
          <path id="Trazado_5071" data-name="Trazado 5071" d="M155.389,374.534l93.019-.013-19.424-65.405H136.061Z" transform="translate(-136.061 -309.116)" fill="#fff"/>
          <rect id="Rectángulo_5027" data-name="Rectángulo 5027" width="136.032" height="4.646" transform="translate(155.367 70.041) rotate(180)" fill="#a0b8e8"/>
          <rect id="Rectángulo_5028" data-name="Rectángulo 5028" width="93.008" height="4.646" transform="translate(112.344 70.041) rotate(180)" fill="#eff6ff"/>
          <path id="Trazado_5072" data-name="Trazado 5072" d="M278.836,309.116h3.531l19.7,65.6-3.81-.209Z" transform="translate(-185.913 -309.116)" fill="#8ba6d1"/>
          <path id="Trazado_5073" data-name="Trazado 5073" d="M207.413,362.269c1.522,4.674,6,7.407,10,6.1s6.012-6.148,4.491-10.823-6-7.406-10-6.1S205.891,357.6,207.413,362.269Z" transform="translate(-160.797 -323.783)" fill="#a0b8e8"/>
        </g>
        <g id="Grupo_28728" data-name="Grupo 28728" transform="translate(278.718 166.804)">
          <g id="Grupo_28727" data-name="Grupo 28727" transform="translate(0 0)">
            <path id="Rectángulo_5029" data-name="Rectángulo 5029" d="M0,0H25.912a0,0,0,0,1,0,0V26.712a8.3,8.3,0,0,1-8.3,8.3H8.3a8.3,8.3,0,0,1-8.3-8.3V0A0,0,0,0,1,0,0Z" fill="#fff"/>
            <g id="Grupo_28726" data-name="Grupo 28726" transform="translate(21.432 3.515)">
              <path id="Trazado_5074" data-name="Trazado 5074" d="M535.006,392.958H526.6V368.425h8.408a7.175,7.175,0,0,1,7.166,7.168v10.2A7.175,7.175,0,0,1,535.006,392.958Zm-4.686-3.721h4.686a3.449,3.449,0,0,0,3.445-3.445v-10.2a3.45,3.45,0,0,0-3.445-3.446H530.32Z" transform="translate(-526.598 -368.425)" fill="#fff"/>
            </g>
          </g>
          <path id="Trazado_5075" data-name="Trazado 5075" d="M499.824,406.024h13.6a6.155,6.155,0,0,0,6.156-6.156v-4.03c-7.054,5.157-17.387-6.174-25.911-9.927v13.957A6.155,6.155,0,0,0,499.824,406.024Z" transform="translate(-493.668 -371.016)" fill="#eff6ff"/>
        </g>
        <g id="Grupo_28730" data-name="Grupo 28730" transform="translate(258.774 65.153)">
          <path id="Trazado_5076" data-name="Trazado 5076" d="M551.606,206.839H475.714a3.492,3.492,0,0,0-3.492,3.492v5.008l-9.2,4.616,9.2,4.616v5.009a3.492,3.492,0,0,0,3.492,3.492h75.892a3.492,3.492,0,0,0,3.492-3.492v-19.25A3.492,3.492,0,0,0,551.606,206.839Z" transform="translate(-463.023 -206.839)" fill="#5295fe"/>
          <g id="Grupo_28729" data-name="Grupo 28729" transform="translate(14.48 7.852)">
            <path id="Trazado_5077" data-name="Trazado 5077" d="M490.9,228.368l-3.477,1.236.1-3.689-2.25-2.925,3.54-1.043L490.9,218.9l2.086,3.044,3.54,1.043-2.25,2.925.1,3.689Z" transform="translate(-485.272 -218.903)" fill="#ffc154"/>
            <path id="Trazado_5078" data-name="Trazado 5078" d="M514.517,228.368,511.04,229.6l.1-3.689-2.25-2.925,3.54-1.043,2.086-3.044,2.086,3.044,3.54,1.043-2.25,2.925.1,3.689Z" transform="translate(-493.519 -218.903)" fill="#ffc154"/>
            <path id="Trazado_5079" data-name="Trazado 5079" d="M538.136,228.368l-3.477,1.236.1-3.689-2.25-2.925,3.54-1.043,2.086-3.044,2.086,3.044,3.54,1.043-2.25,2.925.1,3.689Z" transform="translate(-501.766 -218.903)" fill="#ffc154"/>
            <path id="Trazado_5080" data-name="Trazado 5080" d="M561.755,228.368l-3.477,1.236.1-3.689-2.25-2.925,3.54-1.043,2.086-3.044,2.086,3.044,3.54,1.043-2.25,2.925.1,3.689Z" transform="translate(-510.012 -218.903)" fill="#ffc154"/>
            <path id="Trazado_5081" data-name="Trazado 5081" d="M585.374,228.368,581.9,229.6l.1-3.689-2.25-2.925,3.54-1.043,2.086-3.044,2.086,3.044L591,222.99l-2.25,2.925.1,3.689Z" transform="translate(-518.259 -218.903)" fill="#fff"/>
          </g>
        </g>
      </g>
    </g>
  </g>
</svg>
