<svg xmlns="http://www.w3.org/2000/svg" width="91.097" height="76.026" viewBox="0 0 91.097 76.026">
  <g id="Grupo_27374" data-name="Grupo 27374" transform="translate(-187.799 -122.488)">
    <g id="Grupo_27349" data-name="Grupo 27349" transform="translate(187.799 158.434)" opacity="0.2">
      <path id="Trazado_3254" data-name="Trazado 3254" d="M188.566,181.861a1.117,1.117,0,0,0-.015,2.116l2,1.171,37.069,21.691,3.093,1.811a4.018,4.018,0,0,0,3.645.008l21.661-12.418a1.116,1.116,0,0,0,.016-2.113l-42.156-24.671a4.029,4.029,0,0,0-3.653-.014Z" transform="translate(-187.799 -169.011)"/>
    </g>
    <g id="Grupo_27373" data-name="Grupo 27373" transform="translate(196.606 122.488)">
      <g id="Grupo_27350" data-name="Grupo 27350" transform="translate(0 18.226)" opacity="0.8" style="mix-blend-mode: overlay;isolation: isolate">
        <path id="Trazado_3255" data-name="Trazado 3255" d="M217.949,199.392c4.428,2.554,11.583,2.554,15.984,0s4.376-6.7-.05-9.259-11.584-2.556-15.987,0-4.375,6.7.053,9.26" transform="translate(-202.702 -155.657)" fill="#fcfdfd" opacity="0.8"/>
        <path id="Trazado_3256" data-name="Trazado 3256" d="M215.966,193.783c5.206,2.877,13.618,2.877,18.792,0s5.144-7.552-.06-10.43-13.618-2.88-18.793,0-5.144,7.549.062,10.432" transform="translate(-202.118 -154.06)" fill="#fcfdfd" opacity="0.667"/>
        <path id="Trazado_3257" data-name="Trazado 3257" d="M213.982,188.174c5.985,3.2,15.653,3.2,21.6,0s5.912-8.4-.07-11.6-15.652-3.2-21.6,0-5.912,8.4.071,11.6" transform="translate(-201.534 -152.463)" fill="#fcfdfd" opacity="0.533"/>
        <path id="Trazado_3258" data-name="Trazado 3258" d="M212,182.566c6.763,3.524,17.688,3.524,24.406,0s6.68-9.249-.079-12.773-17.687-3.528-24.408,0-6.68,9.244.08,12.774" transform="translate(-200.95 -150.867)" fill="#fcfdfd" opacity="0.4"/>
        <path id="Trazado_3259" data-name="Trazado 3259" d="M210.016,176.957c7.541,3.848,19.723,3.848,27.214,0s7.448-10.1-.089-13.945-19.722-3.851-27.215,0-7.448,10.092.09,13.946" transform="translate(-200.366 -149.27)" fill="#fcfdfd" opacity="0.267"/>
        <path id="Trazado_3260" data-name="Trazado 3260" d="M208.032,171.348c8.32,4.172,21.759,4.172,30.021,0s8.218-10.946-.1-15.117-21.755-4.175-30.022,0-8.216,10.941.1,15.117" transform="translate(-199.782 -147.673)" fill="#fcfdfd" opacity="0.133"/>
        <path id="Trazado_3261" data-name="Trazado 3261" d="M206.049,165.738c9.1,4.5,23.794,4.5,32.829,0s8.986-11.794-.107-16.288-23.791-4.5-32.829,0-8.984,11.788.107,16.288" transform="translate(-199.198 -146.077)" fill="#fcfdfd" opacity="0"/>
      </g>
      <g id="Grupo_27351" data-name="Grupo 27351" transform="translate(15.453 53.119)">
        <path id="Trazado_3262" data-name="Trazado 3262" d="M233.68,192.68c3.329,1.922,3.346,5.037.039,6.958a13.236,13.236,0,0,1-12.015,0c-3.326-1.922-3.347-5.037-.04-6.958A13.233,13.233,0,0,1,233.68,192.68Z" transform="translate(-219.198 -191.237)" opacity="0.1"/>
      </g>
      <path id="Trazado_3263" data-name="Trazado 3263" d="M224.224,192.093s-1.32.973-.834,1.494a5.9,5.9,0,0,1,1.548,1.887c.474,1.034,2.425,2.306,2.782,1.653s.141-1.49-.688-2.966A5.333,5.333,0,0,0,224.224,192.093Z" transform="translate(-204.674 -138.313)" fill="#161619"/>
      <g id="Grupo_27353" data-name="Grupo 27353" transform="translate(19.148 35.105)">
        <g id="Grupo_27352" data-name="Grupo 27352">
          <path id="Trazado_3264" data-name="Trazado 3264" d="M225,188.536a2.878,2.878,0,0,0,2.445.355s3.754-4.939,4.457-7.013c.892-2.637,2.286-11.5,1.738-13.657-.313-1.234-1.065,1.8-4.608,1.382-2.884-.341.064,9.823-.508,10.381a78.994,78.994,0,0,0-4.535,6.789A2.438,2.438,0,0,0,225,188.536Z" transform="translate(-223.98 -167.923)" fill="#77d2ff"/>
        </g>
      </g>
      <path id="Trazado_3265" data-name="Trazado 3265" d="M229.031,170c-2.884-.341.064,9.823-.508,10.381a78.994,78.994,0,0,0-4.535,6.789A2.438,2.438,0,0,0,225,188.929c.029.023.064.046.1.068a61.256,61.256,0,0,0,3.978-6.515,23.708,23.708,0,0,0,3.139-12.715l-.7-.114A4.529,4.529,0,0,1,229.031,170Z" transform="translate(-204.832 -133.211)" fill="#4bbbe8"/>
      <path id="Trazado_3266" data-name="Trazado 3266" d="M231.989,198.719s-.686,1.491-.009,1.711a5.894,5.894,0,0,1,2.269.9c.913.674,3.237.846,3.233.1s-.6-1.371-2.036-2.264A5.331,5.331,0,0,0,231.989,198.719Z" transform="translate(-206.583 -139.795)" fill="#161619"/>
      <g id="Grupo_27355" data-name="Grupo 27355" transform="translate(20.669 34.453)">
        <g id="Grupo_27354" data-name="Grupo 27354">
          <path id="Trazado_3267" data-name="Trazado 3267" d="M231.9,192.556a5.241,5.241,0,0,1-2.1-.185s-.586-9.254-.7-11.148c-.106-1.794-5.22-10.618-2.221-13.344,2.265-2.054,5.6.5,5.6.5s-2,2.8-2.092,3.907c-.185,2.178,2.2,6.571,2.353,8.429.272,3.286,1.191,10.874,1.191,10.874A3.431,3.431,0,0,1,231.9,192.556Z" transform="translate(-225.949 -167.079)" fill="#4bbbe8"/>
        </g>
      </g>
      <path id="Trazado_3268" data-name="Trazado 3268" d="M233.579,181.3c-.158-1.858-2.538-6.251-2.353-8.429a9.987,9.987,0,0,1,1.528-3.074l-2.528-.125s-1.3,4.328-.17,6.765c1.072,2.312,3.809,11.206,3.014,16.67a3.9,3.9,0,0,0,1.7-.933S233.851,184.587,233.579,181.3Z" transform="translate(-206.109 -133.216)" fill="#77d2ff"/>
      <path id="Trazado_3269" data-name="Trazado 3269" d="M242.583,166.7a5.556,5.556,0,0,1,1.532,2.405c.233,1.208-.347,1.418-.347,1.418l-.493-.833a4.887,4.887,0,0,0-1.746-1.747C241.206,167.85,242.583,166.7,242.583,166.7Z" transform="translate(-208.811 -132.539)" fill="#e6a376"/>
      <path id="Trazado_3270" data-name="Trazado 3270" d="M242.65,168.507a3.4,3.4,0,0,1-.049,1.478c-.213.618-.24.5-.323.444a11.577,11.577,0,0,0-.253-1.74C241.718,167.568,242.65,168.507,242.65,168.507Z" transform="translate(-208.921 -132.867)" fill="#e6a376"/>
      <path id="Trazado_3271" data-name="Trazado 3271" d="M234.5,150.385c-2.172.984,1.167,8.359,2.386,10.033,0,0,.84-.1,1.951-1.519C238.842,158.9,237.007,149.247,234.5,150.385Z" transform="translate(-207.062 -128.809)" fill="#e846bb"/>
      <path id="Trazado_3272" data-name="Trazado 3272" d="M237.8,162.877l3.034,4.148a2.028,2.028,0,0,0,1.534-1.211l-2.748-4.705Z" transform="translate(-207.975 -131.268)" fill="#e846bb"/>
      <path id="Trazado_3273" data-name="Trazado 3273" d="M228.44,151.285a13.717,13.717,0,0,0-1.431.806,12.009,12.009,0,0,0-1.9,1.412c-.176.2-.784.684.517,3.478,0,0,2.1,3.127,1.031,6.126l-.595,1.671s1.751,2.971,5.721,1.338c.805-.331,2.268-.931,2.288-1.808a22.222,22.222,0,0,1,.067-6.186c.457-2.66.162-7.034-1.6-7.5C232.532,150.618,231.491,150.03,228.44,151.285Z" transform="translate(-205.021 -128.852)" fill="#ff61cb"/>
      <path id="Trazado_3274" data-name="Trazado 3274" d="M225.1,154.065c-.176.2-.784.684.517,3.478,0,0,2.1,3.127,1.031,6.126l-.595,1.671a4.109,4.109,0,0,0,2.172,1.632c1.314-3.691.169-9.483-.048-11.614a2.778,2.778,0,0,0-1.651-2.4A11.127,11.127,0,0,0,225.1,154.065Z" transform="translate(-205.021 -129.416)" fill="#e846bb"/>
      <g id="Grupo_27357" data-name="Grupo 27357" transform="translate(21.612 15.317)">
        <path id="Trazado_3275" data-name="Trazado 3275" d="M228.638,148.242s1.222,1.387.567,2.527c-.368.641.87,1.864,2.648,1.5,0,0,.773-.3.651-.585a1.79,1.79,0,0,1,.15-1.584C232.871,149.559,228.638,148.242,228.638,148.242Z" transform="translate(-227.503 -143.66)" fill="#e6a376"/>
        <path id="Trazado_3276" data-name="Trazado 3276" d="M229.26,150.788a.466.466,0,0,0-.063.251,3.407,3.407,0,0,1,1.859-1.007l-1.962-1.642c-.072-.027-.134-.046-.189-.063l-.027.178A2.221,2.221,0,0,1,229.26,150.788Z" transform="translate(-227.557 -143.679)" fill="#dd9569"/>
        <g id="Grupo_27356" data-name="Grupo 27356" transform="translate(0 0.223)">
          <path id="Trazado_3277" data-name="Trazado 3277" d="M227.922,146.154a5.335,5.335,0,0,0,2.232,2.686c1.351.639,2.858.974,2.921-.532.045-1.2.2-4.257-.91-4.71-1.439-.587-2.054-1.468-3.519-.69A2.529,2.529,0,0,0,227.922,146.154Z" transform="translate(-227.276 -142.601)" fill="#efb185"/>
          <path id="Trazado_3278" data-name="Trazado 3278" d="M227.922,146.273a4.578,4.578,0,0,0,2.234,2.711,6.06,6.06,0,0,0,1.252.463,5.66,5.66,0,0,1-1.387-1.047c-.583-.515.7-.462-.363-1.839-.363-.467.9-.891,1.222-.943,1.891-.315,1.864-.9,1.841-1.372-.07-.193-.164.036-.257-.129l-.223-.317c-.026-.03-.053-.059-.077-.084a5.816,5.816,0,0,0-.712-.591c-.8.129-3.108.5-3.154.518-.031.008-.351.6-.652,1.169A3.114,3.114,0,0,0,227.922,146.273Z" transform="translate(-227.276 -142.72)" fill="#e6a376"/>
          <path id="Trazado_3279" data-name="Trazado 3279" d="M228.953,148.343c.008-.159-1.016-1.174-.713-1.589.331-.457,1.215.92,1.266,1s.038-.416-.132-.763a1.125,1.125,0,0,1,.021-1.187c.228-.268.957-.249,1.393-.264-.381-.178-1.1-.161-1.436-.717a2.116,2.116,0,0,0-1.436-1.12C225.761,145.478,228.953,148.343,228.953,148.343Z" transform="translate(-227.169 -142.85)" fill="#231202"/>
        </g>
        <path id="Trazado_3280" data-name="Trazado 3280" d="M230.988,145.221a2.769,2.769,0,0,1-2.029-1.163,1.141,1.141,0,0,0-.909-.585s.212-1.341,2.255-1.141a5.247,5.247,0,0,1,2.066.882C233.565,144.187,232.067,145.151,230.988,145.221Z" transform="translate(-227.369 -142.312)" fill="#231202"/>
      </g>
      <g id="Grupo_27367" data-name="Grupo 27367" transform="translate(28.661)">
        <path id="Trazado_3281" data-name="Trazado 3281" d="M247.142,148.369a1.611,1.611,0,0,0-.991-1.65,5.416,5.416,0,0,0-4.917,0,1.721,1.721,0,0,0-1.011,1.422l0-.008-.056,19.94a1.738,1.738,0,0,0,1.028,1.436,3.71,3.71,0,0,0,.5.24l.032.011c.022.009.046.015.07.024.1.039.21.078.321.109.059.016.12.029.179.043l.09.022c.032.007.063.016.094.022.114.023.229.044.345.06.042.007.085.011.127.015l.077.009c.045,0,.089.012.134.015.114.009.229.015.342.018.036,0,.072,0,.108,0h.248c.129,0,.257-.013.386-.027l.046,0c.031,0,.061-.01.093-.013.1-.013.2-.025.305-.042.046-.009.087-.023.131-.032.116-.024.226-.053.338-.084.063-.019.13-.028.19-.048s.1-.037.144-.055.087-.032.129-.049a3.617,3.617,0,0,0,.49-.232.287.287,0,0,1,.042-.024,2.71,2.71,0,0,0,.372-.272c.012-.01.025-.019.036-.029s.022-.016.031-.025a2.12,2.12,0,0,0,.215-.232c.014-.019.025-.038.038-.056s.025-.037.036-.056a1,1,0,0,0,.065-.1,1.344,1.344,0,0,0,.093-.2.276.276,0,0,0,.008-.03c0-.014.008-.026.012-.04.012-.041.028-.083.037-.126a1.314,1.314,0,0,0,.022-.2c0-.01,0-.021,0-.03l.056-19.941A1.213,1.213,0,0,1,247.142,148.369Zm-.416.756a1.9,1.9,0,0,0,.181-.2l0,0A2.185,2.185,0,0,1,246.727,149.126Zm.382-.576a1.7,1.7,0,0,1-.1.2,1.37,1.37,0,0,0,.106-.213Zm-.519.718,0,0a2.691,2.691,0,0,1-.416.3A2.713,2.713,0,0,0,246.589,149.268Zm-6.1-.362a1.914,1.914,0,0,0,.313.343A1.914,1.914,0,0,1,240.489,148.906Zm-.265-.756a1.251,1.251,0,0,0,.064.374A1.251,1.251,0,0,1,240.224,148.151Zm.07.384a1.545,1.545,0,0,0,.187.363A1.545,1.545,0,0,1,240.294,148.535Zm.515.718a2.747,2.747,0,0,0,.442.313A2.747,2.747,0,0,1,240.808,149.253Z" transform="translate(-237.174 -127.863)" fill="#64d9e8"/>
        <g id="Grupo_27360" data-name="Grupo 27360" transform="translate(1.398 22.772)">
          <path id="Trazado_3282" data-name="Trazado 3282" d="M248.293,155.939c-.005.055-.009.11-.019.165s-.021.083-.031.124-.028.106-.046.158-.033.08-.05.121-.047.108-.076.161-.046.076-.07.114c-.037.059-.076.117-.118.176-.026.035-.055.069-.083.1a2.794,2.794,0,0,1-.212.229c-.03.029-.057.059-.089.088s-.1.081-.148.122-.1.08-.15.118-.115.077-.173.115-.131.089-.2.13a5.42,5.42,0,0,1-.714.339c-.063.025-.127.049-.192.073-.158.058-.322.1-.487.149s-.331.09-.5.124c-.207.042-.416.082-.629.109-.048.005-.094.013-.141.019-.284.03-.573.045-.861.048h-.137c-.283,0-.566-.019-.846-.048l-.127-.013q-.416-.051-.815-.14l-.15-.037a7.149,7.149,0,0,1-.7-.212c-.042-.017-.089-.029-.133-.045a5.581,5.581,0,0,1-.775-.366,2.553,2.553,0,0,1-1.5-2.1l-.008,2.77a2.55,2.55,0,0,0,1.505,2.1,5.32,5.32,0,0,0,.735.352c.013.007.028.01.042.016.039.015.083.026.124.042.148.053.3.108.45.151.084.024.17.042.254.062l.149.037c.043.01.086.023.129.032.166.035.335.063.505.088.062.008.123.014.184.021.042,0,.084.01.128.013.061.007.122.016.185.022.166.014.334.022.5.027.053,0,.106,0,.16,0h.134c.076,0,.153,0,.229,0,.189-.007.379-.019.566-.038.022,0,.042-.008.063-.009.052-.005.1-.014.155-.022.145-.018.291-.034.433-.059.063-.012.12-.033.182-.046.175-.036.344-.08.514-.127.088-.025.183-.039.269-.066s.138-.053.208-.079.133-.048.2-.075a5.571,5.571,0,0,0,.711-.338l.062-.036c.044-.026.08-.056.122-.081.066-.043.133-.085.194-.131s.092-.072.138-.109.109-.087.158-.131a.361.361,0,0,0,.032-.027c.02-.017.033-.036.053-.056a3.051,3.051,0,0,0,.218-.235c.013-.017.032-.032.045-.049s.022-.034.034-.049c.045-.06.084-.12.121-.181.015-.025.036-.049.05-.075s.011-.025.018-.038c.028-.053.052-.105.075-.158.013-.032.031-.062.043-.093,0-.011,0-.022.008-.032.019-.05.03-.1.045-.154.009-.034.022-.067.029-.1,0-.009,0-.018,0-.028.009-.053.013-.107.018-.163,0-.034.012-.068.012-.1,0-.014,0-.029,0-.043l.008-2.77C248.306,155.84,248.3,155.89,248.293,155.939Z" transform="translate(-238.103 -152.825)" fill="#c5f9ff"/>
          <g id="Grupo_27359" data-name="Grupo 27359" transform="translate(0.007)">
            <g id="Grupo_27358" data-name="Grupo 27358">
              <path id="Trazado_3283" data-name="Trazado 3283" d="M246.8,152.826c2,1.153,2.007,3.022.024,4.175a7.949,7.949,0,0,1-7.21,0c-2-1.154-2.006-3.023-.023-4.175A7.943,7.943,0,0,1,246.8,152.826Z" transform="translate(-238.113 -151.961)" fill="#8fedff"/>
            </g>
          </g>
        </g>
        <path id="Trazado_3284" data-name="Trazado 3284" d="M247.142,130.044a1.614,1.614,0,0,0-.991-1.652,5.421,5.421,0,0,0-4.917,0,1.725,1.725,0,0,0-1.011,1.422l0-.007-.056,19.941a1.737,1.737,0,0,0,1.028,1.435,3.805,3.805,0,0,0,.5.241c.011,0,.022.005.032.01s.046.015.07.023c.1.039.21.078.321.11.059.016.12.029.179.043l.09.022c.032.006.063.016.094.022.114.024.229.044.345.059.042.007.085.01.127.015.025,0,.05.006.077.008.045.005.089.012.134.015.114.01.229.015.342.019.036,0,.072,0,.108,0h.088c.054,0,.107,0,.16,0,.129-.005.257-.013.386-.026l.046-.006c.031,0,.061-.008.093-.013.1-.012.2-.025.305-.043.046-.008.087-.022.131-.032.116-.024.226-.054.338-.084.063-.018.13-.028.19-.047s.1-.038.144-.056l.129-.049a3.707,3.707,0,0,0,.49-.232l.042-.025a2.64,2.64,0,0,0,.372-.27l.036-.029c.009-.008.022-.017.031-.026a2.112,2.112,0,0,0,.215-.23c.014-.019.025-.038.038-.057a.611.611,0,0,0,.036-.055.918.918,0,0,0,.065-.1,1.364,1.364,0,0,0,.093-.2c0-.01.005-.021.008-.031s.008-.027.012-.041c.012-.041.028-.083.037-.124a1.37,1.37,0,0,0,.022-.2c0-.011,0-.021,0-.031l.056-19.941A1.221,1.221,0,0,1,247.142,130.044Zm-.416.756a1.829,1.829,0,0,0,.181-.2l0,0A1.993,1.993,0,0,1,246.727,130.8Zm.382-.577a1.5,1.5,0,0,1-.1.2,1.354,1.354,0,0,0,.106-.212Zm-.519.718,0,0a2.857,2.857,0,0,1-.416.3A2.72,2.72,0,0,0,246.589,130.941Zm-6.1-.36a1.94,1.94,0,0,0,.313.343A1.94,1.94,0,0,1,240.489,130.581Zm-.265-.755a1.216,1.216,0,0,0,.064.372A1.216,1.216,0,0,1,240.224,129.826Zm.07.385a1.545,1.545,0,0,0,.187.361A1.545,1.545,0,0,1,240.294,130.211Zm.515.717a2.9,2.9,0,0,0,.442.313A2.9,2.9,0,0,1,240.808,130.928Z" transform="translate(-237.174 -123.696)" fill="#64d9e8"/>
        <path id="Trazado_3285" data-name="Trazado 3285" d="M244.331,139.224c.018-.17.038-.343.062-.515s.061-.372.1-.559c.025-.127.047-.255.075-.382s.058-.243.089-.364c.043-.167.086-.334.134-.5.028-.1.059-.194.089-.292q.088-.279.188-.558c.029-.08.056-.16.087-.24q.144-.387.31-.77c.012-.029.026-.058.039-.087q.152-.344.321-.681c.036-.073.072-.144.11-.216.107-.209.219-.415.335-.62.025-.044.05-.091.076-.136.138-.241.287-.477.437-.712.048-.074.1-.145.148-.221q.166-.247.339-.488c.065-.09.132-.18.2-.269.1-.138.209-.272.317-.4.09-.112.18-.224.274-.333s.178-.2.267-.3c.154-.173.312-.34.472-.5.1-.1.2-.2.294-.3.08-.076.16-.15.241-.224.131-.12.265-.236.4-.348.079-.066.158-.134.238-.2.148-.118.3-.228.447-.337.07-.05.138-.1.209-.152.22-.151.445-.3.672-.426s.433-.234.645-.335c.056-.026.112-.052.168-.076.2-.091.4-.175.6-.243.015-.006.031-.01.046-.015.172-.059.338-.1.506-.142.1-.022.192-.042.287-.061.128-.023.254-.044.379-.058.069-.008.138-.016.206-.02a4.152,4.152,0,0,1,.458-.009c.032,0,.065,0,.1,0a4.162,4.162,0,0,1,.522.066l.125.029a3.693,3.693,0,0,1,.386.111c.039.015.081.026.121.042a3.461,3.461,0,0,1,.461.22l-7.984-4.64-.038-.022a3.573,3.573,0,0,0-.354-.173c-.022-.008-.046-.015-.068-.024-.039-.015-.08-.028-.121-.042-.061-.022-.121-.048-.184-.066s-.135-.032-.2-.047c-.041-.009-.082-.02-.124-.028-.022,0-.043-.012-.066-.015a3.629,3.629,0,0,0-.425-.049h-.029c-.035,0-.072,0-.107,0-.11,0-.219-.009-.331,0-.038,0-.078.009-.115.012-.07,0-.141.012-.213.02s-.129.012-.2.02-.118.026-.176.038c-.1.019-.193.039-.29.063-.052.012-.1.019-.153.032-.121.032-.243.071-.365.112l-.029.009c-.144.049-.289.1-.435.164-.06.025-.121.056-.18.083l-.156.071c-.215.1-.43.21-.649.338s-.452.276-.674.428c-.07.047-.137.1-.2.148-.152.11-.3.223-.452.341-.079.063-.156.128-.234.194-.136.114-.27.231-.4.353-.079.072-.157.144-.234.219-.049.049-.1.09-.151.141s-.1.107-.15.16c-.159.162-.316.328-.469.5-.049.055-.1.105-.149.161s-.079.1-.118.142c-.093.109-.183.219-.272.332-.059.073-.123.144-.182.22s-.092.127-.14.191c-.065.085-.128.171-.191.26-.046.062-.093.122-.137.185-.074.106-.145.215-.216.323-.045.066-.09.13-.132.2-.02.03-.04.059-.059.088q-.189.294-.365.6c-.008.012-.013.025-.02.038-.025.042-.048.084-.07.125-.081.143-.163.285-.24.428-.036.068-.068.136-.1.2s-.072.139-.107.208-.064.125-.094.188c-.078.161-.151.325-.224.488l-.046.1c0,.008-.007.017-.009.024-.091.21-.177.42-.26.631-.013.038-.026.076-.04.113-.029.08-.056.159-.086.238-.037.105-.077.209-.112.314-.026.082-.049.165-.076.247s-.059.192-.087.291c-.019.059-.039.119-.056.18-.029.107-.053.216-.08.323s-.06.24-.087.358c-.009.042-.022.083-.031.126-.019.087-.028.173-.046.26-.036.189-.069.376-.1.562-.007.052-.019.1-.026.155-.015.117-.022.231-.035.348-.007.084-.018.17-.024.254-.019.261-.032.522-.032.777.007,2.219.79,3.781,2.054,4.515l7.984,4.64c-1.264-.735-2.048-2.3-2.054-4.515,0-.256.012-.517.032-.781C244.313,139.386,244.323,139.3,244.331,139.224Z" transform="translate(-236.293 -122.488)" fill="#c5f9ff"/>
        <g id="Grupo_27362" data-name="Grupo 27362" transform="translate(7.983 4.638)">
          <g id="Grupo_27361" data-name="Grupo 27361">
            <path id="Trazado_3286" data-name="Trazado 3286" d="M253.643,129.457c3.887-2.245,7.051-.447,7.064,4.025a15.474,15.474,0,0,1-7.017,12.155c-3.888,2.244-7.051.442-7.064-4.025A15.462,15.462,0,0,1,253.643,129.457Z" transform="translate(-246.625 -128.49)" fill="#8fedff"/>
          </g>
        </g>
        <path id="Trazado_3287" data-name="Trazado 3287" d="M286.712,131.428l-28.643-2.739-8.784,17.481,17,21.095Z" transform="translate(-239.247 -123.898)" fill="#8fedff"/>
        <g id="Grupo_27363" data-name="Grupo 27363" transform="translate(24.03 7.28)">
          <path id="Trazado_3288" data-name="Trazado 3288" d="M282.145,133.941c8.172-4.717,14.822-.936,14.847,8.463s-6.58,20.831-14.751,25.551-14.821.927-14.847-8.463S273.973,138.658,282.145,133.941Z" transform="translate(-267.394 -131.91)" fill="#c5f9ff"/>
        </g>
        <g id="Grupo_27364" data-name="Grupo 27364" transform="translate(24.03 7.28)">
          <path id="Trazado_3289" data-name="Trazado 3289" d="M282.145,133.941c8.172-4.717,14.822-.936,14.847,8.463s-6.58,20.831-14.751,25.551-14.821.927-14.847-8.463S273.973,138.658,282.145,133.941Z" transform="translate(-267.394 -131.91)" fill="#c5f9ff"/>
        </g>
        <g id="Grupo_27366" data-name="Grupo 27366" transform="translate(26.709 10.876)">
          <g id="Grupo_27365" data-name="Grupo 27365">
            <path id="Trazado_3290" data-name="Trazado 3290" d="M283.191,138.261c6.832-3.944,12.39-.783,12.413,7.075s-5.5,17.412-12.331,21.357-12.39.775-12.412-7.074S276.361,142.2,283.191,138.261Z" transform="translate(-270.861 -136.564)" fill="#8fedff"/>
          </g>
        </g>
        <path id="Trazado_3291" data-name="Trazado 3291" d="M271.081,157.619c.813,4.414,4.546,5.959,9.02,3.376,5.058-2.921,9.147-10,9.13-15.814-.012-4.543-2.528-6.952-6.037-6.405C277.091,142.325,272.047,150.347,271.081,157.619Z" transform="translate(-244.202 -126.174)" fill="#64d9e8"/>
        <path id="Trazado_3292" data-name="Trazado 3292" d="M271.081,157.619c.813,4.414,4.546,5.959,9.02,3.376,5.058-2.921,9.147-10,9.13-15.814-.012-4.543-2.528-6.952-6.037-6.405C277.091,142.325,272.047,150.347,271.081,157.619Z" transform="translate(-244.202 -126.174)" fill="#64d9e8"/>
        <path id="Trazado_3293" data-name="Trazado 3293" d="M285.847,154.636a3.351,3.351,0,0,0-1.174-4.591l-6.955-4.121a29.967,29.967,0,0,0-3.558,5.681l7.1,4.2A3.35,3.35,0,0,0,285.847,154.636Z" transform="translate(-244.902 -127.816)" fill="#44b8c1"/>
      </g>
      <g id="Grupo_27372" data-name="Grupo 27372" transform="translate(19.834 24.07)">
        <g id="Grupo_27370" data-name="Grupo 27370" transform="translate(10.867 5.019)">
          <g id="Grupo_27368" data-name="Grupo 27368">
            <path id="Trazado_3294" data-name="Trazado 3294" d="M239.273,162.224s1.347.369,1.986-.058a6.716,6.716,0,0,0,1.772-1.3c.311-.482.263-.7-.189-.726a7.82,7.82,0,0,0-2.53.693,1.7,1.7,0,0,1-1.069.255C239.02,161.1,238.661,161.728,239.273,162.224Z" transform="translate(-238.934 -160.136)" fill="#efb185"/>
          </g>
          <g id="Grupo_27369" data-name="Grupo 27369" transform="translate(0.01)">
            <path id="Trazado_3295" data-name="Trazado 3295" d="M239.246,161.086a1.7,1.7,0,0,0,1.069-.255,7.82,7.82,0,0,1,2.53-.693.575.575,0,0,1,.165.022c-.44.243-1.188.664-1.85,1.015a4.235,4.235,0,0,1-2.212.342C238.973,161.276,239.127,161.093,239.246,161.086Z" transform="translate(-238.947 -160.136)" fill="#efb185"/>
          </g>
        </g>
        <g id="Grupo_27371" data-name="Grupo 27371">
          <path id="Trazado_3296" data-name="Trazado 3296" d="M225.348,153.943c.531-.407,1.652-.641,2.537.906s3.307,5.887,3.307,5.887,4.647-1.206,5.2-1.264a.966.966,0,0,0,.043,1.39s-4.429,3-5.914,2.4S223.167,155.623,225.348,153.943Z" transform="translate(-224.868 -153.64)" fill="#e846bb"/>
        </g>
        <path id="Trazado_3297" data-name="Trazado 3297" d="M239.512,161.126s1.135-.973,1.526-1.214.757-.254.73-.143-1.134.892-.757,1.2C241.212,161.126,239.707,161.021,239.512,161.126Z" transform="translate(-228.198 -155.018)" fill="#efb185"/>
      </g>
    </g>
  </g>
</svg>
