<svg xmlns="http://www.w3.org/2000/svg" xmlns:xlink="http://www.w3.org/1999/xlink" width="459" height="229.958" viewBox="0 0 459 229.958">
  <defs>
    <linearGradient id="linear-gradient" x1="0.857" y1="0.5" x2="1.859" y2="0.5" gradientUnits="objectBoundingBox">
      <stop offset="0" stop-color="#f7f7f7"/>
      <stop offset="1" stop-color="#231f20"/>
    </linearGradient>
    <linearGradient id="linear-gradient-2" x1="-0.929" y1="0.5" x2="0.073" y2="0.5" gradientUnits="objectBoundingBox">
      <stop offset="0" stop-color="#231f20"/>
      <stop offset="1" stop-color="#fafafa"/>
    </linearGradient>
    <linearGradient id="linear-gradient-3" x1="0.5" y1="1.357" x2="0.5" y2="-0.45" gradientUnits="objectBoundingBox">
      <stop offset="0" stop-color="#ed881d"/>
      <stop offset="0.105" stop-color="#ef942a"/>
      <stop offset="0.515" stop-color="#f7c15c"/>
      <stop offset="0.826" stop-color="#fddd7b"/>
      <stop offset="1" stop-color="#ffe887"/>
    </linearGradient>
    <linearGradient id="linear-gradient-4" x1="0.47" y1="0.373" x2="0.732" y2="1.469" gradientUnits="objectBoundingBox">
      <stop offset="0" stop-color="#ffa826"/>
      <stop offset="0.037" stop-color="#fa9c24"/>
      <stop offset="0.189" stop-color="#eb731f"/>
      <stop offset="0.344" stop-color="#df501b"/>
      <stop offset="0.501" stop-color="#d53618"/>
      <stop offset="0.66" stop-color="#ce2315"/>
      <stop offset="0.824" stop-color="#ca1714"/>
      <stop offset="0.999" stop-color="#c91414"/>
    </linearGradient>
    <linearGradient id="linear-gradient-5" x1="0.445" y1="0.4" x2="1.474" y2="2.269" gradientUnits="objectBoundingBox">
      <stop offset="0" stop-color="#fff23a"/>
      <stop offset="0.034" stop-color="#fde739"/>
      <stop offset="0.186" stop-color="#f6be39"/>
      <stop offset="0.342" stop-color="#f19b39"/>
      <stop offset="0.5" stop-color="#ed8139"/>
      <stop offset="0.66" stop-color="#ea6e39"/>
      <stop offset="0.825" stop-color="#e86239"/>
      <stop offset="1" stop-color="#e85f39"/>
    </linearGradient>
    <linearGradient id="linear-gradient-6" x1="0.488" y1="0.467" x2="0.778" y2="1.289" gradientUnits="objectBoundingBox">
      <stop offset="0" stop-color="#ffdb3a"/>
      <stop offset="0.048" stop-color="#fdd035"/>
      <stop offset="0.229" stop-color="#f7ae24"/>
      <stop offset="0.413" stop-color="#f29417"/>
      <stop offset="0.601" stop-color="#ef810e"/>
      <stop offset="0.794" stop-color="#ed7508"/>
      <stop offset="1" stop-color="#ed7207"/>
    </linearGradient>
    <linearGradient id="linear-gradient-7" x1="0.401" y1="0.5" x2="1.401" y2="0.5" gradientUnits="objectBoundingBox">
      <stop offset="0" stop-color="#ffa826"/>
      <stop offset="0.025" stop-color="#fda223"/>
      <stop offset="0.211" stop-color="#f38017"/>
      <stop offset="0.4" stop-color="#ec660c"/>
      <stop offset="0.592" stop-color="#e75305"/>
      <stop offset="0.79" stop-color="#e44701"/>
      <stop offset="1" stop-color="#e34400"/>
    </linearGradient>
  </defs>
  <g id="Grupo_55700" data-name="Grupo 55700" transform="translate(-831 -1146.042)">
    <rect id="Rectángulo_4815" data-name="Rectángulo 4815" width="459" height="179" rx="10" transform="translate(831 1197)" fill="#f3f9ff"/>
    <g id="Grupo_28448" data-name="Grupo 28448" transform="translate(500.797 786.119)">
      <g id="Layer_2" data-name="Layer 2" transform="translate(394.204 552.972)">
        <ellipse id="Elipse_291" data-name="Elipse 291" cx="184" cy="13.954" rx="184" ry="13.954" transform="translate(0)" fill="#8dcfd6" opacity="0.58" style="mix-blend-mode: multiply;isolation: isolate"/>
      </g>
      <g id="Layer_3" data-name="Layer 3" transform="translate(400.022 359.923)">
        <g id="Grupo_28427" data-name="Grupo 28427" transform="translate(0 0)">
          <g id="Grupo_28338" data-name="Grupo 28338">
            <g id="Grupo_28337" data-name="Grupo 28337">
              <path id="Trazado_4321" data-name="Trazado 4321" d="M436.256,565.8l297.277-.065a6.483,6.483,0,0,0,6.478-6.487L739.886,366.4a6.483,6.483,0,0,0-6.487-6.479l-297.277.065a6.483,6.483,0,0,0-6.479,6.487l.125,192.842A6.483,6.483,0,0,0,436.256,565.8Z" transform="translate(-429.644 -359.923)" fill="#595061"/>
            </g>
          </g>
          <g id="Grupo_28341" data-name="Grupo 28341" transform="translate(24.884 11.266)" opacity="0.23">
            <g id="Grupo_28339" data-name="Grupo 28339" transform="translate(71.74 180.235)">
              <line id="Línea_94" data-name="Línea 94" x1="115.068" y2="0.031" transform="translate(1.025 1.025)" fill="#f06698"/>
              <path id="Trazado_4322" data-name="Trazado 4322" d="M1019.29,1528.593a1.025,1.025,0,1,1,0-2.05l115.068-.031a1.025,1.025,0,1,1,0,2.05Z" transform="translate(-1018.265 -1526.512)" fill="#fff"/>
            </g>
            <g id="Grupo_28340" data-name="Grupo 28340">
              <line id="Línea_95" data-name="Línea 95" x1="4.316" y2="0.003" transform="translate(1.025 1.025)" fill="#f06698"/>
              <path id="Trazado_4323" data-name="Trazado 4323" d="M582.261,430.6a1.025,1.025,0,0,1,0-2.05l4.315,0h0a1.025,1.025,0,0,1,0,2.05l-4.316,0Z" transform="translate(-581.236 -428.552)" fill="#fff"/>
            </g>
          </g>
          <g id="Grupo_28384" data-name="Grupo 28384" transform="translate(5.72 5.698)">
            <g id="Grupo_28342" data-name="Grupo 28342">
              <rect id="Rectángulo_4816" data-name="Rectángulo 4816" width="149.555" height="194.233" transform="translate(0.408 0.092) rotate(0.093)" fill="url(#linear-gradient)"/>
              <path id="Trazado_4324" data-name="Trazado 4324" d="M614.229,589.3h-.092l-149.647-.243v-.092l.316-194.325h.092l149.647.243v.092Zm-149.554-.427,149.37.243.315-194.048-149.37-.242Z" transform="translate(-464.49 -394.637)" fill="#f7f7f7"/>
            </g>
            <g id="Grupo_28383" data-name="Grupo 28383" transform="translate(20.387 30.23)">
              <g id="Grupo_28346" data-name="Grupo 28346" transform="translate(0.198)">
                <g id="Grupo_28343" data-name="Grupo 28343" transform="translate(0)">
                  <rect id="Rectángulo_4817" data-name="Rectángulo 4817" width="2.727" height="32.71" transform="matrix(0.002, -1, 1, 0.002, 0, 2.727)" fill="#d4d4d4"/>
                </g>
                <g id="Grupo_28344" data-name="Grupo 28344" transform="translate(38.428 0.063)">
                  <rect id="Rectángulo_4818" data-name="Rectángulo 4818" width="2.727" height="31.316" transform="matrix(0.002, -1, 1, 0.002, 0, 2.727)" fill="#d4d4d4"/>
                </g>
                <g id="Grupo_28345" data-name="Grupo 28345" transform="translate(67.017 0.109)">
                  <rect id="Rectángulo_4819" data-name="Rectángulo 4819" width="2.727" height="43.282" transform="matrix(0.002, -1, 1, 0.002, 0, 2.727)" fill="#d4d4d4"/>
                </g>
              </g>
              <g id="Grupo_28350" data-name="Grupo 28350" transform="translate(0.176 13.563)">
                <g id="Grupo_28347" data-name="Grupo 28347" transform="translate(0 0)">
                  <rect id="Rectángulo_4820" data-name="Rectángulo 4820" width="2.727" height="45.077" transform="translate(0 2.727) rotate(-89.907)" fill="#d4d4d4"/>
                </g>
                <g id="Grupo_28348" data-name="Grupo 28348" transform="translate(50.859 0.083)">
                  <rect id="Rectángulo_4821" data-name="Rectángulo 4821" width="2.727" height="42.201" transform="matrix(0.002, -1, 1, 0.002, 0, 2.727)" fill="#d4d4d4"/>
                </g>
                <g id="Grupo_28349" data-name="Grupo 28349" transform="translate(97.242 0.158)">
                  <rect id="Rectángulo_4822" data-name="Rectángulo 4822" width="2.727" height="13.057" transform="translate(0 2.727) rotate(-89.907)" fill="#d4d4d4"/>
                </g>
              </g>
              <g id="Grupo_28354" data-name="Grupo 28354" transform="translate(0.154 27.127)">
                <g id="Grupo_28351" data-name="Grupo 28351" transform="translate(0 0)">
                  <rect id="Rectángulo_4823" data-name="Rectángulo 4823" width="2.727" height="43.257" transform="translate(0 2.727) rotate(-89.907)" fill="#d4d4d4"/>
                </g>
                <g id="Grupo_28352" data-name="Grupo 28352" transform="translate(49.41 0.08)">
                  <rect id="Rectángulo_4824" data-name="Rectángulo 4824" width="2.727" height="12.162" transform="translate(0 2.727) rotate(-89.907)" fill="#d4d4d4"/>
                </g>
                <g id="Grupo_28353" data-name="Grupo 28353" transform="translate(55.908 0.091)">
                  <rect id="Rectángulo_4825" data-name="Rectángulo 4825" width="2.727" height="54.391" transform="translate(0 2.727) rotate(-89.907)" fill="#d4d4d4"/>
                </g>
              </g>
              <g id="Grupo_28358" data-name="Grupo 28358" transform="translate(0.132 40.69)">
                <g id="Grupo_28355" data-name="Grupo 28355" transform="translate(0 0)">
                  <rect id="Rectángulo_4826" data-name="Rectángulo 4826" width="2.727" height="32.71" transform="translate(0 2.727) rotate(-89.907)" fill="#d4d4d4"/>
                </g>
                <g id="Grupo_28356" data-name="Grupo 28356" transform="translate(17.865 0.029)">
                  <rect id="Rectángulo_4827" data-name="Rectángulo 4827" width="2.727" height="43.707" transform="translate(0 2.727) rotate(-89.907)" fill="#d4d4d4"/>
                </g>
                <g id="Grupo_28357" data-name="Grupo 28357" transform="translate(67.017 0.109)">
                  <rect id="Rectángulo_4828" data-name="Rectángulo 4828" width="2.727" height="43.282" transform="matrix(0.002, -1, 1, 0.002, 0, 2.727)" fill="#d4d4d4"/>
                </g>
              </g>
              <g id="Grupo_28362" data-name="Grupo 28362" transform="translate(0.11 54.253)">
                <g id="Grupo_28359" data-name="Grupo 28359" transform="translate(0 0)">
                  <rect id="Rectángulo_4829" data-name="Rectángulo 4829" width="2.727" height="17.719" transform="translate(0 2.727) rotate(-89.907)" fill="#d4d4d4"/>
                </g>
                <g id="Grupo_28360" data-name="Grupo 28360" transform="translate(24.678 0.04)">
                  <rect id="Rectángulo_4830" data-name="Rectángulo 4830" width="2.727" height="27.458" transform="translate(0 2.727) rotate(-89.907)" fill="#d4d4d4"/>
                </g>
                <g id="Grupo_28361" data-name="Grupo 28361" transform="translate(57.457 0.093)">
                  <rect id="Rectángulo_4831" data-name="Rectángulo 4831" width="2.727" height="52.842" transform="translate(0 2.727) rotate(-89.907)" fill="#d4d4d4"/>
                </g>
              </g>
              <g id="Grupo_28366" data-name="Grupo 28366" transform="translate(0.088 67.816)">
                <g id="Grupo_28363" data-name="Grupo 28363" transform="translate(0 0)">
                  <rect id="Rectángulo_4832" data-name="Rectángulo 4832" width="2.727" height="32.711" transform="matrix(0.002, -1, 1, 0.002, 0, 2.727)" fill="#d4d4d4"/>
                </g>
                <g id="Grupo_28364" data-name="Grupo 28364" transform="translate(38.428 0.062)">
                  <rect id="Rectángulo_4833" data-name="Rectángulo 4833" width="2.727" height="36.598" transform="translate(0 2.727) rotate(-89.907)" fill="#d4d4d4"/>
                </g>
                <g id="Grupo_28365" data-name="Grupo 28365" transform="translate(67.017 0.109)">
                  <rect id="Rectángulo_4834" data-name="Rectángulo 4834" width="2.727" height="43.282" transform="translate(0 2.727) rotate(-89.907)" fill="#d4d4d4"/>
                </g>
              </g>
              <g id="Grupo_28370" data-name="Grupo 28370" transform="translate(0.066 81.38)">
                <g id="Grupo_28367" data-name="Grupo 28367" transform="translate(0)">
                  <rect id="Rectángulo_4835" data-name="Rectángulo 4835" width="2.727" height="32.71" transform="translate(0 2.727) rotate(-89.907)" fill="#d4d4d4"/>
                </g>
                <g id="Grupo_28368" data-name="Grupo 28368" transform="translate(16.823 0.027)">
                  <rect id="Rectángulo_4836" data-name="Rectángulo 4836" width="2.727" height="29.14" transform="matrix(0.002, -1, 1, 0.002, 0, 2.727)" fill="#d4d4d4"/>
                </g>
                <g id="Grupo_28369" data-name="Grupo 28369" transform="translate(50.223 0.081)">
                  <rect id="Rectángulo_4837" data-name="Rectángulo 4837" width="2.727" height="60.076" transform="translate(0 2.727) rotate(-89.907)" fill="#d4d4d4"/>
                </g>
              </g>
              <g id="Grupo_28374" data-name="Grupo 28374" transform="translate(0.044 94.943)">
                <g id="Grupo_28371" data-name="Grupo 28371" transform="translate(0)">
                  <rect id="Rectángulo_4838" data-name="Rectángulo 4838" width="2.727" height="32.71" transform="translate(0 2.727) rotate(-89.907)" fill="#d4d4d4"/>
                </g>
                <g id="Grupo_28372" data-name="Grupo 28372" transform="translate(38.428 0.062)">
                  <rect id="Rectángulo_4839" data-name="Rectángulo 4839" width="2.727" height="34.895" transform="translate(0 2.727) rotate(-89.907)" fill="#d4d4d4"/>
                </g>
                <g id="Grupo_28373" data-name="Grupo 28373" transform="translate(67.017 0.109)">
                  <rect id="Rectángulo_4840" data-name="Rectángulo 4840" width="2.727" height="43.282" transform="translate(0 2.727) rotate(-89.907)" fill="#d4d4d4"/>
                </g>
              </g>
              <g id="Grupo_28378" data-name="Grupo 28378" transform="translate(0.022 108.506)">
                <g id="Grupo_28375" data-name="Grupo 28375" transform="translate(0)">
                  <rect id="Rectángulo_4841" data-name="Rectángulo 4841" width="2.727" height="32.71" transform="translate(0 2.727) rotate(-89.907)" fill="#d4d4d4"/>
                </g>
                <g id="Grupo_28376" data-name="Grupo 28376" transform="translate(19.482 0.032)">
                  <rect id="Rectángulo_4842" data-name="Rectángulo 4842" width="2.727" height="42.09" transform="matrix(0.002, -1, 1, 0.002, 0, 2.727)" fill="#d4d4d4"/>
                </g>
                <g id="Grupo_28377" data-name="Grupo 28377" transform="translate(67.017 0.109)">
                  <rect id="Rectángulo_4843" data-name="Rectángulo 4843" width="2.727" height="43.282" transform="translate(0 2.727) rotate(-89.907)" fill="#d4d4d4"/>
                </g>
              </g>
              <g id="Grupo_28382" data-name="Grupo 28382" transform="translate(0 122.069)">
                <g id="Grupo_28379" data-name="Grupo 28379" transform="translate(0)">
                  <rect id="Rectángulo_4844" data-name="Rectángulo 4844" width="2.727" height="32.71" transform="translate(0 2.727) rotate(-89.907)" fill="#d4d4d4"/>
                </g>
                <g id="Grupo_28380" data-name="Grupo 28380" transform="translate(38.428 0.062)">
                  <rect id="Rectángulo_4845" data-name="Rectángulo 4845" width="2.727" height="34.895" transform="matrix(0.002, -1, 1, 0.002, 0, 2.727)" fill="#d4d4d4"/>
                </g>
                <g id="Grupo_28381" data-name="Grupo 28381" transform="translate(52.636 19.796)">
                  <rect id="Rectángulo_4846" data-name="Rectángulo 4846" width="2.727" height="9.7" transform="translate(0 2.726) rotate(-89.57)" fill="#d4d4d4"/>
                </g>
              </g>
            </g>
          </g>
          <g id="Grupo_28426" data-name="Grupo 28426" transform="translate(155.089 5.689)">
            <g id="Grupo_28385" data-name="Grupo 28385">
              <rect id="Rectángulo_4847" data-name="Rectángulo 4847" width="149.555" height="194.233" transform="translate(0.408 0.092) rotate(0.093)" fill="url(#linear-gradient-2)"/>
              <path id="Trazado_4325" data-name="Trazado 4325" d="M1524.157,589.24h-.092L1374.418,589V588.9l.315-194.325h.092l149.646.243v.092l-.315,194.233Zm-149.554-.427,149.37.243.315-194.048-149.37-.243Z" transform="translate(-1374.418 -394.58)" fill="#f7f7f7"/>
            </g>
            <g id="Grupo_28424" data-name="Grupo 28424" transform="translate(20.387 30.231)">
              <g id="Grupo_28389" data-name="Grupo 28389" transform="translate(0 0)">
                <g id="Grupo_28386" data-name="Grupo 28386" transform="translate(77.588)">
                  <rect id="Rectángulo_4848" data-name="Rectángulo 4848" width="32.711" height="2.727" transform="translate(0 0.052) rotate(-0.091)" fill="#d4d4d4"/>
                </g>
                <g id="Grupo_28387" data-name="Grupo 28387" transform="translate(40.555 0.062)">
                  <rect id="Rectángulo_4849" data-name="Rectángulo 4849" width="31.316" height="2.727" transform="matrix(1, -0.002, 0.002, 1, 0, 0.05)" fill="#d4d4d4"/>
                </g>
                <g id="Grupo_28388" data-name="Grupo 28388" transform="translate(0 0.109)">
                  <rect id="Rectángulo_4850" data-name="Rectángulo 4850" width="43.282" height="2.727" transform="matrix(1, -0.002, 0.002, 1, 0, 0.069)" fill="#d4d4d4"/>
                </g>
              </g>
              <g id="Grupo_28393" data-name="Grupo 28393" transform="translate(0.022 13.564)">
                <g id="Grupo_28390" data-name="Grupo 28390" transform="translate(46.977 0)">
                  <rect id="Rectángulo_4851" data-name="Rectángulo 4851" width="63.323" height="2.727" transform="matrix(1, -0.001, 0.001, 1, 0, 0.071)" fill="#d4d4d4"/>
                </g>
                <g id="Grupo_28391" data-name="Grupo 28391" transform="translate(17.239 0.082)">
                  <rect id="Rectángulo_4852" data-name="Rectángulo 4852" width="42.201" height="2.727" transform="matrix(1, -0.002, 0.002, 1, 0, 0.067)" fill="#d4d4d4"/>
                </g>
                <g id="Grupo_28392" data-name="Grupo 28392" transform="translate(0 0.157)">
                  <rect id="Rectángulo_4853" data-name="Rectángulo 4853" width="13.057" height="2.727" transform="matrix(1, -0.002, 0.002, 1, 0, 0.021)" fill="#d4d4d4"/>
                </g>
              </g>
              <g id="Grupo_28397" data-name="Grupo 28397" transform="translate(0.044 27.127)">
                <g id="Grupo_28394" data-name="Grupo 28394" transform="translate(67.042 0)">
                  <rect id="Rectángulo_4854" data-name="Rectángulo 4854" width="43.257" height="2.727" transform="matrix(1, -0.002, 0.002, 1, 0, 0.069)" fill="#d4d4d4"/>
                </g>
                <g id="Grupo_28395" data-name="Grupo 28395" transform="translate(48.727 0.08)">
                  <rect id="Rectángulo_4855" data-name="Rectángulo 4855" width="12.162" height="2.727" transform="matrix(1, -0.002, 0.002, 1, 0, 0.019)" fill="#d4d4d4"/>
                </g>
                <g id="Grupo_28396" data-name="Grupo 28396" transform="translate(0 0.091)">
                  <rect id="Rectángulo_4856" data-name="Rectángulo 4856" width="54.391" height="2.727" transform="matrix(1, -0.002, 0.002, 1, 0, 0.086)" fill="#d4d4d4"/>
                </g>
              </g>
              <g id="Grupo_28401" data-name="Grupo 28401" transform="translate(0.068 40.69)">
                <g id="Grupo_28398" data-name="Grupo 28398" transform="translate(77.586 0)">
                  <rect id="Rectángulo_4857" data-name="Rectángulo 4857" width="32.71" height="2.727" transform="matrix(1, -0.002, 0.002, 1, 0, 0.052)" fill="#d4d4d4"/>
                </g>
                <g id="Grupo_28399" data-name="Grupo 28399" transform="translate(77.581 0.023)">
                  <rect id="Rectángulo_4858" data-name="Rectángulo 4858" width="14.845" height="2.727" transform="matrix(1, -0.005, 0.005, 1, 0, 0.081)" fill="#d4d4d4"/>
                </g>
                <g id="Grupo_28400" data-name="Grupo 28400" transform="translate(0 0.143)">
                  <rect id="Rectángulo_4859" data-name="Rectángulo 4859" width="69.587" height="2.727" fill="#d4d4d4"/>
                </g>
              </g>
              <g id="Grupo_28405" data-name="Grupo 28405" transform="translate(0.088 54.267)">
                <g id="Grupo_28402" data-name="Grupo 28402" transform="translate(73.016)">
                  <rect id="Rectángulo_4860" data-name="Rectángulo 4860" width="37.285" height="2.727" fill="#d4d4d4"/>
                </g>
                <g id="Grupo_28403" data-name="Grupo 28403" transform="translate(58.162 0.026)">
                  <rect id="Rectángulo_4861" data-name="Rectángulo 4861" width="27.459" height="2.727" transform="matrix(1, -0.002, 0.002, 1, 0, 0.044)" fill="#d4d4d4"/>
                </g>
                <g id="Grupo_28404" data-name="Grupo 28404" transform="translate(0 0.08)">
                  <rect id="Rectángulo_4862" data-name="Rectángulo 4862" width="52.842" height="2.727" transform="matrix(1, -0.002, 0.002, 1, 0, 0.084)" fill="#d4d4d4"/>
                </g>
              </g>
              <g id="Grupo_28409" data-name="Grupo 28409" transform="translate(0.11 67.816)">
                <g id="Grupo_28406" data-name="Grupo 28406" transform="translate(77.588 0)">
                  <rect id="Rectángulo_4863" data-name="Rectángulo 4863" width="32.711" height="2.727" transform="matrix(1, -0.002, 0.002, 1, 0, 0.052)" fill="#d4d4d4"/>
                </g>
                <g id="Grupo_28407" data-name="Grupo 28407" transform="translate(35.274 0.062)">
                  <rect id="Rectángulo_4864" data-name="Rectángulo 4864" width="36.598" height="2.727" transform="matrix(1, -0.002, 0.002, 1, 0, 0.058)" fill="#d4d4d4"/>
                </g>
                <g id="Grupo_28408" data-name="Grupo 28408" transform="translate(0 0.109)">
                  <rect id="Rectángulo_4865" data-name="Rectángulo 4865" width="43.282" height="2.727" transform="matrix(1, -0.002, 0.002, 1, 0, 0.069)" fill="#d4d4d4"/>
                </g>
              </g>
              <g id="Grupo_28413" data-name="Grupo 28413" transform="translate(0.132 81.38)">
                <g id="Grupo_28410" data-name="Grupo 28410" transform="translate(77.589 0)">
                  <rect id="Rectángulo_4866" data-name="Rectángulo 4866" width="32.71" height="2.727" transform="translate(0 0.052) rotate(-0.091)" fill="#d4d4d4"/>
                </g>
                <g id="Grupo_28411" data-name="Grupo 28411" transform="translate(64.336 0.027)">
                  <rect id="Rectángulo_4867" data-name="Rectángulo 4867" width="29.14" height="2.727" transform="translate(0 0.046) rotate(-0.091)" fill="#d4d4d4"/>
                </g>
                <g id="Grupo_28412" data-name="Grupo 28412" transform="translate(0 0.082)">
                  <rect id="Rectángulo_4868" data-name="Rectángulo 4868" width="60.076" height="2.727" transform="translate(0 0.095) rotate(-0.091)" fill="#d4d4d4"/>
                </g>
              </g>
              <g id="Grupo_28417" data-name="Grupo 28417" transform="translate(0.154 94.943)">
                <g id="Grupo_28414" data-name="Grupo 28414" transform="translate(77.588 0)">
                  <rect id="Rectángulo_4869" data-name="Rectángulo 4869" width="32.71" height="2.727" transform="translate(0 0.052) rotate(-0.091)" fill="#d4d4d4"/>
                </g>
                <g id="Grupo_28415" data-name="Grupo 28415" transform="translate(36.976 0.062)">
                  <rect id="Rectángulo_4870" data-name="Rectángulo 4870" width="34.895" height="2.727" transform="translate(0 0.055) rotate(-0.091)" fill="#d4d4d4"/>
                </g>
                <g id="Grupo_28416" data-name="Grupo 28416" transform="translate(0 0.109)">
                  <rect id="Rectángulo_4871" data-name="Rectángulo 4871" width="43.282" height="2.727" transform="translate(0 0.069) rotate(-0.091)" fill="#d4d4d4"/>
                </g>
              </g>
              <g id="Grupo_28421" data-name="Grupo 28421" transform="translate(0.176 108.506)">
                <g id="Grupo_28418" data-name="Grupo 28418" transform="translate(77.588 0)">
                  <rect id="Rectángulo_4872" data-name="Rectángulo 4872" width="32.711" height="2.727" transform="translate(0 0.052) rotate(-0.091)" fill="#d4d4d4"/>
                </g>
                <g id="Grupo_28419" data-name="Grupo 28419" transform="translate(48.727 0.032)">
                  <rect id="Rectángulo_4873" data-name="Rectángulo 4873" width="42.09" height="2.727" transform="translate(0 0.067) rotate(-0.091)" fill="#d4d4d4"/>
                </g>
                <g id="Grupo_28420" data-name="Grupo 28420" transform="translate(0 0.109)">
                  <rect id="Rectángulo_4874" data-name="Rectángulo 4874" width="43.282" height="2.727" transform="translate(0 0.069) rotate(-0.091)" fill="#d4d4d4"/>
                </g>
              </g>
              <g id="Grupo_28423" data-name="Grupo 28423" transform="translate(0.282 122.159)">
                <g id="Grupo_28422" data-name="Grupo 28422">
                  <rect id="Rectángulo_4875" data-name="Rectángulo 4875" width="110.195" height="2.727" fill="#d4d4d4"/>
                </g>
              </g>
            </g>
            <g id="Grupo_28425" data-name="Grupo 28425" transform="translate(72.273 172.105)">
              <rect id="Rectángulo_4876" data-name="Rectángulo 4876" width="2.727" height="9.7" transform="translate(0 2.726) rotate(-89.57)" fill="#d4d4d4"/>
            </g>
          </g>
          <path id="Trazado_4326" data-name="Trazado 4326" d="M1634.094,412.2l-11.809-6.63-11.81,6.63V360.053h23.619Z" transform="translate(-1416.637 -360.031)" fill="url(#linear-gradient-3)"/>
        </g>
        <g id="Grupo_28447" data-name="Grupo 28447" transform="translate(194.454 49.738)">
          <g id="Grupo_28428" data-name="Grupo 28428" transform="translate(40.757)">
            <circle id="Elipse_292" data-name="Elipse 292" cx="35.908" cy="35.908" r="35.908" transform="translate(6.057 50.781) rotate(-45)" fill="url(#linear-gradient-4)"/>
            <circle id="Elipse_293" data-name="Elipse 293" cx="35.908" cy="35.908" r="35.908" transform="translate(0 50.781) rotate(-45)" fill="url(#linear-gradient-5)"/>
            <circle id="Elipse_294" data-name="Elipse 294" cx="35.72" cy="35.72" r="35.72" transform="translate(15.061 15.061)" fill="url(#linear-gradient-6)"/>
            <path id="Trazado_4327" data-name="Trazado 4327" d="M2117.884,872.219v-5.805a16.74,16.74,0,0,1-8.794-2.529l1.379-3.851a15.324,15.324,0,0,0,8.277,2.472c4.081,0,6.84-2.357,6.84-5.633,0-3.161-2.242-5.116-6.5-6.84-5.863-2.3-9.484-4.943-9.484-9.944,0-4.771,3.391-8.392,8.68-9.254v-5.805h3.564V830.6a15.337,15.337,0,0,1,7.472,2.012l-1.437,3.794a13.894,13.894,0,0,0-7.242-1.954c-4.426,0-6.093,2.644-6.093,4.943,0,2.989,2.127,4.483,7.127,6.552,5.92,2.414,8.91,5.4,8.91,10.519,0,4.541-3.161,8.794-9.082,9.771v5.978Z" transform="translate(-2068.613 -798.417)" fill="#fff9de"/>
          </g>
          <g id="Grupo_28431" data-name="Grupo 28431" transform="translate(0 145.081)">
            <rect id="Rectángulo_4877" data-name="Rectángulo 4877" width="75.718" height="13.62" transform="translate(0 0.471)" fill="url(#linear-gradient-7)"/>
            <rect id="Rectángulo_4878" data-name="Rectángulo 4878" width="26.601" height="13.62" transform="translate(6.991 0.471)" fill="#ffd54a"/>
            <rect id="Rectángulo_4879" data-name="Rectángulo 4879" width="3.53" height="13.62" transform="translate(36.551 0.471)" fill="#ffd030"/>
            <g id="Grupo_28429" data-name="Grupo 28429" transform="translate(0 13.62)">
              <line id="Línea_96" data-name="Línea 96" x2="75.718" transform="translate(0 0.471)" fill="#fff"/>
              <rect id="Rectángulo_4880" data-name="Rectángulo 4880" width="75.718" height="0.942" transform="translate(0)" fill="#d13d23"/>
            </g>
            <g id="Grupo_28430" data-name="Grupo 28430">
              <line id="Línea_97" data-name="Línea 97" x2="75.718" transform="translate(0 0.471)" fill="#fff"/>
              <rect id="Rectángulo_4881" data-name="Rectángulo 4881" width="75.718" height="0.942" transform="translate(0)" fill="#ffde57"/>
            </g>
          </g>
          <g id="Grupo_28434" data-name="Grupo 28434" transform="translate(82.218 145.081)">
            <rect id="Rectángulo_4882" data-name="Rectángulo 4882" width="75.718" height="13.62" transform="translate(0 0.471)" fill="url(#linear-gradient-7)"/>
            <rect id="Rectángulo_4883" data-name="Rectángulo 4883" width="26.601" height="13.62" transform="translate(6.991 0.471)" fill="#ffd54a"/>
            <rect id="Rectángulo_4884" data-name="Rectángulo 4884" width="3.53" height="13.62" transform="translate(36.551 0.471)" fill="#ffd030"/>
            <g id="Grupo_28432" data-name="Grupo 28432" transform="translate(0 13.62)">
              <line id="Línea_98" data-name="Línea 98" x2="75.718" transform="translate(0 0.471)" fill="#fff"/>
              <rect id="Rectángulo_4885" data-name="Rectángulo 4885" width="75.718" height="0.942" fill="#d13d23"/>
            </g>
            <g id="Grupo_28433" data-name="Grupo 28433">
              <line id="Línea_99" data-name="Línea 99" x2="75.718" transform="translate(0 0.471)" fill="#fff"/>
              <rect id="Rectángulo_4886" data-name="Rectángulo 4886" width="75.718" height="0.942" fill="#ffde57"/>
            </g>
          </g>
          <g id="Grupo_28437" data-name="Grupo 28437" transform="translate(59.741 130.46)">
            <rect id="Rectángulo_4887" data-name="Rectángulo 4887" width="75.718" height="13.62" transform="translate(0 0.471)" fill="url(#linear-gradient-7)"/>
            <rect id="Rectángulo_4888" data-name="Rectángulo 4888" width="26.601" height="13.62" transform="translate(6.991 0.471)" fill="#ffd54a"/>
            <rect id="Rectángulo_4889" data-name="Rectángulo 4889" width="3.53" height="13.62" transform="translate(36.551 0.471)" fill="#ffd030"/>
            <g id="Grupo_28435" data-name="Grupo 28435" transform="translate(0 13.62)">
              <line id="Línea_100" data-name="Línea 100" x2="75.718" transform="translate(0 0.471)" fill="#fff"/>
              <rect id="Rectángulo_4890" data-name="Rectángulo 4890" width="75.718" height="0.942" fill="#d13d23"/>
            </g>
            <g id="Grupo_28436" data-name="Grupo 28436">
              <line id="Línea_101" data-name="Línea 101" x2="75.718" transform="translate(0 0.471)" fill="#fff"/>
              <rect id="Rectángulo_4891" data-name="Rectángulo 4891" width="75.718" height="0.942" fill="#ffde57"/>
            </g>
          </g>
          <g id="Grupo_28440" data-name="Grupo 28440" transform="translate(63.349 115.832)">
            <rect id="Rectángulo_4892" data-name="Rectángulo 4892" width="75.718" height="13.62" transform="translate(0 0.471)" fill="url(#linear-gradient-7)"/>
            <rect id="Rectángulo_4893" data-name="Rectángulo 4893" width="26.601" height="13.62" transform="translate(6.991 0.471)" fill="#ffd54a"/>
            <rect id="Rectángulo_4894" data-name="Rectángulo 4894" width="3.53" height="13.62" transform="translate(36.551 0.471)" fill="#ffd030"/>
            <g id="Grupo_28438" data-name="Grupo 28438" transform="translate(0 13.62)">
              <line id="Línea_102" data-name="Línea 102" x2="75.718" transform="translate(0 0.471)" fill="#fff"/>
              <rect id="Rectángulo_4895" data-name="Rectángulo 4895" width="75.718" height="0.942" transform="translate(0)" fill="#d13d23"/>
            </g>
            <g id="Grupo_28439" data-name="Grupo 28439">
              <line id="Línea_103" data-name="Línea 103" x2="75.718" transform="translate(0 0.471)" fill="#fff"/>
              <rect id="Rectángulo_4896" data-name="Rectángulo 4896" width="75.718" height="0.942" transform="translate(0)" fill="#ffde57"/>
            </g>
          </g>
          <g id="Grupo_28443" data-name="Grupo 28443" transform="translate(55.633 101.205)">
            <rect id="Rectángulo_4897" data-name="Rectángulo 4897" width="75.718" height="13.62" transform="translate(0 0.471)" fill="url(#linear-gradient-7)"/>
            <rect id="Rectángulo_4898" data-name="Rectángulo 4898" width="26.601" height="13.62" transform="translate(6.991 0.471)" fill="#ffd54a"/>
            <rect id="Rectángulo_4899" data-name="Rectángulo 4899" width="3.53" height="13.62" transform="translate(36.551 0.471)" fill="#ffd030"/>
            <g id="Grupo_28441" data-name="Grupo 28441" transform="translate(0 13.62)">
              <line id="Línea_104" data-name="Línea 104" x2="75.718" transform="translate(0 0.471)" fill="#fff"/>
              <rect id="Rectángulo_4900" data-name="Rectángulo 4900" width="75.718" height="0.942" transform="translate(0)" fill="#d13d23"/>
            </g>
            <g id="Grupo_28442" data-name="Grupo 28442">
              <line id="Línea_105" data-name="Línea 105" x2="75.718" transform="translate(0 0.471)" fill="#fff"/>
              <rect id="Rectángulo_4901" data-name="Rectángulo 4901" width="75.718" height="0.942" transform="translate(0)" fill="#ffde57"/>
            </g>
          </g>
          <g id="Grupo_28446" data-name="Grupo 28446" transform="translate(58.016 86.777)">
            <rect id="Rectángulo_4902" data-name="Rectángulo 4902" width="75.718" height="13.62" transform="translate(0 0.471)" fill="url(#linear-gradient-7)"/>
            <rect id="Rectángulo_4903" data-name="Rectángulo 4903" width="26.601" height="13.62" transform="translate(6.991 0.471)" fill="#ffd54a"/>
            <rect id="Rectángulo_4904" data-name="Rectángulo 4904" width="3.53" height="13.62" transform="translate(36.551 0.471)" fill="#ffd030"/>
            <g id="Grupo_28444" data-name="Grupo 28444" transform="translate(0 13.62)">
              <line id="Línea_106" data-name="Línea 106" x2="75.718" transform="translate(0 0.471)" fill="#fff"/>
              <rect id="Rectángulo_4905" data-name="Rectángulo 4905" width="75.718" height="0.942" transform="translate(0)" fill="#d13d23"/>
            </g>
            <g id="Grupo_28445" data-name="Grupo 28445">
              <line id="Línea_107" data-name="Línea 107" x2="75.718" transform="translate(0 0.471)" fill="#fff"/>
              <rect id="Rectángulo_4906" data-name="Rectángulo 4906" width="75.718" height="0.942" transform="translate(0)" fill="#ffde57"/>
            </g>
          </g>
        </g>
      </g>
    </g>
  </g>
</svg>
