<svg xmlns="http://www.w3.org/2000/svg" width="222" height="158" viewBox="0 0 222 158">
  <g id="Grupo_55726" data-name="Grupo 55726" transform="translate(-205 -2041)">
    <rect id="Rectángulo_4782" data-name="Rectángulo 4782" width="222" height="158" rx="10" transform="translate(205 2041)" fill="#fffbdc"/>
    <g id="Grupo_28465" data-name="Grupo 28465" transform="translate(152.71 1951.881)">
      <g id="Grupo_28458" data-name="Grupo 28458" transform="translate(95.789 103.119)">
        <g id="Grupo_28450" data-name="Grupo 28450" transform="translate(5.397 31.5)">
          <path id="Trazado_4330" data-name="Trazado 4330" d="M163.828,205.115l-31.209.366a4.64,4.64,0,0,0-4.542,5.275l8.5,61.545a4.64,4.64,0,0,0,4.651,4l96.269-1.13a4.64,4.64,0,0,0,4.556-4.113l5.883-53.2a3.1,3.1,0,0,0-3.114-3.449l-73.366.861-2.635-7.277A5.653,5.653,0,0,0,163.828,205.115Z" transform="translate(-128.032 -205.114)" fill="#ffcb00"/>
          <path id="Trazado_4331" data-name="Trazado 4331" d="M163.863,208.149l-31.21.367a4.64,4.64,0,0,0-4.542,5.274l6.767,61.566,108.944-1.278,4.149-53.183a3.1,3.1,0,0,0-3.114-3.449l-73.366.861-2.636-7.277A5.653,5.653,0,0,0,163.863,208.149Z" transform="translate(-128.05 -206.661)" fill="#ffba00"/>
          <path id="Trazado_4332" data-name="Trazado 4332" d="M130.741,241.706l5.5,50.049,108.944-1.279,3.913-50.16Z" transform="translate(-129.413 -223.061)" fill="#e79a15"/>
        </g>
        <g id="Grupo_28457" data-name="Grupo 28457" transform="translate(6.606 0)">
          <g id="Grupo_28453" data-name="Grupo 28453" transform="translate(0 0.693)">
            <rect id="Rectángulo_4911" data-name="Rectángulo 4911" width="56.78" height="71.216" transform="matrix(0.982, -0.188, 0.188, 0.982, 0, 10.696)" fill="#efeeee"/>
            <path id="Trazado_4333" data-name="Trazado 4333" d="M234.182,142.267l-.853.164-8.834,69.425,14.993,1.908,8.11-1.556Z" transform="translate(-178.418 -142.267)" fill="#d3e2ec" opacity="0.42" style="mix-blend-mode: multiply;isolation: isolate"/>
            <rect id="Rectángulo_4912" data-name="Rectángulo 4912" width="36.267" height="3.116" transform="translate(11.069 13.96) rotate(-10.858)" fill="#d1d2d3"/>
            <rect id="Rectángulo_4913" data-name="Rectángulo 4913" width="36.267" height="3.116" transform="translate(18.977 55.183) rotate(-10.858)" fill="#d1d2d3"/>
            <rect id="Rectángulo_4914" data-name="Rectángulo 4914" width="36.267" height="3.116" transform="translate(20.157 61.338) rotate(-10.858)" fill="#d1d2d3"/>
            <rect id="Rectángulo_4915" data-name="Rectángulo 4915" width="36.267" height="3.116" transform="translate(21.338 67.492) rotate(-10.858)" fill="#d1d2d3"/>
            <rect id="Rectángulo_4916" data-name="Rectángulo 4916" width="18.128" height="1.558" transform="translate(20.861 16.863) rotate(-10.858)" fill="#d1d2d3"/>
            <g id="Grupo_28451" data-name="Grupo 28451" transform="translate(10.093 23.206)">
              <rect id="Rectángulo_4917" data-name="Rectángulo 4917" width="20.063" height="1.558" transform="matrix(0.982, -0.188, 0.188, 0.982, 0, 3.779)" fill="#d1d2d3"/>
              <rect id="Rectángulo_4918" data-name="Rectángulo 4918" width="20.063" height="1.558" transform="translate(0.871 8.318) rotate(-10.858)" fill="#d1d2d3"/>
              <rect id="Rectángulo_4919" data-name="Rectángulo 4919" width="20.063" height="1.558" transform="matrix(0.982, -0.188, 0.188, 0.982, 1.741, 12.857)" fill="#d1d2d3"/>
              <rect id="Rectángulo_4920" data-name="Rectángulo 4920" width="20.063" height="1.558" transform="matrix(0.982, -0.188, 0.188, 0.982, 2.612, 17.395)" fill="#d1d2d3"/>
              <rect id="Rectángulo_4921" data-name="Rectángulo 4921" width="20.063" height="1.558" transform="translate(3.482 21.934) rotate(-10.858)" fill="#d1d2d3"/>
              <rect id="Rectángulo_4922" data-name="Rectángulo 4922" width="20.063" height="1.558" transform="matrix(0.982, -0.188, 0.188, 0.982, 4.353, 26.473)" fill="#d1d2d3"/>
            </g>
            <g id="Grupo_28452" data-name="Grupo 28452" transform="translate(33.872 18.645)">
              <rect id="Rectángulo_4923" data-name="Rectángulo 4923" width="20.063" height="1.558" transform="matrix(0.982, -0.188, 0.188, 0.982, 0, 3.779)" fill="#d1d2d3"/>
              <rect id="Rectángulo_4924" data-name="Rectángulo 4924" width="20.063" height="1.558" transform="translate(0.871 8.318) rotate(-10.858)" fill="#d1d2d3"/>
              <rect id="Rectángulo_4925" data-name="Rectángulo 4925" width="20.063" height="1.558" transform="matrix(0.982, -0.188, 0.188, 0.982, 1.741, 12.857)" fill="#d1d2d3"/>
              <rect id="Rectángulo_4926" data-name="Rectángulo 4926" width="20.063" height="1.558" transform="matrix(0.982, -0.188, 0.188, 0.982, 2.612, 17.395)" fill="#d1d2d3"/>
              <rect id="Rectángulo_4927" data-name="Rectángulo 4927" width="20.063" height="1.558" transform="translate(3.482 21.934) rotate(-10.858)" fill="#d1d2d3"/>
              <rect id="Rectángulo_4928" data-name="Rectángulo 4928" width="20.063" height="1.558" transform="matrix(0.982, -0.188, 0.188, 0.982, 4.353, 26.473)" fill="#d1d2d3"/>
            </g>
          </g>
          <g id="Grupo_28456" data-name="Grupo 28456" transform="translate(48.861)">
            <rect id="Rectángulo_4929" data-name="Rectángulo 4929" width="56.78" height="71.216" transform="translate(8.989) rotate(7.252)" fill="#efeeee"/>
            <rect id="Rectángulo_4930" data-name="Rectángulo 4930" width="36.267" height="3.116" transform="matrix(0.992, 0.126, -0.126, 0.992, 18.496, 6.543)" fill="#d1d2d3"/>
            <rect id="Rectángulo_4931" data-name="Rectángulo 4931" width="36.267" height="3.116" transform="matrix(0.992, 0.126, -0.126, 0.992, 13.198, 48.182)" fill="#d1d2d3"/>
            <rect id="Rectángulo_4932" data-name="Rectángulo 4932" width="36.267" height="3.116" transform="matrix(0.992, 0.126, -0.126, 0.992, 12.407, 54.399)" fill="#d1d2d3"/>
            <rect id="Rectángulo_4933" data-name="Rectángulo 4933" width="36.267" height="3.116" transform="matrix(0.992, 0.126, -0.126, 0.992, 11.616, 60.615)" fill="#d1d2d3"/>
            <rect id="Rectángulo_4934" data-name="Rectángulo 4934" width="18.128" height="1.558" transform="translate(26.901 12.346) rotate(7.252)" fill="#d1d2d3"/>
            <g id="Grupo_28454" data-name="Grupo 28454" transform="translate(10.406 18.619)">
              <rect id="Rectángulo_4935" data-name="Rectángulo 4935" width="20.063" height="1.558" transform="translate(3.113 0) rotate(7.252)" fill="#d1d2d3"/>
              <rect id="Rectángulo_4936" data-name="Rectángulo 4936" width="20.063" height="1.558" transform="translate(2.53 4.584) rotate(7.252)" fill="#d1d2d3"/>
              <rect id="Rectángulo_4937" data-name="Rectángulo 4937" width="20.063" height="1.558" transform="translate(1.947 9.169) rotate(7.252)" fill="#d1d2d3"/>
              <rect id="Rectángulo_4938" data-name="Rectángulo 4938" width="20.063" height="1.558" transform="translate(1.363 13.753) rotate(7.252)" fill="#d1d2d3"/>
              <rect id="Rectángulo_4939" data-name="Rectángulo 4939" width="20.063" height="1.558" transform="translate(0.78 18.338) rotate(7.252)" fill="#d1d2d3"/>
              <rect id="Rectángulo_4940" data-name="Rectángulo 4940" width="20.063" height="1.558" transform="translate(0.197 22.922) rotate(7.252)" fill="#d1d2d3"/>
            </g>
            <g id="Grupo_28455" data-name="Grupo 28455" transform="translate(34.424 21.676)">
              <rect id="Rectángulo_4941" data-name="Rectángulo 4941" width="20.063" height="1.558" transform="translate(3.113 0) rotate(7.252)" fill="#d1d2d3"/>
              <rect id="Rectángulo_4942" data-name="Rectángulo 4942" width="20.063" height="1.558" transform="translate(2.53 4.584) rotate(7.252)" fill="#d1d2d3"/>
              <rect id="Rectángulo_4943" data-name="Rectángulo 4943" width="20.063" height="1.558" transform="translate(1.947 9.169) rotate(7.252)" fill="#d1d2d3"/>
              <rect id="Rectángulo_4944" data-name="Rectángulo 4944" width="20.063" height="1.558" transform="translate(1.363 13.753) rotate(7.252)" fill="#d1d2d3"/>
              <rect id="Rectángulo_4945" data-name="Rectángulo 4945" width="20.063" height="1.558" transform="translate(0.78 18.338) rotate(7.252)" fill="#d1d2d3"/>
              <rect id="Rectángulo_4946" data-name="Rectángulo 4946" width="20.063" height="1.558" transform="translate(0.197 22.922) rotate(7.252)" fill="#d1d2d3"/>
            </g>
          </g>
        </g>
        <path id="Trazado_4334" data-name="Trazado 4334" d="M236.523,325.012l-105.1,1.233a5.066,5.066,0,0,1-5.078-4.372l-9.28-67.188a5.066,5.066,0,0,1,4.959-5.758l122.076-1.433a5.066,5.066,0,0,1,5.093,5.641l-7.7,67.387A5.065,5.065,0,0,1,236.523,325.012Z" transform="translate(-117.022 -195.22)" fill="#ffff5f"/>
        <path id="Trazado_4335" data-name="Trazado 4335" d="M236.559,328.046l-105.1,1.234a5.066,5.066,0,0,1-5.077-4.372l-9.28-67.188a5.065,5.065,0,0,1,4.958-5.758l122.076-1.433a5.065,5.065,0,0,1,5.092,5.641l-7.7,67.387A5.065,5.065,0,0,1,236.559,328.046Z" transform="translate(-117.04 -196.766)" fill="#ffd600"/>
      </g>
      <g id="Grupo_28464" data-name="Grupo 28464" transform="translate(120.81 119.705)">
        <circle id="Elipse_297" data-name="Elipse 297" cx="31.125" cy="31.125" r="31.125" transform="translate(0 19.105) rotate(-17.873)" fill="#fffad2" opacity="0.34"/>
        <rect id="Rectángulo_4947" data-name="Rectángulo 4947" width="17.483" height="7.493" transform="translate(69.087 60.348) rotate(42.054)" fill="#00628d"/>
        <rect id="Rectángulo_4948" data-name="Rectángulo 4948" width="7.386" height="7.493" transform="matrix(0.743, 0.67, -0.67, 0.743, 72.835, 63.729)" fill="#2190c7"/>
        <g id="Grupo_28459" data-name="Grupo 28459" transform="translate(73.097 67.173)">
          <path id="Trazado_4336" data-name="Trazado 4336" d="M318.455,328.024a3.85,3.85,0,0,1-.279-5.438l8.654-9.594a3.85,3.85,0,0,1,5.438-.28l31.678,28.82-14.014,15.129Z" transform="translate(-317.184 -311.722)" fill="#2190c7"/>
          <path id="Trazado_4337" data-name="Trazado 4337" d="M389.473,392.612l-5.483-4.946L398,372.537l5.281,4.764a3.85,3.85,0,0,1,.28,5.438l-8.655,9.594A3.85,3.85,0,0,1,389.473,392.612Z" transform="translate(-351.242 -342.726)" fill="#00628d"/>
        </g>
        <g id="Grupo_28460" data-name="Grupo 28460" transform="translate(78.86 67.173)">
          <path id="Trazado_4338" data-name="Trazado 4338" d="M332.823,312.993l-3.884,4.305,34.477,31.277,6.523-7.042-31.678-28.82A3.85,3.85,0,0,0,332.823,312.993Z" transform="translate(-328.939 -311.722)" fill="#5ec4e8"/>
          <path id="Trazado_4339" data-name="Trazado 4339" d="M407.484,387.03l3.872-4.291a3.851,3.851,0,0,0-.28-5.438l-5.281-4.764-6.523,7.042Z" transform="translate(-364.795 -342.726)" fill="#2190c7"/>
        </g>
        <g id="Grupo_28461" data-name="Grupo 28461" transform="translate(0.36 0.36)">
          <path id="Trazado_4340" data-name="Trazado 4340" d="M168.85,216.233a38.815,38.815,0,1,0,36.77-40.758A38.815,38.815,0,0,0,168.85,216.233Zm69.848-3.594a31.125,31.125,0,1,1-32.684-29.485A31.126,31.126,0,0,1,238.7,212.639Z" transform="translate(-168.798 -175.423)" fill="#2190c7"/>
        </g>
        <g id="Grupo_28462" data-name="Grupo 28462" transform="translate(11.88 10.537)">
          <path id="Trazado_4341" data-name="Trazado 4341" d="M195.355,226.188a3.027,3.027,0,0,1-3.017-2.812c-.449-6.278,3.049-13.906,8.913-19.433a27.382,27.382,0,0,1,22.666-7.521,3.027,3.027,0,0,1-.788,6,21.573,21.573,0,0,0-17.725,5.923c-4.451,4.2-7.341,10.2-7.027,14.6a3.027,3.027,0,0,1-2.8,3.236C195.5,226.185,195.428,226.188,195.355,226.188Z" transform="translate(-192.3 -196.183)" fill="#c4ffff"/>
        </g>
        <g id="Grupo_28463" data-name="Grupo 28463" transform="translate(21.173 2.17)">
          <path id="Trazado_4342" data-name="Trazado 4342" d="M256.78,201.2c7.754,23.4-5.125,45.86-24.537,56.344A31.126,31.126,0,0,0,256.78,201.2Z" transform="translate(-221.956 -190.372)" fill="#00a3ff" opacity="0.12"/>
          <path id="Trazado_4343" data-name="Trazado 4343" d="M260.345,214.521a31.149,31.149,0,0,1-38.8,31.762,52.227,52.227,0,0,1-10.287,4.223,38.816,38.816,0,1,0,29.728-71.392,51.456,51.456,0,0,1,5.1,10.825A31.077,31.077,0,0,1,260.345,214.521Z" transform="translate(-211.258 -179.114)" fill="#00628d"/>
        </g>
        <path id="Trazado_4344" data-name="Trazado 4344" d="M179.2,221.188a33.738,33.738,0,1,0,31.959-35.428A33.738,33.738,0,0,0,179.2,221.188Zm64.778-3.333a31.126,31.126,0,1,1-32.684-29.485A31.125,31.125,0,0,1,243.976,217.855Z" transform="translate(-173.717 -180.31)" fill="#5ec4e8"/>
      </g>
    </g>
  </g>
</svg>
