<svg xmlns="http://www.w3.org/2000/svg" width="345.462" height="387.338" viewBox="0 0 345.462 387.338">
  <g id="Grupo_28039" data-name="Grupo 28039" transform="translate(-844.727 -348.526)">
    <g id="Grupo_28021" data-name="Grupo 28021" transform="translate(854.849 385.714)">
      <g id="Grupo_27967" data-name="Grupo 27967" transform="translate(162.67 0)">
        <path id="Trazado_4032" data-name="Trazado 4032" d="M1880.209,893.668c-4.544-10.6-12.726-18.788-14.835-31.083-3.712-21.623,18.285-42.206,17.338-69.55a48.332,48.332,0,0,0-14.837-33.336c8.54,5.9,13.327,12.846,17.343,23.509,6.645,17.644-2.4,36.669-2.494,36.859a.707.707,0,0,0,1.273.618c.094-.2,9.407-19.753,2.544-37.975-5.4-14.334-12.126-22.112-27.019-29.482a53.739,53.739,0,0,0-31.448-7.653c-14.432.806-21.658,7.743-25.173,13.4-.474.763-.877,1.5-1.23,2.2a21.989,21.989,0,0,0-1.909,5.254L1808.792,950s30.355,10.748,40.142,7.792c12.743-1.466,33.744-23.982,34.411-47.735a51.883,51.883,0,0,1-1.906,24.473,1.061,1.061,0,1,0,2.012.671,54.1,54.1,0,0,0-.13-34.078A55.66,55.66,0,0,0,1880.209,893.668Z" transform="translate(-1799.763 -745.482)" fill="#1d3c80"/>
      </g>
      <g id="Grupo_27968" data-name="Grupo 27968" transform="translate(136.958 159.505)">
        <path id="Trazado_4033" data-name="Trazado 4033" d="M1736.752,1445.771h-49.174l-.7,16.943h49.191Z" transform="translate(-1686.877 -1445.771)" fill="#d6dae6"/>
      </g>
      <g id="Grupo_27969" data-name="Grupo 27969" transform="translate(52.915 167.922)">
        <path id="Trazado_4034" data-name="Trazado 4034" d="M1542.714,1621.814l-.091-.225L1497.411,1508.9a21.431,21.431,0,0,0-11.063-11.543,195.717,195.717,0,0,0-19.9-7.789l-11.13-4.633c-.251.409-.507.817-.762,1.225-8.634-2.139-17.612-3.578-25.758-3.425-5.439.1,4.347,9.469,15,19.436-5,6.158-10.686,10.71-15.488,17.434-5.509-7.083-9.57-13.8-14.063-20.27,9.328-6.88,16.951-12.939,12.31-14.5-3.272-1.1-11.963.007-22.169,2.124-.861-.912-1.755-1.822-2.693-2.727l-36.2,13.255a21.412,21.412,0,0,0-13.135,13.916l-33.545,111.1-.1.3a16.2,16.2,0,0,0-.817,5.006,16.494,16.494,0,0,0,16.5,16.32l61.057,6.011c8.879,0,16.317-13.029,16.5-21.906a16.159,16.159,0,0,0-1.732-7.634l44.536-1.005a16.151,16.151,0,0,0-2.285,8.468c.088,8.939,36.614,22.078,45.553,22.078,0,0,33.755-6.4,35.734-7.2A16.228,16.228,0,0,0,1542.714,1621.814Zm-184.067-10.142h-1.235l1.145-3.1Zm139.379-10.864,4.779,10.864h-4.374Z" transform="translate(-1317.895 -1482.723)" fill="#ff6f61"/>
      </g>
      <g id="Grupo_27971" data-name="Grupo 27971" transform="translate(182.531 14.789)">
        <g id="Grupo_27970" data-name="Grupo 27970">
          <path id="Trazado_4035" data-name="Trazado 4035" d="M1907.475,821.826c-1.308,4.168-6.9,6.125-12.489,4.371s-9.059-6.556-7.75-10.724,4.992-6.237,12.488-4.371C1909.1,813.435,1908.783,817.658,1907.475,821.826Z" transform="translate(-1886.96 -810.412)" fill="#ff6f61"/>
        </g>
      </g>
      <g id="Grupo_27976" data-name="Grupo 27976" transform="translate(114.383 39.501)">
        <g id="Grupo_27972" data-name="Grupo 27972" transform="translate(22.332 113.132)">
          <path id="Trazado_4036" data-name="Trazado 4036" d="M1729,1428.757a71.827,71.827,0,0,1-1.827-13.159,34.426,34.426,0,0,1-16.594,5.3,27.338,27.338,0,0,1-13.31-3.1,48.5,48.5,0,0,1-1.521,10.955h0l-9.944,3.642c11.487,11.078,16.709,22.632,26.616,35.37,6.011-8.416,13.4-13.427,19.111-22.444,2.7-4.153,5.394-8.163,7.894-12.227Z" transform="translate(-1685.808 -1415.598)" fill="#ffc3ad"/>
        </g>
        <g id="Grupo_27973" data-name="Grupo 27973">
          <path id="Trazado_4037" data-name="Trazado 4037" d="M1640.763,925.031c28.726-.71,36.156,7.959,38.674,24.339.831,5.391,1.13,11.622,1.48,18.626.018.342.03.682.043,1.022.086-2.312.078-4.682-.043-7.108-.351-7-.65-13.235-1.48-18.626-2.519-16.38-9.948-25.049-38.674-24.339-36.683.906-54.138,6.579-52.945,40.043C1588.937,930.9,1606.426,925.88,1640.763,925.031Z" transform="translate(-1587.761 -918.905)" fill="#ffc3ad"/>
        </g>
        <g id="Grupo_27974" data-name="Grupo 27974" transform="translate(33.572 106.992)">
          <path id="Trazado_4038" data-name="Trazado 4038" d="M1765.372,1388.64a34.46,34.46,0,0,1-16.683,5.357,27.5,27.5,0,0,1-13.536-3.211,49.463,49.463,0,0,1,.226,6.2,27.335,27.335,0,0,0,13.31,3.1,34.422,34.422,0,0,0,16.595-5.3A52.95,52.95,0,0,1,1765.372,1388.64Z" transform="translate(-1735.153 -1388.64)" fill="#f0a68c"/>
        </g>
        <g id="Grupo_27975" data-name="Grupo 27975" transform="translate(0.057 6.086)">
          <path id="Trazado_4039" data-name="Trazado 4039" d="M1681.112,988.63c-.351-7-.65-13.235-1.481-18.626-2.519-16.38-9.948-25.049-38.675-24.339-34.336.848-51.826,5.873-52.945,33.957.049,1.368.125,2.778.237,4.241a143.386,143.386,0,0,0,2.478,17.757.01.01,0,0,1,0,.009c2.97,14.488,7.93,26.817,13.378,33.039a63.091,63.091,0,0,0,14.773,12.571q1.3.768,2.646,1.438a27.5,27.5,0,0,0,13.536,3.211,34.456,34.456,0,0,0,16.683-5.357q1.409-.871,2.739-1.834a68.766,68.766,0,0,0,7.625-6.51c6.185-6,18.123-23.9,19.045-48.536C1681.142,989.312,1681.129,988.972,1681.112,988.63Z" transform="translate(-1588.012 -945.625)" fill="#ffc3ad"/>
        </g>
      </g>
      <g id="Grupo_27978" data-name="Grupo 27978" transform="translate(115.712 32.472)">
        <g id="Grupo_27977" data-name="Grupo 27977">
          <path id="Trazado_4040" data-name="Trazado 4040" d="M1697.407,917.751c-1.152,11.221-7.078,28.213-13.71,41.534l-.085.007c-1.958-22.181-8.835-24.264-13.151-28.823-5.657-5.975-7.439-18.856-7.439-18.856s-6.912,9.658-17.518,12.963c-10.053,3.133-25.394.227-39.12,5.895-9.127,3.769-10.769,28.814-10.769,28.814l-2.015-46.258,71.925-24.982Z" transform="translate(-1593.599 -888.046)" fill="#f0a68c"/>
        </g>
      </g>
      <g id="Grupo_27980" data-name="Grupo 27980" transform="translate(195.924 101.704)">
        <g id="Grupo_27979" data-name="Grupo 27979" transform="translate(0 0)">
          <ellipse id="Elipse_258" data-name="Elipse 258" cx="9.015" cy="5.926" rx="9.015" ry="5.926" transform="matrix(0.339, -0.941, 0.941, 0.339, 0, 16.964)" fill="#ffc3ad"/>
        </g>
      </g>
      <g id="Grupo_27982" data-name="Grupo 27982" transform="translate(110.738 101.704)">
        <g id="Grupo_27981" data-name="Grupo 27981" transform="translate(0 0)">
          <ellipse id="Elipse_259" data-name="Elipse 259" cx="5.926" cy="9.015" rx="5.926" ry="9.015" transform="translate(0 4.017) rotate(-19.812)" fill="#ffc3ad"/>
        </g>
      </g>
      <g id="Grupo_27984" data-name="Grupo 27984" transform="translate(132.684 93.25)">
        <g id="Grupo_27983" data-name="Grupo 27983">
          <ellipse id="Elipse_260" data-name="Elipse 260" cx="4.029" cy="5.849" rx="4.029" ry="5.849" fill="#1e1f35"/>
        </g>
      </g>
      <g id="Grupo_27986" data-name="Grupo 27986" transform="translate(182.991 93.25)">
        <g id="Grupo_27985" data-name="Grupo 27985">
          <ellipse id="Elipse_261" data-name="Elipse 261" cx="4.029" cy="5.849" rx="4.029" ry="5.849" fill="#1e1f35"/>
        </g>
      </g>
      <g id="Grupo_27987" data-name="Grupo 27987" transform="translate(112.39 15.688)">
        <path id="Trazado_4041" data-name="Trazado 4041" d="M1686.171,854.355c-1.251-8.959-6.293-33.551-29.344-33.29a8.229,8.229,0,0,0-1.747.353h-.007c-.042-.035-.4-.318-1.054-.757-3.259-2.164-13.845-8.082-29.351-5.784-19.092,2.828-44.377,11.561-45.579,49.73-.827,26.254,5.261,37.773,5.261,37.773s-3.288-23.278,8.5-30.228c8.618-5.082,20.739-4.716,35.821-7.071,11.815-1.844,19.983-11.024,23.086-15.775V849.3c.481-.728.835-1.322,1.075-1.732.063.41.163.976.3,1.676,1.061,5.657,4.653,17.635,11.9,24.324,9.192,8.485,8.881,18.5,7.4,28.814,6.633-13.322,12.558-30.313,13.711-41.534A27.312,27.312,0,0,0,1686.171,854.355Z" transform="translate(-1579.011 -814.357)" fill="#1d3c80"/>
      </g>
      <g id="Grupo_27989" data-name="Grupo 27989" transform="translate(150.62 122.874)">
        <g id="Grupo_27988" data-name="Grupo 27988">
          <path id="Trazado_4042" data-name="Trazado 4042" d="M1750.6,1286.533l.058.048c.028.013.069.02.113.038l.22.131c.093.052.2.115.309.186s.249.145.382.227.294.163.45.252.333.172.508.262.364.173.556.258c.2.069.39.167.6.241.216.058.411.154.629.215s.428.136.655.182c.113.023.228.042.34.07a2.036,2.036,0,0,0,.34.074l.352.05a2.46,2.46,0,0,0,.352.058c.246.015.485.044.732.066.256,0,.509.011.763.028.263-.009.532-.026.8-.023h.181l-.172.014h.017l.282-.027.564-.05.141-.011a.6.6,0,0,0,.068-.015c.041-.009.082-.018.123-.025.082-.012.165-.02.249-.025.219-.059.453-.083.67-.138s.437-.105.645-.179c.106-.034.215-.058.32-.1s.2-.087.309-.12c.217-.061.407-.178.616-.254a12.278,12.278,0,0,0,1.162-.62c.191-.1.366-.221.537-.335s.334-.228.495-.334c.315-.218.593-.428.829-.6s.433-.32.558-.425.208-.155.208-.155l.24-.163a2.254,2.254,0,0,1,3.508,2.087s-.011.115-.047.325a9.181,9.181,0,0,1-.2.909,10.481,10.481,0,0,1-.493,1.382,10.946,10.946,0,0,1-.942,1.714c-.2.307-.439.606-.688.923s-.552.608-.853.923a11.724,11.724,0,0,1-2.233,1.666,12.453,12.453,0,0,1-2.787,1.173q-.422.1-.851.188l-.431.082-.209.037-.14.017-.563.064-.282.03-.017,0-.189.014h-.333c-.49,0-.979,0-1.468-.016-.5-.055-.99-.113-1.475-.185s-.969-.23-1.44-.349a13.358,13.358,0,0,1-1.367-.5,12.214,12.214,0,0,1-2.38-1.364c-.348-.259-.667-.534-.969-.8s-.562-.558-.811-.831-.46-.558-.658-.826-.364-.538-.516-.791-.279-.5-.391-.728-.2-.446-.283-.643a10.033,10.033,0,0,1-.319-.962c-.045-.136-.071-.247-.089-.313-.005-.049-.008-.074-.008-.074a2.266,2.266,0,0,1,3.708-1.978Z" transform="translate(-1746.858 -1284.945)" fill="#fff"/>
        </g>
      </g>
      <g id="Grupo_27991" data-name="Grupo 27991" transform="translate(127.088 80.678)">
        <g id="Grupo_27990" data-name="Grupo 27990">
          <path id="Trazado_4043" data-name="Trazado 4043" d="M1659.16,1104.629l-.117-.049c-.085-.034-.221-.087-.4-.15-.357-.126-.885-.3-1.533-.471a18.979,18.979,0,0,0-4.83-.651c-.437.006-.875.021-1.3.067a11.256,11.256,0,0,0-1.231.182,10.368,10.368,0,0,0-1.116.286c-.177.048-.339.116-.5.173s-.314.12-.458.185c-.295.118-.546.261-.777.375l-.572.341-.479.33-.093.065a1.412,1.412,0,0,1-1.708-2.246l.586-.49c.193-.147.433-.322.711-.517.287-.18.605-.4.976-.589.183-.1.375-.205.579-.3s.412-.2.633-.286a13.7,13.7,0,0,1,1.407-.5,14.549,14.549,0,0,1,1.539-.375c.528-.106,1.066-.175,1.6-.231a22.721,22.721,0,0,1,5.861.247c.788.132,1.44.283,1.9.4.232.06.416.11.548.15l.215.067a2.124,2.124,0,1,1-1.254,4.058c-.064-.02-.127-.042-.189-.067Z" transform="translate(-1643.543 -1099.687)" fill="#1d3c80"/>
        </g>
      </g>
      <g id="Grupo_27993" data-name="Grupo 27993" transform="translate(177.807 80.678)">
        <g id="Grupo_27992" data-name="Grupo 27992">
          <path id="Trazado_4044" data-name="Trazado 4044" d="M1869.166,1104.629l.117-.049c.085-.034.222-.087.4-.15.358-.126.885-.3,1.533-.471a18.98,18.98,0,0,1,4.83-.651c.437.006.875.021,1.3.067a11.26,11.26,0,0,1,1.231.182,10.361,10.361,0,0,1,1.115.286c.177.048.34.116.5.173s.313.12.458.185c.295.118.546.261.777.375l.572.341.479.33.094.065a1.412,1.412,0,0,0,1.708-2.246l-.587-.49c-.194-.147-.433-.322-.711-.517-.286-.18-.605-.4-.976-.589-.182-.1-.374-.205-.579-.3s-.412-.2-.634-.286a13.669,13.669,0,0,0-1.407-.5,14.5,14.5,0,0,0-1.539-.375c-.527-.106-1.066-.175-1.6-.231a22.724,22.724,0,0,0-5.862.247c-.787.132-1.44.283-1.9.4-.232.06-.415.11-.547.15l-.215.067a2.124,2.124,0,1,0,1.253,4.058c.064-.02.128-.042.189-.067Z" transform="translate(-1866.218 -1099.687)" fill="#1d3c80"/>
        </g>
      </g>
      <g id="Grupo_27995" data-name="Grupo 27995" transform="translate(185.135 21.993)">
        <g id="Grupo_27994" data-name="Grupo 27994">
          <path id="Trazado_4045" data-name="Trazado 4045" d="M1903.459,842.441l-3.7,28.177c-.135-.7-.234-1.266-.3-1.676-.241.41-.594,1-1.074,1.733l2.262-28.638c.657.439,1.011.721,1.053.757h.007C1902.306,842.653,1902.886,842.533,1903.459,842.441Z" transform="translate(-1898.389 -842.038)" fill="#122a61"/>
        </g>
      </g>
      <g id="Grupo_27997" data-name="Grupo 27997" transform="translate(154.274 102.919)">
        <g id="Grupo_27996" data-name="Grupo 27996">
          <path id="Trazado_4046" data-name="Trazado 4046" d="M1767.711,1211.058a5.7,5.7,0,0,1-3.436-.935,3.614,3.614,0,0,1-1.377-3.082,8.946,8.946,0,0,1,1.9-4.7c.144-.223.288-.445.427-.668a20.031,20.031,0,0,0,1.339-3.743.8.8,0,1,1,1.545.411,21.227,21.227,0,0,1-1.528,4.181c-.144.229-.292.458-.44.687a7.682,7.682,0,0,0-1.643,3.845,2.068,2.068,0,0,0,.742,1.794c1.393,1.054,4.45.482,5.511.173a.8.8,0,0,1,.447,1.535A13.567,13.567,0,0,1,1767.711,1211.058Z" transform="translate(-1762.898 -1197.334)" fill="#f0a68c"/>
        </g>
      </g>
      <g id="Grupo_28003" data-name="Grupo 28003" transform="translate(71.64 206.848)">
        <g id="Grupo_27999" data-name="Grupo 27999" transform="translate(0 117.424)">
          <g id="Grupo_27998" data-name="Grupo 27998">
            <path id="Trazado_4047" data-name="Trazado 4047" d="M1585.589,2174.442H1400.105l.1-5.282h185.379Z" transform="translate(-1400.105 -2169.16)" fill="#d8ecf2"/>
          </g>
        </g>
        <g id="Grupo_28000" data-name="Grupo 28000">
          <path id="Rectángulo_4730" data-name="Rectángulo 4730" d="M27.865,0H157.617a27.866,27.866,0,0,1,27.866,27.866v89.558a0,0,0,0,1,0,0H0a0,0,0,0,1,0,0V27.865A27.865,27.865,0,0,1,27.865,0Z" fill="#d8e4e8"/>
        </g>
        <g id="Grupo_28002" data-name="Grupo 28002" transform="translate(81.675 22.243)">
          <g id="Grupo_28001" data-name="Grupo 28001">
            <circle id="Elipse_262" data-name="Elipse 262" cx="13.471" cy="13.471" r="13.471" fill="#abbade"/>
          </g>
        </g>
      </g>
      <g id="Grupo_28006" data-name="Grupo 28006" transform="translate(163.331 159.505)">
        <g id="Grupo_28004" data-name="Grupo 28004" transform="translate(0 15.34)">
          <path id="Trazado_4048" data-name="Trazado 4048" d="M1802.663,1543.078l3.592-19.135a3.425,3.425,0,0,1,1.062-1.9l4.462-4.058,6.589-4.863,8.65,4.838Z" transform="translate(-1802.663 -1513.12)" fill="#d6dae6"/>
        </g>
        <g id="Grupo_28005" data-name="Grupo 28005" transform="translate(9.116)">
          <path id="Trazado_4049" data-name="Trazado 4049" d="M1842.684,1465.973a111.785,111.785,0,0,1,21.51,25.1c.818-4.91,2.535-33.14,2.535-33.14l-9.659-12.158Z" transform="translate(-1842.684 -1445.77)" fill="#fff"/>
        </g>
      </g>
      <g id="Grupo_28009" data-name="Grupo 28009" transform="translate(130.075 159.505)">
        <g id="Grupo_28007" data-name="Grupo 28007" transform="translate(3.602 10.118)">
          <path id="Trazado_4050" data-name="Trazado 4050" d="M1702.031,1525.374l-3.592-19.135a3.426,3.426,0,0,0-1.062-1.9l-4.462-4.058-10.074-10.084-10.37,3.569Z" transform="translate(-1672.471 -1490.194)" fill="#d6dae6"/>
        </g>
        <g id="Grupo_28008" data-name="Grupo 28008">
          <path id="Trazado_4051" data-name="Trazado 4051" d="M1680.7,1465.973s-15.475,13.288-21.51,25.1c-1-10.32-2.536-33.14-2.536-33.14l7.584-12.158Z" transform="translate(-1656.656 -1445.77)" fill="#fff"/>
        </g>
      </g>
      <g id="Grupo_28010" data-name="Grupo 28010" transform="translate(0 329.555)">
        <rect id="Rectángulo_4731" data-name="Rectángulo 4731" width="301.772" height="20.596" rx="10.298" fill="#6e93e6"/>
      </g>
      <g id="Grupo_28012" data-name="Grupo 28012" transform="translate(165.813 121.944)">
        <g id="Grupo_28011" data-name="Grupo 28011">
          <path id="Trazado_4052" data-name="Trazado 4052" d="M1823.6,1305.678a78.97,78.97,0,0,1-8.425-.476,1.8,1.8,0,1,1,.386-3.586c12.223,1.315,21.677-.2,28.1-4.511,4.936-3.31,8.094-8.167,9.656-14.848a1.8,1.8,0,0,1,3.512.821c-1.754,7.506-5.509,13.233-11.159,17.022C1840.132,1303.811,1832.73,1305.678,1823.6,1305.678Z" transform="translate(-1813.56 -1280.863)" fill="#abbade"/>
        </g>
      </g>
      <g id="Grupo_28013" data-name="Grupo 28013" transform="translate(107.924 26.694)">
        <path id="Trazado_4053" data-name="Trazado 4053" d="M1668.88,917.945a67.894,67.894,0,0,0-1.25-11.249,63.747,63.747,0,0,0-3.383-11.251c-.179-.46-.4-.929-.594-1.393l-.3-.7c-.1-.229-.2-.475-.3-.674l-.6-1.257-.3-.628-.073-.143-.043-.083-.087-.165-.174-.33a53.531,53.531,0,0,0-3.049-5.1,50.93,50.93,0,0,0-7.537-8.781,52.472,52.472,0,0,0-4.283-3.533l-1.1-.792-1.114-.743c-.366-.25-.745-.476-1.118-.706s-.739-.465-1.119-.672l-1.121-.634c-.372-.207-.751-.395-1.123-.59-.739-.4-1.5-.731-2.228-1.084-1.483-.66-2.939-1.248-4.362-1.73a52.724,52.724,0,0,0-7.9-2.068,57.6,57.6,0,0,0-6.207-.794c-.434-.03-.833-.071-1.229-.087l-1.109-.045-.951-.034-.73,0-1.319,0h-.019l-1.319,0-.73,0-.951.034-1.108.045c-.4.016-.8.057-1.23.087a57.6,57.6,0,0,0-6.206.794,52.7,52.7,0,0,0-7.9,2.068c-1.423.482-2.879,1.069-4.363,1.73-.732.352-1.488.686-2.228,1.084-.372.2-.75.384-1.123.59l-1.121.634c-.379.207-.744.446-1.119.672s-.751.456-1.118.706l-1.114.743-1.1.792a52.466,52.466,0,0,0-4.282,3.533,50.918,50.918,0,0,0-7.537,8.781,53.405,53.405,0,0,0-3.049,5.1l-.175.33-.087.165-.043.083-.073.143-.3.628-.6,1.257c-.1.2-.2.445-.3.674l-.3.7c-.2.464-.415.933-.594,1.393a63.749,63.749,0,0,0-3.384,11.251,67.88,67.88,0,0,0-1.25,11.249,77.619,77.619,0,0,0,.457,10.482c.365,3.3.911,6.383,1.506,9.193s1.274,5.347,1.911,7.575,1.253,4.145,1.768,5.718.956,2.791,1.251,3.623l.457,1.273,4.813-1.6-.379-1.269c-.247-.827-.594-2.044-1.033-3.588s-.936-3.424-1.453-5.585-1.035-4.607-1.505-7.279-.852-5.578-1.1-8.648a72.5,72.5,0,0,1-.116-9.626,61.075,61.075,0,0,1,1.391-10.091,57.767,57.767,0,0,1,3.222-9.937c.166-.405.352-.776.526-1.166l.264-.578c.09-.194.168-.379.28-.593l.63-1.244.314-.621.279-.506a45.014,45.014,0,0,1,9.238-11.8,45.039,45.039,0,0,1,3.671-2.979,44.33,44.33,0,0,1,3.793-2.466l.954-.539c.317-.176.642-.334.958-.5.629-.34,1.277-.62,1.9-.923,1.271-.557,2.508-1.076,3.73-1.493a51.017,51.017,0,0,1,12.251-2.622c.378-.032.746-.076,1.074-.093l.927-.057.8-.051.73-.021,1.209-.035,1.208.035.73.021.8.051.927.057c.328.017.7.061,1.074.093a51.014,51.014,0,0,1,12.252,2.622c1.222.417,2.459.936,3.73,1.493.624.3,1.272.583,1.9.923.317.167.641.325.958.5l.954.539a44.3,44.3,0,0,1,3.793,2.466,45.071,45.071,0,0,1,3.67,2.979,45.025,45.025,0,0,1,9.239,11.8l.279.506.314.621.63,1.244c.112.214.191.4.28.593l.264.578c.174.39.359.76.526,1.166a57.81,57.81,0,0,1,3.222,9.937,61.19,61.19,0,0,1,1.39,10.091,72.536,72.536,0,0,1-.116,9.626c-.243,3.07-.629,5.975-1.1,8.648s-.985,5.119-1.505,7.279-1.023,4.039-1.453,5.585-.786,2.761-1.033,3.588l-.379,1.269,4.813,1.6.457-1.273c.295-.832.73-2.053,1.251-3.623s1.127-3.491,1.768-5.718,1.317-4.763,1.911-7.575,1.141-5.891,1.507-9.193A77.62,77.62,0,0,0,1668.88,917.945Z" transform="translate(-1559.405 -862.679)" fill="#abbade"/>
      </g>
      <g id="Grupo_28016" data-name="Grupo 28016" transform="translate(196.359 94.995)">
        <g id="Grupo_28014" data-name="Grupo 28014" transform="translate(5.005 2.001)">
          <path id="Trazado_4054" data-name="Trazado 4054" d="M1981.882,1171.332c1.4,3.861.115,11.2-2.437,19.247-2.729,8.6-6.182,15.71-9.8,17.558,7.165,1.674,12.594-3.259,16.376-15.18C1989.7,1181.336,1988.282,1174.239,1981.882,1171.332Z" transform="translate(-1969.64 -1171.332)" fill="#abbade"/>
        </g>
        <g id="Grupo_28015" data-name="Grupo 28015">
          <path id="Trazado_4055" data-name="Trazado 4055" d="M1963.422,1184.042c-2.729,8.6-6.182,15.71-9.8,17.559-.948.485-1.8.114-2.765-.192a3.517,3.517,0,0,1-2.707-2.445c-1.237-3.931.045-11.109,2.537-18.963,2.317-7.3,5.15-13.523,8.172-16.37,1.467-1.387,2.549-1.216,4.07-.734,1.2.381,2.449.549,2.936,1.9C1967.256,1168.656,1965.974,1176,1963.422,1184.042Z" transform="translate(-1947.668 -1162.546)" fill="#83a1e6"/>
        </g>
      </g>
      <g id="Grupo_28019" data-name="Grupo 28019" transform="translate(105.532 94.995)">
        <g id="Grupo_28017" data-name="Grupo 28017" transform="translate(0 2.001)">
          <path id="Trazado_4056" data-name="Trazado 4056" d="M1555.039,1171.332c-1.4,3.861-.115,11.2,2.437,19.247,2.729,8.6,6.181,15.71,9.8,17.558-7.165,1.674-12.594-3.259-16.375-15.18C1547.219,1181.336,1548.639,1174.239,1555.039,1171.332Z" transform="translate(-1548.903 -1171.332)" fill="#abbade"/>
        </g>
        <g id="Grupo_28018" data-name="Grupo 28018" transform="translate(4.617)">
          <path id="Trazado_4057" data-name="Trazado 4057" d="M1572.185,1184.042c2.729,8.6,6.182,15.71,9.8,17.559.948.485,1.8.114,2.766-.192a3.516,3.516,0,0,0,2.707-2.445c1.237-3.931-.045-11.109-2.536-18.963-2.317-7.3-5.15-13.523-8.172-16.37-1.468-1.387-2.549-1.216-4.069-.734-1.2.381-2.449.549-2.937,1.9C1568.351,1168.656,1569.633,1176,1572.185,1184.042Z" transform="translate(-1569.174 -1162.546)" fill="#83a1e6"/>
        </g>
      </g>
      <g id="Grupo_28020" data-name="Grupo 28020" transform="translate(158.32 141.669)">
        <rect id="Rectángulo_4732" data-name="Rectángulo 4732" width="15.479" height="6.235" rx="3.117" fill="#83a1e6"/>
      </g>
    </g>
    <g id="Grupo_28032" data-name="Grupo 28032" transform="translate(1112.049 452.847)">
      <g id="Grupo_28026" data-name="Grupo 28026" transform="translate(0 0)">
        <g id="Grupo_28023" data-name="Grupo 28023" transform="translate(0 4.311)">
          <g id="Grupo_28022" data-name="Grupo 28022">
            <path id="Trazado_4058" data-name="Trazado 4058" d="M2135.521,406.369a39.07,39.07,0,0,1-1.325-78.118.919.919,0,1,1,.061,1.836,37.233,37.233,0,1,0,38.5,37.212.918.918,0,1,1,1.837,0A39.114,39.114,0,0,1,2135.521,406.369Z" transform="translate(-2096.45 -328.251)" fill="#83a1e6"/>
          </g>
        </g>
        <g id="Grupo_28025" data-name="Grupo 28025" transform="translate(30.213)">
          <g id="Grupo_28024" data-name="Grupo 28024">
            <path id="Trazado_4059" data-name="Trazado 4059" d="M2229.173,309.584a.538.538,0,0,0,.185.739l7.055,4.247-6.831,4.6a.538.538,0,1,0,.6.894l7.534-5.07a.538.538,0,0,0-.023-.908l-7.779-4.683a.546.546,0,0,0-.292-.077A.541.541,0,0,0,2229.173,309.584Z" transform="translate(-2229.096 -309.323)" fill="#83a1e6"/>
          </g>
        </g>
      </g>
      <g id="Grupo_28031" data-name="Grupo 28031" transform="translate(12.628 29.61)">
        <g id="Grupo_28027" data-name="Grupo 28027" transform="translate(0 1.49)">
          <path id="Trazado_4060" data-name="Trazado 4060" d="M2151.965,463.25a5.392,5.392,0,0,1-.073-.9c0-6.3,7.693-8.5,7.693-12.162a2.466,2.466,0,0,0-2.711-2.369,4.951,4.951,0,0,0-3.443,1.49l-1.221-1.49a7,7,0,0,1,4.909-1.954c2.882,0,4.788,1.832,4.788,4.176,0,4.714-7.01,6.887-7.547,11.21h7.522v2Z" transform="translate(-2151.892 -445.862)" fill="#83a1e6"/>
        </g>
        <g id="Grupo_28028" data-name="Grupo 28028" transform="translate(14.14 1.612)">
          <path id="Trazado_4061" data-name="Trazado 4061" d="M2223.473,460.026v3.639h-2.2v-3.639h-7.3v-1.759l5.105-11.869,1.9.806-4.616,10.819h4.909v-4.86h2.2v4.86h2.027v2Z" transform="translate(-2213.972 -446.398)" fill="#83a1e6"/>
        </g>
        <g id="Grupo_28029" data-name="Grupo 28029" transform="translate(28.378)">
          <path id="Trazado_4062" data-name="Trazado 4062" d="M2276.482,459.324l6.887-20,1.807.61-6.887,20Z" transform="translate(-2276.482 -439.322)" fill="#83a1e6"/>
        </g>
        <g id="Grupo_28030" data-name="Grupo 28030" transform="translate(40.491 1.783)">
          <path id="Trazado_4063" data-name="Trazado 4063" d="M2332.154,464.244c0-7.473,2.027-11.332,5.739-15.093h-8.23v-2h10.844v1.759c-4.47,4.347-5.885,7.766-5.885,15.337Z" transform="translate(-2329.663 -447.148)" fill="#83a1e6"/>
        </g>
      </g>
    </g>
    <g id="Grupo_28038" data-name="Grupo 28038" transform="translate(844.727 348.526)">
      <g id="Grupo_28033" data-name="Grupo 28033" transform="translate(0 0)">
        <path id="Trazado_4064" data-name="Trazado 4064" d="M1041.746,568.292H944.293a14.528,14.528,0,0,0-14.528,14.528V622.1a14.528,14.528,0,0,0,14.528,14.528h69.995c3.011,5.961,10.923,18.784,23.162,18.483a1.476,1.476,0,0,0,1.106-2.415,21.991,21.991,0,0,1-5.12-16.068h8.31a14.528,14.528,0,0,0,14.528-14.528V582.82A14.528,14.528,0,0,0,1041.746,568.292Z" transform="translate(-929.765 -568.292)" fill="#dfe7f4"/>
      </g>
      <g id="Grupo_28037" data-name="Grupo 28037" transform="translate(33.335 22.214)">
        <g id="Grupo_28034" data-name="Grupo 28034" transform="translate(0 1.199)">
          <circle id="Elipse_263" data-name="Elipse 263" cx="7.148" cy="7.148" r="7.148" transform="translate(0 3.329) rotate(-13.467)" fill="#83a1e6"/>
        </g>
        <g id="Grupo_28035" data-name="Grupo 28035" transform="translate(18.984 0)">
          <circle id="Elipse_264" data-name="Elipse 264" cx="7.148" cy="7.148" r="7.148" transform="matrix(0.856, -0.517, 0.517, 0.856, 0, 7.397)" fill="#1d3c80"/>
        </g>
        <g id="Grupo_28036" data-name="Grupo 28036" transform="translate(40.018 0.851)">
          <circle id="Elipse_265" data-name="Elipse 265" cx="7.148" cy="7.148" r="7.148" transform="matrix(0.3, -0.954, 0.954, 0.3, 0, 13.636)" fill="#83a1e6"/>
        </g>
      </g>
    </g>
  </g>
</svg>
