<svg xmlns="http://www.w3.org/2000/svg" width="50.167" height="22.574" viewBox="0 0 50.167 22.574">
  <g id="transferir" transform="translate(0 -4.004)">
    <g id="Grupo_28284" data-name="Grupo 28284" transform="translate(22.575 4.003)">
      <g id="Grupo_28283" data-name="Grupo 28283" transform="translate(0 0)">
        <path id="Trazado_4264" data-name="Trazado 4264" d="M243.426,15.207a.831.831,0,0,0-.142-.147h0L229.907,4.19a.836.836,0,0,0-1.363.649V9.856H216.838a.836.836,0,0,0-.836.836v9.2a.836.836,0,0,0,.836.836h11.706v5.017a.836.836,0,0,0,1.338.669l13.378-10.033A.836.836,0,0,0,243.426,15.207Zm-13.21,8.863V19.889a.836.836,0,0,0-.836-.836H217.674V11.528H229.38a.836.836,0,0,0,.836-.836v-4.1L241.4,15.683Z" transform="translate(-216.002 -4.003)" fill="#111e61"/>
      </g>
    </g>
    <g id="Grupo_28286" data-name="Grupo 28286" transform="translate(14.214 9.856)">
      <g id="Grupo_28285" data-name="Grupo 28285" transform="translate(0 0)">
        <rect id="Rectángulo_4750" data-name="Rectángulo 4750" width="7" height="2" transform="translate(-0.214 0.148)" fill="#111e61"/>
      </g>
    </g>
    <g id="Grupo_28288" data-name="Grupo 28288" transform="translate(10.87 9.856)">
      <g id="Grupo_28287" data-name="Grupo 28287" transform="translate(0 0)">
        <rect id="Rectángulo_4751" data-name="Rectángulo 4751" width="2" height="2" transform="translate(0.13 0.148)" fill="#111e61"/>
      </g>
    </g>
    <g id="Grupo_28290" data-name="Grupo 28290" transform="translate(3.345 14.872)">
      <g id="Grupo_28289" data-name="Grupo 28289" transform="translate(0 0)">
        <rect id="Rectángulo_4752" data-name="Rectángulo 4752" width="6" height="2" transform="translate(-0.345 0.132)" fill="#111e61"/>
      </g>
    </g>
    <g id="Grupo_28292" data-name="Grupo 28292" transform="translate(17.559 19.053)">
      <g id="Grupo_28291" data-name="Grupo 28291">
        <rect id="Rectángulo_4753" data-name="Rectángulo 4753" width="3" height="2" transform="translate(0.442 -0.049)" fill="#111e61"/>
      </g>
    </g>
    <g id="Grupo_28294" data-name="Grupo 28294" transform="translate(9.198 19.053)">
      <g id="Grupo_28293" data-name="Grupo 28293">
        <rect id="Rectángulo_4754" data-name="Rectángulo 4754" width="5" height="2" transform="translate(-0.198 -0.049)" fill="#111e61"/>
      </g>
    </g>
    <g id="Grupo_28296" data-name="Grupo 28296" transform="translate(5.853 19.053)">
      <g id="Grupo_28295" data-name="Grupo 28295">
        <rect id="Rectángulo_4755" data-name="Rectángulo 4755" width="2" height="2" transform="translate(0.147 -0.049)" fill="#111e61"/>
      </g>
    </g>
    <g id="Grupo_28298" data-name="Grupo 28298" transform="translate(2.509 19.053)">
      <g id="Grupo_28297" data-name="Grupo 28297">
        <rect id="Rectángulo_4756" data-name="Rectángulo 4756" width="1" height="2" transform="translate(0.491 -0.049)" fill="#111e61"/>
      </g>
    </g>
    <g id="Grupo_28300" data-name="Grupo 28300" transform="translate(13.378 14.872)">
      <g id="Grupo_28299" data-name="Grupo 28299" transform="translate(0 0)">
        <rect id="Rectángulo_4757" data-name="Rectángulo 4757" width="2" height="2" transform="translate(-0.378 0.132)" fill="#111e61"/>
      </g>
    </g>
    <g id="Grupo_28302" data-name="Grupo 28302" transform="translate(16.723 14.872)">
      <g id="Grupo_28301" data-name="Grupo 28301" transform="translate(0 0)">
        <rect id="Rectángulo_4758" data-name="Rectángulo 4758" width="4" height="2" transform="translate(0.277 0.132)" fill="#111e61"/>
      </g>
    </g>
    <g id="Grupo_28304" data-name="Grupo 28304" transform="translate(0.001 14.872)">
      <g id="Grupo_28303" data-name="Grupo 28303" transform="translate(0 0)">
        <rect id="Rectángulo_4759" data-name="Rectángulo 4759" width="2" height="2" transform="translate(0 0.132)" fill="#111e61"/>
      </g>
    </g>
    <g id="Grupo_28330" data-name="Grupo 28330" transform="translate(0.837 9.856)">
      <g id="Grupo_28329" data-name="Grupo 28329" transform="translate(0 0)">
        <rect id="Rectángulo_4772" data-name="Rectángulo 4772" width="5" height="2" transform="translate(0.164 0.148)" fill="#111e61"/>
      </g>
    </g>
  </g>
</svg>
