<svg xmlns="http://www.w3.org/2000/svg" width="69" height="68.667" viewBox="0 0 69 68.667">
  <g id="ordenador" transform="translate(-2 -2)">
    <rect id="Rectángulo_4773" data-name="Rectángulo 4773" width="69" height="50" rx="5" transform="translate(2 8)" fill="#868686"/>
    <path id="Trazado_4289" data-name="Trazado 4289" d="M6,11H65.511V47.622H6Z" transform="translate(0.578 1.3)" fill="#bce4f8"/>
    <path id="Trazado_4290" data-name="Trazado 4290" d="M6,11V43.045H56.356a4.578,4.578,0,0,0,4.578-4.578V11Z" transform="translate(0.578 1.3)" fill="#e4f5fd"/>
    <path id="Trazado_4291" data-name="Trazado 4291" d="M12,2H57.778V31.756H12Z" transform="translate(1.444 0)" fill="#f3a845"/>
    <path id="Trazado_4292" data-name="Trazado 4292" d="M12,2,34.889,20.311,57.778,2Z" transform="translate(1.444 0)" fill="#eecc61"/>
    <path id="Trazado_4293" data-name="Trazado 4293" d="M34.889,18.433,30.6,15,12,29.878H57.778L39.181,15Z" transform="translate(1.444 1.878)" fill="#f1d681"/>
    <path id="Trazado_4294" data-name="Trazado 4294" d="M48.144,18.011A1.144,1.144,0,0,1,47,16.867V11.144a1.144,1.144,0,1,1,2.289,0v5.722A1.144,1.144,0,0,1,48.144,18.011Z" transform="translate(6.5 1.156)" fill="#fff"/>
    <path id="Trazado_4295" data-name="Trazado 4295" d="M48.144,21.433A1.144,1.144,0,0,1,47,20.289V19.144a1.144,1.144,0,1,1,2.289,0v1.144A1.144,1.144,0,0,1,48.144,21.433Z" transform="translate(6.5 2.311)" fill="#fff"/>
    <path id="Trazado_4296" data-name="Trazado 4296" d="M17,58H51.333v4.578H17Z" transform="translate(2.167 8.089)" fill="#686868"/>
    <path id="Trazado_4297" data-name="Trazado 4297" d="M41.6,51H25.578L21,59.011H46.178Z" transform="translate(2.745 7.078)" fill="#939393"/>
    <path id="Trazado_4298" data-name="Trazado 4298" d="M55,46h2.289v2.289H55Z" transform="translate(7.656 6.356)" fill="#939393"/>
    <path id="Trazado_4299" data-name="Trazado 4299" d="M51,46h2.289v2.289H51Z" transform="translate(7.078 6.356)" fill="#939393"/>
    <g id="Grupo_28332" data-name="Grupo 28332" transform="translate(30.611 31.755)">
      <path id="Trazado_4300" data-name="Trazado 4300" d="M27,31h2.289V48.167H27Z" transform="translate(-27 -27.566)" fill="#fff"/>
      <path id="Trazado_4301" data-name="Trazado 4301" d="M35,31h2.289V48.167H35Z" transform="translate(-25.844 -27.566)" fill="#fff"/>
      <path id="Trazado_4302" data-name="Trazado 4302" d="M31,28h2.289V39.445H31Z" transform="translate(-26.422 -27.999)" fill="#fff"/>
      <path id="Trazado_4303" data-name="Trazado 4303" d="M31,40h2.289v2.289H31Z" transform="translate(-26.422 -26.265)" fill="#fff"/>
    </g>
    <path id="Trazado_4304" data-name="Trazado 4304" d="M17,58v2.289H45.611A3.422,3.422,0,0,0,48.834,58Z" transform="translate(2.167 8.089)" fill="#868686"/>
  </g>
</svg>
