<svg xmlns="http://www.w3.org/2000/svg" xmlns:xlink="http://www.w3.org/1999/xlink" width="222" height="158" viewBox="0 0 222 158">
  <defs>
    <clipPath id="clip-path">
      <rect id="Rect치ngulo_4949" data-name="Rect치ngulo 4949" width="168" height="120" rx="10" transform="translate(204.932 2101.735)" fill="#fffbdc"/>
    </clipPath>
  </defs>
  <g id="Grupo_55728" data-name="Grupo 55728" transform="translate(-205 -2388)">
    <rect id="Rect치ngulo_4784" data-name="Rect치ngulo 4784" width="222" height="158" rx="10" transform="translate(205 2388)" fill="#fffbdc"/>
    <g id="Enmascarar_grupo_24" data-name="Enmascarar grupo 24" transform="translate(27.068 309.265)" clip-path="url(#clip-path)">
      <g id="Grupo_28495" data-name="Grupo 28495" transform="translate(195.949 2101.735)">
        <g id="Grupo_28494" data-name="Grupo 28494" transform="translate(0 0)">
          <g id="Grupo_28493" data-name="Grupo 28493">
            <g id="Grupo_28474" data-name="Grupo 28474" transform="translate(88.301 2.343)">
              <path id="Trazado_4345" data-name="Trazado 4345" d="M363.734,188.019c-.531,2.72,12.606,25.43,23.208,28.085C390.23,199.665,369.6,187.9,363.734,188.019Z" transform="translate(-316.741 -144.763)" fill="#233942"/>
              <path id="Trazado_4346" data-name="Trazado 4346" d="M350.9,210.41c.837,3.44,14.133,19.991,15.993,20.735s2.511.093,2.975-.372-13.847-22.812-17.2-23.618C350.343,206.6,350.9,210.41,350.9,210.41Z" transform="translate(-308.654 -156.748)" fill="#233942"/>
              <g id="Grupo_28468" data-name="Grupo 28468" transform="translate(0 49.82)">
                <g id="Grupo_28466" data-name="Grupo 28466" transform="translate(27.492)">
                  <path id="Trazado_4347" data-name="Trazado 4347" d="M346.663,225.256c-9.194,6.851-20.248,14.018-25.079,17.1-1.551.989-2.462,1.555-2.462,1.555L316.6,236.38l-5.267-15.71a15.314,15.314,0,0,1,1.882-1.477c5.166-3.786,19.2-13.523,19.2-13.523a65.578,65.578,0,0,1,7.93,7.468c.573.643,1.138,1.313,1.681,2C344.555,218.357,346.615,221.964,346.663,225.256Z" transform="translate(-311.33 -205.67)" fill="#fbc08b"/>
                  <path id="Trazado_4348" data-name="Trazado 4348" d="M355.557,241.165c-9.194,6.851-20.248,14.018-25.079,17.1-1.551.989-2.462,1.555-2.462,1.555l-2.525-7.532,4.047-3.961,21.375-17.28.06-.048C354.214,234.656,355.5,237.17,355.557,241.165Z" transform="translate(-320.223 -221.579)" fill="#f7a079"/>
                </g>
                <g id="Grupo_28467" data-name="Grupo 28467" transform="translate(0 3.939)">
                  <path id="Trazado_4349" data-name="Trazado 4349" d="M274.218,239.072a41.324,41.324,0,0,0-6.431-12.028,11.016,11.016,0,0,0-1-1.2,18.073,18.073,0,0,0-1.57-1.451c-3.217-2.67-8.227-5.91-12.214-7.115-4.188-1.268-8.729-1.763-12.333.993-1.979,1.51-.64,5.929-1.142,8.2l-.026.673L237.413,239.2c2.413,1.765,4.809,3.558,7.067,5.518,2.8,2.431,5.295,5.2,7.936,7.8a70.306,70.306,0,0,1,7.229,8.027c.547.734,1.053,1.507,1.555,2.287l.588-.429A127.1,127.1,0,0,0,274.564,252q.078-.285.145-.569a21.158,21.158,0,0,0,.45-2.418A23.485,23.485,0,0,0,274.218,239.072Z" transform="translate(-237.413 -216.262)" fill="#fbc08b"/>
                  <path id="Trazado_4350" data-name="Trazado 4350" d="M243.4,237.5l-3.868,2.317-.026.673-2.089,12.046c2.413,1.765,4.809,3.558,7.067,5.518,2.8,2.431,5.295,5.2,7.936,7.8a70.307,70.307,0,0,1,7.229,8.027c.546.733,1.052,1.507,1.554,2.286,5.659-4.12,11.489-8.833,13.365-10.827q.078-.285.145-.569C272.593,241.033,243.218,237.5,243.4,237.5Z" transform="translate(-237.413 -229.601)" fill="#f7a079"/>
                </g>
              </g>
              <g id="Grupo_28469" data-name="Grupo 28469" transform="translate(42.042 43.971)">
                <path id="Trazado_4351" data-name="Trazado 4351" d="M379.758,213.953c-.457,1.049-3.314,3.016-6.49,5-1.331.829-2.723,1.666-4.017,2.436a13.566,13.566,0,0,1-2.6-1.023,3.059,3.059,0,0,0,1.86-.093c-1.581-6.6-15.9-22.361-16.365-22.409-1.536-.167-1.514,1.376-1.5,1.707a9.5,9.5,0,0,1-.178-2.172c.045-.364,1.8-2.1,3.768-3.8,2.038-1.763,4.307-3.492,5.159-3.634,1.674-.279,5.743,2.176,9.577,6.509C373.249,201.308,378.828,209.118,379.758,213.953Z" transform="translate(-350.449 -189.942)" fill="#fff"/>
                <path id="Trazado_4352" data-name="Trazado 4352" d="M386.152,213.953c-.457,1.049-3.314,3.016-6.49,5-5.029-11.571-14.081-20.85-19.032-25.358,2.038-1.763,4.307-3.492,5.159-3.634,1.674-.279,5.743,2.176,9.577,6.509C379.643,201.308,385.222,209.118,386.152,213.953Z" transform="translate(-356.844 -189.942)" fill="#eee1d7"/>
              </g>
              <g id="Grupo_28472" data-name="Grupo 28472" transform="translate(30.468 57.504)">
                <g id="Grupo_28470" data-name="Grupo 28470" transform="translate(2.604)">
                  <path id="Trazado_4353" data-name="Trazado 4353" d="M347.779,248.646l-1.395.889-1.332.848L326.33,227.446l.948-.777.417-.338Z" transform="translate(-326.33 -226.33)" fill="#ee7e22"/>
                  <path id="Trazado_4354" data-name="Trazado 4354" d="M346.385,250.106l-1.332.848L326.33,228.017l.948-.777Z" transform="translate(-326.33 -226.902)" fill="#b54f26"/>
                </g>
                <g id="Grupo_28471" data-name="Grupo 28471" transform="translate(0 2.109)">
                  <path id="Trazado_4355" data-name="Trazado 4355" d="M339.042,255.8l-1.015.9-1.216,1.079L319.33,233.365l.655-.554.96-.811Z" transform="translate(-319.33 -232)" fill="#ee7e22"/>
                  <path id="Trazado_4356" data-name="Trazado 4356" d="M338.027,258.076l-1.216,1.079L319.33,234.734l.655-.554Z" transform="translate(-319.33 -233.369)" fill="#b54f26"/>
                </g>
              </g>
              <g id="Grupo_28473" data-name="Grupo 28473" transform="translate(46.992)">
                <path id="Trazado_4357" data-name="Trazado 4357" d="M414.432,71.72V126.4c-5.891,3.626-15.469,9.484-27.463,16.659a58.656,58.656,0,0,0-4.311-9.205,52.678,52.678,0,0,0-11.415-13.787,36.219,36.219,0,0,0-7.483-5.092Z" transform="translate(-363.76 -71.72)" fill="#524460"/>
                <path id="Trazado_4358" data-name="Trazado 4358" d="M414.432,71.72V86.047c-13.5,10.719-35.795,28.386-43.189,34.021a36.219,36.219,0,0,0-7.483-5.092Z" transform="translate(-363.76 -71.72)" fill="#6d627b"/>
                <path id="Trazado_4359" data-name="Trazado 4359" d="M446.344,173.69v16.755c-5.891,3.626-15.469,9.484-27.463,16.659a58.66,58.66,0,0,0-4.311-9.205Z" transform="translate(-395.672 -135.764)" fill="#41344f"/>
              </g>
            </g>
            <path id="Trazado_4360" data-name="Trazado 4360" d="M91.588,223.216s6.943-8.306,21.2-39.549c-19.893.822-27.158,30.094-21.2,39.549" transform="translate(-56.255 -139.687)" fill="#233942"/>
            <g id="Grupo_28484" data-name="Grupo 28484">
              <g id="Grupo_28475" data-name="Grupo 28475" transform="translate(36.799 48.102)">
                <path id="Trazado_4361" data-name="Trazado 4361" d="M187.854,239.631s-.48.729-1.146,1.543a11.717,11.717,0,0,1-1.35,1.428,2.136,2.136,0,0,1-1.577.71,6.412,6.412,0,0,1-1.521-.8c-.324-.208-.565-.383-.6-.405a.019.019,0,0,1,.007.015,8.537,8.537,0,0,1,.889,2.47,5.068,5.068,0,0,1-.524.978,13.162,13.162,0,0,1-.952,1.257,5.4,5.4,0,0,1-1.856,1.622c-1.112-.056-7.595-3.031-8.2-3.306a.014.014,0,0,1-.011,0c.361.283,4.14,3.206,4.53,4.6a5.113,5.113,0,0,1-1.365,3.385,5.047,5.047,0,0,1-2.083,1.581c-1.6.115-6.907-2.406-7.122-2.5l.063.056c.461.405,2.979,2.656,3.087,3.559a6.686,6.686,0,0,1-1.231,1.808,4.194,4.194,0,0,1-2.392,1.462c-.878,0-23.015-5.322-33.924-15.736a35.554,35.554,0,0,1-7.811-10.169l-1.9-.792-6.271-2.607L98.94,223.27s1.008-3.578,2.778-8.272c2.644-6.992,6.985-16.465,12.214-20.248l12.776,9.224,6.479,4.675,5.821,4.2.015,0a35.42,35.42,0,0,1,23.54.249,48.873,48.873,0,0,1,22.316,18.1A22.574,22.574,0,0,1,187.854,239.631Z" transform="translate(-98.94 -194.75)" fill="#fbc08b"/>
                <path id="Trazado_4362" data-name="Trazado 4362" d="M298.206,303.057a5.062,5.062,0,0,1-.524.978c-2.57-4.348-14.6-16.205-14.6-16.205,3.054.729,11.452,8.573,11.593,8.759.536.7,1.96,2.637,3.24,4.389-.324-.208-.565-.383-.6-.405a.019.019,0,0,1,.007.015A8.538,8.538,0,0,1,298.206,303.057Z" transform="translate(-214.593 -253.211)" fill="#f8cdaa"/>
                <path id="Trazado_4363" data-name="Trazado 4363" d="M255.541,266.969s-.48.729-1.146,1.544a48.216,48.216,0,0,0-17.637-21.505c-14.055-9.674-29.483-6.925-30.048-6.821a35.42,35.42,0,0,1,23.54.249,48.873,48.873,0,0,1,22.316,18.1A22.574,22.574,0,0,1,255.541,266.969Z" transform="translate(-166.627 -222.088)" fill="#f8cdaa"/>
                <path id="Trazado_4364" data-name="Trazado 4364" d="M156.262,228.335a9.738,9.738,0,0,1-.621,9.73,8.713,8.713,0,0,1-6.074,3.474l-2.109,5.579s-.048.342-.167.848l-6.271-2.607c2.127-8.476,9.607-21.561,12.118-25.808l6.479,4.675A28.312,28.312,0,0,1,156.262,228.335Z" transform="translate(-125.369 -210.326)" fill="#f7a079"/>
                <path id="Trazado_4365" data-name="Trazado 4365" d="M166.892,291.817a4.194,4.194,0,0,1-2.392,1.462c-.878,0-23.015-5.322-33.924-15.736a35.553,35.553,0,0,1-7.811-10.169L98.94,257.462s1.008-3.578,2.778-8.272c6.022,4,16.767,10.8,24.116,13.319C128.52,266.358,140.935,285.189,166.892,291.817Z" transform="translate(-98.94 -228.942)" fill="#f7a079"/>
                <path id="Trazado_4366" data-name="Trazado 4366" d="M182.75,302.1s2.7-4.37,5.579-3.905,2.789,5.951,1.767,9.205c1.86-4,3.719-4,4.556-3.812s3.347,2.046,2.139,9.205c2.046-5.579,4.184-5.765,5.393-5.672s3.254,1.953,2.046,10.042c2.232-5.951,2.882-6.323,5.021-6.416s3.719,4.928,2.139,9.67C204.043,320.693,186.841,313.534,182.75,302.1Z" transform="translate(-151.578 -259.697)" fill="#f7a079"/>
                <path id="Trazado_4367" data-name="Trazado 4367" d="M301.044,301.1a2.136,2.136,0,0,1-1.577.71,9.94,9.94,0,0,1-2.124-1.2,0,0,0,0,1,0,0,62.39,62.39,0,0,0-14.256-12.768,30.009,30.009,0,0,1,9.577,4.37A38.669,38.669,0,0,1,301.044,301.1Z" transform="translate(-214.594 -253.212)" fill="#f7a079"/>
                <path id="Trazado_4368" data-name="Trazado 4368" d="M285.06,312.862a5.4,5.4,0,0,1-1.856,1.622c-1.112-.056-7.595-3.031-8.2-3.306-.007,0-.015-.007-.022-.011-8-5.073-10.113-9.6-10.485-11.333a76.8,76.8,0,0,0,17.358,11.779A22.531,22.531,0,0,0,285.06,312.862Z" transform="translate(-202.923 -260.749)" fill="#f7a079"/>
                <path id="Trazado_4369" data-name="Trazado 4369" d="M270.721,337.161a5.047,5.047,0,0,1-2.083,1.581c-1.6.115-6.907-2.406-7.122-2.5,0,0-6.416-3.362-8.763-7.736C256.926,331.147,265.867,336,270.721,337.161Z" transform="translate(-195.545 -278.756)" fill="#f7a079"/>
                <path id="Trazado_4370" data-name="Trazado 4370" d="M254.631,347.582c-.543.441-1.085.891-1.591,1.374a11.747,11.747,0,0,0-1.517,1.427c-.608.831.784,1.918,1.438,1.109a11.775,11.775,0,0,0,.991-1.833c.337-.614.632-1.254.919-1.892A.153.153,0,0,0,254.631,347.582Z" transform="translate(-194.678 -290.713)" fill="#f7a079"/>
                <path id="Trazado_4371" data-name="Trazado 4371" d="M270.941,356.668a10.139,10.139,0,0,0-1.576,1.131,14.421,14.421,0,0,0-1.531,1.267c-.613.634.3,1.511.956.955a14.115,14.115,0,0,0,1.381-1.465,10.059,10.059,0,0,0,1.194-1.464A.312.312,0,0,0,270.941,356.668Z" transform="translate(-204.89 -296.424)" fill="#f7a079"/>
                <path id="Trazado_4372" data-name="Trazado 4372" d="M287.362,335.794a8.944,8.944,0,0,0-1.706,1.706,14.093,14.093,0,0,0-1.487,2.091c-.491.838.754,1.883,1.39,1.072a14.121,14.121,0,0,0,1.427-2.138,9.264,9.264,0,0,0,1-2.254C288.053,335.934,287.69,335.579,287.362,335.794Z" transform="translate(-215.206 -283.294)" fill="#f7a079"/>
                <path id="Trazado_4373" data-name="Trazado 4373" d="M312.013,284.482a11.157,11.157,0,0,1-1.94,1.361,4.11,4.11,0,0,0-1.416,1.735.517.517,0,0,0,.576.749,3.1,3.1,0,0,0,1.968-1.355,24.981,24.981,0,0,0,1.017-2.331C312.284,284.514,312.117,284.367,312.013,284.482Z" transform="translate(-230.624 -251.082)" fill="#f7a079"/>
                <path id="Trazado_4374" data-name="Trazado 4374" d="M309.9,322.558a3.549,3.549,0,0,0-1.263.809,1.931,1.931,0,0,0-.4.594,4.1,4.1,0,0,0-.183.672.137.137,0,0,0,.166.166,3.986,3.986,0,0,0,.619-.153,2.059,2.059,0,0,0,.658-.421,3.544,3.544,0,0,0,.822-1.25A.308.308,0,0,0,309.9,322.558Z" transform="translate(-230.277 -275.001)" fill="#f7a079"/>
                <path id="Trazado_4375" data-name="Trazado 4375" d="M329.155,308.433a3.55,3.55,0,0,0-1.263.809,1.931,1.931,0,0,0-.4.594,4.1,4.1,0,0,0-.183.672.137.137,0,0,0,.166.166,3.983,3.983,0,0,0,.619-.153,2.06,2.06,0,0,0,.658-.421,3.544,3.544,0,0,0,.822-1.25A.308.308,0,0,0,329.155,308.433Z" transform="translate(-242.367 -266.13)" fill="#f7a079"/>
                <path id="Trazado_4376" data-name="Trazado 4376" d="M269.629,324.529c-.667.03-1.076.609-1.408,1.131a6,6,0,0,0-.705,2.09c-.017.084.095.174.16.093.431-.534.928-.978,1.349-1.52.364-.469.847-.958.809-1.59A.207.207,0,0,0,269.629,324.529Z" transform="translate(-204.816 -276.26)" fill="#f7a079"/>
                <path id="Trazado_4377" data-name="Trazado 4377" d="M287.8,307.29a2.874,2.874,0,0,0-.554,1.848.431.431,0,0,0,.09.283c.138.143.378.058.545-.048a3.65,3.65,0,0,0,1.652-2.281C289.731,305.754,288.178,306.784,287.8,307.29Z" transform="translate(-217.209 -264.894)" fill="#f7a079"/>
              </g>
              <g id="Grupo_28476" data-name="Grupo 28476" transform="translate(35.612 45.684)">
                <path id="Trazado_4378" data-name="Trazado 4378" d="M119.554,194.2a90.388,90.388,0,0,0-8.74,11.9c-3.347,5.765-4.835,11.716-5.951,17.2a20.707,20.707,0,0,1-5.241-1.8c-2.061-.911-3.872-1.83-3.872-1.83.93-11.995,13.483-30.963,15.528-31.428a27.819,27.819,0,0,1,4.616,3.117C117.8,192.806,119.554,194.2,119.554,194.2Z" transform="translate(-95.75 -188.25)" fill="#fff"/>
                <path id="Trazado_4379" data-name="Trazado 4379" d="M115.894,191.367c-2.987,3.37-8.435,9.931-11.31,15.945a66.73,66.73,0,0,0-4.962,14.2c-2.061-.911-3.872-1.83-3.872-1.83.93-11.995,13.483-30.963,15.528-31.428A27.819,27.819,0,0,1,115.894,191.367Z" transform="translate(-95.75 -188.25)" fill="#eee1d7"/>
              </g>
              <g id="Grupo_28477" data-name="Grupo 28477">
                <path id="Trazado_4380" data-name="Trazado 4380" d="M56.534,109.4a23.292,23.292,0,0,0-4.485,2.823,40.48,40.48,0,0,0-12.426,16.7,59.461,59.461,0,0,0-4.288,20.025C23.406,142.652,9.317,138.3,0,132.416v-67C10.868,73.677,52.755,106.072,56.534,109.4Z" transform="translate(0 -65.42)" fill="#31474d"/>
                <path id="Trazado_4381" data-name="Trazado 4381" d="M39.622,199.776A59.461,59.461,0,0,0,35.333,219.8C23.406,213.5,9.317,209.152,0,203.268V178.23C12.363,184.91,28.207,193.546,39.622,199.776Z" transform="translate(0 -136.272)" fill="#233942"/>
                <path id="Trazado_4382" data-name="Trazado 4382" d="M56.534,109.4a23.292,23.292,0,0,0-4.485,2.823L0,78.1V65.42C10.868,73.677,52.755,106.072,56.534,109.4Z" transform="translate(0 -65.42)" fill="#506a84"/>
              </g>
              <g id="Grupo_28483" data-name="Grupo 28483" transform="translate(49.068 55.198)">
                <g id="Grupo_28478" data-name="Grupo 28478" transform="translate(8.768)">
                  <path id="Trazado_4383" data-name="Trazado 4383" d="M167.279,218.606l-2.563,3.7-1.778,2.563-7.439-4.214a26.363,26.363,0,0,1,1.793-3.217,22.391,22.391,0,0,1,2.67-3.6C162.257,215.009,167.279,218.606,167.279,218.606Z" transform="translate(-155.5 -213.83)" fill="#31474d"/>
                  <path id="Trazado_4384" data-name="Trazado 4384" d="M164.716,228.389l-1.778,2.563-7.439-4.214a26.364,26.364,0,0,1,1.793-3.217A11.8,11.8,0,0,1,164.716,228.389Z" transform="translate(-155.5 -219.916)" fill="#233942"/>
                </g>
                <g id="Grupo_28479" data-name="Grupo 28479" transform="translate(0 18.742)">
                  <path id="Trazado_4385" data-name="Trazado 4385" d="M142.379,267.805l-1.038,3.667-1.2,4.229a76.34,76.34,0,0,1-8.212-3.355,20.313,20.313,0,0,1,1.179-4.619c.6-1.841,1.213-3.507,1.213-3.507Z" transform="translate(-131.927 -264.22)" fill="#31474d"/>
                  <path id="Trazado_4386" data-name="Trazado 4386" d="M136.322,264.22l8.056,3.585-1.038,3.667a10.7,10.7,0,0,1-5.36-1.506,16.052,16.052,0,0,1-2.871-2.239C135.713,265.886,136.322,264.22,136.322,264.22Z" transform="translate(-133.926 -264.22)" fill="#233942"/>
                </g>
                <g id="Grupo_28482" data-name="Grupo 28482" transform="translate(0.057 5.666)">
                  <g id="Grupo_28480" data-name="Grupo 28480">
                    <path id="Trazado_4387" data-name="Trazado 4387" d="M145.409,230.4a8.7,8.7,0,0,0-12.274,3.13c-1.631,2.841-2.263,10.507,4.928,12.863,7.42,2.431,11.53-3.472,11.9-7.873C150.284,234.752,148.1,232.055,145.409,230.4Z" transform="translate(-132.081 -229.064)" fill="#31474d"/>
                    <path id="Trazado_4388" data-name="Trazado 4388" d="M148.808,237.583a5.949,5.949,0,0,0-8.4,2.142c-1.116,1.943-1.548,7.187,3.371,8.8,5.076,1.663,7.887-2.375,8.142-5.386A5.867,5.867,0,0,0,148.808,237.583Z" transform="translate(-136.86 -233.839)" fill="#fff"/>
                    <path id="Trazado_4389" data-name="Trazado 4389" d="M142.29,245.181s1.736-3.719,5.7-3.285,4.4,3.471,4.4,3.471a5.871,5.871,0,0,0-1.674-5.455,4.941,4.941,0,0,0-7.191.5C141.98,242.205,142.29,245.181,142.29,245.181Z" transform="translate(-138.477 -235.039)" fill="#eee1d7"/>
                  </g>
                  <g id="Grupo_28481" data-name="Grupo 28481" transform="translate(6.572 7.753)">
                    <path id="Trazado_4390" data-name="Trazado 4390" d="M152.4,249.944c-.719-.467-2.557,4.091-2.65,5.811C150.122,255.523,153.33,250.548,152.4,249.944Z" transform="translate(-149.75 -249.91)" fill="#36465a"/>
                    <path id="Trazado_4391" data-name="Trazado 4391" d="M156.408,249.945c-.8-.428.244,3.441,1.75,5.021C157.856,252.407,157.292,250.417,156.408,249.945Z" transform="translate(-153.758 -249.911)" fill="#36465a"/>
                  </g>
                </g>
              </g>
            </g>
            <g id="Grupo_28489" data-name="Grupo 28489" transform="translate(66.63 88.418)">
              <g id="Grupo_28485" data-name="Grupo 28485">
                <path id="Trazado_4392" data-name="Trazado 4392" d="M184.488,305.221c-1.73-.048-3.2,1.607-4.414,4.61s-1.472,6.69.65,7.8,3.662.139,4.819-2.252S188.531,305.334,184.488,305.221Z" transform="translate(-179.146 -304.449)" fill="#fbc08b"/>
                <path id="Trazado_4393" data-name="Trazado 4393" d="M185.522,308.128a8.918,8.918,0,0,0-1.754,5.3,1.941,1.941,0,0,0,1.39,1.457,3.453,3.453,0,0,0,2.874-.129c.677-.544,1.933-3.722,1.224-5.221C187.324,308.722,185.522,308.128,185.522,308.128Z" transform="translate(-182.041 -306.275)" fill="#f7a079"/>
                <path id="Trazado_4394" data-name="Trazado 4394" d="M188.973,303.2c-1.174-.263-2.317.461-3.431,3.3s-.519,4.058.921,4.5,2.673.089,3.311-2.018C190.531,306.479,190.695,303.58,188.973,303.2Z" transform="translate(-182.8 -303.145)" fill="#f8cdaa"/>
                <path id="Trazado_4395" data-name="Trazado 4395" d="M185.907,319.009s.054.515,1.033.769c.778.2,1.518.551,1.991.174s.087-1.26-.658-1.8S185.769,318.1,185.907,319.009Z" transform="translate(-183.387 -312.43)" fill="#f7e2d2"/>
              </g>
              <g id="Grupo_28486" data-name="Grupo 28486" transform="translate(7.617 5.562)">
                <path id="Trazado_4396" data-name="Trazado 4396" d="M204.118,320c-1.652.026-2.943,1.562-3.889,4.29s-.941,6.029,1.159,6.94,3.5-.022,4.438-2.2S207.98,319.939,204.118,320Z" transform="translate(-199.624 -319.292)" fill="#fbc08b"/>
                <path id="Trazado_4397" data-name="Trazado 4397" d="M204.843,322.792a7.432,7.432,0,0,0-1.305,4.8,1.878,1.878,0,0,0,1.425,1.245,3.479,3.479,0,0,0,2.73-.229c.608-.512,1.585-3.4.806-4.708C206.6,323.25,204.843,322.792,204.843,322.792Z" transform="translate(-202.049 -321.047)" fill="#f7a079"/>
                <path id="Trazado_4398" data-name="Trazado 4398" d="M207.907,318.128c-1.137-.188-2.177.5-3.042,3.083s-.215,3.643,1.188,3.976,2.554-.028,3.017-1.933C209.618,321,209.575,318.4,207.907,318.128Z" transform="translate(-202.67 -318.099)" fill="#f8cdaa"/>
                <path id="Trazado_4399" data-name="Trazado 4399" d="M205.525,332.5s.087.457,1.037.646c.756.15,1.485.431,1.91.076s0-1.128-.751-1.579S205.331,331.691,205.525,332.5Z" transform="translate(-203.32 -326.498)" fill="#f7e2d2"/>
              </g>
              <g id="Grupo_28487" data-name="Grupo 28487" transform="translate(15.329 8.89)">
                <path id="Trazado_4400" data-name="Trazado 4400" d="M224.77,328.951c-1.6.035-2.868,1.577-3.8,4.307s-.948,6.028,1.086,6.926,3.4-.042,4.323-2.224S228.521,328.869,224.77,328.951Z" transform="translate(-220.36 -328.242)" fill="#fbc08b"/>
                <path id="Trazado_4401" data-name="Trazado 4401" d="M225.492,331.767a7.64,7.64,0,0,0-1.3,4.8,1.814,1.814,0,0,0,1.377,1.235,3.3,3.3,0,0,0,2.653-.244c.594-.515,1.559-3.4.81-4.708C227.2,332.215,225.492,331.767,225.492,331.767Z" transform="translate(-222.74 -330.012)" fill="#f7a079"/>
                <path id="Trazado_4402" data-name="Trazado 4402" d="M228.485,327.074c-1.1-.181-2.117.516-2.972,3.1s-.229,3.64,1.132,3.964,2.481-.042,2.941-1.947C230.131,329.93,230.1,327.34,228.485,327.074Z" transform="translate(-223.351 -327.047)" fill="#f8cdaa"/>
                <path id="Trazado_4403" data-name="Trazado 4403" d="M226.13,341.458s.081.456,1,.639c.733.145,1.44.423,1.855.065s0-1.127-.721-1.573S225.946,340.652,226.13,341.458Z" transform="translate(-223.975 -335.449)" fill="#f7e2d2"/>
              </g>
              <g id="Grupo_28488" data-name="Grupo 28488" transform="translate(23.193 12.088)">
                <path id="Trazado_4404" data-name="Trazado 4404" d="M245.582,337.56c-1.473.061-2.657,1.619-3.559,4.356s-.7,5.266,1.153,6.128,2.85.661,3.733-1.529S249.026,337.417,245.582,337.56Z" transform="translate(-241.503 -336.847)" fill="#fbc08b"/>
                <path id="Trazado_4405" data-name="Trazado 4405" d="M246.14,340.443a8.3,8.3,0,0,0-1.267,4.809,1.647,1.647,0,0,0,1.243,1.209,2.849,2.849,0,0,0,2.439-.287c.553-.523,1.486-3.418.82-4.706C247.7,340.861,246.14,340.443,246.14,340.443Z" transform="translate(-243.599 -338.659)" fill="#f7a079"/>
                <path id="Trazado_4406" data-name="Trazado 4406" d="M248.935,335.669c-1.01-.163-1.951.549-2.778,3.135s-.27,3.632.974,3.933,2.277-.082,2.731-1.989C250.4,338.489,250.415,335.907,248.935,335.669Z" transform="translate(-244.18 -335.647)" fill="#f8cdaa"/>
                <path id="Trazado_4407" data-name="Trazado 4407" d="M246.656,350.089s.068.453.911.62c.67.133,1.314.4,1.7.035s.02-1.124-.636-1.556S246.5,349.288,246.656,350.089Z" transform="translate(-244.732 -344.055)" fill="#f7e2d2"/>
              </g>
            </g>
            <g id="Grupo_28492" data-name="Grupo 28492" transform="translate(78.973 56.77)">
              <g id="Grupo_28490" data-name="Grupo 28490">
                <path id="Trazado_4408" data-name="Trazado 4408" d="M212.333,240.421s.155,6.509,11.287,1.808c10.625-4.486,6.709-13.888,6.709-13.888l-3.649-1.883Z" transform="translate(-212.333 -223.333)" fill="#f7a079"/>
                <path id="Trazado_4409" data-name="Trazado 4409" d="M226.559,230.17c-3.039,3.225-4.494,5.346-9.329,6.555-4.242,1.06-4.9-1.581-4.9-1.581a27.188,27.188,0,0,1,4.813-5.371c4.734-9.2,7.088-10.343,9.2-11.459s3.285,1.644,3.657,3.377S228.977,226.949,226.559,230.17Z" transform="translate(-212.333 -218.056)" fill="#fbc08b"/>
              </g>
              <g id="Grupo_28491" data-name="Grupo 28491" transform="translate(0.464 11.665)">
                <path id="Trazado_4410" data-name="Trazado 4410" d="M220.49,251.558a10.138,10.138,0,0,1-4.586,3.47s-1.146-.309-2.325-.744a18.3,18.3,0,0,1,3.284-3.831c.1-.089.193-.182.294-.275.242-.227.5-.461.77-.707C217.928,249.471,219.434,248.895,220.49,251.558Z" transform="translate(-213.58 -249.418)" fill="#f8cdaa"/>
                <path id="Trazado_4411" data-name="Trazado 4411" d="M226.036,251.558a11.587,11.587,0,0,1-3.626-1.1c.1-.089.193-.182.294-.275.242-.227.5-.461.77-.707C223.474,249.471,224.98,248.895,226.036,251.558Z" transform="translate(-219.126 -249.418)" fill="#f7e2d2"/>
              </g>
            </g>
          </g>
        </g>
      </g>
    </g>
  </g>
</svg>
