<svg xmlns="http://www.w3.org/2000/svg" xmlns:xlink="http://www.w3.org/1999/xlink" width="396" height="347.492" viewBox="0 0 396 347.492">
  <defs>
    <linearGradient id="linear-gradient" x1="0.197" y1="0.344" x2="1.084" y2="0.692" gradientUnits="objectBoundingBox">
      <stop offset="0" stop-color="#f7c292"/>
      <stop offset="1" stop-color="#f79b6f"/>
    </linearGradient>
    <linearGradient id="linear-gradient-2" x1="0.536" y1="-0.253" x2="0.479" y2="0.729" xlink:href="#linear-gradient"/>
    <linearGradient id="linear-gradient-3" x1="0.704" y1="0.829" x2="0.509" y2="0.136" xlink:href="#linear-gradient"/>
    <linearGradient id="linear-gradient-4" x1="0.542" y1="0.836" x2="0.45" y2="0.141" xlink:href="#linear-gradient"/>
    <linearGradient id="linear-gradient-5" x1="0.876" y1="0.226" x2="0.54" y2="0.574" gradientUnits="objectBoundingBox">
      <stop offset="0" stop-color="#cc7024"/>
      <stop offset="1" stop-color="#cc703e"/>
    </linearGradient>
    <linearGradient id="linear-gradient-6" x1="0.456" y1="0.179" x2="0.543" y2="1.055" gradientUnits="objectBoundingBox">
      <stop offset="0" stop-color="#cecece"/>
      <stop offset="1" stop-color="#b7bebf"/>
    </linearGradient>
    <linearGradient id="linear-gradient-7" x1="0.503" y1="0.823" x2="0.634" y2="8.543" gradientUnits="objectBoundingBox">
      <stop offset="0" stop-color="#f24b15"/>
      <stop offset="1" stop-color="#ff3820"/>
    </linearGradient>
    <linearGradient id="linear-gradient-8" x1="0.483" y1="-0.736" x2="0.59" y2="7.322" xlink:href="#linear-gradient-7"/>
    <linearGradient id="linear-gradient-9" x1="0.463" y1="-1.816" x2="0.56" y2="4.456" xlink:href="#linear-gradient-7"/>
    <linearGradient id="linear-gradient-10" x1="0.447" y1="-2.821" x2="0.539" y2="2.639" xlink:href="#linear-gradient-7"/>
    <linearGradient id="linear-gradient-11" x1="0.365" y1="-6.807" x2="0.525" y2="1.359" xlink:href="#linear-gradient-7"/>
    <linearGradient id="linear-gradient-12" x1="0.199" y1="0.042" x2="0.772" y2="0.852" xlink:href="#linear-gradient"/>
    <linearGradient id="linear-gradient-13" x1="0.548" y1="1.646" x2="0.501" y2="0.054" xlink:href="#linear-gradient"/>
    <linearGradient id="linear-gradient-14" x1="0" y1="0.5" x2="1" y2="0.5" xlink:href="#linear-gradient"/>
    <radialGradient id="radial-gradient" cx="0.504" cy="0.726" r="0.639" gradientTransform="translate(-0.154) scale(1.308 1)" xlink:href="#linear-gradient"/>
    <linearGradient id="linear-gradient-18" x1="11.306" y1="-3.431" x2="11.986" y2="-1.961" gradientUnits="objectBoundingBox">
      <stop offset="0" stop-color="#f7b393"/>
      <stop offset="0.327" stop-color="#f79877"/>
      <stop offset="0.995" stop-color="#f86544"/>
    </linearGradient>
  </defs>
  <g id="Grupo_55646" data-name="Grupo 55646" transform="translate(-180 -2270)">
    <rect id="Rectángulo_4520" data-name="Rectángulo 4520" width="396" height="290" rx="10" transform="translate(180 2327.491)" fill="#fffbdc"/>
    <g id="Grupo_26624" data-name="Grupo 26624" transform="translate(-512.75 1726.846)">
      <path id="Trazado_1889" data-name="Trazado 1889" d="M725.37,920.434c2.663-1.648,137.223-19.711,202.38,1.587,0,0-41.387,11.511-102.265,12.653S725.37,920.434,725.37,920.434Z" transform="translate(0 -62.089)" fill="#d8dbe3"/>
      <g id="Grupo_26594" data-name="Grupo 26594" transform="translate(789.392 656.741)">
        <path id="Trazado_1890" data-name="Trazado 1890" d="M820.268,712.03s-13.744-3.805-17.906-13.7v-5.9c1.419-.061,8.269.9,10.426,2.553a47.439,47.439,0,0,1-1.039-10.042l.023-5.193s9.322,2.727,12.367,7.507C824.138,687.26,828.514,701.886,820.268,712.03Z" transform="translate(-802.362 -679.753)" fill="url(#linear-gradient)"/>
        <path id="Trazado_1891" data-name="Trazado 1891" d="M820.268,712.03s-13.744-3.805-17.906-13.7v-1.888c6.347,8.246,17.4,10.841,17.4,10.841,5.023-12.2-3.732-19.317-8.013-22.339l.023-5.193s9.322,2.727,12.367,7.507C824.138,687.26,828.514,701.886,820.268,712.03Z" transform="translate(-802.362 -679.753)" fill="#ec7448" opacity="0.2" style="mix-blend-mode: multiply;isolation: isolate"/>
      </g>
      <g id="Grupo_26595" data-name="Grupo 26595" transform="translate(773.64 677.672)">
        <path id="Trazado_1892" data-name="Trazado 1892" d="M808.76,706.736v92.95a1.179,1.179,0,0,1-1.192,1.168.87.87,0,0,1-.2-.019,1.169,1.169,0,0,1-1-1.149V707.873l-20.573-.579v79.333a1.175,1.175,0,0,1-.921,1.138,1.273,1.273,0,0,1-.269.031,1.181,1.181,0,0,1-1.192-1.168V706.092a1.153,1.153,0,0,1,.361-.837,1.2,1.2,0,0,1,.865-.331l1.331.038,21.627.6a.68.68,0,0,1,.091.008A1.174,1.174,0,0,1,808.76,706.736Z" transform="translate(-783.419 -704.924)" fill="#697275"/>
      </g>
      <path id="Trazado_1893" data-name="Trazado 1893" d="M807.783,708.669a2.237,2.237,0,0,1-1.115,1.217v-2l-20.573-.579v79.333a1.175,1.175,0,0,1-.921,1.138l.045-21.015s-.125-35.7,0-47.535.32-12.268.952-13.116c0,0,.042-.51.1-1.138l21.627.6a.68.68,0,0,1,.091.008A12.136,12.136,0,0,1,807.783,708.669Z" transform="translate(-10.073 -27.26)" fill="#697275" opacity="0.3" style="mix-blend-mode: multiply;isolation: isolate"/>
      <path id="Trazado_1894" data-name="Trazado 1894" d="M807.4,705.4v1.938A1.536,1.536,0,0,1,806.039,709H787.354A1.536,1.536,0,0,1,786,707.334V705.4a1.536,1.536,0,0,1,1.359-1.666h18.685A1.536,1.536,0,0,1,807.4,705.4Z" transform="translate(-10.213 -27.051)" fill="#f75606"/>
      <path id="Trazado_1895" data-name="Trazado 1895" d="M807.4,706.59v1.226a1.536,1.536,0,0,1-1.359,1.666H787.354A1.536,1.536,0,0,1,786,707.816v-.857C790.021,707.469,803.749,707.168,807.4,706.59Z" transform="translate(-10.213 -27.533)" fill="#ec7448" opacity="0.4" style="mix-blend-mode: multiply;isolation: isolate"/>
      <path id="Trazado_1896" data-name="Trazado 1896" d="M808.428,703.538l-.286-.779a1.84,1.84,0,0,0-2.411.2.021.021,0,0,0-.008.016c-.692,1.541-.51,5.478-1.275,7.017-.017.037-.037.072-.057.106s-.037.065-.057.1a.974.974,0,0,1-.319.328c-.023.011-.042.022-.065.034a.592.592,0,0,1-.072.027.157.157,0,0,1-.057.018.418.418,0,0,1-.077.012.626.626,0,0,1-.091.007h-.047c-1.772-.1-1.662-4.923-1.563-6.632-.145,1.644-.665,6.1-2.115,6-.986-.068-1.229-2.173-1.248-4.03-.164,1.74-.555,3.6-1.5,3.4-1.563-.338-1.987-3.976-2.055-4.695.05.654.2,3.653-1.153,3.763-1.522.126-1.777-4.775-1.651-8.835a4.3,4.3,0,0,1,1.32-3.134c1.648-1.568,4.707-2,8.447-1.557,4.768.57,6.343,3.172,6.808,5.353.014.076.03.152.042.229A5.6,5.6,0,0,1,808.428,703.538Z" transform="translate(-11.273 -25.535)" fill="url(#linear-gradient-2)"/>
      <path id="Trazado_1897" data-name="Trazado 1897" d="M851.382,838.991c-1.332,17.693-4.007,57.488-4.007,57.488l-1.331-3.234s-.8-2.573-2.059-6.708c-4.034-13.291-12.738-42.734-14.481-54.776-2.283-15.791,2.652-30.406,2.652-30.406-2.473-8.942-8.18-56.841-8.18-56.841L850.8,755.125l-1.377,14.04-3.1,31.524C851.677,815.473,852.713,821.3,851.382,838.991Z" transform="translate(-16.611 -33.921)" fill="url(#linear-gradient-3)"/>
      <path id="Trazado_1898" data-name="Trazado 1898" d="M918.549,895.411c0,.079-.524-.876-1.45-2.607l0,0c-5.8-10.87-27.341-52.39-33.731-62.153-7.48-11.434-3.87-29.781-3.87-29.781-2.712-5.266-14.8-34.75-18.142-44.248-.643-1.823-.963-2.91-.83-2.941.595-.134,1.191-.271,1.793-.407,10.6-2.435,22.213-5.589,22.213-5.589s1.74,6.651,4.109,15.965c4.086,16.06,10.05,40.039,12.218,51.481C904.279,833.2,918.549,894.84,918.549,895.411Z" transform="translate(-22.763 -34.455)" fill="url(#linear-gradient-4)"/>
      <path id="Trazado_1899" data-name="Trazado 1899" d="M849.421,769.166c-5.2-.471-16.988-1.628-19.549-2.648l4.566,36.2a101.935,101.935,0,0,0,.762,38.62c4.565,20.166,11.125,44.709,11.125,44.709l-2.34.491c-4.034-13.291-12.738-42.734-14.481-54.776-2.283-15.791,2.652-30.406,2.652-30.406-2.473-8.942-8.18-56.841-8.18-56.841L850.8,755.125Z" transform="translate(-16.611 -33.921)" fill="#ec7448" opacity="0.2" style="mix-blend-mode: multiply;isolation: isolate"/>
      <path id="Trazado_1900" data-name="Trazado 1900" d="M917.269,892.8c-5.8-10.87-27.341-52.39-33.731-62.153-7.48-11.434-3.87-29.781-3.87-29.781-2.712-5.266-14.8-34.75-18.142-44.248.4-1.576.768-2.835.963-3.349,10.6-2.435,22.213-5.589,22.213-5.589s1.74,6.651,4.109,15.965c-4.132,2.367-11.771,6.286-17.418,7.792,0,0,10.464,29.15,11.034,30.292s-3.043,16.361,4.376,27.205,19.025,33.673,19.4,34.244S917.105,892.352,917.269,892.8Z" transform="translate(-22.937 -34.455)" fill="#ec7448" opacity="0.2" style="mix-blend-mode: multiply;isolation: isolate"/>
      <path id="Trazado_1901" data-name="Trazado 1901" d="M880.068,741.914c-7.039,4.566-23.97,8.5-23.97,8.5l-2.927-1.1-.012.011-.677.654-.952.917c-13.7.616-29.586-7.4-29.586-7.4a52.148,52.148,0,0,1,1.686-21.16c.08-.274.167-.551.262-.826a39.688,39.688,0,0,1,2.337-5.658l1.48-1.659.864-.963.452-.51,3.482-3.9a38.062,38.062,0,0,0,7.2,2.661q.353.1.731.193a41.193,41.193,0,0,0,7.88,1.2c.251.016.505.027.76.03a32.821,32.821,0,0,0,3.513-.057c.19-.012.383-.027.578-.042.06,0,.122-.011.179-.014,1.643-.141,3.091-.3,4.369-.484q.455-.062.878-.126c6.659-1.015,8.2-2.359,8.2-2.359.748,1.34,1.494,2.77,2.229,4.254.064.133.129.262.19.395,1.414,2.893,2.772,5.979,4.021,9,.125.3.252.609.377.912.8,1.952,1.544,3.862,2.234,5.663C878.393,736.74,880.068,741.914,880.068,741.914Z" transform="translate(-16.202 -27.909)" fill="#419199"/>
      <path id="Trazado_1902" data-name="Trazado 1902" d="M879.192,616.683a11.334,11.334,0,0,1-2.016,2.945c-.095.1-.19.194-.289.281a7.885,7.885,0,0,1-3.352,1.891,24.518,24.518,0,0,1-4.231.449,34.05,34.05,0,0,0-9.065-6.661c-.14-.076-.284-.145-.428-.214a33.992,33.992,0,0,0-14.136-3.291,33.322,33.322,0,0,0-10.147,1.29c-.122.038-.247.076-.374.114a29.7,29.7,0,0,0-4.314,1.713c-.115.052-.225.11-.338.17a30.32,30.32,0,0,0-8.606,6.557,15.477,15.477,0,0,0-1.363,1.7c-.087.121-.175.246-.254.373a30.853,30.853,0,0,0-3.029,6.061c-2.161-2.758-3.607-5.2-3.95-6.829-1.073-5.1,1.9-7.455,3.5-9.494a6.506,6.506,0,0,0,.465-.647c.034-.057.068-.111.1-.167a2.956,2.956,0,0,0,.342-.845c.282-1.286-1.415-1.868-3.866-3.451-.1-.068-.2-.134-.309-.2a23.636,23.636,0,0,1-8.184-9.413c-.065-.13-.134-.259-.2-.392-.007-.018-.017-.038-.026-.057-5.449-11.083,6.685-16.973,6.875-17.708a121.877,121.877,0,0,1,7.542-19.691c.269-.552.551-1.1.837-1.643,0,0,0,0,0,0a50.439,50.439,0,0,1,6.7-10.079c9.171-10.25,15.707-1.747,17.434-.012l.012.012a4.423,4.423,0,0,1,.4-1.183c.816-1.706,3.231-4.692,10.22-5.095,9.855-.57,19.249,23.02,21.913,36.337a15.977,15.977,0,0,1-.25,8.557c-.073.214-.15.415-.232.614-1.564,3.774-4.551,5.235-4.529,7.343a2.9,2.9,0,0,0,.48,1.488c.045.072.091.145.141.213a.088.088,0,0,0,.015.027c2.42,3.546,6.651,8.725,7.283,13.85A8.817,8.817,0,0,1,879.192,616.683Z" transform="translate(-13.199)" fill="url(#linear-gradient-5)"/>
      <path id="Trazado_1903" data-name="Trazado 1903" d="M881.086,620.478c-1.6,3.276-3.748,4.589-5.658,5.117a24.524,24.524,0,0,1-4.231.449,33.145,33.145,0,0,0-23.629-10.167,30.572,30.572,0,0,0-23.78,9.844,25.552,25.552,0,0,0-4.647,8.138c-2.161-2.758-3.607-5.2-3.95-6.829-1.217-5.783,2.778-8.036,4.069-10.308,4.326-.305,9.337-1,10.711-2.215,2.5-2.206-8.342-7.175-8.973-18.9s8.287-20.539,8.287-20.539c9.052-9.433,32.22-9.692,32.932-9.273,8.374,4.885,9.258,31.387,4.406,37.78s-1.3,17.635,9.036,13.393a19.725,19.725,0,0,1,6.206-1.582A8.817,8.817,0,0,1,881.086,620.478Z" transform="translate(-15.093 -3.795)" fill="#cc7024" opacity="0.3" style="mix-blend-mode: multiply;isolation: isolate"/>
      <path id="Trazado_1904" data-name="Trazado 1904" d="M880.068,742.7c-7.039,4.566-23.97,8.5-23.97,8.5l-2.927-1.1-.012.011-.677.654-.952.917c-13.7.616-29.586-7.4-29.586-7.4a52.149,52.149,0,0,1,1.686-21.16c.08-.274.167-.551.262-.826a39.688,39.688,0,0,1,2.337-5.658l1.48-1.659.864-.963.452-.51c.088.271,2.531,1.695.911,1.167-.153.65-5.134,10.43-5.324,11.1s1.522,18.645,1.522,18.645,17.883,5.327,26.254,4.851,21.67-3.942,24.436-7.343c0,0-.5-5.625-.974-11.088C878.393,737.53,880.068,742.7,880.068,742.7Z" transform="translate(-16.202 -28.698)" fill="#419199" opacity="0.4" style="mix-blend-mode: multiply;isolation: isolate"/>
      <path id="Trazado_1905" data-name="Trazado 1905" d="M885.808,669.307a25.382,25.382,0,0,0-8.754,5.822,39.89,39.89,0,0,0-5.952,7.72c-.856,1.424-1.6,2.832-2.253,4.167-.726,1.492-1.324,2.892-1.811,4.12v0a46.359,46.359,0,0,0-1.616,4.737s-2.329,2.032-13.626,2.983a41.547,41.547,0,0,1-20.665-3.984c.217-.733-.338-2.179-1.179-3.846-.815-1.613-1.9-3.433-2.8-5l0-.008a26.934,26.934,0,0,1-1.538-2.934c-1.675-4.2-7.47-7.29-10.437-8.641,0,0-.012,0-.016-.008-1.073-.487-1.777-.745-1.777-.745a34.659,34.659,0,0,0,.317-3.456c.037-.456.079-.955.125-1.488.194-2.191.479-4.977.936-8.051.248-1.7.551-3.489.92-5.319.5-2.5,1.127-5.075,1.9-7.6q.519-1.7,1.138-3.352c.05-.133.1-.27.152-.4a32.288,32.288,0,0,1,2.633-5.452,17.618,17.618,0,0,1,2.014-2.686q.444-.487.9-.936.816-.816,1.651-1.541a29.529,29.529,0,0,1,11.757-6.264,33.4,33.4,0,0,1,9.47-1.1,34.987,34.987,0,0,1,11.38,2.111,32.263,32.263,0,0,1,7.451,3.954q1.191.844,2.29,1.777c.879.738,1.712,1.518,2.508,2.324.487.5.963,1.009,1.419,1.526a45.634,45.634,0,0,1,4.809,6.59c.841,1.393,1.607,2.8,2.3,4.208a64.835,64.835,0,0,1,3.113,7.5c.471,1.354.878,2.66,1.227,3.882.678,2.375,1.145,4.456,1.458,6.05.163.852.289,1.563.377,2.108C885.76,668.866,885.808,669.307,885.808,669.307Z" transform="translate(-14.827 -13.962)" fill="url(#linear-gradient-6)"/>
      <g id="Grupo_26596" data-name="Grupo 26596" transform="translate(798.558 619.449)">
        <path id="Trazado_1906" data-name="Trazado 1906" d="M874,639.232c-.1.019-.2.042-.3.062-1.507.289-3.136.658-4.882.89-.872.13-1.765.266-2.678.4s-1.85.289-2.8.384c-.955.114-1.93.217-2.915.316s-1.978.225-2.987.282l-3.043.217c-.51.038-1.02.072-1.533.11s-1.023.035-1.538.053c-2.05.057-4.1.149-6.129.126h-3.006c-.992-.034-1.97-.064-2.933-.095-1.93-.046-3.79-.194-5.555-.3-.882-.065-1.739-.153-2.569-.225s-1.632-.141-2.4-.24c-.385-.049-.758-.1-1.128-.145s-.723-.118-1.069-.171c-.7-.133-1.355-.282-1.967-.437-.5-.121-.966-.255-1.405-.392a17.618,17.618,0,0,1,2.014-2.686,31.986,31.986,0,0,1,2.553-2.477c.2.012.4.027.6.037.354.038.714.072,1.084.111.735.091,1.506.164,2.3.24s1.622.16,2.47.229c1.7.106,3.489.289,5.35.362l2.831.148c.959.031,1.925.065,2.9.1,1.956.087,3.941.064,5.931.076.994.007,1.987-.008,2.975-.027s1.98-.034,2.961-.049c1.96-.035,3.882-.195,5.749-.248.937-.023,1.849-.1,2.747-.168s1.772-.133,2.63-.193c.619-.038,1.224-.088,1.814-.137.879.738,1.712,1.518,2.508,2.324C873.065,638.2,873.54,638.714,874,639.232Z" transform="translate(-815.031 -634.906)" fill="url(#linear-gradient-7)"/>
        <path id="Trazado_1907" data-name="Trazado 1907" d="M880.309,652.241c-.575.137-1.168.263-1.785.381-1.772.384-3.713.715-5.772,1.019-1.029.141-2.089.289-3.174.412s-2.19.228-3.321.327c-2.26.179-4.6.312-6.967.4-1.185.034-2.384.091-3.584.1s-2.409.037-3.611.014q-1.807-.011-3.607-.064c-1.2-.023-2.392-.083-3.576-.126-2.37-.1-4.692-.278-6.939-.465s-4.415-.407-6.466-.662-3.983-.506-5.763-.792-3.409-.555-4.848-.817c-.894-.171-1.715-.331-2.458-.48q.519-1.7,1.138-3.352c.575.068,1.195.137,1.853.209,1.431.149,3.04.328,4.8.48s3.667.323,5.688.461c1.013.068,2.051.136,3.109.195s2.146.121,3.249.178,2.222.088,3.356.134q1.7.04,3.44.086c1.157.017,2.321.051,3.492.047s2.343,0,3.519-.019c2.349-.031,4.692-.08,7-.186,1.157-.038,2.293-.126,3.424-.183s2.241-.175,3.337-.248l3.219-.278c1.049-.1,2.077-.2,3.078-.3,1.995-.221,3.885-.414,5.625-.647.083-.011.167-.019.247-.031C878.852,649.426,879.617,650.834,880.309,652.241Z" transform="translate(-814.236 -637.117)" fill="url(#linear-gradient-8)"/>
        <path id="Trazado_1908" data-name="Trazado 1908" d="M884.078,665.865l-.006,0c-.442.111-.9.23-1.36.347s-.944.217-1.431.331c-.978.213-1.989.464-3.047.674s-2.154.422-3.28.644q-1.7.273-3.481.566c-1.192.183-2.408.338-3.649.513s-2.5.294-3.786.431-2.581.224-3.89.334q-1.963.127-3.956.252c-1.328.046-2.66.129-3.995.148s-2.667.057-4,.042c-.663,0-1.324,0-1.987-.008l-1.975-.034c-2.625-.049-5.205-.164-7.7-.319-2.491-.183-4.9-.369-7.183-.616s-4.429-.518-6.411-.792a47.391,47.391,0,0,1-5.377-.994c-.921-.232-1.765-.483-2.526-.742.248-1.7.551-3.489.921-5.319.8.034,1.682.091,2.629.183.785.076,1.618.175,2.494.285.87.13,1.788.263,2.746.4,1.915.274,4,.551,6.2.792,2.208.263,4.539.479,6.953.681,2.416.175,4.912.373,7.453.476.635.027,1.276.057,1.913.083s1.283.035,1.927.053c1.286.047,2.575.042,3.868.057s2.583,0,3.87,0l3.839-.08c1.271-.062,2.53-.1,3.775-.172s2.473-.155,3.683-.228c1.207-.1,2.4-.186,3.557-.3s2.294-.241,3.4-.354c1.1-.149,2.173-.274,3.212-.4s2.031-.3,2.99-.437c.484-.072.951-.145,1.413-.216.326-.057.649-.114.966-.172C883.321,663.338,883.729,664.644,884.078,665.865Z" transform="translate(-813.664 -639.357)" fill="url(#linear-gradient-9)"/>
        <path id="Trazado_1909" data-name="Trazado 1909" d="M885.808,677.824a25.382,25.382,0,0,0-8.754,5.822c-.555.131-1.119.252-1.685.381q-.973.183-1.964.373c-.662.125-1.331.246-2.009.377s-1.365.213-2.059.323c-1.385.21-2.792.427-4.227.575s-2.88.346-4.345.457l-2.207.194c-.738.064-1.479.095-2.222.145l-2.23.137-2.241.068c-2.984.095-5.97.065-8.907,0-2.938-.1-5.826-.283-8.611-.549-2.786-.239-5.468-.59-8-.966-2.53-.407-4.919-.8-7.107-1.275-1.443-.3-2.8-.613-4.06-.916,0,0-.012,0-.016-.008-1.073-.487-1.777-.745-1.777-.745a34.659,34.659,0,0,0,.317-3.456l.425.081c1.728.338,3.692.68,5.837,1s4.479.625,6.951.895c1.237.114,2.508.251,3.809.35.65.049,1.309.1,1.971.156l2.013.125c1.35.091,2.728.131,4.124.187.693.034,1.4.026,2.1.046s1.412.031,2.123.042c2.846.012,5.734-.019,8.619-.171l2.161-.1c.718-.049,1.438-.1,2.154-.145s1.434-.091,2.145-.156,1.423-.132,2.131-.2c1.416-.118,2.811-.3,4.2-.472,1.383-.151,2.74-.376,4.08-.562s2.652-.408,3.933-.621q.965-.16,1.907-.312c.624-.118,1.244-.235,1.854-.353,2.442-.427,4.732-.94,6.86-1.366.878-.2,1.728-.392,2.538-.578C885.76,677.384,885.808,677.824,885.808,677.824Z" transform="translate(-813.385 -641.929)" fill="url(#linear-gradient-10)"/>
        <path id="Trazado_1910" data-name="Trazado 1910" d="M871.639,699.169c-.726,1.492-1.324,2.892-1.811,4.12v0l-.638.1c-.9.148-1.823.293-2.763.411-1.883.263-3.836.476-5.822.666s-4.018.323-6.049.4c-1.02.03-2.035.079-3.052.079l-1.518.012c-.506,0-1.008-.012-1.511-.019-2.01-.022-3.987-.148-5.9-.293-1.915-.167-3.764-.372-5.511-.639-.875-.129-1.72-.284-2.537-.449l-1.2-.244c-.2-.045-.393-.091-.582-.136-.815-1.613-1.9-3.433-2.8-5,.366.087.743.172,1.134.251.643.148,1.32.3,2.031.434,1.419.293,2.972.564,4.616.825s3.4.461,5.216.632c1.823.149,3.709.27,5.631.317.484.011.966.026,1.45.037s.975.008,1.462.008c.972.019,1.955-.015,2.936-.031,1.96-.045,3.924-.147,5.852-.274s3.836-.3,5.669-.506q.692-.076,1.371-.145c.448-.057.893-.115,1.335-.167.882-.119,1.751-.206,2.59-.339Z" transform="translate(-816.175 -645.566)" fill="url(#linear-gradient-11)"/>
      </g>
      <path id="Trazado_1911" data-name="Trazado 1911" d="M897.5,677.4c-6.673,2.555-11.459,8.147-14.706,13.542,1.28-9.717,10.8-15,14.155-16.878C897.357,676.142,897.5,677.4,897.5,677.4Z" transform="translate(-26.52 -22.053)" fill="#a9aaaa"/>
      <path id="Trazado_1912" data-name="Trazado 1912" d="M899.891,697.376c-1.142,6.978-7.858,10.887-9.893,10.273-3.372-1.011-9.163-23.979-10.019-36.653-.4-5.89-.334-9.276.513-10.209.879-.974,2.619.731,5.575,5.061.453,1.084,3.417,6.187,5.309,9.977.231.461.446.9.639,1.316l4.973-2.025s.229.86.555,2.26a101.871,101.871,0,0,1,2.428,14.2A25.482,25.482,0,0,1,899.891,697.376Z" transform="translate(-26.006 -19.772)" fill="url(#linear-gradient-12)"/>
      <path id="Trazado_1913" data-name="Trazado 1913" d="M868.37,632.11c-10.711,10.148-33.781,6-41.71,2.842q.816-.816,1.651-1.541a29.529,29.529,0,0,1,11.757-6.264,33.4,33.4,0,0,1,9.47-1.1,34.987,34.987,0,0,1,11.38,2.111A32.263,32.263,0,0,1,868.37,632.11Z" transform="translate(-17.063 -13.962)" fill="#a9aaaa" opacity="0.3" style="mix-blend-mode: multiply;isolation: isolate"/>
      <path id="Trazado_1914" data-name="Trazado 1914" d="M863.635,628.156a14.594,14.594,0,0,1-10.09,5.715c-6.172.681-9.794-4.136-10.76-6.724a33.4,33.4,0,0,1,9.47-1.1A34.987,34.987,0,0,1,863.635,628.156Z" transform="translate(-19.78 -13.962)" fill="#b0b4b5" opacity="0.5" style="mix-blend-mode: multiply;isolation: isolate"/>
      <path id="Trazado_1915" data-name="Trazado 1915" d="M862.128,620.945l-3.231,7.237a4.7,4.7,0,0,1-.442.358c-4.038,3-10.4-.358-10.4-.358l-.252-.857L846.07,621.4a15.7,15.7,0,0,0,8,2.416A13.036,13.036,0,0,0,862.128,620.945Z" transform="translate(-20.333 -13.105)" fill="url(#linear-gradient-13)"/>
      <path id="Trazado_1916" data-name="Trazado 1916" d="M899.891,697.43c-1.142,6.978-7.858,10.887-9.893,10.273-3.372-1.011-9.163-23.979-10.019-36.653-.4-5.89-.334-9.276.513-10.209a6.012,6.012,0,0,1,2.276,2.473,72.611,72.611,0,0,0,1.4,20.859c2.284,9.581,6.713,17.381,8.3,17.6,1.073.149,5.46-2.918,7.5-10.148A25.482,25.482,0,0,1,899.891,697.43Z" transform="translate(-26.006 -19.826)" fill="#ec7448" opacity="0.2" style="mix-blend-mode: multiply;isolation: isolate"/>
      <g id="Grupo_26597" data-name="Grupo 26597" transform="translate(838.372 631.312)">
        <path id="Trazado_1917" data-name="Trazado 1917" d="M880.1,651.136l-2.6,26.159-10.224.845-2.017.168-3.995-29.135h17.219Z" transform="translate(-861.266 -649.172)" fill="#81aebc"/>
        <path id="Trazado_1918" data-name="Trazado 1918" d="M875.1,654.92a1.192,1.192,0,1,1-1.192-1.192A1.193,1.193,0,0,1,875.1,654.92Z" transform="translate(-863.194 -649.939)" fill="#608e99"/>
        <path id="Trazado_1919" data-name="Trazado 1919" d="M861.266,649.172l1.523,1.965H880.1l-1.611-1.965Z" transform="translate(-861.266 -649.172)" fill="#7eb6cc"/>
        <path id="Trazado_1920" data-name="Trazado 1920" d="M862.789,651.137l2.472,27.17-1.332-.716-2.664-28.419Z" transform="translate(-861.266 -649.172)" fill="#608e99"/>
      </g>
      <g id="Grupo_26601" data-name="Grupo 26601" transform="translate(807.428 683.574)">
        <g id="Grupo_26598" data-name="Grupo 26598" transform="translate(27.487 25.009)">
          <path id="Trazado_1921" data-name="Trazado 1921" d="M861.655,742.779,857.9,745.69l1.255,9.242-.677.654-1.363-10.015a.384.384,0,0,1,.145-.349l3.936-3.044a.38.38,0,0,1,.464.6Z" transform="translate(-857.107 -742.097)" fill="#23767a"/>
        </g>
        <g id="Grupo_26599" data-name="Grupo 26599">
          <path id="Trazado_1922" data-name="Trazado 1922" d="M840.862,712.215c-1.712,3.6-6.233,9.988-16.81,10.658.08-.274.167-.551.262-.826,5.018-.445,12.309-2.466,15.818-10.025Q840.484,712.119,840.862,712.215Z" transform="translate(-824.052 -712.022)" fill="#23767a"/>
        </g>
        <g id="Grupo_26600" data-name="Grupo 26600" transform="translate(34.089 0.699)">
          <path id="Trazado_1923" data-name="Trazado 1923" d="M880.944,725.065a27.193,27.193,0,0,1-10.171-6.007,47.914,47.914,0,0,1-5.725-6.069q.455-.062.878-.126c2.39,2.941,8,9.1,14.642,11.29C880.692,724.457,880.819,724.761,880.944,725.065Z" transform="translate(-865.047 -712.863)" fill="#23767a"/>
        </g>
      </g>
      <path id="Trazado_1924" data-name="Trazado 1924" d="M885.161,758.491c-5.973,5.753-29.24,8.561-29.24,8.561l-3.5-8.756v8.756c-12.294.007-35.314-6.9-35.314-6.9s3.7-10.3,3.7-10.894a13.659,13.659,0,0,0,4.124,1.941c4,1.366,11.45,2.979,24.516,3.2q1.308.021,2.587-.013l.484-.012a79.515,79.515,0,0,0,28.807-6.7l3.485,9.828Z" transform="translate(-15.455 -34.455)" fill="#7dcfd6"/>
      <g id="Grupo_26602" data-name="Grupo 26602" transform="translate(832.117 684.883)">
        <path id="Trazado_1925" data-name="Trazado 1925" d="M860.836,732.335a.375.375,0,0,1-.266.111.278.278,0,0,1-.1-.015l-5.042-1.382a.376.376,0,0,1-.278-.315,149.346,149.346,0,0,1-1.408-17.054c.251.016.506.027.76.03a150.245,150.245,0,0,0,1.368,16.67l4.174,1.145c-1.336-5.6-1.921-14.386-2.028-17.871.19-.012.383-.027.578-.042.06,0,.122-.011.179-.014.121,3.389.711,12.792,2.164,18.373A.373.373,0,0,1,860.836,732.335Z" transform="translate(-853.743 -713.596)" fill="#23767a"/>
      </g>
      <path id="Trazado_1926" data-name="Trazado 1926" d="M870.466,714.472c-17.259,11.1-37.08,2.017-41.509-.281l.864-.963,3.934-4.406a38.065,38.065,0,0,0,7.2,2.661q.353.1.731.193a41.194,41.194,0,0,0,7.88,1.2c.251.016.506.027.76.03a32.82,32.82,0,0,0,3.513-.057c.19-.012.383-.027.578-.042.06,0,.122-.011.179-.014,1.643-.141,3.091-.3,4.369-.484q.455-.062.878-.126c6.659-1.015,8.2-2.359,8.2-2.359.748,1.34,1.494,2.77,2.229,4.254C870.339,714.21,870.4,714.339,870.466,714.472Z" transform="translate(-17.45 -27.909)" fill="#419199" opacity="0.4" style="mix-blend-mode: multiply;isolation: isolate"/>
      <path id="Trazado_1927" data-name="Trazado 1927" d="M870.45,714.077c-16.026,8.956-34.253,2.313-40.454-.849l3.934-4.406a41.547,41.547,0,0,0,20.665,3.984c11.3-.95,13.626-2.983,13.626-2.983C868.969,711.163,869.715,712.593,870.45,714.077Z" transform="translate(-17.625 -27.909)" fill="#8e502a"/>
      <path id="Trazado_1928" data-name="Trazado 1928" d="M868.244,711.78l1.553,6.564,2.157-.666-1.423-6.48Z" transform="translate(-24.069 -28.309)" fill="#419199"/>
      <path id="Trazado_1929" data-name="Trazado 1929" d="M836.5,716.488l2.045.65,2.094-6.4-1.9-.666Z" transform="translate(-18.721 -28.118)" fill="#419199"/>
      <path id="Trazado_1930" data-name="Trazado 1930" d="M885.161,758.811c-5.973,5.753-29.24,8.561-29.24,8.561l-3.5-8.756v8.756c-12.294.007-35.314-6.9-35.314-6.9s3.7-10.3,3.7-10.894a13.659,13.659,0,0,0,4.124,1.941c-.795,1.928-4.139,9.056-4.139,9.056s27.552,5.517,30.34,6.278l.9-12.146.484-.012,5.205,9.874s18.473-.582,27.087-6.741Z" transform="translate(-15.455 -34.775)" fill="#7dcfd6" opacity="0.3" style="mix-blend-mode: multiply;isolation: isolate"/>
      <path id="Trazado_1931" data-name="Trazado 1931" d="M899.387,697.342a13.522,13.522,0,0,1,.263,1.91S899.525,698.509,899.387,697.342Z" transform="translate(-29.315 -25.975)" fill="#ec7448" opacity="0.2" style="mix-blend-mode: multiply;isolation: isolate"/>
      <path id="Trazado_1932" data-name="Trazado 1932" d="M898.434,694.1a100.9,100.9,0,0,0-4.7-15.314c.231.461.446.9.639,1.316l4.973-2.025s.229.86.555,2.26C897.453,682.909,898.012,690.511,898.434,694.1Z" transform="translate(-28.363 -22.729)" fill="#ec7448" opacity="0.2" style="mix-blend-mode: multiply;isolation: isolate"/>
      <g id="Grupo_26603" data-name="Grupo 26603" transform="translate(791.926 547.552)" opacity="0.3" style="mix-blend-mode: multiply;isolation: isolate">
        <path id="Trazado_1933" data-name="Trazado 1933" d="M850.844,549.842a10.2,10.2,0,0,1,5.962,1.522c3.862,2.139,6.6,5.594,8.721,9.372a106.785,106.785,0,0,1,11.34,28.827c.082-.2.159-.4.232-.614a102.154,102.154,0,0,0-7.387-20.969c-1.193-2.515-2.488-4.985-3.846-7.416a28.129,28.129,0,0,0-3.471-5.091c-2.488-2.808-5.826-5.358-9.611-5.959a7.926,7.926,0,0,0-7.48,3.226c-.023-.225-.046-.449-.061-.677a21.276,21.276,0,0,1-.027-2.915,4.422,4.422,0,0,0-.4,1.183l-.012-.012c0,.274.005.548.012.818a9.479,9.479,0,0,0-9.626-2.211c-4.056,1.264-7.546,4.353-10.559,7.229a52.774,52.774,0,0,0-3.965,4.254s0,0,0,0c-.285.544-.567,1.091-.837,1.643a57.911,57.911,0,0,1,3.881-4.455,36.063,36.063,0,0,1,9.984-7.678,10.817,10.817,0,0,1,5.571-1.116,9.326,9.326,0,0,1,5.577,2.861.9.9,0,0,1,0,.115,29.084,29.084,0,0,0,.368,3.249,15.627,15.627,0,0,0-6.639-2.716,8.463,8.463,0,0,0-6.115,1.971,31.379,31.379,0,0,0-4.751,4.939,26.855,26.855,0,0,0-3.947,6.506,45.437,45.437,0,0,0-2.423,7.135c-.578,2.29-1.019,4.612-1.742,6.864a14.663,14.663,0,0,1-3.808,6.291c-1.846,1.77-3.786,3.439-5.534,5.311a22.912,22.912,0,0,0-4.843,8.123c.008.019.019.039.026.057.065.134.134.263.2.392.133-.457.285-.906.45-1.347,1.871-5.038,5.939-8.454,9.728-12.036a14.852,14.852,0,0,0,3.668-5.353c.03-.077.057-.156.087-.233,1.533,5.434.994,11.392-.213,16.834a27,27,0,0,1-3.1,7.964,41.336,41.336,0,0,1-2.432,3.584c.107.068.209.134.309.2.861-1.165,1.69-2.341,2.439-3.576a27.122,27.122,0,0,0,3.151-8.056c1.305-5.642,1.807-11.935.08-17.54l0,0a54.375,54.375,0,0,0,1.578-5.993c1.165-5.008,2.91-10.018,6.042-14.154,1.933-2.549,4.258-5.323,7.15-6.8,3.641-1.856,7.636.091,10.722,2.131a.014.014,0,0,0,.012,0,32.241,32.241,0,0,0,1.631,5.745q-.347.051-.7.114a4.578,4.578,0,0,0-2.634-2.845,8.457,8.457,0,0,0-4.863-.609,14.308,14.308,0,0,0-8.777,5.5c-4.978,6.178-6.085,13.948-5.4,21.646a44.77,44.77,0,0,0-.524,10.4c.053.8.133,1.59.232,2.377-.038,3.984-.419,8.223-2.471,11.711a12.379,12.379,0,0,1-4.245,4.406,6.5,6.5,0,0,1-.465.647,8.8,8.8,0,0,0,1.822-1.138,23.989,23.989,0,0,0-.368,4.825,16.09,16.09,0,0,0,1.133,4.667,18.043,18.043,0,0,0,.887,1.907c.08-.126.167-.252.254-.373q-.365-.691-.681-1.416a15.655,15.655,0,0,1-1.194-4.516,24.21,24.21,0,0,1,.384-5.369.138.138,0,0,0-.007-.068,14.666,14.666,0,0,0,2.37-2.7c2.085-3.025,2.725-6.815,2.9-10.483a49.453,49.453,0,0,0,2.964,9.919,37.138,37.138,0,0,0,3.231,6.37c.113-.061.224-.118.338-.17a38.527,38.527,0,0,1-3.436-6.873,46.317,46.317,0,0,1-3.04-11.479c0-.134,0-.271,0-.4a.176.176,0,0,0-.069-.147c-.125-1.108-.213-2.227-.25-3.353a43.465,43.465,0,0,1,2.785-16.6,31.091,31.091,0,0,1,3.417-6.853,17.771,17.771,0,0,1,5.958-5.216,30.041,30.041,0,0,1,10.631-3.52.19.19,0,0,0,.148-.022c.289-.038.578-.085.869-.119,3.96-.452,8.465-.209,12.007,1.789,0,.005,0,.005,0,.008-.81,2.058-3.088,3.093-5.015,3.85-2.435.955-5,1.641-7.5,2.417-2.921.908-5.891,1.544-8.846,2.317-1.305.342-2.591.81-3.916,1.077a16.245,16.245,0,0,0-2.93.635c-1.578.639-1.841,2.252-2.031,3.789-.266,2.15-.24,4.364-.354,6.526-.315,5.844-.437,11.7.807,17.453a48.1,48.1,0,0,0,5.075,13.009c.127-.037.252-.076.374-.114a51.559,51.559,0,0,1-4.44-10.459c-1.675-5.758-1.808-11.72-1.545-17.668q.158-3.63.343-7.255a15.549,15.549,0,0,1,.4-3.033,2.646,2.646,0,0,1,2.2-2.107c.964-.25,1.96-.316,2.919-.582,1.537-.433,3.063-.894,4.623-1.256,2.971-.681,5.882-1.48,8.794-2.4a72.508,72.508,0,0,0,7.11-2.39c1.736-.753,3.567-1.852,4.284-3.69a.154.154,0,0,0-.017-.164.165.165,0,0,0-.059-.247c-3.873-2.219-8.77-2.371-13.114-1.781l-.023-.064a.173.173,0,0,0,.182-.121,6.7,6.7,0,0,1,4.752-4.353,8.205,8.205,0,0,1,6.389,1.529c4.211,2.736,6.262,7.583,7.857,12.141,1.932,5.536,2.241,11.457,2.876,17.236a23.925,23.925,0,0,0,3.474,10.792,2.905,2.905,0,0,1-.48-1.488c-1.793-3.29-2.382-7.035-2.774-10.791-.6-5.707-1.1-11.391-3.083-16.825-1.532-4.2-3.5-8.333-7.194-11.057a8.9,8.9,0,0,0-7.15-1.906,6.985,6.985,0,0,0-4.984,4.485,31.889,31.889,0,0,1-1.8-7.521A7.979,7.979,0,0,1,850.844,549.842Zm-17.62,17.089c-3.785,3.035-5.749,7.841-7.225,12.328a40.414,40.414,0,0,0-1.168,4.4c-.387-6.4.544-12.751,4.147-18.226a16.276,16.276,0,0,1,7.64-6.529,9.338,9.338,0,0,1,5.487-.472c1.5.35,3.4,1.4,3.752,3.033A28.134,28.134,0,0,0,833.224,566.931Z" transform="translate(-805.41 -548.443)" fill="#e88236"/>
        <path id="Trazado_1934" data-name="Trazado 1934" d="M888.5,624.446c-.095.1-.19.194-.289.281a11.12,11.12,0,0,1-7.526-6.289c-1.89-4.411-1.8-9.391-1.244-14.071a66.854,66.854,0,0,0,.777-8.01c-.005-1.814.178-4.1-.964-5.642a26.731,26.731,0,0,1-2.575,10.546c-1.176,2.406-2.576,4.715-3.557,7.214a25.06,25.06,0,0,0-1.784,8.394,19.225,19.225,0,0,0,.227,3.536c-.14-.077-.284-.145-.428-.214a23.173,23.173,0,0,1,.806-9.4c1.43-5.027,4.947-9.219,6.145-14.314a32.07,32.07,0,0,0-.407-16.2,20.121,20.121,0,0,0-2.241-5.125c-.95-1.492-2.324-3.147-4.277-3.006-.244.018-.221-.362.022-.381,2.7-.194,4.475,2.725,5.48,4.821a27.869,27.869,0,0,1,2.485,9.528,34.141,34.141,0,0,1,.126,4.105.156.156,0,0,1,.125.065,6.92,6.92,0,0,1,1.184,4.455,47.2,47.2,0,0,1-.392,6.738c-.625,4.882-1.34,10.084.148,14.885a11.43,11.43,0,0,0,7.024,7.739C887.743,624.232,888.12,624.347,888.5,624.446Z" transform="translate(-816.453 -552.37)" fill="#e88236"/>
      </g>
      <path id="Trazado_1935" data-name="Trazado 1935" d="M881.315,651.136l-2.6,26.159-10.224.845,9.353-27L877,649.173h2.7Z" transform="translate(-24.111 -17.86)" fill="#a4cfe5" opacity="0.4" style="mix-blend-mode: multiply;isolation: isolate"/>
      <g id="Grupo_26604" data-name="Grupo 26604" transform="translate(847.506 650.194)">
        <path id="Trazado_1936" data-name="Trazado 1936" d="M884.71,673.267a.877.877,0,0,1-.179.563c-.6.845-2.671,1.557-5.806,1.533-3.445-.022-6.576-.723-6.474-1.823a.325.325,0,0,1,.047-.141c.55-1.043,6.029-1.385,6.029-1.385C881.516,671.764,884.6,671.707,884.71,673.267Z" transform="translate(-872.249 -671.88)" fill="url(#linear-gradient-14)"/>
        <path id="Trazado_1937" data-name="Trazado 1937" d="M884.531,674.138c-.6.845-2.671,1.557-5.806,1.533-3.445-.022-6.576-.723-6.474-1.823a.325.325,0,0,1,.047-.141A18.009,18.009,0,0,0,884.531,674.138Z" transform="translate(-872.249 -672.188)" fill="#ec7448" opacity="0.2" style="mix-blend-mode: multiply;isolation: isolate"/>
      </g>
      <g id="Grupo_26605" data-name="Grupo 26605" transform="translate(845.936 646.242)">
        <path id="Trazado_1938" data-name="Trazado 1938" d="M878.6,671.309c-5.619.517-7.917,0-8.221-1.275a.739.739,0,0,1-.02-.133c-.062-1.251,3.25-2.234,7.45-2.431,3.478-.167,7.234-1.058,7.751.921a2.561,2.561,0,0,1,.065.342C885.894,670.9,882.573,670.944,878.6,671.309Z" transform="translate(-870.362 -667.126)" fill="url(#linear-gradient-14)"/>
        <path id="Trazado_1939" data-name="Trazado 1939" d="M878.6,671.635c-5.619.517-7.917,0-8.221-1.275a.734.734,0,0,1-.02-.133c4.894,1.607,11.587,1.1,15.265-1.168C885.894,671.224,882.573,671.27,878.6,671.635Z" transform="translate(-870.362 -667.452)" fill="#ec7448" opacity="0.2" style="mix-blend-mode: multiply;isolation: isolate"/>
      </g>
      <g id="Grupo_26606" data-name="Grupo 26606" transform="translate(845.696 642.628)">
        <path id="Trazado_1940" data-name="Trazado 1940" d="M878.7,667c-4.69.254-8.595-.381-8.626-1.587a.951.951,0,0,1,.046-.323c.362-1.236,3.023-2.165,7.273-2.276,4.42-.113,7.906-.031,8.507,1.508a1.3,1.3,0,0,1,.062.2C886.287,666.1,883.392,666.746,878.7,667Z" transform="translate(-870.073 -662.78)" fill="url(#linear-gradient-14)"/>
        <path id="Trazado_1941" data-name="Trazado 1941" d="M878.7,667.313c-4.69.255-8.595-.381-8.626-1.587a.951.951,0,0,1,.046-.323c4.512,1.966,11.781,1.966,15.779-.768a1.3,1.3,0,0,1,.062.2C886.287,666.412,883.392,667.058,878.7,667.313Z" transform="translate(-870.073 -663.093)" fill="#ec7448" opacity="0.2" style="mix-blend-mode: multiply;isolation: isolate"/>
      </g>
      <g id="Grupo_26607" data-name="Grupo 26607" transform="translate(846.614 638.846)">
        <path id="Trazado_1942" data-name="Trazado 1942" d="M880.194,662.46c-4.69.412-8.948.072-9.016-1.468v0c-.119-2.786,13.7-3.695,14.462-1.628a1.7,1.7,0,0,1,.068.224C886.077,660.958,885,662.038,880.194,662.46Z" transform="translate(-871.177 -658.232)" fill="url(#linear-gradient-14)"/>
        <path id="Trazado_1943" data-name="Trazado 1943" d="M880.194,662.733c-4.69.412-8.948.072-9.016-1.468v0c5.265,1.633,9.66,1.633,14.53-1.4C886.078,661.232,885,662.312,880.194,662.733Z" transform="translate(-871.177 -658.506)" fill="#ec7448" opacity="0.2" style="mix-blend-mode: multiply;isolation: isolate"/>
      </g>
      <path id="Trazado_1944" data-name="Trazado 1944" d="M800.016,700.3c0-.115.011-.187.011-.187A.792.792,0,0,1,800.016,700.3Z" transform="translate(-12.575 -26.442)" fill="#ec7448" opacity="0.2" style="mix-blend-mode: multiply;isolation: isolate"/>
      <path id="Trazado_1945" data-name="Trazado 1945" d="M808.428,703.887l-.286-.779a1.84,1.84,0,0,0-2.411.2.021.021,0,0,0-.008.016c-.822,1.182-.5,5.407-1.275,7.017-.017.037-.037.072-.057.106s-.037.065-.057.1a.974.974,0,0,1-.319.328c-.023.011-.042.022-.065.034a.592.592,0,0,1-.072.027.157.157,0,0,1-.057.018.418.418,0,0,1-.077.012.626.626,0,0,1-.091.007h-.047c-1.772-.1-1.662-4.923-1.563-6.632-.145,1.644-.665,6.1-2.115,6-.986-.068-1.229-2.173-1.248-4.03-.164,1.74-.555,3.6-1.5,3.4-1.563-.338-1.987-3.976-2.055-4.695.05.654.2,3.653-1.153,3.763-1.522.126-1.777-4.775-1.651-8.835a4.3,4.3,0,0,1,1.32-3.134c-.411.875-.654,1.739-.3,2.248.7,1.013,1.587-.285,1.587-.285s-.13,2.189,1.9,2.124c1.538-.05,1.839-.792,1.893-1.145-.02.5.048,1.859,1.343,1.651A2.937,2.937,0,0,0,802.211,700s.255,2.029,1.587,2.093,2.283-1.587,2.283-1.587a8.35,8.35,0,0,0,2.812.091c.014.076.03.152.042.229A5.6,5.6,0,0,1,808.428,703.887Z" transform="translate(-11.273 -25.884)" fill="#ec7448" opacity="0.2" style="mix-blend-mode: multiply;isolation: isolate"/>
      <path id="Trazado_1946" data-name="Trazado 1946" d="M862.128,620.945l-3.231,7.237a4.7,4.7,0,0,1-.442.358,26.489,26.489,0,0,0-10.655-1.214L846.07,621.4a15.7,15.7,0,0,0,8,2.416A13.036,13.036,0,0,0,862.128,620.945Z" transform="translate(-20.333 -13.105)" fill="#ec7448" opacity="0.2" style="mix-blend-mode: multiply;isolation: isolate"/>
      <g id="Grupo_26608" data-name="Grupo 26608" transform="translate(814.878 562.759)">
        <path id="Trazado_1947" data-name="Trazado 1947" d="M869.317,593.051c-1.053,8.562-4.356,14.9-9.389,18.761a13.036,13.036,0,0,1-8.061,2.872,15.7,15.7,0,0,1-8-2.416c-7.408-4.49-12.993-15.631-10.067-35.55,0,0,21.18,3.14,32.406-9.988C866.209,566.731,870.968,579.616,869.317,593.051Z" transform="translate(-833.011 -566.731)" fill="url(#radial-gradient)"/>
      </g>
      <path id="Trazado_1948" data-name="Trazado 1948" d="M862.793,582.816c-.7-.042-1.109-2.653,1.976-3.858s7.012,1.414,6.81,1.573c-.344.274-3.117.012-5.575,1.062C864.3,582.32,863.689,582.871,862.793,582.816Z" transform="translate(-23.067 -5.978)" fill="#bf6019"/>
      <path id="Trazado_1949" data-name="Trazado 1949" d="M845.874,583.9c.568-1.026-1.319-3.217-4.38-3.419s-5.714,1.842-5.56,2.049,3.009.156,4.638.422C843.008,583.352,845.29,584.953,845.874,583.9Z" transform="translate(-18.625 -6.286)" fill="#bf6019"/>
      <path id="Trazado_1950" data-name="Trazado 1950" d="M869.011,597.488c.685,1.127,5.707-1.458,4.567-2.663S867.933,595.712,869.011,597.488Z" transform="translate(-24.17 -8.645)" fill="#ff554e" opacity="0.5"/>
      <path id="Trazado_1951" data-name="Trazado 1951" d="M839.008,599.411c.7-1.505-3.281-4.6-4.04-3.142S838.029,601.526,839.008,599.411Z" transform="translate(-18.446 -8.884)" fill="#ff554e" opacity="0.5"/>
      <path id="Trazado_1952" data-name="Trazado 1952" d="M849.621,609.44c.254-.063,6.785,1.713,11.035-.444,0,0-1.4,5.708-5.517,6.088S849.621,609.44,849.621,609.44Z" transform="translate(-20.931 -11.092)" fill="#fff"/>
      <g id="Grupo_26609" data-name="Grupo 26609" transform="translate(831.678 580.843)">
        <path id="Trazado_1953" data-name="Trazado 1953" d="M857.415,600.143a2.1,2.1,0,0,1-4.2-.01,5.833,5.833,0,0,1,.027-.685c.195-2.178,1.387-6.377,1.92-10.97,0,0,1.6,6.551,2.221,11.011A3.189,3.189,0,0,1,857.415,600.143Z" transform="translate(-853.215 -588.478)" fill="url(#linear-gradient-18)"/>
        <path id="Trazado_1954" data-name="Trazado 1954" d="M857.415,602.365a2.1,2.1,0,0,1-4.2-.01,5.833,5.833,0,0,1,.027-.685C854.308,602.645,856.219,603.406,857.415,602.365Z" transform="translate(-853.215 -590.7)" fill="#ec7448" opacity="0.2" style="mix-blend-mode: multiply;isolation: isolate"/>
      </g>
      <g id="Grupo_26610" data-name="Grupo 26610" transform="translate(839.134 578.123)">
        <path id="Trazado_1955" data-name="Trazado 1955" d="M870.566,590.9a4.843,4.843,0,0,1-1.871,1.508,7.548,7.548,0,0,1-3.768.522,11.923,11.923,0,0,1-2.744-.58,7.186,7.186,0,0,1,5.165-5.6C871.267,585.858,871.494,589.656,870.566,590.9Z" transform="translate(-862.182 -585.446)" fill="#fff"/>
        <path id="Trazado_1956" data-name="Trazado 1956" d="M869.358,591.371a2.7,2.7,0,0,1-.39,1.411,7.276,7.276,0,0,1-3.672.516,2.678,2.678,0,0,1-.8-1.927,2.435,2.435,0,1,1,4.859,0Z" transform="translate(-862.572 -585.808)" fill="#536566"/>
        <path id="Trazado_1957" data-name="Trazado 1957" d="M862.182,592.115a9.051,9.051,0,0,1,3.92-6.287c3.578-2.332,5.732,2.532,4.662,4.491,0,0-.172-3.869-3.4-3.093S862.182,592.115,862.182,592.115Z" transform="translate(-862.182 -585.208)" fill="#8d614f"/>
      </g>
      <g id="Grupo_26611" data-name="Grupo 26611" transform="translate(818.705 579.628)">
        <path id="Trazado_1958" data-name="Trazado 1958" d="M847.241,593.357c-.472.539-2.219.881-4.066.922h0a15.313,15.313,0,0,1-2.384-.13c-1.312-.184-2.389-.575-2.691-1.217-.484-1.02-.439-4.242,2.51-4.367S847.5,593.067,847.241,593.357Z" transform="translate(-837.657 -587.277)" fill="#fff"/>
        <path id="Trazado_1959" data-name="Trazado 1959" d="M844.817,592.462a2.346,2.346,0,0,1-1.261,2.079h0a15.313,15.313,0,0,1-2.384-.13,2.345,2.345,0,1,1,3.649-1.949Z" transform="translate(-838.038 -587.539)" fill="#536566"/>
        <path id="Trazado_1960" data-name="Trazado 1960" d="M847.2,593.1s-1.267-5.717-6.246-6.066c-5.09-.357-2.846,5.764-2.846,5.764s-.691-4.473,2.919-3.874S847.2,593.1,847.2,593.1Z" transform="translate(-837.614 -587.017)" fill="#8d614f"/>
      </g>
      <g id="Grupo_26614" data-name="Grupo 26614" transform="translate(816.017 554.929)">
        <path id="Trazado_1961" data-name="Trazado 1961" d="M849.756,561.421s3.186,7.321-5.828,8.532c0,0,6.6-.657,5.388-8.459Z" transform="translate(-835.989 -558.006)" fill="#182121"/>
        <path id="Trazado_1962" data-name="Trazado 1962" d="M870.547,557.314l.429.284s3,8.124-6.094,9.072C864.883,566.67,872.243,565.812,870.547,557.314Z" transform="translate(-839.519 -557.314)" fill="#182121"/>
        <g id="Grupo_26613" data-name="Grupo 26613">
          <g id="Grupo_26612" data-name="Grupo 26612">
            <path id="Trazado_1963" data-name="Trazado 1963" d="M834.4,561.943s18.772-3.679,31.01-4.629c0,0,2.269,8.087-5.833,9.386-6.722,1.078-7.272-6.658-7.272-6.658l-4.6.76s1.964,7.412-5.635,8.5C833.638,570.5,834.4,561.943,834.4,561.943Z" transform="translate(-834.381 -557.314)" fill="#222d2d"/>
            <path id="Trazado_1964" data-name="Trazado 1964" d="M857.457,560.234s9.05-1.459,10.761-1.4c0,0,.635,6.341-5.01,6.913S857.457,560.234,857.457,560.234Z" transform="translate(-838.268 -557.57)" fill="#182121"/>
            <path id="Trazado_1965" data-name="Trazado 1965" d="M836.156,563.869s8.753-1.648,10.021-1.9c0,0,2.738,5.867-4.431,6.976C836.007,569.829,836.156,563.869,836.156,563.869Z" transform="translate(-834.68 -558.098)" fill="#182121"/>
          </g>
          <path id="Trazado_1966" data-name="Trazado 1966" d="M864.842,559.222c-.019,0-5,5.576-5,5.576a6.02,6.02,0,0,0,2.043,1.011l5.131-6.847Z" transform="translate(-838.67 -557.592)" fill="#222d2d" opacity="0.6" style="mix-blend-mode: screen;isolation: isolate"/>
          <path id="Trazado_1967" data-name="Trazado 1967" d="M841.839,562.935l-4.275,4.731a2.174,2.174,0,0,0,1.207.993l5.215-6.133Z" transform="translate(-834.917 -558.192)" fill="#222d2d" opacity="0.6" style="mix-blend-mode: screen;isolation: isolate"/>
        </g>
      </g>
      <path id="Trazado_1968" data-name="Trazado 1968" d="M827.152,694.676a26.934,26.934,0,0,1-1.538-2.934c-2.283-5.727-12.229-9.394-12.229-9.394.1-.153.186-2.029.442-4.943C817.194,678.981,826.448,684.269,827.152,694.676Z" transform="translate(-14.827 -22.616)" fill="#a9aaaa"/>
      <g id="Grupo_26615" data-name="Grupo 26615" transform="translate(822.168 846.76)">
        <path id="Trazado_1969" data-name="Trazado 1969" d="M856.869,925.139a27.622,27.622,0,0,1-11.111-.175,15.118,15.118,0,0,1-3.98-1.6s.316-.571.8-1.393c1.111-1.9,3.124-5.13,4.273-5.837l-1.9-7.865a25.942,25.942,0,0,0,2.994.863c1.8.426,3.8.768,4.235.407l-1.016,7.229a46.233,46.233,0,0,1,4.776,6.3A8.742,8.742,0,0,1,856.869,925.139Z" transform="translate(-841.778 -908.268)" fill="#8e502a"/>
        <path id="Trazado_1970" data-name="Trazado 1970" d="M856.869,927.915s-8.878,1.9-15.091-1.777c0,0,.316-.571.8-1.393a27.229,27.229,0,0,0,13.359,1.1A8.742,8.742,0,0,1,856.869,927.915Z" transform="translate(-841.778 -911.044)" fill="#8e502a" opacity="0.4" style="mix-blend-mode: multiply;isolation: isolate"/>
        <path id="Trazado_1971" data-name="Trazado 1971" d="M847.908,917.16a11.272,11.272,0,0,0-2.15,7.8,15.118,15.118,0,0,1-3.98-1.6s.316-.571.8-1.393c1.111-1.9,3.124-5.13,4.273-5.837l-1.9-7.865a25.942,25.942,0,0,0,2.994.863C847.969,911.376,847.908,917.16,847.908,917.16Z" transform="translate(-841.778 -908.268)" fill="#8e502a" opacity="0.2" style="mix-blend-mode: multiply;isolation: isolate"/>
      </g>
      <g id="Grupo_26616" data-name="Grupo 26616" transform="translate(887.498 851.056)">
        <path id="Trazado_1972" data-name="Trazado 1972" d="M947.869,924.343c-5.821,2.91-11.867,2.373-16.154,1.289a27.824,27.824,0,0,1-5.914-2.176l-.673-1.146-4.783-8.115,2.952-.305,4.406-.456.507,6.977s2.156-3.043,9.006-2.918c5.015.092,8.4,3.725,9.851,5.658A12.283,12.283,0,0,1,947.869,924.343Z" transform="translate(-920.344 -913.434)" fill="#8e502a"/>
        <path id="Trazado_1973" data-name="Trazado 1973" d="M948.838,926.141c-10.654,5.326-22.068-.887-22.068-.887l-.673-1.146c3.641.693,16.1,2.82,21.939.842A12.288,12.288,0,0,1,948.838,926.141Z" transform="translate(-921.313 -915.232)" fill="#8e502a" opacity="0.4" style="mix-blend-mode: multiply;isolation: isolate"/>
        <path id="Trazado_1974" data-name="Trazado 1974" d="M931.714,925.724a27.822,27.822,0,0,1-5.914-2.176l-.673-1.146-4.783-8.115,2.952-.305A37.5,37.5,0,0,0,931.714,925.724Z" transform="translate(-920.344 -913.526)" fill="#8e502a" opacity="0.2" style="mix-blend-mode: multiply;isolation: isolate"/>
      </g>
      <path id="Trazado_1975" data-name="Trazado 1975" d="M813.421,707.949V800.2a1.179,1.179,0,0,1-1.192,1.168.87.87,0,0,1-.2-.019l-.947-2.628c.065-.255,1.176-24.862,1.286-32.217s.3-37.985.3-37.985S812.37,714,813.421,707.949Z" transform="translate(-14.439 -27.762)" fill="#697275" opacity="0.3" style="mix-blend-mode: multiply;isolation: isolate"/>
      <g id="Grupo_26623" data-name="Grupo 26623" transform="translate(735.237 748.334)">
        <g id="Grupo_26618" data-name="Grupo 26618" transform="translate(65.844 108.498)">
          <g id="Grupo_26617" data-name="Grupo 26617">
            <path id="Trazado_1976" data-name="Trazado 1976" d="M825.148,923.128a4.55,4.55,0,1,1-6.872-1.863,4.463,4.463,0,0,1,.891-.511A4.55,4.55,0,0,1,825.148,923.128Z" transform="translate(-816.419 -920.381)" fill="#2b3d45"/>
            <path id="Trazado_1977" data-name="Trazado 1977" d="M824,924.756c.29,1.836-.665,3.511-2.133,3.743s-2.89-1.069-3.18-2.906.666-3.51,2.133-3.742S823.71,922.921,824,924.756Z" transform="translate(-816.793 -920.624)" fill="#54666b"/>
          </g>
          <path id="Trazado_1978" data-name="Trazado 1978" d="M822.2,925.628c.235.544.127,1.112-.24,1.271s-.854-.153-1.089-.7-.126-1.111.242-1.271S821.964,925.085,822.2,925.628Z" transform="translate(-817.148 -921.14)" fill="#9b989f"/>
          <path id="Trazado_1979" data-name="Trazado 1979" d="M821.289,929.651a4.55,4.55,0,0,1-3.013-8.206C817.572,924.286,817.345,927.912,821.289,929.651Z" transform="translate(-816.419 -920.56)" fill="#2b3d45" opacity="0.4" style="mix-blend-mode: multiply;isolation: isolate"/>
        </g>
        <g id="Grupo_26620" data-name="Grupo 26620" transform="translate(39.006 115.546)">
          <g id="Grupo_26619" data-name="Grupo 26619">
            <path id="Trazado_1980" data-name="Trazado 1980" d="M792.154,930.849a4.351,4.351,0,0,1-1.3,6.015,4.407,4.407,0,0,1-1.343.576,4.351,4.351,0,0,1-4.135-7.266,4.149,4.149,0,0,1,.758-.623A4.352,4.352,0,0,1,792.154,930.849Z" transform="translate(-784.145 -928.856)" fill="#2b3d45"/>
            <path id="Trazado_1981" data-name="Trazado 1981" d="M791.283,932.636c.563,1.687-.074,3.418-1.422,3.868s-2.9-.554-3.458-2.241.074-3.418,1.422-3.867S790.722,930.95,791.283,932.636Z" transform="translate(-784.491 -929.097)" fill="#54666b"/>
          </g>
          <path id="Trazado_1982" data-name="Trazado 1982" d="M789.653,933.809c.307.476.3,1.029-.027,1.237s-.832-.01-1.138-.485-.294-1.029.027-1.236S789.346,933.335,789.653,933.809Z" transform="translate(-784.839 -929.596)" fill="#9b989f"/>
          <path id="Trazado_1983" data-name="Trazado 1983" d="M789.514,937.708a4.351,4.351,0,0,1-4.135-7.266C785.161,933.233,785.519,936.689,789.514,937.708Z" transform="translate(-784.145 -929.123)" fill="#2b3d45" opacity="0.4" style="mix-blend-mode: multiply;isolation: isolate"/>
        </g>
        <g id="Grupo_26621" data-name="Grupo 26621" transform="translate(0 100.919)">
          <circle id="Elipse_195" data-name="Elipse 195" cx="3.835" cy="3.835" r="3.835" fill="#2b3d45"/>
          <path id="Trazado_1984" data-name="Trazado 1984" d="M743.656,915.3a2.324,2.324,0,1,1-2.266-2.836A2.6,2.6,0,0,1,743.656,915.3Z" transform="translate(-737.554 -911.468)" fill="#54666b" opacity="0.5" style="mix-blend-mode: multiply;isolation: isolate"/>
        </g>
        <path id="Trazado_1985" data-name="Trazado 1985" d="M810.047,899.674c-.235.316-3.976,2.12-9.029,4.034-1.1.418-2.268.841-3.47,1.252a83.353,83.353,0,0,1-10.772,2.989,36.648,36.648,0,0,1-6.457.758,17.435,17.435,0,0,1-2.234-.091c-3.862-.414-9.474-2.077-15.255-4.215-10.156-3.752-20.82-8.962-23.366-11.385-1.872-1.784-1.522-45.088-1.522-61.83,0-8.412,2.017-18.119,7.645-26.01a34.78,34.78,0,0,1,18.962-13.246,49.626,49.626,0,0,1,9.92-1.838c.072-.008.145-.012.216-.016,10.152-.84,17.2,1.488,22.1,5.061,8.77,6.4,10.616,16.8,10.981,20.152C808.336,820.531,810.619,898.913,810.047,899.674Z" transform="translate(-737.351 -789.902)" fill="#f75606"/>
        <path id="Trazado_1986" data-name="Trazado 1986" d="M811.6,899.673c-.437.582-12.75,6.21-23.271,8.276,1.393-22.65,2.941-67.013-3.422-92.638-3.671-14.786-28.163-15.657-37.766-10.136,5.57-7.82,14.682-13.854,28.883-15.083,28.537-2.474,32.722,19.957,33.292,25.2S812.173,898.912,811.6,899.673Z" transform="translate(-738.905 -789.902)" fill="#f75606" opacity="0.5" style="mix-blend-mode: multiply;isolation: isolate"/>
        <g id="Grupo_26622" data-name="Grupo 26622" transform="translate(27.2 0.4)">
          <path id="Trazado_1987" data-name="Trazado 1987" d="M806.414,903.788c-1.1.418-2.268.841-3.47,1.252.594-21.408,1.685-79.668-3.448-94.15-3.964-11.194-15.87-18.35-29.549-18.88a31.274,31.274,0,0,1,7.9-1.625c.072-.007-.072.005,0,0,12.578,2.462,21.139,8.265,24.88,19.36C807.777,824.728,807.039,881.175,806.414,903.788Z" transform="translate(-769.947 -790.383)" fill="#5b2f25"/>
        </g>
        <path id="Trazado_1988" data-name="Trazado 1988" d="M744.834,832.813c-.754,1.331.372,6.088.38,6.658s24.8,7.61,30.575,6.469l.823-6.5Z" transform="translate(-738.473 -797.131)" fill="#ef4900"/>
        <path id="Trazado_1989" data-name="Trazado 1989" d="M815.095,900.734c-.235.316-3.976,2.12-9.029,4.034-1.1.418-2.268.841-3.47,1.252a83.353,83.353,0,0,1-10.772,2.989,36.648,36.648,0,0,1-6.457.758,17.435,17.435,0,0,1-2.234-.091c-3.862-.414-9.474-2.077-15.255-4.215,23.39-18.447,30.413-85.92,33.952-109.263,8.77,6.4,10.616,16.8,10.981,20.152C813.383,821.591,815.666,899.973,815.095,900.734Z" transform="translate(-742.398 -790.962)" fill="#ef4900" opacity="0.4" style="mix-blend-mode: multiply;isolation: isolate"/>
      </g>
    </g>
  </g>
</svg>
