<svg xmlns="http://www.w3.org/2000/svg" xmlns:xlink="http://www.w3.org/1999/xlink" width="110" height="65" viewBox="0 0 110 65">
  <defs>
    <clipPath id="clip-path">
      <rect id="Rectángulo_4964" data-name="Rectángulo 4964" width="110" height="65" transform="translate(727 1120)" fill="#fff" stroke="#707070" stroke-width="1"/>
    </clipPath>
  </defs>
  <g id="Enmascarar_grupo_30" data-name="Enmascarar grupo 30" transform="translate(-727 -1120)" clip-path="url(#clip-path)">
    <g id="etiqueta-de-precio" transform="translate(749.499 1119.999)">
      <g id="Grupo_28542" data-name="Grupo 28542">
        <path id="Trazado_4635" data-name="Trazado 4635" d="M44.881,15.054,27,40.959,24.47,61.682,50.943,65l4.409-36.62Z" fill="#ff641a"/>
      </g>
      <path id="Trazado_4636" data-name="Trazado 4636" d="M63.33,1.627a5.725,5.725,0,0,0-3.8-1.62,5.67,5.67,0,0,0-4.283,1.62L42.037,14.885l1.31,1.31,1.383,1.383,3.924-3.969A9.537,9.537,0,0,0,60.637,12.4L63.33,9.705a5.718,5.718,0,0,0,0-8.079ZM60.637,7.012,57.945,9.705a5.719,5.719,0,0,1-6.5,1.116l6.5-6.5a1.9,1.9,0,0,1,2.693,2.693Z" fill="#516373"/>
      <path id="Trazado_4637" data-name="Trazado 4637" d="M48.654,13.609A9.537,9.537,0,0,0,60.637,12.4L63.33,9.705a5.718,5.718,0,0,0,0-8.079,5.725,5.725,0,0,0-3.8-1.62L43.347,16.195l1.383,1.383Zm9.29-9.289a1.9,1.9,0,0,1,2.693,2.693L57.945,9.705a5.719,5.719,0,0,1-6.5,1.116Z" fill="#3e4d59"/>
      <path id="Trazado_4638" data-name="Trazado 4638" d="M45.194,14.345H26.436L0,40.69l9.426,9.426,9.426,9.426L45.2,33.179V14.345Z" fill="#ffe680"/>
      <path id="Trazado_4639" data-name="Trazado 4639" d="M45.2,33.179V14.345L9.426,50.116l9.426,9.426Z" fill="#ffc550"/>
      <path id="Trazado_4640" data-name="Trazado 4640" d="M35.3,27l-1.382-1.382L32.61,24.31l-2.965,2.965a5.678,5.678,0,0,0-6.5,9.116,1.9,1.9,0,1,1-2.657.038l-2.7-2.693A5.681,5.681,0,0,0,16.725,40.2l-2.966,2.966,1.311,1.311,1.382,1.382,2.965-2.965a5.573,5.573,0,0,0,6.462-1.074,5.718,5.718,0,0,0-.035-8.117,1.9,1.9,0,1,1,2.727.039l2.693,2.693a5.676,5.676,0,0,0,1.074-6.462Z" fill="#ff7b4a"/>
      <g id="Grupo_28543" data-name="Grupo 28543">
        <path id="Trazado_4641" data-name="Trazado 4641" d="M28.571,33.737l2.693,2.693a5.676,5.676,0,0,0,1.074-6.462L35.3,27l-1.382-1.382-5.387,5.387a1.906,1.906,0,0,1,.038,2.729Z" fill="#ff435b"/>
        <path id="Trazado_4642" data-name="Trazado 4642" d="M19.416,42.889a5.573,5.573,0,0,0,6.462-1.074,5.718,5.718,0,0,0-.035-8.117L23.15,36.392a1.9,1.9,0,1,1-2.692,2.692l-5.389,5.389,1.382,1.382Z" fill="#ff435b"/>
      </g>
    </g>
  </g>
</svg>
