<svg xmlns="http://www.w3.org/2000/svg" xmlns:xlink="http://www.w3.org/1999/xlink" width="66.492" height="83.826" viewBox="0 0 66.492 83.826">
  <defs>
    <linearGradient id="linear-gradient" y1="0.5" x2="1" y2="0.5" gradientUnits="objectBoundingBox">
      <stop offset="0" stop-color="#e3d969"/>
      <stop offset="0.154" stop-color="#e4be70"/>
      <stop offset="0.404" stop-color="#e6997b"/>
      <stop offset="0.636" stop-color="#e77e83"/>
      <stop offset="0.842" stop-color="#e86d88"/>
      <stop offset="1" stop-color="#e9688a"/>
    </linearGradient>
    <linearGradient id="linear-gradient-2" x1="0" y1="0.5" x2="1" y2="0.5" xlink:href="#linear-gradient"/>
  </defs>
  <g id="Grupo_27628" data-name="Grupo 27628" transform="translate(-9.064 -180.518)">
    <g id="Grupo_27550" data-name="Grupo 27550" transform="translate(9.064 180.518)">
      <g id="Grupo_27514" data-name="Grupo 27514" opacity="0.1">
        <path id="Trazado_3474" data-name="Trazado 3474" d="M46.962,181.168c2.622-1.514,4.76-.3,4.768,2.716l0,.684a10.444,10.444,0,0,1-4.739,8.208L13.834,211.919c-2.626,1.518-4.76.3-4.768-2.717l0-.684a10.435,10.435,0,0,1,4.738-8.205Z" transform="translate(-9.064 -180.518)"/>
      </g>
      <g id="Grupo_27549" data-name="Grupo 27549" transform="translate(5.464 3.169)">
        <path id="Trazado_3475" data-name="Trazado 3475" d="M16.74,210.47c.009-.085.018-.169.031-.255s.031-.2.049-.293c.013-.062.023-.123.037-.186s.03-.127.048-.192c.02-.083.042-.167.067-.25.012-.049.029-.1.044-.147.031-.1.062-.194.1-.29.014-.039.027-.078.042-.115.049-.132.1-.264.157-.394.009-.019.018-.036.027-.055.049-.111.1-.223.156-.333.02-.04.039-.079.061-.119.053-.1.109-.206.166-.308.016-.024.028-.049.042-.075.072-.124.147-.245.225-.365.022-.036.045-.069.069-.1q.086-.127.174-.252l.1-.139c.053-.07.107-.138.161-.205s.093-.115.14-.17.09-.1.134-.153c.081-.088.16-.173.242-.257.05-.05.1-.1.15-.151l.124-.114c.066-.061.133-.119.2-.176.042-.035.082-.07.125-.1.074-.059.149-.115.223-.17.037-.025.074-.054.109-.079.113-.077.227-.151.342-.218s.22-.12.328-.17c.029-.013.057-.027.086-.038.06-.028.119-.049.179-.072.084-.032.168-.062.251-.088.054-.015.108-.031.161-.044s.1-.022.144-.03c.066-.013.131-.023.194-.03l.1-.01a2.063,2.063,0,0,1,.231,0h.055a1.854,1.854,0,0,1,.264.034c.021,0,.042.01.063.014a1.962,1.962,0,0,1,.2.057c.018.007.038.013.055.021a1.636,1.636,0,0,1,.237.111c-.644-.377-.644-.377-1.343-.779a.131.131,0,0,1-.02-.013c-.059-.031-.118-.061-.18-.088l-.037-.012-.055-.022c-.032-.01-.062-.022-.1-.032s-.068-.016-.1-.024l-.066-.015a.2.2,0,0,0-.033-.007,1.743,1.743,0,0,0-.217-.026h-.068c-.056,0-.112,0-.168,0-.021,0-.042.005-.062.007s-.068.008-.1.01-.068.006-.1.01-.061.014-.091.02c-.048.009-.1.019-.143.03-.027.008-.054.01-.081.017s-.055.02-.081.029c-.083.024-.167.053-.251.086-.03.012-.059.019-.089.032s-.059.026-.088.039l-.086.039c-.107.051-.217.106-.328.172s-.229.139-.342.216l-.108.079c-.075.055-.151.112-.225.171-.042.033-.082.067-.124.1-.068.056-.134.114-.2.174-.042.039-.084.077-.126.117-.024.023-.049.045-.074.068s-.048.053-.073.079c-.084.085-.166.173-.246.263-.024.027-.049.049-.073.076s-.037.048-.057.069c-.049.059-.1.119-.146.179-.029.036-.06.071-.088.107l0,0h0l0,0c-.024.031-.048.065-.072.1s-.065.088-.1.133-.046.062-.068.094c-.036.052-.069.1-.106.157-.025.036-.049.073-.073.11-.01.015-.021.029-.029.043q-.1.148-.185.3l-.011.017c-.012.022-.022.042-.034.061-.042.074-.085.147-.124.223-.018.034-.035.068-.052.1l-.055.107c-.016.033-.032.064-.047.1-.038.079-.074.157-.108.236-.01.023-.022.044-.03.067l0,.01c-.047.107-.09.213-.132.321l-.022.062c-.015.037-.028.075-.041.113-.019.054-.041.109-.058.166-.015.04-.026.081-.038.122s-.031.1-.045.147c-.01.033-.021.064-.029.1-.015.054-.026.108-.04.164l-.046.181c0,.022-.011.043-.015.065-.01.043-.014.088-.023.13-.017.094-.035.192-.049.287,0,.026-.01.053-.013.08-.008.059-.012.117-.017.176,0,.043-.009.085-.012.129-.011.133-.017.265-.017.394a2.512,2.512,0,0,0,1.045,2.3l1.345.78a2.5,2.5,0,0,1-1.045-2.3c0-.131.006-.264.015-.4C16.731,210.555,16.736,210.512,16.74,210.47Z" transform="translate(-15.367 -186.749)" fill="#d66767"/>
        <g id="Grupo_27515" data-name="Grupo 27515" transform="translate(1.345 17.565)">
          <path id="Trazado_3476" data-name="Trazado 3476" d="M20.492,204.925c1.978-1.141,3.589-.225,3.6,2.049a7.873,7.873,0,0,1-3.573,6.187c-1.979,1.142-3.591.228-3.6-2.047A7.876,7.876,0,0,1,20.492,204.925Z" transform="translate(-16.919 -204.434)" fill="url(#linear-gradient)"/>
        </g>
        <path id="Trazado_3477" data-name="Trazado 3477" d="M51.42,185.113c.062-.024.126-.047.187-.064a1.2,1.2,0,0,1,.126-.036c.035-.009.07-.016.1-.023.051-.009.1-.018.149-.023l.079-.009a1.461,1.461,0,0,1,.173,0,.318.318,0,0,1,.041,0,1.286,1.286,0,0,1,.2.026.368.368,0,0,1,.042.009q.079.02.153.044l.045.016a1.267,1.267,0,0,1,.177.084l-.015-.009-.769-.446-.56-.326-.014-.008a1.271,1.271,0,0,0-.138-.068l-.026-.008c-.014-.007-.029-.011-.044-.017s-.047-.017-.071-.024l.016.01h0l-.017-.01-.078-.02c-.016,0-.031-.007-.046-.01s-.017-.005-.026-.006c-.054-.008-.107-.016-.164-.019H50.9c-.042,0-.084,0-.127,0a.284.284,0,0,0-.046,0l-.078.008a.578.578,0,0,0-.078.008c-.023,0-.048.011-.07.015l-.106.023c-.022.005-.042.008-.062.014s-.042.015-.062.021c-.063.02-.127.042-.192.066-.021.01-.043.014-.066.024s-.024.012-.037.017a3.2,3.2,0,0,0-.342.17l-21,12.123a4.218,4.218,0,0,0-.423.286l-.069.052c-.131.1-.257.215-.381.334-.01.011-.022.019-.032.03s-.039.042-.058.061c-.062.062-.12.125-.178.191-.02.022-.041.041-.06.062s-.029.037-.045.055c-.036.042-.072.088-.107.131-.022.028-.044.053-.068.081s-.032.046-.049.068-.055.073-.081.111c-.016.021-.034.042-.049.066s-.052.076-.078.115-.039.058-.058.087l-.021.031c-.048.075-.094.151-.14.228a.071.071,0,0,1-.008.016l-.026.045c-.031.056-.062.111-.092.166-.014.024-.025.049-.038.075s-.029.056-.043.085-.023.046-.035.068c-.033.068-.063.138-.094.2l-.008.018-.006.012c-.034.081-.068.16-.1.243l-.017.047-.03.083c-.014.041-.03.084-.045.125s-.019.067-.029.1-.022.068-.032.1-.015.049-.021.073c-.013.042-.022.085-.032.127s-.023.089-.033.135c0,.016-.009.032-.012.049-.007.032-.01.065-.017.1-.013.072-.027.145-.037.218,0,.021-.008.04-.01.059s0,.036,0,.055a4.019,4.019,0,0,0-.031.474l0,2.021a1.9,1.9,0,0,0,.79,1.736l1.344.779a1.889,1.889,0,0,1-.789-1.734l-.006-2.021a4.255,4.255,0,0,1,.031-.475c0-.038.009-.076.014-.114.01-.072.025-.145.038-.216.009-.049.017-.1.029-.147s.023-.089.032-.133c.017-.068.035-.134.054-.2l.031-.1c.023-.076.049-.151.075-.225.01-.028.019-.057.03-.085.038-.1.078-.2.123-.3l0-.01c.042-.1.089-.194.136-.291l.035-.066c.043-.087.088-.172.137-.255l.023-.04c.055-.1.112-.19.173-.282.016-.024.033-.049.049-.075.045-.064.089-.128.135-.191.024-.034.049-.069.075-.1.041-.055.083-.108.126-.16s.067-.083.1-.123.069-.079.1-.117c.06-.068.12-.131.18-.2l.089-.086a4.3,4.3,0,0,1,.381-.337l.067-.05a4.423,4.423,0,0,1,.425-.289l21-12.121a3.246,3.246,0,0,1,.341-.168C51.348,185.14,51.385,185.126,51.42,185.113Z" transform="translate(-16.774 -184.173)" fill="#d66767"/>
        <g id="Grupo_27516" data-name="Grupo 27516" transform="translate(10.504 0.78)">
          <path id="Trazado_3478" data-name="Trazado 3478" d="M51.177,185.444c1.495-.863,2.712-.172,2.717,1.545l.006,2.02a5.948,5.948,0,0,1-2.7,4.672L30.2,205.8c-1.494.863-2.709.171-2.713-1.547l-.006-2.021a5.949,5.949,0,0,1,2.7-4.671Z" transform="translate(-27.484 -185.073)" fill="url(#linear-gradient-2)"/>
        </g>
        <g id="Grupo_27547" data-name="Grupo 27547" transform="translate(15.177 3.363)">
          <g id="Grupo_27517" data-name="Grupo 27517" transform="translate(1.39 11.049)">
            <path id="Trazado_3479" data-name="Trazado 3479" d="M34.827,200.8l0,1.5-.349.2,0-1.5Z" transform="translate(-34.478 -200.797)" fill="#993328"/>
          </g>
          <g id="Grupo_27518" data-name="Grupo 27518" transform="translate(0 11.852)">
            <path id="Trazado_3480" data-name="Trazado 3480" d="M33.22,201.724l0,1.5-.347.2,0-1.5Z" transform="translate(-32.874 -201.724)" fill="#993328"/>
          </g>
          <g id="Grupo_27519" data-name="Grupo 27519" transform="translate(3.248 9.977)">
            <path id="Trazado_3481" data-name="Trazado 3481" d="M36.97,199.56l0,1.5-.349.2,0-1.5Z" transform="translate(-36.62 -199.56)" fill="#993328"/>
          </g>
          <g id="Grupo_27520" data-name="Grupo 27520" transform="translate(2.55 9.445)">
            <path id="Trazado_3482" data-name="Trazado 3482" d="M36.161,198.947l.01,3.334-.346.2-.009-3.335Z" transform="translate(-35.815 -198.947)" fill="#993328"/>
          </g>
          <g id="Grupo_27521" data-name="Grupo 27521" transform="translate(0.693 10.516)">
            <path id="Trazado_3483" data-name="Trazado 3483" d="M34.021,200.183l.01,3.334-.349.2-.009-3.333Z" transform="translate(-33.673 -200.183)" fill="#993328"/>
          </g>
          <g id="Grupo_27522" data-name="Grupo 27522" transform="translate(1.969 9.045)">
            <path id="Trazado_3484" data-name="Trazado 3484" d="M35.493,198.485l.013,4.934-.345.2-.014-4.936Z" transform="translate(-35.146 -198.485)" fill="#993328"/>
          </g>
          <g id="Grupo_27523" data-name="Grupo 27523" transform="translate(14.505 3.41)">
            <path id="Trazado_3485" data-name="Trazado 3485" d="M49.954,191.985l0,1.505-.349.2,0-1.5Z" transform="translate(-49.605 -191.985)" fill="#993328"/>
          </g>
          <g id="Grupo_27524" data-name="Grupo 27524" transform="translate(13.112 4.214)">
            <path id="Trazado_3486" data-name="Trazado 3486" d="M48.347,192.913l0,1.505-.35.2,0-1.505Z" transform="translate(-47.999 -192.913)" fill="#993328"/>
          </g>
          <g id="Grupo_27525" data-name="Grupo 27525" transform="translate(16.361 2.337)">
            <path id="Trazado_3487" data-name="Trazado 3487" d="M52.1,190.748l.006,1.506-.35.2,0-1.506Z" transform="translate(-51.747 -190.748)" fill="#993328"/>
          </g>
          <g id="Grupo_27526" data-name="Grupo 27526" transform="translate(15.663 1.807)">
            <path id="Trazado_3488" data-name="Trazado 3488" d="M51.289,190.137l.008,3.333-.346.2-.009-3.333Z" transform="translate(-50.941 -190.137)" fill="#993328"/>
          </g>
          <g id="Grupo_27527" data-name="Grupo 27527" transform="translate(13.806 2.88)">
            <path id="Trazado_3489" data-name="Trazado 3489" d="M49.147,191.374l.009,3.332-.347.2-.009-3.332Z" transform="translate(-48.8 -191.374)" fill="#993328"/>
          </g>
          <g id="Grupo_27528" data-name="Grupo 27528" transform="translate(15.083 1.41)">
            <path id="Trazado_3490" data-name="Trazado 3490" d="M50.617,189.679l.014,4.932-.344.2-.014-4.934Z" transform="translate(-50.272 -189.679)" fill="#993328"/>
          </g>
          <g id="Grupo_27529" data-name="Grupo 27529" transform="translate(17.057 2.004)">
            <path id="Trazado_3491" data-name="Trazado 3491" d="M52.9,190.363l.007,2.333-.349.2-.007-2.333Z" transform="translate(-52.55 -190.363)" fill="#993328"/>
          </g>
          <g id="Grupo_27530" data-name="Grupo 27530" transform="translate(18.914 0.932)">
            <path id="Trazado_3492" data-name="Trazado 3492" d="M55.041,189.127l0,1.5-.348.2-.005-1.5Z" transform="translate(-54.691 -189.127)" fill="#993328"/>
          </g>
          <g id="Grupo_27531" data-name="Grupo 27531" transform="translate(18.215 0.4)">
            <path id="Trazado_3493" data-name="Trazado 3493" d="M54.235,188.514l.008,3.334-.348.2-.009-3.333Z" transform="translate(-53.886 -188.514)" fill="#993328"/>
          </g>
          <g id="Grupo_27532" data-name="Grupo 27532" transform="translate(17.635)">
            <path id="Trazado_3494" data-name="Trazado 3494" d="M53.563,188.052l.015,4.935-.348.2-.014-4.935Z" transform="translate(-53.216 -188.052)" fill="#993328"/>
          </g>
          <g id="Grupo_27533" data-name="Grupo 27533" transform="translate(4.637 7.839)">
            <path id="Trazado_3495" data-name="Trazado 3495" d="M38.57,197.094l.008,2.836-.346.2-.008-2.837Z" transform="translate(-38.223 -197.094)" fill="#993328"/>
          </g>
          <g id="Grupo_27534" data-name="Grupo 27534" transform="translate(6.498 8.101)">
            <path id="Trazado_3496" data-name="Trazado 3496" d="M40.716,197.4l.008,2.866-.346.2-.008-2.867Z" transform="translate(-40.369 -197.397)" fill="#993328"/>
          </g>
          <g id="Grupo_27535" data-name="Grupo 27535" transform="translate(5.797 7.569)">
            <path id="Trazado_3497" data-name="Trazado 3497" d="M39.91,196.783l.01,3.334-.35.2-.009-3.332Z" transform="translate(-39.561 -196.783)" fill="#993328"/>
          </g>
          <g id="Grupo_27536" data-name="Grupo 27536" transform="translate(7.884 5.629)">
            <path id="Trazado_3498" data-name="Trazado 3498" d="M42.318,194.545l.008,3.17-.349.2-.009-3.172Z" transform="translate(-41.969 -194.545)" fill="#993328"/>
          </g>
          <g id="Grupo_27537" data-name="Grupo 27537" transform="translate(7.19 6.765)">
            <path id="Trazado_3499" data-name="Trazado 3499" d="M41.518,195.856l.009,3.333-.348.2-.011-3.334Z" transform="translate(-41.168 -195.856)" fill="#993328"/>
          </g>
          <g id="Grupo_27538" data-name="Grupo 27538" transform="translate(3.94 8.641)">
            <path id="Trazado_3500" data-name="Trazado 3500" d="M37.769,198.02l.009,3.333-.348.2-.011-3.335Z" transform="translate(-37.419 -198.02)" fill="#993328"/>
          </g>
          <g id="Grupo_27539" data-name="Grupo 27539" transform="translate(5.218 7.17)">
            <path id="Trazado_3501" data-name="Trazado 3501" d="M39.239,196.322l.014,4.935-.344.2-.015-4.935Z" transform="translate(-38.894 -196.322)" fill="#993328"/>
          </g>
          <g id="Grupo_27540" data-name="Grupo 27540" transform="translate(9.282 6.492)">
            <path id="Trazado_3502" data-name="Trazado 3502" d="M43.931,195.54l0,1.5-.35.2,0-1.5Z" transform="translate(-43.581 -195.54)" fill="#993328"/>
          </g>
          <g id="Grupo_27541" data-name="Grupo 27541" transform="translate(11.14 5.421)">
            <path id="Trazado_3503" data-name="Trazado 3503" d="M46.073,194.3l.008,2.866-.35.2-.007-2.865Z" transform="translate(-45.725 -194.305)" fill="#993328"/>
          </g>
          <g id="Grupo_27542" data-name="Grupo 27542" transform="translate(10.44 4.889)">
            <path id="Trazado_3504" data-name="Trazado 3504" d="M45.265,193.691l.008,3.335-.345.2-.011-3.334Z" transform="translate(-44.917 -193.691)" fill="#993328"/>
          </g>
          <g id="Grupo_27543" data-name="Grupo 27543" transform="translate(12.532 4.616)">
            <path id="Trazado_3505" data-name="Trazado 3505" d="M47.677,193.377l0,1.5-.346.2-.005-1.5Z" transform="translate(-47.33 -193.377)" fill="#993328"/>
          </g>
          <g id="Grupo_27544" data-name="Grupo 27544" transform="translate(11.838 5.752)">
            <path id="Trazado_3506" data-name="Trazado 3506" d="M46.877,194.686l0,1.667-.348.2,0-1.668Z" transform="translate(-46.529 -194.686)" fill="#993328"/>
          </g>
          <g id="Grupo_27545" data-name="Grupo 27545" transform="translate(8.584 5.961)">
            <path id="Trazado_3507" data-name="Trazado 3507" d="M43.122,194.928l.01,3.334-.347.2-.01-3.335Z" transform="translate(-42.775 -194.928)" fill="#993328"/>
          </g>
          <g id="Grupo_27546" data-name="Grupo 27546" transform="translate(9.861 4.49)">
            <path id="Trazado_3508" data-name="Trazado 3508" d="M44.593,193.231l.015,4.935-.346.2-.013-4.934Z" transform="translate(-44.249 -193.231)" fill="#993328"/>
          </g>
        </g>
        <g id="Grupo_27548" data-name="Grupo 27548" transform="translate(4.167 21.054)">
          <path id="Trazado_3509" data-name="Trazado 3509" d="M20.174,208.539l3.07-.08-3.06,3.744Z" transform="translate(-20.174 -208.459)" fill="#993328"/>
        </g>
      </g>
    </g>
    <g id="Grupo_27551" data-name="Grupo 27551" transform="translate(10.714 197.038)" opacity="0.1">
      <path id="Trazado_3510" data-name="Trazado 3510" d="M48.865,200.225c2.622-1.514,4.759-.3,4.768,2.717l0,.683a10.445,10.445,0,0,1-4.739,8.207L15.737,230.977c-2.626,1.517-4.761.3-4.769-2.718v-.684a10.433,10.433,0,0,1,4.738-8.206Z" transform="translate(-10.967 -199.574)"/>
    </g>
    <g id="Grupo_27586" data-name="Grupo 27586" transform="translate(16.178 200.207)">
      <path id="Trazado_3511" data-name="Trazado 3511" d="M18.643,229.527c.008-.085.017-.17.03-.255s.031-.2.049-.293c.012-.062.023-.125.037-.186s.03-.127.047-.192c.021-.083.042-.166.067-.25.014-.049.029-.1.045-.147.031-.1.062-.194.1-.292.015-.037.027-.076.042-.114.05-.133.1-.264.159-.394.007-.018.016-.036.025-.055.05-.112.1-.224.157-.334.019-.04.039-.078.06-.118.053-.1.109-.206.166-.308.015-.024.028-.049.042-.075q.108-.185.225-.365l.07-.1c.057-.084.115-.168.174-.251l.1-.139c.054-.07.107-.138.161-.2s.093-.116.14-.172l.134-.153c.08-.088.16-.173.243-.257.049-.051.1-.1.15-.15s.082-.078.123-.114c.066-.061.133-.121.2-.176.042-.036.082-.07.125-.1.074-.06.149-.115.224-.17l.109-.078c.113-.078.226-.152.342-.218s.22-.12.328-.171l.086-.039c.06-.028.12-.048.179-.071.085-.033.168-.062.251-.087.055-.016.108-.031.162-.045s.1-.022.144-.03c.066-.014.13-.023.193-.03.034,0,.069-.009.1-.011.079-.005.155-.006.231-.005.017,0,.037,0,.055,0a2.1,2.1,0,0,1,.262.034c.023,0,.043.01.064.015a1.9,1.9,0,0,1,.2.057l.055.021a1.562,1.562,0,0,1,.238.112c-.644-.377-.644-.377-1.344-.781l-.019-.011a1.927,1.927,0,0,0-.18-.088l-.038-.013-.056-.02c-.031-.011-.062-.023-.1-.033s-.068-.016-.1-.024l-.066-.015c-.01,0-.023-.006-.034-.007a1.6,1.6,0,0,0-.216-.026H22.52c-.055,0-.112,0-.168,0-.021,0-.042,0-.062.006s-.068.005-.1.01-.068.005-.1.01-.061.014-.09.02c-.049.008-.1.019-.143.03-.028.008-.055.01-.081.016s-.055.022-.081.029c-.082.025-.166.054-.251.087-.03.012-.059.02-.089.031l-.088.04-.084.039c-.108.052-.218.107-.329.171s-.23.139-.342.217l-.109.079c-.075.055-.151.112-.225.169-.042.034-.082.068-.123.1-.068.055-.135.113-.2.174l-.125.117-.074.068c-.025.025-.049.053-.073.078-.085.083-.166.173-.247.262-.024.028-.049.051-.072.077s-.037.048-.058.069c-.049.058-.1.119-.146.179-.029.036-.06.071-.088.108h0c-.026.031-.049.065-.072.1s-.066.088-.1.133l-.068.093c-.036.052-.07.1-.107.158l-.072.11-.029.042c-.063.1-.125.2-.186.3l-.01.019c-.011.02-.022.041-.034.06-.042.074-.084.147-.123.223-.019.034-.035.068-.053.1s-.036.071-.054.107l-.049.094c-.037.079-.073.159-.107.237-.01.023-.021.044-.03.067l0,.01c-.047.106-.089.212-.132.321-.008.02-.015.04-.022.06l-.042.113c-.018.055-.039.111-.058.166s-.024.081-.037.123-.031.1-.046.147c-.009.032-.02.063-.029.094-.015.055-.026.109-.04.165l-.045.183c0,.019-.01.042-.016.063-.01.043-.014.088-.023.13-.017.1-.035.192-.049.287,0,.027-.01.053-.014.078-.008.062-.011.119-.016.177s-.01.087-.013.129c-.011.133-.016.267-.016.4a2.5,2.5,0,0,0,1.045,2.3l1.344.782a2.506,2.506,0,0,1-1.045-2.3c0-.13.005-.264.016-.4C18.634,229.612,18.639,229.57,18.643,229.527Z" transform="translate(-17.27 -205.807)" fill="#d66767"/>
      <g id="Grupo_27552" data-name="Grupo 27552" transform="translate(1.345 17.565)">
        <path id="Trazado_3512" data-name="Trazado 3512" d="M22.394,223.982c1.979-1.143,3.589-.225,3.6,2.049a7.87,7.87,0,0,1-3.572,6.187c-1.979,1.142-3.592.227-3.6-2.048A7.872,7.872,0,0,1,22.394,223.982Z" transform="translate(-18.821 -223.491)" fill="url(#linear-gradient-2)"/>
      </g>
      <path id="Trazado_3513" data-name="Trazado 3513" d="M53.322,204.17c.063-.024.126-.046.187-.066.042-.011.085-.026.127-.036l.1-.022c.049-.01.1-.018.148-.023l.078-.009a1.675,1.675,0,0,1,.174,0h.041a1.373,1.373,0,0,1,.2.026.271.271,0,0,1,.044.01c.051.012.1.027.153.044a.439.439,0,0,1,.044.015,1.443,1.443,0,0,1,.177.085l-.014-.009-.77-.446-.559-.325-.015-.008a1.172,1.172,0,0,0-.136-.068l-.026-.008-.045-.017-.071-.024.016.01h0l-.015-.01-.08-.019-.047-.01-.025-.007c-.054-.008-.107-.016-.164-.02H52.8c-.042,0-.084,0-.127,0a.265.265,0,0,0-.045,0c-.027,0-.052.005-.079.008s-.051,0-.078.008-.048.011-.071.015-.07.014-.106.023l-.061.013a.648.648,0,0,0-.062.021c-.062.019-.127.042-.191.066-.023.01-.044.015-.067.023s-.026.014-.037.018a3.572,3.572,0,0,0-.342.169l-21,12.124a4.066,4.066,0,0,0-.422.286c-.023.016-.046.034-.068.052a4.571,4.571,0,0,0-.382.335c-.01.01-.021.018-.032.029l-.058.062c-.06.062-.12.124-.178.19-.021.023-.041.041-.059.062s-.03.038-.045.055c-.037.042-.072.088-.107.131l-.068.081c-.016.023-.033.047-.049.068s-.054.072-.081.11c-.016.023-.033.043-.049.067s-.052.075-.077.114-.04.059-.059.088c-.006.01-.013.02-.021.031-.048.074-.094.15-.14.228l-.009.016c-.009.016-.017.029-.025.046-.031.055-.063.11-.092.164-.014.026-.026.051-.039.076l-.043.086c-.011.023-.023.046-.035.068-.033.068-.063.135-.094.2l-.007.018-.007.012c-.034.08-.068.161-.1.243l-.017.047c-.01.029-.019.055-.029.083s-.031.084-.045.125-.02.068-.029.1-.023.069-.032.1-.016.049-.023.073c-.012.042-.02.085-.032.127s-.022.089-.032.134c0,.016-.009.033-.012.048-.007.034-.01.067-.016.1-.015.073-.028.145-.037.218,0,.019-.008.039-.01.06s0,.036,0,.055a4.031,4.031,0,0,0-.031.474l.006,2.02a1.893,1.893,0,0,0,.788,1.736l1.344.781a1.888,1.888,0,0,1-.787-1.735l-.007-2.02a4.033,4.033,0,0,1,.031-.475c0-.039.009-.076.014-.115.01-.072.024-.145.037-.216.008-.05.017-.1.029-.147s.022-.089.032-.133c.016-.069.034-.134.053-.2.01-.034.022-.067.031-.1.024-.077.049-.151.075-.225.011-.029.02-.057.031-.085.037-.1.077-.2.121-.3l0-.01c.044-.1.09-.192.137-.29.012-.023.023-.043.035-.068.043-.085.09-.171.137-.254l.023-.04c.055-.1.113-.19.173-.283.016-.023.033-.048.049-.074.044-.064.088-.128.134-.191l.075-.1c.042-.055.084-.108.126-.16s.068-.083.1-.123.07-.08.1-.117c.059-.068.118-.132.18-.194l.088-.088a4.925,4.925,0,0,1,.382-.335c.022-.017.043-.032.066-.05a4.4,4.4,0,0,1,.424-.288l21-12.122a3.316,3.316,0,0,1,.339-.168C53.25,204.2,53.286,204.183,53.322,204.17Z" transform="translate(-18.676 -203.23)" fill="#d66767"/>
      <g id="Grupo_27553" data-name="Grupo 27553" transform="translate(10.504 0.78)">
        <path id="Trazado_3514" data-name="Trazado 3514" d="M53.081,204.5c1.494-.863,2.711-.173,2.716,1.546l.005,2.019a5.942,5.942,0,0,1-2.7,4.671l-21,12.123c-1.494.863-2.708.17-2.712-1.546l-.007-2.02a5.944,5.944,0,0,1,2.7-4.671Z" transform="translate(-29.387 -204.129)" fill="url(#linear-gradient-2)"/>
      </g>
      <g id="Grupo_27584" data-name="Grupo 27584" transform="translate(15.176 3.363)">
        <g id="Grupo_27554" data-name="Grupo 27554" transform="translate(1.39 11.047)">
          <path id="Trazado_3515" data-name="Trazado 3515" d="M36.729,219.852l0,1.5-.348.2-.005-1.5Z" transform="translate(-36.38 -219.852)" fill="#993328"/>
        </g>
        <g id="Grupo_27555" data-name="Grupo 27555" transform="translate(0 11.851)">
          <path id="Trazado_3516" data-name="Trazado 3516" d="M35.123,220.78l0,1.5-.347.2,0-1.5Z" transform="translate(-34.776 -220.78)" fill="#993328"/>
        </g>
        <g id="Grupo_27556" data-name="Grupo 27556" transform="translate(3.248 9.975)">
          <path id="Trazado_3517" data-name="Trazado 3517" d="M38.872,218.616l0,1.5-.349.2,0-1.5Z" transform="translate(-38.522 -218.616)" fill="#993328"/>
        </g>
        <g id="Grupo_27557" data-name="Grupo 27557" transform="translate(2.55 9.445)">
          <path id="Trazado_3518" data-name="Trazado 3518" d="M38.063,218l.01,3.333-.346.2-.009-3.334Z" transform="translate(-37.718 -218.005)" fill="#993328"/>
        </g>
        <g id="Grupo_27558" data-name="Grupo 27558" transform="translate(0.692 10.516)">
          <path id="Trazado_3519" data-name="Trazado 3519" d="M35.923,219.24l.01,3.334-.349.2-.009-3.333Z" transform="translate(-35.575 -219.24)" fill="#993328"/>
        </g>
        <g id="Grupo_27559" data-name="Grupo 27559" transform="translate(1.969 9.044)">
          <path id="Trazado_3520" data-name="Trazado 3520" d="M37.394,217.542l.014,4.935-.345.2-.014-4.935Z" transform="translate(-37.048 -217.542)" fill="#993328"/>
        </g>
        <g id="Grupo_27560" data-name="Grupo 27560" transform="translate(14.505 3.409)">
          <path id="Trazado_3521" data-name="Trazado 3521" d="M51.857,211.042l0,1.506-.35.2,0-1.5Z" transform="translate(-51.508 -211.042)" fill="#993328"/>
        </g>
        <g id="Grupo_27561" data-name="Grupo 27561" transform="translate(13.112 4.213)">
          <path id="Trazado_3522" data-name="Trazado 3522" d="M50.249,211.97l0,1.506-.349.2,0-1.505Z" transform="translate(-49.901 -211.97)" fill="#993328"/>
        </g>
        <g id="Grupo_27562" data-name="Grupo 27562" transform="translate(16.362 2.337)">
          <path id="Trazado_3523" data-name="Trazado 3523" d="M54,209.806,54,211.311l-.35.2,0-1.505Z" transform="translate(-53.65 -209.806)" fill="#993328"/>
        </g>
        <g id="Grupo_27563" data-name="Grupo 27563" transform="translate(15.663 1.807)">
          <path id="Trazado_3524" data-name="Trazado 3524" d="M53.191,209.193l.008,3.334-.346.2-.009-3.334Z" transform="translate(-52.844 -209.193)" fill="#993328"/>
        </g>
        <g id="Grupo_27564" data-name="Grupo 27564" transform="translate(13.807 2.879)">
          <path id="Trazado_3525" data-name="Trazado 3525" d="M51.049,210.431l.01,3.333-.347.2-.008-3.332Z" transform="translate(-50.703 -210.431)" fill="#993328"/>
        </g>
        <g id="Grupo_27565" data-name="Grupo 27565" transform="translate(15.082 1.41)">
          <path id="Trazado_3526" data-name="Trazado 3526" d="M52.519,208.735l.014,4.932-.345.2-.014-4.933Z" transform="translate(-52.174 -208.735)" fill="#993328"/>
        </g>
        <g id="Grupo_27566" data-name="Grupo 27566" transform="translate(17.057 2.003)">
          <path id="Trazado_3527" data-name="Trazado 3527" d="M54.8,209.42l.007,2.334-.349.2-.007-2.332Z" transform="translate(-54.452 -209.42)" fill="#993328"/>
        </g>
        <g id="Grupo_27567" data-name="Grupo 27567" transform="translate(18.914 0.931)">
          <path id="Trazado_3528" data-name="Trazado 3528" d="M56.943,208.184l0,1.5-.348.2-.005-1.5Z" transform="translate(-56.594 -208.184)" fill="#993328"/>
        </g>
        <g id="Grupo_27568" data-name="Grupo 27568" transform="translate(18.215 0.4)">
          <path id="Trazado_3529" data-name="Trazado 3529" d="M56.136,207.57l.008,3.335-.347.2-.009-3.334Z" transform="translate(-55.788 -207.57)" fill="#993328"/>
        </g>
        <g id="Grupo_27569" data-name="Grupo 27569" transform="translate(17.634)">
          <path id="Trazado_3530" data-name="Trazado 3530" d="M55.465,207.109l.014,4.935-.347.2-.014-4.936Z" transform="translate(-55.118 -207.109)" fill="#993328"/>
        </g>
        <g id="Grupo_27570" data-name="Grupo 27570" transform="translate(4.637 7.838)">
          <path id="Trazado_3531" data-name="Trazado 3531" d="M40.472,216.15l.008,2.837-.347.2-.008-2.837Z" transform="translate(-40.125 -216.15)" fill="#993328"/>
        </g>
        <g id="Grupo_27571" data-name="Grupo 27571" transform="translate(6.498 8.1)">
          <path id="Trazado_3532" data-name="Trazado 3532" d="M42.619,216.453l.008,2.867-.346.2-.008-2.866Z" transform="translate(-42.271 -216.453)" fill="#993328"/>
        </g>
        <g id="Grupo_27572" data-name="Grupo 27572" transform="translate(5.797 7.568)">
          <path id="Trazado_3533" data-name="Trazado 3533" d="M41.813,215.84l.01,3.334-.349.2-.01-3.333Z" transform="translate(-41.464 -215.84)" fill="#993328"/>
        </g>
        <g id="Grupo_27573" data-name="Grupo 27573" transform="translate(7.883 5.628)">
          <path id="Trazado_3534" data-name="Trazado 3534" d="M44.221,213.6l.008,3.17-.349.2-.01-3.171Z" transform="translate(-43.87 -213.602)" fill="#993328"/>
        </g>
        <g id="Grupo_27574" data-name="Grupo 27574" transform="translate(7.19 6.764)">
          <path id="Trazado_3535" data-name="Trazado 3535" d="M43.421,214.912l.009,3.334-.35.2-.01-3.333Z" transform="translate(-43.07 -214.912)" fill="#993328"/>
        </g>
        <g id="Grupo_27575" data-name="Grupo 27575" transform="translate(3.941 8.64)">
          <path id="Trazado_3536" data-name="Trazado 3536" d="M39.67,217.076l.01,3.334-.348.2-.01-3.333Z" transform="translate(-39.322 -217.076)" fill="#993328"/>
        </g>
        <g id="Grupo_27576" data-name="Grupo 27576" transform="translate(5.218 7.169)">
          <path id="Trazado_3537" data-name="Trazado 3537" d="M41.141,215.379l.014,4.935-.344.2-.015-4.934Z" transform="translate(-40.796 -215.379)" fill="#993328"/>
        </g>
        <g id="Grupo_27577" data-name="Grupo 27577" transform="translate(9.282 6.491)">
          <path id="Trazado_3538" data-name="Trazado 3538" d="M45.833,214.6l0,1.5-.35.2,0-1.5Z" transform="translate(-45.483 -214.597)" fill="#993328"/>
        </g>
        <g id="Grupo_27578" data-name="Grupo 27578" transform="translate(11.139 5.42)">
          <path id="Trazado_3539" data-name="Trazado 3539" d="M47.975,213.361l.008,2.866-.35.2-.008-2.866Z" transform="translate(-47.626 -213.361)" fill="#993328"/>
        </g>
        <g id="Grupo_27579" data-name="Grupo 27579" transform="translate(10.441 4.888)">
          <path id="Trazado_3540" data-name="Trazado 3540" d="M47.167,212.748l.008,3.335-.345.2-.01-3.333Z" transform="translate(-46.82 -212.748)" fill="#993328"/>
        </g>
        <g id="Grupo_27580" data-name="Grupo 27580" transform="translate(12.532 4.616)">
          <path id="Trazado_3541" data-name="Trazado 3541" d="M49.58,212.434l0,1.5-.346.2-.005-1.5Z" transform="translate(-49.232 -212.434)" fill="#993328"/>
        </g>
        <g id="Grupo_27581" data-name="Grupo 27581" transform="translate(11.838 5.751)">
          <path id="Trazado_3542" data-name="Trazado 3542" d="M48.78,213.743l0,1.668-.348.2,0-1.668Z" transform="translate(-48.432 -213.743)" fill="#993328"/>
        </g>
        <g id="Grupo_27582" data-name="Grupo 27582" transform="translate(8.584 5.961)">
          <path id="Trazado_3543" data-name="Trazado 3543" d="M45.025,213.985l.01,3.334-.348.2-.009-3.334Z" transform="translate(-44.678 -213.985)" fill="#993328"/>
        </g>
        <g id="Grupo_27583" data-name="Grupo 27583" transform="translate(9.86 4.49)">
          <path id="Trazado_3544" data-name="Trazado 3544" d="M46.495,212.289l.015,4.934-.346.2-.014-4.935Z" transform="translate(-46.15 -212.289)" fill="#993328"/>
        </g>
      </g>
      <g id="Grupo_27585" data-name="Grupo 27585" transform="translate(4.167 21.054)">
        <path id="Trazado_3545" data-name="Trazado 3545" d="M22.076,227.6l3.07-.08-3.06,3.745Z" transform="translate(-22.076 -227.516)" fill="#993328"/>
      </g>
    </g>
    <g id="Grupo_27621" data-name="Grupo 27621" transform="translate(16.178 217.986)">
      <path id="Trazado_3546" data-name="Trazado 3546" d="M18.643,250.037c.008-.085.017-.171.03-.255s.031-.2.049-.293c.012-.062.023-.125.037-.186s.03-.128.047-.192c.021-.083.042-.167.067-.25.014-.049.029-.1.045-.147.031-.1.062-.194.1-.293.015-.037.027-.076.042-.114.05-.132.1-.263.159-.394.007-.017.016-.036.025-.054.05-.112.1-.224.157-.334.019-.04.039-.078.06-.119.053-.1.109-.205.166-.307.015-.024.028-.05.042-.075.072-.124.147-.245.225-.365l.07-.1c.057-.085.115-.168.174-.251.034-.047.068-.093.1-.139.054-.07.107-.138.161-.205s.093-.115.14-.171l.134-.153c.08-.087.16-.173.243-.256.049-.051.1-.1.15-.15s.082-.078.123-.114c.066-.062.133-.121.2-.176.042-.036.082-.07.125-.1.074-.06.149-.115.224-.17l.109-.079c.113-.077.226-.151.342-.218s.22-.119.328-.17l.086-.039c.06-.028.12-.048.179-.071.085-.033.168-.062.251-.087.055-.016.108-.032.162-.045s.1-.023.144-.03c.066-.014.13-.023.193-.03.034,0,.069-.009.1-.011.079-.005.155-.006.231-.005.017,0,.037,0,.055,0a1.946,1.946,0,0,1,.262.034c.023,0,.043.01.064.015a1.893,1.893,0,0,1,.2.057c.018.008.038.013.055.02a1.751,1.751,0,0,1,.238.112c-.644-.376-.644-.376-1.344-.78a.088.088,0,0,1-.019-.012c-.059-.031-.118-.062-.18-.088l-.038-.013-.056-.02c-.031-.011-.062-.023-.1-.033s-.068-.016-.1-.024l-.066-.015c-.01,0-.023-.006-.034-.007a1.472,1.472,0,0,0-.216-.026H22.52c-.055,0-.112,0-.168,0-.021,0-.042,0-.062.005l-.1.01c-.034,0-.068.006-.1.011s-.061.013-.09.019c-.049.009-.1.02-.143.03-.028.008-.055.01-.081.017s-.055.021-.081.029c-.082.025-.166.054-.251.087-.03.011-.059.019-.089.031l-.088.04c-.028.013-.056.025-.084.039-.108.051-.218.107-.329.171s-.23.139-.342.217c-.037.025-.074.054-.109.079-.075.054-.151.112-.225.169-.042.034-.082.068-.123.1-.068.056-.135.114-.2.174-.042.039-.083.077-.125.118l-.074.068c-.025.026-.049.054-.073.079-.085.083-.166.172-.247.262-.024.028-.049.051-.072.077s-.037.047-.058.069c-.049.058-.1.119-.146.179-.029.036-.06.071-.088.107h0c-.026.031-.049.065-.072.1s-.066.088-.1.134l-.068.093c-.036.052-.07.1-.107.158-.023.036-.048.072-.072.11l-.029.042c-.063.1-.125.2-.186.3l-.01.018c-.011.021-.022.041-.034.061-.042.074-.084.147-.123.223-.019.034-.035.068-.053.1s-.036.071-.054.108l-.049.094c-.037.079-.073.159-.107.237-.01.023-.021.043-.03.067l0,.01c-.047.106-.089.212-.132.321-.008.02-.015.04-.022.06l-.042.113c-.018.055-.039.111-.058.165s-.024.082-.037.124-.031.1-.046.147c-.009.032-.02.063-.029.095-.015.055-.026.109-.04.165s-.03.121-.045.182c0,.02-.01.042-.016.064-.01.043-.014.087-.023.129-.017.1-.035.193-.049.287,0,.028-.01.054-.014.079-.008.061-.011.119-.016.177s-.01.087-.013.129c-.011.134-.016.266-.016.4a2.5,2.5,0,0,0,1.045,2.3l1.344.783a2.507,2.507,0,0,1-1.045-2.3c0-.13.005-.264.016-.4C18.634,250.121,18.639,250.079,18.643,250.037Z" transform="translate(-17.27 -226.316)" fill="#d66767"/>
      <g id="Grupo_27587" data-name="Grupo 27587" transform="translate(1.345 17.565)">
        <path id="Trazado_3547" data-name="Trazado 3547" d="M22.394,244.492c1.979-1.143,3.589-.224,3.6,2.049a7.865,7.865,0,0,1-3.572,6.185c-1.979,1.143-3.592.229-3.6-2.046A7.875,7.875,0,0,1,22.394,244.492Z" transform="translate(-18.821 -244)" fill="url(#linear-gradient-2)"/>
      </g>
      <path id="Trazado_3548" data-name="Trazado 3548" d="M53.322,224.679q.095-.035.187-.065c.042-.012.085-.026.127-.036s.07-.015.1-.022.1-.018.148-.023l.078-.008a1.679,1.679,0,0,1,.174,0h.041a1.262,1.262,0,0,1,.2.026.266.266,0,0,1,.044.01c.051.011.1.027.153.043a.447.447,0,0,1,.044.016,1.326,1.326,0,0,1,.177.085l-.014-.009-.77-.446-.559-.326-.015-.008c-.045-.025-.09-.049-.136-.068l-.026-.007-.045-.017-.071-.024.016.01h0l-.015-.01c-.027-.008-.055-.014-.08-.02s-.03-.007-.047-.009l-.025-.007c-.054-.008-.107-.016-.164-.02H52.8c-.042,0-.084,0-.127,0a.267.267,0,0,0-.045.005c-.027,0-.052.005-.079.008s-.051,0-.078.008-.048.01-.071.014-.07.015-.106.024c-.02.005-.041.007-.061.012s-.042.015-.062.022c-.062.019-.127.042-.191.066-.023.01-.044.015-.067.023s-.026.014-.037.018a3.376,3.376,0,0,0-.342.169l-21,12.123a4.073,4.073,0,0,0-.422.287c-.023.016-.046.034-.068.052a4.565,4.565,0,0,0-.382.335c-.01.01-.021.017-.032.029s-.04.042-.058.062c-.06.062-.12.125-.178.191-.021.022-.041.041-.059.061l-.045.056c-.037.042-.072.087-.107.131l-.068.081c-.016.022-.033.047-.049.068s-.054.072-.081.11c-.016.022-.033.043-.049.067s-.052.075-.077.114-.04.058-.059.088l-.021.031c-.048.074-.094.15-.14.226l-.009.017c-.009.015-.017.029-.025.046-.031.055-.063.11-.092.164-.014.025-.026.051-.039.076l-.043.086c-.011.023-.023.045-.035.068-.033.068-.063.135-.094.2l-.007.018-.007.012c-.034.08-.068.161-.1.243l-.017.047c-.01.028-.019.055-.029.083s-.031.084-.045.124-.02.068-.029.1-.023.069-.032.1-.016.048-.023.073c-.012.042-.02.084-.032.127s-.022.09-.032.135c0,.016-.009.033-.012.048-.007.033-.01.066-.016.1-.015.073-.028.145-.037.218,0,.02-.008.039-.01.061s0,.036,0,.054a4.045,4.045,0,0,0-.031.475l.006,2.02a1.893,1.893,0,0,0,.788,1.736l1.344.781a1.889,1.889,0,0,1-.787-1.735l-.007-2.02a4.033,4.033,0,0,1,.031-.475c0-.039.009-.076.014-.115.01-.072.024-.145.037-.216.008-.05.017-.1.029-.147s.022-.09.032-.133c.016-.069.034-.135.053-.2.01-.034.022-.067.031-.1.024-.077.049-.151.075-.226.011-.028.02-.056.031-.084.037-.1.077-.2.121-.3l0-.01c.044-.1.09-.192.137-.29.012-.022.023-.044.035-.067.043-.086.09-.171.137-.254.008-.013.016-.026.023-.041.055-.1.113-.189.173-.282.016-.023.033-.049.049-.074.044-.064.088-.128.134-.192l.075-.1.126-.16c.033-.042.068-.083.1-.123s.07-.081.1-.118c.059-.067.118-.131.18-.193.029-.029.058-.06.088-.088a4.938,4.938,0,0,1,.382-.336l.066-.049a4.246,4.246,0,0,1,.424-.288l21-12.123a3.492,3.492,0,0,1,.339-.167Z" transform="translate(-18.676 -223.739)" fill="#d66767"/>
      <g id="Grupo_27588" data-name="Grupo 27588" transform="translate(10.504 0.78)">
        <path id="Trazado_3549" data-name="Trazado 3549" d="M53.081,225.01c1.494-.863,2.711-.172,2.716,1.547l.005,2.019a5.94,5.94,0,0,1-2.7,4.67l-21,12.124c-1.494.863-2.708.17-2.712-1.546l-.007-2.02a5.944,5.944,0,0,1,2.7-4.671Z" transform="translate(-29.387 -224.638)" fill="url(#linear-gradient-2)"/>
      </g>
      <g id="Grupo_27619" data-name="Grupo 27619" transform="translate(15.176 3.364)">
        <g id="Grupo_27589" data-name="Grupo 27589" transform="translate(1.39 11.047)">
          <path id="Trazado_3550" data-name="Trazado 3550" d="M36.729,240.362l0,1.5-.348.2-.005-1.5Z" transform="translate(-36.38 -240.362)" fill="#993328"/>
        </g>
        <g id="Grupo_27590" data-name="Grupo 27590" transform="translate(0 11.851)">
          <path id="Trazado_3551" data-name="Trazado 3551" d="M35.123,241.29l0,1.5-.347.2,0-1.5Z" transform="translate(-34.776 -241.29)" fill="#993328"/>
        </g>
        <g id="Grupo_27591" data-name="Grupo 27591" transform="translate(3.248 9.975)">
          <path id="Trazado_3552" data-name="Trazado 3552" d="M38.872,239.126l0,1.5-.349.2,0-1.5Z" transform="translate(-38.522 -239.126)" fill="#993328"/>
        </g>
        <g id="Grupo_27592" data-name="Grupo 27592" transform="translate(2.55 9.445)">
          <path id="Trazado_3553" data-name="Trazado 3553" d="M38.063,238.515l.01,3.333-.346.2-.009-3.334Z" transform="translate(-37.718 -238.515)" fill="#993328"/>
        </g>
        <g id="Grupo_27593" data-name="Grupo 27593" transform="translate(0.692 10.516)">
          <path id="Trazado_3554" data-name="Trazado 3554" d="M35.923,239.75l.01,3.334-.349.2-.009-3.333Z" transform="translate(-35.575 -239.75)" fill="#993328"/>
        </g>
        <g id="Grupo_27594" data-name="Grupo 27594" transform="translate(1.969 9.044)">
          <path id="Trazado_3555" data-name="Trazado 3555" d="M37.394,238.052l.014,4.935-.345.2-.014-4.935Z" transform="translate(-37.048 -238.052)" fill="#993328"/>
        </g>
        <g id="Grupo_27595" data-name="Grupo 27595" transform="translate(14.505 3.409)">
          <path id="Trazado_3556" data-name="Trazado 3556" d="M51.857,231.552l0,1.506-.35.2,0-1.5Z" transform="translate(-51.508 -231.552)" fill="#993328"/>
        </g>
        <g id="Grupo_27596" data-name="Grupo 27596" transform="translate(13.112 4.214)">
          <path id="Trazado_3557" data-name="Trazado 3557" d="M50.249,232.48l0,1.506-.349.2,0-1.505Z" transform="translate(-49.901 -232.48)" fill="#993328"/>
        </g>
        <g id="Grupo_27597" data-name="Grupo 27597" transform="translate(16.362 2.337)">
          <path id="Trazado_3558" data-name="Trazado 3558" d="M54,230.315,54,231.821l-.35.2,0-1.505Z" transform="translate(-53.65 -230.315)" fill="#993328"/>
        </g>
        <g id="Grupo_27598" data-name="Grupo 27598" transform="translate(15.663 1.807)">
          <path id="Trazado_3559" data-name="Trazado 3559" d="M53.191,229.7l.008,3.334-.346.2-.009-3.334Z" transform="translate(-52.844 -229.703)" fill="#993328"/>
        </g>
        <g id="Grupo_27599" data-name="Grupo 27599" transform="translate(13.807 2.879)">
          <path id="Trazado_3560" data-name="Trazado 3560" d="M51.049,230.94l.01,3.333-.347.2-.008-3.332Z" transform="translate(-50.703 -230.94)" fill="#993328"/>
        </g>
        <g id="Grupo_27600" data-name="Grupo 27600" transform="translate(15.082 1.41)">
          <path id="Trazado_3561" data-name="Trazado 3561" d="M52.519,229.245l.014,4.932-.345.2-.014-4.933Z" transform="translate(-52.174 -229.245)" fill="#993328"/>
        </g>
        <g id="Grupo_27601" data-name="Grupo 27601" transform="translate(17.057 2.003)">
          <path id="Trazado_3562" data-name="Trazado 3562" d="M54.8,229.93l.007,2.334-.349.2-.007-2.332Z" transform="translate(-54.452 -229.93)" fill="#993328"/>
        </g>
        <g id="Grupo_27602" data-name="Grupo 27602" transform="translate(18.914 0.931)">
          <path id="Trazado_3563" data-name="Trazado 3563" d="M56.943,228.693l0,1.5-.348.2-.005-1.5Z" transform="translate(-56.594 -228.693)" fill="#993328"/>
        </g>
        <g id="Grupo_27603" data-name="Grupo 27603" transform="translate(18.215 0.4)">
          <path id="Trazado_3564" data-name="Trazado 3564" d="M56.136,228.08l.008,3.335-.347.2-.009-3.334Z" transform="translate(-55.788 -228.08)" fill="#993328"/>
        </g>
        <g id="Grupo_27604" data-name="Grupo 27604" transform="translate(17.634)">
          <path id="Trazado_3565" data-name="Trazado 3565" d="M55.465,227.619l.014,4.935-.347.2-.014-4.936Z" transform="translate(-55.118 -227.619)" fill="#993328"/>
        </g>
        <g id="Grupo_27605" data-name="Grupo 27605" transform="translate(4.637 7.838)">
          <path id="Trazado_3566" data-name="Trazado 3566" d="M40.472,236.66l.008,2.837-.347.2-.008-2.837Z" transform="translate(-40.125 -236.66)" fill="#993328"/>
        </g>
        <g id="Grupo_27606" data-name="Grupo 27606" transform="translate(6.498 8.1)">
          <path id="Trazado_3567" data-name="Trazado 3567" d="M42.619,236.963l.008,2.867-.346.2-.008-2.866Z" transform="translate(-42.271 -236.963)" fill="#993328"/>
        </g>
        <g id="Grupo_27607" data-name="Grupo 27607" transform="translate(5.797 7.569)">
          <path id="Trazado_3568" data-name="Trazado 3568" d="M41.813,236.35l.01,3.334-.349.2-.01-3.333Z" transform="translate(-41.464 -236.35)" fill="#993328"/>
        </g>
        <g id="Grupo_27608" data-name="Grupo 27608" transform="translate(7.883 5.628)">
          <path id="Trazado_3569" data-name="Trazado 3569" d="M44.221,234.111l.008,3.171-.349.2-.01-3.171Z" transform="translate(-43.87 -234.111)" fill="#993328"/>
        </g>
        <g id="Grupo_27609" data-name="Grupo 27609" transform="translate(7.19 6.764)">
          <path id="Trazado_3570" data-name="Trazado 3570" d="M43.421,235.422l.009,3.334-.35.2-.01-3.333Z" transform="translate(-43.07 -235.422)" fill="#993328"/>
        </g>
        <g id="Grupo_27610" data-name="Grupo 27610" transform="translate(3.941 8.64)">
          <path id="Trazado_3571" data-name="Trazado 3571" d="M39.67,237.586l.01,3.334-.348.2-.01-3.333Z" transform="translate(-39.322 -237.586)" fill="#993328"/>
        </g>
        <g id="Grupo_27611" data-name="Grupo 27611" transform="translate(5.218 7.169)">
          <path id="Trazado_3572" data-name="Trazado 3572" d="M41.141,235.889l.014,4.935-.344.2-.015-4.934Z" transform="translate(-40.796 -235.889)" fill="#993328"/>
        </g>
        <g id="Grupo_27612" data-name="Grupo 27612" transform="translate(9.282 6.491)">
          <path id="Trazado_3573" data-name="Trazado 3573" d="M45.833,235.106l0,1.5-.35.2,0-1.5Z" transform="translate(-45.483 -235.106)" fill="#993328"/>
        </g>
        <g id="Grupo_27613" data-name="Grupo 27613" transform="translate(11.139 5.42)">
          <path id="Trazado_3574" data-name="Trazado 3574" d="M47.975,233.871l.008,2.866-.35.2-.008-2.866Z" transform="translate(-47.626 -233.871)" fill="#993328"/>
        </g>
        <g id="Grupo_27614" data-name="Grupo 27614" transform="translate(10.441 4.888)">
          <path id="Trazado_3575" data-name="Trazado 3575" d="M47.167,233.258l.008,3.335-.345.2-.01-3.333Z" transform="translate(-46.82 -233.258)" fill="#993328"/>
        </g>
        <g id="Grupo_27615" data-name="Grupo 27615" transform="translate(12.532 4.616)">
          <path id="Trazado_3576" data-name="Trazado 3576" d="M49.58,232.943l0,1.5-.346.2-.005-1.5Z" transform="translate(-49.232 -232.943)" fill="#993328"/>
        </g>
        <g id="Grupo_27616" data-name="Grupo 27616" transform="translate(11.838 5.751)">
          <path id="Trazado_3577" data-name="Trazado 3577" d="M48.78,234.253l0,1.668-.348.2,0-1.668Z" transform="translate(-48.432 -234.253)" fill="#993328"/>
        </g>
        <g id="Grupo_27617" data-name="Grupo 27617" transform="translate(8.584 5.961)">
          <path id="Trazado_3578" data-name="Trazado 3578" d="M45.025,234.5l.01,3.334-.348.2-.009-3.335Z" transform="translate(-44.678 -234.495)" fill="#993328"/>
        </g>
        <g id="Grupo_27618" data-name="Grupo 27618" transform="translate(9.86 4.49)">
          <path id="Trazado_3579" data-name="Trazado 3579" d="M46.495,232.8l.015,4.934-.346.2L46.15,233Z" transform="translate(-46.15 -232.799)" fill="#993328"/>
        </g>
      </g>
      <g id="Grupo_27620" data-name="Grupo 27620" transform="translate(4.167 21.054)">
        <path id="Trazado_3580" data-name="Trazado 3580" d="M22.076,248.106l3.07-.08-3.06,3.744Z" transform="translate(-22.076 -248.025)" fill="#993328"/>
      </g>
    </g>
    <g id="Grupo_27622" data-name="Grupo 27622" transform="translate(35.394 250.957)">
      <path id="Trazado_3581" data-name="Trazado 3581" d="M42.339,263.439c-3.849,2.222-3.874,5.832-.043,8.053a15.3,15.3,0,0,0,13.9,0c3.851-2.221,3.87-5.831.045-8.048A15.3,15.3,0,0,0,42.339,263.439Z" transform="translate(-39.437 -261.771)" opacity="0.1"/>
    </g>
    <g id="Grupo_27626" data-name="Grupo 27626" transform="translate(30.117 208.359)">
      <path id="Trazado_3582" data-name="Trazado 3582" d="M49.941,270.857s.8,1.282-.311,1.59-.776-.389-3.194.222-2.135-.752-2.08-1.03,1.106-.667,1.637-.8,2.638-.627,2.638-.627l1.289.237Z" transform="translate(-34.809 -220.296)" fill="#111114"/>
      <g id="Grupo_27624" data-name="Grupo 27624" transform="translate(8.788)">
        <g id="Grupo_27623" data-name="Grupo 27623">
          <path id="Trazado_3583" data-name="Trazado 3583" d="M46.349,216.551a11.283,11.283,0,0,0-.369-2c-.179-.32-.9-1.69-2.14-1.9-.669-.115-.292.588.323,1.377a1.419,1.419,0,0,1,.48,1.326,5.128,5.128,0,0,0,.209,1.794C44.98,217.535,46.349,216.551,46.349,216.551Z" transform="translate(-43.487 -212.634)" fill="#efb185"/>
          <path id="Trazado_3584" data-name="Trazado 3584" d="M44.817,217.075A6,6,0,0,0,44.3,215.4c-.383-.544.154-1.019-.133-1.376-.479-.615-.805-1.2-.62-1.355.331.495,1.133.34,1.554,1.826a9.872,9.872,0,0,1,.172,2.553C44.954,217.158,44.864,217.229,44.817,217.075Z" transform="translate(-43.487 -212.639)" fill="#e6a376"/>
          <path id="Trazado_3585" data-name="Trazado 3585" d="M45.351,217.218s-1.169-1.511-1.456-2.019-.276-.987-.136-.946,1.069,1.5,1.478,1.039C45.457,215.049,45.234,216.964,45.351,217.218Z" transform="translate(-43.51 -212.849)" fill="#efb185"/>
        </g>
        <path id="Trazado_3586" data-name="Trazado 3586" d="M57.082,224.647s-.143,2.115-2.814,1.38-7.481-2.694-8.1-3.98A28.582,28.582,0,0,1,44.93,217.3s1.3.433,1.787-.628l2.113,4.29S57.218,223.173,57.082,224.647Z" transform="translate(-43.679 -213.171)" fill="#632bee"/>
        <path id="Trazado_3587" data-name="Trazado 3587" d="M57.238,224.647c.135-1.474-8.253-3.688-8.253-3.688l-2.113-4.29a1.153,1.153,0,0,1-.771.661,22.125,22.125,0,0,0,1.091,3.966c.614,1.288,5.426,3.247,8.1,3.983a2.894,2.894,0,0,0,1.741.037A1.838,1.838,0,0,0,57.238,224.647Z" transform="translate(-43.835 -213.171)" fill="#632bee"/>
      </g>
      <path id="Trazado_3588" data-name="Trazado 3588" d="M53.849,265.387s-1.006.153-.762.73,1.4,1.461,1.547,1.827,1.1,1.671,1.4,1.549,1.093.061,1-1.429A3.279,3.279,0,0,0,53.849,265.387Z" transform="translate(-35.971 -219.654)" fill="#111114"/>
      <path id="Trazado_3589" data-name="Trazado 3589" d="M56.838,242.763s.017,8.629.017,9.6,1.087,8.63.434,11.972c0,0-1.882,1.89-3.547,0,0,0-.531-9.585-1.015-11.747s-.32-8.783-.32-8.783Z" transform="translate(-35.882 -216.644)" fill="#5fb9e6"/>
      <path id="Trazado_3590" data-name="Trazado 3590" d="M52.89,243.989s-.432,5.571-.873,11.1c0,0-.277,10.968-.538,12.546,0,0-3.538.879-3.889-.791,0,0,.092-9.651,0-11.666s-.3-7.644.5-10.891S52.89,243.989,52.89,243.989Z" transform="translate(-35.232 -216.643)" fill="#77d2ff"/>
      <path id="Trazado_3591" data-name="Trazado 3591" d="M51.743,268.066c.261-1.578.538-12.546.538-12.546.3-3.722.589-7.457.746-9.506l-2.185.536a28.528,28.528,0,0,0-1.334,10.334c.188,4.8.264,9.519.29,11.41A8.775,8.775,0,0,0,51.743,268.066Z" transform="translate(-35.496 -217.076)" fill="#77d2ff"/>
      <path id="Trazado_3592" data-name="Trazado 3592" d="M57.641,264.346c.653-3.342-.434-11-.434-11.972,0-.926-.015-8.794-.017-9.539l-1.9,1.46s-.605,6.171,0,9.684c.547,3.2.2,9.421.461,11.207A3.017,3.017,0,0,0,57.641,264.346Z" transform="translate(-36.234 -216.653)" fill="#77d2ff"/>
      <path id="Trazado_3593" data-name="Trazado 3593" d="M56.836,225.015s1.695.846.734,3.724-1.635,4.741-1.579,5.816a47.039,47.039,0,0,0,.678,5.42s.281,2.372-5.138,3.782c0,0-4.461.453-3.729-2.483a38.573,38.573,0,0,0,.9-8.811c-.109-1.127-.787-3.384,2.035-4.908S55.033,224.9,56.836,225.015Z" transform="translate(-35.262 -214.28)" fill="#632bee"/>
      <path id="Trazado_3594" data-name="Trazado 3594" d="M55.587,225.157c-1.327.326-2.693,1.254-4.848,2.418-2.822,1.525-2.144,3.781-2.035,4.908a38.574,38.574,0,0,1-.9,8.811c-.588,2.356,2.166,2.53,3.279,2.507C56.062,240.345,55.621,231.376,55.587,225.157Z" transform="translate(-35.262 -214.3)" fill="#471bce"/>
      <path id="Trazado_3595" data-name="Trazado 3595" d="M55.408,223.487a5.3,5.3,0,0,0,.361,2.638c.506.919-3.311,1.757-3.4.905a3.662,3.662,0,0,0-.2-3.139C51.686,223.026,55.408,223.487,55.408,223.487Z" transform="translate(-35.848 -214.062)" fill="#efb185"/>
      <path id="Trazado_3596" data-name="Trazado 3596" d="M55.821,226.25a4.782,4.782,0,0,1-.384-2.349l-2.791,1.381,0,.008c.1.024,1.983.5,2.39,1.854C55.613,226.909,56,226.585,55.821,226.25Z" transform="translate(-35.917 -214.133)" fill="#dd9569"/>
      <path id="Trazado_3597" data-name="Trazado 3597" d="M51.2,218.455a6.958,6.958,0,0,0-.472,2.736c.123,1.363-.078,1.64.005,2.245a1.486,1.486,0,0,0,.309.895,2.4,2.4,0,0,0,2.467.126c1.421-.52,2.915-2.475,2.309-4.23S53.339,217.023,51.2,218.455Z" transform="translate(-35.66 -213.331)" fill="#efb185"/>
      <path id="Trazado_3598" data-name="Trazado 3598" d="M55.783,222.126a25.058,25.058,0,0,0-1.972-3.578,4.282,4.282,0,0,0-1-.67,3.2,3.2,0,0,0-1.586.577,8,8,0,0,0-.295.948c.338.378,1.03.809,1.133,1.131a4.132,4.132,0,0,1-.118,2.411c-.226.506.686,1.249.493,1.7a.152.152,0,0,0-.005.062,4.023,4.023,0,0,0,1.1-.247A4.124,4.124,0,0,0,55.783,222.126Z" transform="translate(-35.689 -213.332)" fill="#e6a376"/>
      <path id="Trazado_3599" data-name="Trazado 3599" d="M51.27,217.238c-.491.213-.671,1.761.57,2.369.746.365.68,1.568.645,1.792a5.452,5.452,0,0,0-.165,1.367c.175.251.759-.529,1.039-.474.7.135.428.795-.212,1.485-.683.733,1.113,1.035,1.945.428.44-.32.605-.514,1.185-1.668.842-1.679,1.075-4.172-1.1-4.778C53.089,217.177,52.413,216.739,51.27,217.238Z" transform="translate(-35.684 -213.217)" fill="#231202"/>
      <path id="Trazado_3600" data-name="Trazado 3600" d="M55.144,224.19c.44-.32.605-.514,1.185-1.668.842-1.679,1.133-3.7-.857-4.773s-3.457-.967-4.15-.526c-.106.067-.094,1.727,2.342,2.189,1.046.2,1.154.618,1.111,1.751-.043,1.1.236,2.527-1.6,3.142A1.85,1.85,0,0,0,55.144,224.19Z" transform="translate(-35.737 -213.202)" fill="#231202"/>
      <path id="Trazado_3601" data-name="Trazado 3601" d="M52.455,226.845l-1.3.834S55.08,229,56.211,227.1a1.1,1.1,0,0,0-.707-1.339S55.372,227.31,52.455,226.845Z" transform="translate(-35.718 -214.381)" fill="#9dbcc9"/>
      <g id="Grupo_27625" data-name="Grupo 27625" transform="translate(0 10.055)">
        <path id="Trazado_3602" data-name="Trazado 3602" d="M36.354,226.6s-.961-1.1-.925-1.474-.477-.54-.475-.092a2.158,2.158,0,0,0,.245.892s-1.287-1.132-1.045-1.6-1.065.828-.758,1.612.5,1.7,2.6,1.986A1.613,1.613,0,0,0,36.354,226.6Z" transform="translate(-33.349 -224.232)" fill="#f1b287"/>
        <path id="Trazado_3603" data-name="Trazado 3603" d="M49.265,228.844s.815,1.873-1.8,2.437-7.081,1.3-8.184.477-3.865-3.472-3.865-3.472,1.275-.39,1.219-1.512l4.217,2.614S48.715,227.525,49.265,228.844Z" transform="translate(-33.624 -224.571)" fill="#632bee"/>
        <path id="Trazado_3604" data-name="Trazado 3604" d="M49.432,228.844c-.55-1.319-8.412.544-8.412.544L36.8,226.774a1.256,1.256,0,0,1-.129.635,33.229,33.229,0,0,0,4.387,3.03c.806.259,7.02-.717,8.488-.953A1.82,1.82,0,0,0,49.432,228.844Z" transform="translate(-33.791 -224.571)" fill="#632bee"/>
      </g>
    </g>
    <g id="Grupo_27627" data-name="Grupo 27627" transform="translate(15.181 204.976)" opacity="0.5" style="mix-blend-mode: overlay;isolation: isolate">
      <path id="Trazado_3605" data-name="Trazado 3605" d="M38.325,272.1c5.76,3.325,15.064,3.325,20.788,0s5.69-8.715-.066-12.037-15.066-3.325-20.791,0-5.688,8.712.069,12.039" transform="translate(-18.498 -215.231)" fill="#fcfdfd" opacity="0.8"/>
      <path id="Trazado_3606" data-name="Trazado 3606" d="M36.109,265.8c6.771,3.747,17.711,3.747,24.439,0s6.69-9.819-.079-13.561-17.712-3.746-24.441,0-6.688,9.815.081,13.562" transform="translate(-18.101 -214.148)" fill="#fcfdfd" opacity="0.667"/>
      <path id="Trazado_3607" data-name="Trazado 3607" d="M33.893,259.5c7.783,4.167,20.358,4.167,28.09,0s7.689-10.922-.09-15.085-20.358-4.167-28.091,0-7.688,10.918.092,15.086" transform="translate(-17.705 -213.064)" fill="#fcfdfd" opacity="0.533"/>
      <path id="Trazado_3608" data-name="Trazado 3608" d="M31.677,253.2c8.8,4.587,23,4.587,31.741,0s8.689-12.026-.1-16.61-23-4.587-31.742,0-8.687,12.022.1,16.611" transform="translate(-17.309 -211.981)" fill="#fcfdfd" opacity="0.4"/>
      <path id="Trazado_3609" data-name="Trazado 3609" d="M29.461,246.9c9.807,5.007,25.65,5.007,35.392,0s9.689-13.129-.114-18.134-25.65-5.008-35.392,0-9.686,13.125.115,18.134" transform="translate(-16.912 -210.898)" fill="#fcfdfd" opacity="0.267"/>
      <path id="Trazado_3610" data-name="Trazado 3610" d="M27.246,240.6c10.819,5.428,28.3,5.428,39.042,0s10.687-14.233-.127-19.659-28.3-5.428-39.042,0-10.687,14.229.127,19.659" transform="translate(-16.516 -209.814)" fill="#fcfdfd" opacity="0.133"/>
      <path id="Trazado_3611" data-name="Trazado 3611" d="M25.03,234.3c11.831,5.848,30.943,5.848,42.693,0s11.688-15.336-.139-21.183-30.942-5.849-42.693,0-11.686,15.333.139,21.183" transform="translate(-16.12 -208.731)" fill="#fcfdfd" opacity="0"/>
    </g>
  </g>
</svg>
