<svg id="surface1" xmlns="http://www.w3.org/2000/svg" width="64.632" height="75.897" viewBox="0 0 64.632 75.897">
  <path id="Trazado_2915" data-name="Trazado 2915" d="M61.718,50.684A38.291,38.291,0,0,1,52.547,64.97,48,48,0,0,1,34.624,75.59a5.483,5.483,0,0,1-1.742.307h-.065a5.561,5.561,0,0,1-1.069-.105,5.79,5.79,0,0,1-.735-.2A48,48,0,0,1,13.069,64.978,38.219,38.219,0,0,1,3.9,50.694C.2,40.642.406,29.568.576,20.669l0-.137c.034-.735.056-1.507.068-2.359a8.044,8.044,0,0,1,7.574-7.88C16.948,9.806,23.7,6.96,29.466,1.338l.05-.046a4.862,4.862,0,0,1,6.6,0l.049.046c5.769,5.622,12.52,8.468,21.246,8.955a8.044,8.044,0,0,1,7.574,7.88c.012.858.034,1.629.068,2.359l0,.058C65.226,29.506,65.436,40.6,61.718,50.684Zm0,0" transform="translate(-0.5 0)" fill="#00dd80"/>
  <path id="Trazado_2916" data-name="Trazado 2916" d="M247.785,50.687a38.291,38.291,0,0,1-9.171,14.287,48,48,0,0,1-17.923,10.619,5.484,5.484,0,0,1-1.742.307V0A4.869,4.869,0,0,1,222.184,1.3l.049.046C228,6.963,234.753,9.809,243.479,10.3a8.044,8.044,0,0,1,7.574,7.88c.012.858.034,1.629.068,2.359l0,.058C251.293,29.509,251.5,40.6,247.785,50.687Zm0,0" transform="translate(-186.567 -0.003)" fill="#00aa63"/>
  <path id="Trazado_2917" data-name="Trazado 2917" d="M128.725,147.313a18.939,18.939,0,0,1-18.849,18.916h-.067a18.915,18.915,0,1,1,0-37.831h.067A18.939,18.939,0,0,1,128.725,147.313Zm0,0" transform="translate(-77.495 -109.365)" fill="#fff"/>
  <path id="Trazado_2918" data-name="Trazado 2918" d="M237.8,147.313a18.939,18.939,0,0,1-18.849,18.916V128.4A18.939,18.939,0,0,1,237.8,147.313Zm0,0" transform="translate(-186.567 -109.365)" fill="#e1ebf0"/>
  <path id="Trazado_2919" data-name="Trazado 2919" d="M172.3,215.781l-8.519,8.52-1.841,1.841a2.229,2.229,0,0,1-3.151,0l-3.958-3.96a2.227,2.227,0,1,1,3.149-3.149l2.385,2.385,8.786-8.786a2.227,2.227,0,0,1,3.149,3.149Zm0,0" transform="translate(-131.397 -180.557)" fill="#b4d2d7"/>
  <path id="Trazado_2920" data-name="Trazado 2920" d="M227.468,215.781l-8.519,8.52V218l5.37-5.369a2.227,2.227,0,0,1,3.149,3.149Zm0,0" transform="translate(-186.567 -180.557)" fill="#6fa5aa"/>
</svg>
