<svg xmlns="http://www.w3.org/2000/svg" xmlns:xlink="http://www.w3.org/1999/xlink" width="110" height="65" viewBox="0 0 110 65">
  <defs>
    <clipPath id="clip-path">
      <rect id="Rectángulo_4971" data-name="Rectángulo 4971" width="110" height="65" transform="translate(177 1200)" fill="#fff" stroke="#707070" stroke-width="1"/>
    </clipPath>
  </defs>
  <g id="Enmascarar_grupo_28" data-name="Enmascarar grupo 28" transform="translate(-177 -1200)" clip-path="url(#clip-path)">
    <g id="recepcionista_3_" data-name="recepcionista (3)" transform="translate(199.5 1200)">
      <path id="Trazado_4592" data-name="Trazado 4592" d="M56.932,65H8.068a1.729,1.729,0,0,1-1.729-1.729V50.043H58.661V63.271A1.729,1.729,0,0,1,56.932,65Z" fill="#dfae91"/>
      <g id="Grupo_28537" data-name="Grupo 28537">
        <path id="Trazado_4593" data-name="Trazado 4593" d="M48.286,41.681l.312,9.19H16.5V43.135A11.435,11.435,0,0,1,23.366,33.6l.952-.41,3.987-.75L32.425,34.5l3.955-2.564,4.3,1.249.952.41a11.438,11.438,0,0,1,6.653,8.085Z" fill="#f8f7f8"/>
      </g>
      <path id="Trazado_4594" data-name="Trazado 4594" d="M32.5,37.434l4.194-5.187L37.609,28l-.027-.033-2.857-3.464-5.386.7L27.42,27.935l-.149.213,1.035,4.51Z" fill="#ffe6c6"/>
      <path id="Trazado_4595" data-name="Trazado 4595" d="M42.388,16.821l.71-4.358a10.737,10.737,0,1,0-21.195,0l.71,4.358.832,3.751h18.4Z" fill="#b3adb5"/>
      <g id="Grupo_28540" data-name="Grupo 28540">
        <path id="Trazado_4596" data-name="Trazado 4596" d="M42.368,21.624a2.4,2.4,0,0,0,0-4.8H37.015v4.8h5.352Z" fill="#f8d3aa"/>
        <path id="Trazado_4597" data-name="Trazado 4597" d="M22.612,21.624a2.4,2.4,0,1,1,0-4.8h5.865v5.057Z" fill="#fabf8e"/>
        <path id="Trazado_4598" data-name="Trazado 4598" d="M26.3,32.813l-1.983.373-.952.41A11.435,11.435,0,0,0,16.5,43.135v7.737H19.5V44.865a11.435,11.435,0,0,1,6.8-9.506Z" fill="#efedee"/>
        <g id="XMLID_270_">
          <g id="Grupo_28538" data-name="Grupo 28538">
            <path id="Trazado_4599" data-name="Trazado 4599" d="M42.342,48.538v2.334H22.658V33.931c.231-.12.467-.231.708-.335l.952-.41,3.987-.75L32.425,34.5l3.955-2.564,4.3,1.249.952.41c.241.1.478.215.708.335Z" fill="#e5827f"/>
          </g>
        </g>
        <path id="Trazado_4600" data-name="Trazado 4600" d="M32.5,36.455a.978.978,0,0,0-.979.979V50.872a.979.979,0,0,0,1.957,0V37.434A.978.978,0,0,0,32.5,36.455Z" fill="#de6a66"/>
        <path id="Trazado_4601" data-name="Trazado 4601" d="M41.634,33.6l-.952-.41-4.3-1.249L32.425,34.5l-4.119-2.065-.414.078L28,33.789l-1.7.864v-1.84l-1.983.373-.952.41c-.241.1-.478.215-.708.335V37.9a11.407,11.407,0,0,1,1.549-1.345,1.4,1.4,0,0,1,1.806.146L30.8,41.457a2.4,2.4,0,0,0,1.7.7h0a2.4,2.4,0,0,0,1.7-.7l7.4-7.345a2.048,2.048,0,0,0,.308-.392c-.091-.042-.183-.083-.276-.123Z" fill="#de6a66"/>
        <path id="Trazado_4602" data-name="Trazado 4602" d="M33.525,33.931l-1.024.5s-1.431-.422-1.5-.4-2.034,2.174-2.034,2.174V37.8l2.754,2.733a1.108,1.108,0,0,0,1.561,0L36.034,37.8l.133-2.435Z" fill="#b3adb5"/>
        <path id="Trazado_4603" data-name="Trazado 4603" d="M33.476,39.643,30.119,36.59V34.952c-.55.593-1.153,1.253-1.153,1.253V37.8l2.754,2.733a1.108,1.108,0,0,0,1.561,0l.628-.624A1.363,1.363,0,0,1,33.476,39.643Z" fill="#a59ca6"/>
        <path id="Trazado_4604" data-name="Trazado 4604" d="M32.5,34.43,28.966,37.8l-4.647-4.612a.7.7,0,0,1-.072-.912l3.173-4.339Z" fill="#f8f7f8"/>
        <path id="Trazado_4605" data-name="Trazado 4605" d="M26.726,33.222a.7.7,0,0,1-.072-.912l2.023-2.767L27.42,27.935l-3.173,4.339a.7.7,0,0,0,.072.912L28.966,37.8l1.21-1.153Z" fill="#efedee"/>
        <path id="Trazado_4606" data-name="Trazado 4606" d="M40.753,32.274a.7.7,0,0,1-.072.912L36.034,37.8,32.5,34.43l5.082-6.46Z" fill="#f8f7f8"/>
        <path id="Trazado_4607" data-name="Trazado 4607" d="M27.791,11.976l-.811-.592a.615.615,0,0,0-.968.385,7.436,7.436,0,0,1-1.849,3.692,1.033,1.033,0,0,0-.274.7v5.184a8.535,8.535,0,1,0,17.069,0V16.161a1.033,1.033,0,0,0-.274-.7,7.436,7.436,0,0,1-1.849-3.692.615.615,0,0,0-.968-.385l-.811.592a7.856,7.856,0,0,1-9.267,0Z" fill="#ffe6c6"/>
        <path id="Trazado_4608" data-name="Trazado 4608" d="M24.555,48.537,23.1,44.06a1.341,1.341,0,0,0-1.275-.925h-9.6a1.341,1.341,0,0,0-1.275.925L9.491,48.537,8.32,52.1H26.3Z" fill="#fcf0b6"/>
        <path id="Trazado_4609" data-name="Trazado 4609" d="M11.5,50.77l1.459-4.477a1.341,1.341,0,0,1,1.275-.925h9.293L23.1,44.06a1.341,1.341,0,0,0-1.275-.925h-9.6a1.341,1.341,0,0,0-1.275.925L9.491,48.537,8.32,52.1h2.738Z" fill="#fbe88c"/>
        <g id="Grupo_28539" data-name="Grupo 28539">
          <path id="Trazado_4610" data-name="Trazado 4610" d="M51.87,42.643a.978.978,0,0,1-.979-.979v-2.94a.979.979,0,1,1,1.957,0v2.94A.978.978,0,0,1,51.87,42.643Z" fill="#b3adb5"/>
        </g>
        <path id="Trazado_4611" data-name="Trazado 4611" d="M56.368,46.1h-9V44.4a4.5,4.5,0,1,1,9,0v1.7Z" fill="#f8f7f8"/>
        <path id="Trazado_4612" data-name="Trazado 4612" d="M49.357,44.645a4.5,4.5,0,0,1,4.051-4.476A4.5,4.5,0,0,0,47.372,44.4v1.7h1.984Z" fill="#efedee"/>
        <path id="Trazado_4613" data-name="Trazado 4613" d="M56.368,44.922h-9a1.156,1.156,0,0,0-1.156,1.156v3.634H57.524V46.078A1.156,1.156,0,0,0,56.368,44.922Z" fill="#b3adb5"/>
        <path id="Trazado_4614" data-name="Trazado 4614" d="M48.115,46.977a1.156,1.156,0,0,1,1.156-1.156H57.5a1.158,1.158,0,0,0-1.128-.9h-9a1.156,1.156,0,0,0-1.156,1.156v3.634h1.9V46.977Z" fill="#a59ca6"/>
        <path id="Trazado_4615" data-name="Trazado 4615" d="M58.661,55.815V50.043H6.339V63.271A1.729,1.729,0,0,0,8.068,65H56.932a1.729,1.729,0,0,0,1.729-1.729v-1H13.177a1.729,1.729,0,0,1-1.729-1.729V57.9a2.081,2.081,0,0,1,2.081-2.081H58.661Z" fill="#d79c7a"/>
        <path id="Trazado_4616" data-name="Trazado 4616" d="M58.661,48.537H6.339a1.251,1.251,0,0,0-1.251,1.251v2.167a1.251,1.251,0,0,0,1.251,1.251H58.661a1.251,1.251,0,0,0,1.251-1.251V49.788A1.251,1.251,0,0,0,58.661,48.537Z" fill="#dfae91"/>
      </g>
      <path id="Trazado_4617" data-name="Trazado 4617" d="M39.006,14.1l.514-.312a7.432,7.432,0,0,1-.682-2.008.617.617,0,0,0-.969-.392l-.811.592a7.856,7.856,0,0,1-9.267,0l-.811-.592a.615.615,0,0,0-.967.382,7.436,7.436,0,0,1-1.844,3.689,1.043,1.043,0,0,0-.279.706v5.184a8.546,8.546,0,0,0,10.32,8.349,9.823,9.823,0,0,1-7.5-9.784v-3.5a1.24,1.24,0,0,1,1.626-1.178A13.08,13.08,0,0,0,39.006,14.1Z" fill="#f8d3aa"/>
    </g>
  </g>
</svg>
