<svg xmlns="http://www.w3.org/2000/svg" xmlns:xlink="http://www.w3.org/1999/xlink" width="110" height="65" viewBox="0 0 110 65">
  <defs>
    <clipPath id="clip-path">
      <rect id="Rectángulo_4968" data-name="Rectángulo 4968" width="110" height="65" transform="translate(727 1200)" fill="#fff" stroke="#707070" stroke-width="1"/>
    </clipPath>
  </defs>
  <g id="Enmascarar_grupo_31" data-name="Enmascarar grupo 31" transform="translate(-727 -1200)" clip-path="url(#clip-path)">
    <g id="comida" transform="translate(749.5 1200)">
      <circle id="Elipse_309" data-name="Elipse 309" cx="32.41" cy="32.41" r="32.41" transform="translate(0.09 0.017)" fill="#cdd6e0"/>
      <circle id="Elipse_310" data-name="Elipse 310" cx="23.362" cy="23.362" r="23.362" transform="translate(9.138 9.065)" fill="#acb3ba"/>
      <path id="Trazado_4643" data-name="Trazado 4643" d="M33.445.017a1.182,1.182,0,0,0-1.08,1.215V13.522a1.215,1.215,0,1,1-2.431,0V1.233A1.1,1.1,0,0,0,28.854.017,1.241,1.241,0,0,0,27.5,1.233V13.522a1.21,1.21,0,0,1-1.215,1.215h0a1.21,1.21,0,0,1-1.215-1.215V1.233A1.1,1.1,0,0,0,23.992.017a1.241,1.241,0,0,0-1.35,1.215V13.522a1.21,1.21,0,0,1-1.215,1.215h0a1.21,1.21,0,0,1-1.215-1.215V1.233A1.1,1.1,0,0,0,19.131.017a1.241,1.241,0,0,0-1.35,1.215V14.872a8.731,8.731,0,0,0,2.431,5.942A11.8,11.8,0,0,1,23.722,30l-2.7,29.169v.945A5.2,5.2,0,0,0,27.1,64.7,5.339,5.339,0,0,0,31.285,58.9L28.719,29.862a11.622,11.622,0,0,1,3.511-9.183,8.481,8.481,0,0,0,2.431-5.942V1.233A1.21,1.21,0,0,0,33.445.017Z" fill="#f2f2f2"/>
      <path id="Trazado_4644" data-name="Trazado 4644" d="M28.854,30.4H23.722L21.156,59.166v.945A5.2,5.2,0,0,0,27.233,64.7,5.339,5.339,0,0,0,31.42,58.9Z" fill="#40596b"/>
      <path id="Trazado_4645" data-name="Trazado 4645" d="M45.059.017s-5.807,2.3-8.238,19.716c-.945,7.157.54,14.179,3.241,20.8a6.309,6.309,0,0,1,.405,2.3l-1.62,17.42v.81a4.27,4.27,0,0,0,4.726,3.781c2.161-.27,3.646-2.566,3.511-4.726Z" fill="#f2f2f2"/>
      <path id="Trazado_4646" data-name="Trazado 4646" d="M40.467,42.691v.27l-1.621,17.42v.81a4.27,4.27,0,0,0,4.726,3.781c2.161-.27,3.646-2.566,3.511-4.726l-.54-17.42H40.467v-.135Z" fill="#ff7058"/>
    </g>
  </g>
</svg>
