<svg xmlns="http://www.w3.org/2000/svg" width="395" height="231.337" viewBox="0 0 395 231.337">
  <g id="Grupo_55725" data-name="Grupo 55725" transform="translate(-909 -4005)">
    <rect id="Rectángulo_5002" data-name="Rectángulo 5002" width="395" height="184" transform="translate(909 4052.337)" fill="#fffbdc"/>
    <g id="toma-de-decisiones" transform="translate(984.18 3987.835)">
      <path id="Trazado_4891" data-name="Trazado 4891" d="M185.088,226.367H70.912V161.06a28.72,28.72,0,0,1,28.72-28.72h56.736a28.72,28.72,0,0,1,28.72,28.72Z" fill="#cecece"/>
      <g id="Grupo_28622" data-name="Grupo 28622">
        <path id="Trazado_4892" data-name="Trazado 4892" d="M106.132,132.339h-6.5a28.72,28.72,0,0,0-28.72,28.72v65.307h6.5V161.059a28.72,28.72,0,0,1,28.72-28.72Z" fill="#afafaf"/>
      </g>
      <g id="Grupo_28623" data-name="Grupo 28623">
        <path id="Trazado_4893" data-name="Trazado 4893" d="M149.868,132.339h6.5a28.72,28.72,0,0,1,28.72,28.72v65.307h-6.5V161.059a28.72,28.72,0,0,0-28.72-28.72Z" fill="#e2e2e2"/>
      </g>
      <circle id="Elipse_330" data-name="Elipse 330" cx="8.5" cy="8.5" r="8.5" transform="translate(84.426 66.503)" fill="#f87023"/>
      <circle id="Elipse_331" data-name="Elipse 331" cx="8.5" cy="8.5" r="8.5" transform="translate(152.574 66.503)" fill="#f8af23"/>
      <path id="Trazado_4894" data-name="Trazado 4894" d="M129.671,142.973h-3.343a14,14,0,0,1-14-14V105.482a14,14,0,0,1,14-14h3.343a14,14,0,0,1,14,14v23.491A14,14,0,0,1,129.671,142.973Z" fill="#f8af23"/>
      <g id="Grupo_28624" data-name="Grupo 28624">
        <path id="Trazado_4895" data-name="Trazado 4895" d="M118.829,128.973V105.482a14,14,0,0,1,12.421-13.9,14.183,14.183,0,0,0-1.579-.1h-3.343a14,14,0,0,0-14,14v23.491a14,14,0,0,0,14,14h3.343a13.959,13.959,0,0,0,1.579-.1A14,14,0,0,1,118.829,128.973Z" fill="#f87023"/>
      </g>
      <path id="Trazado_4896" data-name="Trazado 4896" d="M128,118.882A35.074,35.074,0,0,1,92.926,83.808V67.774a35.074,35.074,0,0,1,70.148,0V83.808A35.074,35.074,0,0,1,128,118.882Z" fill="#f8af23"/>
      <g id="Grupo_28625" data-name="Grupo 28625">
        <path id="Trazado_4897" data-name="Trazado 4897" d="M99.426,83.808V67.774A35.073,35.073,0,0,1,131.25,32.856c-1.071-.1-2.154-.156-3.25-.156A35.074,35.074,0,0,0,92.926,67.774V83.808A35.074,35.074,0,0,0,128,118.882c1.1,0,2.179-.057,3.25-.156A35.073,35.073,0,0,1,99.426,83.808Z" fill="#f87023"/>
      </g>
      <path id="Trazado_4898" data-name="Trazado 4898" d="M112.329,124.97l15.671,18-12.966,8.116-7-18.75Z" fill="#63bce7"/>
      <path id="Trazado_4899" data-name="Trazado 4899" d="M143.671,124.97l-15.671,18,12.966,8.116,7-18.75Z" fill="#63bce7"/>
      <path id="Trazado_4900" data-name="Trazado 4900" d="M108.038,132.339,128,166.48v36.1l-17.63-30.5h7.649l-12.686-11.194,1.144-28.537Z" fill="#cecece"/>
      <path id="Trazado_4901" data-name="Trazado 4901" d="M147.962,132.339,128,166.48v36.1l17.63-30.5h-7.649l12.686-11.194-1.144-28.537Z" fill="#cecece"/>
      <path id="Trazado_4902" data-name="Trazado 4902" d="M163.074,75.791H159.86l-3.213-17.322,6.427-2Z" fill="#9e9e9e"/>
      <path id="Trazado_4903" data-name="Trazado 4903" d="M92.926,75.791h4.6L102.9,59.719s36.125,24.125,65.875-4.25c22.888-21.83-14.228-32.415-32.567-36.136a33.947,33.947,0,0,0-17.374,1.043l-21.46,7.07a8.754,8.754,0,0,0-6.015,8.315,19.225,19.225,0,0,0-4.791,19.212Z" fill="#9e9e9e"/>
      <g id="Grupo_28626" data-name="Grupo 28626">
        <path id="Trazado_4904" data-name="Trazado 4904" d="M97.855,35.76a8.755,8.755,0,0,1,6.015-8.315l21.46-7.07a34.143,34.143,0,0,1,7.415-1.542,34.006,34.006,0,0,0-13.915,1.542l-21.46,7.07a8.754,8.754,0,0,0-6.015,8.315,19.225,19.225,0,0,0-4.791,19.212l6.362,20.819h4.6l1-2.976L93.063,54.972A19.225,19.225,0,0,1,97.855,35.76Z" fill="#707070"/>
      </g>
      <g id="Grupo_28627" data-name="Grupo 28627">
        <circle id="Elipse_332" data-name="Elipse 332" cx="3.125" cy="3.125" r="3.125" transform="translate(114.969 78.487)" fill="#3f3679"/>
        <circle id="Elipse_333" data-name="Elipse 333" cx="3.125" cy="3.125" r="3.125" transform="translate(141.281 78.487)" fill="#3f3679"/>
      </g>
      <path id="Trazado_4905" data-name="Trazado 4905" d="M70.914,226.367a15,15,0,0,1-15-15V123.688h30v87.679A15,15,0,0,1,70.914,226.367Z" fill="#cecece"/>
      <g id="Grupo_28628" data-name="Grupo 28628">
        <path id="Trazado_4906" data-name="Trazado 4906" d="M62.414,211.367V123.688h-6.5v87.679A14.973,14.973,0,0,0,74.164,226,15,15,0,0,1,62.414,211.367Z" fill="#afafaf"/>
      </g>
      <path id="Trazado_4907" data-name="Trazado 4907" d="M85.914,123.688v-6.853a11.7,11.7,0,0,0-11.7-11.7H64.532A3.862,3.862,0,0,0,60.67,109H49.282a25.335,25.335,0,0,1-8.015-1.3l-3.945-1.315a4.675,4.675,0,0,0-3.181,8.789l21.773,8.515h30Z" fill="#f8af23"/>
      <g id="Grupo_28629" data-name="Grupo 28629">
        <path id="Trazado_4908" data-name="Trazado 4908" d="M37.669,110.819a4.638,4.638,0,0,1,1.836-3.707l-2.183-.728a4.675,4.675,0,0,0-3.181,8.789l21.773,8.515h6.5l-21.773-8.515A4.675,4.675,0,0,1,37.669,110.819Z" fill="#f87023"/>
      </g>
      <path id="Trazado_4909" data-name="Trazado 4909" d="M185.086,226.367a15,15,0,0,0,15-15V123.688h-30v87.679A15,15,0,0,0,185.086,226.367Z" fill="#cecece"/>
      <g id="Grupo_28630" data-name="Grupo 28630">
        <path id="Trazado_4910" data-name="Trazado 4910" d="M193.586,123.688v87.679A15,15,0,0,1,181.836,226a14.973,14.973,0,0,0,18.25-14.637V123.688Z" fill="#e2e2e2"/>
      </g>
      <path id="Trazado_4911" data-name="Trazado 4911" d="M170.086,123.688v-6.853a11.7,11.7,0,0,1,11.7-11.7h9.686A3.862,3.862,0,0,1,195.33,109h11.387a25.335,25.335,0,0,0,8.015-1.3l3.945-1.315a4.675,4.675,0,0,1,3.181,8.789l-21.773,8.515h-30Z" fill="#f8af23"/>
      <g id="Grupo_28631" data-name="Grupo 28631">
        <path id="Trazado_4912" data-name="Trazado 4912" d="M218.331,110.819a4.638,4.638,0,0,0-1.836-3.707l2.183-.728a4.675,4.675,0,0,1,3.181,8.789l-21.773,8.515h-6.5l21.773-8.515A4.675,4.675,0,0,0,218.331,110.819Z" fill="#f8d323"/>
      </g>
      <circle id="Elipse_334" data-name="Elipse 334" cx="31.546" cy="31.546" r="31.546" transform="translate(178.331 30.658)" fill="#63bce7"/>
      <g id="Grupo_28632" data-name="Grupo 28632">
        <path id="Trazado_4913" data-name="Trazado 4913" d="M209.877,30.659a32.027,32.027,0,0,0-3.25.166,31.548,31.548,0,0,1,0,62.76,32.027,32.027,0,0,0,3.25.166,31.546,31.546,0,1,0,0-63.092Z" fill="#63e2e7"/>
      </g>
      <circle id="Elipse_335" data-name="Elipse 335" cx="31.546" cy="31.546" r="31.546" transform="translate(14.577 30.658)" fill="#f46275"/>
      <g id="Grupo_28633" data-name="Grupo 28633">
        <path id="Trazado_4914" data-name="Trazado 4914" d="M21.077,62.2a31.55,31.55,0,0,1,28.3-31.38,32.013,32.013,0,0,0-3.25-.166,31.546,31.546,0,0,0,0,63.092,32.012,32.012,0,0,0,3.25-.166,31.55,31.55,0,0,1-28.3-31.38Z" fill="#f43075"/>
      </g>
      <path id="Trazado_4915" data-name="Trazado 4915" d="M219.025,48.239,204.794,64.484l-4.664-3.768a4.826,4.826,0,1,0-6.087,7.49l11.9,9.611,20.359-23.238a4.828,4.828,0,0,0-7.282-6.34Z" fill="#f8af23"/>
      <path id="Trazado_4916" data-name="Trazado 4916" d="M53.091,62.2l5.866-6.7A5.241,5.241,0,1,0,51.073,48.6l-4.95,5.65-4.95-5.65a5.241,5.241,0,1,0-7.884,6.907l5.866,6.7-5.866,6.7a5.241,5.241,0,1,0,7.884,6.907l4.95-5.65,4.95,5.65A5.241,5.241,0,1,0,58.957,68.9Z" fill="#cecece"/>
      <g id="Grupo_28634" data-name="Grupo 28634">
        <path id="Trazado_4917" data-name="Trazado 4917" d="M27.323,235.84h-18a1.5,1.5,0,0,0,0,3h18a1.5,1.5,0,0,0,0-3Z" fill="#3f3679"/>
        <path id="Trazado_4918" data-name="Trazado 4918" d="M246.68,235.84h-18a1.5,1.5,0,0,0,0,3h18a1.5,1.5,0,0,0,0-3Z" fill="#3f3679"/>
        <path id="Trazado_4919" data-name="Trazado 4919" d="M218.479,235.84H37.521a1.5,1.5,0,0,0,0,3H218.48a1.5,1.5,0,1,0,0-3Z" fill="#3f3679"/>
        <path id="Trazado_4920" data-name="Trazado 4920" d="M9.32,227.867H246.68a1.5,1.5,0,0,0,0-3H194.543a16.482,16.482,0,0,0,7.043-13.5V124.712L222.4,116.57a6.174,6.174,0,0,0-4.2-11.608l-3.945,1.315a23.793,23.793,0,0,1-7.54,1.224h-10.1a5.371,5.371,0,0,0-5.148-3.862h-9.687a13.211,13.211,0,0,0-13.2,13.2v16.582a30.361,30.361,0,0,0-12.218-2.576h-7.544l-3.653-6.273v-8.477a36.6,36.6,0,0,0,19.389-31.718,9.959,9.959,0,0,0,6.514-9.367,10.069,10.069,0,0,0-6.5-9.364V60.986a56.825,56.825,0,0,0,5.232-4.429c6.367-6.073,8.8-11.9,7.242-17.313-1.838-6.372-10.363-15.253-40.546-21.378a35.52,35.52,0,0,0-18.142,1.088L96.9,26.024a10.236,10.236,0,0,0-7.028,9.112,20.682,20.682,0,0,0-4.744,20.278l3.271,10.7a9.972,9.972,0,0,0,3.053,18.767,36.607,36.607,0,0,0,19.376,31.206v8.477l-3.653,6.273H99.632a30.345,30.345,0,0,0-12.218,2.581V116.833a13.211,13.211,0,0,0-13.2-13.2H64.531a5.37,5.37,0,0,0-5.148,3.862h-10.1a23.793,23.793,0,0,1-7.54-1.224L37.8,104.96a6.174,6.174,0,0,0-4.2,11.608l20.818,8.142v86.655a16.482,16.482,0,0,0,7.043,13.5H9.32a1.5,1.5,0,0,0,0,3Zm109.691-56.914-12.15-10.722,1.011-25.205L126.5,166.887v30.1l-13.53-23.41h5.049a1.5,1.5,0,0,0,.991-2.625Zm-6.439-43.419,13.144,15.1-7.263,4.546-8.678-14.842ZM128,144.743l8.032,5.027L128,163.508l-8.032-13.737Zm15.428-17.209,2.8,4.8-8.678,14.842-7.263-4.546Zm-6.85,45.074a1.5,1.5,0,0,0,1.4.969h5.049l-13.53,23.41v-30.1l18.629-31.861,1.011,25.205-12.15,10.722a1.5,1.5,0,0,0-.412,1.656Zm62.008,38.759a13.5,13.5,0,0,1-27,0V125.188h27Zm-27-94.533a10.208,10.208,0,0,1,10.2-10.2h9.687a2.35,2.35,0,0,1,1.81.862H182.748a1.5,1.5,0,0,0,0,3h23.971a26.759,26.759,0,0,0,8.489-1.378l3.945-1.315a3.175,3.175,0,0,1,2.159,5.969l-21.51,8.412H171.585v-5.354Zm-3,19.9v74.629a16.482,16.482,0,0,0,7.043,13.5H129.5V202.983l17.429-30.155a1.5,1.5,0,0,0-1.3-2.25h-3.682l9.711-8.569a1.5,1.5,0,0,0,.507-1.185l-1.082-26.984h5.284A26.884,26.884,0,0,1,168.586,136.738ZM168.074,75a6.963,6.963,0,0,1-3.5,6.045V68.968A7.037,7.037,0,0,1,168.074,75Zm-6.5-7.229v6.517h-.467l-1.825-9.84q1.149-.654,2.292-1.39ZM97.84,28.871,119.3,21.8a32.5,32.5,0,0,1,16.606-1c10.443,2.119,35.078,8.239,38.259,19.269,1.228,4.256-.936,9.071-6.43,14.311-11.939,11.388-26.3,15.56-42.672,12.4a65.489,65.489,0,0,1-21-8.1L92.878,35.466a7.225,7.225,0,0,1,4.962-6.595Zm-6.856,9.577,10.3,21.373-4.839,14.47h-2.4L88,54.534a17.672,17.672,0,0,1,2.985-16.086ZM85.926,75a6.99,6.99,0,0,1,3.363-5.982l2.151,7.037c0,.043-.013.085-.013.13v5.649A7.008,7.008,0,0,1,85.926,75Zm8.5,8.805V77.291h3.1a1.5,1.5,0,0,0,1.423-1.024l4.782-14.3c6.331,3.614,29.714,15.167,52.776,3.949l1.883,10.149a1.5,1.5,0,0,0,1.475,1.227h1.714v6.516a33.575,33.575,0,0,1-67.149,0ZM128,120.382a36.386,36.386,0,0,0,14.171-2.858v6.884L128,140.688l-14.171-16.28v-6.884A36.386,36.386,0,0,0,128,120.382ZM99.632,133.839h5.284l-1.082,26.984a1.5,1.5,0,0,0,.507,1.185l9.711,8.569H110.37a1.5,1.5,0,0,0-1.3,2.25L126.5,202.982v21.884H80.371a16.482,16.482,0,0,0,7.043-13.5V136.74A27.289,27.289,0,0,1,99.632,133.839Zm-66.963-23.02a3.175,3.175,0,0,1,4.178-3.012l3.945,1.315a26.763,26.763,0,0,0,8.489,1.378H73.252a1.5,1.5,0,0,0,0-3H62.721a2.348,2.348,0,0,1,1.81-.862h9.687a10.208,10.208,0,0,1,10.2,10.2v5.354H56.2l-21.51-8.412a3.158,3.158,0,0,1-2.018-2.957ZM57.414,211.367V125.188h27v86.179a13.5,13.5,0,0,1-27,0Z" fill="#3f3679"/>
        <path id="Trazado_4921" data-name="Trazado 4921" d="M124.281,73.5H111.906a1.5,1.5,0,0,0,0,3h12.375a1.5,1.5,0,0,0,0-3Z" fill="#3f3679"/>
        <path id="Trazado_4922" data-name="Trazado 4922" d="M138.219,76.5h12.375a1.5,1.5,0,0,0,0-3H138.219a1.5,1.5,0,0,0,0,3Z" fill="#3f3679"/>
        <path id="Trazado_4923" data-name="Trazado 4923" d="M130.4,97.344h3.719a1.5,1.5,0,0,0,1.453-1.875L132.7,84.363a1.5,1.5,0,1,0-2.9.749l2.381,9.232H130.4a1.5,1.5,0,0,0,0,3Z" fill="#3f3679"/>
        <path id="Trazado_4924" data-name="Trazado 4924" d="M136.479,106.243a1.5,1.5,0,0,0-2.027-2.211,4.838,4.838,0,0,1-6.4,0,1.5,1.5,0,0,0-2.027,2.211,7.716,7.716,0,0,0,10.456,0Z" fill="#3f3679"/>
        <path id="Trazado_4925" data-name="Trazado 4925" d="M209.877,95.25a33.045,33.045,0,1,0-33.046-33.045A33.083,33.083,0,0,0,209.877,95.25Zm0-63.091a30.045,30.045,0,1,1-30.046,30.046,30.081,30.081,0,0,1,30.046-30.046Z" fill="#3f3679"/>
        <path id="Trazado_4926" data-name="Trazado 4926" d="M46.123,95.25A33.045,33.045,0,1,0,13.077,62.205,33.083,33.083,0,0,0,46.123,95.25Zm0-63.091A30.045,30.045,0,1,1,16.077,62.205,30.081,30.081,0,0,1,46.123,32.159Z" fill="#3f3679"/>
        <path id="Trazado_4927" data-name="Trazado 4927" d="M193.1,69.373l11.9,9.612a1.5,1.5,0,0,0,2.07-.179l20.358-23.237a6.309,6.309,0,0,0-.6-8.92,6.348,6.348,0,0,0-8.933.6L204.615,62.413l-3.543-2.862a6.348,6.348,0,0,0-8.9.934,6.306,6.306,0,0,0,.934,8.888Zm1.4-7a3.345,3.345,0,0,1,4.691-.491l4.664,3.768a1.5,1.5,0,0,0,2.07-.179l14.231-16.245h0a3.346,3.346,0,0,1,4.706-.316,3.309,3.309,0,0,1,.319,4.68L205.77,75.745l-10.782-8.706a3.31,3.31,0,0,1-.491-4.665Z" fill="#3f3679"/>
        <path id="Trazado_4928" data-name="Trazado 4928" d="M37.161,62.205l-5,5.708A6.74,6.74,0,1,0,42.3,76.8l3.822-4.362,3.821,4.361a6.74,6.74,0,1,0,10.14-8.883l-5-5.708,5-5.708a6.74,6.74,0,1,0-10.14-8.883l-3.822,4.362L42.3,47.614A6.741,6.741,0,1,0,32.159,56.5Zm-2.4-12.964a3.746,3.746,0,0,1,5.28.348l4.95,5.65a1.549,1.549,0,0,0,2.256,0l4.951-5.65a3.741,3.741,0,1,1,5.627,4.93l-5.866,6.7a1.5,1.5,0,0,0,0,1.977l5.866,6.7A3.741,3.741,0,1,1,52.2,74.819l-4.95-5.65a1.5,1.5,0,0,0-2.256,0l-4.951,5.65a3.741,3.741,0,1,1-5.627-4.931l5.866-6.7a1.5,1.5,0,0,0,0-1.977l-5.866-6.7a3.745,3.745,0,0,1,.348-5.278Z" fill="#3f3679"/>
      </g>
    </g>
  </g>
</svg>
